# This file uses centimeters as units for non-parametric coordinates.

mtllib Paper.mtl
g default
v -10.924236 -0.564509 14.552779
v 10.693336 -0.110130 14.552763
v -10.893134 -0.468943 14.552772
v 10.667675 -0.012962 14.552763
v -10.724016 0.050665 -14.552759
v 10.640334 0.090516 -14.552765
v -10.755115 -0.044903 -14.552759
v 10.665998 -0.006651 -14.552772
v 10.811365 -0.556958 -11.906803
v -10.724009 0.050663 -11.906803
v -10.755115 -0.044903 -11.906803
v 10.837033 -0.654125 -11.906803
v 10.811367 -0.556958 -9.260845
v -10.724009 0.050663 -9.260845
v -10.755115 -0.044902 -9.260845
v 10.837033 -0.654125 -9.260845
v 10.811367 -0.556958 -6.614889
v -10.724009 0.050663 -6.614889
v -10.755115 -0.044902 -6.614889
v 10.837033 -0.654125 -6.614889
v 10.811367 -0.556958 -3.968931
v -10.724009 0.050663 -3.968931
v -10.755115 -0.044902 -3.968931
v 10.837033 -0.654125 -3.968931
v 10.811367 -0.556958 -1.322974
v -10.724009 0.050663 -1.322974
v -10.755115 -0.044902 -1.322974
v 10.837033 -0.654125 -1.322974
v 10.811367 -0.556958 1.322983
v -10.724009 0.050663 1.322983
v -10.755115 -0.044902 1.322983
v 10.837033 -0.654125 1.322983
v 10.811367 -0.556958 3.968939
v -10.724009 0.050663 3.968939
v -10.755115 -0.044902 3.968939
v 10.837033 -0.654125 3.968939
v 10.811367 -0.556958 6.614896
v -10.724009 0.050663 6.614896
v -10.755115 -0.044902 6.614896
v 10.837033 -0.654125 6.614896
v 10.811367 -0.556958 9.260854
v -10.724009 0.050663 9.260854
v -10.755115 -0.044902 9.260854
v 10.837033 -0.654125 9.260854
v 10.811367 -0.556958 11.906811
v -10.724009 0.050663 11.906811
v -10.755115 -0.044902 11.906811
v 10.837033 -0.654124 11.906811
v 8.446884 -1.101679 14.552766
v 8.446884 -1.101679 -14.552759
v 8.466316 -1.200282 -14.552759
v 8.466316 -1.200281 -11.906803
v 8.466316 -1.200282 -9.260845
v 8.466316 -1.200282 -6.614889
v 8.466316 -1.200282 -3.968931
v 8.466316 -1.200282 -1.322974
v 8.466316 -1.200282 1.322983
v 8.466316 -1.200282 3.968939
v 8.466316 -1.200282 6.614896
v 8.466316 -1.200281 9.260854
v 8.466316 -1.200282 11.906811
v 8.466316 -1.200282 14.552766
v 6.052537 -1.494879 14.552766
v 6.052537 -1.494879 -14.552759
v 6.065658 -1.594519 -14.552759
v 6.065658 -1.594519 -11.906803
v 6.065658 -1.594519 -9.260845
v 6.065658 -1.594519 -6.614889
v 6.065658 -1.594519 -3.968931
v 6.065658 -1.594519 -1.322974
v 6.065658 -1.594519 1.322983
v 6.065658 -1.594519 3.968939
v 6.065658 -1.594519 6.614896
v 6.065658 -1.594519 9.260854
v 6.065658 -1.594519 11.906811
v 6.065658 -1.594519 14.552766
v 3.638027 -1.734966 14.552766
v 3.638027 -1.734966 -14.552759
v 3.644784 -1.835238 -14.552759
v 3.644784 -1.835238 -11.906803
v 3.644784 -1.835238 -9.260845
v 3.644784 -1.835238 -6.614889
v 3.644784 -1.835238 -3.968931
v 3.644784 -1.835238 -1.322974
v 3.644784 -1.835238 1.322983
v 3.644784 -1.835238 3.968939
v 3.644784 -1.835239 6.614896
v 3.644784 -1.835238 9.260854
v 3.644784 -1.835238 11.906811
v 3.644784 -1.835238 14.552766
v 1.213134 -1.820966 14.552766
v 1.213134 -1.820966 -14.552759
v 1.213498 -1.921465 -14.552759
v 1.213498 -1.921465 -11.906803
v 1.213498 -1.921465 -9.260845
v 1.213498 -1.921465 -6.614889
v 1.213498 -1.921465 -3.968931
v 1.213498 -1.921465 -1.322974
v 1.213498 -1.921465 1.322983
v 1.213498 -1.921465 3.968939
v 1.213498 -1.921465 6.614896
v 1.213498 -1.921465 9.260854
v 1.213498 -1.921465 11.906811
v 1.213498 -1.921465 14.552766
v -1.212318 -1.752532 14.552766
v -1.212318 -1.752532 -14.552759
v -1.218348 -1.852851 -14.552759
v -1.218348 -1.852851 -11.906803
v -1.218348 -1.852851 -9.260845
v -1.218348 -1.852851 -6.614889
v -1.218348 -1.852851 -3.968931
v -1.218348 -1.852851 -1.322974
v -1.218348 -1.852851 1.322983
v -1.218348 -1.852851 3.968939
v -1.218348 -1.852851 6.614896
v -1.218348 -1.852851 9.260854
v -1.218348 -1.852851 11.906811
v -1.218348 -1.852851 14.552766
v -3.628503 -1.529941 14.552766
v -3.628503 -1.529941 -14.552759
v -3.640903 -1.629673 -14.552759
v -3.640903 -1.629673 -11.906803
v -3.640903 -1.629674 -9.260845
v -3.640903 -1.629673 -6.614889
v -3.640903 -1.629673 -3.968931
v -3.640903 -1.629673 -1.322974
v -3.640903 -1.629673 1.322983
v -3.640903 -1.629673 3.968939
v -3.640903 -1.629673 6.614896
v -3.640903 -1.629673 9.260854
v -3.640903 -1.629673 11.906811
v -3.640903 -1.629673 14.552766
v -6.025635 -1.154094 14.552766
v -6.025635 -1.154094 -14.552759
v -6.044355 -1.252835 -14.552759
v -6.044355 -1.252834 -11.906803
v -6.044355 -1.252835 -9.260845
v -6.044355 -1.252834 -6.614889
v -6.044355 -1.252834 -3.968931
v -6.044355 -1.252834 -1.322974
v -6.044355 -1.252834 1.322983
v -6.044355 -1.252835 3.968939
v -6.044355 -1.252835 6.614896
v -6.044355 -1.252835 9.260854
v -6.044355 -1.252835 11.906811
v -6.044355 -1.252835 14.552766
v -8.394001 -0.626513 14.552766
v -8.394001 -0.626513 -14.552759
v -8.418965 -0.723864 -14.552759
v -8.418965 -0.723863 -11.906803
v -8.418965 -0.723864 -9.260845
v -8.418965 -0.723864 -6.614889
v -8.418965 -0.723864 -3.968931
v -8.418965 -0.723864 -1.322974
v -8.418965 -0.723864 1.322983
v -8.418965 -0.723864 3.968939
v -8.418965 -0.723864 6.614896
v -8.418965 -0.723864 9.260854
v -8.418965 -0.723863 11.906811
v -8.418965 -0.723864 14.552766
v 8.466316 -1.200282 -14.442948
vt 0.000000 1.000000
vt 0.115125 1.000000
vt 0.116272 1.000000
vt 0.001429 1.000000
vt 0.009201 0.000000
vt 0.116272 0.000000
vt 0.115125 0.000000
vt 0.007772 0.000000
vt 0.007772 0.909091
vt 0.993397 1.000000
vt 1.000000 0.909091
vt 0.998821 0.909091
vt 0.992218 1.000000
vt 0.009201 0.909091
vt 0.007772 0.090909
vt 0.009201 0.090909
vt 0.115125 0.090909
vt 0.998821 0.090909
vt 1.000000 0.090909
vt 0.992141 0.000000
vt 0.990961 0.000000
vt 0.007772 0.181818
vt 0.009201 0.181818
vt 0.115125 0.181818
vt 0.998821 0.181818
vt 1.000000 0.181818
vt 0.007772 0.272727
vt 0.009201 0.272727
vt 0.115125 0.272727
vt 0.998821 0.272727
vt 1.000000 0.272727
vt 0.007772 0.363636
vt 0.009201 0.363636
vt 0.115125 0.363636
vt 0.998821 0.363636
vt 1.000000 0.363636
vt 0.007772 0.454545
vt 0.009201 0.454545
vt 0.115125 0.454545
vt 0.998821 0.454545
vt 1.000000 0.454545
vt 0.007772 0.545455
vt 0.009201 0.545455
vt 0.115125 0.545455
vt 0.998821 0.545455
vt 1.000000 0.545455
vt 0.007772 0.636364
vt 0.009201 0.636364
vt 0.115125 0.636364
vt 0.998821 0.636364
vt 1.000000 0.636364
vt 0.007772 0.727273
vt 0.009201 0.727273
vt 0.115125 0.727273
vt 0.998821 0.727273
vt 1.000000 0.727273
vt 0.007772 0.818182
vt 0.009201 0.818182
vt 0.115125 0.818182
vt 0.998821 0.818182
vt 1.000000 0.818182
vt 0.115125 0.909091
vt 0.891058 0.000000
vt 0.890165 0.000000
vt 0.891058 0.090909
vt 0.891058 0.003773
vt 0.891058 0.181818
vt 0.891058 0.272727
vt 0.891058 0.363636
vt 0.891058 0.454545
vt 0.891058 0.545455
vt 0.891058 0.636364
vt 0.891058 0.727273
vt 0.891058 0.818182
vt 0.891058 0.909091
vt 0.891058 1.000000
vt 0.890165 1.000000
vt 0.780740 0.000000
vt 0.780137 0.000000
vt 0.780740 0.090909
vt 0.780740 0.181818
vt 0.780740 0.272727
vt 0.780740 0.363636
vt 0.780740 0.454545
vt 0.780740 0.545455
vt 0.780740 0.636364
vt 0.780740 0.727273
vt 0.780740 0.818182
vt 0.780740 0.909091
vt 0.780740 1.000000
vt 0.780137 1.000000
vt 0.669493 0.000000
vt 0.669183 0.000000
vt 0.669493 0.090909
vt 0.669493 0.181818
vt 0.669493 0.272727
vt 0.669493 0.363636
vt 0.669493 0.454545
vt 0.669493 0.545455
vt 0.669493 0.636364
vt 0.669493 0.727273
vt 0.669493 0.818182
vt 0.669493 0.909091
vt 0.669493 1.000000
vt 0.669183 1.000000
vt 0.557768 0.000000
vt 0.557751 0.000000
vt 0.557768 0.090909
vt 0.557768 0.181818
vt 0.557768 0.272727
vt 0.557768 0.363636
vt 0.557768 0.454545
vt 0.557768 0.545455
vt 0.557768 0.636364
vt 0.557768 0.727273
vt 0.557768 0.818182
vt 0.557768 0.909091
vt 0.557768 1.000000
vt 0.557751 1.000000
vt 0.446017 0.000000
vt 0.446294 0.000000
vt 0.446017 0.090909
vt 0.446017 0.181818
vt 0.446017 0.272727
vt 0.446017 0.363636
vt 0.446017 0.454545
vt 0.446017 0.545455
vt 0.446017 0.636364
vt 0.446017 0.727273
vt 0.446017 0.818182
vt 0.446017 0.909091
vt 0.446017 1.000000
vt 0.446294 1.000000
vt 0.334692 0.000000
vt 0.335262 0.000000
vt 0.334692 0.090909
vt 0.334692 0.181818
vt 0.334692 0.272727
vt 0.334692 0.363636
vt 0.334692 0.454545
vt 0.334692 0.545455
vt 0.334692 0.636364
vt 0.334692 0.727273
vt 0.334692 0.818182
vt 0.334692 0.909091
vt 0.334692 1.000000
vt 0.335262 1.000000
vt 0.224246 0.000000
vt 0.225106 0.000000
vt 0.224246 0.090909
vt 0.224246 0.181818
vt 0.224246 0.272727
vt 0.224246 0.363636
vt 0.224246 0.454545
vt 0.224246 0.545455
vt 0.224246 0.636364
vt 0.224246 0.727273
vt 0.224246 0.818182
vt 0.224246 0.909091
vt 0.224246 1.000000
vt 0.225106 1.000000
vn 0.000006 0.000034 1.000000
vn 0.000003 0.000001 1.000000
vn 0.000006 0.000034 1.000000
vn 0.000006 0.000034 1.000000
vn 0.000003 0.000000 -1.000000
vn 0.000003 0.000000 -1.000000
vn 0.000000 0.000000 -1.000000
vn 0.000003 0.000000 -1.000000
vn -0.277874 -0.960617 -0.001159
vn -0.235821 -0.971793 -0.002517
vn -0.062248 -0.978596 -0.196152
vn 0.966846 0.255359 0.000007
vn 0.966839 0.255385 0.000000
vn 0.966844 0.255368 0.000005
vn 0.966846 0.255359 0.000007
vn -0.950898 0.309504 -0.000001
vn -0.950900 0.309498 -0.000002
vn -0.950900 0.309498 -0.000002
vn -0.950895 0.309514 -0.000000
vn -0.950907 0.309477 0.000002
vn -0.950900 0.309500 0.000001
vn -0.950900 0.309500 0.000001
vn -0.950907 0.309477 0.000002
vn -0.279084 -0.960267 0.000000
vn -0.248383 -0.968662 0.000000
vn -0.248386 -0.968661 -0.000000
vn -0.279085 -0.960267 0.000000
vn 0.966838 0.255391 -0.000002
vn 0.966837 0.255394 -0.000000
vn 0.966838 0.255390 -0.000002
vn 0.966838 0.255390 -0.000002
vn -0.950893 0.309518 -0.000000
vn -0.950893 0.309518 -0.000000
vn -0.248382 -0.968662 -0.000000
vn -0.279085 -0.960266 -0.000000
vn 0.966838 0.255390 -0.000000
vn 0.966838 0.255390 -0.000000
vn -0.950893 0.309519 0.000000
vn -0.950893 0.309519 0.000000
vn -0.248384 -0.968662 0.000000
vn -0.279085 -0.960266 0.000000
vn 0.966839 0.255386 0.000000
vn 0.966839 0.255386 0.000000
vn -0.950893 0.309518 0.000000
vn -0.950893 0.309518 0.000000
vn -0.248384 -0.968662 -0.000000
vn -0.279085 -0.960266 -0.000000
vn 0.966839 0.255386 0.000000
vn 0.966839 0.255386 0.000000
vn -0.950895 0.309515 0.000000
vn -0.950895 0.309515 0.000000
vn -0.248383 -0.968662 -0.000000
vn -0.279085 -0.960267 -0.000000
vn 0.966839 0.255386 0.000000
vn 0.966839 0.255386 0.000000
vn -0.950895 0.309515 0.000000
vn -0.950895 0.309515 0.000000
vn -0.248384 -0.968661 0.000000
vn -0.279085 -0.960267 0.000000
vn 0.966839 0.255386 0.000000
vn 0.966839 0.255386 0.000000
vn -0.950895 0.309515 0.000000
vn -0.950895 0.309515 0.000000
vn -0.248384 -0.968662 -0.000000
vn -0.279085 -0.960267 0.000000
vn 0.966839 0.255386 0.000000
vn 0.966839 0.255386 0.000000
vn -0.950893 0.309518 0.000000
vn -0.950893 0.309518 0.000000
vn -0.248384 -0.968662 0.000000
vn -0.279085 -0.960266 0.000000
vn 0.966839 0.255386 0.000000
vn 0.966839 0.255386 0.000000
vn -0.950894 0.309518 -0.000000
vn -0.950893 0.309518 -0.000000
vn -0.248384 -0.968662 0.000000
vn -0.279085 -0.960266 -0.000000
vn 0.966839 0.255386 -0.000000
vn 0.966839 0.255386 -0.000000
vn -0.243976 -0.969781 -0.000000
vn -0.000000 0.000000 -1.000000
vn -0.000011 0.000030 -1.000000
vn -0.000012 0.000031 -1.000000
vn -0.000012 0.000031 -1.000000
vn 0.188694 -0.982036 -0.000000
vn 0.228110 -0.972700 -0.042667
vn 0.349544 -0.929018 -0.121423
vn 0.193370 -0.981126 -0.000000
vn 0.224496 -0.974475 -0.000000
vn 0.193371 -0.981126 0.000000
vn 0.224496 -0.974475 0.000000
vn 0.193371 -0.981126 0.000000
vn 0.224496 -0.974475 0.000000
vn 0.193371 -0.981126 0.000000
vn 0.224496 -0.974475 0.000000
vn 0.193371 -0.981126 0.000000
vn 0.224496 -0.974475 0.000000
vn 0.193371 -0.981126 -0.000000
vn 0.224496 -0.974475 0.000000
vn 0.193370 -0.981126 0.000000
vn 0.224496 -0.974475 0.000000
vn 0.193373 -0.981125 0.000000
vn 0.224496 -0.974475 0.000000
vn 0.221072 -0.975257 0.000261
vn 0.223250 -0.969065 0.105224
vn 0.258227 -0.966084 0.000000
vn 0.307018 -0.942780 0.130024
vn 0.000000 0.000000 1.000000
vn 0.000000 0.000000 1.000000
vn 0.000000 0.000000 1.000000
vn 0.000000 0.000000 1.000000
vn 0.000000 0.000000 -1.000000
vn 0.000000 0.000000 -1.000000
vn 0.130565 -0.991440 -0.000000
vn 0.130565 -0.991440 0.000000
vn 0.270818 -0.959034 -0.083136
vn 0.130565 -0.991440 -0.000000
vn 0.130565 -0.991440 0.000000
vn 0.130565 -0.991440 0.000000
vn 0.130565 -0.991440 0.000000
vn 0.130565 -0.991440 -0.000000
vn 0.130565 -0.991440 -0.000000
vn 0.130564 -0.991440 0.000000
vn 0.130565 -0.991440 0.000000
vn 0.130564 -0.991440 -0.000000
vn 0.130565 -0.991440 0.000000
vn 0.000000 0.000000 1.000000
vn 0.000000 0.000000 1.000000
vn 0.000000 0.000000 -1.000000
vn 0.000000 0.000000 -1.000000
vn 0.067229 -0.997738 0.000000
vn 0.067229 -0.997737 0.000000
vn 0.067229 -0.997738 0.000000
vn 0.067229 -0.997738 0.000000
vn 0.067229 -0.997738 0.000000
vn 0.067229 -0.997738 0.000000
vn 0.067229 -0.997737 -0.000000
vn 0.067230 -0.997738 -0.000000
vn 0.067228 -0.997738 -0.000000
vn 0.067230 -0.997737 0.000000
vn 0.067229 -0.997738 0.000000
vn 0.067229 -0.997737 0.000000
vn 0.000000 0.000000 1.000000
vn 0.000000 0.000000 1.000000
vn 0.000000 0.000000 -1.000000
vn 0.000000 0.000000 -1.000000
vn 0.003622 -0.999994 0.000000
vn 0.003622 -0.999993 0.000000
vn 0.003622 -0.999993 0.000000
vn 0.003622 -0.999993 0.000000
vn 0.003622 -0.999993 0.000000
vn 0.003622 -0.999994 0.000000
vn 0.003622 -0.999993 0.000000
vn 0.003622 -0.999993 -0.000000
vn 0.003622 -0.999993 0.000000
vn 0.003622 -0.999993 0.000000
vn 0.003622 -0.999993 0.000000
vn 0.003622 -0.999994 0.000000
vn 0.000000 0.000000 1.000000
vn 0.000000 0.000000 1.000000
vn 0.000000 0.000000 -1.000000
vn 0.000000 0.000000 -1.000000
vn -0.060000 -0.998198 -0.000000
vn -0.060001 -0.998198 -0.000000
vn -0.060000 -0.998198 0.000000
vn -0.060000 -0.998198 0.000000
vn -0.060001 -0.998198 0.000000
vn -0.060001 -0.998198 0.000000
vn -0.060001 -0.998198 0.000000
vn -0.060001 -0.998198 0.000000
vn -0.060001 -0.998198 0.000000
vn -0.060001 -0.998198 0.000000
vn -0.060001 -0.998198 0.000000
vn -0.060001 -0.998198 0.000000
vn 0.000000 0.000000 1.000000
vn 0.000000 0.000000 1.000000
vn 0.000000 0.000000 -1.000000
vn 0.000000 0.000000 -1.000000
vn -0.123380 -0.992360 -0.000000
vn -0.123381 -0.992359 -0.000000
vn -0.123379 -0.992360 -0.000000
vn -0.123380 -0.992360 0.000000
vn -0.123381 -0.992359 0.000000
vn -0.123379 -0.992360 -0.000000
vn -0.123380 -0.992360 0.000000
vn -0.123380 -0.992360 -0.000000
vn -0.123380 -0.992360 0.000000
vn -0.123380 -0.992360 0.000000
vn -0.123380 -0.992360 0.000000
vn -0.123380 -0.992360 0.000000
vn -0.000001 0.000000 1.000000
vn -0.000000 0.000000 1.000000
vn 0.000000 0.000000 -1.000000
vn 0.000000 0.000000 -1.000000
vn -0.186260 -0.982500 -0.000000
vn -0.186258 -0.982501 0.000000
vn -0.186258 -0.982501 -0.000000
vn -0.186260 -0.982501 0.000000
vn -0.186259 -0.982501 -0.000000
vn -0.186259 -0.982500 -0.000000
vn -0.186260 -0.982501 -0.000000
vn -0.186259 -0.982501 -0.000000
vn -0.186259 -0.982501 0.000000
vn -0.186259 -0.982501 0.000000
vn -0.186259 -0.982501 -0.000000
vn -0.186259 -0.982501 -0.000000
vn 0.000003 0.000000 1.000000
vn -0.000001 0.000000 1.000000
vn 0.455210 -0.860077 -0.230328
s 1
g polySurface1 Paper
f 1/1/1 160/2/2 147/3/3 3/4/4
s 2
f 5/5/5 148/6/6 149/7/7 7/8/8
s 3
f 47/9/9 160/2/10 1/1/11
s 4
f 2/10/12 48/11/13 45/12/14 4/13/15
s 5
f 47/9/16 1/1/17 3/4/18 46/14/19
f 7/8/20 11/15/21 10/16/22 5/5/23
s 3
f 7/8/24 149/7/25 150/17/26 11/15/27
s 4
f 9/18/28 12/19/29 8/20/30 6/21/31
s 5
f 11/15/21 15/22/32 14/23/33 10/16/22
s 3
f 11/15/27 150/17/26 151/24/34 15/22/35
s 4
f 13/25/36 16/26/37 12/19/29 9/18/28
s 5
f 15/22/32 19/27/38 18/28/39 14/23/33
s 3
f 15/22/35 151/24/34 152/29/40 19/27/41
s 4
f 17/30/42 20/31/43 16/26/37 13/25/36
s 5
f 19/27/38 23/32/44 22/33/45 18/28/39
s 3
f 19/27/41 152/29/40 153/34/46 23/32/47
s 4
f 21/35/48 24/36/49 20/31/43 17/30/42
s 5
f 23/32/44 27/37/50 26/38/51 22/33/45
s 3
f 23/32/47 153/34/46 154/39/52 27/37/53
s 4
f 25/40/54 28/41/55 24/36/49 21/35/48
s 5
f 27/37/50 31/42/56 30/43/57 26/38/51
s 3
f 27/37/53 154/39/52 155/44/58 31/42/59
s 4
f 29/45/60 32/46/61 28/41/55 25/40/54
s 5
f 31/42/56 35/47/62 34/48/63 30/43/57
s 3
f 31/42/59 155/44/58 156/49/64 35/47/65
s 4
f 33/50/66 36/51/67 32/46/61 29/45/60
s 5
f 35/47/62 39/52/68 38/53/69 34/48/63
s 3
f 35/47/65 156/49/64 157/54/70 39/52/71
s 4
f 37/55/72 40/56/73 36/51/67 33/50/66
s 5
f 39/52/68 43/57/74 42/58/75 38/53/69
s 3
f 39/52/71 157/54/70 158/59/76 43/57/77
s 4
f 41/60/78 44/61/79 40/56/73 37/55/72
s 5
f 43/57/74 47/9/16 46/14/19 42/58/75
s 3
f 43/57/77 158/59/76 159/62/80 47/9/9
s 4
f 45/12/14 48/11/13 44/61/79 41/60/78
s 2
f 51/63/81 50/64/82 6/21/83 8/20/84
s 3
f 52/65/85 161/66/86 12/19/87
f 53/67/88 52/65/85 12/19/87 16/26/89
f 54/68/90 53/67/88 16/26/89 20/31/91
f 55/69/92 54/68/90 20/31/91 24/36/93
f 56/70/94 55/69/92 24/36/93 28/41/95
f 57/71/96 56/70/94 28/41/95 32/46/97
f 58/72/98 57/71/96 32/46/97 36/51/99
f 59/73/100 58/72/98 36/51/99 40/56/101
f 60/74/102 59/73/100 40/56/101 44/61/103
f 61/75/104 60/74/102 44/61/103 48/11/105
f 62/76/106 61/75/104 2/10/107
s 1
f 49/77/108 62/76/109 2/10/110 4/13/111
s 2
f 65/78/112 64/79/113 50/64/82 51/63/81
s 3
f 66/80/114 65/78/115 51/63/116 161/66/86 52/65/85
f 67/81/117 66/80/114 52/65/85 53/67/88
f 68/82/118 67/81/117 53/67/88 54/68/90
f 69/83/119 68/82/118 54/68/90 55/69/92
f 70/84/120 69/83/119 55/69/92 56/70/94
f 71/85/121 70/84/120 56/70/94 57/71/96
f 72/86/122 71/85/121 57/71/96 58/72/98
f 73/87/123 72/86/122 58/72/98 59/73/100
f 74/88/124 73/87/123 59/73/100 60/74/102
f 75/89/125 74/88/124 60/74/102 61/75/104
f 76/90/126 75/89/125 61/75/104 62/76/106
s 1
f 63/91/127 76/90/128 62/76/109 49/77/108
s 2
f 79/92/129 78/93/130 64/79/113 65/78/112
s 3
f 80/94/131 79/92/132 65/78/115 66/80/114
f 81/95/133 80/94/131 66/80/114 67/81/117
f 82/96/134 81/95/133 67/81/117 68/82/118
f 83/97/135 82/96/134 68/82/118 69/83/119
f 84/98/136 83/97/135 69/83/119 70/84/120
f 85/99/137 84/98/136 70/84/120 71/85/121
f 86/100/138 85/99/137 71/85/121 72/86/122
f 87/101/139 86/100/138 72/86/122 73/87/123
f 88/102/140 87/101/139 73/87/123 74/88/124
f 89/103/141 88/102/140 74/88/124 75/89/125
f 90/104/142 89/103/141 75/89/125 76/90/126
s 1
f 77/105/143 90/104/144 76/90/128 63/91/127
s 2
f 93/106/145 92/107/146 78/93/130 79/92/129
s 3
f 94/108/147 93/106/148 79/92/132 80/94/131
f 95/109/149 94/108/147 80/94/131 81/95/133
f 96/110/150 95/109/149 81/95/133 82/96/134
f 97/111/151 96/110/150 82/96/134 83/97/135
f 98/112/152 97/111/151 83/97/135 84/98/136
f 99/113/153 98/112/152 84/98/136 85/99/137
f 100/114/154 99/113/153 85/99/137 86/100/138
f 101/115/155 100/114/154 86/100/138 87/101/139
f 102/116/156 101/115/155 87/101/139 88/102/140
f 103/117/157 102/116/156 88/102/140 89/103/141
f 104/118/158 103/117/157 89/103/141 90/104/142
s 1
f 91/119/159 104/118/160 90/104/144 77/105/143
s 2
f 107/120/161 106/121/162 92/107/146 93/106/145
s 3
f 108/122/163 107/120/164 93/106/148 94/108/147
f 109/123/165 108/122/163 94/108/147 95/109/149
f 110/124/166 109/123/165 95/109/149 96/110/150
f 111/125/167 110/124/166 96/110/150 97/111/151
f 112/126/168 111/125/167 97/111/151 98/112/152
f 113/127/169 112/126/168 98/112/152 99/113/153
f 114/128/170 113/127/169 99/113/153 100/114/154
f 115/129/171 114/128/170 100/114/154 101/115/155
f 116/130/172 115/129/171 101/115/155 102/116/156
f 117/131/173 116/130/172 102/116/156 103/117/157
f 118/132/174 117/131/173 103/117/157 104/118/158
s 1
f 105/133/175 118/132/176 104/118/160 91/119/159
s 2
f 121/134/177 120/135/178 106/121/162 107/120/161
s 3
f 122/136/179 121/134/180 107/120/164 108/122/163
f 123/137/181 122/136/179 108/122/163 109/123/165
f 124/138/182 123/137/181 109/123/165 110/124/166
f 125/139/183 124/138/182 110/124/166 111/125/167
f 126/140/184 125/139/183 111/125/167 112/126/168
f 127/141/185 126/140/184 112/126/168 113/127/169
f 128/142/186 127/141/185 113/127/169 114/128/170
f 129/143/187 128/142/186 114/128/170 115/129/171
f 130/144/188 129/143/187 115/129/171 116/130/172
f 131/145/189 130/144/188 116/130/172 117/131/173
f 132/146/190 131/145/189 117/131/173 118/132/174
s 1
f 119/147/191 132/146/192 118/132/176 105/133/175
s 2
f 135/148/193 134/149/194 120/135/178 121/134/177
s 3
f 136/150/195 135/148/196 121/134/180 122/136/179
f 137/151/197 136/150/195 122/136/179 123/137/181
f 138/152/198 137/151/197 123/137/181 124/138/182
f 139/153/199 138/152/198 124/138/182 125/139/183
f 140/154/200 139/153/199 125/139/183 126/140/184
f 141/155/201 140/154/200 126/140/184 127/141/185
f 142/156/202 141/155/201 127/141/185 128/142/186
f 143/157/203 142/156/202 128/142/186 129/143/187
f 144/158/204 143/157/203 129/143/187 130/144/188
f 145/159/205 144/158/204 130/144/188 131/145/189
f 146/160/206 145/159/205 131/145/189 132/146/190
s 1
f 133/161/207 146/160/208 132/146/192 119/147/191
s 2
f 149/7/7 148/6/6 134/149/194 135/148/193
s 3
f 150/17/26 149/7/25 135/148/196 136/150/195
f 151/24/34 150/17/26 136/150/195 137/151/197
f 152/29/40 151/24/34 137/151/197 138/152/198
f 153/34/46 152/29/40 138/152/198 139/153/199
f 154/39/52 153/34/46 139/153/199 140/154/200
f 155/44/58 154/39/52 140/154/200 141/155/201
f 156/49/64 155/44/58 141/155/201 142/156/202
f 157/54/70 156/49/64 142/156/202 143/157/203
f 158/59/76 157/54/70 143/157/203 144/158/204
f 159/62/80 158/59/76 144/158/204 145/159/205
f 160/2/10 159/62/80 145/159/205 146/160/206
s 1
f 147/3/3 160/2/2 146/160/208 133/161/207
s 3
f 47/9/9 159/62/80 160/2/10
f 12/19/87 161/66/86 51/63/116 8/20/209
f 2/10/107 61/75/104 48/11/105
g default
v 8.446884 -1.101679 11.906811
v 8.446884 -1.101678 9.260854
v 8.446884 -1.101679 6.614896
v 8.446884 -1.101679 3.968939
v 8.446884 -1.101679 1.322983
v 8.446884 -1.101679 -1.322974
v 8.446884 -1.101679 -3.968931
v 8.446884 -1.101679 -6.614889
v 8.446884 -1.101679 -9.260845
v 8.446884 -1.101678 -11.906803
v 6.052537 -1.494880 11.906811
v 6.052537 -1.494880 9.260854
v 6.052537 -1.494880 6.614896
v 6.052537 -1.494879 3.968939
v 6.052537 -1.494879 1.322983
v 6.052537 -1.494879 -1.322974
v 6.052537 -1.494879 -3.968931
v 6.052537 -1.494879 -6.614889
v 6.052537 -1.494879 -9.260845
v 6.052537 -1.494879 -11.906803
v 3.638027 -1.734966 11.906811
v 3.638027 -1.734965 9.260854
v 3.638027 -1.734965 6.614896
v 3.638027 -1.734965 3.968939
v 3.638027 -1.734966 1.322983
v 3.638027 -1.734966 -1.322974
v 3.638027 -1.734966 -3.968931
v 3.638027 -1.734966 -6.614889
v 3.638027 -1.734966 -9.260845
v 3.638027 -1.734966 -11.906803
v 1.213134 -1.820966 11.906811
v 1.213134 -1.820967 9.260854
v 1.213134 -1.820967 6.614896
v 1.213134 -1.820967 3.968939
v 1.213134 -1.820966 1.322983
v 1.213134 -1.820966 -1.322974
v 1.213134 -1.820966 -3.968931
v 1.213134 -1.820966 -6.614889
v 1.213134 -1.820966 -9.260845
v 1.213134 -1.820966 -11.906803
v -1.212318 -1.752532 11.906811
v -1.212318 -1.752532 9.260854
v -1.212318 -1.752532 6.614896
v -1.212318 -1.752534 3.968939
v -1.212318 -1.752532 1.322983
v -1.212318 -1.752532 -1.322974
v -1.212318 -1.752532 -3.968931
v -1.212318 -1.752532 -6.614889
v -1.212318 -1.752532 -9.260845
v -1.212318 -1.752532 -11.906803
v -3.628503 -1.529941 11.906811
v -3.628503 -1.529941 9.260854
v -3.628503 -1.529941 6.614896
v -3.628503 -1.529941 3.968939
v -3.628503 -1.529941 1.322983
v -3.628503 -1.529941 -1.322974
v -3.628503 -1.529941 -3.968931
v -3.628503 -1.529941 -6.614889
v -3.628503 -1.529941 -9.260845
v -3.628503 -1.529941 -11.906803
v -6.025635 -1.154094 11.906811
v -6.025635 -1.154094 9.260854
v -6.025635 -1.154094 6.614896
v -6.025635 -1.154094 3.968939
v -6.025635 -1.154094 1.322983
v -6.025635 -1.154094 -1.322974
v -6.025635 -1.154094 -3.968931
v -6.025635 -1.154094 -6.614889
v -6.025635 -1.154093 -9.260845
v -6.025635 -1.154094 -11.906803
v -8.394001 -0.626513 11.906811
v -8.394002 -0.626513 9.260854
v -8.394002 -0.626513 6.614896
v -8.394002 -0.626513 3.968939
v -8.394002 -0.626514 1.322983
v -8.394002 -0.626514 -1.322974
v -8.394002 -0.626514 -3.968931
v -8.394002 -0.626514 -6.614889
v -8.394002 -0.626513 -9.260845
v -8.394001 -0.626513 -11.906803
v -10.893134 -0.468943 14.552772
v -8.394001 -0.626513 14.552766
v -10.724009 0.050663 11.906811
v -8.394001 -0.626513 -14.552759
v -10.724016 0.050665 -14.552759
v -10.724009 0.050663 -11.906803
v -10.724009 0.050663 -9.260845
v -10.724009 0.050663 -6.614889
v -10.724009 0.050663 -3.968931
v -10.724009 0.050663 -1.322974
v -10.724009 0.050663 1.322983
v -10.724009 0.050663 3.968939
v -10.724009 0.050663 6.614896
v -10.724009 0.050663 9.260854
v 10.667675 -0.012962 14.552763
v 10.811367 -0.556958 11.906811
v 10.811367 -0.556958 9.260854
v 10.811367 -0.556958 6.614896
v 10.811367 -0.556958 3.968939
v 10.811367 -0.556958 1.322983
v 10.811367 -0.556958 -1.322974
v 10.811367 -0.556958 -3.968931
v 10.811367 -0.556958 -6.614889
v 10.811367 -0.556958 -9.260845
v 10.811365 -0.556958 -11.906803
v 6.052537 -1.494879 14.552766
v 8.446884 -1.101679 14.552766
v 8.446884 -1.101679 -14.552759
v 6.052537 -1.494879 -14.552759
v 3.638027 -1.734966 14.552766
v 3.638027 -1.734966 -14.552759
v 1.213134 -1.820966 14.552766
v 1.213134 -1.820966 -14.552759
v -1.212318 -1.752532 14.552766
v -1.212318 -1.752532 -14.552759
v -3.628503 -1.529941 14.552766
v -3.628503 -1.529941 -14.552759
v -6.025635 -1.154094 14.552766
v -6.025635 -1.154094 -14.552759
v 10.640334 0.090516 -14.552765
vt 0.000000 0.000000
vt 0.115144 0.000000
vt 0.007792 0.090909
vt 0.007792 0.909091
vt 0.115144 0.909091
vt 0.115144 1.000000
vt 0.007792 1.000000
vt 0.007792 0.818182
vt 0.115144 0.818182
vt 0.007792 0.727273
vt 0.115144 0.727273
vt 0.007792 0.636364
vt 0.115144 0.636364
vt 0.007792 0.545455
vt 0.115144 0.545455
vt 0.007792 0.454545
vt 0.115144 0.454545
vt 0.007792 0.363636
vt 0.115144 0.363636
vt 0.007792 0.272727
vt 0.115144 0.272727
vt 0.007792 0.181818
vt 0.115144 0.181818
vt 0.115144 0.090909
vt 0.891060 0.090909
vt 0.993380 0.000000
vt 1.000000 0.090909
vt 0.891060 0.181818
vt 1.000000 0.181818
vt 0.891060 0.272727
vt 1.000000 0.272727
vt 0.891060 0.363636
vt 1.000000 0.363636
vt 0.891060 0.454545
vt 1.000000 0.454545
vt 0.891060 0.545455
vt 1.000000 0.545455
vt 0.891060 0.636364
vt 1.000000 0.636364
vt 0.891060 0.727273
vt 1.000000 0.727273
vt 0.891060 0.818182
vt 1.000000 0.818182
vt 0.891060 0.909091
vt 1.000000 0.909091
vt 0.891060 1.000000
vt 0.780745 0.000000
vt 0.891060 0.000000
vt 0.780745 0.090909
vt 0.780745 0.181818
vt 0.780745 0.272727
vt 0.780745 0.363636
vt 0.780745 0.454545
vt 0.780745 0.545455
vt 0.780745 0.636364
vt 0.780745 0.727273
vt 0.780745 0.818182
vt 0.780745 0.909091
vt 0.780745 1.000000
vt 0.669500 0.000000
vt 0.669500 0.090909
vt 0.669500 0.181818
vt 0.669500 0.272727
vt 0.669500 0.363636
vt 0.669500 0.454545
vt 0.669500 0.545455
vt 0.669500 0.636364
vt 0.669500 0.727273
vt 0.669500 0.818182
vt 0.669500 0.909091
vt 0.669500 1.000000
vt 0.557777 0.000000
vt 0.557777 0.090909
vt 0.557777 0.181818
vt 0.557777 0.272727
vt 0.557777 0.363636
vt 0.557777 0.454545
vt 0.557777 0.545455
vt 0.557777 0.636364
vt 0.557777 0.727273
vt 0.557777 0.818182
vt 0.557777 0.909091
vt 0.557777 1.000000
vt 0.446028 0.000000
vt 0.446028 0.090909
vt 0.446028 0.181818
vt 0.446028 0.272727
vt 0.446028 0.363636
vt 0.446028 0.454545
vt 0.446028 0.545455
vt 0.446028 0.636364
vt 0.446028 0.727273
vt 0.446028 0.818182
vt 0.446028 0.909091
vt 0.446028 1.000000
vt 0.334706 0.000000
vt 0.334706 0.090909
vt 0.334706 0.181818
vt 0.334706 0.272727
vt 0.334706 0.363636
vt 0.334706 0.454545
vt 0.334706 0.545455
vt 0.334706 0.636364
vt 0.334706 0.727273
vt 0.334706 0.818182
vt 0.334706 0.909091
vt 0.334706 1.000000
vt 0.224262 0.000000
vt 0.224262 0.090909
vt 0.224262 0.181818
vt 0.224262 0.272727
vt 0.224262 0.363636
vt 0.224262 0.454545
vt 0.224262 0.545455
vt 0.224262 0.636364
vt 0.224262 0.727273
vt 0.224262 0.818182
vt 0.224262 0.909091
vt 0.224262 1.000000
vt 0.992120 1.000000
vn 0.061703 0.978636 0.196126
vn 0.235792 0.971800 0.002543
vn 0.277871 0.960618 0.001159
vn 0.279085 0.960266 0.000000
vn 0.248385 0.968662 0.000000
vn 0.248384 0.968662 0.000000
vn 0.279085 0.960267 0.000000
vn 0.279085 0.960266 0.000000
vn 0.248384 0.968662 0.000000
vn 0.279085 0.960266 0.000000
vn 0.248384 0.968662 0.000000
vn 0.279085 0.960266 0.000000
vn 0.248384 0.968662 0.000000
vn 0.279085 0.960266 0.000000
vn 0.248384 0.968662 0.000000
vn 0.279085 0.960266 -0.000000
vn 0.248384 0.968662 -0.000000
vn 0.279085 0.960266 -0.000000
vn 0.248384 0.968662 -0.000000
vn 0.279085 0.960266 0.000000
vn 0.248384 0.968662 0.000000
vn 0.279085 0.960266 -0.000000
vn 0.248384 0.968662 -0.000000
vn 0.243976 0.969781 -0.000000
vn -0.221157 0.975238 -0.000262
vn -0.307352 0.942686 -0.129917
vn -0.223250 0.969065 -0.105223
vn -0.193372 0.981126 -0.000000
vn -0.224496 0.974475 -0.000000
vn -0.193370 0.981126 -0.000000
vn -0.224496 0.974475 -0.000000
vn -0.193371 0.981126 0.000000
vn -0.224496 0.974475 0.000000
vn -0.193371 0.981126 0.000000
vn -0.224496 0.974475 0.000000
vn -0.193371 0.981126 0.000000
vn -0.224496 0.974475 0.000000
vn -0.193371 0.981126 0.000000
vn -0.224496 0.974475 0.000000
vn -0.193371 0.981126 0.000000
vn -0.224496 0.974475 0.000000
vn -0.193370 0.981126 0.000000
vn -0.224496 0.974475 0.000000
vn -0.188907 0.981995 0.000000
vn -0.352261 0.927677 0.123807
vn -0.184146 0.982898 0.001092
vn -0.130565 0.991440 -0.000000
vn -0.258425 0.966031 -0.000000
vn -0.130564 0.991440 0.000000
vn -0.130565 0.991440 0.000000
vn -0.130564 0.991440 -0.000000
vn -0.130565 0.991440 0.000000
vn -0.130565 0.991440 -0.000000
vn -0.130565 0.991440 0.000000
vn -0.130565 0.991440 0.000000
vn -0.130565 0.991440 0.000000
vn -0.130565 0.991440 0.000000
vn -0.130565 0.991440 0.000000
vn -0.130565 0.991440 -0.000000
vn -0.067229 0.997738 -0.000000
vn -0.067228 0.997738 0.000000
vn -0.067232 0.997737 0.000000
vn -0.067228 0.997738 -0.000000
vn -0.067230 0.997738 0.000000
vn -0.067229 0.997738 0.000000
vn -0.067229 0.997738 0.000000
vn -0.067229 0.997738 0.000000
vn -0.067229 0.997738 0.000000
vn -0.067229 0.997738 0.000000
vn -0.067229 0.997737 0.000000
vn -0.067229 0.997738 0.000000
vn -0.003622 0.999994 0.000000
vn -0.003622 0.999994 -0.000000
vn -0.003622 0.999993 -0.000000
vn -0.003622 0.999993 -0.000000
vn -0.003622 0.999993 0.000000
vn -0.003622 0.999993 0.000000
vn -0.003622 0.999993 0.000000
vn -0.003622 0.999993 0.000000
vn -0.003622 0.999993 0.000000
vn -0.003622 0.999993 0.000000
vn -0.003622 0.999993 0.000000
vn -0.003622 0.999993 0.000000
vn 0.060001 0.998198 0.000000
vn 0.060001 0.998198 -0.000000
vn 0.060001 0.998198 -0.000000
vn 0.060003 0.998198 -0.000000
vn 0.059996 0.998199 0.000000
vn 0.060003 0.998198 0.000000
vn 0.060001 0.998198 0.000000
vn 0.060001 0.998198 0.000000
vn 0.060001 0.998198 0.000000
vn 0.060001 0.998198 0.000000
vn 0.060001 0.998198 0.000000
vn 0.060001 0.998198 0.000000
vn 0.123380 0.992360 0.000000
vn 0.123380 0.992360 0.000000
vn 0.123380 0.992360 0.000000
vn 0.123380 0.992360 -0.000000
vn 0.123380 0.992359 -0.000000
vn 0.123380 0.992360 0.000000
vn 0.123380 0.992360 0.000000
vn 0.123380 0.992360 0.000000
vn 0.123380 0.992360 0.000000
vn 0.123380 0.992360 0.000000
vn 0.123380 0.992360 -0.000000
vn 0.123380 0.992360 0.000000
vn 0.186259 0.982501 0.000000
vn 0.186259 0.982501 -0.000000
vn 0.186259 0.982501 -0.000000
vn 0.186259 0.982501 0.000000
vn 0.186259 0.982501 -0.000000
vn 0.186260 0.982501 -0.000000
vn 0.186258 0.982501 0.000000
vn 0.186260 0.982500 0.000000
vn 0.186258 0.982501 0.000000
vn 0.186261 0.982500 0.000000
vn 0.186258 0.982501 -0.000000
vn 0.186260 0.982500 0.000000
vn -0.463734 0.853198 0.238755
s 1
g Paper polySurface2
f 242/162/210 243/163/211 244/164/212
f 247/165/213 241/166/214 245/167/215 246/168/216
f 248/169/217 240/170/218 241/166/214 247/165/213
f 249/171/219 239/172/220 240/170/218 248/169/217
f 250/173/221 238/174/222 239/172/220 249/171/219
f 251/175/223 237/176/224 238/174/222 250/173/221
f 252/177/225 236/178/226 237/176/224 251/175/223
f 253/179/227 235/180/228 236/178/226 252/177/225
f 254/181/229 234/182/230 235/180/228 253/179/227
f 255/183/231 233/184/232 234/182/230 254/181/229
f 244/164/212 232/185/233 233/184/232 255/183/231
f 162/186/234 256/187/235 257/188/236
f 163/189/237 162/186/234 257/188/236 258/190/238
f 164/191/239 163/189/237 258/190/238 259/192/240
f 165/193/241 164/191/239 259/192/240 260/194/242
f 166/195/243 165/193/241 260/194/242 261/196/244
f 167/197/245 166/195/243 261/196/244 262/198/246
f 168/199/247 167/197/245 262/198/246 263/200/248
f 169/201/249 168/199/247 263/200/248 264/202/250
f 170/203/251 169/201/249 264/202/250 265/204/252
f 171/205/253 170/203/251 265/204/252 266/206/254
f 269/207/255 171/205/253 266/206/254
f 267/208/256 268/209/257 162/186/234 172/210/258
f 173/211/259 172/210/258 162/186/234 163/189/237
f 174/212/260 173/211/259 163/189/237 164/191/239
f 175/213/261 174/212/260 164/191/239 165/193/241
f 176/214/262 175/213/261 165/193/241 166/195/243
f 177/215/263 176/214/262 166/195/243 167/197/245
f 178/216/264 177/215/263 167/197/245 168/199/247
f 179/217/265 178/216/264 168/199/247 169/201/249
f 180/218/266 179/217/265 169/201/249 170/203/251
f 181/219/267 180/218/266 170/203/251 171/205/253
f 270/220/268 181/219/267 171/205/253 269/207/255
f 271/221/269 267/208/256 172/210/258 182/222/270
f 183/223/271 182/222/270 172/210/258 173/211/259
f 184/224/272 183/223/271 173/211/259 174/212/260
f 185/225/273 184/224/272 174/212/260 175/213/261
f 186/226/274 185/225/273 175/213/261 176/214/262
f 187/227/275 186/226/274 176/214/262 177/215/263
f 188/228/276 187/227/275 177/215/263 178/216/264
f 189/229/277 188/228/276 178/216/264 179/217/265
f 190/230/278 189/229/277 179/217/265 180/218/266
f 191/231/279 190/230/278 180/218/266 181/219/267
f 272/232/280 191/231/279 181/219/267 270/220/268
f 273/233/281 271/221/269 182/222/270 192/234/282
f 193/235/283 192/234/282 182/222/270 183/223/271
f 194/236/284 193/235/283 183/223/271 184/224/272
f 195/237/285 194/236/284 184/224/272 185/225/273
f 196/238/286 195/237/285 185/225/273 186/226/274
f 197/239/287 196/238/286 186/226/274 187/227/275
f 198/240/288 197/239/287 187/227/275 188/228/276
f 199/241/289 198/240/288 188/228/276 189/229/277
f 200/242/290 199/241/289 189/229/277 190/230/278
f 201/243/291 200/242/290 190/230/278 191/231/279
f 274/244/292 201/243/291 191/231/279 272/232/280
f 275/245/293 273/233/281 192/234/282 202/246/294
f 203/247/295 202/246/294 192/234/282 193/235/283
f 204/248/296 203/247/295 193/235/283 194/236/284
f 205/249/297 204/248/296 194/236/284 195/237/285
f 206/250/298 205/249/297 195/237/285 196/238/286
f 207/251/299 206/250/298 196/238/286 197/239/287
f 208/252/300 207/251/299 197/239/287 198/240/288
f 209/253/301 208/252/300 198/240/288 199/241/289
f 210/254/302 209/253/301 199/241/289 200/242/290
f 211/255/303 210/254/302 200/242/290 201/243/291
f 276/256/304 211/255/303 201/243/291 274/244/292
f 277/257/305 275/245/293 202/246/294 212/258/306
f 213/259/307 212/258/306 202/246/294 203/247/295
f 214/260/308 213/259/307 203/247/295 204/248/296
f 215/261/309 214/260/308 204/248/296 205/249/297
f 216/262/310 215/261/309 205/249/297 206/250/298
f 217/263/311 216/262/310 206/250/298 207/251/299
f 218/264/312 217/263/311 207/251/299 208/252/300
f 219/265/313 218/264/312 208/252/300 209/253/301
f 220/266/314 219/265/313 209/253/301 210/254/302
f 221/267/315 220/266/314 210/254/302 211/255/303
f 278/268/316 221/267/315 211/255/303 276/256/304
f 279/269/317 277/257/305 212/258/306 222/270/318
f 223/271/319 222/270/318 212/258/306 213/259/307
f 224/272/320 223/271/319 213/259/307 214/260/308
f 225/273/321 224/272/320 214/260/308 215/261/309
f 226/274/322 225/273/321 215/261/309 216/262/310
f 227/275/323 226/274/322 216/262/310 217/263/311
f 228/276/324 227/275/323 217/263/311 218/264/312
f 229/277/325 228/276/324 218/264/312 219/265/313
f 230/278/326 229/277/325 219/265/313 220/266/314
f 231/279/327 230/278/326 220/266/314 221/267/315
f 280/280/328 231/279/327 221/267/315 278/268/316
f 243/163/211 279/269/317 222/270/318 232/185/233
f 233/184/232 232/185/233 222/270/318 223/271/319
f 234/182/230 233/184/232 223/271/319 224/272/320
f 235/180/228 234/182/230 224/272/320 225/273/321
f 236/178/226 235/180/228 225/273/321 226/274/322
f 237/176/224 236/178/226 226/274/322 227/275/323
f 238/174/222 237/176/224 227/275/323 228/276/324
f 239/172/220 238/174/222 228/276/324 229/277/325
f 240/170/218 239/172/220 229/277/325 230/278/326
f 241/166/214 240/170/218 230/278/326 231/279/327
f 245/167/215 241/166/214 231/279/327 280/280/328
f 244/164/212 243/163/211 232/185/233
f 269/207/255 266/206/254 281/281/329
f 268/209/257 256/187/235 162/186/234
