# This file uses centimeters as units for non-parametric coordinates.

mtllib Paper.mtl
g default
v -5.030108 -0.037708 7.563581
v 5.030108 -0.037708 7.563581
v -5.030108 0.037708 7.563581
v 5.030108 0.037708 7.563581
v -5.030108 0.037708 -7.563581
v 5.030108 0.037708 -7.563581
v -5.030108 -0.037708 -7.563581
v 5.030108 -0.037708 -7.563581
vt 0.000000 1.000000
vt 1.000000 1.000000
vt 1.000000 1.000000
vt 0.000000 1.000000
vt 0.000000 0.000000
vt 1.000000 0.000000
vt 1.000000 0.000000
vt 0.000000 0.000000
vn 0.000000 0.000000 1.000000
vn 0.000000 0.000000 1.000000
vn 0.000000 0.000000 1.000000
vn 0.000000 0.000000 1.000000
vn 0.000000 0.000000 -1.000000
vn 0.000000 0.000000 -1.000000
vn 0.000000 0.000000 -1.000000
vn 0.000000 0.000000 -1.000000
vn 0.000000 -1.000000 0.000000
vn 0.000000 -1.000000 0.000000
vn 0.000000 -1.000000 0.000000
vn 0.000000 -1.000000 0.000000
vn 1.000000 0.000000 0.000000
vn 1.000000 0.000000 0.000000
vn 1.000000 0.000000 0.000000
vn 1.000000 0.000000 0.000000
vn -1.000000 0.000000 0.000000
vn -1.000000 0.000000 0.000000
vn -1.000000 0.000000 0.000000
vn -1.000000 0.000000 0.000000
s off
g polySurface1
usemtl initialShadingGroup
f 1/1/1 2/2/2 4/3/3 3/4/4
f 5/5/5 6/6/6 8/7/7 7/8/8
f 7/8/9 8/7/10 2/2/11 1/1/12
f 2/2/13 8/7/14 6/6/15 4/3/16
f 7/8/17 1/1/18 3/4/19 5/5/20
g default
v -5.030108 0.037708 7.563581
v 5.030108 0.037708 7.563581
v 5.030108 0.037708 -7.563581
v -5.030108 0.037708 -7.563581
vt 0.000000 0.000000
vt 1.000000 0.000000
vt 1.000000 1.000000
vt 0.000000 1.000000
vn 0.000000 1.000000 0.000000
vn 0.000000 1.000000 0.000000
vn 0.000000 1.000000 0.000000
vn 0.000000 1.000000 0.000000
s off
g polySurface2
usemtl initialShadingGroup
f 9/9/21 10/10/22 11/11/23 12/12/24
