# This file uses centimeters as units for non-parametric coordinates.

mtllib DoorFrozen.mtl
g default
v 0.560975 -0.091873 -2.209423
v 0.593457 -0.078422 -2.241902
v 0.606909 -0.045942 -2.255355
v 0.350102 -0.091873 -2.209423
v 0.350102 -0.078422 -2.241902
v 0.350102 -0.045942 -2.255355
v 0.606909 0.045940 -2.255355
v 0.593457 0.078420 -2.241902
v 0.560975 0.091876 -2.209423
v 0.350102 0.045940 -2.255355
v 0.350102 0.078420 -2.241902
v 0.350102 0.091876 -2.209423
v 0.560975 -0.091873 -2.019919
v 0.593457 -0.078422 -2.019919
v 0.606909 -0.045942 -2.019919
v 0.606909 0.045940 -2.019919
v 0.593457 0.078420 -2.019919
v 0.560975 0.091876 -2.019919
v 0.093294 0.078420 -2.033371
v 0.093294 0.091876 -2.065852
v 0.093294 0.045940 -2.019919
v 0.396036 0.091876 -2.065852
v 0.363556 0.078420 -2.033371
v 0.350102 0.045940 -2.019919
v 0.093294 -0.078422 -2.033371
v 0.093294 -0.045942 -2.019919
v 0.093294 -0.091873 -2.065852
v 0.350102 -0.045942 -2.019919
v 0.363556 -0.078422 -2.033371
v 0.396036 -0.091873 -2.065852
v 0.093294 -0.078422 -2.241902
v 0.093294 -0.091873 -2.209423
v 0.093294 -0.045942 -2.255355
v 0.093294 0.078420 -2.241902
v 0.093294 0.045940 -2.255355
v 0.093294 0.091876 -2.209423
v 0.589706 0.042522 -1.519917
v 0.601869 0.044940 -1.524957
v 0.606909 0.045940 -1.537119
v 0.606909 -0.045942 -1.537119
v 0.601869 -0.044939 -1.524957
v 0.589706 -0.042519 -1.519917
v 0.560975 0.091876 -1.537119
v 0.559972 0.086837 -1.524957
v 0.557554 0.074676 -1.519917
v 0.399455 0.074676 -1.519917
v 0.397033 0.086837 -1.524957
v 0.396036 0.091876 -1.537119
v 0.350102 0.045940 -1.537119
v 0.355137 0.044936 -1.524957
v 0.367298 0.042519 -1.519917
v 0.367298 -0.042521 -1.519917
v 0.355137 -0.044939 -1.524957
v 0.350102 -0.045942 -1.537119
v 0.396036 -0.091873 -1.537119
v 0.397033 -0.086836 -1.524957
v 0.399455 -0.074677 -1.519917
v 0.557554 -0.074677 -1.519917
v 0.559972 -0.086836 -1.524957
v 0.560975 -0.091873 -1.537119
v 0.580292 -0.065257 -1.519917
v 0.589596 -0.074564 -1.524957
v 0.593457 -0.078422 -1.537119
v 0.580292 0.065259 -1.519917
v 0.589596 0.074566 -1.524957
v 0.593457 0.078420 -1.537119
v 0.376719 0.065259 -1.519917
v 0.367408 0.074566 -1.524957
v 0.363556 0.078420 -1.537119
v 0.376719 -0.065257 -1.519917
v 0.367408 -0.074564 -1.524957
v 0.363556 -0.078422 -1.537119
vn 0.000000 -0.106520 -0.994311
vn 0.000000 -0.382677 -0.923882
vn 0.000000 -0.382677 -0.923882
vn 0.000000 -0.107553 -0.994199
vn 0.000000 -0.923907 -0.382617
vn 0.000000 -0.997307 -0.073347
vn 0.000000 -0.997474 -0.071029
vn 0.000000 -0.923907 -0.382617
vn 0.000000 0.997305 -0.073373
vn 0.000000 0.923859 -0.382733
vn 0.000000 0.923859 -0.382733
vn 0.000000 0.997473 -0.071054
vn 0.000000 0.382677 -0.923882
vn 0.000000 0.106520 -0.994311
vn 0.000000 0.107553 -0.994199
vn 0.000000 0.382677 -0.923882
vn 0.000000 0.996978 0.077685
vn 0.000000 0.923867 0.382713
vn 0.000000 0.923867 0.382713
vn -0.023055 0.999651 0.012889
vn 0.000000 0.382630 0.923901
vn 0.000000 0.109580 0.993978
vn 0.000000 0.126934 0.991911
vn 0.000000 0.382630 0.923902
vn 0.000000 -0.109580 0.993978
vn 0.000000 -0.382630 0.923901
vn 0.000000 -0.382630 0.923902
vn 0.000000 -0.126934 0.991911
vn 0.000000 -0.923915 0.382598
vn 0.000000 -0.996980 0.077658
vn -0.023046 -0.999651 0.012884
vn 0.000000 -0.923915 0.382598
vn 0.063455 -0.997985 0.000000
vn 0.078701 -0.993105 -0.086879
vn 0.000000 -0.086229 -0.996275
vn 0.000000 0.086229 -0.996275
vn 0.078728 0.993101 -0.086909
vn 0.063478 0.997983 0.000000
vn 0.996291 0.086049 0.000000
vn 0.994281 0.106800 0.000000
vn 0.994281 -0.106800 0.000000
vn 0.996291 -0.086049 0.000000
vn -1.000000 0.000000 0.000000
vn -1.000000 0.000000 0.000000
vn -1.000000 0.000000 0.000000
vn -1.000000 0.000000 0.000000
vn -1.000000 0.000000 0.000000
vn -1.000000 0.000000 0.000000
vn -1.000000 0.000000 0.000000
vn -1.000000 0.000000 0.000000
vn -1.000000 0.000000 0.000000
vn -1.000000 0.000000 0.000000
vn -1.000000 0.000000 0.000000
vn -1.000000 0.000000 0.000000
vn 0.382589 -0.923919 0.000000
vn 0.382588 -0.923919 0.000000
vn 0.923901 -0.382631 0.000000
vn 0.923901 -0.382631 0.000000
vn 0.000000 -0.382677 -0.923882
vn 0.000000 -0.923907 -0.382617
vn 0.923901 0.382631 0.000000
vn 0.923901 0.382631 0.000000
vn 0.382704 0.923871 0.000000
vn 0.382704 0.923871 0.000000
vn 0.000000 0.923859 -0.382733
vn 0.000000 0.382677 -0.923882
vn 0.994161 0.107472 0.009661
vn 0.916633 0.096709 0.387854
vn 0.916625 -0.096688 0.387878
vn 0.994161 -0.107472 0.009660
vn 0.376457 0.035918 0.925738
vn 0.011095 0.001059 0.999938
vn 0.011095 -0.001059 0.999938
vn 0.376454 -0.035922 0.925739
vn 0.001041 0.017918 0.999839
vn 0.022008 0.378980 0.925143
vn -0.022018 0.378968 0.925148
vn -0.001041 0.017920 0.999839
vn 0.060711 0.920381 0.386281
vn 0.065417 0.997814 0.009324
vn -0.068681 0.997596 0.009235
vn -0.060742 0.920393 0.386248
vn -0.011096 0.001059 0.999938
vn -0.376464 0.035925 0.925735
vn -0.376462 -0.035928 0.925735
vn -0.011096 -0.001059 0.999938
vn -0.916797 0.096691 0.387471
vn -0.994044 0.108552 0.009613
vn -0.994044 -0.108552 0.009613
vn -0.916792 -0.096699 0.387481
vn -0.001041 -0.017922 0.999839
vn -0.022028 -0.379048 0.925115
vn 0.022019 -0.379059 0.925110
vn 0.001041 -0.017919 0.999839
vn -0.060732 -0.920421 0.386182
vn -0.068657 -0.997598 0.009233
vn 0.065394 -0.997816 0.009322
vn 0.060701 -0.920410 0.386215
vn -0.992041 0.125913 0.000000
vn -0.992041 -0.125913 0.000000
vn 0.004708 0.004708 0.999978
vn -0.004707 0.004708 0.999978
vn -0.004707 -0.004707 0.999978
vn 0.004708 -0.004707 0.999978
vn 0.382575 -0.923883 0.008787
vn 0.923865 -0.382617 0.008795
vn 0.923865 0.382617 0.008794
vn 0.382689 0.923835 0.008785
vn -0.382723 0.923863 0.000000
vn -0.382709 0.923832 0.008285
vn -0.923883 0.382676 0.000000
vn -0.923848 0.382661 0.008664
vn -0.923883 -0.382676 0.000000
vn -0.923848 -0.382662 0.008662
vn -0.382607 -0.923911 0.000000
vn -0.382595 -0.923879 0.008287
vn 0.252824 0.252848 0.933889
vn 0.853484 0.353511 0.382878
vn -0.252814 0.252765 0.933914
vn -0.353597 0.853605 0.382529
vn -0.252830 -0.252787 0.933904
vn -0.853623 -0.353572 0.382511
vn 0.252847 -0.252853 0.933881
vn 0.353496 -0.853525 0.382800
vn 0.853448 -0.353500 0.382968
vn 0.353561 0.853530 0.382730
vn -0.853645 0.353557 0.382476
vn -0.353536 -0.853599 0.382599
s 1
g DoorHandle Door1
usemtl initialShadingGroup
f 6//1 5//2 31//3 33//4
s 2
f 5//5 4//6 32//7 31//8
s 3
f 12//9 11//10 34//11 36//12
s 1
f 11//13 10//14 35//15 34//16
s 3
f 20//17 19//18 23//19 22//20
s 5
f 19//21 21//22 24//23 23//24
f 26//25 25//26 29//27 28//28
s 2
f 25//29 27//30 30//31 29//32
f 13//33 30//31 4//6 1//34
s 1
f 3//35 6//1 10//14 7//36
s 3
f 9//37 12//9 22//20 18//38
s 7
f 7//39 16//40 15//41 3//42
s 5
f 28//28 24//23 21//22 26//25
s 2
f 4//6 30//31 27//30 32//7
s 1
f 10//14 6//1 33//4 35//15
s 3
f 22//20 12//9 36//12 20//17
s off
f 34//43 35//44 33//45 31//46 32//47 27//48 25//49 26//50 21//51 19//52 20//53 36//54
s 2
f 1//34 2//55 14//56 13//33
s 7
f 2//57 3//42 15//41 14//58
s 1
f 3//35 2//59 5//2 6//1
s 2
f 2//60 1//34 4//6 5//5
s 7
f 7//39 8//61 17//62 16//40
s 3
f 8//63 9//37 18//38 17//64
f 9//37 8//65 11//10 12//9
s 1
f 8//66 7//36 10//14 11//13
s 7
f 39//67 38//68 41//69 40//70
s 9
f 38//71 37//72 42//73 41//74
f 45//75 44//76 47//77 46//78
s 3
f 44//79 43//80 48//81 47//82
s 9
f 51//83 50//84 53//85 52//86
s 13
f 50//87 49//88 54//89 53//90
s 9
f 57//91 56//92 59//93 58//94
s 2
f 56//95 55//96 60//97 59//98
s 3
f 18//38 22//20 48//81 43//80
s 13
f 24//99 28//100 54//89 49//88
s 2
f 30//31 13//33 60//97 55//96
s 7
f 15//41 16//40 39//67 40//70
s 9
f 42//73 37//72 64//101 45//75 46//78 67//102 51//83 52//86 70//103 57//91 58//94 61//104
s 2
f 13//33 14//56 63//105 60//97
s 7
f 14//58 15//41 40//70 63//106
f 16//40 17//62 66//107 39//67
s 3
f 17//64 18//38 43//80 66//108
f 22//20 23//109 69//110 48//81
s 13
f 23//111 24//99 49//88 69//112
f 28//100 29//113 72//114 54//89
s 2
f 29//115 30//31 55//96 72//116
s 9
f 37//72 38//71 65//117 64//101
s 7
f 38//68 39//67 66//107 65//118
s 9
f 46//78 47//77 68//119 67//102
s 3
f 47//82 48//81 69//110 68//120
s 9
f 52//86 53//85 71//121 70//103
s 13
f 53//90 54//89 72//114 71//122
s 9
f 58//94 59//93 62//123 61//104
s 2
f 59//98 60//97 63//105 62//124
s 7
f 40//70 41//69 62//125 63//106
s 9
f 41//74 42//73 61//104 62//123
s 3
f 43//80 44//79 65//126 66//108
s 9
f 44//76 45//75 64//101 65//117
s 13
f 49//88 50//87 68//127 69//112
s 9
f 50//84 51//83 67//102 68//119
s 2
f 55//96 56//95 71//128 72//116
s 9
f 56//92 57//91 70//103 71//121
g default
v -0.563958 0.091876 -2.209423
v -0.596442 0.078420 -2.241902
v -0.609892 0.045942 -2.255356
v -0.353087 0.091876 -2.209423
v -0.353087 0.078420 -2.241902
v -0.353087 0.045942 -2.255356
v -0.609892 -0.045944 -2.255356
v -0.596442 -0.078422 -2.241902
v -0.563958 -0.091875 -2.209423
v -0.353087 -0.045944 -2.255356
v -0.353087 -0.078422 -2.241902
v -0.353087 -0.091875 -2.209423
v -0.563958 0.091876 -2.019917
v -0.596442 0.078420 -2.019917
v -0.609892 0.045942 -2.019917
v -0.609892 -0.045944 -2.019917
v -0.596442 -0.078422 -2.019917
v -0.563958 -0.091875 -2.019917
v -0.096281 -0.078422 -2.033371
v -0.096281 -0.091875 -2.065850
v -0.096281 -0.045944 -2.019917
v -0.399021 -0.091875 -2.065850
v -0.366542 -0.078422 -2.033371
v -0.353087 -0.045944 -2.019917
v -0.096281 0.078420 -2.033371
v -0.096281 0.045942 -2.019917
v -0.096281 0.091876 -2.065850
v -0.353087 0.045942 -2.019917
v -0.366542 0.078420 -2.033371
v -0.399021 0.091876 -2.065850
v -0.096281 0.078420 -2.241902
v -0.096281 0.091876 -2.209423
v -0.096281 0.045942 -2.255356
v -0.096281 -0.078422 -2.241902
v -0.096281 -0.045944 -2.255356
v -0.096281 -0.091875 -2.209423
v -0.592693 -0.042521 -1.519917
v -0.604855 -0.044940 -1.524957
v -0.609892 -0.045944 -1.537119
v -0.609892 0.045942 -1.537119
v -0.604855 0.044940 -1.524957
v -0.592693 0.042522 -1.519917
v -0.563958 -0.091875 -1.537119
v -0.562959 -0.086837 -1.524957
v -0.560537 -0.074676 -1.519917
v -0.402442 -0.074676 -1.519917
v -0.400023 -0.086837 -1.524957
v -0.399021 -0.091875 -1.537119
v -0.353087 -0.045944 -1.537119
v -0.358126 -0.044939 -1.524957
v -0.370285 -0.042522 -1.519917
v -0.370285 0.042521 -1.519917
v -0.358126 0.044940 -1.524957
v -0.353087 0.045942 -1.537119
v -0.399021 0.091876 -1.537119
v -0.400023 0.086837 -1.524957
v -0.402442 0.074674 -1.519917
v -0.560537 0.074674 -1.519917
v -0.562959 0.086837 -1.524957
v -0.563958 0.091876 -1.537119
v -0.583279 0.065259 -1.519917
v -0.592587 0.074566 -1.524957
v -0.596442 0.078420 -1.537119
v -0.583279 -0.065257 -1.519917
v -0.592587 -0.074564 -1.524957
v -0.596442 -0.078422 -1.537119
v -0.379706 -0.065257 -1.519917
v -0.370399 -0.074564 -1.524957
v -0.366542 -0.078422 -1.537119
v -0.379706 0.065259 -1.519917
v -0.370399 0.074566 -1.524957
v -0.366542 0.078420 -1.537119
vn 0.000000 0.106521 -0.994310
vn 0.000000 0.382702 -0.923872
vn 0.000000 0.382702 -0.923872
vn 0.000000 0.107553 -0.994199
vn 0.000000 0.923858 -0.382735
vn 0.000000 0.997305 -0.073372
vn 0.000000 0.997473 -0.071053
vn 0.000000 0.923858 -0.382735
vn 0.000000 -0.997306 -0.073357
vn 0.000000 -0.923887 -0.382666
vn 0.000000 -0.923887 -0.382666
vn 0.000000 -0.997474 -0.071038
vn 0.000000 -0.382702 -0.923872
vn 0.000000 -0.106521 -0.994310
vn 0.000000 -0.107553 -0.994199
vn 0.000000 -0.382702 -0.923872
vn 0.000000 -0.996979 0.077669
vn 0.000000 -0.923886 0.382668
vn 0.000000 -0.923886 0.382668
vn 0.023050 -0.999651 0.012886
vn 0.000000 -0.382708 0.923870
vn 0.000000 -0.109598 0.993976
vn 0.000000 -0.126956 0.991908
vn 0.000000 -0.382708 0.923870
vn 0.000000 0.109598 0.993976
vn 0.000000 0.382708 0.923870
vn 0.000000 0.382708 0.923870
vn 0.000000 0.126956 0.991908
vn 0.000000 0.923857 0.382737
vn 0.000000 0.996978 0.077685
vn 0.023056 0.999651 0.012889
vn 0.000000 0.923857 0.382737
vn -0.063478 0.997983 0.000000
vn -0.078727 0.993101 -0.086909
vn 0.000000 0.086231 -0.996275
vn 0.000000 -0.086231 -0.996275
vn -0.078711 -0.993104 -0.086891
vn -0.063464 -0.997984 -0.000000
vn -0.996292 -0.086033 0.000000
vn -0.994282 -0.106783 0.000000
vn -0.994282 0.106783 0.000000
vn -0.996292 0.086033 0.000000
vn 1.000000 0.000000 0.000000
vn 1.000000 0.000000 0.000000
vn 1.000000 0.000000 0.000000
vn 1.000000 0.000000 0.000000
vn 1.000000 0.000000 0.000000
vn 1.000000 0.000000 0.000000
vn 1.000000 0.000000 0.000000
vn 1.000000 0.000000 0.000000
vn 1.000000 0.000000 0.000000
vn 1.000000 0.000000 0.000000
vn 1.000000 0.000000 0.000000
vn 1.000000 0.000000 0.000000
vn -0.382685 0.923879 0.000000
vn -0.382685 0.923879 0.000000
vn -0.923913 0.382603 0.000000
vn -0.923913 0.382603 0.000000
vn 0.000000 0.382702 -0.923872
vn 0.000000 0.923858 -0.382735
vn -0.923913 -0.382603 0.000000
vn -0.923913 -0.382603 0.000000
vn -0.382615 -0.923908 0.000000
vn -0.382615 -0.923908 0.000000
vn 0.000000 -0.923887 -0.382666
vn 0.000000 -0.382702 -0.923872
vn -0.994163 -0.107455 0.009654
vn -0.916716 -0.096663 0.387669
vn -0.916723 0.096671 0.387651
vn -0.994163 0.107455 0.009654
vn -0.376471 -0.035917 0.925732
vn -0.011095 -0.001058 0.999938
vn -0.011095 0.001059 0.999938
vn -0.376475 0.035913 0.925730
vn -0.001041 -0.017920 0.999839
vn -0.022019 -0.378972 0.925146
vn 0.022014 -0.378974 0.925146
vn 0.001041 -0.017919 0.999839
vn -0.060727 -0.920404 0.386224
vn -0.065403 -0.997815 0.009324
vn 0.068668 -0.997597 0.009233
vn 0.060715 -0.920401 0.386232
vn 0.011096 -0.001059 0.999938
vn 0.376516 -0.035930 0.925713
vn 0.376509 0.035938 0.925716
vn 0.011097 0.001059 0.999938
vn 0.916683 -0.096690 0.387741
vn 0.994044 -0.108559 0.009621
vn 0.994044 0.108558 0.009621
vn 0.916691 0.096708 0.387719
vn 0.001041 0.017918 0.999839
vn 0.022006 0.378941 0.925159
vn -0.022011 0.378939 0.925160
vn -0.001040 0.017919 0.999839
vn 0.060714 0.920373 0.386298
vn 0.068683 0.997596 0.009235
vn -0.065416 0.997815 0.009325
vn -0.060727 0.920376 0.386290
vn 0.992040 -0.125925 0.000000
vn 0.992040 0.125925 0.000000
vn -0.004708 -0.004708 0.999978
vn 0.004707 -0.004707 0.999978
vn 0.004707 0.004708 0.999978
vn -0.004708 0.004708 0.999978
vn -0.382669 0.923844 0.008784
vn -0.923877 0.382588 0.008787
vn -0.923877 -0.382589 0.008787
vn -0.382601 -0.923872 0.008787
vn 0.382663 -0.923888 0.000000
vn 0.382651 -0.923856 0.008289
vn 0.923865 -0.382719 0.000000
vn 0.923830 -0.382705 0.008671
vn 0.923865 0.382719 0.000000
vn 0.923830 0.382705 0.008671
vn 0.382733 0.923859 0.000000
vn 0.382719 0.923828 0.008287
vn -0.252798 -0.252811 0.933906
vn -0.853572 -0.353476 0.382713
vn 0.252828 -0.252838 0.933890
vn 0.353556 -0.853525 0.382745
vn 0.252807 0.252824 0.933900
vn 0.853532 0.353577 0.382709
vn -0.252792 0.252806 0.933909
vn -0.353545 0.853583 0.382624
vn -0.853603 0.353474 0.382647
vn -0.353527 -0.853559 0.382695
vn 0.853498 -0.353569 0.382793
vn 0.353571 0.853550 0.382674
s 1
g Door1 DoorHandle1
usemtl initialShadingGroup
f 78//129 77//130 103//131 105//132
s 2
f 77//133 76//134 104//135 103//136
s 3
f 84//137 83//138 106//139 108//140
s 1
f 83//141 82//142 107//143 106//144
s 3
f 92//145 91//146 95//147 94//148
s 5
f 91//149 93//150 96//151 95//152
f 98//153 97//154 101//155 100//156
s 2
f 97//157 99//158 102//159 101//160
f 85//161 102//159 76//134 73//162
s 1
f 75//163 78//129 82//142 79//164
s 3
f 81//165 84//137 94//148 90//166
s 7
f 79//167 88//168 87//169 75//170
s 5
f 100//156 96//151 93//150 98//153
s 2
f 76//134 102//159 99//158 104//135
s 1
f 82//142 78//129 105//132 107//143
s 3
f 94//148 84//137 108//140 92//145
s off
f 106//171 107//172 105//173 103//174 104//175 99//176 97//177 98//178 93//179 91//180 92//181 108//182
s 2
f 73//162 74//183 86//184 85//161
s 7
f 74//185 75//170 87//169 86//186
s 1
f 75//163 74//187 77//130 78//129
s 2
f 74//188 73//162 76//134 77//133
s 7
f 79//167 80//189 89//190 88//168
s 3
f 80//191 81//165 90//166 89//192
f 81//165 80//193 83//138 84//137
s 1
f 80//194 79//164 82//142 83//141
s 7
f 111//195 110//196 113//197 112//198
s 9
f 110//199 109//200 114//201 113//202
f 117//203 116//204 119//205 118//206
s 3
f 116//207 115//208 120//209 119//210
s 9
f 123//211 122//212 125//213 124//214
s 13
f 122//215 121//216 126//217 125//218
s 9
f 129//219 128//220 131//221 130//222
s 2
f 128//223 127//224 132//225 131//226
s 3
f 90//166 94//148 120//209 115//208
s 13
f 96//227 100//228 126//217 121//216
s 2
f 102//159 85//161 132//225 127//224
s 7
f 87//169 88//168 111//195 112//198
s 9
f 114//201 109//200 136//229 117//203 118//206 139//230 123//211 124//214 142//231 129//219 130//222 133//232
s 2
f 85//161 86//184 135//233 132//225
s 7
f 86//186 87//169 112//198 135//234
f 88//168 89//190 138//235 111//195
s 3
f 89//192 90//166 115//208 138//236
f 94//148 95//237 141//238 120//209
s 13
f 95//239 96//227 121//216 141//240
f 100//228 101//241 144//242 126//217
s 2
f 101//243 102//159 127//224 144//244
s 9
f 109//200 110//199 137//245 136//229
s 7
f 110//196 111//195 138//235 137//246
s 9
f 118//206 119//205 140//247 139//230
s 3
f 119//210 120//209 141//238 140//248
s 9
f 124//214 125//213 143//249 142//231
s 13
f 125//218 126//217 144//242 143//250
s 9
f 130//222 131//221 134//251 133//232
s 2
f 131//226 132//225 135//233 134//252
s 7
f 112//198 113//197 134//253 135//234
s 9
f 113//202 114//201 133//232 134//251
s 3
f 115//208 116//207 137//254 138//236
s 9
f 116//204 117//203 136//229 137//245
s 13
f 121//216 122//215 140//255 141//240
s 9
f 122//212 123//211 139//230 140//247
s 2
f 127//224 128//223 143//256 144//244
s 9
f 128//220 129//219 142//231 143//249
g default
v 0.175347 -5.328761 -2.574574
v 0.175347 -1.963229 -2.574574
v 0.175347 0.496418 -2.574574
v 0.175347 4.767839 -2.574574
v 0.175347 5.328760 -2.574574
v 0.175347 -5.328761 2.574575
v 0.175347 -1.963229 2.574575
v 0.175347 0.496418 2.574575
v 0.175347 4.767839 2.574575
v 0.175347 5.328760 2.574575
v 0.175348 -5.128760 -2.374575
v 0.175348 -2.163228 -2.374575
v 0.175348 -2.163228 2.374576
v 0.175348 -5.128760 2.374576
v 0.175348 0.696418 -2.374575
v 0.175350 4.567837 -2.374576
v 0.175348 4.567837 2.374575
v 0.175348 0.696418 2.374575
v 0.111871 -5.128760 -2.374576
v 0.111871 -2.163228 -2.374576
v 0.111870 -2.163228 2.374576
v 0.111870 -5.128760 2.374576
v 0.111871 0.696418 -2.374575
v 0.111871 4.567837 -2.374575
v 0.111870 4.567837 2.374576
v 0.111870 0.696418 2.374576
v 0.111871 -4.928761 -2.174575
v 0.111871 -2.363229 -2.174575
v 0.111870 -2.363229 2.174575
v 0.111870 -4.928761 2.174575
v 0.111870 0.896417 -2.174575
v 0.111870 4.367838 -2.174575
v 0.111870 4.367838 2.174575
v 0.111870 0.896417 2.174575
v 0.058055 -4.928761 -2.174574
v 0.058055 -2.363229 -2.174574
v 0.058056 -2.363229 2.174575
v 0.058056 -4.928761 2.174575
v 0.058056 0.896417 -2.174574
v 0.058056 4.367838 -2.174574
v 0.058056 4.367838 2.174575
v 0.058056 0.896417 2.174575
v 0.175348 -5.328761 2.698159
v 0.161104 -5.328761 2.729050
v 0.175347 -1.963229 2.698159
v 0.161101 -1.963229 2.729050
v 0.175349 0.496418 2.698158
v 0.161104 0.496418 2.729051
v 0.175347 4.767839 2.698159
v 0.161101 4.767839 2.729050
v 0.175349 5.328760 2.698158
v 0.161104 5.328760 2.729051
v 0.175347 5.466147 2.698159
v 0.161104 5.497037 2.729050
v 0.175347 5.466147 2.574576
v 0.161103 5.497037 2.574575
v 0.175347 5.466147 -2.574574
v 0.161104 5.497037 -2.574574
v 0.175347 5.466147 -2.698156
v 0.161104 5.497037 -2.729049
v 0.175348 5.328760 -2.698159
v 0.161104 5.328760 -2.729050
v 0.175348 4.767839 -2.698159
v 0.161104 4.767839 -2.729050
v 0.175348 0.496418 -2.698159
v 0.161104 0.496418 -2.729050
v 0.175348 -1.963229 -2.698159
v 0.161104 -1.963229 -2.729050
v 0.175348 -5.328761 -2.698159
v 0.161104 -5.328761 -2.729050
v 0.175347 -5.466146 -2.698156
v 0.161104 -5.497037 -2.729049
v 0.175348 -5.466146 2.698158
v 0.161104 -5.497037 2.729048
v 0.175348 -5.466146 -2.574575
v 0.161104 -5.497037 -2.574574
v 0.175347 -5.466146 2.574576
v 0.161103 -5.497037 2.574576
v -0.175347 -5.328761 -2.574574
v -0.175347 -1.963229 -2.574574
v -0.175347 0.496418 -2.574574
v -0.175347 4.767839 -2.574574
v -0.175347 5.328760 -2.574574
v -0.175345 -5.328761 2.574576
v -0.175345 -1.963229 2.574576
v -0.175345 0.496418 2.574576
v -0.175345 4.767839 2.574576
v -0.175345 5.328760 2.574576
v -0.175346 -5.128760 -2.374575
v -0.175346 -2.163228 -2.374574
v -0.175344 -2.163228 2.374576
v -0.175346 -5.128760 2.374577
v -0.175346 0.696418 -2.374574
v -0.175346 4.567837 -2.374574
v -0.175345 4.567837 2.374574
v -0.175345 0.696418 2.374574
v -0.111864 -5.128760 -2.374575
v -0.111864 -2.163228 -2.374575
v -0.111862 -2.163228 2.374576
v -0.111862 -5.128760 2.374576
v -0.111864 0.696418 -2.374575
v -0.111864 4.567837 -2.374575
v -0.111862 4.567837 2.374576
v -0.111862 0.696418 2.374576
v -0.111862 -4.928761 -2.174574
v -0.111862 -2.363229 -2.174574
v -0.111862 -2.363229 2.174575
v -0.111862 -4.928761 2.174575
v -0.111862 0.896417 -2.174574
v -0.111862 4.367838 -2.174574
v -0.111862 4.367838 2.174575
v -0.111862 0.896417 2.174575
v -0.058054 -4.928761 -2.174574
v -0.058054 -2.363229 -2.174574
v -0.058054 -2.363229 2.174575
v -0.058054 -4.928761 2.174575
v -0.058054 0.896417 -2.174574
v -0.058054 4.367838 -2.174574
v -0.058054 4.367838 2.174575
v -0.058054 0.896417 2.174575
v -0.175347 -5.328761 2.698159
v -0.161098 -5.328761 2.729051
v -0.175347 -1.963229 2.698159
v -0.161098 -1.963229 2.729051
v -0.175347 0.496418 2.698159
v -0.161098 0.496418 2.729051
v -0.175347 4.767839 2.698159
v -0.161098 4.767839 2.729051
v -0.175347 5.328760 2.698159
v -0.161098 5.328760 2.729051
v -0.175347 5.466147 2.698159
v -0.161098 5.497037 2.729050
v -0.175346 5.466147 2.574576
v -0.161098 5.497037 2.574576
v -0.175349 5.466147 -2.574574
v -0.161098 5.497037 -2.574574
v -0.175349 5.466147 -2.698157
v -0.161098 5.497037 -2.729049
v -0.175349 5.328760 -2.698157
v -0.161098 5.328760 -2.729049
v -0.175349 4.767839 -2.698157
v -0.161098 4.767839 -2.729049
v -0.175349 0.496418 -2.698157
v -0.161098 0.496418 -2.729049
v -0.175349 -1.963229 -2.698157
v -0.161098 -1.963229 -2.729049
v -0.175349 -5.328761 -2.698157
v -0.161098 -5.328761 -2.729049
v -0.175349 -5.466146 -2.698157
v -0.161098 -5.497037 -2.729049
v -0.175347 -5.466146 2.698159
v -0.161098 -5.497037 2.729050
v -0.175349 -5.466146 -2.574574
v -0.161098 -5.497037 -2.574574
v -0.175346 -5.466146 2.574576
v -0.161098 -5.497037 2.574576
vn 1.000000 0.000000 -0.000000
vn 1.000000 0.000000 -0.000000
vn 1.000000 0.000000 -0.000000
vn 1.000000 0.000000 -0.000000
vn 1.000000 0.000000 0.000000
vn 1.000000 -0.000000 0.000000
vn 1.000000 -0.000000 -0.000000
vn 1.000000 0.000000 -0.000000
vn 1.000000 0.000000 0.000000
vn 1.000000 0.000000 0.000000
vn 1.000000 0.000000 0.000000
vn 1.000000 0.000000 0.000000
vn 1.000000 0.000000 0.000000
vn 1.000000 0.000000 -0.000000
vn 1.000000 0.000001 -0.000001
vn 1.000000 0.000001 0.000000
vn 1.000000 0.000000 0.000001
vn 1.000000 0.000003 -0.000002
vn 1.000000 -0.000003 -0.000002
vn 1.000000 0.000003 0.000002
vn 1.000000 0.000000 -0.000000
vn 1.000000 -0.000003 0.000002
vn 1.000000 0.000005 -0.000004
vn 1.000000 -0.000003 -0.000004
vn 1.000000 0.000005 0.000002
vn 1.000000 -0.000003 0.000002
vn -0.000015 0.000000 1.000000
vn -0.000015 0.000000 1.000000
vn -0.000015 0.000000 1.000000
vn -0.000015 0.000000 1.000000
vn 0.000000 -1.000000 0.000000
vn 0.000000 -1.000000 0.000000
vn 0.000000 -1.000000 0.000000
vn 0.000000 -1.000000 0.000000
vn -0.000008 0.000000 -1.000000
vn -0.000008 0.000000 -1.000000
vn -0.000008 0.000000 -1.000000
vn -0.000008 0.000000 -1.000000
vn 0.000000 1.000000 0.000000
vn 0.000000 1.000000 0.000000
vn 0.000000 1.000000 0.000000
vn 0.000000 1.000000 0.000000
vn 0.000000 -1.000000 0.000000
vn 0.000000 -1.000000 0.000000
vn 0.000000 -1.000000 0.000000
vn 0.000000 -1.000000 0.000000
vn -0.000023 0.000000 -1.000000
vn -0.000023 0.000000 -1.000000
vn -0.000023 0.000000 -1.000000
vn -0.000023 0.000000 -1.000000
vn 0.000000 1.000000 0.000000
vn 0.000000 1.000000 0.000000
vn 0.000000 1.000000 0.000000
vn 0.000000 1.000000 0.000000
vn 1.000000 0.000000 0.000000
vn 1.000000 -0.000000 0.000000
vn 1.000000 -0.000000 0.000000
vn 1.000000 0.000000 0.000000
vn 1.000000 -0.000000 0.000000
vn 1.000000 -0.000000 0.000000
vn 1.000000 0.000000 0.000000
vn 1.000000 0.000000 0.000000
vn 1.000000 0.000001 0.000002
vn 1.000000 -0.000001 0.000002
vn 1.000000 -0.000001 0.000002
vn 1.000000 0.000001 0.000002
vn 1.000000 -0.000001 0.000000
vn 1.000000 -0.000001 0.000000
vn 1.000000 0.000001 0.000000
vn 1.000000 0.000001 0.000000
vn 0.000010 0.000000 1.000000
vn 0.000010 0.000000 1.000000
vn 0.000010 0.000000 1.000000
vn 0.000010 0.000000 1.000000
vn 0.000000 -1.000000 0.000000
vn 0.000000 -1.000000 0.000000
vn 0.000000 -1.000000 0.000000
vn 0.000000 -1.000000 0.000000
vn 0.000000 0.000000 -1.000000
vn 0.000000 0.000000 -1.000000
vn 0.000000 0.000000 -1.000000
vn 0.000000 0.000000 -1.000000
vn 0.000000 1.000000 0.000000
vn 0.000000 1.000000 0.000000
vn 0.000000 1.000000 0.000000
vn 0.000000 1.000000 0.000000
vn 0.000018 0.000000 1.000000
vn 0.000018 0.000000 1.000000
vn 0.000018 0.000000 1.000000
vn 0.000018 0.000000 1.000000
vn 0.000000 -1.000000 0.000000
vn 0.000000 -1.000000 0.000000
vn 0.000000 -1.000000 0.000000
vn 0.000000 -1.000000 0.000000
vn 0.000000 0.000000 -1.000000
vn 0.000000 0.000000 -1.000000
vn 0.000000 0.000000 -1.000000
vn 0.000000 0.000000 -1.000000
vn 0.000000 1.000000 0.000000
vn 0.000000 1.000000 0.000000
vn 0.000000 1.000000 0.000000
vn 0.000000 1.000000 0.000000
vn 0.908098 0.000000 0.418757
vn 0.908098 0.000000 0.418757
vn 0.908110 -0.000004 0.418733
vn 0.908110 -0.000004 0.418733
vn 0.908097 -0.000000 0.418760
vn 0.908097 -0.000000 0.418760
vn 0.908096 0.000000 0.418763
vn 0.908096 -0.000000 0.418763
vn 0.908096 -0.000000 0.418763
vn 0.908096 0.000000 0.418763
vn 0.908099 -0.000002 0.418756
vn 0.908099 -0.000002 0.418756
vn 0.908110 0.000006 0.418731
vn 0.908110 0.000006 0.418731
vn 0.908110 0.418731 -0.000003
vn 0.908110 0.418731 -0.000003
vn 0.908111 0.418730 -0.000000
vn 0.908111 0.418730 0.000000
vn 0.908111 0.418730 0.000000
vn 0.908111 0.418730 0.000000
vn 0.908116 0.418719 0.000000
vn 0.908116 0.418718 0.000000
vn 0.908120 0.000007 -0.418709
vn 0.908120 0.000007 -0.418709
vn 0.908113 0.000002 -0.418726
vn 0.908113 0.000002 -0.418726
vn 0.908110 0.000000 -0.418731
vn 0.908110 0.000000 -0.418731
vn 0.908110 0.000000 -0.418731
vn 0.908110 0.000000 -0.418731
vn 0.908110 0.000000 -0.418731
vn 0.908110 0.000000 -0.418731
vn 0.908110 -0.000000 -0.418731
vn 0.908110 -0.000000 -0.418731
vn 0.908121 -0.000007 -0.418709
vn 0.908121 -0.000007 -0.418709
vn 0.908119 -0.418713 -0.000003
vn 0.908119 -0.418713 -0.000003
vn 0.908113 -0.418726 0.000000
vn 0.908113 -0.418726 0.000000
vn 0.908112 -0.418729 -0.000007
vn 0.908111 -0.418729 -0.000007
vn 0.908113 -0.418726 -0.000000
vn 0.908113 -0.418726 -0.000000
vn 1.000000 -0.000000 -0.000005
vn 1.000000 0.000000 -0.000004
vn 1.000000 -0.000000 -0.000008
vn 1.000000 0.000000 -0.000008
vn 1.000000 0.000000 -0.000008
vn 1.000000 0.000000 -0.000000
vn 1.000000 0.000007 -0.000008
vn 1.000000 0.000000 0.000000
vn 1.000000 0.000001 0.000007
vn 1.000000 0.000004 0.000004
vn 1.000000 0.000000 0.000008
vn 1.000000 0.000000 0.000008
vn 1.000000 0.000000 0.000008
vn 1.000000 0.000000 0.000007
vn 1.000000 0.000003 0.000000
vn 1.000000 0.000000 0.000000
vn 1.000000 0.000003 -0.000000
vn 1.000000 0.000000 -0.000008
vn -1.000000 0.000000 0.000000
vn -1.000000 0.000000 0.000000
vn -1.000000 0.000000 0.000000
vn -1.000000 0.000000 0.000000
vn -1.000000 -0.000000 0.000001
vn -1.000000 -0.000000 -0.000000
vn -1.000000 0.000000 -0.000001
vn -1.000000 0.000000 0.000001
vn -1.000000 0.000000 0.000000
vn -1.000000 0.000000 0.000000
vn -1.000000 0.000000 0.000000
vn -1.000000 0.000000 0.000000
vn -1.000000 -0.000002 0.000001
vn -1.000000 -0.000000 0.000003
vn -1.000000 -0.000000 -0.000002
vn -1.000000 -0.000002 0.000000
vn -1.000000 0.000004 0.000004
vn -1.000000 0.000000 0.000002
vn -1.000000 -0.000003 0.000002
vn -1.000000 -0.000003 0.000000
vn -1.000000 0.000000 0.000000
vn -1.000000 0.000004 -0.000003
vn -1.000000 0.000001 0.000002
vn -1.000000 -0.000001 0.000002
vn -1.000000 -0.000001 0.000000
vn -1.000000 0.000001 0.000000
vn 0.000000 -0.000000 1.000000
vn 0.000000 -0.000000 1.000000
vn 0.000000 -0.000000 1.000000
vn 0.000000 -0.000000 1.000000
vn 0.000000 -1.000000 0.000000
vn 0.000000 -1.000000 0.000000
vn 0.000000 -1.000000 0.000000
vn 0.000000 -1.000000 0.000000
vn -0.000013 -0.000000 -1.000000
vn -0.000013 -0.000000 -1.000000
vn -0.000013 -0.000000 -1.000000
vn -0.000013 -0.000000 -1.000000
vn 0.000000 1.000000 0.000000
vn 0.000000 1.000000 0.000000
vn 0.000000 1.000000 0.000000
vn 0.000000 1.000000 0.000000
vn 0.000000 -1.000000 0.000000
vn 0.000000 -1.000000 0.000000
vn 0.000000 -1.000000 0.000000
vn 0.000000 -1.000000 0.000000
vn 0.000023 0.000000 -1.000000
vn 0.000023 0.000000 -1.000000
vn 0.000023 0.000000 -1.000000
vn 0.000023 0.000000 -1.000000
vn 0.000000 1.000000 -0.000000
vn 0.000000 1.000000 -0.000000
vn 0.000000 1.000000 -0.000000
vn 0.000000 1.000000 -0.000000
vn -1.000000 0.000003 0.000004
vn -1.000000 0.000003 0.000004
vn -1.000000 -0.000003 0.000004
vn -1.000000 -0.000003 0.000004
vn -1.000000 -0.000003 0.000000
vn -1.000000 -0.000003 0.000000
vn -1.000000 0.000003 0.000000
vn -1.000000 0.000003 0.000000
vn -1.000000 0.000003 0.000004
vn -1.000000 0.000003 0.000004
vn -1.000000 -0.000003 0.000004
vn -1.000000 -0.000003 0.000004
vn -1.000000 -0.000003 0.000000
vn -1.000000 -0.000003 0.000000
vn -1.000000 0.000003 0.000000
vn -1.000000 0.000003 0.000000
vn 0.000000 0.000000 1.000000
vn 0.000000 0.000000 1.000000
vn 0.000000 0.000000 1.000000
vn 0.000000 0.000000 1.000000
vn 0.000000 -1.000000 0.000000
vn 0.000000 -1.000000 0.000000
vn 0.000000 -1.000000 0.000000
vn 0.000000 -1.000000 0.000000
vn -0.000007 0.000000 -1.000000
vn -0.000007 0.000000 -1.000000
vn -0.000007 0.000000 -1.000000
vn -0.000007 0.000000 -1.000000
vn 0.000000 1.000000 0.000000
vn 0.000000 1.000000 0.000000
vn 0.000000 1.000000 0.000000
vn 0.000000 1.000000 0.000000
vn 0.000000 0.000000 1.000000
vn 0.000000 0.000000 1.000000
vn 0.000000 0.000000 1.000000
vn 0.000000 0.000000 1.000000
vn 0.000000 -1.000000 0.000000
vn 0.000000 -1.000000 0.000000
vn 0.000000 -1.000000 0.000000
vn 0.000000 -1.000000 0.000000
vn -0.000010 0.000000 -1.000000
vn -0.000010 0.000000 -1.000000
vn -0.000010 0.000000 -1.000000
vn -0.000010 0.000000 -1.000000
vn 0.000000 1.000000 0.000000
vn 0.000000 1.000000 0.000000
vn 0.000000 1.000000 0.000000
vn 0.000000 1.000000 0.000000
vn -0.908049 -0.000000 0.418864
vn -0.908048 -0.000001 0.418867
vn -0.908048 -0.000001 0.418867
vn -0.908049 -0.000000 0.418864
vn -0.908049 0.000000 0.418864
vn -0.908049 0.000000 0.418864
vn -0.908049 0.000000 0.418864
vn -0.908049 0.000000 0.418864
vn -0.908049 0.000000 0.418864
vn -0.908049 0.000000 0.418864
vn -0.908049 0.000000 0.418865
vn -0.908049 0.000000 0.418865
vn -0.908049 0.000001 0.418865
vn -0.908049 0.000001 0.418865
vn -0.908046 0.418870 -0.000003
vn -0.908036 0.418891 0.000000
vn -0.908036 0.418891 0.000000
vn -0.908046 0.418870 -0.000003
vn -0.908036 0.418893 0.000000
vn -0.908036 0.418893 0.000000
vn -0.908020 0.418927 0.000000
vn -0.908020 0.418927 0.000000
vn -0.908024 0.000000 -0.418918
vn -0.908025 0.000000 -0.418916
vn -0.908025 0.000000 -0.418916
vn -0.908024 0.000000 -0.418917
vn -0.908025 0.000000 -0.418916
vn -0.908025 0.000000 -0.418916
vn -0.908025 0.000000 -0.418916
vn -0.908025 0.000000 -0.418916
vn -0.908025 0.000000 -0.418916
vn -0.908025 0.000000 -0.418916
vn -0.908025 0.000000 -0.418917
vn -0.908025 0.000000 -0.418917
vn -0.908026 0.000000 -0.418915
vn -0.908026 0.000000 -0.418915
vn -0.908027 -0.418911 0.000000
vn -0.908043 -0.418877 0.000000
vn -0.908043 -0.418877 0.000000
vn -0.908027 -0.418911 0.000000
vn -0.908053 -0.418855 -0.000003
vn -0.908044 -0.418875 0.000000
vn -0.908044 -0.418876 0.000000
vn -0.908053 -0.418855 -0.000003
vn -1.000000 0.000000 -0.000015
vn -1.000000 0.000000 -0.000015
vn -1.000000 0.000000 -0.000015
vn -1.000000 0.000000 -0.000015
vn -1.000000 -0.000001 -0.000015
vn -1.000000 -0.000010 0.000000
vn -1.000000 -0.000004 -0.000012
vn -1.000000 -0.000010 0.000001
vn -1.000000 -0.000001 0.000014
vn -1.000000 -0.000007 0.000008
vn -1.000000 0.000000 0.000015
vn -1.000000 0.000000 0.000015
vn -1.000000 0.000000 0.000015
vn -1.000000 0.000000 0.000015
vn -1.000000 0.000007 0.000008
vn -1.000000 0.000010 0.000001
vn -1.000000 0.000010 0.000000
vn -1.000000 0.000004 -0.000012
vn 0.000003 -0.000007 1.000000
vn 0.000003 -0.000007 1.000000
vn 0.000003 -0.000007 1.000000
vn 0.000003 -0.000007 1.000000
vn 0.000002 0.000000 1.000000
vn 0.000002 0.000000 1.000000
vn 0.000002 0.000000 1.000000
vn 0.000002 0.000000 1.000000
vn 0.000001 -0.000000 1.000000
vn 0.000001 -0.000000 1.000000
vn 0.000001 -0.000000 1.000000
vn 0.000001 -0.000000 1.000000
vn 0.000001 0.000000 1.000000
vn 0.000001 0.000000 1.000000
vn 0.000001 0.000000 1.000000
vn 0.000001 0.000000 1.000000
vn 0.000001 -0.000000 1.000000
vn 0.000001 -0.000000 1.000000
vn 0.000001 -0.000000 1.000000
vn 0.000001 -0.000000 1.000000
vn 0.000001 0.000004 1.000000
vn 0.000001 0.000004 1.000000
vn 0.000001 0.000004 1.000000
vn 0.000001 0.000004 1.000000
vn 0.000000 1.000000 0.000000
vn 0.000000 1.000000 0.000000
vn 0.000000 1.000000 0.000000
vn 0.000000 1.000000 0.000000
vn 0.000000 1.000000 0.000000
vn 0.000000 1.000000 0.000000
vn 0.000000 1.000000 0.000000
vn 0.000000 1.000000 0.000000
vn 0.000000 1.000000 0.000000
vn 0.000000 1.000000 0.000000
vn 0.000000 1.000000 0.000000
vn 0.000000 1.000000 0.000000
vn -0.000003 0.000003 -1.000000
vn -0.000003 0.000003 -1.000000
vn -0.000003 0.000003 -1.000000
vn -0.000003 0.000003 -1.000000
vn -0.000005 0.000000 -1.000000
vn -0.000005 0.000000 -1.000000
vn -0.000005 0.000000 -1.000000
vn -0.000005 0.000000 -1.000000
vn -0.000004 0.000000 -1.000000
vn -0.000004 0.000000 -1.000000
vn -0.000004 0.000000 -1.000000
vn -0.000004 0.000000 -1.000000
vn -0.000004 0.000000 -1.000000
vn -0.000004 0.000000 -1.000000
vn -0.000004 0.000000 -1.000000
vn -0.000004 0.000000 -1.000000
vn -0.000004 0.000000 -1.000000
vn -0.000004 0.000000 -1.000000
vn -0.000004 0.000000 -1.000000
vn -0.000004 0.000000 -1.000000
vn -0.000003 -0.000003 -1.000000
vn -0.000003 -0.000003 -1.000000
vn -0.000003 -0.000003 -1.000000
vn -0.000003 -0.000003 -1.000000
vn 0.000000 -1.000000 0.000000
vn 0.000000 -1.000000 0.000000
vn 0.000000 -1.000000 0.000000
vn 0.000000 -1.000000 0.000000
vn 0.000000 -1.000000 0.000000
vn 0.000000 -1.000000 0.000000
vn 0.000000 -1.000000 0.000000
vn 0.000000 -1.000000 0.000000
vn 0.000000 -1.000000 0.000000
vn 0.000000 -1.000000 0.000000
vn 0.000000 -1.000000 0.000000
vn 0.000000 -1.000000 0.000000
s off
g Door1 pasted__DoorReal
usemtl initialShadingGroup
f 179//257 180//258 181//259 182//260
s 1
f 146//261 147//262 152//263 151//264
s off
f 183//265 184//266 185//267 186//268
s 1
f 149//269 154//270 153//271 148//272
f 145//273 146//261 156//274 155//275
f 146//261 151//264 157//276 156//274
f 151//264 150//277 158//278 157//276
f 150//277 145//273 155//275 158//278
f 147//262 148//272 160//279 159//280
f 148//272 153//271 161//281 160//279
f 153//271 152//263 162//282 161//281
f 152//263 147//262 159//280 162//282
s off
f 155//283 156//284 164//285 163//286
f 156//287 157//288 165//289 164//290
f 157//291 158//292 166//293 165//294
f 158//295 155//296 163//297 166//298
f 160//299 161//300 169//301 168//302
f 161//303 162//304 170//305 169//306
f 162//307 159//308 167//309 170//310
s 5
f 163//311 164//312 172//313 171//314
f 164//312 165//315 173//316 172//313
f 165//315 166//317 174//318 173//316
f 166//317 163//311 171//314 174//318
s 6
f 167//319 168//320 176//321 175//322
f 168//320 169//323 177//324 176//321
f 169//323 170//325 178//326 177//324
f 170//325 167//319 175//322 178//326
s off
f 171//327 172//328 180//329 179//330
f 172//331 173//332 181//333 180//334
f 173//335 174//336 182//337 181//338
f 174//339 171//340 179//341 182//342
f 175//343 176//344 184//345 183//346
f 176//347 177//348 185//349 184//350
f 177//351 178//352 186//353 185//354
f 178//355 175//356 183//357 186//358
s 7
f 187//359 188//360 218//361 217//362
f 188//360 187//359 189//363 190//364
f 190//364 189//363 191//365 192//366
f 192//366 191//365 193//367 194//368
f 194//368 193//367 195//369 196//370
f 196//370 195//369 197//371 198//372
s 8
f 198//373 197//374 199//375 200//376
f 200//376 199//375 201//377 202//378
f 202//378 201//377 203//379 204//380
s 9
f 204//381 203//382 205//383 206//384
f 206//384 205//383 207//385 208//386
f 208//386 207//385 209//387 210//388
f 210//388 209//387 211//389 212//390
f 212//390 211//389 213//391 214//392
f 214//392 213//391 215//393 216//394
s 10
f 216//395 215//396 219//397 220//398
f 217//399 218//400 222//401 221//402
f 220//398 219//397 221//402 222//401
s 1
f 150//277 151//264 189//403 187//404
f 151//264 152//263 191//405 189//403
f 152//263 153//271 193//406 191//405
f 195//407 193//406 153//271 154//270
f 199//408 197//409 195//407 154//270
f 201//410 199//408 154//270 149//269
f 205//411 203//412 201//410 149//269
f 149//269 148//272 207//413 205//411
f 209//414 207//413 148//272 147//262
f 211//415 209//414 147//262 146//261
f 213//416 211//415 146//261 145//273
f 145//273 219//417 215//418 213//416
f 145//273 150//277 221//419 219//417
f 187//404 217//420 221//419 150//277
s off
f 257//421 260//422 259//423 258//424
s 11
f 224//425 229//426 230//427 225//428
s off
f 261//429 264//430 263//431 262//432
s 11
f 227//433 226//434 231//435 232//436
f 223//437 233//438 234//439 224//425
f 224//425 234//439 235//440 229//426
f 229//426 235//440 236//441 228//442
f 228//442 236//441 233//438 223//437
f 225//428 237//443 238//444 226//434
f 226//434 238//444 239//445 231//435
f 231//435 239//445 240//446 230//427
f 230//427 240//446 237//443 225//428
s off
f 233//447 241//448 242//449 234//450
f 234//451 242//452 243//453 235//454
f 235//455 243//456 244//457 236//458
f 236//459 244//460 241//461 233//462
f 238//463 246//464 247//465 239//466
f 239//467 247//468 248//469 240//470
f 240//471 248//472 245//473 237//474
s 14
f 241//475 249//476 250//477 242//478
f 242//478 250//477 251//479 243//480
f 243//480 251//479 252//481 244//482
f 244//482 252//481 249//476 241//475
s 15
f 245//483 253//484 254//485 246//486
f 246//486 254//485 255//487 247//488
f 247//488 255//487 256//489 248//490
f 248//490 256//489 253//484 245//483
s off
f 249//491 257//492 258//493 250//494
f 250//495 258//496 259//497 251//498
f 251//499 259//500 260//501 252//502
f 252//503 260//504 257//505 249//506
f 253//507 261//508 262//509 254//510
f 254//511 262//512 263//513 255//514
f 255//515 263//516 264//517 256//518
f 256//519 264//520 261//521 253//522
s 16
f 265//523 295//524 296//525 266//526
f 266//526 268//527 267//528 265//523
f 268//527 270//529 269//530 267//528
f 270//529 272//531 271//532 269//530
f 272//531 274//533 273//534 271//532
f 274//533 276//535 275//536 273//534
s 17
f 276//537 278//538 277//539 275//540
f 278//538 280//541 279//542 277//539
f 280//541 282//543 281//544 279//542
s 18
f 282//545 284//546 283//547 281//548
f 284//546 286//549 285//550 283//547
f 286//549 288//551 287//552 285//550
f 288//551 290//553 289//554 287//552
f 290//553 292//555 291//556 289//554
f 292//555 294//557 293//558 291//556
s 19
f 294//559 298//560 297//561 293//562
f 295//563 299//564 300//565 296//566
f 298//560 300//565 299//564 297//561
s 11
f 228//442 265//567 267//568 229//426
f 229//426 267//568 269//569 230//427
f 230//427 269//569 271//570 231//435
f 273//571 232//436 231//435 271//570
f 277//572 232//436 273//571 275//573
f 279//574 227//433 232//436 277//572
f 283//575 227//433 279//574 281//576
f 227//433 283//575 285//577 226//434
f 287//578 225//428 226//434 285//577
f 289//579 224//425 225//428 287//578
f 291//580 223//437 224//425 289//579
f 223//437 291//580 293//581 297//582
f 223//437 297//582 299//583 228//442
f 265//567 228//442 299//583 295//584
s off
f 218//585 188//586 266//587 296//588
f 188//589 190//590 268//591 266//592
f 190//593 192//594 270//595 268//596
f 192//597 194//598 272//599 270//600
f 194//601 196//602 274//603 272//604
f 196//605 198//606 276//607 274//608
f 198//609 200//610 278//611 276//612
f 200//613 202//614 280//615 278//616
f 202//617 204//618 282//619 280//620
f 204//621 206//622 284//623 282//624
f 206//625 208//626 286//627 284//628
f 208//629 210//630 288//631 286//632
f 210//633 212//634 290//635 288//636
f 212//637 214//638 292//639 290//640
f 214//641 216//642 294//643 292//644
f 216//645 220//646 298//647 294//648
f 220//649 222//650 300//651 298//652
f 222//653 218//654 296//655 300//656
g default
v -0.200000 -5.889682 -3.089490
v -0.200000 -5.889682 3.089490
v -0.200000 5.889682 3.089490
v -0.200000 5.889682 -3.089490
v -0.200000 -5.889682 -2.729050
v -0.200000 5.889682 -2.729050
v -0.200000 5.497038 3.089490
v -0.200000 5.497038 -3.089490
v -0.200000 5.497038 -2.729049
v -0.200000 5.889682 2.729049
v -0.200000 5.497038 2.729049
v -0.200000 -5.889682 2.729049
v -0.200000 -5.497036 3.089490
v -0.200000 -5.497036 2.729049
v -0.200000 -5.497036 -2.729049
v -0.200000 -5.497036 -3.089490
v 0.200000 5.889682 -3.089490
v 0.200000 5.497038 -3.089490
v 0.200000 5.497038 -2.729049
v 0.200000 5.889682 -2.729050
v 0.200000 -5.497037 -2.729049
v 0.200000 -5.497036 -3.089490
v 0.200000 -5.889682 -3.089490
v 0.200000 -5.889682 -2.729050
v 0.200000 -5.497036 3.089490
v 0.200000 -5.497037 2.729049
v 0.200000 -5.889682 2.729049
v 0.200000 -5.889682 3.089490
v 0.200000 5.889682 2.729049
v 0.200000 5.497038 2.729049
v 0.200000 5.497038 3.089490
v 0.200000 5.889682 3.089490
vn 1.000000 0.000000 0.000000
vn 1.000000 0.000000 0.000000
vn 1.000000 0.000000 0.000000
vn 1.000000 0.000000 0.000000
vn 1.000000 0.000000 0.000000
vn 1.000000 0.000000 0.000000
vn 1.000000 0.000000 0.000000
vn 1.000000 0.000000 0.000000
vn 1.000000 0.000000 0.000000
vn 1.000000 0.000000 0.000000
vn 1.000000 0.000000 0.000000
vn 1.000000 0.000000 0.000000
vn 1.000000 0.000000 0.000000
vn 1.000000 0.000000 0.000000
vn 1.000000 0.000000 0.000000
vn 1.000000 0.000000 0.000000
vn -1.000000 0.000000 0.000000
vn -1.000000 0.000000 0.000000
vn -1.000000 0.000000 0.000000
vn -1.000000 0.000000 0.000000
vn -1.000000 -0.000000 0.000000
vn -1.000000 -0.000000 0.000000
vn -1.000000 -0.000000 0.000000
vn -1.000000 -0.000000 0.000000
vn -1.000000 0.000000 0.000000
vn -1.000000 0.000000 0.000000
vn -1.000000 0.000000 0.000000
vn -1.000000 0.000000 0.000000
vn -1.000000 0.000000 0.000000
vn -1.000000 0.000000 0.000000
vn -1.000000 0.000000 0.000000
vn -1.000000 0.000000 0.000000
vn 0.000000 0.000000 -1.000000
vn 0.000000 0.000000 -1.000000
vn 0.000000 0.000000 -1.000000
vn 0.000000 0.000000 -1.000000
vn 0.000000 1.000000 0.000000
vn 0.000000 1.000000 0.000000
vn 0.000000 1.000000 0.000000
vn 0.000000 1.000000 0.000000
vn 0.000000 0.000000 -1.000000
vn 0.000000 0.000000 -1.000000
vn 0.000000 0.000000 -1.000000
vn 0.000000 0.000000 -1.000000
vn -0.000001 -1.000000 0.000000
vn -0.000001 -1.000000 0.000000
vn -0.000001 -1.000000 0.000000
vn -0.000001 -1.000000 0.000000
vn -0.000001 -1.000000 0.000000
vn -0.000001 -1.000000 0.000000
vn -0.000001 -1.000000 0.000000
vn -0.000001 -1.000000 0.000000
vn 0.000000 0.000000 1.000000
vn 0.000000 0.000000 1.000000
vn 0.000000 0.000000 1.000000
vn 0.000000 0.000000 1.000000
vn 0.000000 0.000000 1.000000
vn 0.000000 0.000000 1.000000
vn 0.000000 0.000000 1.000000
vn 0.000000 0.000000 1.000000
vn 0.000000 1.000000 0.000000
vn 0.000000 1.000000 0.000000
vn 0.000000 1.000000 0.000000
vn 0.000000 1.000000 0.000000
vn 0.000001 1.000000 0.000000
vn 0.000001 1.000000 0.000000
vn 0.000001 1.000000 0.000000
vn 0.000001 1.000000 0.000000
vn 0.000000 -1.000000 0.000000
vn 0.000000 -1.000000 0.000000
vn 0.000000 -1.000000 0.000000
vn 0.000000 -1.000000 0.000000
vn 0.000000 0.000000 1.000000
vn 0.000000 0.000000 1.000000
vn 0.000000 0.000000 1.000000
vn 0.000000 0.000000 1.000000
vn 0.000000 0.000000 -1.000000
vn 0.000000 0.000000 -1.000000
vn 0.000000 0.000000 -1.000000
vn 0.000000 0.000000 -1.000000
s 1
g Door1 DoorReal
usemtl lambert2SG
f 317//657 320//658 319//659 318//660
f 321//661 324//662 323//663 322//664
f 325//665 328//666 327//667 326//668
f 329//669 332//670 331//671 330//672
f 321//661 326//668 327//667 324//662
f 329//669 330//672 319//659 320//658
f 319//659 321//661 322//664 318//660
f 325//665 326//668 330//672 331//671
s 3
f 304//673 308//674 309//675 306//676
f 315//677 316//678 301//679 305//680
f 313//681 314//682 312//683 302//684
f 310//685 311//686 307//687 303//688
f 315//677 305//680 312//683 314//682
f 310//685 306//676 309//675 311//686
f 309//675 308//674 316//678 315//677
f 313//681 307//687 311//686 314//682
s 5
f 304//689 317//690 318//691 308//692
s 6
f 306//693 320//694 317//695 304//696
s 5
f 316//697 322//698 323//699 301//700
s 7
f 301//701 323//702 324//703 305//704
f 312//705 327//706 328//707 302//708
s 8
f 302//709 328//710 325//711 313//712
f 307//713 331//714 332//715 303//716
s 6
f 303//717 332//718 329//719 310//720
s 7
f 305//704 324//703 327//706 312//705
s off
f 314//721 326//722 321//723 315//724
s 6
f 310//720 329//719 320//694 306//693
s off
f 309//725 319//726 330//727 311//728
s 5
f 308//692 318//691 322//698 316//697
s off
f 315//729 321//730 319//731 309//732
s 8
f 313//712 325//711 331//714 307//713
s off
f 311//733 330//734 326//735 314//736
