# This file uses centimeters as units for non-parametric coordinates.

mtllib Back_Wall.mtl
g default
v -10.115020 0.499716 11.520442
v -10.115020 16.410098 11.520442
v -10.115020 16.410098 -11.639687
v -10.115020 0.499716 -11.639687
v -9.615020 16.410098 -11.639687
v -9.615020 0.499716 -11.639687
v -9.615020 16.410098 11.520442
v -9.615020 0.499716 11.520442
vt 0.125000 0.000000
vt 0.375000 0.000000
vt 0.375000 0.250000
vt 0.125000 0.250000
vt 0.125000 0.000000
vt 0.125000 0.250000
vt 0.375000 0.250000
vt 0.375000 0.000000
vt 0.125000 0.000000
vt 0.125000 0.250000
vt 0.375000 0.250000
vt 0.375000 0.000000
vn 1.000000 0.000000 0.000000
vn 1.000000 0.000000 0.000000
vn 1.000000 0.000000 0.000000
vn 1.000000 0.000000 0.000000
vn -1.000000 0.000000 0.000000
vn -1.000000 0.000000 0.000000
vn -1.000000 0.000000 0.000000
vn -1.000000 0.000000 0.000000
vn 0.000000 0.000000 -1.000000
vn 0.000000 0.000000 -1.000000
vn 0.000000 0.000000 -1.000000
vn 0.000000 0.000000 -1.000000
vn 0.000000 1.000000 0.000000
vn 0.000000 1.000000 0.000000
vn 0.000000 1.000000 0.000000
vn 0.000000 1.000000 0.000000
vn 0.000000 0.000000 1.000000
vn 0.000000 0.000000 1.000000
vn 0.000000 0.000000 1.000000
vn 0.000000 0.000000 1.000000
vn 0.000000 -1.000000 0.000000
vn 0.000000 -1.000000 0.000000
vn 0.000000 -1.000000 0.000000
vn 0.000000 -1.000000 0.000000
s off
g BackWall
usemtl initialShadingGroup
f 6/9/1 5/10/2 7/11/3 8/12/4
f 4/5/5 1/8/6 2/7/7 3/6/8
f 4/1/9 3/4/10 5/10/11 6/9/12
f 3/4/13 2/3/14 7/11/15 5/10/16
f 2/3/17 1/2/18 8/12/19 7/11/20
f 1/2/21 4/1/22 6/9/23 8/12/24
