# This file uses centimeters as units for non-parametric coordinates.

mtllib Circle_Window.mtl
g default
v -0.026039 12.133634 -11.734709
v -0.009577 12.074440 -11.709205
v -0.003353 12.049921 -11.648026
v -1.037815 11.714516 -11.746602
v -1.007299 11.661142 -11.720932
v -0.995255 11.639035 -11.659685
v -1.907626 11.047041 -11.756824
v -1.864347 11.003461 -11.731005
v -1.847016 10.985412 -11.669695
v -2.575052 10.177172 -11.764669
v -2.521981 10.146357 -11.738735
v -2.500593 10.133593 -11.677376
v -2.994616 9.164184 -11.769600
v -2.935390 9.148230 -11.743594
v -2.911452 9.141622 -11.682205
v -3.114076 8.257370 -11.771005
v -3.044697 8.318471 -11.744878
v -3.016555 8.343782 -11.683441
v 0.607898 8.257370 -11.727258
v 0.546503 8.318471 -11.702671
v 0.520477 8.343782 -11.641870
v -0.026039 4.020593 -11.734709
v -0.009577 4.079787 -11.709205
v -0.003353 4.104306 -11.648026
v -1.037815 4.439711 -11.746602
v -1.007299 4.493085 -11.720932
v -0.995255 4.515192 -11.659685
v -1.907626 5.107186 -11.756824
v -1.864347 5.150765 -11.731005
v -1.847016 5.168816 -11.669695
v -2.575052 5.977055 -11.764669
v -2.521981 6.007869 -11.738735
v -2.500593 6.020634 -11.677376
v -2.994616 6.990042 -11.769600
v -2.935390 7.005997 -11.743594
v -2.911452 7.012604 -11.682205
v -3.114076 7.896856 -11.771005
v -3.044697 7.835755 -11.744878
v -3.016555 7.810445 -11.683441
v 0.607898 7.896856 -11.727258
v 0.546503 7.835755 -11.702671
v 0.520477 7.810445 -11.641870
v 0.607898 3.918828 -11.727258
v 0.546503 3.990520 -11.702671
v 0.520477 4.020216 -11.641870
v 0.607898 12.235399 -11.727258
v 0.546503 12.163706 -11.702671
v 0.520477 12.134012 -11.641870
v 0.518446 12.134012 -11.469024
v 0.543035 12.163706 -11.407628
v 0.603835 12.235399 -11.381603
v -0.030102 12.133634 -11.389054
v -0.013045 12.074440 -11.414164
v -0.005385 12.049921 -11.475180
v -1.041877 11.714516 -11.400945
v -1.010767 11.661142 -11.425890
v -0.997286 11.639035 -11.486839
v -1.911688 11.047041 -11.411169
v -1.867815 11.003461 -11.435964
v -1.849048 10.985412 -11.496849
v -2.579115 10.177172 -11.419014
v -2.525449 10.146357 -11.443693
v -2.502624 10.133593 -11.504532
v -2.998679 9.164184 -11.423944
v -2.938857 9.148230 -11.448551
v -2.913484 9.141622 -11.509361
v -3.118138 8.257370 -11.425347
v -3.048165 8.318471 -11.449836
v -3.018586 8.343782 -11.510595
v -0.997286 4.515192 -11.486839
v -1.010767 4.493085 -11.425890
v -1.041877 4.439711 -11.400945
v -0.030102 4.020593 -11.389054
v -0.013045 4.079787 -11.414164
v -0.005385 4.104306 -11.475180
v -1.849048 5.168816 -11.496849
v -1.867815 5.150765 -11.435964
v -1.911688 5.107186 -11.411169
v -2.502624 6.020634 -11.504532
v -2.525449 6.007869 -11.443693
v -2.579115 5.977055 -11.419014
v -2.913484 7.012604 -11.509361
v -2.938857 7.005997 -11.448551
v -2.998679 6.990042 -11.423944
v -3.018586 7.810445 -11.510595
v -3.048165 7.835755 -11.449836
v -3.118138 7.896856 -11.425347
v 0.518446 7.810445 -11.469024
v 0.543035 7.835755 -11.407628
v 0.603836 7.896856 -11.381603
v 0.603836 8.257370 -11.381603
v 0.543035 8.318471 -11.407628
v 0.518446 8.343782 -11.469024
v 0.603835 3.918828 -11.381603
v 0.543035 3.990520 -11.407628
v 0.518446 4.020216 -11.469024
v -2.175708 11.314136 -11.674316
v -2.157105 11.296243 -11.734667
v -2.113616 11.253046 -11.759246
v -1.227671 12.041638 -11.663173
v -1.214308 12.019723 -11.723588
v -1.183471 11.966818 -11.748314
v -0.123658 12.498963 -11.650198
v -0.116239 12.474587 -11.710681
v -0.099754 12.415738 -11.735577
v 0.976451 12.558849 -11.722927
v 1.036718 12.626806 -11.697130
v 1.061092 12.654956 -11.636273
v 0.520485 12.592559 -11.642627
v 0.524440 12.567679 -11.703151
v 0.532562 12.507614 -11.728145
v -3.525853 8.343783 -11.690185
v -3.500055 8.341541 -11.750452
v -3.439198 8.336128 -11.774825
v -3.525853 7.810445 -11.690185
v -3.500055 7.812686 -11.750452
v -3.439198 7.818099 -11.774825
v -3.360456 9.261945 -11.688240
v -3.335534 9.254839 -11.748518
v -3.276793 9.237684 -11.772917
v -2.903158 10.366035 -11.682866
v -2.880534 10.353384 -11.743171
v -2.827338 10.322837 -11.767634
v 0.976451 3.595379 -11.722927
v 1.036718 3.527421 -11.697130
v 1.061092 3.499271 -11.636273
v 0.520485 3.561668 -11.642627
v 0.524440 3.586547 -11.703151
v 0.532562 3.646612 -11.728145
v 1.061089 3.964157 -11.636061
v 1.036780 3.961659 -11.697068
v 0.976663 3.955630 -11.722924
v -1.227671 4.112589 -11.663173
v -1.214308 4.134503 -11.723588
v -1.183471 4.187407 -11.748314
v -0.123658 3.655264 -11.650198
v -0.116239 3.679640 -11.710681
v -0.099754 3.738489 -11.735577
v -2.175708 4.840091 -11.674316
v -2.157105 4.857984 -11.734667
v -2.113616 4.901181 -11.759246
v -2.903158 5.788193 -11.682866
v -2.880534 5.800844 -11.743171
v -2.827338 5.831389 -11.767634
v -3.360456 6.892283 -11.688240
v -3.335534 6.899388 -11.748518
v -3.276793 6.916543 -11.772917
v 1.061089 12.190070 -11.636061
v 1.036780 12.192569 -11.697068
v 0.976663 12.198597 -11.722924
v 1.061083 8.343782 -11.635516
v 1.036940 8.339053 -11.696906
v 0.977216 8.327632 -11.722919
v 1.061083 7.810445 -11.635516
v 1.036940 7.815174 -11.696906
v 0.977216 7.826594 -11.722919
v 0.518436 12.592559 -11.468266
v 0.520967 12.567679 -11.407666
v 0.528499 12.507614 -11.382488
v -0.125707 12.498963 -11.475838
v -0.119712 12.474587 -11.415195
v -0.103817 12.415738 -11.389919
v -1.229720 12.041638 -11.488813
v -1.217781 12.019723 -11.428101
v -1.187534 11.966818 -11.402657
v -2.177757 11.314136 -11.499955
v -2.160578 11.296243 -11.439182
v -2.117679 11.253046 -11.413589
v -2.905207 10.366035 -11.508505
v -2.884007 10.353384 -11.447686
v -2.831401 10.322837 -11.421977
v -3.362506 9.261945 -11.513879
v -3.339007 9.254839 -11.453032
v -3.280856 9.237684 -11.427259
v -3.527903 8.343783 -11.515822
v -3.503528 8.341541 -11.454966
v -3.443260 8.336128 -11.429169
v 0.972388 3.595379 -11.377271
v 1.033245 3.527421 -11.401644
v 1.059042 3.499271 -11.461912
v 1.059045 3.964157 -11.462123
v 1.033308 3.961659 -11.401706
v 0.972601 3.955630 -11.377267
v 0.518436 3.561668 -11.468266
v 0.520967 3.586547 -11.407666
v 0.528499 3.646612 -11.382488
v -3.527903 7.810445 -11.515822
v -3.503528 7.812686 -11.454966
v -3.443260 7.818099 -11.429169
v -0.125707 3.655264 -11.475838
v -0.119712 3.679640 -11.415195
v -0.103817 3.738489 -11.389919
v -1.229720 4.112589 -11.488813
v -1.217781 4.134503 -11.428101
v -1.187534 4.187407 -11.402657
v -2.177757 4.840091 -11.499955
v -2.160578 4.857984 -11.439182
v -2.117679 4.901181 -11.413589
v -2.905207 5.788193 -11.508505
v -2.884007 5.800844 -11.447686
v -2.831401 5.831389 -11.421977
v -3.362506 6.892283 -11.513879
v -3.339007 6.899388 -11.453032
v -3.280856 6.916543 -11.427259
v 0.972388 12.558849 -11.377271
v 1.033245 12.626806 -11.401644
v 1.059042 12.654956 -11.461912
v 1.059045 12.190070 -11.462123
v 1.033308 12.192569 -11.401706
v 0.972601 12.198597 -11.377267
v 1.059052 8.343782 -11.462670
v 1.033472 8.339053 -11.401863
v 0.973153 8.327632 -11.377261
v 1.059052 7.810445 -11.462670
v 1.033472 7.815174 -11.401863
v 0.973153 7.826594 -11.377261
vt 0.508402 0.200000
vt 0.525029 0.200000
vt 0.525000 0.200000
vt 0.510000 0.200000
vt 0.525000 0.200000
vt 0.510000 0.200000
vt 0.550000 0.200000
vt 0.525026 0.200000
vt 0.525000 0.200000
vt 0.550000 0.200000
vt 0.525000 0.200000
vt 0.550000 0.200000
vt 0.583079 0.125000
vt 0.670930 0.125000
vt 0.670930 0.125000
vt 0.583079 0.125000
vt 0.583079 0.125000
vt 0.583079 0.125000
vt 0.670930 0.125000
vt 0.670930 0.125000
vt 0.510000 0.200000
vt 0.525000 0.200000
vt 0.550000 0.200000
vt 0.550000 0.200000
vt 0.575000 0.200000
vt 0.575000 0.200000
vt 0.575000 0.175000
vt 0.575000 0.175000
vt 0.575000 0.150000
vt 0.575000 0.150000
vt 0.575000 0.137500
vt 0.575000 0.137500
vt 0.550000 0.200000
vt 0.525000 0.200000
vt 0.575000 0.200000
vt 0.575000 0.200000
vt 0.575000 0.175000
vt 0.575000 0.175000
vt 0.575000 0.150000
vt 0.575000 0.150000
vt 0.575000 0.137500
vt 0.575000 0.137500
vt 0.584593 0.125000
vt 0.584593 0.125000
vt 0.670930 0.125000
vt 0.670930 0.125000
vt 0.670930 0.125000
vt 0.670930 0.125000
vt 0.584593 0.125000
vt 0.584593 0.125000
vt 0.510000 0.200000
vt 0.510000 0.200000
vt 0.525029 0.200000
vt 0.508402 0.200000
vt 0.510000 0.200000
vt 0.525000 0.200000
vt 0.525000 0.200000
vt 0.510000 0.200000
vt 0.550000 0.200000
vt 0.550000 0.200000
vt 0.550000 0.200000
vt 0.575000 0.200000
vt 0.575000 0.200000
vt 0.575000 0.200000
vt 0.575000 0.175000
vt 0.575000 0.175000
vt 0.575000 0.175000
vt 0.575000 0.150000
vt 0.575000 0.150000
vt 0.575000 0.150000
vt 0.575000 0.137500
vt 0.575000 0.137500
vt 0.575000 0.137500
vt 0.584593 0.125000
vt 0.670930 0.125000
vt 0.670930 0.125000
vt 0.584593 0.125000
vt 0.525026 0.200000
vt 0.550000 0.200000
vt 0.550000 0.200000
vt 0.525000 0.200000
vt 0.525000 0.200000
vt 0.550000 0.200000
vt 0.575000 0.200000
vt 0.575000 0.200000
vt 0.575000 0.200000
vt 0.575000 0.175000
vt 0.575000 0.175000
vt 0.575000 0.175000
vt 0.575000 0.150000
vt 0.575000 0.150000
vt 0.575000 0.150000
vt 0.575000 0.137500
vt 0.575000 0.137500
vt 0.575000 0.137500
vt 0.584593 0.125000
vt 0.670930 0.125000
vt 0.670930 0.125000
vt 0.584593 0.125000
vt 0.508402 0.200000
vt 0.510000 0.200000
vt 0.510000 0.200000
vt 0.550000 0.200000
vt 0.550000 0.200000
vt 0.575000 0.200000
vt 0.575000 0.200000
vt 0.575000 0.175000
vt 0.575000 0.175000
vt 0.575000 0.150000
vt 0.575000 0.150000
vt 0.575000 0.137500
vt 0.575000 0.137500
vt 0.584593 0.125000
vt 0.670930 0.125000
vt 0.575000 0.200000
vt 0.575000 0.200000
vt 0.508402 0.200000
vt 0.510000 0.200000
vt 0.575000 0.175000
vt 0.575000 0.175000
vt 0.575000 0.150000
vt 0.575000 0.150000
vt 0.575000 0.137500
vt 0.575000 0.137500
vt 0.584593 0.125000
vt 0.670930 0.125000
vt 0.500000 0.200000
vt 0.500000 0.200000
vt 0.500000 0.200000
vt 0.500000 0.200000
vt 0.501580 0.200000
vt 0.501584 0.200000
vt 0.500000 0.200000
vt 0.510000 0.200000
vt 0.510000 0.200000
vt 0.500000 0.200000
vt 0.509866 0.200000
vt 0.501584 0.200000
vt 0.509866 0.200000
vt 0.501584 0.200000
vt 0.500000 0.200000
vt 0.510000 0.200000
vt 0.500000 0.200000
vt 0.510000 0.200000
vt 0.500000 0.200000
vt 0.500000 0.200000
vt 0.500000 0.200000
vt 0.500000 0.200000
vt 0.501580 0.200000
vt 0.501584 0.200000
vt 0.525000 0.200000
vt 0.525000 0.200000
vt 0.510000 0.200000
vt 0.550000 0.200000
vt 0.550000 0.200000
vt 0.575000 0.200000
vt 0.575000 0.200000
vt 0.575000 0.175000
vt 0.575000 0.175000
vt 0.575000 0.150000
vt 0.575000 0.150000
vt 0.575000 0.137500
vt 0.575000 0.137500
vt 0.510000 0.200000
vt 0.575000 0.137500
vt 0.575000 0.137500
vt 0.525000 0.200000
vt 0.525000 0.200000
vt 0.550000 0.200000
vt 0.550000 0.200000
vt 0.575000 0.200000
vt 0.575000 0.200000
vt 0.575000 0.175000
vt 0.575000 0.175000
vt 0.575000 0.150000
vt 0.575000 0.150000
vt 0.524987 0.200000
vt 0.550000 0.200000
vt 0.575000 0.200000
vt 0.575000 0.175000
vt 0.575000 0.149973
vt 0.575000 0.137639
vt 0.509866 0.200000
vt 0.575000 0.137639
vt 0.524986 0.200000
vt 0.550000 0.200000
vt 0.575000 0.200000
vt 0.575000 0.175000
vt 0.575000 0.149973
vt 0.501580 0.200000
vt 0.576607 0.125000
vt 0.576607 0.125000
vt 0.524987 0.200000
vt 0.509866 0.200000
vt 0.550000 0.200000
vt 0.575000 0.200000
vt 0.575000 0.175000
vt 0.575000 0.149973
vt 0.575000 0.137639
vt 0.501580 0.200000
vt 0.575000 0.137639
vt 0.524986 0.200000
vt 0.550000 0.200000
vt 0.575000 0.200000
vt 0.575000 0.175000
vt 0.575000 0.149973
vt 0.576607 0.125000
vt 0.576607 0.125000
vt 0.550000 0.200000
vt 0.575000 0.200000
vt 0.525000 0.200000
vt 0.510000 0.200000
vt 0.575000 0.150000
vt 0.575000 0.137500
vt 0.575000 0.137500
vt 0.575000 0.175000
vt 0.525000 0.200000
vt 0.500000 0.200000
vt 0.500000 0.200000
vt 0.575000 0.200000
vt 0.550000 0.200000
vt 0.575000 0.175000
vt 0.575000 0.150000
vt 0.575120 0.125000
vt 0.575120 0.125000
vt 0.575120 0.125000
vt 0.575120 0.125000
vt 0.525000 0.200000
vt 0.550000 0.200000
vt 0.575000 0.200000
vt 0.575000 0.175000
vt 0.575000 0.150000
vt 0.575000 0.137500
vt 0.575000 0.137500
vt 0.575120 0.125000
vt 0.575120 0.125000
vt 0.510000 0.200000
vt 0.575000 0.150000
vt 0.525000 0.200000
vt 0.550000 0.200000
vt 0.575000 0.200000
vt 0.575000 0.175000
vt 0.500000 0.200000
vt 0.500000 0.200000
vt 0.575120 0.125000
vt 0.575120 0.125000
vn -0.058181 -0.005862 0.998289
vn 0.006152 -0.059810 0.998191
vn 0.111375 -0.360712 0.926003
vn 0.049787 -0.377835 0.924534
vn 0.141918 -0.912207 0.384367
vn 0.264297 -0.882960 0.387980
vn 0.298476 -0.946707 0.121071
vn 0.155241 -0.977503 0.142785
vn 0.019590 0.056824 0.998192
vn 0.006152 0.059811 0.998191
vn 0.111375 0.360713 0.926003
vn 0.185648 0.325162 0.927257
vn 0.440848 0.808120 0.390634
vn 0.264296 0.882958 0.387985
vn 0.298476 0.946707 0.121072
vn 0.487627 0.865736 0.112793
vn -0.040807 0.022090 0.998923
vn -0.001676 0.047841 0.998854
vn -0.001676 -0.047841 0.998854
vn -0.040807 -0.022090 0.998923
vn -0.016523 0.031385 -0.999371
vn -0.016523 -0.031385 -0.999371
vn 0.021748 -0.033752 -0.999194
vn 0.021748 0.033752 -0.999194
vn 0.158904 -0.983769 -0.083350
vn 0.317240 -0.943309 -0.097610
vn 0.487626 -0.865736 0.112792
vn 0.506447 -0.855898 -0.104645
vn 0.696303 -0.708558 0.114484
vn 0.709504 -0.697125 -0.103055
vn 0.857112 -0.501957 0.115752
vn 0.864619 -0.491990 -0.101879
vn 0.953582 -0.277889 0.116014
vn 0.956732 -0.272189 -0.102842
vn 0.984487 -0.129874 0.117974
vn 0.986255 -0.129765 -0.102286
vn 0.506448 0.855897 -0.104646
vn 0.317239 0.943309 -0.097612
vn 0.709504 0.697125 -0.103058
vn 0.696303 0.708558 0.114486
vn 0.864619 0.491990 -0.101881
vn 0.857111 0.501957 0.115753
vn 0.956732 0.272189 -0.102843
vn 0.953582 0.277889 0.116014
vn 0.986255 0.129765 -0.102286
vn 0.984487 0.129873 0.117974
vn 0.000979 -0.996527 -0.083259
vn -0.001635 -0.990271 0.139146
vn -0.000980 -0.996517 0.083381
vn 0.001637 -0.990254 -0.139261
vn 0.001637 0.990254 -0.139266
vn -0.000980 0.996517 0.083385
vn -0.001635 0.990270 0.139151
vn 0.000979 0.996527 -0.083263
vn 0.155239 0.977503 0.142788
vn 0.158903 0.983769 -0.083353
vn -0.992695 -0.000000 -0.120654
vn -0.995257 -0.000000 0.097279
vn -0.995243 -0.000000 0.097426
vn -0.992677 -0.000000 -0.120802
vn -0.992677 0.000000 -0.120802
vn -0.995243 0.000000 0.097426
vn -0.995257 0.000000 0.097279
vn -0.992695 0.000000 -0.120654
vn 0.033314 -0.063650 -0.997416
vn -0.033789 -0.008472 -0.999393
vn 0.071501 -0.377827 -0.923111
vn 0.119961 -0.364504 -0.923443
vn 0.304547 -0.873036 -0.380867
vn 0.150912 -0.912205 -0.380930
vn 0.482013 -0.789574 -0.379784
vn 0.194363 -0.332689 -0.922790
vn 0.044694 -0.054503 -0.997513
vn 0.667807 -0.641434 -0.377619
vn 0.275160 -0.272913 -0.921849
vn 0.057274 -0.044043 -0.997387
vn 0.809047 -0.451750 -0.375985
vn 0.337673 -0.193672 -0.921123
vn 0.066689 -0.030859 -0.997297
vn 0.892909 -0.249175 -0.375000
vn 0.375798 -0.105686 -0.920655
vn 0.070160 -0.016164 -0.997405
vn 0.920401 -0.120673 -0.371887
vn 0.390233 -0.049984 -0.919358
vn 0.004498 0.923872 -0.382674
vn 0.004498 0.923872 -0.382674
vn 0.010858 0.382679 -0.923817
vn 0.010858 0.382679 -0.923817
vn 0.033314 0.063650 -0.997416
vn 0.044694 0.054503 -0.997513
vn 0.194363 0.332688 -0.922790
vn 0.119961 0.364505 -0.923442
vn 0.304546 0.873035 -0.380869
vn 0.482013 0.789573 -0.379787
vn 0.057274 0.044043 -0.997387
vn 0.275159 0.272913 -0.921849
vn 0.667805 0.641432 -0.377627
vn 0.066689 0.030859 -0.997297
vn 0.337674 0.193672 -0.921123
vn 0.809045 0.451749 -0.375991
vn 0.070160 0.016164 -0.997405
vn 0.375798 0.105686 -0.920655
vn 0.892909 0.249174 -0.375002
vn 0.390233 0.049984 -0.919358
vn 0.920401 0.120673 -0.371888
vn 0.010858 -0.382679 -0.923817
vn 0.010858 -0.382679 -0.923817
vn 0.004497 -0.923878 -0.382661
vn 0.004497 -0.923878 -0.382661
vn -0.033789 0.008472 -0.999393
vn -0.371774 0.000000 -0.928323
vn -0.371774 0.000000 -0.928323
vn -0.919318 0.000000 -0.393515
vn -0.919318 0.000000 -0.393515
vn 0.150911 0.912201 -0.380939
vn 0.071501 0.377829 -0.923110
vn -0.919318 -0.000000 -0.393515
vn -0.919318 -0.000000 -0.393515
vn -0.371775 -0.000000 -0.928323
vn -0.371775 -0.000000 -0.928323
vn 0.019590 -0.056825 0.998192
vn 0.185648 -0.325162 0.927256
vn 0.440849 -0.808122 0.390630
vn 0.033533 -0.046761 0.998343
vn 0.262156 -0.264170 0.928164
vn 0.637212 -0.662981 0.392960
vn 0.044339 -0.033240 0.998463
vn 0.320324 -0.186053 0.928858
vn 0.789154 -0.470525 0.394770
vn 0.049291 -0.017677 0.998628
vn 0.355232 -0.101320 0.929271
vn 0.880826 -0.259820 0.395776
vn 0.368519 -0.049984 0.928275
vn 0.911407 -0.120672 0.393416
vn -0.010858 0.382688 0.923814
vn -0.010858 0.382688 0.923814
vn -0.004498 0.923873 0.382671
vn -0.004498 0.923873 0.382671
vn 0.637209 0.662979 0.392967
vn 0.262155 0.264170 0.928164
vn 0.033532 0.046761 0.998343
vn -0.058181 0.005862 0.998289
vn 0.049787 0.377836 0.924533
vn 0.141917 0.912203 0.384376
vn 0.789151 0.470524 0.394776
vn 0.320324 0.186053 0.928858
vn 0.044339 0.033240 0.998463
vn 0.880826 0.259820 0.395777
vn 0.355232 0.101320 0.929271
vn 0.049291 0.017677 0.998628
vn 0.911406 0.120672 0.393416
vn 0.368519 0.049984 0.928276
vn -0.004497 -0.923879 0.382659
vn -0.004497 -0.923879 0.382659
vn -0.010858 -0.382688 0.923814
vn -0.010858 -0.382688 0.923814
vn -0.928315 -0.000000 0.371795
vn -0.928315 -0.000000 0.371795
vn -0.393505 -0.000000 0.919322
vn -0.393505 -0.000000 0.919322
vn -0.928315 0.000000 0.371795
vn -0.928315 0.000000 0.371795
vn -0.393505 0.000000 0.919322
vn -0.393505 0.000000 0.919322
vn 0.928643 -0.000052 -0.370974
vn 0.929676 -0.000019 -0.368377
vn 0.929675 -0.000019 -0.368382
vn 0.928643 -0.000052 -0.370974
vn 0.394281 0.000062 -0.918990
vn 0.396939 0.000021 -0.917845
vn 0.067514 0.000003 -0.997718
vn 0.060686 0.081703 -0.994807
vn -0.113371 -0.990359 -0.079603
vn -0.129894 -0.986043 -0.104147
vn -0.118536 -0.915638 -0.384130
vn -0.101418 -0.917789 -0.383897
vn -0.033012 -0.380157 -0.924333
vn -0.038415 -0.379465 -0.924408
vn 0.001669 -0.074481 -0.997221
vn 0.060686 -0.081703 -0.994807
vn -0.021017 0.071576 0.997214
vn 0.043184 0.062527 0.997109
vn -0.054730 0.380158 0.923301
vn -0.062035 0.379216 0.923226
vn -0.122871 0.916250 0.381299
vn -0.110414 0.917788 0.381411
vn -0.115189 0.984635 0.131243
vn -0.129833 0.985836 0.106160
vn 0.919666 0.000051 0.392702
vn 0.920761 0.000019 0.390128
vn 0.920759 0.000019 0.390133
vn 0.919666 0.000051 0.392702
vn 0.372583 -0.000062 0.927999
vn 0.375270 -0.000021 0.926915
vn 0.044033 -0.000003 0.999030
vn 0.043185 -0.062527 0.997109
vn -0.306531 0.946230 -0.103376
vn -0.290848 0.950388 0.110315
vn -0.129894 0.986043 -0.104150
vn -0.504146 0.856002 -0.114446
vn -0.490062 0.866018 0.099261
vn -0.707186 0.697177 -0.117611
vn -0.698822 0.708818 0.096042
vn -0.862270 0.492006 -0.120084
vn -0.859704 0.502153 0.093550
vn -0.949274 0.290005 -0.121560
vn -0.951047 0.295193 0.091487
vn -0.986315 0.111917 -0.121063
vn -0.989346 0.113267 0.091462
vn -0.115188 -0.984636 0.131241
vn -0.129833 -0.985837 0.106159
vn -0.986316 -0.111917 -0.121063
vn -0.989346 -0.113267 0.091462
vn -0.306531 -0.946231 -0.103374
vn -0.290848 -0.950388 0.110313
vn -0.490062 -0.866018 0.099259
vn -0.504146 -0.856002 -0.114444
vn -0.698822 -0.708818 0.096042
vn -0.707186 -0.697177 -0.117610
vn -0.859704 -0.502153 0.093549
vn -0.862270 -0.492006 -0.120084
vn -0.951047 -0.295193 0.091486
vn -0.949274 -0.290005 -0.121559
vn -0.113371 0.990359 -0.079604
vn -0.032962 0.072411 0.996830
vn -0.050271 0.069917 0.996285
vn -0.067527 0.057633 0.996051
vn -0.081044 0.041080 0.995863
vn -0.085259 0.023068 0.996092
vn -0.084423 0.008401 0.996395
vn -0.021017 -0.071577 0.997214
vn -0.084423 -0.008401 0.996395
vn -0.032962 -0.072411 0.996830
vn -0.050271 -0.069917 0.996285
vn -0.067527 -0.057634 0.996051
vn -0.081044 -0.041081 0.995864
vn -0.085259 -0.023068 0.996092
vn 0.044033 0.000003 0.999030
vn 0.042416 0.000002 0.999100
vn 0.042416 -0.000002 0.999100
vn -0.014057 0.076880 -0.996941
vn 0.001669 0.074481 -0.997221
vn -0.028862 0.067152 -0.997325
vn -0.044511 0.054403 -0.997526
vn -0.056381 0.038248 -0.997676
vn -0.059206 0.021425 -0.998016
vn -0.058637 0.007943 -0.998248
vn 0.067514 -0.000003 -0.997718
vn -0.058637 -0.007943 -0.998248
vn -0.014057 -0.076880 -0.996941
vn -0.028863 -0.067152 -0.997325
vn -0.044511 -0.054403 -0.997526
vn -0.056382 -0.038248 -0.997676
vn -0.059207 -0.021425 -0.998016
vn 0.065911 0.000002 -0.997826
vn 0.065911 -0.000002 -0.997826
vn -0.472894 0.789606 -0.391016
vn -0.658711 0.641465 -0.393222
vn -0.253349 0.272982 -0.928060
vn -0.172496 0.332766 -0.927099
vn -0.289025 0.875105 -0.388144
vn -0.096042 0.364871 -0.926091
vn -0.118535 0.915634 -0.384141
vn -0.038416 0.379464 -0.924408
vn -0.033013 0.380157 -0.924333
vn -0.101419 0.917787 -0.383902
vn -0.879111 0.266835 -0.394922
vn -0.912994 0.103368 -0.394662
vn -0.368077 0.043794 -0.928763
vn -0.352503 0.114004 -0.928841
vn -0.368077 -0.043794 -0.928763
vn -0.912994 -0.103368 -0.394660
vn -0.799974 0.451764 -0.394906
vn -0.315911 0.193708 -0.928804
vn -0.289026 -0.875108 -0.388137
vn -0.096042 -0.364872 -0.926091
vn 0.396939 -0.000021 -0.917845
vn 0.394281 -0.000062 -0.918990
vn 0.928643 0.000052 -0.370974
vn 0.929675 0.000019 -0.368382
vn 0.929676 0.000019 -0.368377
vn 0.928643 0.000052 -0.370974
vn -0.658711 -0.641465 -0.393221
vn -0.472894 -0.789608 -0.391012
vn -0.172497 -0.332769 -0.927097
vn -0.253352 -0.272984 -0.928059
vn -0.799975 -0.451764 -0.394905
vn -0.315914 -0.193709 -0.928803
vn -0.879112 -0.266836 -0.394919
vn -0.352504 -0.114004 -0.928840
vn 0.929894 -0.000013 -0.367827
vn 0.929895 -0.000013 -0.367826
vn 0.397451 0.000015 -0.917623
vn 0.929894 0.000013 -0.367827
vn 0.929895 0.000013 -0.367826
vn 0.397451 -0.000015 -0.917623
vn -0.264103 0.885582 0.382092
vn -0.131953 0.360882 0.923229
vn -0.449939 0.808099 0.380171
vn -0.207480 0.325107 0.922636
vn -0.646298 0.662950 0.377884
vn -0.283976 0.264091 0.921745
vn -0.798232 0.470486 0.376122
vn -0.342129 0.185965 0.921067
vn -0.885259 0.276287 0.374143
vn -0.375399 0.110083 0.920303
vn -0.921745 0.105799 0.373085
vn -0.389902 0.042787 0.919862
vn -0.921746 -0.105799 0.373084
vn -0.389902 -0.042787 0.919861
vn 0.920992 0.000013 0.389582
vn 0.920992 0.000013 0.389581
vn 0.375786 -0.000015 0.926707
vn -0.062035 -0.379214 0.923227
vn -0.054729 -0.380158 0.923301
vn -0.110414 -0.917790 0.381407
vn -0.122871 -0.916252 0.381294
vn -0.885260 -0.276287 0.374140
vn -0.375400 -0.110083 0.920302
vn -0.131953 -0.360883 0.923229
vn -0.264104 -0.885584 0.382086
vn -0.207481 -0.325110 0.922635
vn -0.449941 -0.808102 0.380165
vn -0.283980 -0.264094 0.921743
vn -0.646299 -0.662950 0.377881
vn -0.342132 -0.185966 0.921066
vn -0.798233 -0.470486 0.376122
vn 0.375270 0.000021 0.926916
vn 0.372583 0.000062 0.927999
vn 0.919666 -0.000051 0.392702
vn 0.920759 -0.000019 0.390132
vn 0.920761 -0.000019 0.390128
vn 0.919666 -0.000051 0.392702
vn 0.375785 0.000015 0.926707
vn 0.920992 -0.000013 0.389580
vn 0.920992 -0.000013 0.389582
vn 0.999931 0.000000 0.011752
vn 0.999931 0.000000 0.011752
vn 0.999931 0.000000 0.011752
vn 0.999931 0.000000 0.011752
vn 0.999931 0.000000 0.011752
vn 0.999931 0.000000 0.011752
vn 0.999931 0.000000 0.011752
vn 0.999931 0.000000 0.011752
vn 0.999931 0.000000 0.011752
vn 0.999931 0.000000 0.011752
vn 0.999931 0.000000 0.011752
vn 0.999931 0.000000 0.011752
s 1
g Window_R WindowFrame
usemtl initialShadingGroup
f 51/1/1 52/2/2 53/3/3 50/4/4
s 2
f 50/4/5 53/3/6 54/5/7 49/6/8
s 1
f 72/7/9 73/8/10 74/9/11 71/10/12
s 4
f 71/10/13 74/9/14 75/11/15 70/12/16
s 1
f 91/13/17 67/14/18 87/15/19 90/16/20
s 6
f 19/17/21 40/18/22 37/19/23 16/20/24
s 2
f 48/21/25 49/6/8 54/5/7 3/22/26
f 3/22/26 54/5/7 57/23/27 6/24/28
f 6/24/28 57/23/27 60/25/29 9/26/30
f 9/26/30 60/25/29 63/27/31 12/28/32
f 12/28/32 63/27/31 66/29/33 15/30/34
f 15/30/34 66/29/33 69/31/35 18/32/36
s 4
f 27/33/37 70/12/16 75/11/15 24/34/38
f 30/35/39 76/36/40 70/12/16 27/33/37
f 33/37/41 79/38/42 76/36/40 30/35/39
f 36/39/43 82/40/44 79/38/42 33/37/41
f 39/41/45 85/42/46 82/40/44 36/39/43
s 7
f 42/43/47 88/44/48 85/45/49 39/46/50
s 8
f 18/47/51 69/48/52 93/49/53 21/50/54
s 4
f 24/34/38 75/11/15 96/51/55 45/52/56
s 9
f 21/50/57 93/49/58 49/6/59 48/21/60
s 10
f 45/52/61 96/51/62 88/44/63 42/43/64
s 6
f 1/53/65 46/54/66 47/55/67 2/56/68
s 2
f 2/57/69 47/58/70 48/21/25 3/22/26
f 3/22/26 6/24/28 5/59/71 2/57/69
s 6
f 2/56/68 5/60/72 4/61/73 1/53/65
s 2
f 6/24/28 9/26/30 8/62/74 5/59/71
s 6
f 5/60/72 8/63/75 7/64/76 4/61/73
s 2
f 9/26/30 12/28/32 11/65/77 8/62/74
s 6
f 8/63/75 11/66/78 10/67/79 7/64/76
s 2
f 12/28/32 15/30/34 14/68/80 11/65/77
s 6
f 11/66/78 14/69/81 13/70/82 10/67/79
s 2
f 15/30/34 18/32/36 17/71/83 14/68/80
s 6
f 14/69/81 17/72/84 16/73/24 13/70/82
s 8
f 18/47/51 21/50/54 20/74/85 17/75/86
s 6
f 17/76/87 20/77/88 19/17/21 16/20/24
f 22/78/89 25/79/90 26/80/91 23/81/92
s 4
f 23/82/93 26/83/94 27/33/37 24/34/38
s 6
f 25/79/90 28/84/95 29/85/96 26/80/91
s 4
f 26/83/94 29/86/97 30/35/39 27/33/37
s 6
f 28/84/95 31/87/98 32/88/99 29/85/96
s 4
f 29/86/97 32/89/100 33/37/41 30/35/39
s 6
f 31/87/98 34/90/101 35/91/102 32/88/99
s 4
f 32/89/100 35/92/103 36/39/43 33/37/41
s 6
f 34/90/101 37/93/23 38/94/104 35/91/102
s 4
f 35/92/103 38/95/105 39/41/45 36/39/43
s 6
f 37/19/23 40/18/22 41/96/106 38/97/107
s 7
f 38/98/108 41/99/109 42/43/47 39/46/50
s 6
f 40/18/22 43/100/110 44/101/111 41/96/112
s 10
f 41/99/113 44/102/114 45/52/61 42/43/64
s 4
f 24/34/38 45/52/56 44/102/115 23/82/93
s 6
f 23/81/92 44/101/116 43/100/110 22/78/89
s 9
f 21/50/57 48/21/60 47/58/117 20/74/118
s 6
f 20/77/119 47/55/120 46/54/66 19/17/21
s 1
f 52/2/2 55/103/121 56/104/122 53/3/3
s 2
f 53/3/6 56/104/123 57/23/27 54/5/7
s 1
f 55/103/121 58/105/124 59/106/125 56/104/122
s 2
f 56/104/123 59/106/126 60/25/29 57/23/27
s 1
f 58/105/124 61/107/127 62/108/128 59/106/125
s 2
f 59/106/126 62/108/129 63/27/31 60/25/29
s 1
f 61/107/127 64/109/130 65/110/131 62/108/128
s 2
f 62/108/129 65/110/132 66/29/33 63/27/31
s 1
f 64/109/130 67/111/18 68/112/133 65/110/131
s 2
f 65/110/132 68/112/134 69/31/35 66/29/33
s 1
f 67/14/18 91/13/17 92/113/135 68/114/136
s 8
f 68/114/137 92/113/138 93/49/53 69/48/52
s 4
f 70/12/16 76/36/40 77/115/139 71/10/13
s 1
f 71/10/12 77/115/140 78/116/141 72/7/9
f 73/8/10 94/117/142 95/118/143 74/9/11
s 4
f 74/9/14 95/118/144 96/51/55 75/11/15
f 76/36/40 79/38/42 80/119/145 77/115/139
s 1
f 77/115/140 80/119/146 81/120/147 78/116/141
s 4
f 79/38/42 82/40/44 83/121/148 80/119/145
s 1
f 80/119/146 83/121/149 84/122/150 81/120/147
s 4
f 82/40/44 85/42/46 86/123/151 83/121/148
s 1
f 83/121/149 86/123/152 87/124/19 84/122/150
s 7
f 85/45/49 88/44/48 89/125/153 86/126/154
s 1
f 86/126/155 89/125/156 90/16/20 87/15/19
s 9
f 49/6/59 93/49/58 92/113/157 50/4/158
s 1
f 50/4/159 92/113/160 91/13/17 51/1/1
s 10
f 88/44/63 96/51/62 95/118/161 89/125/162
s 1
f 89/125/163 95/118/164 94/117/142 90/16/20
s 17
f 108/127/165 148/128/166 149/129/167 107/130/168
s 6
f 107/130/169 149/129/170 150/131/171 106/132/172
s 19
f 126/133/173 127/134/174 128/135/175 125/136/176
s 6
f 125/136/177 128/135/178 129/137/179 124/138/180
s 1
f 159/139/181 205/140/182 206/141/183 158/142/184
s 19
f 158/142/185 206/141/186 207/143/187 157/144/188
s 23
f 180/145/189 181/146/190 182/147/191 179/148/192
s 1
f 179/148/193 182/147/194 183/149/195 178/150/196
s 19
f 103/151/197 160/152/198 157/144/188 109/153/199
f 100/154/200 163/155/201 160/152/198 103/151/197
f 97/156/202 166/157/203 163/155/201 100/154/200
f 121/158/204 169/159/205 166/157/203 97/156/202
f 118/160/206 172/161/207 169/159/205 121/158/204
f 112/162/208 175/163/209 172/161/207 118/160/206
f 126/133/173 180/145/210 184/164/211 127/134/174
f 115/165/212 187/166/213 175/163/209 112/162/208
f 136/167/214 190/168/215 193/169/216 133/170/217
f 133/170/217 193/169/216 196/171/218 139/172/219
f 139/172/219 196/171/218 199/173/220 142/174/221
f 142/174/221 199/173/220 202/175/222 145/176/223
f 145/176/223 202/175/222 187/166/213 115/165/212
f 127/134/174 184/164/211 190/168/215 136/167/214
f 109/153/199 157/144/188 207/143/187 108/127/224
s 1
f 162/177/225 52/2/2 51/1/1 159/139/181
f 165/178/226 55/103/121 52/2/2 162/177/225
f 168/179/227 58/105/124 55/103/121 165/178/226
f 171/180/228 61/107/127 58/105/124 168/179/227
f 174/181/229 64/109/130 61/107/127 171/180/228
f 177/182/230 67/111/18 64/109/130 174/181/229
f 183/149/195 94/117/142 186/183/231 178/150/196
f 67/111/18 177/182/230 189/184/232 87/124/19
f 192/185/233 73/8/10 72/7/9 195/186/234
f 195/186/234 72/7/9 78/116/141 198/187/235
f 198/187/235 78/116/141 81/120/147 201/188/236
f 201/188/236 81/120/147 84/122/150 204/189/237
f 204/189/237 84/122/150 87/124/19 189/184/232
f 94/117/142 73/8/10 192/185/233 186/183/231
f 51/1/1 210/190/238 205/140/182 159/139/181
f 51/1/1 91/13/17 213/191/239 210/190/238
f 213/191/239 91/13/17 90/16/20 216/192/240
f 216/192/240 90/16/20 94/117/142 183/149/195
s 6
f 105/193/241 111/194/242 46/54/66 1/53/65
f 102/195/243 105/193/241 1/53/65 4/61/73
f 99/196/244 102/195/243 4/61/73 7/64/76
f 123/197/245 99/196/244 7/64/76 10/67/79
f 120/198/246 123/197/245 10/67/79 13/70/82
f 114/199/247 120/198/246 13/70/82 16/73/24
f 132/200/248 124/138/180 129/137/179 43/100/110
f 16/73/24 37/93/23 117/201/249 114/199/247
f 138/202/250 135/203/251 25/79/90 22/78/89
f 135/203/251 141/204/252 28/84/95 25/79/90
f 141/204/252 144/205/253 31/87/98 28/84/95
f 144/205/253 147/206/254 34/90/101 31/87/98
f 147/206/254 117/201/249 37/93/23 34/90/101
f 43/100/110 129/137/179 138/202/250 22/78/89
f 46/54/66 111/194/242 106/132/172 150/131/171
f 46/54/66 150/131/171 153/207/255 19/17/21
f 153/207/255 156/208/256 40/18/22 19/17/21
f 156/208/256 132/200/248 43/100/110 40/18/22
s 19
f 97/156/202 100/154/200 101/209/257 98/210/258
s 6
f 98/210/259 101/209/260 102/195/243 99/196/244
s 19
f 100/154/200 103/151/197 104/211/261 101/209/257
s 6
f 101/209/260 104/211/262 105/193/241 102/195/243
s 19
f 103/151/197 109/153/199 110/212/263 104/211/261
s 6
f 104/211/262 110/212/264 111/194/242 105/193/241
f 106/132/172 111/194/242 110/212/264 107/130/265
s 19
f 107/130/266 110/212/263 109/153/199 108/127/224
f 112/162/208 118/160/206 119/213/267 113/214/268
s 6
f 113/214/269 119/213/270 120/198/246 114/199/247
f 114/199/247 117/201/249 116/215/271 113/214/269
s 19
f 113/214/268 116/215/272 115/165/212 112/162/208
f 118/160/206 121/158/204 122/216/273 119/213/267
s 6
f 119/213/270 122/216/274 123/197/245 120/198/246
f 99/196/244 123/197/245 122/216/274 98/210/259
s 19
f 98/210/258 122/216/273 121/158/204 97/156/202
f 127/134/174 136/167/214 137/217/275 128/135/175
s 6
f 128/135/178 137/217/276 138/202/250 129/137/179
f 124/138/180 132/200/248 131/218/277 125/136/278
s 17
f 125/136/279 131/218/280 130/219/281 126/133/282
s 19
f 133/170/217 139/172/219 140/220/283 134/221/284
s 6
f 134/221/285 140/220/286 141/204/252 135/203/251
f 135/203/251 138/202/250 137/217/276 134/221/285
s 19
f 134/221/284 137/217/275 136/167/214 133/170/217
f 139/172/219 142/174/221 143/222/287 140/220/283
s 6
f 140/220/286 143/222/288 144/205/253 141/204/252
s 19
f 142/174/221 145/176/223 146/223/289 143/222/287
s 6
f 143/222/288 146/223/290 147/206/254 144/205/253
f 117/201/249 147/206/254 146/223/290 116/215/271
s 19
f 116/215/272 146/223/289 145/176/223 115/165/212
s 17
f 148/128/166 151/224/291 152/225/292 149/129/167
s 6
f 149/129/170 152/225/293 153/207/255 150/131/171
s 17
f 151/224/291 154/226/294 155/227/295 152/225/292
s 6
f 152/225/293 155/227/296 156/208/256 153/207/255
f 132/200/248 156/208/256 155/227/296 131/218/277
s 17
f 131/218/280 155/227/295 154/226/294 130/219/281
s 19
f 157/144/188 160/152/198 161/228/297 158/142/185
s 1
f 158/142/184 161/228/298 162/177/225 159/139/181
s 19
f 160/152/198 163/155/201 164/229/299 161/228/297
s 1
f 161/228/298 164/229/300 165/178/226 162/177/225
s 19
f 163/155/201 166/157/203 167/230/301 164/229/299
s 1
f 164/229/300 167/230/302 168/179/227 165/178/226
s 19
f 166/157/203 169/159/205 170/231/303 167/230/301
s 1
f 167/230/302 170/231/304 171/180/228 168/179/227
s 19
f 169/159/205 172/161/207 173/232/305 170/231/303
s 1
f 170/231/304 173/232/306 174/181/229 171/180/228
s 19
f 172/161/207 175/163/209 176/233/307 173/232/305
s 1
f 173/232/306 176/233/308 177/182/230 174/181/229
s 19
f 175/163/209 187/166/213 188/234/309 176/233/307
s 1
f 176/233/308 188/234/310 189/184/232 177/182/230
s 23
f 181/146/190 214/235/311 215/236/312 182/147/191
s 1
f 182/147/194 215/236/313 216/192/240 183/149/195
f 178/150/196 186/183/231 185/237/314 179/148/315
s 19
f 179/148/316 185/237/317 184/164/211 180/145/210
f 187/166/213 202/175/222 203/238/318 188/234/309
s 1
f 188/234/310 203/238/319 204/189/237 189/184/232
f 186/183/231 192/185/233 191/239/320 185/237/314
s 19
f 185/237/317 191/239/321 190/168/215 184/164/211
s 1
f 192/185/233 195/186/234 194/240/322 191/239/320
s 19
f 191/239/321 194/240/323 193/169/216 190/168/215
s 1
f 195/186/234 198/187/235 197/241/324 194/240/322
s 19
f 194/240/323 197/241/325 196/171/218 193/169/216
s 1
f 198/187/235 201/188/236 200/242/326 197/241/324
s 19
f 197/241/325 200/242/327 199/173/220 196/171/218
s 1
f 201/188/236 204/189/237 203/238/319 200/242/326
s 19
f 200/242/327 203/238/318 202/175/222 199/173/220
s 1
f 205/140/182 210/190/238 209/243/328 206/141/329
s 23
f 206/141/330 209/243/331 208/244/332 207/143/333
s 1
f 210/190/238 213/191/239 212/245/334 209/243/328
s 23
f 209/243/331 212/245/335 211/246/336 208/244/332
s 1
f 213/191/239 216/192/240 215/236/313 212/245/334
s 23
f 212/245/335 215/236/312 214/235/311 211/246/336
s off
f 108/127/337 207/143/338 208/244/339 211/246/340 214/235/341 181/146/342 180/145/343 126/133/344 130/219/345 154/226/346 151/224/347 148/128/348
g default
v 2.152685 12.133636 -11.727685
v 2.136014 12.074437 -11.702317
v 2.129291 12.049921 -11.641192
v 3.164525 11.714516 -11.731282
v 3.133801 11.661142 -11.705862
v 3.121253 11.639035 -11.644716
v 4.034392 11.047041 -11.734376
v 3.990903 11.003461 -11.708912
v 3.973070 10.985412 -11.647746
v 4.701863 10.177172 -11.736747
v 4.648580 10.146357 -11.711246
v 4.626690 10.133593 -11.650067
v 5.121453 9.164184 -11.738237
v 5.062014 9.148230 -11.712719
v 5.037575 9.141622 -11.651528
v 5.240919 8.257370 -11.738664
v 5.171329 8.318471 -11.713108
v 5.142685 8.343782 -11.651903
v 1.518707 8.257370 -11.725435
v 1.579900 8.318471 -11.700341
v 1.605427 8.343782 -11.639328
v 2.152685 4.020593 -11.727685
v 2.136014 4.079787 -11.702317
v 2.129291 4.104306 -11.641192
v 3.164525 4.439711 -11.731282
v 3.133801 4.493085 -11.705862
v 3.121253 4.515192 -11.644716
v 4.034392 5.107186 -11.734376
v 3.990903 5.150765 -11.708912
v 3.973070 5.168816 -11.647746
v 4.701863 5.977055 -11.736747
v 4.648580 6.007869 -11.711246
v 4.626690 6.020634 -11.650067
v 5.121453 6.990042 -11.738237
v 5.062014 7.005997 -11.712719
v 5.037575 7.012604 -11.651528
v 5.240919 7.896856 -11.738664
v 5.171329 7.835755 -11.713108
v 5.142685 7.810445 -11.651903
v 1.518707 7.896856 -11.725435
v 1.579900 7.835755 -11.700341
v 1.605427 7.810445 -11.639328
v 1.518709 3.918828 -11.725434
v 1.579900 3.990520 -11.700341
v 1.605428 4.020216 -11.639329
v 1.518709 12.235399 -11.725434
v 1.579900 12.163706 -11.700341
v 1.605428 12.134012 -11.639329
v 1.606039 12.134012 -11.466471
v 1.580950 12.163706 -11.405279
v 1.519937 12.235397 -11.379755
v 2.153917 12.133634 -11.382006
v 2.137065 12.074440 -11.407256
v 2.129905 12.049923 -11.468333
v 3.165755 11.714516 -11.385605
v 3.134849 11.661142 -11.410805
v 3.121869 11.639035 -11.471861
v 4.035621 11.047041 -11.388698
v 3.991952 11.003461 -11.413850
v 3.973684 10.985412 -11.474889
v 4.703091 10.177172 -11.391070
v 4.649629 10.146357 -11.416189
v 4.627304 10.133593 -11.477211
v 5.122681 9.164184 -11.392560
v 5.063063 9.148230 -11.417658
v 5.038190 9.141622 -11.478672
v 5.242147 8.257370 -11.392986
v 5.172378 8.318471 -11.418046
v 5.143299 8.343782 -11.479045
v 3.121869 4.515192 -11.471861
v 3.134849 4.493085 -11.410805
v 3.165755 4.439711 -11.385605
v 2.153917 4.020593 -11.382006
v 2.137065 4.079787 -11.407256
v 2.129905 4.104306 -11.468333
v 3.973684 5.168816 -11.474889
v 3.991952 5.150765 -11.413850
v 4.035621 5.107186 -11.388698
v 4.627304 6.020634 -11.477211
v 4.649629 6.007869 -11.416189
v 4.703091 5.977055 -11.391070
v 5.038190 7.012604 -11.478672
v 5.063063 7.005997 -11.417658
v 5.122681 6.990042 -11.392560
v 5.143299 7.810445 -11.479045
v 5.172378 7.835755 -11.418048
v 5.242147 7.896856 -11.392986
v 1.606039 7.810445 -11.466471
v 1.580949 7.835755 -11.405281
v 1.519937 7.896856 -11.379755
v 1.519936 8.257370 -11.379753
v 1.580949 8.318471 -11.405281
v 1.606039 8.343782 -11.466471
v 1.519937 3.918828 -11.379755
v 1.580950 3.990520 -11.405279
v 1.606039 4.020216 -11.466471
v 4.301790 11.314136 -11.649671
v 4.283683 11.296243 -11.710173
v 4.240397 11.253046 -11.735107
v 3.353692 12.041638 -11.646300
v 3.340824 12.019723 -11.706822
v 3.310191 11.966818 -11.731801
v 2.249608 12.498963 -11.642377
v 2.242685 12.474587 -11.702919
v 2.226406 12.415738 -11.727947
v 1.150133 12.558849 -11.724123
v 1.089657 12.626806 -11.698818
v 1.064782 12.654956 -11.638164
v 1.605425 12.592559 -11.640087
v 1.601968 12.567679 -11.700640
v 1.594049 12.507614 -11.725699
v 5.652019 8.343783 -11.654472
v 5.626716 8.341541 -11.714948
v 5.566062 8.336128 -11.739821
v 5.652019 7.810445 -11.654472
v 5.626716 7.812686 -11.714948
v 5.566062 7.818099 -11.739821
v 5.486612 9.261945 -11.653883
v 5.462186 9.254839 -11.714363
v 5.403646 9.237684 -11.739241
v 5.029287 10.366035 -11.652257
v 5.007157 10.353384 -11.712745
v 4.954163 10.322837 -11.737644
v 1.150133 3.595379 -11.724123
v 1.089657 3.527421 -11.698818
v 1.064782 3.499271 -11.638164
v 1.605425 3.561668 -11.640087
v 1.601968 3.586547 -11.700640
v 1.594049 3.646612 -11.725699
v 1.064784 3.964157 -11.637952
v 1.089592 3.961659 -11.698758
v 1.149919 3.955630 -11.724122
v 3.353692 4.112589 -11.646300
v 3.340824 4.134503 -11.706822
v 3.310191 4.187407 -11.731801
v 2.249608 3.655264 -11.642377
v 2.242685 3.679640 -11.702919
v 2.226406 3.738489 -11.727947
v 4.301790 4.840091 -11.649671
v 4.283683 4.857984 -11.710173
v 4.240397 4.901181 -11.735107
v 5.029287 5.788193 -11.652257
v 5.007157 5.800844 -11.712745
v 4.954163 5.831389 -11.737644
v 5.486612 6.892283 -11.653883
v 5.462186 6.899388 -11.714363
v 5.403646 6.916543 -11.739241
v 1.064784 12.190070 -11.637952
v 1.089592 12.192569 -11.698758
v 1.149919 12.198597 -11.724122
v 1.064786 8.343782 -11.637408
v 1.089432 8.339053 -11.698597
v 1.149366 8.327632 -11.724118
v 1.064786 7.810445 -11.637408
v 1.089432 7.815174 -11.698597
v 1.149366 7.826594 -11.724118
v 1.606044 12.592559 -11.465712
v 1.603018 12.567679 -11.405137
v 1.595279 12.507614 -11.380020
v 2.250228 12.498963 -11.468004
v 2.243737 12.474587 -11.407414
v 2.227633 12.415738 -11.382271
v 3.354311 12.041638 -11.471929
v 3.341876 12.019723 -11.411319
v 3.311420 11.966818 -11.386124
v 4.302409 11.314136 -11.475300
v 4.284732 11.296243 -11.414670
v 4.241624 11.253046 -11.389430
v 5.029906 10.366035 -11.477885
v 5.008207 10.353384 -11.417241
v 4.955393 10.322837 -11.391965
v 5.487231 9.261945 -11.479511
v 5.463237 9.254839 -11.418859
v 5.404877 9.237684 -11.393564
v 5.652639 8.343783 -11.480100
v 5.627767 8.341541 -11.419443
v 5.567290 8.336128 -11.394141
v 1.151360 3.595379 -11.378444
v 1.090706 3.527421 -11.403317
v 1.065403 3.499271 -11.463791
v 1.065401 3.964157 -11.464005
v 1.090643 3.961659 -11.403377
v 1.151149 3.955630 -11.378444
v 1.606044 3.561668 -11.465712
v 1.603018 3.586547 -11.405137
v 1.595279 3.646612 -11.380020
v 5.652639 7.810445 -11.480100
v 5.627767 7.812686 -11.419443
v 5.567290 7.818099 -11.394141
v 2.250228 3.655264 -11.468004
v 2.243737 3.679640 -11.407414
v 2.227633 3.738489 -11.382271
v 3.354311 4.112589 -11.471929
v 3.341876 4.134503 -11.411319
v 3.311420 4.187407 -11.386124
v 4.302409 4.840091 -11.475300
v 4.284732 4.857984 -11.414670
v 4.241624 4.901181 -11.389430
v 5.029906 5.788193 -11.477885
v 5.008207 5.800844 -11.417241
v 4.955393 5.831389 -11.391965
v 5.487231 6.892283 -11.479511
v 5.463237 6.899388 -11.418859
v 5.404877 6.916543 -11.393564
v 1.151360 12.558849 -11.378444
v 1.090706 12.626806 -11.403317
v 1.065403 12.654956 -11.463791
v 1.065402 12.190070 -11.464004
v 1.090643 12.192569 -11.403377
v 1.151149 12.198597 -11.378444
v 1.065399 8.343782 -11.464551
v 1.090482 8.339053 -11.403538
v 1.150595 8.327632 -11.378440
v 1.065399 7.810445 -11.464551
v 1.090482 7.815174 -11.403538
v 1.150595 7.826594 -11.378440
vt 0.508402 0.200000
vt 0.510000 0.200000
vt 0.525000 0.200000
vt 0.525029 0.200000
vt 0.510000 0.200000
vt 0.525000 0.200000
vt 0.550000 0.200000
vt 0.550000 0.200000
vt 0.525000 0.200000
vt 0.525026 0.200000
vt 0.550000 0.200000
vt 0.525000 0.200000
vt 0.583079 0.125000
vt 0.583079 0.125000
vt 0.670930 0.125000
vt 0.670930 0.125000
vt 0.583079 0.125000
vt 0.670930 0.125000
vt 0.670930 0.125000
vt 0.583079 0.125000
vt 0.510000 0.200000
vt 0.525000 0.200000
vt 0.550000 0.200000
vt 0.550000 0.200000
vt 0.575000 0.200000
vt 0.575000 0.200000
vt 0.575000 0.175000
vt 0.575000 0.175000
vt 0.575000 0.150000
vt 0.575000 0.150000
vt 0.575000 0.137500
vt 0.575000 0.137500
vt 0.550000 0.200000
vt 0.525000 0.200000
vt 0.575000 0.200000
vt 0.575000 0.200000
vt 0.575000 0.175000
vt 0.575000 0.175000
vt 0.575000 0.150000
vt 0.575000 0.150000
vt 0.575000 0.137500
vt 0.575000 0.137500
vt 0.584593 0.125000
vt 0.670930 0.125000
vt 0.670930 0.125000
vt 0.584593 0.125000
vt 0.670930 0.125000
vt 0.584593 0.125000
vt 0.584593 0.125000
vt 0.670930 0.125000
vt 0.510000 0.200000
vt 0.510000 0.200000
vt 0.525029 0.200000
vt 0.525000 0.200000
vt 0.510000 0.200000
vt 0.508402 0.200000
vt 0.525000 0.200000
vt 0.510000 0.200000
vt 0.550000 0.200000
vt 0.550000 0.200000
vt 0.550000 0.200000
vt 0.575000 0.200000
vt 0.575000 0.200000
vt 0.575000 0.200000
vt 0.575000 0.175000
vt 0.575000 0.175000
vt 0.575000 0.175000
vt 0.575000 0.150000
vt 0.575000 0.150000
vt 0.575000 0.150000
vt 0.575000 0.137500
vt 0.575000 0.137500
vt 0.575000 0.137500
vt 0.670930 0.125000
vt 0.584593 0.125000
vt 0.670930 0.125000
vt 0.584593 0.125000
vt 0.525026 0.200000
vt 0.525000 0.200000
vt 0.550000 0.200000
vt 0.550000 0.200000
vt 0.525000 0.200000
vt 0.550000 0.200000
vt 0.575000 0.200000
vt 0.575000 0.200000
vt 0.575000 0.200000
vt 0.575000 0.175000
vt 0.575000 0.175000
vt 0.575000 0.175000
vt 0.575000 0.150000
vt 0.575000 0.150000
vt 0.575000 0.150000
vt 0.575000 0.137500
vt 0.575000 0.137500
vt 0.575000 0.137500
vt 0.670930 0.125000
vt 0.584593 0.125000
vt 0.670930 0.125000
vt 0.584593 0.125000
vt 0.510000 0.200000
vt 0.508402 0.200000
vt 0.510000 0.200000
vt 0.550000 0.200000
vt 0.550000 0.200000
vt 0.575000 0.200000
vt 0.575000 0.200000
vt 0.575000 0.175000
vt 0.575000 0.175000
vt 0.575000 0.150000
vt 0.575000 0.150000
vt 0.575000 0.137500
vt 0.575000 0.137500
vt 0.670930 0.125000
vt 0.584593 0.125000
vt 0.575000 0.200000
vt 0.575000 0.200000
vt 0.510000 0.200000
vt 0.508402 0.200000
vt 0.575000 0.175000
vt 0.575000 0.175000
vt 0.575000 0.150000
vt 0.575000 0.150000
vt 0.575000 0.137500
vt 0.575000 0.137500
vt 0.670930 0.125000
vt 0.584593 0.125000
vt 0.500000 0.200000
vt 0.500000 0.200000
vt 0.500000 0.200000
vt 0.500000 0.200000
vt 0.501584 0.200000
vt 0.501580 0.200000
vt 0.500000 0.200000
vt 0.500000 0.200000
vt 0.510000 0.200000
vt 0.510000 0.200000
vt 0.501584 0.200000
vt 0.509866 0.200000
vt 0.509866 0.200000
vt 0.510000 0.200000
vt 0.500000 0.200000
vt 0.501584 0.200000
vt 0.510000 0.200000
vt 0.500000 0.200000
vt 0.500000 0.200000
vt 0.500000 0.200000
vt 0.500000 0.200000
vt 0.500000 0.200000
vt 0.501584 0.200000
vt 0.501580 0.200000
vt 0.525000 0.200000
vt 0.510000 0.200000
vt 0.525000 0.200000
vt 0.550000 0.200000
vt 0.550000 0.200000
vt 0.575000 0.200000
vt 0.575000 0.200000
vt 0.575000 0.175000
vt 0.575000 0.175000
vt 0.575000 0.150000
vt 0.575000 0.150000
vt 0.575000 0.137500
vt 0.575000 0.137500
vt 0.510000 0.200000
vt 0.575000 0.137500
vt 0.575000 0.137500
vt 0.525000 0.200000
vt 0.550000 0.200000
vt 0.550000 0.200000
vt 0.525000 0.200000
vt 0.575000 0.200000
vt 0.575000 0.200000
vt 0.575000 0.175000
vt 0.575000 0.175000
vt 0.575000 0.150000
vt 0.575000 0.150000
vt 0.524987 0.200000
vt 0.550000 0.200000
vt 0.575000 0.200000
vt 0.575000 0.175000
vt 0.575000 0.149973
vt 0.575000 0.137639
vt 0.509866 0.200000
vt 0.575000 0.137639
vt 0.524986 0.200000
vt 0.550000 0.200000
vt 0.575000 0.200000
vt 0.575000 0.175000
vt 0.575000 0.149973
vt 0.501580 0.200000
vt 0.576607 0.125000
vt 0.576607 0.125000
vt 0.524987 0.200000
vt 0.509866 0.200000
vt 0.550000 0.200000
vt 0.575000 0.200000
vt 0.575000 0.175000
vt 0.575000 0.149973
vt 0.575000 0.137639
vt 0.501580 0.200000
vt 0.575000 0.137639
vt 0.524986 0.200000
vt 0.550000 0.200000
vt 0.575000 0.200000
vt 0.575000 0.175000
vt 0.575000 0.149973
vt 0.576607 0.125000
vt 0.576607 0.125000
vt 0.575000 0.200000
vt 0.550000 0.200000
vt 0.525000 0.200000
vt 0.510000 0.200000
vt 0.575000 0.137500
vt 0.575000 0.150000
vt 0.575000 0.137500
vt 0.575000 0.175000
vt 0.525000 0.200000
vt 0.500000 0.200000
vt 0.500000 0.200000
vt 0.550000 0.200000
vt 0.575000 0.200000
vt 0.575000 0.175000
vt 0.575000 0.150000
vt 0.575120 0.125000
vt 0.575120 0.125000
vt 0.575120 0.125000
vt 0.575120 0.125000
vt 0.525000 0.200000
vt 0.550000 0.200000
vt 0.575000 0.200000
vt 0.575000 0.175000
vt 0.575000 0.150000
vt 0.575000 0.137500
vt 0.575000 0.137500
vt 0.575120 0.125000
vt 0.575120 0.125000
vt 0.510000 0.200000
vt 0.575000 0.150000
vt 0.525000 0.200000
vt 0.550000 0.200000
vt 0.575000 0.200000
vt 0.575000 0.175000
vt 0.500000 0.200000
vt 0.500000 0.200000
vt 0.575120 0.125000
vt 0.575120 0.125000
vn 0.049725 -0.006774 0.998740
vn -0.057366 -0.377839 0.924092
vn -0.114676 -0.361966 0.925111
vn -0.015545 -0.060890 0.998023
vn -0.145063 -0.912210 0.383183
vn -0.156921 -0.980257 0.120298
vn -0.305272 -0.945554 0.112854
vn -0.279009 -0.879417 0.385720
vn -0.028305 0.055961 0.998032
vn -0.188674 0.327809 0.925712
vn -0.114676 0.361966 0.925111
vn -0.015545 0.060891 0.998023
vn -0.455057 0.801918 0.387106
vn -0.494143 0.862392 0.110012
vn -0.305271 0.945554 0.112857
vn -0.279006 0.879409 0.385740
vn 0.032384 0.025391 0.999153
vn 0.032384 -0.025392 0.999153
vn -0.006500 -0.043145 0.999048
vn -0.006500 0.043142 0.999048
vn 0.025033 0.028276 -0.999287
vn -0.013587 0.038779 -0.999155
vn -0.013587 -0.038779 -0.999155
vn 0.025033 -0.028276 -0.999287
vn -0.158017 -0.982154 -0.102002
vn -0.311050 -0.944501 -0.105664
vn -0.499923 -0.859360 -0.107594
vn -0.494143 -0.862393 0.110009
vn -0.704921 -0.701149 -0.107125
vn -0.700892 -0.704654 0.110516
vn -0.862020 -0.495508 -0.106740
vn -0.859741 -0.498543 0.110905
vn -0.955654 -0.274212 -0.107392
vn -0.954701 -0.275942 0.111366
vn -0.985671 -0.129804 -0.107718
vn -0.985136 -0.129837 0.112467
vn -0.499923 0.859360 -0.107601
vn -0.311050 0.944500 -0.105676
vn -0.704921 0.701149 -0.107128
vn -0.700892 0.704653 0.110519
vn -0.862020 0.495508 -0.106742
vn -0.859741 0.498544 0.110907
vn -0.955654 0.274212 -0.107393
vn -0.954701 0.275942 0.111367
vn -0.985671 0.129804 -0.107719
vn -0.985136 0.129837 0.112467
vn -0.000358 -0.994926 -0.100606
vn -0.000419 -0.993020 -0.117944
vn 0.000358 -0.994914 0.100728
vn 0.000419 -0.993034 0.117826
vn -0.000419 0.993020 -0.117948
vn -0.000358 0.994926 -0.100610
vn 0.000419 0.993034 0.117830
vn 0.000358 0.994914 0.100732
vn -0.158016 0.982153 -0.102013
vn -0.156921 0.980257 0.120301
vn 0.993652 -0.000000 -0.112498
vn 0.993635 -0.000000 -0.112647
vn 0.994410 -0.000000 0.105587
vn 0.994426 -0.000000 0.105440
vn 0.993635 0.000000 -0.112647
vn 0.993652 0.000000 -0.112498
vn 0.994426 0.000000 0.105440
vn 0.994410 0.000000 0.105587
vn -0.023781 -0.062071 -0.997788
vn -0.117188 -0.363125 -0.924341
vn -0.063931 -0.377831 -0.923665
vn 0.042343 -0.007582 -0.999074
vn -0.291369 -0.876351 -0.383552
vn -0.147789 -0.912212 -0.382136
vn -0.467687 -0.796211 -0.383818
vn -0.035903 -0.055239 -0.997827
vn -0.191241 -0.330128 -0.924361
vn -0.657128 -0.649135 -0.383154
vn -0.048989 -0.044982 -0.997786
vn -0.270575 -0.269952 -0.924075
vn -0.802112 -0.458478 -0.382641
vn -0.058954 -0.031725 -0.997756
vn -0.331609 -0.191096 -0.923860
vn -0.888728 -0.253024 -0.382285
vn -0.063043 -0.016737 -0.997870
vn -0.368626 -0.104218 -0.923717
vn -0.917326 -0.120674 -0.379408
vn -0.382663 -0.049980 -0.922535
vn -0.001360 0.923874 -0.382693
vn -0.001360 0.923875 -0.382693
vn -0.003284 0.382699 -0.923867
vn -0.003284 0.382699 -0.923867
vn -0.023781 0.062071 -0.997788
vn -0.117192 0.363138 -0.924336
vn -0.191245 0.330134 -0.924358
vn -0.035903 0.055239 -0.997827
vn -0.291366 0.876342 -0.383577
vn -0.467684 0.796205 -0.383834
vn -0.270575 0.269952 -0.924075
vn -0.048989 0.044982 -0.997786
vn -0.657125 0.649132 -0.383164
vn -0.331610 0.191096 -0.923860
vn -0.058954 0.031725 -0.997756
vn -0.802110 0.458476 -0.382647
vn -0.368626 0.104218 -0.923717
vn -0.063043 0.016737 -0.997870
vn -0.888727 0.253023 -0.382287
vn -0.382663 0.049980 -0.922535
vn -0.917326 0.120673 -0.379409
vn -0.003284 -0.382699 -0.923867
vn -0.003284 -0.382699 -0.923867
vn -0.001360 -0.923880 -0.382680
vn -0.001360 -0.923880 -0.382680
vn 0.379414 -0.000000 -0.925227
vn 0.379414 -0.000000 -0.925227
vn 0.042343 0.007582 -0.999074
vn 0.922512 0.000000 -0.385968
vn 0.922512 0.000000 -0.385968
vn -0.147784 0.912203 -0.382160
vn -0.063932 0.377844 -0.923659
vn 0.922512 -0.000000 -0.385968
vn 0.922512 -0.000000 -0.385968
vn 0.379413 0.000000 -0.925227
vn 0.379413 0.000000 -0.925227
vn -0.188674 -0.327809 0.925713
vn -0.028305 -0.055961 0.998032
vn -0.455060 -0.801923 0.387091
vn -0.266657 -0.267259 0.925995
vn -0.041815 -0.045821 0.998074
vn -0.647795 -0.655733 0.387783
vn -0.326365 -0.188769 0.926203
vn -0.052204 -0.032452 0.998109
vn -0.796073 -0.464195 0.388318
vn -0.362420 -0.102897 0.926318
vn -0.056733 -0.017198 0.998241
vn -0.885069 -0.256254 0.388569
vn -0.376115 -0.049985 0.925224
vn -0.914605 -0.120673 0.385921
vn 0.003284 0.382687 0.923872
vn 0.003284 0.382687 0.923872
vn 0.001360 0.923870 0.382703
vn 0.001360 0.923870 0.382703
vn -0.647792 0.655731 0.387791
vn -0.041815 0.045821 0.998074
vn -0.266658 0.267260 0.925994
vn -0.057367 0.377839 0.924092
vn 0.049725 0.006774 0.998740
vn -0.145063 0.912203 0.383201
vn -0.796071 0.464194 0.388324
vn -0.052204 0.032452 0.998109
vn -0.326365 0.188769 0.926203
vn -0.885067 0.256256 0.388572
vn -0.056734 0.017198 0.998241
vn -0.362424 0.102897 0.926316
vn -0.914603 0.120673 0.385926
vn -0.376124 0.049987 0.925220
vn 0.001360 -0.923874 0.382693
vn 0.001360 -0.923874 0.382693
vn 0.003284 -0.382687 0.923872
vn 0.003284 -0.382687 0.923872
vn 0.925244 -0.000000 0.379372
vn 0.925244 -0.000000 0.379372
vn 0.385958 -0.000000 0.922516
vn 0.385958 -0.000000 0.922516
vn 0.925244 0.000000 0.379372
vn 0.925244 0.000000 0.379372
vn 0.385952 0.000000 0.922519
vn 0.385952 0.000000 0.922519
vn -0.925563 -0.000050 -0.378595
vn -0.925563 -0.000050 -0.378595
vn -0.926624 -0.000019 -0.375990
vn -0.926625 -0.000019 -0.375986
vn -0.386761 0.000064 -0.922180
vn -0.054589 0.075468 -0.995653
vn -0.059251 0.000003 -0.998243
vn -0.389405 0.000021 -0.921067
vn 0.113792 -0.988910 -0.095432
vn 0.104561 -0.917788 -0.383057
vn 0.120108 -0.915845 -0.383148
vn 0.129871 -0.985976 -0.104813
vn 0.040593 -0.380174 -0.924024
vn -0.054589 -0.075468 -0.995653
vn 0.006264 -0.073597 -0.997268
vn 0.046670 -0.379372 -0.924067
vn 0.013116 0.072691 0.997268
vn 0.053829 0.379306 0.923704
vn 0.047158 0.380176 0.923711
vn -0.049338 0.069528 0.996359
vn 0.121386 0.916029 0.382303
vn 0.129834 0.985911 0.105459
vn 0.114328 0.987183 0.111351
vn 0.107281 0.917778 0.382328
vn -0.922848 0.000052 0.385164
vn -0.922848 0.000052 0.385164
vn -0.923918 0.000019 0.382591
vn -0.923920 0.000019 0.382586
vn -0.380177 -0.000061 0.924914
vn -0.049338 -0.069528 0.996359
vn -0.052147 -0.000003 0.998639
vn -0.382862 -0.000021 0.923805
vn 0.301256 0.947684 -0.105546
vn 0.129871 0.985975 -0.104814
vn 0.296393 0.948973 0.107708
vn 0.499310 0.859528 -0.109090
vn 0.494961 0.862615 0.104443
vn 0.704344 0.701276 -0.110050
vn 0.701775 0.704843 0.103474
vn 0.861463 0.495586 -0.110799
vn 0.860677 0.498677 0.102744
vn 0.949999 0.291842 -0.111040
vn 0.950535 0.293416 0.101933
vn 0.987476 0.112394 -0.110721
vn 0.988393 0.112803 0.101760
vn 0.129834 -0.985912 0.105457
vn 0.114328 -0.987183 0.111350
vn 0.987476 -0.112394 -0.110720
vn 0.988393 -0.112803 0.101759
vn 0.301256 -0.947684 -0.105544
vn 0.499310 -0.859528 -0.109088
vn 0.494961 -0.862616 0.104441
vn 0.296393 -0.948974 0.107705
vn 0.704345 -0.701276 -0.110050
vn 0.701776 -0.704843 0.103474
vn 0.861463 -0.495586 -0.110800
vn 0.860677 -0.498677 0.102743
vn 0.949999 -0.291842 -0.111039
vn 0.950535 -0.293416 0.101933
vn 0.113792 0.988910 -0.095435
vn 0.026484 0.074338 0.996881
vn 0.042857 0.069063 0.996691
vn 0.059512 0.056527 0.996626
vn 0.072371 0.040054 0.996573
vn 0.076010 0.022444 0.996854
vn 0.075174 0.008212 0.997137
vn 0.013116 -0.072691 0.997268
vn 0.075174 -0.008212 0.997137
vn 0.026484 -0.074338 0.996881
vn 0.042857 -0.069063 0.996691
vn 0.059512 -0.056527 0.996626
vn 0.072371 -0.040054 0.996573
vn 0.076010 -0.022444 0.996854
vn -0.052148 0.000003 0.998639
vn -0.050480 0.000002 0.998725
vn -0.050478 -0.000002 0.998725
vn 0.020798 0.075711 -0.996913
vn 0.006264 0.073597 -0.997268
vn 0.036384 0.068194 -0.997008
vn 0.052543 0.055528 -0.997074
vn 0.064901 0.039187 -0.997122
vn 0.068124 0.021946 -0.997436
vn 0.067373 0.008075 -0.997695
vn -0.059251 -0.000003 -0.998243
vn 0.067373 -0.008075 -0.997695
vn 0.020798 -0.075710 -0.996913
vn 0.036384 -0.068193 -0.997008
vn 0.052543 -0.055528 -0.997074
vn 0.064901 -0.039187 -0.997122
vn 0.068124 -0.021946 -0.997436
vn -0.057589 0.000002 -0.998340
vn -0.057589 -0.000002 -0.998340
vn 0.654375 0.649142 -0.387826
vn 0.464914 0.796224 -0.387146
vn 0.263974 0.269973 -0.925976
vn 0.184612 0.330162 -0.925695
vn 0.281182 0.878636 -0.385920
vn 0.108815 0.363405 -0.925255
vn 0.120108 0.915842 -0.383154
vn 0.046670 0.379370 -0.924067
vn 0.040594 0.380173 -0.924024
vn 0.104561 0.917785 -0.383063
vn 0.916103 0.104238 -0.387157
vn 0.881289 0.270236 -0.387688
vn 0.375723 0.043455 -0.925713
vn 0.360494 0.112681 -0.925931
vn 0.375723 -0.043455 -0.925713
vn 0.916103 -0.104238 -0.387155
vn 0.799371 0.458468 -0.388346
vn 0.325030 0.191087 -0.926197
vn 0.281183 -0.878639 -0.385915
vn 0.108815 -0.363406 -0.925254
vn -0.386761 -0.000064 -0.922180
vn -0.389405 -0.000021 -0.921067
vn -0.925563 0.000050 -0.378595
vn -0.925563 0.000050 -0.378595
vn -0.926625 0.000019 -0.375986
vn -0.926624 0.000019 -0.375990
vn 0.464915 -0.796226 -0.387141
vn 0.654376 -0.649141 -0.387825
vn 0.184613 -0.330163 -0.925695
vn 0.263978 -0.269976 -0.925975
vn 0.799371 -0.458468 -0.388347
vn 0.325033 -0.191088 -0.926196
vn 0.881290 -0.270237 -0.387686
vn 0.360494 -0.112681 -0.925930
vn -0.926849 -0.000014 -0.375435
vn -0.926848 -0.000014 -0.375436
vn -0.389915 0.000014 -0.920851
vn -0.926849 0.000014 -0.375435
vn -0.926848 0.000014 -0.375436
vn -0.389915 -0.000014 -0.920851
vn 0.273434 0.881875 0.384096
vn 0.119767 0.362181 0.924381
vn 0.457795 0.801915 0.383870
vn 0.195262 0.327799 0.924349
vn 0.650540 0.655717 0.383187
vn 0.273267 0.267246 0.924070
vn 0.798822 0.464169 0.382661
vn 0.332980 0.188734 0.923853
vn 0.883151 0.273102 0.381392
vn 0.367435 0.111497 0.923342
vn 0.918758 0.104972 0.380611
vn 0.382319 0.043150 0.923022
vn 0.918759 -0.104972 0.380609
vn 0.382319 -0.043150 0.923022
vn -0.924146 0.000014 0.382039
vn -0.924146 0.000014 0.382040
vn -0.383381 -0.000015 0.923590
vn 0.047157 -0.380176 0.923711
vn 0.053829 -0.379306 0.923704
vn 0.107281 -0.917781 0.382321
vn 0.121387 -0.916032 0.382297
vn 0.883152 -0.273102 0.381389
vn 0.367435 -0.111497 0.923342
vn 0.119767 -0.362181 0.924381
vn 0.273435 -0.881879 0.384087
vn 0.195263 -0.327800 0.924348
vn 0.457797 -0.801918 0.383862
vn 0.273270 -0.267249 0.924068
vn 0.650542 -0.655718 0.383184
vn 0.332982 -0.188736 0.923851
vn 0.798823 -0.464170 0.382660
vn -0.380177 0.000061 0.924914
vn -0.382862 0.000021 0.923805
vn -0.922848 -0.000052 0.385164
vn -0.922848 -0.000052 0.385164
vn -0.923920 -0.000019 0.382587
vn -0.923918 -0.000019 0.382591
vn -0.383381 0.000015 0.923590
vn -0.924146 -0.000014 0.382040
vn -0.924146 -0.000014 0.382039
vn -0.999994 -0.000000 0.003550
vn -0.999994 -0.000000 0.003550
vn -0.999994 -0.000000 0.003550
vn -0.999994 -0.000000 0.003550
vn -0.999994 -0.000000 0.003550
vn -0.999994 -0.000000 0.003550
vn -0.999994 -0.000000 0.003550
vn -0.999994 -0.000000 0.003550
vn -0.999994 -0.000000 0.003550
vn -0.999994 -0.000000 0.003550
vn -0.999994 -0.000000 0.003550
vn -0.999994 -0.000000 0.003550
s 1
g WindowFrame Window_L
usemtl initialShadingGroup
f 267/247/349 266/248/350 269/249/351 268/250/352
s 2
f 266/248/353 265/251/354 270/252/355 269/249/356
s 1
f 288/253/357 287/254/358 290/255/359 289/256/360
s 4
f 287/254/361 286/257/362 291/258/363 290/255/364
s 1
f 307/259/365 306/260/366 303/261/367 283/262/368
s 6
f 235/263/369 232/264/370 253/265/371 256/266/372
s 2
f 264/267/373 219/268/374 270/252/355 265/251/354
f 219/268/374 222/269/375 273/270/376 270/252/355
f 222/269/375 225/271/377 276/272/378 273/270/376
f 225/271/377 228/273/379 279/274/380 276/272/378
f 228/273/379 231/275/381 282/276/382 279/274/380
f 231/275/381 234/277/383 285/278/384 282/276/382
s 4
f 243/279/385 240/280/386 291/258/363 286/257/362
f 246/281/387 243/279/385 286/257/362 292/282/388
f 249/283/389 246/281/387 292/282/388 295/284/390
f 252/285/391 249/283/389 295/284/390 298/286/392
f 255/287/393 252/285/391 298/286/392 301/288/394
s 7
f 258/289/395 255/290/396 301/291/397 304/292/398
s 8
f 234/293/399 237/294/400 309/295/401 285/296/402
s 4
f 240/280/386 261/297/403 312/298/404 291/258/363
s 9
f 237/294/405 264/267/406 265/251/407 309/295/408
s 10
f 261/297/409 258/289/410 304/292/411 312/298/412
s 6
f 217/299/413 218/300/414 263/301/415 262/302/416
s 2
f 218/303/417 219/268/374 264/267/373 263/304/418
f 219/268/374 218/303/417 221/305/419 222/269/375
s 6
f 218/300/414 217/299/413 220/306/420 221/307/421
s 2
f 222/269/375 221/305/419 224/308/422 225/271/377
s 6
f 221/307/421 220/306/420 223/309/423 224/310/424
s 2
f 225/271/377 224/308/422 227/311/425 228/273/379
s 6
f 224/310/424 223/309/423 226/312/426 227/313/427
s 2
f 228/273/379 227/311/425 230/314/428 231/275/381
s 6
f 227/313/427 226/312/426 229/315/429 230/316/430
s 2
f 231/275/381 230/314/428 233/317/431 234/277/383
s 6
f 230/316/430 229/315/429 232/318/370 233/319/432
s 8
f 234/293/399 233/320/433 236/321/434 237/294/400
s 6
f 233/322/435 232/264/370 235/263/369 236/323/436
f 238/324/437 239/325/438 242/326/439 241/327/440
s 4
f 239/328/441 240/280/386 243/279/385 242/329/442
s 6
f 241/327/440 242/326/439 245/330/443 244/331/444
s 4
f 242/329/442 243/279/385 246/281/387 245/332/445
s 6
f 244/331/444 245/330/443 248/333/446 247/334/447
s 4
f 245/332/445 246/281/387 249/283/389 248/335/448
s 6
f 247/334/447 248/333/446 251/336/449 250/337/450
s 4
f 248/335/448 249/283/389 252/285/391 251/338/451
s 6
f 250/337/450 251/336/449 254/339/452 253/340/371
s 4
f 251/338/451 252/285/391 255/287/393 254/341/453
s 6
f 253/265/371 254/342/454 257/343/455 256/266/372
s 7
f 254/344/456 255/290/396 258/289/395 257/345/457
s 6
f 256/266/372 257/343/458 260/346/459 259/347/460
s 10
f 257/345/461 258/289/410 261/297/409 260/348/462
s 4
f 240/280/386 239/328/441 260/348/463 261/297/403
s 6
f 239/325/438 238/324/437 259/347/460 260/346/464
s 9
f 237/294/405 236/321/465 263/304/466 264/267/406
s 6
f 236/323/467 235/263/369 262/302/416 263/301/468
s 1
f 268/250/352 269/249/351 272/349/469 271/350/470
s 2
f 269/249/356 270/252/355 273/270/376 272/349/471
s 1
f 271/350/470 272/349/469 275/351/472 274/352/473
s 2
f 272/349/471 273/270/376 276/272/378 275/351/474
s 1
f 274/352/473 275/351/472 278/353/475 277/354/476
s 2
f 275/351/474 276/272/378 279/274/380 278/353/477
s 1
f 277/354/476 278/353/475 281/355/478 280/356/479
s 2
f 278/353/477 279/274/380 282/276/382 281/355/480
s 1
f 280/356/479 281/355/478 284/357/481 283/358/368
s 2
f 281/355/480 282/276/382 285/278/384 284/357/482
s 1
f 283/262/368 284/359/483 308/360/484 307/259/365
s 8
f 284/359/485 285/296/402 309/295/401 308/360/486
s 4
f 286/257/362 287/254/361 293/361/487 292/282/388
s 1
f 287/254/358 288/253/357 294/362/488 293/361/489
f 289/256/360 290/255/359 311/363/490 310/364/491
s 4
f 290/255/364 291/258/363 312/298/404 311/363/492
f 292/282/388 293/361/487 296/365/493 295/284/390
s 1
f 293/361/489 294/362/488 297/366/494 296/365/495
s 4
f 295/284/390 296/365/493 299/367/496 298/286/392
s 1
f 296/365/495 297/366/494 300/368/497 299/367/498
s 4
f 298/286/392 299/367/496 302/369/499 301/288/394
s 1
f 299/367/498 300/368/497 303/370/367 302/369/500
s 7
f 301/291/397 302/371/501 305/372/502 304/292/398
s 1
f 302/371/503 303/261/367 306/260/366 305/372/504
s 9
f 265/251/407 266/248/505 308/360/506 309/295/408
s 1
f 266/248/507 267/247/349 307/259/365 308/360/508
s 10
f 304/292/411 305/372/509 311/363/510 312/298/412
s 1
f 305/372/511 306/260/366 310/364/491 311/363/512
s 17
f 324/373/513 323/374/514 365/375/515 364/376/516
s 6
f 323/374/517 322/377/518 366/378/519 365/375/520
s 19
f 342/379/521 341/380/522 344/381/523 343/382/524
s 6
f 341/380/525 340/383/526 345/384/527 344/381/528
s 1
f 375/385/529 374/386/530 422/387/531 421/388/532
s 19
f 374/386/533 373/389/534 423/390/535 422/387/536
s 23
f 396/391/537 395/392/538 398/393/539 397/394/540
s 1
f 395/392/541 394/395/542 399/396/543 398/393/544
s 19
f 319/397/545 325/398/546 373/389/534 376/399/547
f 316/400/548 319/397/545 376/399/547 379/401/549
f 313/402/550 316/400/548 379/401/549 382/403/551
f 337/404/552 313/402/550 382/403/551 385/405/553
f 334/406/554 337/404/552 385/405/553 388/407/555
f 328/408/556 334/406/554 388/407/555 391/409/557
f 342/379/521 343/382/524 400/410/558 396/391/559
f 331/411/560 328/408/556 391/409/557 403/412/561
f 352/413/562 349/414/563 409/415/564 406/416/565
f 349/414/563 355/417/566 412/418/567 409/415/564
f 355/417/566 358/419/568 415/420/569 412/418/567
f 358/419/568 361/421/570 418/422/571 415/420/569
f 361/421/570 331/411/560 403/412/561 418/422/571
f 343/382/524 352/413/562 406/416/565 400/410/558
f 325/398/546 324/373/572 423/390/535 373/389/534
s 1
f 378/423/573 375/385/529 267/247/349 268/250/352
f 381/424/574 378/423/573 268/250/352 271/350/470
f 384/425/575 381/424/574 271/350/470 274/352/473
f 387/426/576 384/425/575 274/352/473 277/354/476
f 390/427/577 387/426/576 277/354/476 280/356/479
f 393/428/578 390/427/577 280/356/479 283/358/368
f 399/396/543 394/395/542 402/429/579 310/364/491
f 283/358/368 303/370/367 405/430/580 393/428/578
f 408/431/581 411/432/582 288/253/357 289/256/360
f 411/432/582 414/433/583 294/362/488 288/253/357
f 414/433/583 417/434/584 297/366/494 294/362/488
f 417/434/584 420/435/585 300/368/497 297/366/494
f 420/435/585 405/430/580 303/370/367 300/368/497
f 310/364/491 402/429/579 408/431/581 289/256/360
f 267/247/349 375/385/529 421/388/532 426/436/586
f 267/247/349 426/436/586 429/437/587 307/259/365
f 429/437/587 432/438/588 306/260/366 307/259/365
f 432/438/588 399/396/543 310/364/491 306/260/366
s 6
f 321/439/589 217/299/413 262/302/416 327/440/590
f 318/441/591 220/306/420 217/299/413 321/439/589
f 315/442/592 223/309/423 220/306/420 318/441/591
f 339/443/593 226/312/426 223/309/423 315/442/592
f 336/444/594 229/315/429 226/312/426 339/443/593
f 330/445/595 232/318/370 229/315/429 336/444/594
f 348/446/596 259/347/460 345/384/527 340/383/526
f 232/318/370 330/445/595 333/447/597 253/340/371
f 354/448/598 238/324/437 241/327/440 351/449/599
f 351/449/599 241/327/440 244/331/444 357/450/600
f 357/450/600 244/331/444 247/334/447 360/451/601
f 360/451/601 247/334/447 250/337/450 363/452/602
f 363/452/602 250/337/450 253/340/371 333/447/597
f 259/347/460 238/324/437 354/448/598 345/384/527
f 262/302/416 366/378/519 322/377/518 327/440/590
f 262/302/416 235/263/369 369/453/603 366/378/519
f 369/453/603 235/263/369 256/266/372 372/454/604
f 372/454/604 256/266/372 259/347/460 348/446/596
s 19
f 313/402/550 314/455/605 317/456/606 316/400/548
s 6
f 314/455/607 315/442/592 318/441/591 317/456/608
s 19
f 316/400/548 317/456/606 320/457/609 319/397/545
s 6
f 317/456/608 318/441/591 321/439/589 320/457/610
s 19
f 319/397/545 320/457/609 326/458/611 325/398/546
s 6
f 320/457/610 321/439/589 327/440/590 326/458/612
f 322/377/518 323/374/613 326/458/612 327/440/590
s 19
f 323/374/614 324/373/572 325/398/546 326/458/611
f 328/408/556 329/459/615 335/460/616 334/406/554
s 6
f 329/459/617 330/445/595 336/444/594 335/460/618
f 330/445/595 329/459/617 332/461/619 333/447/597
s 19
f 329/459/615 328/408/556 331/411/560 332/461/620
f 334/406/554 335/460/616 338/462/621 337/404/552
s 6
f 335/460/618 336/444/594 339/443/593 338/462/622
f 315/442/592 314/455/607 338/462/622 339/443/593
s 19
f 314/455/605 313/402/550 337/404/552 338/462/621
f 343/382/524 344/381/523 353/463/623 352/413/562
s 6
f 344/381/528 345/384/527 354/448/598 353/463/624
f 340/383/526 341/380/625 347/464/626 348/446/596
s 17
f 341/380/627 342/379/628 346/465/629 347/464/630
s 19
f 349/414/563 350/466/631 356/467/632 355/417/566
s 6
f 350/466/633 351/449/599 357/450/600 356/467/634
f 351/449/599 350/466/633 353/463/624 354/448/598
s 19
f 350/466/631 349/414/563 352/413/562 353/463/623
f 355/417/566 356/467/632 359/468/635 358/419/568
s 6
f 356/467/634 357/450/600 360/451/601 359/468/636
s 19
f 358/419/568 359/468/635 362/469/637 361/421/570
s 6
f 359/468/636 360/451/601 363/452/602 362/469/638
f 333/447/597 332/461/619 362/469/638 363/452/602
s 19
f 332/461/620 331/411/560 361/421/570 362/469/637
s 17
f 364/376/516 365/375/515 368/470/639 367/471/640
s 6
f 365/375/520 366/378/519 369/453/603 368/470/641
s 17
f 367/471/640 368/470/639 371/472/642 370/473/643
s 6
f 368/470/641 369/453/603 372/454/604 371/472/644
f 348/446/596 347/464/626 371/472/644 372/454/604
s 17
f 347/464/630 346/465/629 370/473/643 371/472/642
s 19
f 373/389/534 374/386/533 377/474/645 376/399/547
s 1
f 374/386/530 375/385/529 378/423/573 377/474/646
s 19
f 376/399/547 377/474/645 380/475/647 379/401/549
s 1
f 377/474/646 378/423/573 381/424/574 380/475/648
s 19
f 379/401/549 380/475/647 383/476/649 382/403/551
s 1
f 380/475/648 381/424/574 384/425/575 383/476/650
s 19
f 382/403/551 383/476/649 386/477/651 385/405/553
s 1
f 383/476/650 384/425/575 387/426/576 386/477/652
s 19
f 385/405/553 386/477/651 389/478/653 388/407/555
s 1
f 386/477/652 387/426/576 390/427/577 389/478/654
s 19
f 388/407/555 389/478/653 392/479/655 391/409/557
s 1
f 389/478/654 390/427/577 393/428/578 392/479/656
s 19
f 391/409/557 392/479/655 404/480/657 403/412/561
s 1
f 392/479/656 393/428/578 405/430/580 404/480/658
s 23
f 397/394/540 398/393/539 431/481/659 430/482/660
s 1
f 398/393/544 399/396/543 432/438/588 431/481/661
f 394/395/542 395/392/662 401/483/663 402/429/579
s 19
f 395/392/664 396/391/559 400/410/558 401/483/665
f 403/412/561 404/480/657 419/484/666 418/422/571
s 1
f 404/480/658 405/430/580 420/435/585 419/484/667
f 402/429/579 401/483/663 407/485/668 408/431/581
s 19
f 401/483/665 400/410/558 406/416/565 407/485/669
s 1
f 408/431/581 407/485/668 410/486/670 411/432/582
s 19
f 407/485/669 406/416/565 409/415/564 410/486/671
s 1
f 411/432/582 410/486/670 413/487/672 414/433/583
s 19
f 410/486/671 409/415/564 412/418/567 413/487/673
s 1
f 414/433/583 413/487/672 416/488/674 417/434/584
s 19
f 413/487/673 412/418/567 415/420/569 416/488/675
s 1
f 417/434/584 416/488/674 419/484/667 420/435/585
s 19
f 416/488/675 415/420/569 418/422/571 419/484/666
s 1
f 421/388/532 422/387/676 425/489/677 426/436/586
s 23
f 422/387/678 423/390/679 424/490/680 425/489/681
s 1
f 426/436/586 425/489/677 428/491/682 429/437/587
s 23
f 425/489/681 424/490/680 427/492/683 428/491/684
s 1
f 429/437/587 428/491/682 431/481/661 432/438/588
s 23
f 428/491/684 427/492/683 430/482/660 431/481/659
s off
f 324/373/685 364/376/686 367/471/687 370/473/688 346/465/689 342/379/690 396/391/691 397/394/692 430/482/693 427/492/694 424/490/695 423/390/696
g default
v 0.519699 12.134012 -11.575628
v -0.004132 12.049921 -11.581784
v -0.996033 11.639035 -11.593444
v -1.847795 10.985412 -11.603454
v -2.501371 10.133593 -11.611135
v -2.912231 9.141622 -11.615964
v -3.017334 8.343782 -11.617199
v 0.519699 8.343782 -11.575629
v 0.519699 12.134012 -11.575628
v -0.004132 12.049921 -11.581784
v 0.519699 8.343782 -11.575629
v -3.017334 8.343782 -11.617199
v -2.912231 9.141622 -11.615964
v -2.501371 10.133593 -11.611135
v -1.847795 10.985412 -11.603454
v -0.996033 11.639035 -11.593444
v 0.519021 12.134012 -11.518019
v -0.004809 12.049921 -11.524175
v 0.519022 8.343782 -11.518019
v -3.018011 8.343782 -11.559590
v -2.912908 9.141622 -11.558355
v -2.502048 10.133593 -11.553526
v -1.848472 10.985412 -11.545845
v -0.996710 11.639035 -11.535833
v 0.519699 4.020216 -11.575628
v -0.004132 4.104306 -11.581784
v -0.996033 4.515192 -11.593444
v -1.847795 5.168816 -11.603454
v -2.501371 6.020634 -11.611135
v -2.912231 7.012604 -11.615964
v -3.017334 7.810445 -11.617199
v 0.519699 7.810445 -11.575629
v 0.519699 4.020216 -11.575628
v -0.004132 4.104306 -11.581784
v 0.519699 7.810445 -11.575629
v -3.017334 7.810445 -11.617199
v -2.912231 7.012604 -11.615964
v -2.501371 6.020634 -11.611135
v -1.847795 5.168816 -11.603454
v -0.996033 4.515192 -11.593444
v 0.519021 4.020216 -11.518019
v -0.004809 4.104306 -11.524175
v 0.519022 7.810445 -11.518019
v -3.018011 7.810445 -11.559590
v -2.912908 7.012604 -11.558355
v -2.502048 6.020634 -11.553526
v -1.848472 5.168816 -11.545845
v -0.996710 4.515192 -11.535833
vt 0.525000 0.200000
vt 0.510000 0.200000
vt 0.584593 0.125000
vt 0.575000 0.137500
vt 0.575000 0.150000
vt 0.575000 0.175000
vt 0.575000 0.200000
vt 0.550000 0.200000
vt 0.525000 0.200000
vt 0.550000 0.200000
vt 0.575000 0.200000
vt 0.575000 0.175000
vt 0.575000 0.150000
vt 0.575000 0.137500
vt 0.584593 0.125000
vt 0.510000 0.200000
vt 0.525000 0.200000
vt 0.510000 0.200000
vt 0.510000 0.200000
vt 0.525000 0.200000
vt 0.584593 0.125000
vt 0.584593 0.125000
vt 0.575000 0.137500
vt 0.575000 0.137500
vt 0.575000 0.150000
vt 0.575000 0.150000
vt 0.575000 0.175000
vt 0.575000 0.175000
vt 0.575000 0.200000
vt 0.575000 0.200000
vt 0.550000 0.200000
vt 0.550000 0.200000
vt 0.525000 0.200000
vt 0.550000 0.200000
vt 0.575000 0.200000
vt 0.575000 0.175000
vt 0.575000 0.150000
vt 0.575000 0.137500
vt 0.584593 0.125000
vt 0.510000 0.200000
vt 0.525000 0.200000
vt 0.510000 0.200000
vt 0.584593 0.125000
vt 0.575000 0.137500
vt 0.575000 0.150000
vt 0.575000 0.175000
vt 0.575000 0.200000
vt 0.550000 0.200000
vt 0.525000 0.200000
vt 0.525000 0.200000
vt 0.510000 0.200000
vt 0.510000 0.200000
vt 0.584593 0.125000
vt 0.584593 0.125000
vt 0.575000 0.137500
vt 0.575000 0.137500
vt 0.575000 0.150000
vt 0.575000 0.150000
vt 0.575000 0.175000
vt 0.575000 0.175000
vt 0.575000 0.200000
vt 0.575000 0.200000
vt 0.550000 0.200000
vt 0.550000 0.200000
vn -0.011752 0.000000 0.999931
vn -0.011752 0.000000 0.999931
vn -0.011752 0.000000 0.999931
vn -0.011752 0.000000 0.999931
vn -0.011752 0.000000 0.999931
vn -0.011752 0.000000 0.999931
vn -0.011752 0.000000 0.999931
vn -0.011752 0.000000 0.999931
vn 0.011752 -0.000000 -0.999931
vn 0.011752 -0.000000 -0.999931
vn 0.011752 -0.000000 -0.999931
vn 0.011752 -0.000000 -0.999931
vn 0.011752 -0.000000 -0.999931
vn 0.011752 -0.000000 -0.999931
vn 0.011752 -0.000000 -0.999931
vn 0.011752 -0.000000 -0.999931
vn 0.000000 0.000000 0.000000
vn 0.000000 0.000000 0.000000
vn 0.000000 0.000000 0.000000
vn 0.000000 0.000000 0.000000
vn 0.000000 0.000000 0.000000
vn 0.000000 0.000000 0.000000
vn 0.000000 0.000000 0.000000
vn 0.000000 0.000000 0.000000
vn 0.000000 0.000000 0.000000
vn 0.000000 0.000000 0.000000
vn 0.000000 0.000000 0.000000
vn 0.000000 0.000000 0.000000
vn 0.000000 0.000000 0.000000
vn 0.000000 0.000000 0.000000
vn 0.000000 0.000000 0.000000
vn 0.000000 0.000000 0.000000
vn 0.000000 0.000000 0.000000
vn 0.000000 0.000000 0.000000
vn 0.000000 0.000000 0.000000
vn 0.000000 0.000000 0.000000
vn 0.000000 0.000000 0.000000
vn 0.000000 0.000000 0.000000
vn 0.000000 0.000000 0.000000
vn 0.000000 0.000000 0.000000
vn 0.000000 -0.000000 0.000000
vn 0.000000 -0.000000 0.000000
vn 0.000000 -1.000000 0.000000
vn 0.000000 -1.000000 0.000000
vn 0.000000 -1.000000 0.000000
vn 0.000000 -1.000000 0.000000
vn 0.000000 -0.000000 0.000000
vn 0.000000 -0.000000 0.000000
vn -0.326160 0.945307 -0.003833
vn -0.292763 0.956179 -0.003441
vn -0.158480 0.987360 -0.001864
vn -0.158480 0.987360 -0.001864
vn 0.999931 0.000000 0.011752
vn 0.999931 0.000000 0.011752
vn 0.999931 0.000000 0.011752
vn 0.999931 0.000000 0.011752
vn 0.000000 -1.000000 0.000000
vn 0.000000 -1.000000 0.000000
vn 0.000000 -1.000000 0.000000
vn 0.000000 -1.000000 0.000000
vn -0.991365 0.130615 -0.011649
vn -0.991365 0.130615 -0.011649
vn -0.959177 0.282582 -0.011270
vn -0.962485 0.271101 -0.011309
vn -0.860161 0.509922 -0.010109
vn -0.871887 0.489600 -0.010246
vn -0.695495 0.718485 -0.008175
vn -0.718801 0.695164 -0.008449
vn -0.482682 0.875777 -0.005673
vn -0.517432 0.855703 -0.006082
vn -0.011752 -0.000000 0.999931
vn -0.011752 -0.000000 0.999931
vn -0.011752 -0.000000 0.999931
vn -0.011752 -0.000000 0.999931
vn -0.011752 -0.000000 0.999931
vn -0.011752 -0.000000 0.999931
vn -0.011752 -0.000000 0.999931
vn -0.011752 -0.000000 0.999931
vn 0.011752 0.000000 -0.999931
vn 0.011752 0.000000 -0.999931
vn 0.011752 0.000000 -0.999931
vn 0.011752 0.000000 -0.999931
vn 0.011752 0.000000 -0.999931
vn 0.011752 0.000000 -0.999931
vn 0.011752 0.000000 -0.999931
vn 0.011752 0.000000 -0.999931
vn 0.000000 0.000000 0.000000
vn 0.000000 0.000000 0.000000
vn 0.000000 0.000000 0.000000
vn 0.000000 0.000000 0.000000
vn 0.000000 0.000000 0.000000
vn 0.000000 0.000000 0.000000
vn 0.000000 0.000000 0.000000
vn 0.000000 0.000000 0.000000
vn 0.000000 0.000000 0.000000
vn 0.000000 0.000000 0.000000
vn 0.000000 0.000000 0.000000
vn 0.000000 0.000000 0.000000
vn 0.000000 0.000000 0.000000
vn 0.000000 0.000000 0.000000
vn 0.000000 0.000000 0.000000
vn 0.000000 0.000000 0.000000
vn 0.000000 0.000000 0.000000
vn 0.000000 0.000000 0.000000
vn 0.000000 0.000000 0.000000
vn 0.000000 0.000000 0.000000
vn 0.000000 0.000000 0.000000
vn 0.000000 0.000000 0.000000
vn 0.000000 0.000000 0.000000
vn 0.000000 0.000000 0.000000
vn 0.000000 0.000000 0.000000
vn 0.000000 1.000000 0.000000
vn 0.000000 1.000000 0.000000
vn 0.000000 0.000000 0.000000
vn 0.000000 0.017947 0.999839
vn 0.000000 0.000000 0.000000
vn 0.000000 0.000000 0.000000
vn 0.000000 0.017947 0.999839
vn -0.326160 -0.945307 -0.003835
vn -0.158478 -0.987361 -0.001863
vn -0.158478 -0.987361 -0.001863
vn -0.292763 -0.956179 -0.003442
vn 0.999931 -0.000000 0.011752
vn 0.999931 -0.000000 0.011752
vn 0.999931 -0.000000 0.011752
vn 0.999931 -0.000000 0.011752
vn 0.000000 1.000000 0.000000
vn 0.000000 1.000000 0.000000
vn 0.000000 1.000000 0.000000
vn 0.000000 1.000000 0.000000
vn -0.991365 -0.130615 -0.011649
vn -0.962485 -0.271101 -0.011309
vn -0.959177 -0.282582 -0.011270
vn -0.991365 -0.130615 -0.011649
vn -0.871887 -0.489600 -0.010246
vn -0.860161 -0.509922 -0.010108
vn -0.718801 -0.695164 -0.008449
vn -0.695495 -0.718484 -0.008175
vn -0.517432 -0.855703 -0.006082
vn -0.482683 -0.875777 -0.005674
s off
g WindowFrame Glass_R
usemtl initialShadingGroup
f 450/493/697 456/500/698 455/499/699 454/498/700 453/497/701 452/496/702 451/495/703 449/494/704
f 434/501/705 433/508/706 440/507/707 439/506/708 438/505/709 437/504/710 436/503/711 435/502/712
f 434/509/713 442/512/714 441/511/715 433/510/716
f 433/510/717 441/511/718 443/514/719 440/513/720
f 440/513/721 443/514/722 444/516/723 439/515/724
f 439/515/725 444/516/726 445/518/727 438/517/728
f 438/517/729 445/518/730 446/520/731 437/519/732
f 437/519/733 446/520/734 447/522/735 436/521/736
f 436/521/737 447/522/738 448/524/739 435/523/740
f 435/523/741 448/524/742 442/512/743 434/509/744
s 1
f 442/512/745 450/493/746 449/494/747 441/511/748
s off
f 441/511/749 449/494/750 451/495/751 443/514/752
f 443/514/753 451/495/754 452/496/755 444/516/756
s 1
f 444/516/757 452/496/758 453/497/759 445/518/760
f 445/518/760 453/497/759 454/498/761 446/520/762
f 446/520/762 454/498/761 455/499/763 447/522/764
f 447/522/764 455/499/763 456/500/765 448/524/766
f 448/524/766 456/500/765 450/493/746 442/512/745
s off
f 474/525/767 473/532/768 475/531/769 476/530/770 477/529/771 478/528/772 479/527/773 480/526/774
f 458/533/775 459/540/776 460/539/777 461/538/778 462/537/779 463/536/780 464/535/781 457/534/782
f 458/541/783 457/544/784 465/543/785 466/542/786
f 457/544/787 464/546/788 467/545/789 465/543/790
f 464/546/791 463/548/792 468/547/793 467/545/794
f 463/548/795 462/550/796 469/549/797 468/547/798
f 462/550/799 461/552/800 470/551/801 469/549/802
f 461/552/803 460/554/804 471/553/805 470/551/806
f 460/554/807 459/556/808 472/555/809 471/553/810
f 459/556/811 458/541/812 466/542/813 472/555/814
s 3
f 466/542/815 465/543/816 473/532/817 474/525/818
s off
f 465/543/819 467/545/820 475/531/821 473/532/822
f 467/545/823 468/547/824 476/530/825 475/531/826
s 3
f 468/547/827 469/549/828 477/529/829 476/530/830
f 469/549/828 470/551/831 478/528/832 477/529/829
f 470/551/831 471/553/833 479/527/834 478/528/832
f 471/553/833 472/555/835 480/526/836 479/527/834
f 472/555/835 466/542/815 474/525/818 480/526/836
g default
v 1.605661 4.020215 -11.573085
v 2.129525 4.104304 -11.574947
v 3.121489 4.515190 -11.578473
v 3.973305 5.168815 -11.581499
v 4.626924 6.020633 -11.583823
v 5.037808 7.012603 -11.585282
v 5.142920 7.810444 -11.585657
v 1.605662 7.810444 -11.573085
v 1.605661 4.020215 -11.573085
v 2.129524 4.104304 -11.574947
v 1.605661 7.810444 -11.573085
v 5.142919 7.810444 -11.585657
v 5.037809 7.012603 -11.585282
v 4.626924 6.020633 -11.583823
v 3.973305 5.168815 -11.581501
v 3.121489 4.515190 -11.578471
v 1.605865 4.020215 -11.515471
v 2.129729 4.104304 -11.517333
v 1.605865 7.810444 -11.515471
v 5.143124 7.810444 -11.528044
v 5.038014 7.012603 -11.527669
v 4.627129 6.020633 -11.526210
v 3.973509 5.168815 -11.523888
v 3.121694 4.515190 -11.520860
v 1.605662 12.134010 -11.573085
v 2.129526 12.049920 -11.574947
v 3.121490 11.639034 -11.578473
v 3.973305 10.985412 -11.581499
v 4.626925 10.133592 -11.583823
v 5.037809 9.141622 -11.585282
v 5.142921 8.343781 -11.585657
v 1.605663 8.343781 -11.573085
v 1.605661 12.134010 -11.573085
v 2.129524 12.049920 -11.574947
v 1.605661 8.343781 -11.573085
v 5.142919 8.343781 -11.585657
v 5.037809 9.141622 -11.585282
v 4.626924 10.133592 -11.583823
v 3.973305 10.985412 -11.581501
v 3.121489 11.639034 -11.578471
v 1.605865 12.134010 -11.515471
v 2.129729 12.049920 -11.517333
v 1.605865 8.343781 -11.515471
v 5.143124 8.343781 -11.528044
v 5.038014 9.141622 -11.527669
v 4.627129 10.133592 -11.526210
v 3.973509 10.985412 -11.523888
v 3.121694 11.639034 -11.520860
vt 0.525000 0.200000
vt 0.550000 0.200000
vt 0.575000 0.200000
vt 0.575000 0.175000
vt 0.575000 0.150000
vt 0.575000 0.137500
vt 0.584593 0.125000
vt 0.510000 0.200000
vt 0.525000 0.200000
vt 0.510000 0.200000
vt 0.584593 0.125000
vt 0.575000 0.137500
vt 0.575000 0.150000
vt 0.575000 0.175000
vt 0.575000 0.200000
vt 0.550000 0.200000
vt 0.525000 0.200000
vt 0.525000 0.200000
vt 0.510000 0.200000
vt 0.510000 0.200000
vt 0.584593 0.125000
vt 0.584593 0.125000
vt 0.575000 0.137500
vt 0.575000 0.137500
vt 0.575000 0.150000
vt 0.575000 0.150000
vt 0.575000 0.175000
vt 0.575000 0.175000
vt 0.575000 0.200000
vt 0.575000 0.200000
vt 0.550000 0.200000
vt 0.550000 0.200000
vt 0.525000 0.200000
vt 0.510000 0.200000
vt 0.584593 0.125000
vt 0.575000 0.137500
vt 0.575000 0.150000
vt 0.575000 0.175000
vt 0.575000 0.200000
vt 0.550000 0.200000
vt 0.525000 0.200000
vt 0.550000 0.200000
vt 0.575000 0.200000
vt 0.575000 0.175000
vt 0.575000 0.150000
vt 0.575000 0.137500
vt 0.584593 0.125000
vt 0.510000 0.200000
vt 0.525000 0.200000
vt 0.510000 0.200000
vt 0.510000 0.200000
vt 0.525000 0.200000
vt 0.584593 0.125000
vt 0.584593 0.125000
vt 0.575000 0.137500
vt 0.575000 0.137500
vt 0.575000 0.150000
vt 0.575000 0.150000
vt 0.575000 0.175000
vt 0.575000 0.175000
vt 0.575000 0.200000
vt 0.575000 0.200000
vt 0.550000 0.200000
vt 0.550000 0.200000
vn 0.003554 -0.000000 0.999994
vn 0.003554 -0.000000 0.999994
vn 0.003554 -0.000000 0.999994
vn 0.003554 -0.000000 0.999994
vn 0.003554 -0.000000 0.999994
vn 0.003554 -0.000000 0.999994
vn 0.003554 -0.000000 0.999994
vn 0.003554 -0.000000 0.999994
vn -0.003554 0.000000 -0.999994
vn -0.003554 0.000000 -0.999994
vn -0.003554 0.000000 -0.999994
vn -0.003554 0.000000 -0.999994
vn -0.003554 0.000000 -0.999994
vn -0.003554 0.000000 -0.999994
vn -0.003554 0.000000 -0.999994
vn -0.003554 0.000000 -0.999994
vn 0.000000 0.005859 -0.999983
vn 0.000000 0.005859 -0.999983
vn 0.000000 0.005859 -0.999983
vn 0.000000 0.005859 -0.999983
vn 0.000000 0.000000 -1.000000
vn 0.000000 0.000000 -1.000000
vn 0.000000 0.000000 -1.000000
vn 0.000000 0.000000 -1.000000
vn 0.000000 -1.000000 0.000000
vn 0.000000 -1.000000 0.000000
vn 0.000000 -1.000000 0.000000
vn 0.000000 -1.000000 0.000000
vn 0.000000 0.000651 1.000000
vn 0.000000 0.000651 1.000000
vn 0.000000 0.000651 1.000000
vn 0.000000 0.000651 1.000000
vn 0.000000 -0.000977 -1.000000
vn 0.000000 -0.000977 -1.000000
vn 0.000000 -0.000000 -0.000000
vn 0.000000 -0.000000 -0.000000
vn -0.000000 0.000000 0.000000
vn -0.000000 0.000000 0.000000
vn -0.950569 0.310513 0.000000
vn -0.950569 0.310513 0.000000
vn 0.000000 -0.001953 -0.999998
vn 0.000000 -0.001953 -0.999998
vn 0.000000 -0.001953 -0.999998
vn 0.000000 -0.001953 -0.999998
vn 0.000000 -1.000000 0.000000
vn 0.000000 -1.000000 0.000000
vn 0.000000 -1.000000 0.000000
vn 0.000000 -1.000000 0.000000
vn 0.310406 -0.950603 -0.001106
vn 0.310407 -0.950603 -0.001106
vn 0.158489 -0.987361 -0.000562
vn 0.158489 -0.987361 -0.000562
vn -0.999994 0.000000 0.003545
vn -0.999994 0.000000 0.003545
vn -0.999994 0.000000 0.003545
vn -0.999994 0.000000 0.003545
vn 0.000000 1.000000 0.000000
vn 0.000000 1.000000 0.000000
vn 0.000000 1.000000 0.000000
vn 0.000000 1.000000 0.000000
vn 0.991427 -0.130615 -0.003533
vn 0.991427 -0.130615 -0.003533
vn 0.960859 -0.277016 -0.003421
vn 0.960859 -0.277016 -0.003421
vn 0.866020 -0.500000 -0.003079
vn 0.866020 -0.500000 -0.003079
vn 0.707106 -0.707103 -0.002509
vn 0.707106 -0.707103 -0.002509
vn 0.500001 -0.866023 -0.001777
vn 0.500002 -0.866022 -0.001777
vn 0.003555 0.000000 0.999994
vn 0.003555 0.000000 0.999994
vn 0.003555 0.000000 0.999994
vn 0.003555 0.000000 0.999994
vn 0.003555 0.000000 0.999994
vn 0.003555 0.000000 0.999994
vn 0.003555 0.000000 0.999994
vn 0.003555 0.000000 0.999994
vn -0.003554 -0.000000 -0.999994
vn -0.003554 -0.000000 -0.999994
vn -0.003554 -0.000000 -0.999994
vn -0.003554 -0.000000 -0.999994
vn -0.003554 -0.000000 -0.999994
vn -0.003554 -0.000000 -0.999994
vn -0.003554 -0.000000 -0.999994
vn -0.003554 -0.000000 -0.999994
vn 0.000000 -0.034214 -0.999415
vn 0.000000 -0.034214 -0.999415
vn 0.000000 -0.034214 -0.999415
vn 0.000000 -0.034214 -0.999415
vn 0.000000 0.000000 -1.000000
vn 0.000000 0.000000 -1.000000
vn 0.000000 0.000000 -1.000000
vn 0.000000 0.000000 -1.000000
vn 0.000000 0.045403 -0.998969
vn 0.000000 0.000000 -0.000000
vn 0.000000 0.045403 -0.998969
vn 0.000000 0.000000 -0.000000
vn 0.000000 -0.000512 1.000000
vn 0.000000 -0.000000 0.000000
vn 0.000000 -0.000000 0.000000
vn 0.000000 -0.000512 1.000000
vn 0.000000 -0.000000 0.000000
vn 0.000000 -0.001302 0.999999
vn 0.000000 -0.001302 0.999999
vn 0.000000 -0.000000 0.000000
vn -0.878637 -0.288303 0.380629
vn -0.878637 -0.288303 0.380629
vn -0.878637 -0.288303 0.380629
vn -0.878637 -0.288303 0.380629
vn 0.000000 -0.154020 0.988068
vn 0.000000 -0.154020 0.988068
vn 0.000000 -0.154020 0.988068
vn 0.000000 -0.154020 0.988068
vn 0.000000 0.671179 0.741295
vn 0.000000 0.671179 0.741295
vn 0.000000 0.671179 0.741295
vn 0.000000 0.671179 0.741295
vn 0.310407 0.950603 -0.001106
vn 0.158491 0.987360 -0.000570
vn 0.158491 0.987360 -0.000570
vn 0.310408 0.950603 -0.001106
vn -0.999994 -0.000000 0.003545
vn -0.999994 -0.000000 0.003545
vn -0.999994 -0.000000 0.003545
vn -0.999994 -0.000000 0.003545
vn 0.000000 -1.000000 -0.000001
vn 0.000000 -1.000000 -0.000001
vn 0.000000 -1.000000 -0.000001
vn 0.000000 -1.000000 -0.000001
vn 0.991427 0.130615 -0.003532
vn 0.960859 0.277016 -0.003422
vn 0.960859 0.277016 -0.003422
vn 0.991427 0.130615 -0.003532
vn 0.866020 0.500000 -0.003079
vn 0.866020 0.500000 -0.003079
vn 0.707104 0.707105 -0.002513
vn 0.707104 0.707105 -0.002512
vn 0.499999 0.866024 -0.001778
vn 0.499998 0.866024 -0.001778
s off
g WindowFrame Glass_L
usemtl initialShadingGroup
f 498/557/837 504/558/838 503/559/839 502/560/840 501/561/841 500/562/842 499/563/843 497/564/844
f 482/565/845 481/566/846 488/567/847 487/568/848 486/569/849 485/570/850 484/571/851 483/572/852
f 482/573/853 490/574/854 489/575/855 481/576/856
f 481/576/857 489/575/858 491/577/859 488/578/860
f 488/578/861 491/577/862 492/579/863 487/580/864
f 487/580/865 492/579/866 493/581/867 486/582/868
f 486/582/869 493/581/870 494/583/871 485/584/872
f 485/584/873 494/583/874 495/585/875 484/586/876
f 484/586/877 495/585/878 496/587/879 483/588/880
f 483/588/881 496/587/882 490/574/883 482/573/884
s 1
f 490/574/885 498/557/886 497/564/887 489/575/888
s off
f 489/575/889 497/564/890 499/563/891 491/577/892
f 491/577/893 499/563/894 500/562/895 492/579/896
s 1
f 492/579/897 500/562/898 501/561/899 493/581/900
f 493/581/900 501/561/899 502/560/901 494/583/902
f 494/583/902 502/560/901 503/559/903 495/585/904
f 495/585/904 503/559/903 504/558/905 496/587/906
f 496/587/906 504/558/905 498/557/886 490/574/885
s off
f 522/589/907 521/590/908 523/591/909 524/592/910 525/593/911 526/594/912 527/595/913 528/596/914
f 506/597/915 507/598/916 508/599/917 509/600/918 510/601/919 511/602/920 512/603/921 505/604/922
f 506/605/923 505/606/924 513/607/925 514/608/926
f 505/606/927 512/609/928 515/610/929 513/607/930
f 512/609/931 511/611/932 516/612/933 515/610/934
f 511/611/935 510/613/936 517/614/937 516/612/938
f 510/613/939 509/615/940 518/616/941 517/614/942
f 509/615/943 508/617/944 519/618/945 518/616/946
f 508/617/947 507/619/948 520/620/949 519/618/950
f 507/619/951 506/605/952 514/608/953 520/620/954
s 3
f 514/608/955 513/607/956 521/590/957 522/589/958
s off
f 513/607/959 515/610/960 523/591/961 521/590/962
f 515/610/963 516/612/964 524/592/965 523/591/966
s 3
f 516/612/967 517/614/968 525/593/969 524/592/970
f 517/614/968 518/616/971 526/594/972 525/593/969
f 518/616/971 519/618/973 527/595/974 526/594/972
f 519/618/973 520/620/975 528/596/976 527/595/974
f 520/620/975 514/608/955 522/589/958 528/596/976
