# This file uses centimeters as units for non-parametric coordinates.

mtllib Door_wALL.mtl
g default
v 12.056044 0.505985 11.525539
v 12.056044 0.505985 -11.642638
v 12.056044 16.408129 11.525539
v 12.056044 16.408129 -11.642638
v 11.663059 16.408127 11.525539
v 11.663059 16.408127 -11.642638
v 11.663059 0.505986 11.525539
v 11.663059 0.505986 -11.642638
v 12.056044 0.505985 -2.885740
v 12.056044 16.408129 -2.885740
v 11.663059 16.408127 -2.885740
v 11.663059 0.505986 -2.885740
v 12.056044 0.505985 3.293239
v 12.056044 16.408129 3.334316
v 11.663059 16.408127 3.334316
v 11.663059 0.505986 3.293239
v 12.056044 12.285350 11.525539
v 11.663059 12.285350 11.525539
v 11.663059 12.285350 3.293239
v 11.663059 12.285350 -2.885740
v 11.663059 12.285350 -11.642638
v 12.056044 12.285350 -11.642638
v 12.056044 12.285350 -2.885740
v 12.056044 12.285350 3.293239
vt 0.375000 0.000000
vt 0.625000 0.000000
vt 0.375000 0.250000
vt 0.625000 0.250000
vt 0.375000 0.500000
vt 0.625000 0.500000
vt 0.375000 0.750000
vt 0.625000 0.750000
vt 0.375000 1.000000
vt 0.625000 1.000000
vt 0.875000 0.000000
vt 0.875000 0.250000
vt 0.125000 0.000000
vt 0.125000 0.250000
vt 0.530322 0.500000
vt 0.530322 0.250000
vt 0.530322 0.500000
vt 0.530322 0.750000
vt 0.469284 0.500000
vt 0.469284 0.250000
vt 0.469284 0.500000
vt 0.469284 0.750000
vt 0.375000 0.174516
vt 0.125000 0.174516
vt 0.375000 0.575485
vt 0.469284 0.575485
vt 0.530322 0.575485
vt 0.625000 0.575485
vt 0.875000 0.174516
vt 0.625000 0.174516
vt 0.530322 0.174516
vt 0.469284 0.174516
vn 1.000000 0.000000 0.000000
vn 1.000000 0.000000 0.000000
vn 1.000000 0.000000 0.000000
vn 1.000000 0.000000 0.000000
vn -0.000004 1.000000 -0.000000
vn -0.000004 1.000000 -0.000000
vn -0.000004 1.000000 -0.000000
vn -0.000004 1.000000 -0.000000
vn -1.000000 0.000000 0.000000
vn -1.000000 0.000000 0.000000
vn -1.000000 0.000000 0.000000
vn -1.000000 0.000000 0.000000
vn -0.000002 -1.000000 0.000000
vn -0.000002 -1.000000 0.000000
vn -0.000002 -1.000000 0.000000
vn -0.000002 -1.000000 0.000000
vn 0.000000 0.000000 -1.000000
vn 0.000000 0.000000 -1.000000
vn 0.000000 0.000000 -1.000000
vn 0.000000 0.000000 -1.000000
vn 0.000000 0.000000 1.000000
vn 0.000000 0.000000 1.000000
vn 0.000000 0.000000 1.000000
vn 0.000000 0.000000 1.000000
vn 1.000000 0.000000 0.000000
vn 1.000000 0.000000 0.000000
vn 1.000000 0.000000 0.000000
vn 1.000000 0.000000 0.000000
vn -0.000003 1.000000 -0.000000
vn -0.000003 1.000000 -0.000000
vn -0.000004 1.000000 -0.000000
vn -0.000004 1.000000 -0.000000
vn -1.000000 0.000000 -0.000000
vn -1.000000 0.000000 -0.000000
vn -1.000000 0.000000 -0.000000
vn -1.000000 0.000000 -0.000000
vn -0.000003 -1.000000 -0.000000
vn -0.000003 -1.000000 -0.000000
vn -0.000003 -1.000000 -0.000000
vn -0.000003 -1.000000 -0.000000
vn 0.000000 0.000000 1.000000
vn 0.000000 0.000000 1.000000
vn -1.000000 0.000000 -0.000000
vn -1.000000 0.000000 -0.000000
vn -1.000000 0.000000 -0.000000
vn -1.000000 0.000000 -0.000000
vn 0.000000 0.000000 -1.000000
vn 0.000000 0.000000 -1.000000
vn 1.000000 0.000000 0.000000
vn 1.000000 0.000000 0.000000
vn 1.000000 0.000000 0.000000
vn 1.000000 0.000000 0.000000
vn 0.000000 0.000000 -1.000000
vn 0.000000 0.000000 -1.000000
vn 0.000000 0.000000 -1.000000
vn 0.000000 0.000000 -1.000000
vn 0.000000 0.000000 1.000000
vn 0.000000 0.000000 1.000000
vn 0.000000 0.000000 1.000000
vn 0.000000 0.000000 1.000000
vn 0.000000 -1.000000 0.000000
vn 0.000000 -1.000000 0.000000
vn 0.000000 -1.000000 0.000000
vn 0.000000 -1.000000 0.000000
s 1
g Wall_with_door
usemtl initialShadingGroup
f 1/1/1 13/19/2 24/32/3 17/23/4
s 2
f 3/3/5 14/20/6 15/21/7 5/5/8
s 3
f 18/25/9 19/26/10 16/22/11 7/7/12
s off
f 7/7/13 16/22/14 13/19/15 1/9/16
s 4
f 2/2/17 8/11/18 21/29/19 22/30/20
s 5
f 7/13/21 1/1/22 17/23/23 18/24/24
s 1
f 22/30/25 23/31/26 9/15/27 2/2/28
s 2
f 11/17/29 10/16/30 4/4/31 6/6/32
s 3
f 12/18/33 20/27/34 21/28/35 8/8/36
s off
f 9/15/37 12/18/38 8/8/39 2/10/40
s 2
f 15/21/7 14/20/6 10/16/30 11/17/29
s 5
f 18/24/24 17/23/23 3/3/41 5/14/42
s 3
f 5/5/43 15/21/44 19/26/10 18/25/9
f 20/27/34 19/26/10 15/21/44 11/17/45
f 21/28/35 20/27/34 11/17/45 6/6/46
s 4
f 22/30/20 21/29/19 6/12/47 4/4/48
s 1
f 10/16/49 23/31/26 22/30/25 4/4/50
f 14/20/51 24/32/3 23/31/26 10/16/49
f 17/23/4 24/32/3 14/20/51 3/3/52
s off
f 24/32/53 13/19/54 16/22/55 19/26/56
f 9/15/57 23/31/58 20/27/59 12/18/60
f 19/26/61 20/27/62 23/31/63 24/32/64
