# This file uses centimeters as units for non-parametric coordinates.

mtllib Hallway.mtl
g default
v 44.242195 0.328465 5.193211
v 10.185761 0.328465 5.193207
v 44.242195 0.328465 2.948442
v 10.185761 0.328465 2.948442
v 27.213978 0.328465 5.193211
v 27.213978 0.328465 2.948442
v 42.539381 0.328465 5.193211
v 42.539381 0.328465 2.948442
v 28.746517 0.328465 5.193211
v 28.746517 0.328465 2.948442
v 25.511155 0.328465 5.193211
v 25.511155 0.328465 2.948442
v 11.718297 0.328465 5.193207
v 11.716630 0.256868 2.948442
v 30.125804 0.328465 5.193211
v 30.125804 0.328465 2.948442
v 24.131870 0.328465 5.193207
v 24.130204 0.256868 2.948442
v 12.058573 0.328465 4.770024
v 12.056906 0.256868 3.371623
v 23.791597 0.328465 4.770024
v 23.789931 0.256868 3.371623
v 30.466079 0.328465 4.770026
v 30.466079 0.328465 3.371626
v 42.199107 0.328465 4.770026
v 42.199107 0.328465 3.371626
v 42.539381 0.843751 2.948442
v 42.539381 0.843751 5.193211
v 44.242195 0.843751 5.193211
v 44.242195 0.843751 2.948442
v 11.716630 0.772154 2.948442
v 10.185761 0.843751 2.948442
v 11.718297 0.843751 5.193207
v 10.185761 0.843751 5.193207
v 28.746517 0.843751 2.948442
v 27.213978 0.843751 2.948442
v 27.213978 0.843751 5.193211
v 28.746517 0.843751 5.193211
v 30.125804 0.843751 5.193211
v 30.125804 0.843751 2.948442
v 25.511155 0.843751 5.193211
v 25.511155 0.843751 2.948442
v 12.056905 0.804723 4.770024
v 12.056905 0.804723 3.371623
v 23.789931 0.804723 4.770024
v 23.789930 0.804723 3.371623
v 24.130203 0.772154 2.948442
v 30.466078 0.876319 4.770026
v 30.466078 0.876319 3.371626
v 42.199107 0.876319 4.770026
v 42.199107 0.876319 3.371626
v 24.131869 0.843751 5.193207
v 24.821514 0.328465 5.193211
v 24.819848 0.256868 2.948442
v 24.821514 0.843751 2.948442
v 24.821514 0.843751 5.193211
v 29.436161 0.328465 5.193211
v 29.436161 0.328465 2.948442
v 29.436162 0.843751 2.948442
v 29.436162 0.843751 5.193211
v 12.056908 12.031096 4.770024
v 12.058574 12.102692 3.371623
v 23.789931 12.031096 4.770024
v 23.791597 12.102692 3.371623
v 30.466080 12.102692 4.770026
v 30.466077 12.102692 3.371625
v 42.199107 12.102692 4.770026
v 42.199109 12.102692 3.371625
v 11.718300 1.456025 5.193207
v 11.716630 1.384428 2.948442
v 12.058572 1.456025 4.770024
v 12.056905 1.384428 3.371623
v 24.131869 1.456025 5.193207
v 23.791597 1.456025 4.770024
v 24.130203 1.384428 2.948442
v 23.789931 1.384428 3.371623
v 30.125804 1.456025 5.193211
v 30.125804 1.456025 2.948442
v 30.466078 1.456025 4.770026
v 30.466078 1.456025 3.371626
v 42.539381 1.456025 5.193211
v 42.199107 1.456025 4.770026
v 42.539381 1.456025 2.948442
v 42.199107 1.456025 3.371626
v 12.056905 6.746869 4.770024
v 12.056905 6.746869 3.371623
v 23.789931 6.746869 3.371623
v 23.789931 6.746869 4.770024
v 12.056905 6.180950 4.770024
v 12.056905 6.180950 3.371623
v 23.789931 6.180950 3.371623
v 23.789931 6.180950 4.770024
v 30.466078 6.818465 4.770026
v 30.466078 6.818465 3.371626
v 42.199107 6.818465 3.371626
v 42.199107 6.818465 4.770026
v 30.466078 6.252546 4.770026
v 30.466078 6.252546 3.371626
v 42.199107 6.252546 3.371626
v 42.199107 6.252546 4.770026
v 11.943480 6.180950 3.230563
v 11.943480 6.746869 3.230563
v 11.943480 6.180950 4.911086
v 11.943480 6.746869 4.911086
v 23.903355 6.180950 3.230563
v 23.903355 6.746869 3.230563
v 23.903355 6.180950 4.911086
v 23.903355 6.746869 4.911086
v 30.352654 6.252546 3.230565
v 30.352654 6.818465 3.230565
v 30.352654 6.252546 4.911087
v 30.352654 6.818465 4.911087
v 42.312532 6.252546 3.230565
v 42.312532 6.818465 3.230565
v 42.312532 6.252546 4.911087
v 42.312532 6.818465 4.911087
v 30.466078 11.833879 4.770026
v 30.466078 11.833879 3.371626
v 42.199107 11.833879 3.371626
v 42.199107 11.833879 4.770026
v 12.056905 11.762283 4.770024
v 12.056905 11.762283 3.371623
v 23.789931 11.762283 3.371623
v 23.789931 11.762283 4.770024
v 30.352654 11.833879 3.230565
v 30.352654 12.102692 3.230565
v 30.352654 11.833879 4.911087
v 30.352654 12.102692 4.911087
v 42.312532 11.833879 3.230565
v 42.312532 12.102692 3.230565
v 42.312532 11.833879 4.911087
v 42.312532 12.102692 4.911087
v 11.945147 11.833879 3.230563
v 11.945147 12.102692 3.230563
v 11.943480 11.762283 4.911086
v 11.943480 12.031096 4.911086
v 23.905020 11.833879 3.230563
v 23.905020 12.102692 3.230563
v 23.903355 11.762283 4.911086
v 23.903355 12.031096 4.911086
v 12.056905 12.610801 4.770028
v 12.056905 12.610801 3.371627
v 23.789931 12.610801 4.770028
v 23.789931 12.610801 3.371626
v 30.466077 12.682397 4.770028
v 30.466077 12.682397 3.371627
v 42.199107 12.682397 4.770028
v 42.199107 12.682397 3.371627
v 28.746517 0.328465 8.736054
v 27.213978 0.328465 8.736054
v 28.746517 0.843753 8.736054
v 27.213978 0.843753 8.736054
v 29.436161 0.843753 8.736054
v 29.436161 0.328465 8.736054
v 30.125804 0.328465 8.736054
v 30.125804 0.843753 8.736054
v 25.511155 0.328465 8.736054
v 25.511155 0.843753 8.736054
v 24.821514 0.843753 8.736054
v 24.821514 0.328465 8.736054
v 24.131869 0.328465 8.736054
v 24.131869 0.843753 8.736054
v 28.746517 0.328465 5.193211
v 27.213978 0.328465 5.193211
v 28.746517 0.328465 7.325443
v 27.213978 0.328465 7.325443
v 28.746517 0.843753 5.193211
v 27.213978 0.843753 5.193211
v 27.213978 0.843753 7.325443
v 28.746517 0.843753 7.325443
v 30.125804 0.328465 5.193211
v 29.436161 0.328465 5.193211
v 30.125804 0.328465 7.325442
v 29.436161 0.328465 7.325443
v 30.125804 0.843753 5.193211
v 30.125804 0.843753 7.325443
v 29.436161 0.843753 5.193211
v 29.436161 0.843753 7.325443
v 25.511155 0.328465 5.193211
v 25.511155 0.328465 7.325443
v 25.511155 0.843753 5.193211
v 25.511155 0.843753 7.325443
v 24.821514 0.328465 5.193211
v 24.821514 0.328465 7.325443
v 24.821514 0.843753 5.193211
v 24.821514 0.843753 7.325443
v 24.131869 0.328465 5.193211
v 24.131869 0.328465 7.325443
v 24.131869 0.843753 5.193211
v 24.131869 0.843753 7.325443
v 12.058573 12.102692 0.259829
v 23.791597 12.102692 0.259829
v 30.466077 12.102692 0.259829
v 42.199108 12.102692 0.259829
v 42.199107 12.682397 0.259829
v 30.466077 12.682397 0.259829
v 23.791597 12.682397 0.259829
v 12.058572 12.682397 0.259829
v 44.242195 0.843751 0.259829
v 42.539381 0.843751 0.259829
v 30.125804 0.843751 0.259829
v 29.436162 0.843751 0.259829
v 28.746517 0.843751 0.259829
v 27.213978 0.843751 0.259829
v 25.511155 0.843751 0.259829
v 24.821514 0.843751 0.259829
v 24.130203 0.772154 0.259829
v 11.716630 0.772154 0.259829
v 10.185761 0.843751 0.259829
v 10.185761 0.328465 0.259829
v 11.716630 0.256868 0.259829
v 24.130203 0.256868 0.259829
v 24.819848 0.256868 0.259829
v 25.511155 0.328465 0.259829
v 27.213978 0.328465 0.259829
v 28.746517 0.328465 0.259829
v 29.436161 0.328465 0.259829
v 30.125804 0.328465 0.259829
v 42.539381 0.328465 0.259829
v 44.242195 0.328465 0.259829
v 44.242195 0.328465 -4.764597
v 10.185761 0.328465 -4.764593
v 44.242195 0.328465 -2.519829
v 10.185761 0.328465 -2.519829
v 27.213978 0.328465 -4.764597
v 27.213978 0.328465 -2.519829
v 42.539381 0.328465 -4.764597
v 42.539381 0.328465 -2.519829
v 28.746517 0.328465 -4.764597
v 28.746517 0.328465 -2.519829
v 25.511155 0.328465 -4.764597
v 25.511155 0.328465 -2.519829
v 11.718297 0.328465 -4.764593
v 11.716630 0.256868 -2.519829
v 30.125804 0.328465 -4.764597
v 30.125804 0.328465 -2.519829
v 24.131870 0.328465 -4.764593
v 24.130204 0.256868 -2.519829
v 12.058573 0.328465 -4.341410
v 12.058573 0.328465 -2.943010
v 23.791597 0.328465 -4.341410
v 23.791597 0.328465 -2.943010
v 30.466079 0.328465 -4.341412
v 30.466079 0.328465 -2.943013
v 42.199107 0.328465 -4.341412
v 42.199107 0.328465 -2.943013
v 42.539381 0.843751 -2.519829
v 42.539381 0.843751 -4.764597
v 44.242195 0.843751 -4.764597
v 44.242195 0.843751 -2.519829
v 11.716630 0.772154 -2.519829
v 10.185761 0.843751 -2.519829
v 11.718297 0.843751 -4.764593
v 10.185761 0.843751 -4.764593
v 28.746517 0.843751 -2.519829
v 27.213978 0.843751 -2.519829
v 27.213978 0.843751 -4.764598
v 28.746517 0.843751 -4.764598
v 30.125804 0.843751 -4.764598
v 30.125804 0.843751 -2.519829
v 25.511155 0.843751 -4.764598
v 25.511155 0.843751 -2.519829
v 12.058572 0.876319 -4.341410
v 12.058572 0.876319 -2.943010
v 23.791597 0.876319 -4.341410
v 23.791595 0.876319 -2.943010
v 24.130203 0.772154 -2.519829
v 30.466078 0.876319 -4.341413
v 30.466078 0.876319 -2.943013
v 42.199107 0.876319 -4.341413
v 42.199107 0.876319 -2.943013
v 24.131869 0.843751 -4.764594
v 24.821514 0.328465 -4.764597
v 24.821514 0.328465 -2.519829
v 24.821514 0.843751 -2.519829
v 24.821514 0.843751 -4.764598
v 29.436161 0.328465 -4.764597
v 29.436161 0.328465 -2.519829
v 29.436162 0.843751 -2.519829
v 29.436162 0.843751 -4.764598
v 12.058574 12.102692 -4.341410
v 12.058574 12.102692 -2.943010
v 23.791597 12.102692 -4.341410
v 23.791597 12.102692 -2.943010
v 30.466080 12.102692 -4.341413
v 30.466077 12.102692 -2.943012
v 42.199107 12.102692 -4.341413
v 42.199109 12.102692 -2.943012
v 11.718300 1.456025 -4.764594
v 11.718297 1.456025 -2.519829
v 12.058572 1.456025 -4.341410
v 12.058572 1.456025 -2.943010
v 24.131869 1.456025 -4.764594
v 23.791597 1.456025 -4.341410
v 24.131869 1.456025 -2.519829
v 23.791597 1.456025 -2.943010
v 30.125804 1.456025 -4.764597
v 30.125804 1.456025 -2.519829
v 30.466078 1.456025 -4.341413
v 30.466078 1.456025 -2.943013
v 42.539381 1.456025 -4.764597
v 42.199107 1.456025 -4.341413
v 42.539381 1.456025 -2.519829
v 42.199107 1.456025 -2.943013
v 12.058572 6.818465 -4.341410
v 12.058572 6.818465 -2.943010
v 23.791597 6.818465 -2.943010
v 23.791597 6.818465 -4.341410
v 12.058572 6.252546 -4.341410
v 12.058572 6.252546 -2.943010
v 23.791597 6.252546 -2.943010
v 23.791597 6.252546 -4.341410
v 30.466078 6.818465 -4.341413
v 30.466078 6.818465 -2.943013
v 42.199107 6.818465 -2.943013
v 42.199107 6.818465 -4.341413
v 30.466078 6.252546 -4.341413
v 30.466078 6.252546 -2.943013
v 42.199107 6.252546 -2.943013
v 42.199107 6.252546 -4.341413
v 11.945147 6.252546 -2.801950
v 11.945147 6.818465 -2.801950
v 11.945147 6.252546 -4.482473
v 11.945147 6.818465 -4.482473
v 23.905020 6.252546 -2.801950
v 23.905020 6.818465 -2.801950
v 23.905020 6.252546 -4.482473
v 23.905020 6.818465 -4.482473
v 30.352654 6.252546 -2.801952
v 30.352654 6.818465 -2.801952
v 30.352654 6.252546 -4.482474
v 30.352654 6.818465 -4.482474
v 42.312532 6.252546 -2.801952
v 42.312532 6.818465 -2.801952
v 42.312532 6.252546 -4.482474
v 42.312532 6.818465 -4.482474
v 30.466078 11.833879 -4.341413
v 30.466078 11.833879 -2.943013
v 42.199107 11.833879 -2.943013
v 42.199107 11.833879 -4.341413
v 12.058572 11.833879 -4.341410
v 12.058572 11.833879 -2.943010
v 23.791597 11.833879 -2.943010
v 23.791597 11.833879 -4.341410
v 30.352654 11.833879 -2.801952
v 30.352654 12.102692 -2.801952
v 30.352654 11.833879 -4.482474
v 30.352654 12.102692 -4.482474
v 42.312532 11.833879 -2.801952
v 42.312532 12.102692 -2.801952
v 42.312532 11.833879 -4.482474
v 42.312532 12.102692 -4.482474
v 11.945147 11.833879 -2.801950
v 11.945147 12.102692 -2.801950
v 11.945147 11.833879 -4.482473
v 11.945147 12.102692 -4.482473
v 23.905020 11.833879 -2.801950
v 23.905020 12.102692 -2.801950
v 23.905020 11.833879 -4.482473
v 23.905020 12.102692 -4.482473
v 12.058572 12.682397 -4.341414
v 12.058572 12.682397 -2.943014
v 23.791597 12.682397 -4.341414
v 23.791597 12.682397 -2.943013
v 30.466077 12.682397 -4.341414
v 30.466077 12.682397 -2.943014
v 42.199107 12.682397 -4.341414
v 42.199107 12.682397 -2.943014
v 28.746517 0.328465 -8.307440
v 27.213978 0.328465 -8.307440
v 28.746517 0.843753 -8.307440
v 27.213978 0.843753 -8.307440
v 29.436161 0.843753 -8.307440
v 29.436161 0.328465 -8.307440
v 30.125804 0.328465 -8.307440
v 30.125804 0.843753 -8.307440
v 25.511155 0.328465 -8.307440
v 25.511155 0.843753 -8.307440
v 24.821514 0.843753 -8.307440
v 24.821514 0.328465 -8.307440
v 24.131869 0.328465 -8.307440
v 24.131869 0.843753 -8.307440
v 28.746517 0.328465 -4.764598
v 27.213978 0.328465 -4.764598
v 28.746517 0.328465 -6.896829
v 27.213978 0.328465 -6.896829
v 28.746517 0.843753 -4.764598
v 27.213978 0.843753 -4.764598
v 27.213978 0.843753 -6.896829
v 28.746517 0.843753 -6.896829
v 30.125804 0.328465 -4.764598
v 29.436161 0.328465 -4.764598
v 30.125804 0.328465 -6.896829
v 29.436161 0.328465 -6.896829
v 30.125804 0.843753 -4.764598
v 30.125804 0.843753 -6.896829
v 29.436161 0.843753 -4.764597
v 29.436161 0.843753 -6.896829
v 25.511155 0.328465 -4.764598
v 25.511155 0.328465 -6.896829
v 25.511155 0.843753 -4.764597
v 25.511155 0.843753 -6.896829
v 24.821514 0.328465 -4.764598
v 24.821514 0.328465 -6.896829
v 24.821514 0.843753 -4.764597
v 24.821514 0.843753 -6.896829
v 24.131869 0.328465 -4.764598
v 24.131869 0.328465 -6.896829
v 24.131869 0.843753 -4.764598
v 24.131869 0.843753 -6.896829
vt 0.415000 0.262500
vt 0.375000 0.262500
vt 0.375000 0.250000
vt 0.415000 0.250000
vt 0.415000 0.488750
vt 0.415000 0.500000
vt 0.375000 0.500000
vt 0.375000 0.488750
vt 0.415000 0.363750
vt 0.415000 0.375000
vt 0.375000 0.375000
vt 0.375000 0.363750
vt 0.415000 0.358687
vt 0.375000 0.358687
vt 0.375000 0.353625
vt 0.415000 0.353625
vt 0.415000 0.387500
vt 0.375000 0.387500
vt 0.415000 0.488750
vt 0.375000 0.488750
vt 0.375000 0.397625
vt 0.415000 0.397625
vt 0.415000 0.397625
vt 0.415000 0.353625
vt 0.375000 0.353625
vt 0.375000 0.262500
vt 0.415000 0.262500
vt 0.415000 0.392562
vt 0.375000 0.392562
vt 0.415000 0.488750
vt 0.375000 0.488750
vt 0.375000 0.488750
vt 0.415000 0.488750
vt 0.375000 0.397625
vt 0.375000 0.397625
vt 0.415000 0.397625
vt 0.415000 0.397625
vt 0.415000 0.353625
vt 0.375000 0.353625
vt 0.375000 0.353625
vt 0.415000 0.353625
vt 0.375000 0.262500
vt 0.375000 0.262500
vt 0.415000 0.262500
vt 0.415000 0.262500
vt 0.415000 0.262500
vt 0.415000 0.250000
vt 0.375000 0.250000
vt 0.375000 0.262500
vt 0.415000 0.488750
vt 0.415000 0.500000
vt 0.375000 0.500000
vt 0.375000 0.488750
vt 0.415000 0.363750
vt 0.415000 0.375000
vt 0.375000 0.363750
vt 0.375000 0.375000
vt 0.375000 0.358687
vt 0.415000 0.358687
vt 0.415000 0.353625
vt 0.375000 0.353625
vt 0.415000 0.387500
vt 0.375000 0.387500
vt 0.415000 0.488750
vt 0.415000 0.397625
vt 0.375000 0.397625
vt 0.375000 0.488750
vt 0.415000 0.397625
vt 0.415000 0.353625
vt 0.415000 0.262500
vt 0.375000 0.262500
vt 0.375000 0.353625
vt 0.375000 0.392562
vt 0.415000 0.392562
vt 0.375000 0.397625
vt 0.375000 0.262500
vt 0.375000 0.250000
vt 0.415000 0.250000
vt 0.415000 0.500000
vt 0.375000 0.500000
vt 0.375000 0.488750
vt 0.375000 0.375000
vt 0.375000 0.363750
vt 0.375000 0.358687
vt 0.375000 0.353625
vt 0.375000 0.387500
vt 0.375000 0.392562
vt 0.375000 0.397625
vt 0.375000 0.397625
vt 0.415000 0.488750
vt 0.375000 0.488750
vt 0.375000 0.488750
vt 0.415000 0.488750
vt 0.375000 0.397625
vt 0.375000 0.397625
vt 0.415000 0.397625
vt 0.415000 0.397625
vt 0.415000 0.353625
vt 0.375000 0.353625
vt 0.375000 0.353625
vt 0.415000 0.353625
vt 0.375000 0.262500
vt 0.375000 0.262500
vt 0.415000 0.262500
vt 0.415000 0.262500
vt 0.415000 0.488750
vt 0.375000 0.488750
vt 0.375000 0.488750
vt 0.415000 0.488750
vt 0.415000 0.397625
vt 0.415000 0.397625
vt 0.375000 0.397625
vt 0.375000 0.397625
vt 0.415000 0.488750
vt 0.415000 0.488750
vt 0.375000 0.488750
vt 0.375000 0.488750
vt 0.415000 0.397625
vt 0.415000 0.397625
vt 0.375000 0.397625
vt 0.375000 0.397625
vt 0.415000 0.353625
vt 0.375000 0.353625
vt 0.375000 0.353625
vt 0.415000 0.353625
vt 0.415000 0.262500
vt 0.415000 0.262500
vt 0.375000 0.262500
vt 0.375000 0.262500
vt 0.415000 0.353625
vt 0.415000 0.353625
vt 0.375000 0.353625
vt 0.375000 0.353625
vt 0.415000 0.262500
vt 0.415000 0.262500
vt 0.375000 0.262500
vt 0.375000 0.262500
vt 0.415000 0.353625
vt 0.415000 0.353625
vt 0.375000 0.353625
vt 0.375000 0.353625
vt 0.415000 0.262500
vt 0.415000 0.262500
vt 0.375000 0.262500
vt 0.375000 0.262500
vt 0.415000 0.488750
vt 0.415000 0.488750
vt 0.375000 0.488750
vt 0.375000 0.488750
vt 0.415000 0.397625
vt 0.415000 0.397625
vt 0.375000 0.397625
vt 0.375000 0.397625
vt 0.415000 0.488750
vt 0.375000 0.488750
vt 0.375000 0.397625
vt 0.415000 0.397625
vt 0.415000 0.353625
vt 0.375000 0.353625
vt 0.375000 0.262500
vt 0.415000 0.262500
vt 0.375000 0.375000
vt 0.375000 0.363750
vt 0.375000 0.363750
vt 0.375000 0.375000
vt 0.375000 0.358687
vt 0.375000 0.353625
vt 0.375000 0.353625
vt 0.375000 0.358687
vt 0.375000 0.387500
vt 0.375000 0.387500
vt 0.375000 0.392562
vt 0.375000 0.392562
vt 0.375000 0.397625
vt 0.375000 0.397625
vt 0.375000 0.375000
vt 0.375000 0.363750
vt 0.375000 0.363750
vt 0.375000 0.375000
vt 0.375000 0.358687
vt 0.375000 0.353625
vt 0.375000 0.353625
vt 0.375000 0.358687
vt 0.375000 0.387500
vt 0.375000 0.387500
vt 0.375000 0.392562
vt 0.375000 0.392562
vt 0.375000 0.397625
vt 0.375000 0.397625
vt 0.375000 0.375000
vt 0.375000 0.363750
vt 0.375000 0.363750
vt 0.375000 0.375000
vt 0.375000 0.358687
vt 0.375000 0.353625
vt 0.375000 0.353625
vt 0.375000 0.358687
vt 0.375000 0.387500
vt 0.375000 0.387500
vt 0.375000 0.392562
vt 0.375000 0.392562
vt 0.375000 0.397625
vt 0.375000 0.397625
vt 0.415000 0.488750
vt 0.415000 0.397625
vt 0.415000 0.353625
vt 0.415000 0.262500
vt 0.415000 0.262500
vt 0.415000 0.353625
vt 0.415000 0.397625
vt 0.415000 0.488750
vt 0.415000 0.250000
vt 0.415000 0.262500
vt 0.415000 0.353625
vt 0.415000 0.358687
vt 0.415000 0.363750
vt 0.415000 0.375000
vt 0.415000 0.387500
vt 0.415000 0.392562
vt 0.415000 0.397625
vt 0.415000 0.488750
vt 0.415000 0.500000
vt 0.415000 0.500000
vt 0.415000 0.500000
vt 0.415000 0.488750
vt 0.415000 0.397625
vt 0.415000 0.392562
vt 0.415000 0.387500
vt 0.415000 0.375000
vt 0.415000 0.363750
vt 0.415000 0.358687
vt 0.415000 0.353625
vt 0.415000 0.262500
vt 0.415000 0.250000
vt 0.415000 0.250000
vt 0.415000 0.262500
vt 0.375000 0.262500
vt 0.375000 0.250000
vt 0.415000 0.250000
vt 0.415000 0.250000
vt 0.415000 0.262500
vt 0.415000 0.500000
vt 0.415000 0.488750
vt 0.415000 0.488750
vt 0.415000 0.500000
vt 0.375000 0.500000
vt 0.375000 0.488750
vt 0.415000 0.375000
vt 0.415000 0.363750
vt 0.415000 0.363750
vt 0.415000 0.375000
vt 0.375000 0.375000
vt 0.375000 0.363750
vt 0.415000 0.358687
vt 0.375000 0.358687
vt 0.375000 0.353625
vt 0.415000 0.353625
vt 0.415000 0.353625
vt 0.415000 0.358687
vt 0.415000 0.387500
vt 0.375000 0.387500
vt 0.415000 0.387500
vt 0.415000 0.488750
vt 0.375000 0.488750
vt 0.375000 0.397625
vt 0.415000 0.397625
vt 0.415000 0.397625
vt 0.415000 0.397625
vt 0.415000 0.353625
vt 0.375000 0.353625
vt 0.375000 0.262500
vt 0.415000 0.262500
vt 0.415000 0.392562
vt 0.375000 0.392562
vt 0.415000 0.392562
vt 0.415000 0.488750
vt 0.375000 0.488750
vt 0.375000 0.488750
vt 0.415000 0.488750
vt 0.375000 0.397625
vt 0.375000 0.397625
vt 0.415000 0.397625
vt 0.415000 0.397625
vt 0.415000 0.353625
vt 0.375000 0.353625
vt 0.375000 0.353625
vt 0.415000 0.353625
vt 0.375000 0.262500
vt 0.375000 0.262500
vt 0.415000 0.262500
vt 0.415000 0.262500
vt 0.415000 0.262500
vt 0.415000 0.250000
vt 0.375000 0.250000
vt 0.375000 0.262500
vt 0.415000 0.262500
vt 0.415000 0.250000
vt 0.415000 0.488750
vt 0.415000 0.500000
vt 0.415000 0.500000
vt 0.415000 0.488750
vt 0.375000 0.500000
vt 0.375000 0.488750
vt 0.415000 0.363750
vt 0.415000 0.375000
vt 0.415000 0.375000
vt 0.415000 0.363750
vt 0.375000 0.363750
vt 0.375000 0.375000
vt 0.375000 0.358687
vt 0.415000 0.358687
vt 0.415000 0.353625
vt 0.375000 0.353625
vt 0.415000 0.358687
vt 0.415000 0.353625
vt 0.415000 0.387500
vt 0.375000 0.387500
vt 0.415000 0.387500
vt 0.415000 0.488750
vt 0.415000 0.397625
vt 0.375000 0.397625
vt 0.375000 0.488750
vt 0.415000 0.397625
vt 0.415000 0.397625
vt 0.415000 0.353625
vt 0.415000 0.262500
vt 0.375000 0.262500
vt 0.375000 0.353625
vt 0.375000 0.392562
vt 0.415000 0.392562
vt 0.415000 0.392562
vt 0.375000 0.397625
vt 0.375000 0.262500
vt 0.375000 0.250000
vt 0.415000 0.250000
vt 0.415000 0.250000
vt 0.415000 0.500000
vt 0.415000 0.500000
vt 0.375000 0.500000
vt 0.375000 0.488750
vt 0.375000 0.375000
vt 0.375000 0.363750
vt 0.375000 0.363750
vt 0.375000 0.375000
vt 0.375000 0.358687
vt 0.375000 0.358687
vt 0.375000 0.353625
vt 0.375000 0.353625
vt 0.375000 0.387500
vt 0.375000 0.387500
vt 0.375000 0.392562
vt 0.375000 0.392562
vt 0.375000 0.397625
vt 0.375000 0.397625
vt 0.375000 0.353625
vt 0.375000 0.397625
vt 0.375000 0.397625
vt 0.415000 0.488750
vt 0.375000 0.488750
vt 0.375000 0.488750
vt 0.415000 0.488750
vt 0.375000 0.397625
vt 0.375000 0.397625
vt 0.415000 0.397625
vt 0.415000 0.397625
vt 0.415000 0.353625
vt 0.375000 0.353625
vt 0.375000 0.353625
vt 0.415000 0.353625
vt 0.375000 0.262500
vt 0.375000 0.262500
vt 0.415000 0.262500
vt 0.415000 0.262500
vt 0.415000 0.488750
vt 0.375000 0.488750
vt 0.375000 0.488750
vt 0.415000 0.488750
vt 0.415000 0.397625
vt 0.415000 0.397625
vt 0.375000 0.397625
vt 0.375000 0.397625
vt 0.415000 0.488750
vt 0.415000 0.488750
vt 0.375000 0.488750
vt 0.375000 0.488750
vt 0.415000 0.397625
vt 0.415000 0.397625
vt 0.375000 0.397625
vt 0.375000 0.397625
vt 0.415000 0.353625
vt 0.375000 0.353625
vt 0.375000 0.353625
vt 0.415000 0.353625
vt 0.415000 0.262500
vt 0.415000 0.262500
vt 0.375000 0.262500
vt 0.375000 0.262500
vt 0.415000 0.353625
vt 0.415000 0.353625
vt 0.375000 0.353625
vt 0.375000 0.353625
vt 0.415000 0.262500
vt 0.415000 0.262500
vt 0.375000 0.262500
vt 0.375000 0.262500
vt 0.415000 0.353625
vt 0.415000 0.353625
vt 0.375000 0.353625
vt 0.375000 0.353625
vt 0.415000 0.262500
vt 0.415000 0.262500
vt 0.375000 0.262500
vt 0.375000 0.262500
vt 0.415000 0.488750
vt 0.415000 0.488750
vt 0.375000 0.488750
vt 0.375000 0.488750
vt 0.415000 0.397625
vt 0.415000 0.397625
vt 0.375000 0.397625
vt 0.375000 0.397625
vt 0.375000 0.353625
vt 0.415000 0.353625
vt 0.415000 0.262500
vt 0.375000 0.262500
vt 0.375000 0.488750
vt 0.415000 0.488750
vt 0.415000 0.397625
vt 0.375000 0.397625
vt 0.415000 0.488750
vt 0.415000 0.488750
vt 0.415000 0.397625
vt 0.415000 0.397625
vt 0.415000 0.262500
vt 0.415000 0.353625
vt 0.415000 0.262500
vt 0.415000 0.353625
vt 0.375000 0.375000
vt 0.375000 0.375000
vt 0.375000 0.363750
vt 0.375000 0.363750
vt 0.375000 0.358687
vt 0.375000 0.358687
vt 0.375000 0.353625
vt 0.375000 0.353625
vt 0.375000 0.387500
vt 0.375000 0.387500
vt 0.375000 0.392562
vt 0.375000 0.392562
vt 0.375000 0.397625
vt 0.375000 0.397625
vt 0.375000 0.397625
vt 0.375000 0.397625
vt 0.375000 0.375000
vt 0.375000 0.363750
vt 0.375000 0.363750
vt 0.375000 0.375000
vt 0.375000 0.353625
vt 0.375000 0.353625
vt 0.375000 0.358687
vt 0.375000 0.358687
vt 0.375000 0.387500
vt 0.375000 0.387500
vt 0.375000 0.392562
vt 0.375000 0.392562
vt 0.375000 0.375000
vt 0.375000 0.363750
vt 0.375000 0.358687
vt 0.375000 0.387500
vt 0.375000 0.392562
vn 0.000000 1.000000 0.000000
vn 0.000000 1.000000 0.000000
vn 0.000000 1.000000 0.000000
vn 0.000000 1.000000 0.000000
vn 0.000000 1.000000 0.000000
vn 0.000000 1.000000 0.000000
vn 0.036095 0.999322 -0.007258
vn 0.006666 0.999977 -0.001340
vn 0.005134 0.999987 0.000000
vn 0.046717 0.998908 0.000000
vn 0.023362 0.999600 -0.015950
vn 0.023362 0.999600 -0.015950
vn 0.000000 1.000000 -0.000000
vn 0.000000 1.000000 0.000000
vn 0.000000 1.000000 0.000000
vn 0.000000 1.000000 0.000000
vn 0.000000 1.000000 -0.000000
vn 0.000000 1.000000 0.000000
vn 0.000000 1.000000 0.000000
vn 0.000000 1.000000 0.000000
vn 0.000000 1.000000 0.000000
vn 0.000000 1.000000 0.000000
vn 0.000000 1.000000 0.000000
vn 0.000000 1.000000 0.000000
vn 0.000000 1.000000 -0.000000
vn 0.000000 1.000000 -0.000000
vn 0.000000 1.000000 0.000000
vn 0.000000 1.000000 0.000000
vn 0.000000 1.000000 0.000000
vn 0.000000 1.000000 0.000000
vn 0.000000 1.000000 0.000000
vn -0.007412 0.999972 -0.000669
vn -0.005463 0.999985 -0.000000
vn 0.000000 1.000000 0.000000
vn 0.000000 1.000000 0.000000
vn 0.000000 1.000000 0.000000
vn 0.000000 1.000000 0.000000
vn -0.040029 0.999192 -0.003622
vn -0.025929 0.999632 -0.007966
vn -0.051776 0.998659 -0.000000
vn -0.000000 0.999991 -0.004252
vn -0.000000 0.999991 -0.004260
vn -0.000000 0.999991 -0.004247
vn -0.000000 0.999991 -0.004252
vn 0.000000 0.999991 -0.004252
vn 0.000000 0.999991 -0.004252
vn 0.000000 0.999991 -0.004260
vn 0.000000 0.999991 -0.004247
vn 0.000000 1.000000 0.000000
vn 0.000000 1.000000 0.000000
vn 0.000000 1.000000 0.000000
vn 0.000000 1.000000 0.000000
vn 0.000000 1.000000 0.000000
vn 0.000000 1.000000 0.000000
vn 0.000000 1.000000 0.000000
vn 0.000000 1.000000 0.000000
vn 0.000000 -1.000000 0.000000
vn 0.000000 -1.000000 0.000000
vn 0.000000 -1.000000 0.000000
vn 0.000000 -1.000000 0.000000
vn 0.000000 -1.000000 0.000000
vn 0.000000 -1.000000 0.000000
vn -0.006230 -0.999979 0.001530
vn -0.036095 -0.999322 0.007258
vn -0.046717 -0.998908 0.000000
vn -0.005134 -0.999987 0.000000
vn -0.023362 -0.999600 0.015950
vn -0.012743 -0.999862 0.010637
vn 0.000000 -1.000000 0.000000
vn 0.000000 -1.000000 0.000000
vn 0.000000 -1.000000 0.000000
vn 0.000000 -1.000000 0.000000
vn 0.000000 -1.000000 0.000000
vn 0.000000 -1.000000 0.000000
vn 0.000000 -1.000000 0.000000
vn 0.000000 -1.000000 0.000000
vn 0.000000 -1.000000 0.000000
vn 0.000000 -1.000000 0.000000
vn 0.000000 -1.000000 0.000000
vn 0.000000 -1.000000 0.000000
vn 0.023099 -0.999731 0.002090
vn 0.014956 -0.999878 0.004595
vn 0.022303 -0.999750 -0.001886
vn 0.000000 -0.999386 0.035031
vn -0.000000 -0.999386 0.035050
vn -0.000000 -0.999386 0.035031
vn 0.000000 -0.999386 0.035050
vn -0.000000 -0.999999 0.001553
vn 0.001389 -0.999999 -0.000345
vn 0.000000 -1.000000 0.000000
vn 0.000000 -1.000000 0.000000
vn 0.000000 -1.000000 0.000000
vn 0.000000 -1.000000 0.000000
vn 0.025938 -0.999378 0.023887
vn 0.040013 -0.999140 0.010864
vn 0.051775 -0.998637 -0.006527
vn -0.000000 -0.999903 0.013952
vn 0.000000 0.000000 1.000000
vn 0.000000 0.000000 1.000000
vn 0.000000 0.000000 1.000000
vn 0.000000 0.000000 1.000000
vn 1.000000 0.000000 0.000000
vn 1.000000 0.000000 0.000000
vn 1.000000 0.000000 0.000000
vn 1.000000 0.000000 0.000000
vn 1.000000 0.000000 0.000000
vn 1.000000 0.000000 0.000000
vn -1.000000 0.000000 -0.000000
vn -1.000000 0.000000 -0.000000
vn -1.000000 0.000000 -0.000000
vn -1.000000 0.000000 -0.000000
vn 0.000000 0.000000 1.000000
vn -0.000000 -0.000001 1.000000
vn -0.000000 -0.000001 1.000000
vn 0.000000 0.000000 1.000000
vn -1.000000 0.000000 -0.000000
vn -1.000000 0.000000 -0.000000
vn 0.000000 0.000000 1.000000
vn 0.000000 0.000000 1.000000
vn 0.000000 0.000000 1.000000
vn 0.000000 0.000000 1.000000
vn 0.000000 0.000000 1.000000
vn 0.000000 0.000000 1.000000
vn 0.000000 0.000000 1.000000
vn 0.000000 0.000000 1.000000
vn 0.000000 0.000000 1.000000
vn 0.000000 0.000000 1.000000
vn 0.000000 0.000000 1.000000
vn 0.000000 0.000000 1.000000
vn -0.000000 -0.000001 1.000000
vn -0.000000 -0.000001 1.000000
vn 0.000000 0.000000 1.000000
vn 0.000000 0.000000 1.000000
vn -0.051770 0.998532 -0.015905
vn 0.000000 0.000000 1.000000
vn 0.000000 0.000000 1.000000
vn -1.000000 0.000000 -0.000000
vn -1.000000 0.000000 -0.000000
vn -1.000000 0.000000 -0.000000
vn -1.000000 0.000000 -0.000000
vn 0.000000 0.000000 1.000000
vn 0.000000 0.000000 1.000000
vn 0.000000 0.000000 1.000000
vn 0.000000 0.000000 1.000000
vn 1.000000 -0.000000 -0.000000
vn 1.000000 -0.000000 -0.000000
vn 1.000000 -0.000000 -0.000000
vn 1.000000 -0.000000 -0.000000
vn 0.000000 0.000000 -1.000000
vn 0.000000 0.000000 -1.000000
vn 0.000000 0.000000 -1.000000
vn 0.000000 0.000000 -1.000000
vn -1.000000 0.000000 -0.000000
vn -1.000000 0.000000 -0.000000
vn -1.000000 0.000000 -0.000000
vn -1.000000 0.000000 -0.000000
vn 0.000000 0.000000 1.000000
vn 0.000000 0.000000 1.000000
vn 0.000000 0.000000 1.000000
vn 0.000000 0.000000 1.000000
vn 1.000000 0.000000 0.000000
vn 1.000000 0.000000 0.000000
vn 1.000000 0.000000 0.000000
vn 1.000000 0.000000 0.000000
vn 0.000000 0.000000 -1.000000
vn 0.000000 0.000000 -1.000000
vn 0.000000 0.000000 -1.000000
vn 0.000000 0.000000 -1.000000
vn -1.000000 0.000002 0.000743
vn -1.000000 0.000002 0.000743
vn -1.000000 0.000002 0.000743
vn -1.000000 0.000002 0.000743
vn 0.999999 -0.001354 -0.000562
vn 0.999999 -0.001354 -0.000562
vn 0.999999 -0.001354 -0.000562
vn 0.999999 -0.001354 -0.000562
vn -0.000000 -0.000001 1.000000
vn -0.000000 -0.000001 1.000000
vn 0.000000 -0.000001 -1.000000
vn 0.000000 -0.000001 -1.000000
vn 0.000000 -0.000001 -1.000000
vn 0.000000 -0.000001 -1.000000
vn 1.000000 0.000000 -0.000742
vn 1.000000 0.000000 -0.000742
vn 1.000000 0.000000 -0.000742
vn 1.000000 0.000000 -0.000742
vn -0.999999 0.001354 0.000561
vn -0.999999 0.001354 0.000561
vn -0.999999 0.001354 0.000561
vn -0.999999 0.001354 0.000561
vn 0.000000 0.000000 -1.000000
vn 0.000000 0.000000 -1.000000
vn 0.000000 0.000000 -1.000000
vn 0.000000 0.000000 -1.000000
vn 0.000000 -0.000001 1.000000
vn 0.000000 -0.000001 1.000000
vn 0.000000 -0.000001 1.000000
vn 0.000000 -0.000001 1.000000
vn -1.000000 0.000000 -0.000000
vn -1.000000 0.000000 -0.000000
vn -1.000000 0.000000 -0.000000
vn -1.000000 0.000000 -0.000000
vn 1.000000 0.000000 0.000000
vn 1.000000 0.000000 0.000000
vn 1.000000 0.000000 0.000000
vn 1.000000 0.000000 0.000000
vn 0.000000 0.000000 1.000000
vn 0.000000 0.000000 1.000000
vn 0.000000 0.000000 -1.000000
vn 0.000000 0.000000 -1.000000
vn 0.000000 0.000000 -1.000000
vn 0.000000 0.000000 -1.000000
vn 1.000000 0.000000 0.000000
vn 1.000000 0.000000 0.000000
vn 1.000000 0.000000 0.000000
vn 1.000000 0.000000 0.000000
vn -1.000000 0.000000 -0.000000
vn -1.000000 0.000000 -0.000000
vn -1.000000 0.000000 -0.000000
vn -1.000000 0.000000 -0.000000
vn 0.000000 0.000000 -1.000000
vn 0.000000 0.000000 -1.000000
vn 0.000000 0.000000 -1.000000
vn 0.000000 0.000000 -1.000000
vn 0.000000 0.000000 1.000000
vn 0.000000 0.000000 1.000000
vn 0.000000 0.000000 1.000000
vn 0.000000 0.000000 1.000000
vn -1.000000 0.000000 -0.000000
vn -1.000000 0.000000 -0.000000
vn -1.000000 0.000000 -0.000000
vn -1.000000 0.000000 -0.000000
vn -0.000000 0.000000 -1.000000
vn -0.000000 0.000000 -1.000000
vn -0.000000 0.000000 -1.000000
vn -0.000000 0.000000 -1.000000
vn 1.000000 0.000000 0.000000
vn 1.000000 0.000000 0.000000
vn 1.000000 0.000000 0.000000
vn 1.000000 0.000000 0.000000
vn 0.000000 0.000000 1.000000
vn 0.000000 0.000000 1.000000
vn 0.000000 0.000000 1.000000
vn 0.000000 0.000000 1.000000
vn -1.000000 0.000000 -0.000000
vn -1.000000 0.000000 -0.000000
vn -1.000000 0.000000 -0.000000
vn -1.000000 0.000000 -0.000000
vn 0.000000 0.000000 -1.000000
vn 0.000000 0.000000 -1.000000
vn 0.000000 0.000000 -1.000000
vn 0.000000 0.000000 -1.000000
vn 1.000000 0.000000 0.000000
vn 1.000000 0.000000 0.000000
vn 1.000000 0.000000 0.000000
vn 1.000000 0.000000 0.000000
vn 0.000000 0.000000 1.000000
vn 0.000000 0.000000 1.000000
vn 0.000000 0.000000 1.000000
vn 0.000000 0.000000 1.000000
vn -1.000000 0.000000 -0.000000
vn -1.000000 0.000000 -0.000000
vn -1.000000 0.000000 -0.000000
vn -1.000000 0.000000 -0.000000
vn 0.000000 0.000000 -1.000000
vn 0.000000 0.000000 -1.000000
vn 0.000000 0.000000 -1.000000
vn 0.000000 0.000000 -1.000000
vn 1.000000 0.000000 0.000000
vn 1.000000 0.000000 0.000000
vn 1.000000 0.000000 0.000000
vn 1.000000 0.000000 0.000000
vn 0.000000 0.000000 1.000000
vn 0.000000 0.000000 1.000000
vn 0.000000 0.000000 1.000000
vn 0.000000 0.000000 1.000000
vn -1.000000 0.000000 -0.000000
vn -1.000000 0.000000 -0.000000
vn -1.000000 0.000000 -0.000000
vn -1.000000 0.000000 -0.000000
vn 0.000000 0.000000 -1.000000
vn 0.000000 0.000000 -1.000000
vn 0.000000 0.000000 -1.000000
vn 0.000000 0.000000 -1.000000
vn 1.000000 0.000000 0.000000
vn 1.000000 0.000000 0.000000
vn 1.000000 0.000000 0.000000
vn 1.000000 0.000000 0.000000
vn 0.000000 0.000000 1.000000
vn 0.000000 0.000000 1.000000
vn 0.000000 0.000000 1.000000
vn 0.000000 0.000000 1.000000
vn -0.000000 -1.000000 0.000000
vn -0.000000 -1.000000 0.000000
vn -0.000000 -1.000000 0.000000
vn -0.000000 -1.000000 0.000000
vn 0.000000 1.000000 0.000000
vn 0.000000 1.000000 0.000000
vn 0.000000 1.000000 0.000000
vn 0.000000 1.000000 0.000000
vn -0.000000 -1.000000 0.000000
vn -0.000000 -1.000000 0.000000
vn -0.000000 1.000000 -0.000000
vn -0.000000 1.000000 -0.000000
vn -0.000000 -1.000000 0.000000
vn -0.000000 -1.000000 0.000000
vn -0.000000 1.000000 -0.000000
vn -0.000000 1.000000 -0.000000
vn -0.000000 -1.000000 0.000000
vn -0.000000 -1.000000 0.000000
vn -0.000000 -1.000000 0.000000
vn -0.000000 -1.000000 0.000000
vn -0.000000 1.000000 -0.000000
vn -0.000000 1.000000 -0.000000
vn -0.000000 1.000000 -0.000000
vn -0.000000 1.000000 -0.000000
vn 0.000000 -1.000000 0.000000
vn 0.000000 -1.000000 0.000000
vn 0.000000 1.000000 0.000000
vn 0.000000 1.000000 0.000000
vn 0.000000 -1.000000 0.000000
vn 0.000000 -1.000000 0.000000
vn 0.000000 1.000000 0.000000
vn 0.000000 1.000000 0.000000
vn -1.000000 0.000000 -0.000000
vn -1.000000 0.000000 -0.000000
vn -1.000000 0.000000 -0.000000
vn -1.000000 0.000000 -0.000000
vn 0.000000 0.000000 -1.000000
vn 0.000000 0.000000 -1.000000
vn 0.000000 0.000000 -1.000000
vn 0.000000 0.000000 -1.000000
vn 1.000000 0.000000 0.000000
vn 1.000000 0.000000 0.000000
vn 1.000000 0.000000 0.000000
vn 1.000000 0.000000 0.000000
vn 0.000000 0.000000 1.000000
vn 0.000000 0.000000 1.000000
vn 0.000000 0.000000 1.000000
vn 0.000000 0.000000 1.000000
vn -0.999999 0.000000 -0.000992
vn -0.999999 0.000000 -0.000992
vn -0.999999 0.000000 -0.000992
vn -0.999999 0.000000 -0.000992
vn 0.000000 0.000000 -1.000000
vn 0.000000 0.000000 -1.000000
vn 0.000000 0.000000 -1.000000
vn 0.000000 0.000000 -1.000000
vn 0.999999 0.000000 0.000991
vn 0.999999 0.000000 0.000991
vn 0.999999 0.000000 0.000991
vn 0.999999 0.000000 0.000991
vn 0.000000 0.000000 1.000000
vn 0.000000 0.000000 1.000000
vn 0.000000 0.000000 1.000000
vn 0.000000 0.000000 1.000000
vn -0.000000 -1.000000 0.000000
vn -0.000000 -1.000000 0.000000
vn -0.000000 -1.000000 0.000000
vn -0.000000 -1.000000 0.000000
vn 0.000000 1.000000 0.000000
vn 0.000000 1.000000 0.000000
vn 0.000000 1.000000 0.000000
vn 0.000000 1.000000 0.000000
vn -0.000000 -1.000000 0.000000
vn -0.000000 -1.000000 0.000000
vn 0.000000 1.000000 0.000000
vn 0.000000 1.000000 0.000000
vn -0.000000 -1.000000 0.000000
vn -0.000000 -1.000000 0.000000
vn 0.000000 1.000000 0.000000
vn 0.000000 1.000000 0.000000
vn -0.027252 -0.907520 -0.419123
vn -0.029866 -0.999551 -0.002200
vn -0.029870 -0.999551 -0.002201
vn -0.026020 -0.906846 -0.420658
vn -0.000001 0.999990 0.004399
vn -0.000001 0.999990 0.004394
vn -0.000001 0.999990 0.004413
vn -0.000001 0.999990 0.004401
vn 0.026947 -0.907592 -0.418988
vn 0.026655 -0.907430 -0.419357
vn 0.000000 0.999990 0.004399
vn 0.000000 0.999990 0.004400
vn 0.029825 -0.999553 -0.002197
vn 0.029912 -0.999550 -0.002204
vn 0.000000 0.999990 0.004394
vn 0.000000 0.999990 0.004413
vn -0.999999 -0.001536 -0.000635
vn -0.999999 -0.001536 -0.000635
vn -0.999999 -0.001536 -0.000635
vn -0.999999 -0.001536 -0.000635
vn 0.000000 -0.000007 1.000000
vn 0.000000 -0.000007 1.000000
vn 0.000000 -0.000007 1.000000
vn 0.000000 -0.000007 1.000000
vn 0.000000 -0.000003 1.000000
vn 0.000000 -0.000003 1.000000
vn 0.000000 -0.000003 1.000000
vn 0.000000 -0.000003 1.000000
vn 1.000000 0.000002 0.000001
vn 1.000000 0.000002 0.000001
vn 1.000000 0.000002 0.000001
vn 1.000000 0.000002 0.000001
vn -1.000000 -0.000727 -0.000135
vn -1.000000 -0.000734 -0.000136
vn -0.999999 -0.001535 -0.000285
vn -0.999999 -0.001535 -0.000285
vn 0.000000 0.999735 0.023002
vn 0.000000 0.999735 0.023002
vn -0.000000 0.999936 0.011335
vn -0.000000 0.999936 0.011340
vn 0.000000 -1.000000 0.000000
vn 0.000000 -1.000000 0.000000
vn 0.000000 -1.000000 0.000000
vn 0.000000 -1.000000 0.000000
vn 0.000000 1.000000 0.000000
vn 0.000000 1.000000 0.000000
vn 0.000000 1.000000 0.000000
vn 0.000000 1.000000 0.000000
vn 1.000000 0.000003 -0.000000
vn 1.000000 0.000003 -0.000000
vn 1.000000 0.000003 -0.000000
vn 1.000000 0.000003 -0.000000
vn 0.000000 -1.000000 0.000000
vn 0.000000 -1.000000 0.000000
vn 0.000000 -1.000000 0.000000
vn 0.000000 -1.000000 0.000000
vn -0.000000 -1.000000 0.000000
vn -0.000000 -1.000000 0.000000
vn -0.000000 -1.000000 0.000000
vn -0.000000 -1.000000 0.000000
vn -0.005362 0.999919 0.011502
vn -0.005362 0.999920 0.011502
vn -0.002643 0.999980 0.005669
vn -0.002643 0.999980 0.005670
vn -0.010724 0.999942 -0.000000
vn -0.010724 0.999943 -0.000000
vn -0.010724 0.999943 -0.000000
vn -0.010724 0.999943 -0.000000
vn -0.000000 -0.000006 1.000000
vn -0.000000 -0.000006 1.000000
vn -0.000000 -0.000006 1.000000
vn -0.000000 -0.000006 1.000000
vn 0.005361 -0.999658 -0.025587
vn 0.005361 -0.999658 -0.025587
vn 0.005361 -0.999658 -0.025587
vn 0.005361 -0.999658 -0.025587
vn 0.000000 -1.000000 0.000000
vn 0.000000 -1.000000 0.000000
vn 0.000000 -1.000000 0.000000
vn 0.000000 -1.000000 0.000000
vn 0.000000 -1.000000 0.000000
vn 0.000000 -1.000000 0.000000
vn 0.000000 -1.000000 0.000000
vn 0.000000 -1.000000 0.000000
vn 0.000000 -1.000000 0.000000
vn 0.000000 -1.000000 0.000000
vn 0.000000 -1.000000 0.000000
vn 0.000000 -1.000000 0.000000
vn 0.000000 -1.000000 0.000000
vn 0.000000 -1.000000 0.000000
vn 0.000000 -1.000000 0.000000
vn 0.000000 -1.000000 0.000000
vn 0.000000 -1.000000 0.000000
vn 0.000000 -1.000000 0.000000
vn 0.000000 -1.000000 0.000000
vn 0.000000 -1.000000 0.000000
vn 0.000000 -1.000000 0.000000
vn -1.000000 0.000000 -0.000000
vn -1.000000 0.000000 -0.000000
vn -1.000000 0.000000 -0.000000
vn -1.000000 0.000000 -0.000000
vn -1.000000 0.000000 -0.000000
vn -1.000000 0.000000 -0.000000
vn 0.000000 1.000000 0.000000
vn 0.000000 1.000000 0.000000
vn 0.000000 1.000000 0.000000
vn 0.000000 1.000000 0.000000
vn 0.000000 1.000000 0.000000
vn 0.000000 1.000000 0.000000
vn 1.000000 0.000000 0.000000
vn 1.000000 0.000000 0.000000
vn 1.000000 0.000000 0.000000
vn 1.000000 0.000000 0.000000
vn 1.000000 0.000000 0.000000
vn 1.000000 0.000000 0.000000
vn 0.000000 1.000000 0.000000
vn 0.000000 1.000000 0.000000
vn 0.000000 1.000000 0.000000
vn 0.000000 1.000000 0.000000
vn 0.000000 1.000000 0.000000
vn 0.000000 1.000000 0.000000
vn 0.000000 1.000000 0.000000
vn 0.000000 1.000000 0.000000
vn 0.000000 1.000000 0.000000
vn -0.000000 1.000000 -0.000000
vn -0.000000 1.000000 -0.000000
vn -0.000000 1.000000 -0.000000
vn -0.000000 1.000000 -0.000000
vn -0.000000 1.000000 -0.000000
vn -0.000000 1.000000 -0.000000
vn 0.000000 -1.000000 0.000000
vn 0.000000 -1.000000 0.000000
vn 0.000000 -1.000000 0.000000
vn 0.000000 -1.000000 0.000000
vn 0.000000 0.000000 -1.000000
vn 0.000000 0.000000 -1.000000
vn 0.000000 0.000000 -1.000000
vn 0.000000 0.000000 -1.000000
vn 0.000000 -1.000000 0.000000
vn 0.000000 -1.000000 0.000000
vn 0.000000 -1.000000 0.000000
vn 0.000000 -1.000000 0.000000
vn 1.000000 0.000000 0.000000
vn 1.000000 0.000000 0.000000
vn 0.000000 0.000000 0.000000
vn 1.000000 0.000000 0.000000
vn 0.000000 -0.217036 -0.976164
vn 0.000000 -0.217036 -0.976164
vn 0.000000 -0.217036 -0.976164
vn 0.000000 -0.217036 -0.976164
vn 0.000000 -1.000000 0.000000
vn 0.000000 -1.000000 0.000000
vn 0.000000 -1.000000 0.000000
vn 0.000000 -1.000000 0.000000
vn 0.000000 -0.338873 -0.940832
vn 0.000000 -0.338873 -0.940832
vn 0.000000 -0.338873 -0.940832
vn 0.000000 -0.338873 -0.940832
vn 0.000000 -1.000000 0.000000
vn 0.000000 -1.000000 0.000000
vn 0.000000 -1.000000 0.000000
vn 0.000000 -1.000000 0.000000
vn 0.000000 -0.217036 -0.976164
vn 0.000000 -0.217036 -0.976164
vn 0.000000 -0.217036 -0.976164
vn 0.000000 -0.217036 -0.976164
vn 0.000000 -1.000000 0.000000
vn 0.000000 -1.000000 0.000000
vn 0.000000 -1.000000 0.000000
vn 0.000000 -1.000000 0.000000
vn 0.000002 0.554895 -0.831920
vn 0.000002 0.554895 -0.831920
vn 0.000002 0.554895 -0.831920
vn 0.000002 0.554895 -0.831920
vn -0.990539 -0.000002 -0.137230
vn -0.990539 -0.000002 -0.137230
vn -0.990539 -0.000002 -0.137230
vn -0.990539 -0.000002 -0.137230
vn 0.000000 -1.000000 0.000000
vn 0.000000 -1.000000 0.000000
vn 0.000000 -1.000000 0.000000
vn 0.000000 -1.000000 0.000000
vn -0.000000 -0.224897 -0.974382
vn -0.000000 -0.224897 -0.974382
vn -0.000000 -0.224897 -0.974382
vn -0.000000 -0.224897 -0.974382
vn 0.000000 1.000000 0.000000
vn 0.000000 1.000000 0.000000
vn 0.000000 1.000000 0.000000
vn 0.000000 1.000000 0.000000
vn 0.036287 0.999316 0.007126
vn 0.006619 0.999977 0.001299
vn 0.023362 0.999600 0.015950
vn 0.023362 0.999600 0.015950
vn 0.000000 1.000000 0.000000
vn 0.000000 1.000000 0.000000
vn 0.000000 1.000000 0.000000
vn 0.000000 1.000000 0.000000
vn 0.000000 1.000000 0.000000
vn 0.000000 1.000000 0.000000
vn 0.000000 1.000000 0.000000
vn 0.000000 1.000000 0.000000
vn 0.000000 1.000000 0.000000
vn 0.000000 1.000000 0.000000
vn 0.000000 1.000000 0.000000
vn 0.000000 1.000000 0.000000
vn 0.000000 1.000000 0.000000
vn 0.000000 1.000000 0.000000
vn -0.007351 0.999973 0.000648
vn 0.000000 1.000000 0.000000
vn 0.000000 1.000000 0.000000
vn 0.000000 1.000000 0.000000
vn 0.000000 1.000000 0.000000
vn -0.040242 0.999184 0.003556
vn -0.025929 0.999632 0.007966
vn 0.000000 1.000000 0.000000
vn 0.000000 1.000000 0.000000
vn 0.000000 1.000000 0.000000
vn 0.000000 1.000000 0.000000
vn 0.000000 1.000000 0.000000
vn 0.000000 1.000000 0.000000
vn 0.000000 1.000000 0.000000
vn 0.000000 1.000000 0.000000
vn 0.000000 1.000000 0.000000
vn 0.000000 1.000000 0.000000
vn 0.000000 1.000000 0.000000
vn 0.000000 1.000000 0.000000
vn 0.000000 1.000000 0.000000
vn 0.000000 1.000000 0.000000
vn 0.000000 1.000000 0.000000
vn 0.000000 1.000000 0.000000
vn -0.000000 -1.000000 0.000000
vn -0.000000 -1.000000 0.000000
vn 0.000000 -1.000000 0.000000
vn 0.000000 -1.000000 0.000000
vn -0.005467 -0.999924 -0.011033
vn -0.036287 -0.999316 -0.007126
vn -0.023362 -0.999600 -0.015950
vn -0.007558 -0.999925 -0.009668
vn 0.000000 -1.000000 0.000000
vn 0.000000 -1.000000 0.000000
vn 0.000000 -1.000000 0.000000
vn 0.000000 -1.000000 0.000000
vn 0.000000 -1.000000 0.000000
vn -0.000000 -1.000000 0.000000
vn -0.000000 -1.000000 0.000000
vn 0.000000 -1.000000 0.000000
vn 0.008276 -0.999964 -0.002053
vn 0.000000 -1.000000 0.000000
vn 0.003890 -0.998618 -0.052402
vn 0.003912 -0.999992 -0.000731
vn -0.003913 -0.999992 -0.000731
vn -0.003901 -0.998622 -0.052335
vn 0.003594 -0.999920 -0.012101
vn -0.000000 -1.000000 0.000000
vn -0.000000 -1.000000 0.000000
vn -0.000000 -1.000000 0.000000
vn -0.000000 -1.000000 0.000000
vn 0.025929 -0.999632 -0.007966
vn 0.040234 -0.999133 -0.010667
vn 0.010829 -0.999917 -0.006974
vn 0.000000 -0.000001 -1.000000
vn 0.000000 0.000000 -1.000000
vn 0.000000 0.000000 -1.000000
vn 0.000000 0.000000 -1.000000
vn 1.000000 0.000000 0.000000
vn 1.000000 0.000000 0.000000
vn 1.000000 0.000000 0.000000
vn 1.000000 0.000000 0.000000
vn -1.000000 0.000000 -0.000000
vn -1.000000 0.000000 -0.000000
vn 0.000000 0.000000 -1.000000
vn 0.000000 0.000000 -1.000000
vn -0.000000 -0.000000 -1.000000
vn -0.000000 -0.000000 -1.000000
vn -1.000000 0.000000 -0.000000
vn -1.000000 0.000000 -0.000000
vn 0.000000 0.000000 -1.000000
vn 0.000000 0.000000 -1.000000
vn 0.000000 0.000000 -1.000000
vn 0.000000 0.000000 -1.000000
vn 0.000000 0.000000 -1.000000
vn 0.000000 0.000000 -1.000000
vn 0.000000 0.000000 -1.000000
vn 0.000000 0.000000 -1.000000
vn 0.000000 0.000000 -1.000000
vn 0.000000 0.000000 -1.000000
vn 0.000000 0.000000 -1.000000
vn 0.000000 0.000000 -1.000000
vn -0.000000 -0.000000 -1.000000
vn -0.000000 -0.000000 -1.000000
vn 0.000000 -0.000001 -1.000000
vn 0.000000 0.000000 -1.000000
vn -0.051770 0.998532 0.015905
vn 0.000000 0.000000 -1.000000
vn 0.000000 0.000000 -1.000000
vn -1.000000 0.000000 -0.000000
vn -1.000000 0.000000 -0.000000
vn -1.000000 0.000000 -0.000000
vn -1.000000 0.000000 -0.000000
vn 0.000000 0.000000 -1.000000
vn 0.000000 0.000000 -1.000000
vn 0.000000 0.000000 -1.000000
vn 0.000000 0.000000 -1.000000
vn 1.000000 -0.000000 0.000000
vn 1.000000 -0.000000 0.000000
vn 1.000000 -0.000000 0.000000
vn 1.000000 -0.000000 0.000000
vn 0.000000 -0.000000 1.000000
vn 0.000000 -0.000000 1.000000
vn 0.000000 -0.000000 1.000000
vn 0.000000 -0.000000 1.000000
vn -1.000000 0.000000 -0.000000
vn -1.000000 0.000000 -0.000000
vn -1.000000 0.000000 -0.000000
vn -1.000000 0.000000 -0.000000
vn 0.000000 0.000000 -1.000000
vn 0.000000 0.000000 -1.000000
vn 0.000000 0.000000 -1.000000
vn 0.000000 0.000000 -1.000000
vn 1.000000 0.000000 0.000000
vn 1.000000 0.000000 0.000000
vn 1.000000 0.000000 0.000000
vn 1.000000 0.000000 0.000000
vn 0.000000 0.000000 1.000000
vn 0.000000 0.000000 1.000000
vn 0.000000 0.000000 1.000000
vn 0.000000 0.000000 1.000000
vn -0.999999 0.001288 -0.000351
vn -0.999999 0.001288 -0.000351
vn -0.999999 0.001288 -0.000351
vn -0.999999 0.001288 -0.000351
vn 1.000000 0.000000 0.000000
vn 1.000000 0.000000 0.000000
vn 1.000000 0.000000 0.000000
vn 1.000000 0.000000 0.000000
vn -0.000000 -0.000000 -1.000000
vn -0.000000 -0.000000 -1.000000
vn 0.000000 0.000000 1.000000
vn 0.000000 0.000000 1.000000
vn 0.000000 0.000000 1.000000
vn 0.000000 0.000000 1.000000
vn 0.999999 -0.001285 0.000351
vn 0.999999 -0.001285 0.000351
vn 0.999999 -0.001285 0.000351
vn 0.999999 -0.001285 0.000351
vn -1.000000 0.000001 -0.000000
vn -1.000000 0.000001 -0.000000
vn -1.000000 0.000001 -0.000000
vn -1.000000 0.000001 -0.000000
vn 0.000000 0.000000 1.000000
vn 0.000000 0.000000 1.000000
vn 0.000000 0.000000 1.000000
vn 0.000000 0.000000 1.000000
vn 0.000000 0.000000 -1.000000
vn 0.000000 0.000000 -1.000000
vn 0.000000 0.000000 -1.000000
vn 0.000000 0.000000 -1.000000
vn -1.000000 0.000000 -0.000000
vn -1.000000 0.000000 -0.000000
vn -1.000000 0.000000 -0.000000
vn -1.000000 0.000000 -0.000000
vn 1.000000 0.000000 0.000000
vn 1.000000 0.000000 0.000000
vn 1.000000 0.000000 0.000000
vn 1.000000 0.000000 0.000000
vn 0.000000 0.000001 -1.000000
vn 0.000000 0.000001 -1.000000
vn 0.000000 0.000000 1.000000
vn 0.000000 0.000000 1.000000
vn 0.000000 0.000000 1.000000
vn 0.000000 0.000000 1.000000
vn 1.000000 0.000000 0.000000
vn 1.000000 0.000000 0.000000
vn 1.000000 0.000000 0.000000
vn 1.000000 0.000000 0.000000
vn -1.000000 0.000000 -0.000000
vn -1.000000 0.000000 -0.000000
vn -1.000000 0.000000 -0.000000
vn -1.000000 0.000000 -0.000000
vn 0.000000 0.000000 1.000000
vn 0.000000 0.000000 1.000000
vn 0.000000 0.000000 1.000000
vn 0.000000 0.000000 1.000000
vn 0.000000 0.000000 -1.000000
vn 0.000000 0.000000 -1.000000
vn 0.000000 0.000000 -1.000000
vn 0.000000 0.000000 -1.000000
vn -1.000000 0.000000 -0.000000
vn -1.000000 0.000000 -0.000000
vn -1.000000 0.000000 -0.000000
vn -1.000000 0.000000 -0.000000
vn -0.000000 0.000000 1.000000
vn -0.000000 0.000000 1.000000
vn -0.000000 0.000000 1.000000
vn -0.000000 0.000000 1.000000
vn 1.000000 0.000000 0.000000
vn 1.000000 0.000000 0.000000
vn 1.000000 0.000000 0.000000
vn 1.000000 0.000000 0.000000
vn 0.000000 0.000000 -1.000000
vn 0.000000 0.000000 -1.000000
vn 0.000000 0.000000 -1.000000
vn 0.000000 0.000000 -1.000000
vn -1.000000 0.000000 -0.000000
vn -1.000000 0.000000 -0.000000
vn -1.000000 0.000000 -0.000000
vn -1.000000 0.000000 -0.000000
vn 0.000000 0.000000 1.000000
vn 0.000000 0.000000 1.000000
vn 0.000000 0.000000 1.000000
vn 0.000000 0.000000 1.000000
vn 1.000000 0.000000 0.000000
vn 1.000000 0.000000 0.000000
vn 1.000000 0.000000 0.000000
vn 1.000000 0.000000 0.000000
vn 0.000000 0.000000 -1.000000
vn 0.000000 0.000000 -1.000000
vn 0.000000 0.000000 -1.000000
vn 0.000000 0.000000 -1.000000
vn -1.000000 0.000000 -0.000000
vn -1.000000 0.000000 -0.000000
vn -1.000000 0.000000 -0.000000
vn -1.000000 0.000000 -0.000000
vn 0.000000 0.000000 1.000000
vn 0.000000 0.000000 1.000000
vn 0.000000 0.000000 1.000000
vn 0.000000 0.000000 1.000000
vn 1.000000 0.000000 0.000000
vn 1.000000 0.000000 0.000000
vn 1.000000 0.000000 0.000000
vn 1.000000 0.000000 0.000000
vn 0.000000 0.000000 -1.000000
vn 0.000000 0.000000 -1.000000
vn 0.000000 0.000000 -1.000000
vn 0.000000 0.000000 -1.000000
vn -1.000000 0.000000 -0.000000
vn -1.000000 0.000000 -0.000000
vn -1.000000 0.000000 -0.000000
vn -1.000000 0.000000 -0.000000
vn 0.000000 0.000000 1.000000
vn 0.000000 0.000000 1.000000
vn 0.000000 0.000000 1.000000
vn 0.000000 0.000000 1.000000
vn 1.000000 0.000000 0.000000
vn 1.000000 0.000000 0.000000
vn 1.000000 0.000000 0.000000
vn 1.000000 0.000000 0.000000
vn 0.000000 0.000000 -1.000000
vn 0.000000 0.000000 -1.000000
vn 0.000000 0.000000 -1.000000
vn 0.000000 0.000000 -1.000000
vn 0.000000 -1.000000 0.000000
vn 0.000000 -1.000000 0.000000
vn 0.000000 -1.000000 0.000000
vn 0.000000 -1.000000 0.000000
vn 0.000000 1.000000 0.000000
vn 0.000000 1.000000 0.000000
vn 0.000000 1.000000 0.000000
vn 0.000000 1.000000 0.000000
vn 0.000000 -1.000000 0.000000
vn 0.000000 -1.000000 0.000000
vn 0.000000 1.000000 0.000000
vn 0.000000 1.000000 0.000000
vn 0.000000 -1.000000 0.000000
vn 0.000000 -1.000000 0.000000
vn 0.000000 1.000000 0.000000
vn 0.000000 1.000000 0.000000
vn 0.000000 -1.000000 0.000000
vn 0.000000 -1.000000 0.000000
vn 0.000000 -1.000000 0.000000
vn 0.000000 -1.000000 0.000000
vn 0.000000 1.000000 0.000000
vn 0.000000 1.000000 0.000000
vn 0.000000 1.000000 0.000000
vn 0.000000 1.000000 0.000000
vn 0.000000 -1.000000 0.000000
vn 0.000000 -1.000000 0.000000
vn -0.000000 1.000000 -0.000000
vn -0.000000 1.000000 -0.000000
vn 0.000000 -1.000000 0.000000
vn 0.000000 -1.000000 0.000000
vn -0.000000 1.000000 -0.000000
vn -0.000000 1.000000 -0.000000
vn -1.000000 0.000000 -0.000000
vn -1.000000 0.000000 -0.000000
vn -1.000000 0.000000 -0.000000
vn -1.000000 0.000000 -0.000000
vn 0.000000 0.000000 1.000000
vn 0.000000 0.000000 1.000000
vn 0.000000 0.000000 1.000000
vn 0.000000 0.000000 1.000000
vn 1.000000 0.000000 0.000000
vn 1.000000 0.000000 0.000000
vn 1.000000 0.000000 0.000000
vn 1.000000 0.000000 0.000000
vn 0.000000 0.000000 -1.000000
vn 0.000000 0.000000 -1.000000
vn 0.000000 0.000000 -1.000000
vn 0.000000 0.000000 -1.000000
vn -1.000000 0.000000 -0.000000
vn -1.000000 0.000000 -0.000000
vn -1.000000 0.000000 -0.000000
vn -1.000000 0.000000 -0.000000
vn 0.000000 0.000000 1.000000
vn 0.000000 0.000000 1.000000
vn 0.000000 0.000000 1.000000
vn 0.000000 0.000000 1.000000
vn 1.000000 0.000000 0.000000
vn 1.000000 0.000000 0.000000
vn 1.000000 0.000000 0.000000
vn 1.000000 0.000000 0.000000
vn 0.000000 0.000000 -1.000000
vn 0.000000 0.000000 -1.000000
vn 0.000000 0.000000 -1.000000
vn 0.000000 0.000000 -1.000000
vn 0.000000 -1.000000 0.000000
vn 0.000000 -1.000000 0.000000
vn 0.000000 -1.000000 0.000000
vn 0.000000 -1.000000 0.000000
vn 0.000000 1.000000 0.000000
vn 0.000000 1.000000 0.000000
vn 0.000000 1.000000 0.000000
vn 0.000000 1.000000 0.000000
vn 0.000000 -1.000000 0.000000
vn 0.000000 -1.000000 0.000000
vn 0.000000 1.000000 0.000000
vn 0.000000 1.000000 0.000000
vn 0.000000 -1.000000 0.000000
vn 0.000000 -1.000000 0.000000
vn 0.000000 1.000000 0.000000
vn 0.000000 1.000000 0.000000
vn -0.000001 -1.000000 0.000000
vn -0.000001 -1.000000 0.000000
vn -0.000001 -1.000000 0.000000
vn -0.000001 -1.000000 0.000000
vn 0.000001 1.000000 0.000000
vn 0.000001 1.000000 0.000000
vn 0.000001 1.000000 0.000000
vn 0.000001 1.000000 0.000000
vn 0.000001 -1.000000 0.000000
vn 0.000001 -1.000000 0.000000
vn 0.000000 1.000000 0.000000
vn 0.000000 1.000000 0.000000
vn 0.000001 -1.000000 0.000000
vn 0.000001 -1.000000 0.000000
vn 0.000000 1.000000 0.000000
vn 0.000000 1.000000 0.000000
vn -1.000000 -0.000004 0.000000
vn -1.000000 -0.000004 0.000000
vn -1.000000 -0.000004 0.000000
vn -1.000000 -0.000004 0.000000
vn 0.000000 -0.000007 -1.000000
vn 0.000000 -0.000007 -1.000000
vn 0.000000 -0.000007 -1.000000
vn 0.000000 -0.000007 -1.000000
vn 0.000000 -0.000003 -1.000000
vn 0.000000 -0.000003 -1.000000
vn 0.000000 -0.000003 -1.000000
vn 0.000000 -0.000003 -1.000000
vn 1.000000 0.000002 -0.000001
vn 1.000000 0.000002 -0.000001
vn 1.000000 0.000002 -0.000001
vn 1.000000 0.000002 -0.000001
vn -1.000000 -0.000003 -0.000000
vn -1.000000 -0.000003 -0.000000
vn -0.000000 1.000000 -0.000000
vn -0.000000 1.000000 -0.000000
vn 0.000000 -1.000000 0.000000
vn 0.000000 -1.000000 0.000000
vn 0.000000 1.000000 0.000000
vn 0.000000 1.000000 0.000000
vn 1.000000 0.000003 0.000000
vn 1.000000 0.000003 0.000000
vn 0.000000 -1.000000 0.000000
vn 0.000000 -1.000000 0.000000
vn 0.000000 -1.000000 0.000000
vn 0.000000 -1.000000 0.000000
vn 0.000000 1.000000 0.000000
vn 0.000000 1.000000 0.000000
vn 0.000000 1.000000 0.000000
vn 0.000000 1.000000 0.000000
vn 0.000000 1.000000 0.000000
vn 0.000000 1.000000 0.000000
vn -0.000000 -0.000005 -1.000000
vn -0.000000 -0.000005 -1.000000
vn -0.000000 -0.000005 -1.000000
vn -0.000000 -0.000005 -1.000000
vn 0.000000 -1.000000 0.000000
vn 0.000000 -1.000000 0.000000
vn 0.000000 -1.000000 0.000000
vn 0.000000 -1.000000 0.000000
vn 0.000000 -1.000000 0.000000
vn 0.000000 -1.000000 0.000000
vn 0.000000 -1.000000 0.000000
vn 0.000000 -1.000000 0.000000
vn 0.000000 -1.000000 0.000000
vn 0.000000 -1.000000 0.000000
vn 0.000000 -1.000000 0.000000
vn 0.000000 -1.000000 0.000000
vn 0.000000 -1.000000 0.000000
vn 0.000000 -1.000000 0.000000
vn 0.000000 -1.000000 0.000000
vn 0.000000 -1.000000 0.000000
vn 0.000000 -1.000000 0.000000
vn 0.000000 -1.000000 0.000000
vn 0.000000 -1.000000 0.000000
vn 0.000000 -1.000000 0.000000
vn 0.000000 -1.000000 0.000000
vn 0.000000 -1.000000 0.000000
vn 0.000000 -1.000000 0.000000
vn 0.000000 -1.000000 0.000000
vn 0.000000 -1.000000 0.000000
vn -1.000000 0.000000 -0.000000
vn -1.000000 0.000000 -0.000000
vn -1.000000 0.000000 -0.000000
vn -1.000000 0.000000 -0.000000
vn -1.000000 0.000000 -0.000000
vn -1.000000 0.000000 -0.000000
vn 0.000000 1.000000 0.000000
vn 0.000000 1.000000 0.000000
vn 0.000000 1.000000 0.000000
vn 0.000000 1.000000 0.000000
vn 0.000000 1.000000 0.000000
vn 0.000000 1.000000 0.000000
vn 1.000000 0.000000 0.000000
vn 1.000000 0.000000 0.000000
vn 1.000000 0.000000 0.000000
vn 1.000000 0.000000 0.000000
vn 1.000000 0.000000 0.000000
vn 1.000000 0.000000 0.000000
vn 0.000000 1.000000 0.000000
vn 0.000000 1.000000 0.000000
vn 0.000000 1.000000 0.000000
vn 0.000000 1.000000 0.000000
vn 0.000000 1.000000 0.000000
vn 0.000000 1.000000 0.000000
vn 0.000000 1.000000 0.000000
vn 0.000000 1.000000 0.000000
vn 0.000000 1.000000 0.000000
vn -0.000000 1.000000 -0.000000
vn -0.000000 1.000000 -0.000000
vn -0.000000 1.000000 -0.000000
vn -0.000000 1.000000 -0.000000
vn -0.000000 1.000000 -0.000000
vn -0.000000 1.000000 -0.000000
vn 0.000000 -1.000000 0.000000
vn 0.000000 -1.000000 0.000000
vn 0.000000 -1.000000 0.000000
vn 0.000000 -1.000000 0.000000
vn 0.000000 0.000000 1.000000
vn 0.000000 0.000000 1.000000
vn 0.000000 0.000000 1.000000
vn 0.000000 0.000000 1.000000
vn 0.000000 -1.000000 0.000000
vn 0.000000 -1.000000 0.000000
vn 0.000000 -1.000000 0.000000
vn 0.000000 -1.000000 0.000000
vn 1.000000 0.000000 0.000000
vn 1.000000 0.000000 0.000000
vn 0.000000 0.000000 0.000000
vn 1.000000 0.000000 0.000000
vn 0.000000 -0.110487 0.993878
vn 0.000000 -0.110487 0.993878
vn 0.000000 -0.110487 0.993878
vn 0.000000 -0.110487 0.993878
vn 0.000000 -1.000000 0.000000
vn 0.000000 -1.000000 0.000000
vn 0.000000 -1.000000 0.000000
vn 0.000000 -1.000000 0.000000
vn 0.000000 -0.089683 0.995970
vn 0.000000 -0.089683 0.995970
vn 0.000000 -0.089683 0.995970
vn 0.000000 -0.089683 0.995970
vn 0.000000 -1.000000 0.000000
vn 0.000000 -1.000000 0.000000
vn 0.000000 -1.000000 0.000000
vn 0.000000 -1.000000 0.000000
vn 0.000000 -0.316374 0.948635
vn 0.000000 -0.316374 0.948635
vn 0.000000 -0.316374 0.948635
vn 0.000000 -0.316374 0.948635
vn 0.000000 -1.000000 0.000000
vn 0.000000 -1.000000 0.000000
vn 0.000000 -1.000000 0.000000
vn 0.000000 -1.000000 0.000000
vn 0.000002 0.554895 0.831920
vn 0.000002 0.554896 0.831920
vn 0.000002 0.554895 0.831920
vn 0.000002 0.554895 0.831920
vn -0.990454 -0.000001 0.137841
vn -0.990454 -0.000001 0.137841
vn -0.990454 -0.000001 0.137841
vn -0.990454 -0.000001 0.137841
vn 0.000000 -1.000000 0.000000
vn 0.000000 -1.000000 0.000000
vn 0.000000 -1.000000 0.000000
vn 0.000000 -1.000000 0.000000
vn -0.000000 -0.217036 0.976164
vn -0.000000 -0.217036 0.976164
vn -0.000000 -0.217036 0.976164
vn -0.000000 -0.217036 0.976164
s 1
g Hallway_Masters:Hallway_Walls
usemtl initialShadingGroup
f 27/1/1 28/2/2 29/3/3 30/4/4
f 27/1/1 30/4/4 199/212/5 200/213/6
f 32/6/7 31/5/8 208/221/9 209/222/10
f 34/7/11 33/8/12 31/5/8 32/6/7
f 36/10/13 35/9/14 203/216/15 204/217/16
f 36/10/13 37/11/17 38/12/18 35/9/14
f 59/13/19 60/14/20 39/15/21 40/16/22
f 59/13/19 40/16/22 201/214/23 202/215/24
f 42/17/25 41/18/26 37/11/17 36/10/13
f 42/17/25 36/10/13 204/217/16 205/218/27
s off
f 142/154/28 141/155/29 143/156/30 144/157/31
s 1
f 31/5/8 47/23/32 207/220/33 208/221/9
s off
f 146/158/34 145/159/35 147/160/36 148/161/37
s 1
f 40/16/22 27/1/1 200/213/6 201/214/23
f 55/28/38 56/29/39 41/18/26 42/17/25
f 55/28/38 42/17/25 205/218/27 206/219/40
s 4
f 70/30/41 69/31/42 71/32/43 72/33/44
f 69/31/42 73/34/45 74/35/46 71/32/43
f 73/34/45 75/36/47 76/37/48 74/35/46
f 75/36/47 70/30/41 72/33/44 76/37/48
s 5
f 78/38/49 77/39/50 79/40/51 80/41/52
f 77/39/50 81/42/53 82/43/54 79/40/51
f 81/42/53 83/44/55 84/45/56 82/43/54
f 83/44/55 78/38/49 80/41/52 84/45/56
s 6
f 8/46/57 3/47/58 1/48/59 7/49/60
f 3/47/58 8/46/57 219/233/61 220/234/62
f 14/50/63 4/51/64 210/223/65 211/225/66
f 2/52/67 4/51/64 14/50/63 13/53/68
f 10/54/69 6/55/70 215/229/71 216/230/72
f 6/55/70 10/54/69 9/56/73 5/57/74
f 57/58/75 58/59/76 16/60/77 15/61/78
f 16/60/77 58/59/76 217/231/79 218/232/80
f 12/62/81 6/55/70 5/57/74 11/63/82
f 6/55/70 12/62/81 214/228/83 215/229/71
f 20/64/84 22/65/85 21/66/86 19/67/87
f 18/68/88 14/50/63 211/225/66 212/226/89
f 24/69/90 26/70/91 25/71/92 23/72/93
f 8/46/57 16/60/77 218/232/80 219/233/61
f 53/73/94 54/74/95 12/62/81 11/63/82
f 12/62/81 54/74/95 213/227/96 214/228/83
f 14/50/63 20/64/84 19/67/87 13/53/68
f 13/53/68 19/67/87 21/66/86 17/75/97
f 17/75/97 21/66/86 22/65/85 18/68/88
f 18/68/88 22/65/85 20/64/84 14/50/63
f 16/60/77 24/69/90 23/72/93 15/61/78
f 15/61/78 23/72/93 25/71/92 7/49/60
f 7/49/60 25/71/92 26/70/91 8/46/57
f 8/46/57 26/70/91 24/69/90 16/60/77
s 11
f 7/76/98 1/77/99 29/3/100 28/2/101
s 12
f 1/77/102 3/78/103 30/4/104 29/3/105
f 220/235/106 199/212/107 30/4/104 3/78/103
s 13
f 4/79/108 32/6/109 209/222/110 210/224/111
s 14
f 2/80/112 13/81/113 33/8/114 34/7/115
s 13
f 4/79/108 2/80/116 34/7/117 32/6/109
s 15
f 150/176/118 149/177/119 151/178/120 152/179/121
f 153/183/122 154/180/123 155/181/124 156/182/125
f 157/184/126 150/176/118 152/179/121 158/185/127
f 159/187/128 160/186/129 157/184/126 158/185/127
s 14
f 13/81/113 17/88/130 52/89/131 33/8/114
s 11
f 15/85/132 7/76/98 28/2/101 39/15/133
s 6
f 18/68/88 54/74/95 53/73/94 17/75/97
f 54/74/95 18/68/88 212/226/89 213/227/96
s 1
f 47/23/32 55/28/38 206/219/40 207/220/33
f 47/23/32 52/89/134 56/29/39 55/28/38
s 15
f 161/188/135 160/186/129 159/187/128 162/189/136
s 6
f 10/54/69 58/59/76 57/58/75 9/56/73
f 58/59/76 10/54/69 216/230/72 217/231/79
s 1
f 35/9/14 59/13/19 202/215/24 203/216/15
f 35/9/14 38/12/18 60/14/20 59/13/19
s 15
f 149/177/119 154/180/123 153/183/122 151/178/120
s off
f 44/90/137 43/91/138 89/92/139 90/93/140
f 89/92/141 43/91/142 45/94/143 92/95/144
f 45/94/145 46/96/146 91/97/147 92/95/148
f 46/96/149 44/90/150 90/93/151 91/97/152
f 49/98/153 48/99/154 97/100/155 98/101/156
f 97/100/157 48/99/158 50/102/159 100/103/160
f 50/102/161 51/104/162 99/105/163 100/103/164
f 51/104/165 49/98/166 98/101/167 99/105/168
f 31/5/169 33/8/170 69/31/171 70/30/172
f 43/91/173 44/90/174 72/33/175 71/32/176
s 14
f 33/8/114 52/89/131 73/34/177 69/31/178
s off
f 45/94/179 43/91/180 71/32/181 74/35/182
f 52/89/183 47/23/184 75/36/185 73/34/186
f 46/96/187 45/94/188 74/35/189 76/37/190
f 47/23/191 31/5/192 70/30/193 75/36/194
f 44/90/195 46/96/196 76/37/197 72/33/198
f 40/16/199 39/15/200 77/39/201 78/38/202
f 48/99/203 49/98/204 80/41/205 79/40/206
s 11
f 39/15/133 28/2/101 81/42/207 77/39/208
s off
f 50/102/209 48/99/210 79/40/211 82/43/212
f 28/2/213 27/1/214 83/44/215 81/42/216
f 51/104/217 50/102/218 82/43/219 84/45/220
f 27/1/221 40/16/222 78/38/223 83/44/224
f 49/98/225 51/104/226 84/45/227 80/41/228
f 86/106/229 85/107/230 121/108/231 122/109/232
f 87/110/233 86/106/234 122/109/235 123/111/236
f 88/112/237 87/110/238 123/111/239 124/113/240
f 121/108/241 85/107/242 88/112/243 124/113/244
f 102/114/245 101/115/246 103/116/247 104/117/248
f 106/118/249 105/119/250 101/115/251 102/114/252
f 108/120/253 107/121/254 105/119/255 106/118/256
f 104/117/257 103/116/258 107/121/259 108/120/260
f 94/122/261 93/123/262 117/124/263 118/125/264
f 95/126/265 94/122/266 118/125/267 119/127/268
f 96/128/269 95/126/270 119/127/271 120/129/272
f 117/124/273 93/123/274 96/128/275 120/129/276
f 110/130/277 109/131/278 111/132/279 112/133/280
f 114/134/281 113/135/282 109/131/283 110/130/284
f 116/136/285 115/137/286 113/135/287 114/134/288
f 112/133/289 111/132/290 115/137/291 116/136/292
s 16
f 90/93/293 89/92/294 103/116/295 101/115/296
s 17
f 85/107/297 86/106/298 102/114/299 104/117/300
s 16
f 91/97/301 90/93/293 101/115/296 105/119/302
s 17
f 86/106/298 87/110/303 106/118/304 102/114/299
s 16
f 92/95/305 91/97/301 105/119/302 107/121/306
s 17
f 87/110/303 88/112/307 108/120/308 106/118/304
s 16
f 89/92/294 92/95/305 107/121/306 103/116/295
s 17
f 88/112/307 85/107/297 104/117/300 108/120/308
s 18
f 98/101/309 97/100/310 111/132/311 109/131/312
s 19
f 93/123/313 94/122/314 110/130/315 112/133/316
s 18
f 99/105/317 98/101/309 109/131/312 113/135/318
s 19
f 94/122/314 95/126/319 114/134/320 110/130/315
s 18
f 100/103/321 99/105/317 113/135/318 115/137/322
s 19
f 95/126/319 96/128/323 116/136/324 114/134/320
s 18
f 97/100/310 100/103/321 115/137/322 111/132/311
s 19
f 96/128/323 93/123/313 112/133/316 116/136/324
s off
f 126/138/325 125/139/326 127/140/327 128/141/328
f 130/142/329 129/143/330 125/139/331 126/138/332
f 132/144/333 131/145/334 129/143/335 130/142/336
f 128/141/337 127/140/338 131/145/339 132/144/340
f 134/146/341 133/147/342 135/148/343 136/149/344
f 138/150/345 137/151/346 133/147/347 134/146/348
f 140/152/349 139/153/350 137/151/351 138/150/352
f 136/149/353 135/148/354 139/153/355 140/152/356
s 20
f 118/125/357 117/124/358 127/140/359 125/139/360
s 21
f 65/25/361 66/24/362 126/138/363 128/141/364
s 20
f 119/127/365 118/125/357 125/139/360 129/143/366
s 21
f 66/24/362 68/27/367 130/142/368 126/138/363
s 20
f 120/129/369 119/127/365 129/143/366 131/145/370
s 21
f 68/27/367 67/26/371 132/144/372 130/142/368
s 20
f 117/124/358 120/129/369 131/145/370 127/140/359
s 21
f 67/26/371 65/25/361 128/141/364 132/144/372
s 22
f 122/109/373 121/108/374 135/148/375 133/147/376
s 23
f 61/20/377 62/19/378 134/146/379 136/149/380
s 22
f 123/111/381 122/109/373 133/147/376 137/151/382
s 23
f 62/19/378 64/22/383 138/150/384 134/146/379
s 22
f 124/113/385 123/111/381 137/151/382 139/153/386
s 23
f 64/22/383 63/21/387 140/152/388 138/150/384
s 22
f 121/108/374 124/113/385 139/153/386 135/148/375
s 23
f 63/21/387 61/20/377 136/149/380 140/152/388
s off
f 62/19/389 61/20/390 141/155/391 142/154/392
f 61/20/393 63/21/394 143/156/395 141/155/396
f 65/25/397 67/26/398 147/160/399 145/159/400
f 67/26/401 68/27/402 148/161/403 147/160/404
s 24
f 198/211/405 191/204/406 62/19/407 142/154/408
s 25
f 142/154/409 144/157/410 197/210/411 198/211/412
s 26
f 64/22/413 62/19/414 191/204/415 192/205/416
s 27
f 146/158/417 148/161/418 195/208/419 196/209/420
s 28
f 148/161/421 68/27/422 194/207/423 195/208/424
s 29
f 68/27/425 66/24/426 193/206/427 194/207/428
s 30
f 66/24/429 64/22/430 192/205/431 193/206/432
s 31
f 144/157/433 146/158/434 196/209/435 197/210/436
s off
f 144/157/437 143/156/438 145/159/439 146/158/440
f 143/156/441 63/21/442 65/25/443 145/159/444
f 63/21/445 64/22/446 66/24/447 65/25/448
s 32
f 166/162/449 164/190/450 163/191/451 165/163/452 149/177/453 150/176/454
f 174/166/455 172/194/456 171/195/457 173/167/458 155/181/459 154/180/460
f 180/170/461 179/198/462 164/190/450 166/162/449 150/176/454 157/184/463
f 184/172/464 183/200/465 179/198/462 180/170/461 157/184/463 160/186/466
f 188/174/467 187/202/468 183/200/465 184/172/464 160/186/466 161/188/469
s off
f 190/175/470 189/203/471 187/202/472 188/174/473 161/188/474 162/189/475
s 32
f 165/163/452 163/191/451 172/194/456 174/166/455 154/180/460 149/177/453
s 33
f 169/165/476 152/179/477 151/178/478 170/164/479 167/192/480 168/193/481
s off
f 176/168/482 156/182/483 155/181/484 173/167/485 171/195/486 175/196/487
s 33
f 178/169/488 153/183/489 156/182/490 176/168/491 175/196/492 177/197/493
f 182/171/494 158/185/495 152/179/477 169/165/476 168/193/481 181/199/496
f 186/173/497 159/187/498 158/185/495 182/171/494 181/199/496 185/201/499
f 190/175/500 162/189/501 159/187/498 186/173/497 185/201/499 189/203/502
f 170/164/479 151/178/478 153/183/489 178/169/488 177/197/493 167/192/480
s off
f 5/82/503 9/83/504 163/191/505 164/190/506
f 38/12/507 37/11/508 168/193/509 167/192/510
f 57/84/511 15/85/512 171/195/513 172/194/514
f 15/85/515 39/15/516 175/196/517 171/195/518
f 39/15/519 60/14/520 177/197/521 175/196/522
f 11/86/523 5/82/524 164/190/525 179/198/526
f 37/11/527 41/18/528 181/199/529 168/193/530
f 53/87/531 11/86/532 179/198/533 183/200/534
f 41/18/535 56/29/536 185/201/537 181/199/538
f 17/88/539 53/87/540 183/200/541 187/202/542
f 56/29/543 52/89/544 189/203/545 185/201/546
f 52/89/547 17/88/548 187/202/549 189/203/550
f 9/83/551 57/84/552 172/194/553 163/191/554
f 60/14/555 38/12/556 167/192/557 177/197/558
s 1
f 247/236/559 250/239/560 249/238/561 248/237/562
f 247/236/559 200/241/6 199/240/5 250/239/560
f 252/242/563 209/245/10 208/244/9 251/243/564
f 254/246/565 252/242/563 251/243/564 253/247/566
f 256/248/567 204/251/16 203/250/15 255/249/568
f 256/248/567 255/249/568 258/253/569 257/252/570
f 279/254/571 260/257/572 259/256/573 280/255/574
f 279/254/571 202/259/24 201/258/23 260/257/572
f 262/260/575 256/248/567 257/252/570 261/261/576
f 262/260/575 205/262/27 204/251/16 256/248/567
s off
f 362/263/577 364/266/578 363/265/579 361/264/580
s 1
f 251/243/564 208/244/9 207/268/33 267/267/581
s off
f 366/269/582 368/272/583 367/271/584 365/270/585
s 1
f 260/257/572 201/258/23 200/241/6 247/236/559
f 275/273/586 262/260/575 261/261/576 276/274/587
f 275/273/586 206/275/40 205/262/27 262/260/575
s 34
f 290/276/588 292/279/589 291/278/590 289/277/591
f 289/277/591 291/278/590 294/281/592 293/280/593
f 293/280/593 294/281/592 296/283/594 295/282/595
f 295/282/595 296/283/594 292/279/589 290/276/588
s 35
f 298/284/596 300/287/597 299/286/598 297/285/599
f 297/285/599 299/286/598 302/289/600 301/288/601
f 301/288/601 302/289/600 304/291/602 303/290/603
f 303/290/603 304/291/602 300/287/597 298/284/596
s 6
f 228/292/604 227/295/605 221/294/606 223/293/607
f 223/293/607 220/297/62 219/296/61 228/292/604
f 234/298/608 211/301/66 210/300/65 224/299/609
f 222/302/610 233/303/611 234/298/608 224/299/609
f 230/304/612 216/307/72 215/306/71 226/305/613
f 226/305/613 225/309/614 229/308/615 230/304/612
f 277/310/616 235/313/617 236/312/618 278/311/619
f 236/312/618 218/315/80 217/314/79 278/311/619
f 232/316/620 231/317/621 225/309/614 226/305/613
f 226/305/613 215/306/71 214/318/83 232/316/620
f 240/319/622 239/322/623 241/321/624 242/320/625
f 238/323/626 212/324/89 211/301/66 234/298/608
f 244/325/627 243/328/628 245/327/629 246/326/630
f 228/292/604 219/296/61 218/315/80 236/312/618
f 273/329/631 231/317/621 232/316/620 274/330/632
f 232/316/620 214/318/83 213/331/96 274/330/632
f 234/298/608 233/303/611 239/322/623 240/319/622
f 233/303/611 237/332/633 241/321/624 239/322/623
f 237/332/633 238/323/626 242/320/625 241/321/624
f 238/323/626 234/298/608 240/319/622 242/320/625
f 236/312/618 235/313/617 243/328/628 244/325/627
f 235/313/617 227/295/605 245/327/629 243/328/628
f 227/295/605 228/292/604 246/326/630 245/327/629
f 228/292/604 236/312/618 244/325/627 246/326/630
s 38
f 227/333/634 248/237/635 249/238/636 221/334/637
s 12
f 221/334/638 249/238/639 250/239/640 223/335/641
f 220/336/106 223/335/641 250/239/640 199/240/107
s 13
f 224/337/642 210/338/111 209/245/110 252/242/643
s 39
f 222/339/644 254/246/645 253/247/646 233/340/647
s 13
f 224/337/642 252/242/643 254/246/648 222/339/649
s 40
f 370/341/650 372/344/651 371/343/652 369/342/653
f 373/345/654 376/348/655 375/347/656 374/346/657
f 377/349/658 378/350/659 372/344/651 370/341/650
f 379/351/660 378/350/659 377/349/658 380/352/661
s 39
f 233/340/647 253/247/646 272/354/662 237/353/663
s 38
f 235/355/664 259/256/665 248/237/635 227/333/634
s 6
f 238/323/626 237/332/633 273/329/631 274/330/632
f 274/330/632 213/331/96 212/324/89 238/323/626
s 1
f 267/267/581 207/268/33 206/275/40 275/273/586
f 267/267/581 275/273/586 276/274/587 272/354/666
s 40
f 381/356/667 382/357/668 379/351/660 380/352/661
s 6
f 230/304/612 229/308/615 277/310/616 278/311/619
f 278/311/619 217/314/79 216/307/72 230/304/612
s 1
f 255/249/568 203/250/15 202/259/24 279/254/571
f 255/249/568 279/254/571 280/255/574 258/253/569
s 40
f 369/342/653 371/343/652 373/345/654 374/346/657
s off
f 264/358/669 310/361/670 309/360/671 263/359/672
f 309/360/673 312/363/674 265/362/675 263/359/676
f 265/362/677 312/363/678 311/365/679 266/364/680
f 266/364/681 311/365/682 310/361/683 264/358/684
f 269/366/685 318/369/686 317/368/687 268/367/688
f 317/368/689 320/371/690 270/370/691 268/367/692
f 270/370/693 320/371/694 319/373/695 271/372/696
f 271/372/697 319/373/698 318/369/699 269/366/700
f 251/243/701 290/276/702 289/277/703 253/247/704
f 263/359/705 291/278/706 292/279/707 264/358/708
s 39
f 253/247/646 289/277/709 293/280/710 272/354/662
s off
f 265/362/711 294/281/712 291/278/713 263/359/714
f 272/354/715 293/280/716 295/282/717 267/267/718
f 266/364/719 296/283/720 294/281/721 265/362/722
f 267/267/723 295/282/724 290/276/725 251/243/726
f 264/358/727 292/279/728 296/283/729 266/364/730
f 260/257/731 298/284/732 297/285/733 259/256/734
f 268/367/735 299/286/736 300/287/737 269/366/738
s 38
f 259/256/665 297/285/739 301/288/740 248/237/635
s off
f 270/370/741 302/289/742 299/286/743 268/367/744
f 248/237/745 301/288/746 303/290/747 247/236/748
f 271/372/749 304/291/750 302/289/751 270/370/752
f 247/236/753 303/290/754 298/284/755 260/257/756
f 269/366/757 300/287/758 304/291/759 271/372/760
f 306/374/761 342/377/762 341/376/763 305/375/764
f 307/378/765 343/379/766 342/377/767 306/374/768
f 308/380/769 344/381/770 343/379/771 307/378/772
f 341/376/773 344/381/774 308/380/775 305/375/776
f 322/382/777 324/385/778 323/384/779 321/383/780
f 326/386/781 322/382/782 321/383/783 325/387/784
f 328/388/785 326/386/786 325/387/787 327/389/788
f 324/385/789 328/388/790 327/389/791 323/384/792
f 314/390/793 338/393/794 337/392/795 313/391/796
f 315/394/797 339/395/798 338/393/799 314/390/800
f 316/396/801 340/397/802 339/395/803 315/394/804
f 337/392/805 340/397/806 316/396/807 313/391/808
f 330/398/809 332/401/810 331/400/811 329/399/812
f 334/402/813 330/398/814 329/399/815 333/403/816
f 336/404/817 334/402/818 333/403/819 335/405/820
f 332/401/821 336/404/822 335/405/823 331/400/824
s 41
f 310/361/825 321/383/826 323/384/827 309/360/828
s 42
f 305/375/829 324/385/830 322/382/831 306/374/832
s 41
f 311/365/833 325/387/834 321/383/826 310/361/825
s 42
f 306/374/832 322/382/831 326/386/835 307/378/836
s 41
f 312/363/837 327/389/838 325/387/834 311/365/833
s 42
f 307/378/836 326/386/835 328/388/839 308/380/840
s 41
f 309/360/828 323/384/827 327/389/838 312/363/837
s 42
f 308/380/840 328/388/839 324/385/830 305/375/829
s 43
f 318/369/841 329/399/842 331/400/843 317/368/844
s 44
f 313/391/845 332/401/846 330/398/847 314/390/848
s 43
f 319/373/849 333/403/850 329/399/842 318/369/841
s 44
f 314/390/848 330/398/847 334/402/851 315/394/852
s 43
f 320/371/853 335/405/854 333/403/850 319/373/849
s 44
f 315/394/852 334/402/851 336/404/855 316/396/856
s 43
f 317/368/844 331/400/843 335/405/854 320/371/853
s 44
f 316/396/856 336/404/855 332/401/846 313/391/845
s off
f 346/406/857 348/409/858 347/408/859 345/407/860
f 350/410/861 346/406/862 345/407/863 349/411/864
f 352/412/865 350/410/866 349/411/867 351/413/868
f 348/409/869 352/412/870 351/413/871 347/408/872
f 354/414/873 356/417/874 355/416/875 353/415/876
f 358/418/877 354/414/878 353/415/879 357/419/880
f 360/420/881 358/418/882 357/419/883 359/421/884
f 356/417/885 360/420/886 359/421/887 355/416/888
s 45
f 338/393/889 345/407/890 347/408/891 337/392/892
s 46
f 285/422/893 348/409/894 346/406/895 286/423/896
s 45
f 339/395/897 349/411/898 345/407/890 338/393/889
s 46
f 286/423/896 346/406/895 350/410/899 288/424/900
s 45
f 340/397/901 351/413/902 349/411/898 339/395/897
s 46
f 288/424/900 350/410/899 352/412/903 287/425/904
s 45
f 337/392/892 347/408/891 351/413/902 340/397/901
s 46
f 287/425/904 352/412/903 348/409/894 285/422/893
s 47
f 342/377/905 353/415/906 355/416/907 341/376/908
s 48
f 281/426/909 356/417/910 354/414/911 282/427/912
s 47
f 343/379/913 357/419/914 353/415/906 342/377/905
s 48
f 282/427/912 354/414/911 358/418/915 284/428/916
s 47
f 344/381/917 359/421/918 357/419/914 343/379/913
s 48
f 284/428/916 358/418/915 360/420/919 283/429/920
s 47
f 341/376/908 355/416/907 359/421/918 344/381/917
s 48
f 283/429/920 360/420/919 356/417/910 281/426/909
s off
f 282/427/921 362/263/922 361/264/923 281/426/924
f 281/426/925 361/264/926 363/265/927 283/429/928
f 285/422/929 365/270/930 367/271/931 287/425/932
f 287/425/933 367/271/934 368/272/935 288/424/936
s 24
f 198/430/405 362/263/937 282/427/938 191/431/406
s 25
f 362/263/939 198/430/412 197/432/411 364/266/940
s 26
f 284/428/941 192/433/416 191/431/415 282/427/942
s 27
f 366/269/943 196/435/420 195/434/419 368/272/944
s 28
f 368/272/945 195/434/424 194/436/423 288/424/946
s 29
f 288/424/947 194/436/428 193/437/427 286/423/948
s 30
f 286/423/949 193/437/432 192/433/431 284/428/950
s 31
f 364/266/951 197/432/436 196/435/435 366/269/952
s off
f 364/266/953 366/269/954 365/270/955 363/265/956
f 363/265/957 365/270/958 285/422/959 283/429/960
f 283/429/961 285/422/962 286/423/963 284/428/964
s 49
f 386/438/965 370/341/966 369/342/967 385/441/968 383/440/969 384/439/970
f 394/442/971 374/346/972 375/347/973 393/445/974 391/444/975 392/443/976
f 400/446/977 377/349/978 370/341/966 386/438/965 384/439/970 399/447/979
f 404/448/980 380/352/981 377/349/978 400/446/977 399/447/979 403/449/982
f 408/450/983 381/356/984 380/352/981 404/448/980 403/449/982 407/451/985
s off
f 410/452/986 382/357/987 381/356/988 408/450/989 407/451/990 409/453/991
s 49
f 385/441/968 369/342/967 374/346/972 394/442/971 392/443/976 383/440/969
s 50
f 389/454/992 388/457/993 387/456/994 390/455/995 371/343/996 372/344/997
s off
f 396/458/998 395/459/999 391/444/1000 393/445/1001 375/347/1002 376/348/1003
s 50
f 398/460/1004 397/461/1005 395/459/1006 396/458/1007 376/348/1008 373/345/1009
f 402/462/1010 401/463/1011 388/457/993 389/454/992 372/344/997 378/350/1012
f 406/464/1013 405/465/1014 401/463/1011 402/462/1010 378/350/1012 379/351/1015
f 410/452/1016 409/453/1017 405/465/1014 406/464/1013 379/351/1015 382/357/1018
f 390/455/995 387/456/994 397/461/1005 398/460/1004 373/345/1009 371/343/996
s off
f 225/466/1019 384/439/1020 383/440/1021 229/467/1022
f 258/253/1023 387/456/1024 388/457/1025 257/252/1026
f 277/468/1027 392/443/1028 391/444/1029 235/355/1030
f 235/355/1031 391/444/1032 395/459/1033 259/256/1034
f 259/256/1035 395/459/1036 397/461/1037 280/255/1038
f 231/469/1039 399/447/1040 384/439/1041 225/466/1042
f 257/252/1043 388/457/1044 401/463/1045 261/261/1046
f 273/470/1047 403/449/1048 399/447/1049 231/469/1050
f 261/261/1051 401/463/1052 405/465/1053 276/274/1054
f 237/353/1055 407/451/1056 403/449/1057 273/470/1058
f 276/274/1059 405/465/1060 409/453/1061 272/354/1062
f 272/354/1063 409/453/1064 407/451/1065 237/353/1066
f 229/467/1067 383/440/1068 392/443/1069 277/468/1070
f 280/255/1071 397/461/1072 387/456/1073 258/253/1074
