# This file uses centimeters as units for non-parametric coordinates.

mtllib Skirting_Board.mtl
g default
v 11.350384 0.893266 23.672115
v 12.350384 0.893266 23.672115
v 11.350384 1.610505 23.672115
v 12.350383 1.610505 23.672115
v 11.350384 1.610505 15.582966
v 12.350384 1.610505 15.582966
v 11.350384 0.893266 15.582966
v 12.350384 0.893266 15.582966
v 11.350383 1.380989 15.582966
v 11.350384 1.380989 23.672115
v 12.350384 1.380989 23.672115
v 12.350383 1.380989 15.582966
v 11.350384 1.283444 23.672115
v 11.350384 1.283444 15.582966
v 12.350384 1.283444 15.582966
v 12.350384 1.283444 23.672115
v 11.400384 1.360989 15.632966
v 11.400384 1.303444 15.632966
v 11.400384 1.303444 23.622114
v 11.400384 1.360989 23.622114
v 12.300383 1.303444 15.632966
v 12.300383 1.360989 15.632966
v 12.300383 1.303444 23.622114
v 12.300383 1.360989 23.622114
v 11.350384 1.370988 15.582966
v 11.360383 1.360989 15.592966
v 11.350383 1.370988 23.672115
v 11.360383 1.360989 23.662115
v 12.350383 1.370988 15.582966
v 12.340384 1.360989 15.592966
v 12.350383 1.370988 23.672115
v 12.340384 1.360989 23.662115
v 11.350383 1.293445 15.582966
v 11.360383 1.303444 15.592966
v 11.350383 1.293445 23.672115
v 11.360383 1.303444 23.662115
v 12.350383 1.293445 15.582966
v 12.340384 1.303444 15.592966
v 12.350383 1.293445 23.672115
v 12.340384 1.303444 23.662115
v 11.400384 1.527879 23.622114
v 11.400384 1.527879 15.632966
v 11.400384 1.564602 23.622114
v 11.400384 1.564602 15.632966
v 12.300383 1.564602 15.632966
v 12.300383 1.527879 15.632966
v 12.300383 1.527879 23.622114
v 12.300383 1.564602 23.622114
v 11.350383 1.587551 15.582966
v 11.373333 1.564602 15.605915
v 11.350383 1.587551 23.672115
v 11.373333 1.564602 23.649165
v 12.350383 1.587551 23.672115
v 12.327434 1.564602 23.649165
v 12.350383 1.587551 15.582966
v 12.327434 1.564602 15.605915
v 11.350383 1.504930 23.672115
v 11.373333 1.527879 23.649165
v 11.350383 1.504930 15.582966
v 11.373333 1.527879 15.605915
v 12.350383 1.504930 15.582966
v 12.327434 1.527879 15.605915
v 12.350383 1.504930 23.672115
v 12.327434 1.527879 23.649165
vt 0.375000 0.000000
vt 0.625000 0.000000
vt 0.375000 0.500000
vt 0.375000 0.750000
vt 0.625000 0.750000
vt 0.375000 1.000000
vt 0.625000 1.000000
vt 0.875000 0.000000
vt 0.125000 0.000000
vt 0.125000 0.136000
vt 0.625000 0.614000
vt 0.125000 0.170000
vt 0.375000 0.614000
vt 0.625000 0.580000
vt 0.875000 0.136000
vt 0.125000 0.170000
vt 0.375000 0.580000
vt 0.625000 0.580000
vt 0.875000 0.170000
vt 0.125000 0.170000
vt 0.375000 0.170000
vt 0.625000 0.580000
vt 0.375000 0.580000
vt 0.875000 0.170000
vt 0.625000 0.170000
vt 0.125000 0.170000
vt 0.375000 0.170000
vt 0.625000 0.580000
vt 0.375000 0.580000
vt 0.625000 0.170000
vt 0.875000 0.170000
vt 0.375000 0.170000
vt 0.625000 0.170000
vt 0.375000 0.614000
vt 0.625000 0.614000
vt 0.125000 0.136000
vt 0.875000 0.136000
vt 0.375000 0.136000
vt 0.125000 0.136000
vt 0.375000 0.614000
vt 0.625000 0.614000
vt 0.875000 0.136000
vt 0.625000 0.136000
vt 0.625000 0.136000
vt 0.375000 0.136000
vt 0.375000 0.136000
vt 0.125000 0.136000
vt 0.375000 0.614000
vt 0.625000 0.614000
vt 0.875000 0.136000
vt 0.625000 0.136000
vt 0.625000 0.136000
vt 0.375000 0.136000
vt 0.125000 0.234000
vt 0.625000 0.516000
vt 0.375000 0.528800
vt 0.875000 0.221200
vt 0.125000 0.241999
vt 0.375000 0.516000
vt 0.625000 0.508001
vt 0.875000 0.234000
vt 0.125000 0.221200
vt 0.375000 0.536799
vt 0.625000 0.528800
vt 0.875000 0.213201
vt 0.375000 0.241999
vt 0.125000 0.250000
vt 0.625000 0.500000
vt 0.375000 0.508001
vt 0.875000 0.241999
vt 0.875000 0.250000
vt 0.625000 0.250000
vt 0.625000 0.241999
vt 0.375000 0.250000
vt 0.375000 0.170000
vt 0.125000 0.213201
vt 0.625000 0.170000
vt 0.375000 0.213201
vt 0.875000 0.170000
vt 0.625000 0.213201
vt 0.625000 0.536799
vt 0.375000 0.580000
vt 0.375000 0.221200
vt 0.125000 0.221200
vt 0.125000 0.234000
vt 0.375000 0.234000
vt 0.625000 0.516000
vt 0.375000 0.516000
vt 0.375000 0.528800
vt 0.625000 0.528800
vt 0.875000 0.221200
vt 0.625000 0.221200
vt 0.625000 0.234000
vt 0.875000 0.234000
vt 0.625000 0.221200
vt 0.375000 0.221200
vt 0.375000 0.234000
vt 0.625000 0.234000
vn 0.000000 0.000000 1.000000
vn 0.000000 0.000000 1.000000
vn 0.000000 0.000000 1.000000
vn 0.000000 0.000000 1.000000
vn 0.000000 1.000000 0.000000
vn 0.000000 1.000000 0.000000
vn 0.000000 1.000000 0.000000
vn 0.000000 1.000000 0.000000
vn 0.000000 0.000000 -1.000000
vn 0.000000 0.000000 -1.000000
vn 0.000000 0.000000 -1.000000
vn 0.000000 0.000000 -1.000000
vn 0.000000 -1.000000 0.000000
vn 0.000000 -1.000000 0.000000
vn 0.000000 -1.000000 0.000000
vn 0.000000 -1.000000 0.000000
vn 1.000000 0.000000 0.000000
vn 1.000000 0.000000 0.000000
vn 1.000000 0.000000 0.000000
vn 1.000000 0.000000 0.000000
vn -1.000000 -0.000000 0.000000
vn -1.000000 -0.000000 0.000000
vn -1.000000 0.000000 0.000000
vn -1.000000 0.000000 0.000000
vn -1.000000 0.000000 0.000000
vn -1.000000 0.000000 0.000000
vn -1.000000 0.000000 0.000000
vn -1.000000 0.000000 0.000000
vn 0.000000 0.000000 -1.000000
vn 0.000000 0.000000 -1.000000
vn 0.000000 0.000000 -1.000000
vn 0.000000 0.000000 -1.000000
vn 1.000000 0.000000 0.000000
vn 1.000000 0.000000 0.000000
vn 1.000000 0.000000 0.000000
vn 1.000000 0.000000 0.000000
vn 0.000000 0.000000 1.000000
vn 0.000000 0.000000 1.000000
vn 0.000000 0.000000 1.000000
vn 0.000000 0.000000 1.000000
vn -0.707097 -0.707116 -0.000000
vn -0.707097 -0.707116 -0.000000
vn -0.707097 -0.707116 -0.000000
vn -0.707097 -0.707116 -0.000000
vn 0.000000 -0.707133 -0.707081
vn 0.000000 -0.707133 -0.707081
vn 0.000000 -0.707133 -0.707081
vn 0.000000 -0.707133 -0.707081
vn 0.000000 -0.707133 0.707080
vn 0.000000 -0.707133 0.707080
vn 0.000000 -0.707133 0.707080
vn 0.000000 -0.707133 0.707080
vn 0.707100 -0.707113 0.000000
vn 0.707100 -0.707113 0.000000
vn 0.707100 -0.707113 0.000000
vn 0.707100 -0.707113 0.000000
vn -1.000000 0.000000 0.000000
vn -1.000000 0.000000 0.000000
vn -1.000000 0.000000 0.000000
vn -1.000000 0.000000 0.000000
vn 0.000000 0.000000 -1.000000
vn 0.000000 0.000000 -1.000000
vn 0.000000 0.000000 -1.000000
vn 0.000000 0.000000 -1.000000
vn 1.000000 0.000000 -0.000000
vn 1.000000 0.000000 -0.000000
vn 1.000000 -0.000006 -0.000000
vn 1.000000 -0.000006 -0.000000
vn 0.000000 0.000000 1.000000
vn 0.000000 0.000000 1.000000
vn 0.000000 0.000000 1.000000
vn 0.000000 0.000000 1.000000
vn 0.000000 -1.000000 0.000000
vn 0.000000 -1.000000 -0.000000
vn 0.000000 -1.000000 -0.000000
vn 0.000000 -1.000000 0.000000
vn 0.000000 -1.000000 -0.000000
vn 0.000000 -1.000000 -0.000000
vn 0.000000 -1.000000 0.000000
vn 0.000000 -1.000000 0.000000
vn 0.000000 0.707133 -0.707080
vn 0.000000 0.707133 -0.707080
vn 0.000000 0.707133 -0.707080
vn 0.000000 0.707133 -0.707080
vn -0.707098 0.707115 0.000000
vn -0.707098 0.707115 0.000000
vn -0.707098 0.707115 0.000000
vn -0.707098 0.707115 0.000000
vn 0.000000 0.707133 0.707080
vn 0.000000 0.707133 0.707080
vn 0.000000 0.707133 0.707080
vn 0.000000 0.707133 0.707080
vn 0.707100 0.707113 0.000000
vn 0.707100 0.707113 0.000000
vn 0.707100 0.707113 0.000000
vn 0.707100 0.707113 0.000000
vn -1.000000 -0.000006 0.000000
vn -1.000000 -0.000006 0.000000
vn 0.000000 0.000000 -1.000000
vn 0.000000 0.000000 -1.000000
vn 1.000000 0.000006 0.000000
vn 1.000000 0.000006 0.000000
vn 0.000000 0.000000 1.000000
vn 0.000000 0.000000 1.000000
vn 0.000000 1.000000 -0.000000
vn 0.000000 1.000000 0.000000
vn 0.000000 1.000000 0.000000
vn 0.000000 1.000000 -0.000000
vn 0.000000 1.000000 -0.000000
vn 0.000000 1.000000 -0.000000
vn 0.000000 1.000000 0.000000
vn 0.000000 1.000000 0.000000
vn -1.000000 0.000000 0.000000
vn -1.000000 0.000000 0.000000
vn -1.000000 0.000000 0.000000
vn -1.000000 0.000000 0.000000
vn 0.000000 0.000000 -1.000000
vn 0.000000 0.000000 -1.000000
vn 0.000000 0.000000 -1.000000
vn 0.000000 0.000000 -1.000000
vn 1.000000 0.000000 0.000000
vn 1.000000 0.000000 0.000000
vn 1.000000 0.000000 0.000000
vn 1.000000 0.000000 0.000000
vn 0.000000 0.000000 1.000000
vn 0.000000 0.000000 1.000000
vn 0.000000 0.000000 1.000000
vn 0.000000 0.000000 1.000000
vn -0.707108 -0.707106 0.000000
vn -0.707107 -0.707106 0.000000
vn -0.707108 -0.707106 0.000000
vn -0.707107 -0.707106 0.000000
vn 0.000000 -0.707109 -0.707104
vn 0.000000 -0.707109 -0.707105
vn 0.000000 -0.707109 -0.707105
vn 0.000000 -0.707109 -0.707104
vn 0.000000 -0.707124 0.707090
vn 0.000000 -0.707124 0.707090
vn 0.000000 -0.707124 0.707090
vn 0.000000 -0.707124 0.707089
vn 0.707108 -0.707105 0.000000
vn 0.707108 -0.707105 0.000000
vn 0.707108 -0.707105 0.000000
vn 0.707108 -0.707105 0.000000
vn -0.707107 0.707106 0.000000
vn -0.707107 0.707106 0.000000
vn -0.707108 0.707106 0.000000
vn -0.707107 0.707106 0.000000
vn 0.000000 0.707124 0.707090
vn 0.000000 0.707124 0.707090
vn 0.000000 0.707124 0.707090
vn 0.000000 0.707124 0.707090
vn 0.000000 0.707109 -0.707105
vn 0.000000 0.707109 -0.707105
vn 0.000000 0.707109 -0.707105
vn 0.000000 0.707109 -0.707105
vn 0.707108 0.707105 0.000000
vn 0.707108 0.707105 0.000000
vn 0.707108 0.707105 0.000000
vn 0.707108 0.707105 0.000000
vn -1.000000 0.000003 0.000000
vn -1.000000 0.000003 0.000000
vn -1.000000 0.000003 0.000000
vn -1.000000 0.000003 0.000000
vn 0.000000 0.000000 -1.000000
vn 0.000000 0.000000 -1.000000
vn 0.000000 0.000000 -1.000000
vn 0.000000 0.000000 -1.000000
vn 1.000000 -0.000003 0.000000
vn 1.000000 -0.000003 0.000000
vn 1.000000 -0.000003 0.000000
vn 1.000000 -0.000003 0.000000
vn 0.000000 0.000000 1.000000
vn 0.000000 0.000000 1.000000
vn 0.000000 0.000000 1.000000
vn 0.000000 0.000000 1.000000
vn -1.000000 0.000000 0.000000
vn -1.000000 0.000000 0.000000
vn 0.000000 0.000000 1.000000
vn 0.000000 0.000000 1.000000
vn 1.000000 0.000000 -0.000000
vn 1.000000 0.000000 -0.000000
vn 0.000000 0.000000 -1.000000
vn 0.000000 0.000000 -1.000000
vn 0.000000 1.000000 -0.000000
vn 0.000000 1.000000 0.000000
vn 0.000000 1.000000 0.000000
vn 0.000000 1.000000 -0.000000
vn 0.000000 -1.000000 -0.000000
vn 0.000000 -1.000000 0.000000
vn 0.000000 -1.000000 0.000000
vn 0.000000 -1.000000 -0.000000
vn 0.000000 -1.000000 0.000000
vn 0.000000 -1.000000 0.000000
vn 0.000000 1.000000 -0.000000
vn 0.000000 1.000000 -0.000000
vn 0.000000 1.000000 0.000000
vn 0.000000 1.000000 0.000000
vn 0.000000 -1.000000 -0.000000
vn 0.000000 -1.000000 -0.000000
s 1
g pCube1
usemtl initialShadingGroup
f 16/44/1 13/38/2 1/1/3 2/2/4
s off
f 3/74/5 4/72/6 6/68/7 5/3/8
s 2
f 8/5/9 7/4/10 14/40/11 15/11/12
s off
f 7/4/13 8/5/14 2/7/15 1/6/16
s 3
f 2/2/17 8/8/18 15/42/19 16/44/20
s 4
f 13/38/21 14/10/22 7/9/23 1/1/24
s off
f 17/12/25 18/47/26 19/53/27 20/27/28
f 21/49/29 18/13/30 17/29/31 22/14/32
f 23/51/33 21/15/34 22/31/35 24/33/36
f 20/27/37 19/53/38 23/51/39 24/33/40
f 25/16/41 26/26/42 28/32/43 27/21/44
f 26/17/45 25/23/46 29/18/47 30/28/48
f 27/21/49 28/32/50 32/30/51 31/25/52
f 30/19/53 29/24/54 31/25/55 32/30/56
s 5
f 10/75/57 9/20/58 25/16/59 27/21/60
s 6
f 9/82/61 12/22/62 29/18/63 25/23/64
s 7
f 12/79/65 11/77/66 31/25/67 29/24/68
s 8
f 11/77/69 10/75/70 27/21/71 31/25/72
s 9
f 28/32/73 26/26/74 17/12/75 20/27/76
f 26/17/74 30/28/77 22/14/78 17/29/75
f 30/19/77 32/30/79 24/33/80 22/31/78
f 32/30/79 28/32/73 20/27/76 24/33/80
s off
f 33/34/81 34/48/82 38/35/83 37/41/84
f 34/36/85 33/39/86 35/45/87 36/46/88
f 36/46/89 35/45/90 39/43/91 40/52/92
f 37/37/93 38/50/94 40/52/95 39/43/96
s 4
f 14/10/22 13/38/21 35/45/97 33/39/98
s 2
f 15/11/12 14/40/11 33/34/99 37/41/100
s 3
f 16/44/20 15/42/19 37/37/101 39/43/102
s 1
f 13/38/2 16/44/1 39/43/103 35/45/104
s 10
f 34/36/105 36/46/106 19/53/107 18/47/108
f 38/35/109 34/48/105 18/13/108 21/49/110
f 40/52/111 38/50/109 21/15/110 23/51/112
f 36/46/106 40/52/111 23/51/112 19/53/107
s off
f 42/84/113 41/96/114 43/86/115 44/54/116
f 44/88/117 45/55/118 46/90/119 42/56/120
f 47/92/121 46/57/122 45/94/123 48/98/124
f 41/96/125 47/92/126 48/98/127 43/86/128
f 49/58/129 50/85/130 52/97/131 51/66/132
f 50/59/133 49/69/134 55/60/135 56/87/136
f 51/66/137 52/97/138 54/93/139 53/73/140
f 53/73/141 54/93/142 56/61/143 55/70/144
f 57/78/145 58/83/146 60/62/147 59/76/148
f 58/83/149 57/78/150 63/80/151 64/95/152
f 59/63/153 60/89/154 62/64/155 61/81/156
f 61/65/157 62/91/158 64/95/159 63/80/160
f 49/58/161 51/66/162 3/74/163 5/67/164
f 5/3/165 6/68/166 55/60/167 49/69/168
f 53/73/169 55/70/170 6/71/171 4/72/172
f 51/66/173 53/73/174 4/72/175 3/74/176
s 5
f 9/20/58 10/75/57 57/78/177 59/76/178
s 8
f 10/75/70 11/77/69 63/80/179 57/78/180
s 7
f 11/77/66 12/79/65 61/65/181 63/80/182
s 6
f 59/63/183 61/81/184 12/22/62 9/82/61
s 11
f 60/62/185 58/83/186 41/96/187 42/84/188
s 12
f 52/97/189 50/85/190 44/54/191 43/86/192
f 50/59/190 56/87/193 45/55/194 44/88/191
s 11
f 62/64/195 60/89/185 42/56/188 46/90/196
f 64/95/197 62/91/195 46/57/196 47/92/198
s 12
f 56/61/193 54/93/199 48/98/200 45/94/194
s 11
f 58/83/186 64/95/197 47/92/198 41/96/187
s 12
f 54/93/199 52/97/189 43/86/192 48/98/200
