# This file uses centimeters as units for non-parametric coordinates.

mtllib Wall_Window.mtl
g default
v -10.013444 0.509780 -11.648758
v 12.027893 0.509780 -11.648758
v -10.013444 16.395760 -11.648758
v 12.027893 16.395760 -11.648758
v 1.062637 0.509780 -11.648758
v 1.062637 16.395760 -11.648758
v -10.013444 8.077112 -11.648758
v 12.027893 8.077112 -11.648758
v -3.928553 0.509780 -11.648758
v -3.515207 8.077112 -11.648758
v -3.928553 16.395760 -11.648758
v 6.053826 0.509780 -11.648758
v 5.640480 8.077109 -11.648758
v 6.053826 16.395760 -11.648758
v -10.013444 3.085922 -11.648758
v -2.174388 4.840088 -11.648758
v 1.062636 3.499268 -11.648758
v 4.299659 4.840087 -11.648758
v 12.027893 3.085922 -11.648758
v -10.013444 13.068301 -11.648758
v -2.174387 11.314134 -11.648758
v 1.062637 12.654954 -11.648758
v 4.299660 11.314134 -11.648758
v 12.027893 13.068301 -11.648758
v -3.359217 9.261943 -11.648758
v -2.901888 10.366033 -11.648758
v 5.484490 9.261943 -11.648758
v 5.027161 10.366033 -11.648758
v -2.901888 5.788189 -11.648758
v -3.359217 6.892280 -11.648758
v 5.027161 5.788189 -11.648758
v 5.484490 6.892279 -11.648758
v -1.226285 4.112587 -11.648758
v -0.122195 3.655258 -11.648758
v 2.247468 3.655258 -11.648758
v 3.351558 4.112587 -11.648758
v -1.226285 12.041636 -11.648758
v -0.122195 12.498963 -11.648758
v 2.247468 12.498963 -11.648758
v 3.351558 12.041636 -11.648758
v -10.013444 13.068301 -11.072624
v -2.174387 11.314134 -11.072624
v -3.928553 16.395760 -11.072624
v -10.013444 16.395760 -11.072624
v 1.062637 12.654954 -11.072624
v 1.062637 16.395760 -11.072624
v 2.247468 12.498963 -11.072624
v -10.013444 8.077112 -11.072624
v -3.359217 6.892280 -11.072624
v -3.515207 8.077112 -11.072624
v -1.226285 12.041636 -11.072624
v 5.640480 8.077109 -11.072624
v 12.027893 8.077112 -11.072624
v 5.484490 6.892279 -11.072624
v 4.299660 11.314134 -11.072624
v 6.053826 16.395760 -11.072624
v 12.027893 13.068301 -11.072624
v 12.027893 16.395760 -11.072624
v -10.013444 0.509780 -11.072624
v -3.928553 0.509780 -11.072624
v -2.174388 4.840088 -11.072624
v -10.013444 3.085922 -11.072624
v -1.226285 4.112587 -11.072624
v 6.053826 0.509780 -11.072624
v 4.299659 4.840087 -11.072624
v 3.351558 4.112587 -11.072624
v 12.027893 3.085922 -11.072624
v 12.027893 0.509780 -11.072624
v -3.359217 9.261943 -11.072624
v 5.027161 10.366033 -11.072624
v 3.351558 12.041636 -11.072624
v -0.122195 12.498963 -11.072624
v -2.901888 10.366033 -11.072624
v -2.901888 5.788189 -11.072624
v -0.122195 3.655258 -11.072624
v 1.062636 3.499268 -11.072624
v 1.062637 0.509780 -11.072624
v 2.247468 3.655258 -11.072624
v 5.027161 5.788189 -11.072624
v 5.484490 9.261943 -11.072624
vt 0.375000 0.200000
vt 0.425000 0.200000
vt 0.425000 0.250000
vt 0.375000 0.250000
vt 0.500000 0.250000
vt 0.500000 0.200000
vt 0.525000 0.200000
vt 0.375000 0.125000
vt 0.425000 0.100000
vt 0.425000 0.125000
vt 0.450000 0.200000
vt 0.625000 0.125000
vt 0.575000 0.125000
vt 0.575000 0.100000
vt 0.575000 0.250000
vt 0.575000 0.200000
vt 0.625000 0.200000
vt 0.625000 0.250000
vt 0.375000 0.000000
vt 0.425000 0.000000
vt 0.425000 0.050000
vt 0.375000 0.050000
vt 0.450000 0.050000
vt 0.575000 0.000000
vt 0.575000 0.050000
vt 0.550000 0.050000
vt 0.625000 0.050000
vt 0.625000 0.000000
vt 0.425000 0.150000
vt 0.575000 0.175000
vt 0.550000 0.200000
vt 0.475000 0.200000
vt 0.425000 0.175000
vt 0.425000 0.075000
vt 0.500000 0.050000
vt 0.475000 0.050000
vt 0.500000 0.000000
vt 0.525000 0.050000
vt 0.575000 0.075000
vt 0.575000 0.150000
vt 0.375000 0.200000
vt 0.425000 0.200000
vt 0.425000 0.250000
vt 0.375000 0.250000
vt 0.500000 0.250000
vt 0.500000 0.200000
vt 0.525000 0.200000
vt 0.375000 0.125000
vt 0.425000 0.100000
vt 0.425000 0.125000
vt 0.450000 0.200000
vt 0.625000 0.125000
vt 0.575000 0.125000
vt 0.575000 0.100000
vt 0.575000 0.250000
vt 0.575000 0.200000
vt 0.625000 0.200000
vt 0.625000 0.250000
vt 0.375000 0.000000
vt 0.425000 0.000000
vt 0.425000 0.050000
vt 0.375000 0.050000
vt 0.450000 0.050000
vt 0.575000 0.000000
vt 0.575000 0.050000
vt 0.550000 0.050000
vt 0.625000 0.050000
vt 0.625000 0.000000
vt 0.425000 0.150000
vt 0.575000 0.175000
vt 0.550000 0.200000
vt 0.475000 0.200000
vt 0.425000 0.175000
vt 0.425000 0.075000
vt 0.500000 0.050000
vt 0.475000 0.050000
vt 0.500000 0.000000
vt 0.525000 0.050000
vt 0.575000 0.075000
vt 0.575000 0.150000
vt 0.425000 0.250000
vt 0.375000 0.250000
vt 0.375000 0.200000
vt 0.500000 0.200000
vt 0.525000 0.200000
vt 0.425000 0.100000
vt 0.425000 0.125000
vt 0.425000 0.200000
vt 0.450000 0.200000
vt 0.575000 0.125000
vt 0.575000 0.100000
vt 0.625000 0.200000
vt 0.625000 0.250000
vt 0.575000 0.250000
vt 0.375000 0.000000
vt 0.425000 0.000000
vt 0.375000 0.050000
vt 0.450000 0.050000
vt 0.425000 0.050000
vt 0.575000 0.050000
vt 0.550000 0.050000
vt 0.575000 0.000000
vt 0.625000 0.000000
vt 0.625000 0.050000
vt 0.425000 0.150000
vt 0.575000 0.200000
vt 0.575000 0.175000
vt 0.550000 0.200000
vt 0.500000 0.250000
vt 0.475000 0.200000
vt 0.425000 0.175000
vt 0.375000 0.125000
vt 0.425000 0.075000
vt 0.500000 0.050000
vt 0.475000 0.050000
vt 0.500000 0.000000
vt 0.525000 0.050000
vt 0.575000 0.075000
vt 0.625000 0.125000
vt 0.575000 0.150000
vn -0.000000 0.000000 1.000000
vn 0.000000 0.000000 1.000000
vn 0.000000 0.000000 1.000000
vn 0.000000 0.000000 1.000000
vn 0.000000 0.000000 1.000000
vn 0.000000 0.000000 1.000000
vn 0.000000 0.000000 1.000000
vn -0.000000 -0.000000 1.000000
vn -0.000000 -0.000000 1.000000
vn -0.000000 0.000000 1.000000
vn 0.000000 0.000000 1.000000
vn 0.000000 0.000000 1.000000
vn 0.000000 -0.000000 1.000000
vn 0.000000 -0.000000 1.000000
vn 0.000000 0.000000 1.000000
vn 0.000000 0.000000 1.000000
vn 0.000000 0.000000 1.000000
vn 0.000000 0.000000 1.000000
vn -0.000000 -0.000000 1.000000
vn -0.000000 -0.000000 1.000000
vn -0.000000 -0.000000 1.000000
vn -0.000000 -0.000000 1.000000
vn 0.000000 -0.000000 1.000000
vn 0.000000 -0.000000 1.000000
vn 0.000000 -0.000000 1.000000
vn 0.000000 -0.000000 1.000000
vn 0.000000 -0.000000 1.000000
vn 0.000000 -0.000000 1.000000
vn -0.000000 0.000000 1.000000
vn 0.000000 0.000000 1.000000
vn 0.000000 0.000000 1.000000
vn 0.000000 0.000000 1.000000
vn -0.000000 0.000000 1.000000
vn -0.000000 -0.000000 1.000000
vn 0.000000 -0.000000 1.000000
vn 0.000000 -0.000000 1.000000
vn 0.000000 -0.000000 1.000000
vn 0.000000 -0.000000 1.000000
vn 0.000000 -0.000000 1.000000
vn 0.000000 0.000000 1.000000
vn 0.000000 -0.000000 -1.000000
vn 0.000000 -0.000000 -1.000000
vn 0.000000 -0.000000 -1.000000
vn 0.000000 -0.000000 -1.000000
vn 0.000000 -0.000000 -1.000000
vn 0.000000 -0.000000 -1.000000
vn 0.000000 -0.000000 -1.000000
vn 0.000000 0.000000 -1.000000
vn 0.000000 0.000000 -1.000000
vn 0.000000 0.000000 -1.000000
vn 0.000000 -0.000000 -1.000000
vn -0.000000 -0.000000 -1.000000
vn -0.000000 0.000000 -1.000000
vn -0.000000 0.000000 -1.000000
vn 0.000000 -0.000000 -1.000000
vn 0.000000 -0.000000 -1.000000
vn -0.000000 -0.000000 -1.000000
vn -0.000000 -0.000000 -1.000000
vn 0.000000 0.000000 -1.000000
vn 0.000000 0.000000 -1.000000
vn 0.000000 0.000000 -1.000000
vn 0.000000 0.000000 -1.000000
vn 0.000000 0.000000 -1.000000
vn 0.000000 0.000000 -1.000000
vn 0.000000 0.000000 -1.000000
vn 0.000000 0.000000 -1.000000
vn -0.000000 0.000000 -1.000000
vn 0.000000 0.000000 -1.000000
vn 0.000000 -0.000000 -1.000000
vn -0.000000 -0.000000 -1.000000
vn 0.000000 -0.000000 -1.000000
vn 0.000000 -0.000000 -1.000000
vn 0.000000 -0.000000 -1.000000
vn 0.000000 0.000000 -1.000000
vn 0.000000 0.000000 -1.000000
vn 0.000000 0.000000 -1.000000
vn 0.000000 0.000000 -1.000000
vn 0.000000 0.000000 -1.000000
vn -0.000000 0.000000 -1.000000
vn -0.000000 -0.000000 -1.000000
vn 0.000000 1.000000 0.000000
vn 0.000000 1.000000 0.000000
vn 0.000000 1.000000 0.000000
vn 0.000000 1.000000 0.000000
vn -1.000000 0.000000 0.000000
vn -1.000000 0.000000 0.000000
vn -1.000000 0.000000 0.000000
vn -1.000000 0.000000 0.000000
vn -0.000000 -1.000000 0.000000
vn -0.258820 -0.965925 0.000000
vn -0.258820 -0.965925 0.000000
vn -0.000000 -1.000000 0.000000
vn 0.965925 0.258821 0.000000
vn 1.000000 0.000000 0.000000
vn 1.000000 0.000000 0.000000
vn 0.965925 0.258821 0.000000
vn 0.707107 -0.707107 0.000000
vn 0.499999 -0.866026 0.000000
vn 0.499999 -0.866026 0.000000
vn 0.707107 -0.707107 0.000000
vn -1.000000 0.000000 0.000000
vn -0.965925 0.258821 0.000000
vn -0.965925 0.258821 0.000000
vn -1.000000 0.000000 0.000000
vn 1.000000 0.000000 0.000000
vn 1.000000 0.000000 0.000000
vn 1.000000 0.000000 0.000000
vn 1.000000 0.000000 0.000000
vn 0.000000 1.000000 0.000000
vn 0.000000 1.000000 0.000000
vn 0.000000 1.000000 0.000000
vn 0.000000 1.000000 0.000000
vn 0.000000 -1.000000 0.000000
vn 0.000000 -1.000000 0.000000
vn 0.000000 -1.000000 0.000000
vn 0.000000 -1.000000 0.000000
vn -1.000000 0.000000 0.000000
vn -1.000000 0.000000 0.000000
vn -1.000000 0.000000 0.000000
vn -1.000000 0.000000 0.000000
vn 0.499999 0.866026 0.000000
vn 0.707107 0.707107 0.000000
vn 0.707107 0.707107 0.000000
vn 0.499999 0.866026 0.000000
vn -0.707107 0.707107 0.000000
vn -0.499999 0.866026 0.000000
vn -0.499999 0.866026 0.000000
vn -0.707107 0.707107 0.000000
vn 0.000000 -1.000000 0.000000
vn 0.000000 -1.000000 0.000000
vn 0.000000 -1.000000 0.000000
vn 0.000000 -1.000000 0.000000
vn 1.000000 0.000000 0.000000
vn 1.000000 0.000000 0.000000
vn 1.000000 0.000000 0.000000
vn 1.000000 0.000000 0.000000
vn 0.965925 -0.258821 0.000000
vn 0.965925 -0.258821 0.000000
vn -0.707107 -0.707107 0.000000
vn -0.866026 -0.499999 0.000000
vn -0.866026 -0.499999 0.000000
vn -0.707107 -0.707107 0.000000
vn -0.499998 -0.866026 0.000000
vn -0.499998 -0.866026 0.000000
vn 0.000000 1.000000 0.000000
vn 0.000000 1.000000 0.000000
vn 0.258820 -0.965926 0.000000
vn 0.258820 -0.965926 0.000000
vn 0.866026 -0.499999 0.000000
vn 0.866026 -0.499999 0.000000
vn -1.000000 0.000000 0.000000
vn -1.000000 0.000000 0.000000
vn 0.866026 0.499999 0.000000
vn 0.866026 0.499999 0.000000
vn 0.000000 1.000000 0.000000
vn 0.258821 0.965925 0.000000
vn 0.258821 0.965925 0.000000
vn 0.000000 1.000000 0.000000
vn 0.000000 -1.000000 0.000000
vn 0.000000 -1.000000 0.000000
vn -0.258821 0.965925 0.000000
vn -0.258821 0.965925 0.000000
vn -0.866026 0.499999 0.000000
vn -0.866026 0.499999 0.000000
vn 1.000000 0.000000 0.000000
vn 1.000000 0.000000 0.000000
vn -0.965925 -0.258820 0.000000
vn -0.965925 -0.258820 0.000000
s 1
g WallWindow
usemtl initialShadingGroup
f 41/83/1 42/88/2 43/81/3 44/82/4
f 46/109/5 45/84/6 47/85/7
f 48/112/8 49/86/9 50/87/10
f 43/81/3 42/88/2 51/89/11
f 53/119/12 52/90/13 54/91/14
f 56/94/15 55/106/16 57/92/17 58/93/18
f 59/95/19 60/96/20 61/99/21 62/97/22
f 60/96/20 63/98/23 61/99/21
f 64/102/24 65/100/25 66/101/26
f 67/104/27 65/100/25 64/102/24 68/103/28
f 48/112/8 50/87/10 69/105/29
f 57/92/17 55/106/16 70/107/30
f 56/94/15 71/108/31 55/106/16
f 46/109/5 47/85/7 71/108/31 56/94/15
f 46/109/5 72/110/32 45/84/6
f 43/81/3 51/89/11 72/110/32 46/109/5
f 41/83/1 73/111/33 42/88/2
f 48/112/8 69/105/29 73/111/33 41/83/1
f 62/97/22 61/99/21 74/113/34
f 62/97/22 74/113/34 49/86/9 48/112/8
f 76/114/35 75/115/36 77/116/37
f 77/116/37 75/115/36 63/98/23 60/96/20
f 77/116/37 78/117/38 76/114/35
f 64/102/24 66/101/26 78/117/38 77/116/37
f 67/104/27 79/118/39 65/100/25
f 53/119/12 54/91/14 79/118/39 67/104/27
f 53/119/12 80/120/40 52/90/13
f 57/92/17 70/107/30 80/120/40 53/119/12
s 8
f 20/41/41 3/44/42 11/43/43 21/42/44
f 6/45/45 39/47/46 22/46/47
f 7/48/48 10/50/49 30/49/50
f 11/43/43 37/51/51 21/42/44
f 8/52/52 32/54/53 13/53/54
f 14/55/55 4/58/56 24/57/57 23/56/58
f 1/59/59 15/62/60 16/61/61 9/60/62
f 9/60/62 16/61/61 33/63/63
f 12/64/64 36/66/65 18/65/66
f 19/67/67 2/68/68 12/64/64 18/65/66
f 7/48/48 25/69/69 10/50/49
f 24/57/57 28/70/70 23/56/58
f 14/55/55 23/56/58 40/71/71
f 6/45/45 14/55/55 40/71/71 39/47/46
f 6/45/45 22/46/47 38/72/72
f 11/43/43 6/45/45 38/72/72 37/51/51
f 20/41/41 21/42/44 26/73/73
f 7/48/48 20/41/41 26/73/73 25/69/69
f 15/62/60 29/74/74 16/61/61
f 15/62/60 7/48/48 30/49/50 29/74/74
f 17/75/75 5/77/76 34/76/77
f 5/77/76 9/60/62 33/63/63 34/76/77
f 5/77/76 17/75/75 35/78/78
f 12/64/64 5/77/76 35/78/78 36/66/65
f 19/67/67 18/65/66 31/79/79
f 8/52/52 19/67/67 31/79/79 32/54/53
f 8/52/52 13/53/54 27/80/80
f 24/57/57 8/52/52 27/80/80 28/70/70
s 16
f 11/3/81 3/4/82 44/82/83 43/81/84
s 17
f 3/4/85 20/1/86 41/83/87 44/82/88
s 18
f 22/6/89 39/7/90 47/85/91 45/84/92
f 30/9/93 10/10/94 50/87/95 49/86/96
f 21/2/97 37/11/98 51/89/99 42/88/100
f 13/13/101 32/14/102 54/91/103 52/90/104
s 22
f 24/17/105 4/18/106 58/93/107 57/92/108
s 16
f 4/18/109 14/15/110 56/94/111 58/93/112
s 24
f 1/19/113 9/20/114 60/96/115 59/95/116
s 17
f 15/22/117 1/19/118 59/95/119 62/97/120
s 18
f 33/23/121 16/21/122 61/99/123 63/98/124
f 18/25/125 36/26/126 66/101/127 65/100/128
s 24
f 12/24/129 2/28/130 68/103/131 64/102/132
s 22
f 2/28/133 19/27/134 67/104/135 68/103/136
s 18
f 10/10/94 25/29/137 69/105/138 50/87/95
f 23/16/139 28/30/140 70/107/141 55/106/142
f 40/31/143 23/16/139 55/106/142 71/108/144
f 39/7/90 40/31/143 71/108/144 47/85/91
s 16
f 14/15/110 6/5/145 46/109/146 56/94/111
s 18
f 38/32/147 22/6/89 45/84/92 72/110/148
f 37/11/98 38/32/147 72/110/148 51/89/99
s 16
f 6/5/145 11/3/81 43/81/84 46/109/146
s 18
f 26/33/149 21/2/97 42/88/100 73/111/150
f 25/29/137 26/33/149 73/111/150 69/105/138
s 17
f 20/1/86 7/8/151 48/112/152 41/83/87
s 18
f 16/21/122 29/34/153 74/113/154 61/99/123
f 29/34/153 30/9/93 49/86/96 74/113/154
s 17
f 7/8/151 15/22/117 62/97/120 48/112/152
s 18
f 17/35/155 34/36/156 75/115/157 76/114/158
f 34/36/156 33/23/121 63/98/124 75/115/157
s 24
f 9/20/114 5/37/159 77/116/160 60/96/115
s 18
f 35/38/161 17/35/155 76/114/158 78/117/162
f 36/26/126 35/38/161 78/117/162 66/101/127
s 24
f 5/37/159 12/24/129 64/102/132 77/116/160
s 18
f 31/39/163 18/25/125 65/100/128 79/118/164
f 32/14/102 31/39/163 79/118/164 54/91/103
s 22
f 19/27/134 8/12/165 53/119/166 67/104/135
s 18
f 27/40/167 13/13/101 52/90/104 80/120/168
f 28/30/140 27/40/167 80/120/168 70/107/141
s 22
f 8/12/165 24/17/105 57/92/108 53/119/166
