# This file uses centimeters as units for non-parametric coordinates.

mtllib Door.mtl
g default
v 11.386190 5.823530 -2.195441
v 11.353708 5.810077 -2.227921
v 11.340257 5.777598 -2.241374
v 11.597063 5.823530 -2.195441
v 11.597063 5.810077 -2.227921
v 11.597063 5.777598 -2.241374
v 11.340257 5.685714 -2.241374
v 11.353708 5.653235 -2.227921
v 11.386190 5.639781 -2.195441
v 11.597063 5.685714 -2.241374
v 11.597063 5.653235 -2.227921
v 11.597063 5.639781 -2.195441
v 11.386190 5.823530 -2.005936
v 11.353708 5.810077 -2.005936
v 11.340257 5.777598 -2.005936
v 11.340257 5.685714 -2.005936
v 11.353708 5.653235 -2.005936
v 11.386190 5.639781 -2.005936
v 11.853869 5.653235 -2.019390
v 11.853869 5.639781 -2.051869
v 11.853869 5.685714 -2.005936
v 11.551129 5.639781 -2.051869
v 11.583608 5.653235 -2.019390
v 11.597063 5.685714 -2.005936
v 11.853869 5.810077 -2.019390
v 11.853869 5.777598 -2.005936
v 11.853869 5.823530 -2.051869
v 11.597063 5.777598 -2.005936
v 11.583608 5.810077 -2.019390
v 11.551129 5.823530 -2.051869
v 11.853869 5.810077 -2.227921
v 11.853869 5.823530 -2.195441
v 11.853869 5.777598 -2.241374
v 11.853869 5.653235 -2.227921
v 11.853869 5.685714 -2.241374
v 11.853869 5.639781 -2.195441
v 11.357456 5.689135 -1.505937
v 11.345295 5.686716 -1.510974
v 11.340257 5.685714 -1.523136
v 11.340257 5.777598 -1.523136
v 11.345295 5.776595 -1.510974
v 11.357456 5.774177 -1.505937
v 11.386190 5.639781 -1.523136
v 11.387192 5.644819 -1.510974
v 11.389611 5.656980 -1.505937
v 11.547708 5.656980 -1.505937
v 11.550129 5.644819 -1.510974
v 11.551129 5.639781 -1.523136
v 11.597063 5.685714 -1.523136
v 11.592026 5.686716 -1.510974
v 11.579865 5.689136 -1.505937
v 11.579865 5.774177 -1.505937
v 11.592026 5.776595 -1.510974
v 11.597063 5.777598 -1.523136
v 11.551129 5.823530 -1.523136
v 11.550129 5.818493 -1.510974
v 11.547708 5.806332 -1.505937
v 11.389611 5.806332 -1.505937
v 11.387192 5.818493 -1.510974
v 11.386190 5.823530 -1.523136
v 11.366872 5.796913 -1.505937
v 11.357566 5.806221 -1.510974
v 11.353708 5.810077 -1.523136
v 11.366872 5.666398 -1.505937
v 11.357566 5.657091 -1.510974
v 11.353708 5.653235 -1.523136
v 11.570444 5.666398 -1.505937
v 11.579753 5.657091 -1.510974
v 11.583608 5.653235 -1.523136
v 11.570444 5.796913 -1.505937
v 11.579753 5.806221 -1.510974
v 11.583608 5.810077 -1.523136
vt 0.714971 0.924789
vt 0.798320 0.923765
vt 0.798832 0.965443
vt 0.715483 0.966468
vt 0.719553 0.909998
vt 0.798139 0.909032
vt 0.969240 0.921664
vt 0.969752 0.963342
vt 0.720427 0.981142
vt 0.799013 0.980176
vt 0.730976 0.903754
vt 0.798064 0.902929
vt 0.969059 0.906931
vt 0.973551 0.922065
vt 0.974052 0.962835
vt 0.969933 0.978075
vt 0.732000 0.987103
vt 0.799088 0.986278
vt 0.968984 0.900829
vt 0.973385 0.908627
vt 0.975348 0.923141
vt 0.975822 0.961716
vt 0.974217 0.976273
vt 0.970008 0.984178
vt 0.973317 0.903061
vt 0.975221 0.912827
vt 0.975948 0.972029
vt 0.974285 0.981840
vt 0.162883 0.538750
vt 0.154586 0.541486
vt 0.131070 0.541626
vt 0.122741 0.538988
vt 0.119259 0.532521
vt 0.119088 0.503843
vt 0.122493 0.497335
vt 0.130790 0.494598
vt 0.154306 0.494458
vt 0.162635 0.497096
vt 0.166117 0.503563
vt 0.166288 0.532241
vt 0.009564 0.506278
vt 0.011992 0.506007
vt 0.012132 0.529523
vt 0.009701 0.529281
vt 0.009519 0.498695
vt 0.011942 0.497694
vt 0.108430 0.505433
vt 0.108570 0.528949
vt 0.012181 0.537836
vt 0.009746 0.536863
vt 0.008561 0.506903
vt 0.008691 0.528668
vt 0.008527 0.501083
vt 0.009500 0.495554
vt 0.011922 0.494251
vt 0.111068 0.497104
vt 0.111307 0.537246
vt 0.012202 0.541279
vt 0.009765 0.540004
vt 0.008725 0.534487
vt 0.117535 0.493622
vt 0.117815 0.540650
vt 0.692317 0.933154
vt 0.679968 0.932902
vt 0.678767 0.991963
vt 0.691116 0.992214
vt 0.693455 0.877186
vt 0.680955 0.884405
vt 0.625598 0.921229
vt 0.624182 0.990853
vt 0.608906 0.882940
vt 0.611834 0.990602
vt 0.613098 0.928447
vt 0.425349 0.879207
vt 0.424577 0.917141
vt 0.419958 0.916816
vt 0.420720 0.879344
vt 0.679968 0.932902
vt 0.692317 0.933154
vt 0.691115 0.992214
vt 0.678767 0.991963
vt 0.680954 0.884405
vt 0.693455 0.877186
vt 0.625598 0.921228
vt 0.624182 0.990853
vt 0.608906 0.882940
vt 0.611834 0.990602
vt 0.613098 0.928447
vt 0.424577 0.917140
vt 0.425348 0.879207
vt 0.420720 0.879344
vt 0.419958 0.916816
vt 0.247150 0.505875
vt 0.247101 0.497562
vt 0.278130 0.497378
vt 0.278180 0.505690
vt 0.216120 0.506060
vt 0.217696 0.497737
vt 0.247290 0.529392
vt 0.278320 0.529207
vt 0.216260 0.529576
vt 0.247340 0.537704
vt 0.278369 0.537520
vt 0.217935 0.537879
vt 0.209736 0.538983
vt 0.201423 0.539033
vt 0.201238 0.508003
vt 0.209541 0.506328
vt 0.177722 0.508143
vt 0.177906 0.539173
vt 0.169594 0.539222
vt 0.169399 0.506567
vt 0.592863 0.946698
vt 0.598925 0.946253
vt 0.598147 0.984519
vt 0.592108 0.983828
vt 0.588287 0.941262
vt 0.592962 0.939171
vt 0.591900 0.991353
vt 0.587315 0.989073
vt 0.534716 0.937961
vt 0.577021 0.938821
vt 0.575958 0.991055
vt 0.533654 0.990195
vt 0.522388 0.987752
vt 0.517811 0.982317
vt 0.518566 0.945187
vt 0.523360 0.939942
vt 0.511750 0.982763
vt 0.517713 0.989844
vt 0.512528 0.944496
vt 0.518774 0.937662
vn 0.000000 0.106519 -0.994311
vn 0.000000 0.382685 -0.923879
vn 0.000000 0.382685 -0.923879
vn 0.000000 0.107551 -0.994199
vn 0.000000 0.923881 -0.382681
vn 0.000000 0.997262 -0.073950
vn 0.000000 0.997473 -0.071042
vn 0.000000 0.923881 -0.382681
vn 0.000000 -0.997262 -0.073952
vn 0.000000 -0.923877 -0.382689
vn 0.000000 -0.923877 -0.382689
vn 0.000000 -0.997473 -0.071044
vn 0.000000 -0.382685 -0.923879
vn 0.000000 -0.106519 -0.994311
vn 0.000000 -0.107551 -0.994199
vn 0.000000 -0.382685 -0.923879
vn 0.000000 -0.996979 0.077675
vn 0.000000 -0.923877 0.382689
vn 0.000000 -0.923877 0.382689
vn 0.019519 -0.999658 0.017393
vn 0.000000 -0.382685 0.923879
vn 0.000000 -0.109594 0.993976
vn 0.000000 -0.118606 0.992941
vn 0.000000 -0.382685 0.923879
vn 0.000000 0.109594 0.993976
vn 0.000000 0.382685 0.923879
vn 0.000000 0.382685 0.923879
vn 0.000000 0.118606 0.992941
vn 0.000000 0.923881 0.382681
vn 0.000000 0.996979 0.077673
vn 0.019519 0.999658 0.017393
vn 0.000000 0.923881 0.382681
vn -0.061225 0.998124 0.000000
vn -0.084681 0.993334 -0.078211
vn 0.000000 0.096098 -0.995372
vn 0.000000 -0.096098 -0.995372
vn -0.084683 -0.993334 -0.078213
vn -0.061226 -0.998124 0.000000
vn -0.996006 -0.089282 0.000000
vn -0.994281 -0.106800 0.000000
vn -0.994281 0.106800 0.000000
vn -0.996006 0.089282 0.000000
vn 1.000000 -0.000000 0.000000
vn 1.000000 -0.000000 0.000000
vn 1.000000 -0.000000 0.000000
vn 1.000000 -0.000000 0.000000
vn 1.000000 -0.000000 0.000000
vn 1.000000 -0.000000 0.000000
vn 1.000000 -0.000000 0.000000
vn 1.000000 -0.000000 0.000000
vn 1.000000 -0.000000 0.000000
vn 1.000000 -0.000000 0.000000
vn 1.000000 -0.000000 0.000000
vn 1.000000 -0.000000 0.000000
vn -0.382653 0.923892 0.000000
vn -0.382652 0.923892 0.000000
vn -0.923898 0.382640 0.000000
vn -0.923898 0.382640 0.000000
vn 0.000000 0.382685 -0.923879
vn 0.000000 0.923881 -0.382681
vn -0.923898 -0.382640 0.000000
vn -0.923898 -0.382640 0.000000
vn -0.382661 -0.923889 0.000000
vn -0.382661 -0.923889 0.000000
vn 0.000000 -0.923877 -0.382689
vn 0.000000 -0.382685 -0.923879
vn -0.994140 -0.107655 0.009757
vn -0.917466 -0.089900 0.387522
vn -0.917466 0.089893 0.387525
vn -0.994140 0.107655 0.009757
vn -0.374466 -0.046053 0.926096
vn -0.010567 -0.000788 0.999944
vn -0.010567 0.000788 0.999944
vn -0.374466 0.046051 0.926096
vn -0.001450 -0.019969 0.999800
vn -0.015310 -0.380040 0.924843
vn 0.015310 -0.380038 0.924844
vn 0.001450 -0.019970 0.999800
vn -0.067942 -0.919751 0.386578
vn -0.065215 -0.997828 0.009273
vn 0.068482 -0.997610 0.009184
vn 0.067946 -0.919754 0.386570
vn 0.010568 -0.000788 0.999944
vn 0.374444 -0.046068 0.926104
vn 0.374446 0.046066 0.926104
vn 0.010567 0.000788 0.999944
vn 0.917508 -0.089921 0.387419
vn 0.994022 -0.108749 0.009719
vn 0.994022 0.108749 0.009719
vn 0.917507 0.089918 0.387421
vn 0.001450 0.019970 0.999800
vn 0.015311 0.380055 0.924837
vn -0.015311 0.380057 0.924836
vn -0.001450 0.019969 0.999800
vn 0.067943 0.919745 0.386592
vn 0.068481 0.997610 0.009184
vn -0.065213 0.997828 0.009274
vn -0.067940 0.919742 0.386600
vn 0.992367 -0.123320 0.000000
vn 0.992367 0.123320 0.000000
vn -0.004841 -0.003778 0.999981
vn 0.004841 -0.003778 0.999981
vn 0.004841 0.003778 0.999981
vn -0.004841 0.003778 0.999981
vn -0.382632 0.923842 0.010425
vn -0.923870 0.382629 0.007695
vn -0.923870 -0.382629 0.007695
vn -0.382641 -0.923838 0.010424
vn 0.382699 -0.923873 0.000000
vn 0.382680 -0.923829 0.009834
vn 0.923860 -0.382730 0.000000
vn 0.923834 -0.382719 0.007588
vn 0.923860 0.382730 0.000000
vn 0.923834 0.382719 0.007588
vn 0.382690 0.923877 0.000000
vn 0.382672 0.923832 0.009835
vn -0.206640 -0.297782 0.932001
vn -0.853532 -0.353510 0.382771
vn 0.206644 -0.297752 0.932010
vn 0.353575 -0.853555 0.382661
vn 0.206647 0.297758 0.932007
vn 0.853549 0.353597 0.382653
vn -0.206644 0.297786 0.931999
vn -0.353532 0.853543 0.382726
vn -0.853528 0.353506 0.382784
vn -0.353544 -0.853547 0.382706
vn 0.853553 -0.353598 0.382644
vn 0.353564 0.853550 0.382682
s 1
g DoorHandle1 group1
usemtl initialShadingGroup
f 6/93/1 5/94/2 31/95/3 33/96/4
s 2
f 5/63/5 4/64/6 32/65/7 31/66/8
s 3
f 12/78/9 11/79/10 34/80/11 36/81/12
s 1
f 11/102/13 10/99/14 35/100/15 34/103/16
s 3
f 20/85/17 19/87/18 23/88/19 22/84/20
s 5
f 19/105/21 21/106/22 24/107/23 23/108/24
f 26/110/25 25/111/26 29/112/27 28/109/28
s 2
f 25/72/29 27/70/30 30/69/31 29/73/32
f 13/71/33 30/69/31 4/64/6 1/68/34
s 1
f 3/97/35 6/93/1 10/99/14 7/101/36
s 3
f 9/82/37 12/78/9 22/84/20 18/86/38
s 7
f 7/1/39 16/2/40 15/3/41 3/4/42
s 5
f 28/109/28 24/107/23 21/106/22 26/110/25
s 2
f 4/64/6 30/69/31 27/70/30 32/65/7
s 1
f 10/99/14 6/93/1 33/96/4 35/100/15
s 3
f 22/84/20 12/78/9 36/81/12 20/85/17
s off
f 34/29/43 35/30/44 33/31/45 31/32/46 32/33/47 27/34/48 25/35/49 26/36/50 21/37/51 19/38/52 20/39/53 36/40/54
s 2
f 1/17/34 2/9/55 14/10/56 13/18/33
s 7
f 2/9/57 3/4/42 15/3/41 14/10/58
s 1
f 3/97/35 2/98/59 5/94/2 6/93/1
s 2
f 2/67/60 1/68/34 4/64/6 5/63/5
s 7
f 7/1/39 8/5/61 17/6/62 16/2/40
s 3
f 8/5/63 9/11/37 18/12/38 17/6/64
f 9/82/37 8/83/65 11/79/10 12/78/9
s 1
f 8/104/66 7/101/36 10/99/14 11/102/13
s 7
f 39/7/67 38/14/68 41/15/69 40/8/70
s 9
f 38/14/71 37/21/72 42/22/73 41/15/74
f 45/113/75 44/114/76 47/115/77 46/116/78
s 3
f 44/91/79 43/90/80 48/89/81 47/92/82
s 9
f 51/51/83 50/41/84 53/44/85 52/52/86
s 13
f 50/41/87 49/42/88 54/43/89 53/44/90
s 9
f 57/126/91 56/129/92 59/131/93 58/127/94
s 2
f 56/76/95 55/75/96 60/74/97 59/77/98
s 3
f 18/86/38 22/84/20 48/89/81 43/90/80
s 13
f 24/47/99 28/48/100 54/43/89 49/42/88
s 2
f 30/69/31 13/71/33 60/74/97 55/75/96
s 7
f 15/3/41 16/2/40 39/7/67 40/8/70
s 9
f 42/121/73 37/122/72 64/117/101 45/113/75 46/116/78 67/120/102 51/123/83 52/124/86 70/125/103 57/126/91 58/127/94 61/128/104
s 2
f 13/18/33 14/10/56 63/16/105 60/24/97
s 7
f 14/10/58 15/3/41 40/8/70 63/16/106
f 16/2/40 17/6/62 66/13/107 39/7/67
s 3
f 17/6/64 18/12/38 43/19/80 66/13/108
f 22/61/20 23/56/109 69/46/110 48/55/81
s 13
f 23/56/111 24/47/99 49/42/88 69/46/112
f 28/48/100 29/57/113 72/49/114 54/43/89
s 2
f 29/57/115 30/62/31 55/58/96 72/49/116
s 9
f 37/21/72 38/14/71 65/20/117 64/26/101
s 7
f 38/14/68 39/7/67 66/13/107 65/20/118
s 9
f 46/116/78 47/115/77 68/119/119 67/120/102
s 3
f 47/54/82 48/55/81 69/46/110 68/45/120
s 9
f 52/52/86 53/44/85 71/50/121 70/60/103
s 13
f 53/44/90 54/43/89 72/49/114 71/50/122
s 9
f 58/127/94 59/131/93 62/132/123 61/128/104
s 2
f 59/28/98 60/24/97 63/16/105 62/23/124
s 7
f 40/8/70 41/15/69 62/23/125 63/16/106
s 9
f 41/15/74 42/22/73 61/27/104 62/23/123
s 3
f 43/19/80 44/25/79 65/20/126 66/13/108
s 9
f 44/114/76 45/113/75 64/117/101 65/118/117
s 13
f 49/42/88 50/41/87 68/45/127 69/46/112
s 9
f 50/41/84 51/51/83 67/53/102 68/45/119
s 2
f 55/58/96 56/59/95 71/50/128 72/49/116
s 9
f 56/129/92 57/126/91 70/125/103 71/130/121
g default
v 12.043048 1.066908 -2.348931
v 12.043048 4.432440 -2.348931
v 12.043048 6.892086 -2.348931
v 12.043048 11.163507 -2.348931
v 12.043048 11.724428 -2.348931
v 12.043048 1.066908 2.800219
v 12.043048 4.432440 2.800219
v 12.043048 6.892086 2.800219
v 12.043048 11.163507 2.800219
v 12.043048 11.724428 2.800219
v 12.043049 1.266908 -2.148931
v 12.043049 4.232441 -2.148931
v 12.043049 4.232441 2.600219
v 12.043049 1.266908 2.600219
v 12.043049 7.092087 -2.148931
v 12.043049 10.963506 -2.148932
v 12.043049 10.963506 2.600217
v 12.043049 7.092087 2.600217
v 11.979572 1.266908 -2.148933
v 11.979572 4.232441 -2.148933
v 11.979570 4.232441 2.600219
v 11.979570 1.266908 2.600219
v 11.979572 7.092087 -2.148931
v 11.979572 10.963506 -2.148931
v 11.979570 10.963506 2.600219
v 11.979570 7.092087 2.600219
v 11.979572 1.466908 -1.948932
v 11.979572 4.032441 -1.948932
v 11.979570 4.032441 2.400218
v 11.979570 1.466908 2.400218
v 11.979570 7.292086 -1.948932
v 11.979570 10.763507 -1.948932
v 11.979570 10.763507 2.400218
v 11.979570 7.292086 2.400218
v 11.925755 1.466908 -1.948931
v 11.925755 4.032441 -1.948931
v 11.925756 4.032441 2.400218
v 11.925756 1.466908 2.400218
v 11.925756 7.292086 -1.948931
v 11.925756 10.763507 -1.948931
v 11.925756 10.763507 2.400218
v 11.925756 7.292086 2.400218
v 12.043049 1.066908 2.923802
v 12.028804 1.066908 2.954694
v 12.043048 4.432440 2.923802
v 12.028804 4.432440 2.954694
v 12.043049 6.892086 2.923802
v 12.028804 6.892086 2.954693
v 12.043048 11.163507 2.923802
v 12.028804 11.163507 2.954694
v 12.043049 11.724428 2.923802
v 12.028804 11.724428 2.954693
v 12.043048 11.861815 2.923802
v 12.028804 11.892706 2.954693
v 12.043048 11.861815 2.800219
v 12.028804 11.892706 2.800218
v 12.043048 11.861815 -2.348931
v 12.028804 11.892706 -2.348931
v 12.043048 11.861815 -2.472514
v 12.028804 11.892706 -2.503406
v 12.043049 11.724428 -2.472515
v 12.028804 11.724428 -2.503407
v 12.043049 11.163507 -2.472515
v 12.028804 11.163507 -2.503407
v 12.043049 6.892086 -2.472515
v 12.028804 6.892086 -2.503407
v 12.043049 4.432440 -2.472516
v 12.028804 4.432440 -2.503407
v 12.043049 1.066908 -2.472516
v 12.028804 1.066908 -2.503407
v 12.043048 0.929523 -2.472514
v 12.028804 0.898631 -2.503406
v 12.043049 0.929523 2.923801
v 12.028804 0.898631 2.954692
v 12.043049 0.929523 -2.348932
v 12.028804 0.898631 -2.348931
v 12.043048 0.929523 2.800220
v 12.028804 0.898631 2.800219
v 11.692353 1.066908 -2.348930
v 11.692353 4.432440 -2.348930
v 11.692353 6.892086 -2.348930
v 11.692353 11.163507 -2.348930
v 11.692353 11.724428 -2.348931
v 11.692356 1.066908 2.800219
v 11.692356 4.432440 2.800219
v 11.692356 6.892086 2.800219
v 11.692356 11.163507 2.800219
v 11.692356 11.724428 2.800219
v 11.692354 1.266908 -2.148932
v 11.692354 4.232441 -2.148931
v 11.692354 4.232441 2.600219
v 11.692354 1.266908 2.600220
v 11.692354 7.092087 -2.148930
v 11.692354 10.963506 -2.148930
v 11.692356 10.963506 2.600217
v 11.692356 7.092087 2.600217
v 11.755836 1.266908 -2.148931
v 11.755836 4.232441 -2.148931
v 11.755836 4.232441 2.600219
v 11.755836 1.266908 2.600219
v 11.755836 7.092087 -2.148931
v 11.755836 10.963506 -2.148931
v 11.755836 10.963506 2.600219
v 11.755836 7.092087 2.600219
v 11.755838 1.466908 -1.948931
v 11.755838 4.032441 -1.948931
v 11.755838 4.032441 2.400219
v 11.755838 1.466908 2.400219
v 11.755838 7.292086 -1.948931
v 11.755838 10.763507 -1.948931
v 11.755838 10.763507 2.400219
v 11.755838 7.292086 2.400219
v 11.809647 1.466908 -1.948931
v 11.809647 4.032441 -1.948931
v 11.809647 4.032441 2.400219
v 11.809647 1.466908 2.400219
v 11.809647 7.292086 -1.948931
v 11.809647 10.763507 -1.948931
v 11.809647 10.763507 2.400219
v 11.809647 7.292086 2.400219
v 11.692353 1.066908 2.923802
v 11.706603 1.066908 2.954693
v 11.692353 4.432440 2.923802
v 11.706603 4.432440 2.954693
v 11.692353 6.892086 2.923802
v 11.706603 6.892086 2.954693
v 11.692353 11.163507 2.923802
v 11.706603 11.163507 2.954693
v 11.692353 11.724428 2.923802
v 11.706603 11.724428 2.954693
v 11.692353 11.861815 2.923802
v 11.706603 11.892706 2.954693
v 11.692354 11.861815 2.800219
v 11.706603 11.892706 2.800219
v 11.692352 11.861815 -2.348931
v 11.706603 11.892706 -2.348931
v 11.692352 11.861815 -2.472514
v 11.706603 11.892706 -2.503405
v 11.692352 11.724428 -2.472514
v 11.706603 11.724428 -2.503405
v 11.692352 11.163507 -2.472514
v 11.706603 11.163507 -2.503405
v 11.692352 6.892086 -2.472514
v 11.706603 6.892086 -2.503405
v 11.692352 4.432440 -2.472514
v 11.706603 4.432440 -2.503405
v 11.692352 1.066908 -2.472514
v 11.706603 1.066908 -2.503405
v 11.692352 0.929523 -2.472514
v 11.706603 0.898631 -2.503405
v 11.692353 0.929523 2.923802
v 11.706603 0.898631 2.954693
v 11.692352 0.929523 -2.348931
v 11.706603 0.898631 -2.348931
v 11.692354 0.929523 2.800219
v 11.706603 0.898631 2.800219
vt 0.214164 0.042102
vt 0.065393 0.046529
vt 0.065299 0.043344
vt 0.214070 0.038918
vt 0.065299 0.043344
vt 0.214070 0.038918
vt 0.214164 0.042102
vt 0.065393 0.046529
vt 0.043288 0.021965
vt 0.237505 0.016187
vt 0.237600 0.019371
vt 0.043383 0.025150
vt 0.215102 0.035180
vt 0.086398 0.039009
vt 0.086317 0.036310
vt 0.215021 0.032480
vt 0.086317 0.036310
vt 0.215021 0.032480
vt 0.215102 0.035180
vt 0.086398 0.039009
vt 0.238577 0.028273
vt 0.064427 0.033454
vt 0.064347 0.030755
vt 0.238497 0.025573
vt 0.064347 0.030755
vt 0.238497 0.025573
vt 0.238577 0.028273
vt 0.064427 0.033454
vt 0.216629 0.048929
vt 0.216724 0.052114
vt 0.067953 0.056540
vt 0.067858 0.053355
vt 0.067953 0.056540
vt 0.067858 0.053355
vt 0.216629 0.048929
vt 0.216724 0.052114
vt 0.046680 0.084685
vt 0.046585 0.081501
vt 0.240801 0.075722
vt 0.240896 0.078907
vt 0.216479 0.058543
vt 0.216559 0.061242
vt 0.087855 0.065072
vt 0.087775 0.062373
vt 0.087855 0.065072
vt 0.087775 0.062373
vt 0.216479 0.058543
vt 0.216559 0.061243
vt 0.239957 0.067092
vt 0.240037 0.069791
vt 0.065887 0.074972
vt 0.065807 0.072273
vt 0.065887 0.074972
vt 0.065807 0.072273
vt 0.239957 0.067091
vt 0.240037 0.069791
vt 0.975893 0.024095
vt 0.975893 0.034586
vt 0.955807 0.034586
vt 0.955807 0.024095
vt 0.975893 0.244394
vt 0.955807 0.244394
vt 0.975893 0.397729
vt 0.955807 0.397729
vt 0.975893 0.664009
vt 0.955807 0.664009
vt 0.975893 0.698976
vt 0.955807 0.698976
vt 0.975893 0.709467
vt 0.955807 0.709467
vt 0.955807 0.709467
vt 0.955807 0.698976
vt 0.975893 0.698976
vt 0.975893 0.709467
vt 0.955807 0.664009
vt 0.975893 0.664009
vt 0.955807 0.397729
vt 0.975893 0.397729
vt 0.955807 0.244394
vt 0.975893 0.244394
vt 0.955807 0.034586
vt 0.975893 0.034586
vt 0.955807 0.024095
vt 0.975893 0.024095
vt 0.043383 0.025150
vt 0.043288 0.021965
vt 0.237505 0.016187
vt 0.237600 0.019371
vt 0.046585 0.081501
vt 0.240801 0.075722
vt 0.240896 0.078907
vt 0.046679 0.084685
vt 0.020559 0.044675
vt 0.258809 0.037587
vt 0.258904 0.040771
vt 0.020654 0.047860
vt 0.258903 0.040771
vt 0.020654 0.047860
vt 0.020560 0.044676
vt 0.258808 0.037587
vt 0.021272 0.022620
vt 0.259521 0.015532
vt 0.259616 0.018716
vt 0.021367 0.025805
vt 0.259616 0.018716
vt 0.021367 0.025805
vt 0.021272 0.022620
vt 0.259521 0.015531
vt 0.041578 0.037641
vt 0.259760 0.031149
vt 0.259841 0.033849
vt 0.041658 0.040341
vt 0.259841 0.033848
vt 0.041658 0.040341
vt 0.041578 0.037641
vt 0.259760 0.031149
vt 0.042330 0.031410
vt 0.260513 0.024918
vt 0.260593 0.027618
vt 0.042410 0.034109
vt 0.260593 0.027618
vt 0.042410 0.034109
vt 0.042330 0.031410
vt 0.260513 0.024918
vt 0.023214 0.057871
vt 0.023119 0.054686
vt 0.261368 0.047598
vt 0.261463 0.050782
vt 0.261368 0.047598
vt 0.261463 0.050783
vt 0.023214 0.057871
vt 0.023119 0.054687
vt 0.024663 0.085340
vt 0.024568 0.082156
vt 0.262818 0.075067
vt 0.262912 0.078251
vt 0.262817 0.075067
vt 0.262912 0.078252
vt 0.024663 0.085340
vt 0.024568 0.082156
vt 0.043116 0.066403
vt 0.043035 0.063704
vt 0.261218 0.057212
vt 0.261299 0.059912
vt 0.261218 0.057212
vt 0.261298 0.059911
vt 0.043116 0.066403
vt 0.043035 0.063704
vt 0.043871 0.075627
vt 0.043791 0.072928
vt 0.261974 0.066436
vt 0.262054 0.069135
vt 0.261974 0.066436
vt 0.262054 0.069135
vt 0.043871 0.075627
vt 0.043791 0.072928
vt 0.975893 0.196652
vt 0.975893 0.206282
vt 0.955807 0.206282
vt 0.955807 0.196652
vt 0.975893 0.527280
vt 0.955807 0.527280
vt 0.975893 0.536911
vt 0.955807 0.536911
vt 0.955807 0.536911
vt 0.955807 0.527281
vt 0.975893 0.527281
vt 0.975893 0.536911
vt 0.955807 0.206282
vt 0.975893 0.206282
vt 0.955807 0.196652
vt 0.975893 0.196652
vt 0.282378 0.992524
vt 0.035225 0.992524
vt 0.035225 0.573546
vt 0.282378 0.573546
vt 0.631078 0.440547
vt 0.631078 0.301730
vt 0.921686 0.301730
vt 0.921686 0.440547
vt 0.624103 0.440547
vt 0.624103 0.301730
vt 0.642366 0.290442
vt 0.910398 0.290442
vt 0.928661 0.301730
vt 0.928661 0.440547
vt 0.910398 0.451834
vt 0.642366 0.451834
vt 0.622360 0.301730
vt 0.622360 0.440547
vt 0.624103 0.060659
vt 0.631078 0.060659
vt 0.624103 0.630491
vt 0.631078 0.630491
vt 0.642366 0.071946
vt 0.921686 0.060659
vt 0.910398 0.071946
vt 0.928661 0.060659
vt 0.930404 0.440547
vt 0.930404 0.301730
vt 0.921686 0.630491
vt 0.928661 0.630491
vt 0.910398 0.619204
vt 0.642366 0.619204
vt 0.622360 0.060659
vt 0.622360 0.630491
vt 0.631078 0.029001
vt 0.624103 0.029001
vt 0.631078 0.638245
vt 0.624103 0.638245
vt 0.928661 0.029001
vt 0.921686 0.029001
vt 0.930404 0.060659
vt 0.930404 0.630491
vt 0.928661 0.638245
vt 0.921686 0.638245
vt 0.622360 0.029001
vt 0.622360 0.639989
vt 0.624103 0.021247
vt 0.631078 0.021247
vt 0.631078 0.639989
vt 0.930404 0.029001
vt 0.921686 0.021247
vt 0.928661 0.021247
vt 0.930404 0.639989
vt 0.921686 0.639989
vt 0.622360 0.019505
vt 0.631078 0.019505
vt 0.930404 0.019505
vt 0.921686 0.019505
vt 0.293580 0.450590
vt 0.011318 0.450590
vt 0.011318 0.096961
vt 0.293580 0.096961
vt 0.930261 0.664627
vt 0.927519 0.863895
vt 0.914266 0.850271
vt 0.916638 0.677883
vt 0.608404 0.859504
vt 0.622028 0.846250
vt 0.611145 0.660236
vt 0.624400 0.673862
vt 0.335060 0.860728
vt 0.337441 0.648966
vt 0.348257 0.660029
vt 0.346122 0.849912
vt 0.597213 0.651887
vt 0.586150 0.662703
vt 0.594832 0.863649
vt 0.584015 0.852586
vt 0.035225 0.992525
vt 0.035225 0.573545
vt 0.282378 0.573545
vt 0.282378 0.992525
vt 0.309340 0.218947
vt 0.599949 0.218947
vt 0.599949 0.357764
vt 0.309340 0.357764
vt 0.320628 0.207659
vt 0.588661 0.207659
vt 0.606923 0.218947
vt 0.606923 0.357764
vt 0.588661 0.369051
vt 0.320628 0.369051
vt 0.302365 0.218947
vt 0.302365 0.357764
vt 0.309340 0.029002
vt 0.320628 0.040289
vt 0.588661 0.040289
vt 0.599949 0.029002
vt 0.606923 0.029002
vt 0.608667 0.218947
vt 0.608667 0.357764
vt 0.606923 0.598835
vt 0.599949 0.598835
vt 0.588661 0.587548
vt 0.320628 0.587548
vt 0.309340 0.598835
vt 0.302365 0.029002
vt 0.302365 0.598835
vt 0.300622 0.357764
vt 0.300622 0.218947
vt 0.599949 0.021248
vt 0.606923 0.021248
vt 0.608667 0.029002
vt 0.608667 0.598835
vt 0.606923 0.630493
vt 0.599949 0.630493
vt 0.302365 0.021248
vt 0.309340 0.021248
vt 0.300622 0.029002
vt 0.309340 0.630493
vt 0.302365 0.630493
vt 0.300622 0.598835
vt 0.599949 0.019505
vt 0.608667 0.019505
vt 0.608667 0.630493
vt 0.599949 0.638246
vt 0.606923 0.638246
vt 0.300622 0.019505
vt 0.309340 0.019505
vt 0.309340 0.638246
vt 0.302365 0.638246
vt 0.300622 0.630493
vt 0.608667 0.639990
vt 0.599949 0.639990
vt 0.309340 0.639990
vt 0.300622 0.639990
vt 0.011319 0.450589
vt 0.011319 0.096960
vt 0.293579 0.096960
vt 0.293579 0.450589
vt 0.927519 0.863894
vt 0.914265 0.850271
vt 0.916637 0.677883
vt 0.930261 0.664627
vt 0.608404 0.859504
vt 0.622028 0.846250
vt 0.624399 0.673861
vt 0.611145 0.660237
vt 0.337440 0.648967
vt 0.348257 0.660029
vt 0.346122 0.849912
vt 0.335060 0.860728
vt 0.597213 0.651887
vt 0.586150 0.662704
vt 0.584015 0.852586
vt 0.594833 0.863649
vn 1.000000 0.000000 -0.000000
vn 1.000000 0.000000 -0.000000
vn 1.000000 0.000000 -0.000000
vn 1.000000 0.000000 -0.000000
vn 1.000000 0.000000 0.000000
vn 1.000000 -0.000000 0.000000
vn 1.000000 -0.000000 -0.000000
vn 1.000000 0.000000 -0.000000
vn 1.000000 0.000000 0.000000
vn 1.000000 0.000000 0.000000
vn 1.000000 0.000000 0.000000
vn 1.000000 0.000000 0.000000
vn 1.000000 0.000000 0.000000
vn 1.000000 -0.000000 -0.000000
vn 1.000000 0.000001 -0.000000
vn 1.000000 0.000001 0.000001
vn 1.000000 0.000000 0.000001
vn 1.000000 0.000004 -0.000002
vn 1.000000 -0.000004 -0.000002
vn 1.000000 0.000004 0.000002
vn 1.000000 0.000000 -0.000000
vn 1.000000 -0.000004 0.000002
vn 1.000000 0.000003 -0.000003
vn 1.000000 -0.000003 -0.000003
vn 1.000000 0.000003 0.000003
vn 1.000000 -0.000003 0.000003
vn -0.000030 0.000000 1.000000
vn -0.000030 0.000000 1.000000
vn -0.000030 0.000000 1.000000
vn -0.000030 0.000000 1.000000
vn 0.000004 -1.000000 0.000000
vn 0.000004 -1.000000 0.000000
vn 0.000004 -1.000000 0.000000
vn 0.000004 -1.000000 0.000000
vn -0.000005 0.000000 -1.000000
vn -0.000005 0.000000 -1.000000
vn -0.000005 0.000000 -1.000000
vn -0.000005 0.000000 -1.000000
vn 0.000000 1.000000 0.000000
vn 0.000000 1.000000 0.000000
vn 0.000000 1.000000 0.000000
vn 0.000000 1.000000 0.000000
vn 0.000003 -1.000000 0.000000
vn 0.000003 -1.000000 0.000000
vn 0.000003 -1.000000 0.000000
vn 0.000003 -1.000000 0.000000
vn -0.000030 0.000000 -1.000000
vn -0.000030 0.000000 -1.000000
vn -0.000030 0.000000 -1.000000
vn -0.000030 0.000000 -1.000000
vn -0.000005 1.000000 0.000000
vn -0.000005 1.000000 0.000000
vn -0.000005 1.000000 0.000000
vn -0.000005 1.000000 0.000000
vn 1.000000 -0.000000 0.000000
vn 1.000000 0.000000 0.000000
vn 1.000000 0.000000 0.000000
vn 1.000000 -0.000000 0.000000
vn 1.000000 0.000000 0.000000
vn 1.000000 0.000000 0.000000
vn 1.000000 -0.000000 0.000000
vn 1.000000 -0.000000 0.000000
vn 1.000000 0.000002 0.000003
vn 1.000000 -0.000002 0.000003
vn 1.000000 -0.000002 0.000003
vn 1.000000 0.000002 0.000003
vn 1.000000 -0.000002 -0.000000
vn 1.000000 -0.000002 -0.000000
vn 1.000000 0.000002 -0.000000
vn 1.000000 0.000002 -0.000000
vn 0.000006 0.000000 1.000000
vn 0.000006 0.000000 1.000000
vn 0.000006 0.000000 1.000000
vn 0.000006 0.000000 1.000000
vn -0.000001 -1.000000 0.000000
vn -0.000001 -1.000000 0.000000
vn -0.000001 -1.000000 0.000000
vn -0.000001 -1.000000 0.000000
vn -0.000000 0.000000 -1.000000
vn -0.000000 0.000000 -1.000000
vn -0.000000 0.000000 -1.000000
vn -0.000000 0.000000 -1.000000
vn 0.000001 1.000000 0.000000
vn 0.000001 1.000000 0.000000
vn 0.000001 1.000000 0.000000
vn 0.000001 1.000000 0.000000
vn 0.000018 0.000000 1.000000
vn 0.000018 0.000000 1.000000
vn 0.000018 0.000000 1.000000
vn 0.000018 0.000000 1.000000
vn 0.000003 -1.000000 0.000000
vn 0.000003 -1.000000 0.000000
vn 0.000003 -1.000000 0.000000
vn 0.000003 -1.000000 0.000000
vn -0.000000 0.000000 -1.000000
vn -0.000000 0.000000 -1.000000
vn -0.000000 0.000000 -1.000000
vn -0.000000 0.000000 -1.000000
vn 0.000000 1.000000 0.000000
vn 0.000000 1.000000 0.000000
vn 0.000000 1.000000 0.000000
vn 0.000000 1.000000 0.000000
vn 0.908105 -0.000000 0.418742
vn 0.908105 0.000000 0.418742
vn 0.908097 -0.000004 0.418760
vn 0.908097 -0.000004 0.418760
vn 0.908106 0.000000 0.418740
vn 0.908106 0.000000 0.418740
vn 0.908106 0.000000 0.418740
vn 0.908106 -0.000000 0.418740
vn 0.908106 -0.000000 0.418740
vn 0.908106 -0.000000 0.418740
vn 0.908107 0.000000 0.418738
vn 0.908107 0.000000 0.418738
vn 0.908107 0.000004 0.418739
vn 0.908107 0.000004 0.418739
vn 0.908105 0.418742 0.000000
vn 0.908105 0.418742 0.000000
vn 0.908108 0.418736 0.000000
vn 0.908108 0.418736 0.000000
vn 0.908108 0.418736 0.000000
vn 0.908108 0.418736 0.000000
vn 0.908109 0.418734 0.000000
vn 0.908109 0.418734 0.000000
vn 0.908111 0.000006 -0.418729
vn 0.908111 0.000006 -0.418729
vn 0.908104 0.000001 -0.418745
vn 0.908104 0.000001 -0.418745
vn 0.908103 0.000000 -0.418747
vn 0.908103 0.000000 -0.418747
vn 0.908103 0.000000 -0.418748
vn 0.908103 0.000000 -0.418748
vn 0.908101 0.000000 -0.418750
vn 0.908101 0.000000 -0.418750
vn 0.908101 -0.000000 -0.418751
vn 0.908101 -0.000000 -0.418751
vn 0.908110 -0.000008 -0.418731
vn 0.908110 -0.000008 -0.418731
vn 0.908109 -0.418734 -0.000003
vn 0.908109 -0.418734 -0.000003
vn 0.908108 -0.418736 0.000000
vn 0.908108 -0.418736 0.000000
vn 0.908107 -0.418738 -0.000004
vn 0.908107 -0.418738 -0.000004
vn 0.908108 -0.418736 0.000000
vn 0.908108 -0.418736 -0.000000
vn 1.000000 0.000000 -0.000005
vn 1.000000 0.000000 -0.000005
vn 1.000000 0.000000 -0.000006
vn 1.000000 0.000000 -0.000005
vn 1.000000 -0.000000 -0.000005
vn 1.000000 0.000000 -0.000000
vn 1.000000 0.000005 -0.000005
vn 1.000000 0.000000 0.000000
vn 1.000000 0.000001 0.000009
vn 1.000000 0.000005 0.000005
vn 1.000000 0.000000 0.000010
vn 1.000000 -0.000000 0.000010
vn 1.000000 -0.000000 0.000010
vn 1.000000 0.000000 0.000010
vn 1.000000 0.000004 0.000000
vn 1.000000 0.000000 -0.000001
vn 1.000000 0.000004 -0.000000
vn 1.000000 0.000000 -0.000010
vn -1.000000 0.000000 0.000000
vn -1.000000 0.000000 0.000000
vn -1.000000 0.000000 0.000000
vn -1.000000 0.000000 0.000000
vn -1.000000 -0.000000 0.000001
vn -1.000000 -0.000000 -0.000000
vn -1.000000 0.000000 -0.000001
vn -1.000000 0.000000 0.000001
vn -1.000000 0.000000 0.000000
vn -1.000000 0.000000 0.000000
vn -1.000000 0.000000 0.000000
vn -1.000000 0.000000 0.000000
vn -1.000000 -0.000002 0.000001
vn -1.000000 -0.000000 0.000002
vn -1.000000 -0.000000 -0.000002
vn -1.000000 -0.000002 0.000000
vn -1.000000 0.000003 0.000003
vn -1.000000 0.000000 0.000003
vn -1.000000 -0.000000 0.000003
vn -1.000000 -0.000000 0.000002
vn -1.000000 0.000000 0.000002
vn -1.000000 0.000003 -0.000003
vn -1.000000 0.000002 0.000003
vn -1.000000 -0.000002 0.000003
vn -1.000000 -0.000002 0.000000
vn -1.000000 0.000002 0.000000
vn -0.000007 -0.000000 1.000000
vn -0.000007 -0.000000 1.000000
vn -0.000007 -0.000000 1.000000
vn -0.000007 -0.000000 1.000000
vn 0.000000 -1.000000 0.000000
vn 0.000000 -1.000000 0.000000
vn 0.000000 -1.000000 0.000000
vn 0.000000 -1.000000 0.000000
vn -0.000005 -0.000000 -1.000000
vn -0.000005 -0.000000 -1.000000
vn -0.000005 -0.000000 -1.000000
vn -0.000005 -0.000000 -1.000000
vn -0.000000 1.000000 0.000000
vn -0.000000 1.000000 0.000000
vn -0.000000 1.000000 0.000000
vn -0.000000 1.000000 0.000000
vn 0.000000 -1.000000 0.000000
vn 0.000000 -1.000000 0.000000
vn 0.000000 -1.000000 0.000000
vn 0.000000 -1.000000 0.000000
vn 0.000030 0.000000 -1.000000
vn 0.000030 0.000000 -1.000000
vn 0.000030 0.000000 -1.000000
vn 0.000030 0.000000 -1.000000
vn -0.000011 1.000000 0.000000
vn -0.000011 1.000000 0.000000
vn -0.000011 1.000000 0.000000
vn -0.000011 1.000000 0.000000
vn -1.000000 0.000008 0.000005
vn -1.000000 0.000008 0.000005
vn -1.000000 -0.000008 0.000005
vn -1.000000 -0.000008 0.000005
vn -1.000000 -0.000008 -0.000005
vn -1.000000 -0.000008 -0.000005
vn -1.000000 0.000008 -0.000005
vn -1.000000 0.000008 -0.000005
vn -1.000000 0.000007 0.000006
vn -1.000000 0.000007 0.000006
vn -1.000000 -0.000007 0.000006
vn -1.000000 -0.000007 0.000006
vn -1.000000 -0.000007 -0.000006
vn -1.000000 -0.000007 -0.000006
vn -1.000000 0.000007 -0.000006
vn -1.000000 0.000007 -0.000006
vn 0.000000 0.000000 1.000000
vn 0.000000 0.000000 1.000000
vn 0.000000 0.000000 1.000000
vn 0.000000 0.000000 1.000000
vn 0.000000 -1.000000 0.000000
vn 0.000000 -1.000000 0.000000
vn 0.000000 -1.000000 0.000000
vn 0.000000 -1.000000 0.000000
vn -0.000000 0.000000 -1.000000
vn -0.000000 0.000000 -1.000000
vn -0.000000 0.000000 -1.000000
vn -0.000000 0.000000 -1.000000
vn 0.000000 1.000000 0.000000
vn 0.000000 1.000000 0.000000
vn 0.000000 1.000000 0.000000
vn 0.000000 1.000000 0.000000
vn 0.000000 0.000000 1.000000
vn 0.000000 0.000000 1.000000
vn 0.000000 0.000000 1.000000
vn 0.000000 0.000000 1.000000
vn 0.000000 -1.000000 0.000000
vn 0.000000 -1.000000 0.000000
vn 0.000000 -1.000000 0.000000
vn 0.000000 -1.000000 0.000000
vn -0.000000 0.000000 -1.000000
vn -0.000000 0.000000 -1.000000
vn -0.000000 0.000000 -1.000000
vn -0.000000 0.000000 -1.000000
vn 0.000000 1.000000 0.000000
vn 0.000000 1.000000 0.000000
vn 0.000000 1.000000 0.000000
vn 0.000000 1.000000 0.000000
vn -0.908042 -0.000000 0.418880
vn -0.908042 -0.000001 0.418880
vn -0.908042 -0.000001 0.418880
vn -0.908042 -0.000000 0.418880
vn -0.908042 0.000000 0.418879
vn -0.908042 0.000000 0.418879
vn -0.908042 0.000000 0.418879
vn -0.908042 0.000000 0.418879
vn -0.908042 0.000000 0.418879
vn -0.908042 0.000000 0.418879
vn -0.908042 0.000000 0.418880
vn -0.908042 0.000000 0.418880
vn -0.908042 0.000001 0.418879
vn -0.908042 0.000001 0.418879
vn -0.908043 0.418877 -0.000004
vn -0.908038 0.418888 0.000000
vn -0.908038 0.418888 0.000000
vn -0.908043 0.418877 -0.000004
vn -0.908037 0.418889 0.000000
vn -0.908037 0.418889 0.000000
vn -0.908025 0.418917 0.000000
vn -0.908025 0.418917 0.000000
vn -0.908029 0.000000 -0.418906
vn -0.908030 0.000000 -0.418906
vn -0.908030 0.000000 -0.418906
vn -0.908029 0.000000 -0.418906
vn -0.908030 0.000000 -0.418906
vn -0.908030 0.000000 -0.418906
vn -0.908030 0.000000 -0.418906
vn -0.908030 0.000000 -0.418906
vn -0.908030 0.000000 -0.418905
vn -0.908030 0.000000 -0.418905
vn -0.908030 0.000000 -0.418905
vn -0.908030 0.000000 -0.418905
vn -0.908030 0.000000 -0.418906
vn -0.908030 0.000000 -0.418906
vn -0.908031 -0.418903 0.000000
vn -0.908044 -0.418875 0.000000
vn -0.908044 -0.418875 0.000000
vn -0.908031 -0.418903 0.000000
vn -0.908051 -0.418861 -0.000004
vn -0.908045 -0.418874 0.000000
vn -0.908045 -0.418874 0.000000
vn -0.908051 -0.418861 -0.000004
vn -1.000000 0.000000 -0.000021
vn -1.000000 0.000000 -0.000021
vn -1.000000 0.000000 -0.000020
vn -1.000000 0.000000 -0.000021
vn -1.000000 -0.000001 -0.000020
vn -1.000000 -0.000009 0.000000
vn -1.000000 -0.000005 -0.000015
vn -1.000000 -0.000009 0.000001
vn -1.000000 -0.000001 0.000009
vn -1.000000 -0.000005 0.000005
vn -1.000000 0.000000 0.000010
vn -1.000000 0.000000 0.000010
vn -1.000000 0.000000 0.000010
vn -1.000000 0.000000 0.000010
vn -1.000000 0.000005 0.000005
vn -1.000000 0.000009 0.000001
vn -1.000000 0.000009 0.000000
vn -1.000000 0.000005 -0.000015
vn 0.000001 -0.000007 1.000000
vn 0.000001 -0.000007 1.000000
vn 0.000001 -0.000007 1.000000
vn 0.000001 -0.000007 1.000000
vn -0.000001 0.000000 1.000000
vn -0.000001 0.000000 1.000000
vn -0.000001 0.000000 1.000000
vn -0.000001 0.000000 1.000000
vn -0.000000 0.000000 1.000000
vn -0.000000 0.000000 1.000000
vn -0.000000 0.000000 1.000000
vn -0.000000 0.000000 1.000000
vn -0.000000 -0.000000 1.000000
vn -0.000000 -0.000000 1.000000
vn -0.000000 -0.000000 1.000000
vn -0.000000 -0.000000 1.000000
vn -0.000000 0.000000 1.000000
vn -0.000000 0.000000 1.000000
vn -0.000000 0.000000 1.000000
vn -0.000000 0.000000 1.000000
vn 0.000000 0.000002 1.000000
vn 0.000000 0.000002 1.000000
vn 0.000000 0.000002 1.000000
vn 0.000000 0.000002 1.000000
vn 0.000000 1.000000 0.000000
vn 0.000000 1.000000 0.000000
vn 0.000000 1.000000 0.000000
vn 0.000000 1.000000 0.000000
vn -0.000000 1.000000 0.000000
vn -0.000000 1.000000 0.000000
vn -0.000000 1.000000 0.000000
vn -0.000000 1.000000 0.000000
vn 0.000000 1.000000 0.000000
vn 0.000000 1.000000 0.000000
vn 0.000000 1.000000 0.000000
vn 0.000000 1.000000 0.000000
vn -0.000003 0.000002 -1.000000
vn -0.000003 0.000002 -1.000000
vn -0.000003 0.000002 -1.000000
vn -0.000003 0.000002 -1.000000
vn -0.000005 0.000000 -1.000000
vn -0.000005 0.000000 -1.000000
vn -0.000005 0.000000 -1.000000
vn -0.000005 0.000000 -1.000000
vn -0.000005 0.000000 -1.000000
vn -0.000005 0.000000 -1.000000
vn -0.000005 0.000000 -1.000000
vn -0.000005 0.000000 -1.000000
vn -0.000006 0.000000 -1.000000
vn -0.000006 0.000000 -1.000000
vn -0.000006 0.000000 -1.000000
vn -0.000006 0.000000 -1.000000
vn -0.000006 0.000000 -1.000000
vn -0.000006 0.000000 -1.000000
vn -0.000006 0.000000 -1.000000
vn -0.000006 0.000000 -1.000000
vn -0.000004 -0.000004 -1.000000
vn -0.000004 -0.000004 -1.000000
vn -0.000004 -0.000004 -1.000000
vn -0.000004 -0.000004 -1.000000
vn 0.000000 -1.000000 0.000000
vn 0.000000 -1.000000 0.000000
vn 0.000000 -1.000000 0.000000
vn 0.000000 -1.000000 0.000000
vn -0.000000 -1.000000 0.000000
vn -0.000000 -1.000000 0.000000
vn -0.000000 -1.000000 0.000000
vn -0.000000 -1.000000 0.000000
vn 0.000000 -1.000000 0.000000
vn 0.000000 -1.000000 0.000000
vn 0.000000 -1.000000 0.000000
vn 0.000000 -1.000000 0.000000
vn 0.000010 0.000000 1.000000
vn 0.000010 0.000000 1.000000
vn 0.000010 0.000000 1.000000
vn 0.000010 0.000000 1.000000
vn 0.000010 0.000000 1.000000
vn 0.000010 0.000000 1.000000
vn 0.000010 0.000000 1.000000
vn 0.000010 0.000000 1.000000
s off
g group1 pasted__DoorReal
usemtl initialShadingGroup
f 107/305/129 108/306/130 109/307/131 110/308/132
s 1
f 74/309/133 75/310/134 80/311/135 79/312/136
s off
f 111/363/137 112/364/138 113/365/139 114/366/140
s 1
f 77/339/141 82/344/142 81/328/143 76/324/144
f 73/326/145 74/309/133 84/320/146 83/336/147
f 74/309/133 79/312/136 85/319/148 84/320/146
f 79/312/136 78/333/149 86/335/150 85/319/148
f 78/333/149 73/326/145 83/336/147 86/335/150
f 75/310/134 76/324/144 88/327/151 87/315/152
f 76/324/144 81/328/143 89/329/153 88/327/151
f 81/328/143 80/311/135 90/316/154 89/329/153
f 80/311/135 75/310/134 87/315/152 90/316/154
s off
f 83/133/155 84/134/156 92/135/157 91/136/158
f 84/225/159 85/226/160 93/227/161 92/228/162
f 85/137/163 86/138/164 94/139/165 93/140/166
f 86/229/167 83/230/168 91/231/169 94/232/170
f 88/233/171 89/234/172 97/235/173 96/236/174
f 89/141/175 90/142/176 98/143/177 97/144/178
f 90/237/179 87/238/180 95/239/181 98/240/182
s 5
f 91/367/183 92/368/184 100/369/185 99/370/186
f 92/368/184 93/371/187 101/372/188 100/369/185
f 93/371/187 94/373/189 102/374/190 101/372/188
f 94/373/189 91/367/183 99/370/186 102/374/190
s 6
f 95/375/191 96/376/192 104/377/193 103/378/194
f 96/376/192 97/379/195 105/380/196 104/377/193
f 97/379/195 98/381/197 106/382/198 105/380/196
f 98/381/197 95/375/191 103/378/194 106/382/198
s off
f 99/145/199 100/146/200 108/147/201 107/148/202
f 100/241/203 101/242/204 109/243/205 108/244/206
f 101/149/207 102/150/208 110/151/209 109/152/210
f 102/245/211 99/246/212 107/247/213 110/248/214
f 103/153/215 104/154/216 112/155/217 111/156/218
f 104/249/219 105/250/220 113/251/221 112/252/222
f 105/157/223 106/158/224 114/159/225 113/160/226
f 106/253/227 103/254/228 111/255/229 114/256/230
s 7
f 115/334/231 116/346/232 146/357/233 145/347/234
f 116/346/232 115/334/231 117/318/235 118/331/236
f 118/331/236 117/318/235 119/317/237 120/332/238
f 120/332/238 119/317/237 121/330/239 122/345/240
f 122/345/240 121/330/239 123/343/241 124/354/242
f 124/354/242 123/343/241 125/356/243 126/361/244
s 8
f 126/361/245 125/356/246 127/355/247 128/362/248
f 128/362/248 127/355/247 129/352/249 130/360/250
f 130/360/250 129/352/249 131/351/251 132/359/252
s 9
f 132/359/253 131/351/254 133/340/255 134/349/256
f 134/349/256 133/340/255 135/323/257 136/337/258
f 136/337/258 135/323/257 137/314/259 138/321/260
f 138/321/260 137/314/259 139/313/261 140/322/262
f 140/322/262 139/313/261 141/325/263 142/338/264
f 142/338/264 141/325/263 143/342/265 144/350/266
s 10
f 144/350/267 143/342/268 147/341/269 148/353/270
f 145/347/271 146/357/272 150/358/273 149/348/274
f 148/353/270 147/341/269 149/348/274 150/358/273
s 1
f 78/333/149 79/312/136 117/318/275 115/334/276
f 79/312/136 80/311/135 119/317/277 117/318/275
f 80/311/135 81/328/143 121/330/278 119/317/277
f 123/343/279 121/330/278 81/328/143 82/344/142
f 127/355/280 125/356/281 123/343/279 82/344/142
f 129/352/282 127/355/280 82/344/142 77/339/141
f 133/340/283 131/351/284 129/352/282 77/339/141
f 77/339/141 76/324/144 135/323/285 133/340/283
f 137/314/286 135/323/285 76/324/144 75/310/134
f 139/313/287 137/314/286 75/310/134 74/309/133
f 141/325/288 139/313/287 74/309/133 73/326/145
f 73/326/145 147/341/289 143/342/290 141/325/288
f 73/326/145 78/333/149 149/348/291 147/341/289
f 115/334/276 145/347/292 149/348/291 78/333/149
s off
f 185/383/293 188/384/294 187/385/295 186/386/296
s 11
f 152/387/297 157/388/298 158/389/299 153/390/300
s off
f 189/441/301 192/442/302 191/443/303 190/444/304
s 11
f 155/424/305 154/410/306 159/407/307 160/420/308
f 151/399/309 161/400/310 162/391/311 152/387/297
f 152/387/297 162/391/311 163/392/312 157/388/298
f 157/388/298 163/392/312 164/401/313 156/402/314
f 156/402/314 164/401/313 161/400/310 151/399/309
f 153/390/300 165/396/315 166/409/316 154/410/306
f 154/410/306 166/409/316 167/408/317 159/407/307
f 159/407/307 167/408/317 168/395/318 158/389/299
f 158/389/299 168/395/318 165/396/315 153/390/300
s off
f 161/161/319 169/162/320 170/163/321 162/164/322
f 162/257/323 170/258/324 171/259/325 163/260/326
f 163/165/327 171/166/328 172/167/329 164/168/330
f 164/261/331 172/262/332 169/263/333 161/264/334
f 166/265/335 174/266/336 175/267/337 167/268/338
f 167/169/339 175/170/340 176/171/341 168/172/342
f 168/269/343 176/270/344 173/271/345 165/272/346
s 14
f 169/445/347 177/446/348 178/447/349 170/448/350
f 170/448/350 178/447/349 179/451/351 171/452/352
f 171/452/352 179/451/351 180/450/353 172/449/354
f 172/449/354 180/450/353 177/446/348 169/445/347
s 15
f 173/453/355 181/454/356 182/455/357 174/456/358
f 174/456/358 182/455/357 183/459/359 175/460/360
f 175/460/360 183/459/359 184/458/361 176/457/362
f 176/457/362 184/458/361 181/454/356 173/453/355
s off
f 177/173/363 185/174/364 186/175/365 178/176/366
f 178/273/367 186/274/368 187/275/369 179/276/370
f 179/177/371 187/178/372 188/179/373 180/180/374
f 180/277/375 188/278/376 185/279/377 177/280/378
f 181/181/379 189/182/380 190/183/381 182/184/382
f 182/281/383 190/282/384 191/283/385 183/284/386
f 183/185/387 191/186/388 192/187/389 184/188/390
f 184/285/391 192/286/392 189/287/393 181/288/394
s 16
f 193/403/395 223/416/396 224/428/397 194/417/398
f 194/417/398 196/404/399 195/393/400 193/403/395
f 196/404/399 198/405/401 197/394/402 195/393/400
f 198/405/401 200/418/403 199/406/404 197/394/402
f 200/418/403 202/429/405 201/419/406 199/406/404
f 202/429/405 204/437/407 203/431/408 201/419/406
s 17
f 204/437/409 206/438/410 205/430/411 203/431/412
f 206/438/410 208/439/413 207/434/414 205/430/411
f 208/439/413 210/440/415 209/435/416 207/434/414
s 18
f 210/440/417 212/436/418 211/425/419 209/435/420
f 212/436/418 214/426/421 213/412/422 211/425/419
f 214/426/421 216/413/423 215/398/424 213/412/422
f 216/413/423 218/414/425 217/397/426 215/398/424
f 218/414/425 220/423/427 219/411/428 217/397/426
f 220/423/427 222/432/429 221/421/430 219/411/428
s 19
f 222/432/431 226/433/432 225/422/433 221/421/434
f 223/416/435 227/415/436 228/427/437 224/428/438
f 226/433/432 228/427/437 227/415/436 225/422/433
s 11
f 156/402/314 193/403/439 195/393/440 157/388/298
f 157/388/298 195/393/440 197/394/441 158/389/299
f 158/389/299 197/394/441 199/406/442 159/407/307
f 201/419/443 160/420/308 159/407/307 199/406/442
f 205/430/444 160/420/308 201/419/443 203/431/445
f 207/434/446 155/424/305 160/420/308 205/430/444
f 211/425/447 155/424/305 207/434/446 209/435/448
f 155/424/305 211/425/447 213/412/449 154/410/306
f 215/398/450 153/390/300 154/410/306 213/412/449
f 217/397/451 152/387/297 153/390/300 215/398/450
f 219/411/452 151/399/309 152/387/297 217/397/451
f 151/399/309 219/411/452 221/421/453 225/422/454
f 151/399/309 225/422/454 227/415/455 156/402/314
f 193/403/439 156/402/314 227/415/455 223/416/456
s off
f 146/189/457 116/190/458 194/191/459 224/192/460
f 116/190/461 118/193/462 196/194/463 194/191/464
f 118/193/465 120/195/466 198/196/467 196/194/468
f 120/195/469 122/197/470 200/198/471 198/196/472
f 122/197/473 124/199/474 202/200/475 200/198/476
f 124/199/477 126/201/478 204/202/479 202/200/480
f 126/289/481 128/290/482 206/291/483 204/292/484
f 128/290/485 130/293/486 208/294/487 206/291/488
f 130/293/489 132/295/490 210/296/491 208/294/492
f 132/203/493 134/204/494 212/205/495 210/206/496
f 134/204/497 136/207/498 214/208/499 212/205/500
f 136/207/501 138/209/502 216/210/503 214/208/504
f 138/209/505 140/211/506 218/212/507 216/210/508
f 140/211/509 142/213/510 220/214/511 218/212/512
f 142/213/513 144/215/514 222/216/515 220/214/516
f 144/297/517 148/298/518 226/299/519 222/300/520
f 148/298/521 150/301/522 228/302/523 226/299/524
f 150/301/525 146/303/526 224/304/527 228/302/528
f 88/217/529 96/218/530 95/219/531 87/220/532
f 166/221/533 165/222/534 173/223/535 174/224/536
g default
v 12.355431 5.639782 -2.195441
v 12.387913 5.653235 -2.227921
v 12.401365 5.685714 -2.241374
v 12.144558 5.639782 -2.195441
v 12.144558 5.653235 -2.227921
v 12.144558 5.685714 -2.241374
v 12.401365 5.777598 -2.241374
v 12.387913 5.810077 -2.227921
v 12.355431 5.823531 -2.195441
v 12.144558 5.777598 -2.241374
v 12.144558 5.810077 -2.227921
v 12.144558 5.823531 -2.195441
v 12.355431 5.639782 -2.005936
v 12.387913 5.653235 -2.005936
v 12.401365 5.685714 -2.005936
v 12.401365 5.777598 -2.005936
v 12.387913 5.810077 -2.005936
v 12.355431 5.823531 -2.005936
v 11.887752 5.810077 -2.019390
v 11.887752 5.823531 -2.051869
v 11.887752 5.777598 -2.005936
v 12.190492 5.823531 -2.051869
v 12.158013 5.810077 -2.019390
v 12.144558 5.777598 -2.005936
v 11.887752 5.653235 -2.019390
v 11.887752 5.685714 -2.005936
v 11.887752 5.639782 -2.051869
v 12.144558 5.685714 -2.005936
v 12.158013 5.653235 -2.019390
v 12.190492 5.639782 -2.051869
v 11.887752 5.653235 -2.227921
v 11.887752 5.639782 -2.195441
v 11.887752 5.685714 -2.241374
v 11.887752 5.810077 -2.227921
v 11.887752 5.777598 -2.241374
v 11.887752 5.823531 -2.195441
v 12.384165 5.774177 -1.505937
v 12.396326 5.776596 -1.510974
v 12.401365 5.777598 -1.523136
v 12.401365 5.685714 -1.523136
v 12.396326 5.686717 -1.510974
v 12.384165 5.689135 -1.505937
v 12.355431 5.823531 -1.523136
v 12.354429 5.818493 -1.510974
v 12.352010 5.806332 -1.505937
v 12.193913 5.806332 -1.505937
v 12.191493 5.818493 -1.510974
v 12.190492 5.823531 -1.523136
v 12.144558 5.777598 -1.523136
v 12.149595 5.776596 -1.510974
v 12.161756 5.774177 -1.505937
v 12.161756 5.689136 -1.505937
v 12.149595 5.686717 -1.510974
v 12.144558 5.685714 -1.523136
v 12.190492 5.639782 -1.523136
v 12.191493 5.644819 -1.510974
v 12.193913 5.656980 -1.505937
v 12.352010 5.656980 -1.505937
v 12.354429 5.644819 -1.510974
v 12.355431 5.639782 -1.523136
v 12.374749 5.666399 -1.505937
v 12.384056 5.657091 -1.510974
v 12.387913 5.653235 -1.523136
v 12.374749 5.796914 -1.505937
v 12.384056 5.806222 -1.510974
v 12.387913 5.810077 -1.523136
v 12.171177 5.796914 -1.505937
v 12.161868 5.806222 -1.510974
v 12.158013 5.810077 -1.523136
v 12.171177 5.666399 -1.505937
v 12.161868 5.657091 -1.510974
v 12.158013 5.653235 -1.523136
vt 0.714971 0.924789
vt 0.798320 0.923765
vt 0.798832 0.965443
vt 0.715483 0.966468
vt 0.719553 0.909998
vt 0.798139 0.909032
vt 0.969240 0.921664
vt 0.969752 0.963342
vt 0.720427 0.981142
vt 0.799013 0.980176
vt 0.730976 0.903754
vt 0.798064 0.902929
vt 0.969059 0.906931
vt 0.973551 0.922065
vt 0.974052 0.962835
vt 0.969933 0.978075
vt 0.732000 0.987103
vt 0.799088 0.986279
vt 0.968984 0.900829
vt 0.973385 0.908627
vt 0.975348 0.923141
vt 0.975822 0.961716
vt 0.974217 0.976274
vt 0.970008 0.984178
vt 0.973317 0.903061
vt 0.975221 0.912827
vt 0.975948 0.972029
vt 0.974285 0.981840
vt 0.162883 0.538750
vt 0.154586 0.541486
vt 0.131070 0.541626
vt 0.122741 0.538989
vt 0.119259 0.532521
vt 0.119088 0.503843
vt 0.122493 0.497335
vt 0.130790 0.494598
vt 0.154306 0.494458
vt 0.162635 0.497096
vt 0.166117 0.503563
vt 0.166288 0.532241
vt 0.009564 0.506278
vt 0.011992 0.506007
vt 0.012132 0.529523
vt 0.009701 0.529281
vt 0.009519 0.498695
vt 0.011942 0.497694
vt 0.108430 0.505433
vt 0.108570 0.528949
vt 0.012181 0.537836
vt 0.009746 0.536863
vt 0.008561 0.506903
vt 0.008691 0.528668
vt 0.008527 0.501083
vt 0.009500 0.495554
vt 0.011922 0.494251
vt 0.111068 0.497104
vt 0.111307 0.537246
vt 0.012202 0.541279
vt 0.009765 0.540004
vt 0.008725 0.534487
vt 0.117535 0.493622
vt 0.117815 0.540650
vt 0.692317 0.933154
vt 0.679968 0.932902
vt 0.678767 0.991963
vt 0.691116 0.992214
vt 0.693455 0.877186
vt 0.680955 0.884405
vt 0.625598 0.921228
vt 0.624182 0.990853
vt 0.608906 0.882940
vt 0.611834 0.990602
vt 0.613098 0.928447
vt 0.425349 0.879207
vt 0.424577 0.917141
vt 0.419958 0.916816
vt 0.420720 0.879344
vt 0.679968 0.932902
vt 0.692317 0.933153
vt 0.691115 0.992214
vt 0.678767 0.991963
vt 0.680954 0.884405
vt 0.693455 0.877186
vt 0.625598 0.921228
vt 0.624182 0.990853
vt 0.608906 0.882940
vt 0.611834 0.990602
vt 0.613098 0.928447
vt 0.424577 0.917140
vt 0.425348 0.879207
vt 0.420720 0.879344
vt 0.419958 0.916816
vt 0.247150 0.505875
vt 0.247101 0.497562
vt 0.278130 0.497378
vt 0.278180 0.505690
vt 0.216120 0.506060
vt 0.217696 0.497737
vt 0.247290 0.529392
vt 0.278320 0.529207
vt 0.216260 0.529576
vt 0.247340 0.537704
vt 0.278369 0.537520
vt 0.217935 0.537879
vt 0.209736 0.538984
vt 0.201423 0.539033
vt 0.201238 0.508003
vt 0.209541 0.506328
vt 0.177722 0.508143
vt 0.177906 0.539173
vt 0.169594 0.539223
vt 0.169399 0.506567
vt 0.592863 0.946698
vt 0.598925 0.946253
vt 0.598147 0.984519
vt 0.592108 0.983828
vt 0.588287 0.941262
vt 0.592962 0.939171
vt 0.591900 0.991353
vt 0.587315 0.989073
vt 0.534716 0.937961
vt 0.577021 0.938821
vt 0.575958 0.991055
vt 0.533654 0.990195
vt 0.522388 0.987752
vt 0.517811 0.982317
vt 0.518566 0.945187
vt 0.523360 0.939942
vt 0.511750 0.982763
vt 0.517713 0.989844
vt 0.512528 0.944496
vt 0.518774 0.937662
vn -0.000000 -0.106519 -0.994311
vn -0.000000 -0.382685 -0.923879
vn -0.000000 -0.382685 -0.923879
vn -0.000000 -0.107552 -0.994199
vn -0.000000 -0.923881 -0.382681
vn -0.000000 -0.997262 -0.073950
vn -0.000000 -0.997473 -0.071042
vn -0.000000 -0.923881 -0.382681
vn 0.000000 0.997262 -0.073952
vn 0.000000 0.923877 -0.382689
vn 0.000000 0.923877 -0.382689
vn 0.000000 0.997473 -0.071044
vn 0.000000 0.382685 -0.923879
vn 0.000000 0.106519 -0.994311
vn 0.000000 0.107552 -0.994199
vn 0.000000 0.382685 -0.923879
vn 0.000000 0.996979 0.077675
vn 0.000000 0.923877 0.382689
vn 0.000000 0.923877 0.382689
vn -0.019519 0.999658 0.017393
vn 0.000000 0.382685 0.923879
vn 0.000000 0.109594 0.993976
vn 0.000000 0.118606 0.992941
vn 0.000000 0.382685 0.923879
vn -0.000000 -0.109594 0.993976
vn -0.000000 -0.382685 0.923879
vn -0.000000 -0.382685 0.923879
vn -0.000000 -0.118606 0.992941
vn -0.000000 -0.923881 0.382681
vn -0.000000 -0.996979 0.077673
vn -0.019519 -0.999658 0.017393
vn -0.000000 -0.923881 0.382681
vn 0.061224 -0.998124 0.000000
vn 0.084681 -0.993334 -0.078211
vn -0.000000 -0.096098 -0.995372
vn 0.000000 0.096098 -0.995372
vn 0.084683 0.993334 -0.078213
vn 0.061226 0.998124 0.000000
vn 0.996006 0.089282 0.000000
vn 0.994281 0.106800 0.000000
vn 0.994281 -0.106800 0.000000
vn 0.996006 -0.089282 0.000000
vn -1.000000 -0.000000 0.000000
vn -1.000000 -0.000000 0.000000
vn -1.000000 -0.000000 0.000000
vn -1.000000 -0.000000 0.000000
vn -1.000000 -0.000000 0.000000
vn -1.000000 -0.000000 0.000000
vn -1.000000 -0.000000 0.000000
vn -1.000000 -0.000000 0.000000
vn -1.000000 -0.000000 0.000000
vn -1.000000 -0.000000 0.000000
vn -1.000000 -0.000000 0.000000
vn -1.000000 -0.000000 0.000000
vn 0.382653 -0.923892 0.000000
vn 0.382653 -0.923892 0.000000
vn 0.923897 -0.382640 0.000000
vn 0.923898 -0.382640 0.000000
vn -0.000000 -0.382685 -0.923879
vn -0.000000 -0.923881 -0.382681
vn 0.923897 0.382640 0.000000
vn 0.923898 0.382640 0.000000
vn 0.382661 0.923889 0.000000
vn 0.382661 0.923889 0.000000
vn 0.000000 0.923877 -0.382689
vn 0.000000 0.382685 -0.923879
vn 0.994140 0.107655 0.009757
vn 0.917466 0.089900 0.387522
vn 0.917466 -0.089894 0.387525
vn 0.994140 -0.107655 0.009757
vn 0.374466 0.046053 0.926096
vn 0.010567 0.000788 0.999944
vn 0.010567 -0.000788 0.999944
vn 0.374466 -0.046051 0.926096
vn 0.001450 0.019969 0.999800
vn 0.015310 0.380040 0.924843
vn -0.015310 0.380038 0.924844
vn -0.001450 0.019970 0.999800
vn 0.067942 0.919751 0.386578
vn 0.065215 0.997828 0.009273
vn -0.068482 0.997610 0.009184
vn -0.067946 0.919754 0.386570
vn -0.010568 0.000788 0.999944
vn -0.374444 0.046068 0.926104
vn -0.374446 -0.046066 0.926104
vn -0.010567 -0.000788 0.999944
vn -0.917508 0.089921 0.387419
vn -0.994022 0.108749 0.009719
vn -0.994022 -0.108749 0.009719
vn -0.917507 -0.089918 0.387421
vn -0.001450 -0.019970 0.999800
vn -0.015311 -0.380055 0.924837
vn 0.015311 -0.380057 0.924836
vn 0.001450 -0.019969 0.999800
vn -0.067943 -0.919745 0.386592
vn -0.068480 -0.997610 0.009184
vn 0.065213 -0.997828 0.009274
vn 0.067940 -0.919742 0.386600
vn -0.992367 0.123320 0.000000
vn -0.992367 -0.123320 0.000000
vn 0.004841 0.003778 0.999981
vn -0.004841 0.003778 0.999981
vn -0.004841 -0.003778 0.999981
vn 0.004841 -0.003778 0.999981
vn 0.382632 -0.923842 0.010425
vn 0.923870 -0.382629 0.007695
vn 0.923870 0.382629 0.007695
vn 0.382641 0.923838 0.010424
vn -0.382698 0.923873 0.000000
vn -0.382680 0.923829 0.009834
vn -0.923860 0.382730 0.000000
vn -0.923834 0.382719 0.007588
vn -0.923860 -0.382730 0.000000
vn -0.923834 -0.382719 0.007588
vn -0.382690 -0.923877 0.000000
vn -0.382672 -0.923832 0.009835
vn 0.206640 0.297781 0.932001
vn 0.853532 0.353510 0.382771
vn -0.206644 0.297752 0.932010
vn -0.353575 0.853555 0.382661
vn -0.206647 -0.297758 0.932007
vn -0.853549 -0.353596 0.382653
vn 0.206644 -0.297786 0.931999
vn 0.353532 -0.853543 0.382726
vn 0.853528 -0.353506 0.382783
vn 0.353544 0.853547 0.382706
vn -0.853553 0.353598 0.382644
vn -0.353564 -0.853550 0.382682
s 1
g group1 DoorHandle
usemtl initialShadingGroup
f 234/553/537 233/554/538 259/555/539 261/556/540
s 2
f 233/523/541 232/524/542 260/525/543 259/526/544
s 3
f 240/538/545 239/539/546 262/540/547 264/541/548
s 1
f 239/562/549 238/559/550 263/560/551 262/563/552
s 3
f 248/545/553 247/547/554 251/548/555 250/544/556
s 5
f 247/565/557 249/566/558 252/567/559 251/568/560
f 254/570/561 253/571/562 257/572/563 256/569/564
s 2
f 253/532/565 255/530/566 258/529/567 257/533/568
f 241/531/569 258/529/567 232/524/542 229/528/570
s 1
f 231/557/571 234/553/537 238/559/550 235/561/572
s 3
f 237/542/573 240/538/545 250/544/556 246/546/574
s 7
f 235/461/575 244/462/576 243/463/577 231/464/578
s 5
f 256/569/564 252/567/559 249/566/558 254/570/561
s 2
f 232/524/542 258/529/567 255/530/566 260/525/543
s 1
f 238/559/550 234/553/537 261/556/540 263/560/551
s 3
f 250/544/556 240/538/545 264/541/548 248/545/553
s off
f 262/489/579 263/490/580 261/491/581 259/492/582 260/493/583 255/494/584 253/495/585 254/496/586 249/497/587 247/498/588 248/499/589 264/500/590
s 2
f 229/477/570 230/469/591 242/470/592 241/478/569
s 7
f 230/469/593 231/464/578 243/463/577 242/470/594
s 1
f 231/557/571 230/558/595 233/554/538 234/553/537
s 2
f 230/527/596 229/528/570 232/524/542 233/523/541
s 7
f 235/461/575 236/465/597 245/466/598 244/462/576
s 3
f 236/465/599 237/471/573 246/472/574 245/466/600
f 237/542/573 236/543/601 239/539/546 240/538/545
s 1
f 236/564/602 235/561/572 238/559/550 239/562/549
s 7
f 267/467/603 266/474/604 269/475/605 268/468/606
s 9
f 266/474/607 265/481/608 270/482/609 269/475/610
f 273/573/611 272/574/612 275/575/613 274/576/614
s 3
f 272/551/615 271/550/616 276/549/617 275/552/618
s 9
f 279/511/619 278/501/620 281/504/621 280/512/622
s 13
f 278/501/623 277/502/624 282/503/625 281/504/626
s 9
f 285/586/627 284/589/628 287/591/629 286/587/630
s 2
f 284/536/631 283/535/632 288/534/633 287/537/634
s 3
f 246/546/574 250/544/556 276/549/617 271/550/616
s 13
f 252/507/635 256/508/636 282/503/625 277/502/624
s 2
f 258/529/567 241/531/569 288/534/633 283/535/632
s 7
f 243/463/577 244/462/576 267/467/603 268/468/606
s 9
f 270/581/609 265/582/608 292/577/637 273/573/611 274/576/614 295/580/638 279/583/619 280/584/622 298/585/639 285/586/627 286/587/630 289/588/640
s 2
f 241/478/569 242/470/592 291/476/641 288/484/633
s 7
f 242/470/594 243/463/577 268/468/606 291/476/642
f 244/462/576 245/466/598 294/473/643 267/467/603
s 3
f 245/466/600 246/472/574 271/479/616 294/473/644
f 250/521/556 251/516/645 297/506/646 276/515/617
s 13
f 251/516/647 252/507/635 277/502/624 297/506/648
f 256/508/636 257/517/649 300/509/650 282/503/625
s 2
f 257/517/651 258/522/567 283/518/632 300/509/652
s 9
f 265/481/608 266/474/607 293/480/653 292/486/637
s 7
f 266/474/604 267/467/603 294/473/643 293/480/654
s 9
f 274/576/614 275/575/613 296/579/655 295/580/638
s 3
f 275/514/618 276/515/617 297/506/646 296/505/656
s 9
f 280/512/622 281/504/621 299/510/657 298/520/639
s 13
f 281/504/626 282/503/625 300/509/650 299/510/658
s 9
f 286/587/630 287/591/629 290/592/659 289/588/640
s 2
f 287/488/634 288/484/633 291/476/641 290/483/660
s 7
f 268/468/606 269/475/605 290/483/661 291/476/642
s 9
f 269/475/610 270/482/609 289/487/640 290/483/659
s 3
f 271/479/616 272/485/615 293/480/662 294/473/644
s 9
f 272/574/612 273/573/611 292/577/637 293/578/653
s 13
f 277/502/624 278/501/623 296/505/663 297/506/648
s 9
f 278/501/620 279/511/619 295/513/638 296/505/655
s 2
f 283/518/632 284/519/631 299/510/664 300/509/652
s 9
f 284/589/628 285/586/627 298/585/639 299/590/657
