# This file uses centimeters as units for non-parametric coordinates.

mtllib Hallway.mtl
g default
v 11.854582 0.187710 4.964348
v 42.399319 0.187710 4.964349
v 11.854582 0.913805 4.964348
v 42.399319 0.913805 4.964349
v 11.854582 0.913805 -4.551226
v 42.399319 0.913805 -4.551226
v 11.854582 0.187710 -4.551226
v 42.399319 0.187710 -4.551226
vt 0.081587 0.388109
vt 0.081587 0.139665
vt 0.100544 0.139665
vt 0.100544 0.388109
vt 0.081587 0.388109
vt 0.081587 0.139665
vt 0.100544 0.139665
vt 0.100544 0.388109
vt 0.872590 0.985477
vt 0.872590 0.628560
vt 0.983780 0.628560
vt 0.983780 0.985477
vt 0.872590 0.985477
vt 0.872590 0.628560
vt 0.983780 0.628560
vt 0.983780 0.985477
vt 0.115682 0.261330
vt 0.115682 0.073080
vt 0.120157 0.073080
vt 0.120157 0.261330
vt 0.115682 0.261330
vt 0.115682 0.073080
vt 0.120157 0.073080
vt 0.120157 0.261330
vn -0.000000 0.000000 1.000000
vn -0.000000 0.000000 1.000000
vn -0.000000 0.000000 1.000000
vn -0.000000 0.000000 1.000000
vn 0.000000 1.000000 0.000000
vn 0.000000 1.000000 0.000000
vn 0.000000 1.000000 0.000000
vn 0.000000 1.000000 0.000000
vn -0.000000 0.000000 -1.000000
vn -0.000000 0.000000 -1.000000
vn -0.000000 0.000000 -1.000000
vn -0.000000 0.000000 -1.000000
vn 0.000000 -1.000000 0.000000
vn 0.000000 -1.000000 0.000000
vn 0.000000 -1.000000 0.000000
vn 0.000000 -1.000000 0.000000
vn 1.000000 0.000000 0.000000
vn 1.000000 0.000000 0.000000
vn 1.000000 0.000000 0.000000
vn 1.000000 0.000000 0.000000
vn -1.000000 0.000000 0.000000
vn -1.000000 0.000000 0.000000
vn -1.000000 0.000000 0.000000
vn -1.000000 0.000000 0.000000
s off
g pCube4 Hallway
usemtl initialShadingGroup
f 1/17/1 2/18/2 4/19/3 3/20/4
f 3/9/5 4/10/6 6/11/7 5/12/8
f 5/21/9 6/22/10 8/23/11 7/24/12
f 7/13/13 8/14/14 2/15/15 1/16/16
f 2/1/17 8/2/18 6/3/19 4/4/20
f 7/5/21 1/6/22 3/7/23 5/8/24
g default
v 12.056905 6.746869 4.770024
v 12.056905 6.746869 3.371622
v 23.789930 6.746869 3.371622
v 23.789930 6.746869 4.770024
v 30.466074 6.818465 4.770026
v 30.466074 6.818465 3.371626
v 42.199109 6.818465 3.371626
v 42.199109 6.818465 4.770026
v 12.058572 6.818465 -4.341411
v 12.058572 6.818465 -2.943010
v 23.791596 6.818465 -2.943010
v 23.791596 6.818465 -4.341411
v 30.466074 6.818465 -4.341413
v 30.466074 6.818465 -2.943013
v 42.199109 6.818465 -2.943013
v 42.199109 6.818465 -4.341413
v 12.058574 11.804473 -2.943010
v 12.058574 11.804473 -4.341411
v 23.791596 11.804473 -4.341411
v 23.791596 11.804473 -2.943010
v 23.790722 11.800892 4.770024
v 23.790722 11.800892 3.371622
v 12.058491 11.800892 3.371622
v 12.056908 11.800892 4.770024
v 30.466074 11.804473 3.371624
v 30.466074 11.804473 4.770026
v 42.199109 11.804473 4.770026
v 42.199109 11.804473 3.371624
v 30.466074 11.751991 -2.943012
v 30.466079 11.751991 -4.341413
v 42.199109 11.751991 -4.341413
v 42.199109 11.751991 -2.943012
v 12.058574 12.304473 -2.943010
v 12.058574 12.304473 -4.341411
v 23.791596 12.304473 -2.943010
v 23.791596 12.304473 -4.341411
v 30.466074 12.251991 -2.943012
v 30.466079 12.251991 -4.341414
v 42.199109 12.251991 -2.943012
v 42.199109 12.251991 -4.341414
v 23.790722 12.300893 3.371622
v 12.058491 12.300893 3.371622
v 12.056908 12.300893 4.770024
v 23.790722 12.300893 4.770024
v 30.466074 12.304473 4.770026
v 42.199109 12.304473 4.770026
v 42.199109 12.304473 3.371624
v 30.466074 12.304473 3.371624
v 12.056905 6.246868 3.371622
v 23.789930 6.246868 3.371622
v 23.789930 6.246868 4.770024
v 12.056905 6.246868 4.770024
v 12.058572 6.318465 -4.341411
v 12.058572 6.318465 -2.943010
v 23.791596 6.318465 -4.341411
v 23.791596 6.318465 -2.943010
v 30.466074 6.318465 -4.341413
v 30.466074 6.318465 -2.943013
v 42.199109 6.318465 -4.341413
v 42.199109 6.318465 -2.943013
v 30.466074 6.318465 3.371626
v 42.199109 6.318465 3.371626
v 42.199109 6.318465 4.770026
v 30.466074 6.318465 4.770026
v 12.056905 1.233171 3.371622
v 23.789930 1.233171 3.371622
v 23.789930 1.233171 4.770024
v 12.056905 1.233171 4.770024
v 12.058572 1.304768 -4.341411
v 12.058572 1.304768 -2.943010
v 23.791596 1.304768 -4.341411
v 23.791596 1.304768 -2.943010
v 30.466074 1.304768 -4.341413
v 30.466074 1.304768 -2.943013
v 42.199109 1.304768 -4.341413
v 42.199109 1.304768 -2.943013
v 30.466074 1.304768 3.371626
v 42.199109 1.304768 3.371626
v 42.199109 1.304768 4.770026
v 30.466074 1.304768 4.770026
v 12.056905 0.733171 3.371622
v 23.789930 0.733171 3.371622
v 23.789930 0.733171 4.770024
v 12.056905 0.733171 4.770024
v 12.058572 0.804768 -4.341411
v 12.058572 0.804768 -2.943010
v 23.791596 0.804768 -4.341411
v 23.791596 0.804768 -2.943010
v 30.466074 0.804768 -4.341413
v 30.466074 0.804768 -2.943013
v 42.199109 0.804768 -4.341413
v 42.199109 0.804768 -2.943013
v 30.466074 0.804768 3.371626
v 42.199109 0.804768 3.371626
v 42.199109 0.804768 4.770026
v 30.466074 0.804768 4.770026
v 11.858574 11.804473 -2.743010
v 11.858574 11.804473 -4.541411
v 11.858574 12.304473 -2.743010
v 11.858574 12.304473 -4.541411
v 23.991596 11.804473 -2.743010
v 23.991596 12.304473 -2.743010
v 23.991596 11.804473 -4.541411
v 23.991596 12.304473 -4.541411
v 30.266072 11.751991 -2.743012
v 30.266079 11.751991 -4.541414
v 30.266072 12.251991 -2.743012
v 30.266079 12.251991 -4.541414
v 42.399107 11.751991 -2.743012
v 42.399107 12.251991 -2.743012
v 42.399107 11.751991 -4.541414
v 42.399107 12.251991 -4.541414
v 23.990722 11.800892 3.171622
v 11.858717 11.800892 3.171622
v 11.858717 12.300893 3.171622
v 23.990722 12.300893 3.171622
v 11.856680 11.800892 4.970024
v 11.856680 12.300893 4.970024
v 23.990722 11.800892 4.970024
v 23.990722 12.300893 4.970024
v 30.266072 11.804473 4.970026
v 42.399107 11.804473 4.970026
v 42.399107 12.304473 4.970026
v 30.266072 12.304473 4.970026
v 42.399107 11.804473 3.171624
v 42.399107 12.304473 3.171624
v 30.266072 11.804473 3.171624
v 30.266072 12.304473 3.171624
v 11.856905 6.746869 3.171622
v 23.989930 6.746869 3.171622
v 23.989930 6.246868 3.171622
v 11.856905 6.246868 3.171622
v 23.989930 6.746869 4.970024
v 23.989930 6.246868 4.970024
v 11.856905 6.746869 4.970024
v 11.856905 6.246868 4.970024
v 11.858572 6.818465 -4.541411
v 11.858572 6.818465 -2.743010
v 11.858572 6.318465 -4.541411
v 11.858572 6.318465 -2.743010
v 23.991596 6.818465 -4.541411
v 23.991596 6.318465 -4.541411
v 23.991596 6.818465 -2.743010
v 23.991596 6.318465 -2.743010
v 30.266072 6.818465 -4.541413
v 30.266072 6.818465 -2.743013
v 30.266072 6.318465 -4.541413
v 30.266072 6.318465 -2.743013
v 42.399107 6.818465 -4.541413
v 42.399107 6.318465 -4.541413
v 42.399107 6.818465 -2.743013
v 42.399107 6.318465 -2.743013
v 30.266072 6.818465 3.171626
v 42.399107 6.818465 3.171626
v 42.399107 6.318465 3.171626
v 30.266072 6.318465 3.171626
v 42.399107 6.818465 4.970026
v 42.399107 6.318465 4.970026
v 30.266072 6.818465 4.970026
v 30.266072 6.318465 4.970026
v 11.856905 1.233171 3.171622
v 23.989930 1.233171 3.171622
v 23.989930 0.733171 3.171622
v 11.856905 0.733171 3.171622
v 23.989930 1.233171 4.970024
v 23.989930 0.733171 4.970024
v 11.856905 1.233171 4.970024
v 11.856905 0.733171 4.970024
v 11.858572 1.304768 -4.541411
v 11.858572 1.304768 -2.743010
v 11.858572 0.804768 -4.541411
v 11.858572 0.804768 -2.743010
v 23.991596 1.304768 -4.541411
v 23.991596 0.804768 -4.541411
v 23.991596 1.304768 -2.743010
v 23.991596 0.804768 -2.743010
v 30.266072 1.304768 -4.541413
v 30.266072 1.304768 -2.743013
v 30.266072 0.804768 -4.541413
v 30.266072 0.804768 -2.743013
v 42.399107 1.304768 -4.541413
v 42.399107 0.804768 -4.541413
v 42.399107 1.304768 -2.743013
v 42.399107 0.804768 -2.743013
v 30.266072 1.304768 3.171626
v 42.399107 1.304768 3.171626
v 42.399107 0.804768 3.171626
v 30.266072 0.804768 3.171626
v 42.399107 1.304768 4.970026
v 42.399107 0.804768 4.970026
v 30.266072 1.304768 4.970026
v 30.266072 0.804768 4.970026
vt 0.740406 0.987350
vt 0.594184 0.987350
vt 0.594184 0.635627
vt 0.740406 0.635627
vt 0.594184 0.987350
vt 0.594184 0.635627
vt 0.740406 0.635627
vt 0.740406 0.987350
vt 0.581990 0.985678
vt 0.437307 0.985678
vt 0.437307 0.633955
vt 0.581990 0.633955
vt 0.437307 0.985678
vt 0.437307 0.633955
vt 0.581990 0.633955
vt 0.581990 0.985678
vt 0.594490 0.273419
vt 0.742707 0.273467
vt 0.742707 0.625166
vt 0.594490 0.625142
vt 0.594490 0.273443
vt 0.742706 0.273419
vt 0.742706 0.625166
vt 0.594490 0.625166
vt 0.121599 0.635627
vt 0.267821 0.635627
vt 0.267821 0.987350
vt 0.121599 0.987350
vt 0.121599 0.635627
vt 0.267821 0.635627
vt 0.267821 0.987350
vt 0.121599 0.987350
vt 0.046515 0.992346
vt 0.046515 0.497795
vt 0.066452 0.497795
vt 0.066452 0.992346
vt 0.046514 0.992346
vt 0.046514 0.497795
vt 0.066452 0.497795
vt 0.066452 0.992346
vt 0.046514 0.992346
vt 0.046514 0.497795
vt 0.066452 0.497795
vt 0.066452 0.992346
vt 0.046514 0.992346
vt 0.046514 0.497795
vt 0.066452 0.497795
vt 0.066452 0.992346
vt 0.046515 0.992325
vt 0.046515 0.497816
vt 0.066452 0.497816
vt 0.066452 0.992325
vt 0.046514 0.992366
vt 0.046514 0.497774
vt 0.066451 0.497774
vt 0.066451 0.992366
vt 0.046514 0.992346
vt 0.046514 0.497795
vt 0.066452 0.497795
vt 0.066452 0.992346
vt 0.046514 0.992346
vt 0.046514 0.497795
vt 0.066452 0.497795
vt 0.066452 0.992346
vt 0.034020 0.497795
vt 0.034020 0.992346
vt 0.014082 0.992346
vt 0.014082 0.497795
vt 0.034020 0.497795
vt 0.034020 0.992346
vt 0.014082 0.992346
vt 0.014082 0.497795
vt 0.034021 0.497795
vt 0.034021 0.992346
vt 0.014083 0.992346
vt 0.014083 0.497795
vt 0.034020 0.497795
vt 0.034020 0.992346
vt 0.014082 0.992346
vt 0.014082 0.497795
vt 0.034020 0.497795
vt 0.034020 0.992346
vt 0.014083 0.992346
vt 0.014083 0.497795
vt 0.034021 0.497795
vt 0.034021 0.992346
vt 0.014083 0.992346
vt 0.014083 0.497795
vt 0.034021 0.497795
vt 0.034021 0.992346
vt 0.014083 0.992346
vt 0.014083 0.497795
vt 0.034020 0.497795
vt 0.034020 0.992346
vt 0.014082 0.992346
vt 0.014082 0.497795
vt 0.425439 0.273431
vt 0.425439 0.625154
vt 0.278405 0.625154
vt 0.278405 0.273431
vt 0.425440 0.273431
vt 0.425440 0.625154
vt 0.278405 0.625154
vt 0.278405 0.273431
vt 0.583166 0.272795
vt 0.583166 0.624518
vt 0.436131 0.624518
vt 0.436131 0.272795
vt 0.583166 0.272795
vt 0.583166 0.624518
vt 0.436131 0.624518
vt 0.436131 0.272795
vt 0.424217 0.635627
vt 0.424217 0.987350
vt 0.277183 0.987350
vt 0.277183 0.635627
vt 0.424217 0.635627
vt 0.424217 0.987350
vt 0.277182 0.987350
vt 0.277182 0.635627
vt 0.267002 0.271671
vt 0.267002 0.623394
vt 0.119967 0.623394
vt 0.119967 0.271671
vt 0.267001 0.271671
vt 0.267001 0.623394
vt 0.119968 0.623394
vt 0.119968 0.271671
vt 0.100911 0.500112
vt 0.100911 0.994662
vt 0.080973 0.994662
vt 0.080973 0.500112
vt 0.100911 0.500112
vt 0.100911 0.994662
vt 0.080972 0.994662
vt 0.080972 0.500112
vt 0.100910 0.500112
vt 0.100910 0.994662
vt 0.080973 0.994662
vt 0.080973 0.500112
vt 0.100910 0.500112
vt 0.100910 0.994662
vt 0.080972 0.994662
vt 0.080972 0.500112
vt 0.100911 0.500112
vt 0.100911 0.994663
vt 0.080972 0.994663
vt 0.080972 0.500112
vt 0.100910 0.500112
vt 0.100910 0.994663
vt 0.080972 0.994663
vt 0.080972 0.500112
vt 0.100911 0.500112
vt 0.100911 0.994663
vt 0.080972 0.994663
vt 0.080972 0.500112
vt 0.100911 0.500112
vt 0.100911 0.994663
vt 0.080973 0.994663
vt 0.080973 0.500112
vt 0.020520 0.088601
vt 0.013585 0.088601
vt 0.013585 0.016241
vt 0.020520 0.016241
vt 0.021512 0.089835
vt 0.012593 0.089835
vt 0.012593 0.015007
vt 0.021512 0.015007
vt 0.020520 0.088601
vt 0.013585 0.088601
vt 0.013585 0.016241
vt 0.020520 0.016241
vt 0.021512 0.089835
vt 0.012594 0.089835
vt 0.012594 0.015007
vt 0.021512 0.015007
vt 0.020520 0.016238
vt 0.020520 0.088593
vt 0.013585 0.088603
vt 0.013585 0.016238
vt 0.021512 0.015004
vt 0.021512 0.089826
vt 0.012594 0.089838
vt 0.012594 0.015004
vt 0.013585 0.088601
vt 0.013585 0.016241
vt 0.020520 0.016241
vt 0.020520 0.088601
vt 0.012594 0.089835
vt 0.012594 0.015007
vt 0.021512 0.015007
vt 0.021512 0.089835
vt 0.020520 0.016241
vt 0.020520 0.088601
vt 0.013585 0.088601
vt 0.013585 0.016241
vt 0.021512 0.015007
vt 0.021512 0.089835
vt 0.012593 0.089835
vt 0.012593 0.015007
vt 0.013585 0.016241
vt 0.020520 0.016241
vt 0.020520 0.088601
vt 0.013585 0.088601
vt 0.012593 0.015007
vt 0.021512 0.015007
vt 0.021512 0.089835
vt 0.012593 0.089835
vt 0.013585 0.016241
vt 0.020520 0.016241
vt 0.020520 0.088602
vt 0.013585 0.088602
vt 0.012594 0.015007
vt 0.021512 0.015007
vt 0.021512 0.089835
vt 0.012594 0.089835
vt 0.020520 0.016241
vt 0.020520 0.088602
vt 0.013585 0.088602
vt 0.013585 0.016241
vt 0.021512 0.015007
vt 0.021512 0.089835
vt 0.012594 0.089835
vt 0.012594 0.015007
vt 0.060779 0.009534
vt 0.037584 0.009534
vt 0.034266 0.005409
vt 0.064097 0.005409
vt 0.037584 0.251568
vt 0.034266 0.255694
vt 0.060779 0.251568
vt 0.064097 0.255694
vt 0.060779 0.009534
vt 0.037584 0.009534
vt 0.034267 0.005409
vt 0.064097 0.005409
vt 0.037584 0.251569
vt 0.034267 0.255694
vt 0.060779 0.251569
vt 0.064097 0.255694
vt 0.060779 0.251579
vt 0.060779 0.009561
vt 0.064096 0.005440
vt 0.064096 0.255705
vt 0.037584 0.009529
vt 0.034266 0.005398
vt 0.037584 0.251579
vt 0.034266 0.255705
vt 0.037584 0.009534
vt 0.037584 0.251569
vt 0.034266 0.255694
vt 0.034266 0.005409
vt 0.060779 0.251569
vt 0.064096 0.255694
vt 0.060779 0.009534
vt 0.064096 0.005409
vt 0.373208 0.256241
vt 0.373208 0.014207
vt 0.376525 0.010081
vt 0.376525 0.260367
vt 0.350013 0.014207
vt 0.346695 0.010081
vt 0.350013 0.256241
vt 0.346695 0.260367
vt 0.243391 0.248588
vt 0.243391 0.006554
vt 0.246709 0.002428
vt 0.246709 0.252714
vt 0.220196 0.006554
vt 0.216879 0.002428
vt 0.220196 0.248588
vt 0.216879 0.252714
vt 0.350013 0.256241
vt 0.373208 0.256241
vt 0.376525 0.260367
vt 0.346695 0.260367
vt 0.373208 0.014207
vt 0.376525 0.010081
vt 0.350013 0.014207
vt 0.346695 0.010081
vt 0.243391 0.006554
vt 0.220196 0.006554
vt 0.216878 0.002428
vt 0.246709 0.002428
vt 0.220196 0.248588
vt 0.216878 0.252714
vt 0.243391 0.248588
vt 0.246709 0.252714
vt 0.350013 0.256241
vt 0.373208 0.256241
vt 0.376525 0.260367
vt 0.346695 0.260367
vt 0.373208 0.014207
vt 0.376525 0.010081
vt 0.350013 0.014207
vt 0.346695 0.010081
vt 0.243391 0.006554
vt 0.220196 0.006554
vt 0.216879 0.002428
vt 0.246709 0.002428
vt 0.220196 0.248588
vt 0.216879 0.252714
vt 0.243391 0.248588
vt 0.246709 0.252714
vt 0.373208 0.256241
vt 0.373208 0.014207
vt 0.376525 0.010081
vt 0.376525 0.260367
vt 0.350013 0.014207
vt 0.346695 0.010081
vt 0.350013 0.256241
vt 0.346695 0.260367
vt 0.243391 0.248588
vt 0.243391 0.006554
vt 0.246709 0.002428
vt 0.246709 0.252714
vt 0.220196 0.006554
vt 0.216879 0.002428
vt 0.220196 0.248588
vt 0.216879 0.252714
vt 0.309336 0.256701
vt 0.309336 0.014666
vt 0.312653 0.010541
vt 0.312653 0.260826
vt 0.286141 0.014666
vt 0.282823 0.010541
vt 0.286141 0.256701
vt 0.282823 0.260826
vt 0.286140 0.256701
vt 0.309336 0.256701
vt 0.312653 0.260826
vt 0.282823 0.260826
vt 0.309336 0.014667
vt 0.312653 0.010541
vt 0.286140 0.014667
vt 0.282823 0.010541
vt 0.286141 0.256701
vt 0.309336 0.256701
vt 0.312653 0.260827
vt 0.282823 0.260827
vt 0.309336 0.014666
vt 0.312653 0.010541
vt 0.286141 0.014666
vt 0.282823 0.010541
vt 0.309336 0.256701
vt 0.309336 0.014666
vt 0.312653 0.010541
vt 0.312653 0.260827
vt 0.286140 0.014666
vt 0.282823 0.010541
vt 0.286140 0.256701
vt 0.282823 0.260827
vt 0.773230 0.304311
vt 0.840522 0.304311
vt 0.840522 0.596228
vt 0.773230 0.596228
vt 0.846045 0.604512
vt 0.778751 0.604512
vt 0.778751 0.312595
vt 0.846045 0.312595
vt 0.779777 0.313347
vt 0.847069 0.313347
vt 0.847070 0.602192
vt 0.779777 0.602192
vt 0.848807 0.594692
vt 0.781514 0.594692
vt 0.781514 0.305847
vt 0.848807 0.305847
vt 0.840522 0.302320
vt 0.840522 0.598220
vt 0.773230 0.598220
vt 0.773230 0.302320
vt 0.775991 0.603742
vt 0.775991 0.307842
vt 0.843284 0.307842
vt 0.843284 0.603742
vt 0.778383 0.604371
vt 0.778383 0.312454
vt 0.845676 0.312454
vt 0.845676 0.604371
vt 0.846046 0.307072
vt 0.846046 0.598990
vt 0.778752 0.598990
vt 0.778752 0.307072
vt 0.096340 0.073245
vt 0.096340 0.118026
vt 0.081192 0.118026
vt 0.081192 0.073245
vt 0.081192 0.118026
vt 0.081192 0.073245
vt 0.096340 0.073245
vt 0.096340 0.118026
vt 0.096341 0.073245
vt 0.096341 0.118026
vt 0.081193 0.118026
vt 0.081193 0.073245
vt 0.081192 0.118027
vt 0.081192 0.073245
vt 0.096340 0.073245
vt 0.096340 0.118026
vt 0.096340 0.073245
vt 0.096340 0.118026
vt 0.081192 0.118026
vt 0.081192 0.073245
vt 0.081192 0.118027
vt 0.081192 0.073245
vt 0.096340 0.073245
vt 0.096340 0.118027
vt 0.081192 0.118027
vt 0.081192 0.073245
vt 0.096340 0.073245
vt 0.096340 0.118027
vt 0.096340 0.073245
vt 0.096340 0.118026
vt 0.081192 0.118026
vt 0.081192 0.073245
vt 0.096340 0.073245
vt 0.096340 0.118027
vt 0.081192 0.118027
vt 0.081192 0.073245
vt 0.081192 0.118026
vt 0.081192 0.073245
vt 0.096340 0.073245
vt 0.096340 0.118026
vt 0.081192 0.118026
vt 0.081192 0.073245
vt 0.096340 0.073245
vt 0.096340 0.118026
vt 0.096340 0.073245
vt 0.096340 0.118026
vt 0.081192 0.118026
vt 0.081192 0.073245
vt 0.081192 0.118026
vt 0.081192 0.073245
vt 0.096340 0.073245
vt 0.096340 0.118026
vt 0.096341 0.073245
vt 0.096341 0.118026
vt 0.081192 0.118026
vt 0.081192 0.073245
vt 0.096340 0.073245
vt 0.096340 0.118026
vt 0.081192 0.118026
vt 0.081192 0.073245
vt 0.081192 0.118026
vt 0.081192 0.073245
vt 0.096340 0.073245
vt 0.096340 0.118026
vt 0.956495 0.591517
vt 0.889201 0.591517
vt 0.889201 0.297978
vt 0.956495 0.297978
vt 0.889201 0.297978
vt 0.956495 0.297978
vt 0.956495 0.591517
vt 0.889201 0.591517
vt 0.889201 0.297978
vt 0.956495 0.297978
vt 0.956495 0.591517
vt 0.889201 0.591517
vt 0.956495 0.591517
vt 0.889201 0.591517
vt 0.889201 0.297978
vt 0.956495 0.297978
vt 0.889201 0.297978
vt 0.956495 0.297978
vt 0.956495 0.591517
vt 0.889201 0.591517
vt 0.956495 0.591517
vt 0.889201 0.591517
vt 0.889201 0.297978
vt 0.956495 0.297978
vt 0.956494 0.591517
vt 0.889201 0.591517
vt 0.889201 0.297978
vt 0.956494 0.297978
vt 0.889201 0.297978
vt 0.956494 0.297978
vt 0.956494 0.591517
vt 0.889201 0.591517
vt 0.206180 0.008338
vt 0.206180 0.059490
vt 0.188877 0.059490
vt 0.188877 0.008338
vt 0.188877 0.059490
vt 0.188877 0.008338
vt 0.206180 0.008338
vt 0.206180 0.059490
vt 0.152137 0.059490
vt 0.152137 0.008338
vt 0.169440 0.008338
vt 0.169440 0.059490
vt 0.169440 0.008338
vt 0.169440 0.059490
vt 0.152137 0.059490
vt 0.152137 0.008338
vt 0.112570 0.059490
vt 0.112570 0.008338
vt 0.129873 0.008338
vt 0.129873 0.059490
vt 0.129872 0.008338
vt 0.129872 0.059490
vt 0.112571 0.059490
vt 0.112571 0.008338
vt 0.095959 0.008338
vt 0.095959 0.059490
vt 0.078656 0.059490
vt 0.078656 0.008338
vt 0.078656 0.059490
vt 0.078656 0.008338
vt 0.095959 0.008338
vt 0.095959 0.059490
vn 0.000000 0.000000 1.000000
vn 0.000000 0.000000 1.000000
vn 0.000000 0.000000 1.000000
vn 0.000000 0.000000 1.000000
vn 1.000000 0.000000 0.000000
vn 1.000000 0.000000 0.000000
vn 1.000000 0.000000 0.000000
vn 1.000000 0.000000 0.000000
vn 0.000000 0.000000 -1.000000
vn 0.000000 0.000000 -1.000000
vn 0.000000 0.000000 -1.000000
vn 0.000000 0.000000 -1.000000
vn -1.000000 0.000000 -0.000000
vn -1.000000 0.000000 -0.000000
vn -1.000000 0.000000 -0.000000
vn -1.000000 0.000000 -0.000000
vn 0.000000 -0.000000 1.000000
vn 0.000000 -0.000000 1.000000
vn 0.000000 -0.000000 1.000000
vn 0.000000 -0.000000 1.000000
vn 1.000000 0.000000 0.000000
vn 1.000000 0.000000 0.000000
vn 1.000000 0.000000 0.000000
vn 1.000000 0.000000 0.000000
vn 0.000000 -0.000000 -1.000000
vn 0.000000 -0.000000 -1.000000
vn 0.000000 -0.000000 -1.000000
vn 0.000000 -0.000000 -1.000000
vn -1.000000 0.000000 -0.000002
vn -1.000000 0.000000 -0.000002
vn -1.000000 0.000000 -0.000002
vn -1.000000 0.000000 -0.000002
vn 1.000000 -0.000157 0.000000
vn 1.000000 -0.000157 0.000000
vn 1.000000 -0.000157 0.000000
vn 1.000000 -0.000157 0.000000
vn 0.000000 0.000000 -1.000000
vn 0.000000 0.000000 -1.000000
vn 0.000000 0.000000 -1.000000
vn 0.000000 0.000000 -1.000000
vn -1.000000 0.000157 -0.000566
vn -1.000000 0.000157 -0.000566
vn -1.000000 0.000157 -0.000566
vn -1.000000 0.000157 -0.000566
vn 0.000000 0.000000 1.000000
vn 0.000000 0.000000 1.000000
vn 0.000000 0.000000 1.000000
vn 0.000000 0.000000 1.000000
vn -1.000000 0.000000 -0.000000
vn -1.000000 0.000000 -0.000000
vn -1.000000 0.000000 -0.000000
vn -1.000000 0.000000 -0.000000
vn 0.000000 0.000000 1.000000
vn 0.000000 0.000000 1.000000
vn 0.000000 0.000000 1.000000
vn 0.000000 0.000000 1.000000
vn 1.000000 0.000000 0.000000
vn 1.000000 0.000000 0.000000
vn 1.000000 0.000000 0.000000
vn 1.000000 0.000000 0.000000
vn 0.000000 -0.000000 -1.000000
vn 0.000000 -0.000000 -1.000000
vn 0.000000 -0.000000 -1.000000
vn 0.000000 -0.000000 -1.000000
vn 0.000000 1.000000 0.000000
vn 0.000000 1.000000 0.000000
vn 0.000000 1.000000 0.000000
vn 0.000000 1.000000 0.000000
vn -0.000000 1.000000 -0.000000
vn -0.000000 1.000000 -0.000000
vn -0.000000 1.000000 -0.000000
vn -0.000000 1.000000 -0.000000
vn -0.000000 1.000000 -0.000000
vn 0.000000 1.000000 0.000000
vn 0.000000 1.000000 0.000000
vn -0.000000 1.000000 -0.000000
vn 0.000000 1.000000 0.000000
vn 0.000000 1.000000 0.000000
vn 0.000000 1.000000 0.000000
vn 0.000000 1.000000 0.000000
vn -1.000000 0.000000 -0.000000
vn -1.000000 0.000000 -0.000000
vn -1.000000 0.000000 -0.000000
vn -1.000000 0.000000 -0.000000
vn 0.000000 0.000000 1.000000
vn 0.000000 0.000000 1.000000
vn 0.000000 0.000000 1.000000
vn 0.000000 0.000000 1.000000
vn 1.000000 0.000000 0.000000
vn 1.000000 0.000000 0.000000
vn 1.000000 0.000000 0.000000
vn 1.000000 0.000000 0.000000
vn 0.000000 0.000000 -1.000000
vn 0.000000 0.000000 -1.000000
vn 0.000000 0.000000 -1.000000
vn 0.000000 0.000000 -1.000000
vn -1.000000 -0.000000 -0.000004
vn -1.000000 -0.000000 -0.000004
vn -1.000000 -0.000000 -0.000004
vn -1.000000 -0.000000 -0.000004
vn 0.000000 0.000001 1.000000
vn 0.000000 0.000001 1.000000
vn 0.000000 0.000001 1.000000
vn 0.000000 0.000001 1.000000
vn 1.000000 0.000000 0.000000
vn 1.000000 0.000000 0.000000
vn 1.000000 0.000000 0.000000
vn 1.000000 0.000000 0.000000
vn 0.000000 -0.000001 -1.000000
vn 0.000000 -0.000001 -1.000000
vn 0.000000 -0.000001 -1.000000
vn 0.000000 -0.000001 -1.000000
vn 0.000000 0.000000 -1.000000
vn 0.000000 0.000000 -1.000000
vn 0.000000 0.000000 -1.000000
vn 0.000000 0.000000 -1.000000
vn -0.999999 0.000000 -0.001133
vn -0.999999 0.000000 -0.001133
vn -0.999999 0.000000 -0.001133
vn -0.999999 0.000000 -0.001133
vn 0.000000 0.000000 1.000000
vn 0.000000 0.000000 1.000000
vn 0.000000 0.000000 1.000000
vn 0.000000 0.000000 1.000000
vn 1.000000 0.000000 0.000000
vn 1.000000 0.000000 0.000000
vn 1.000000 0.000000 0.000000
vn 1.000000 0.000000 0.000000
vn 0.000000 0.000000 1.000000
vn 0.000000 0.000000 1.000000
vn 0.000000 0.000000 1.000000
vn 0.000000 0.000000 1.000000
vn 1.000000 0.000000 0.000000
vn 1.000000 0.000000 0.000000
vn 1.000000 0.000000 0.000000
vn 1.000000 0.000000 0.000000
vn 0.000000 0.000000 -1.000000
vn 0.000000 0.000000 -1.000000
vn 0.000000 0.000000 -1.000000
vn 0.000000 0.000000 -1.000000
vn -1.000000 0.000000 -0.000000
vn -1.000000 0.000000 -0.000000
vn -1.000000 0.000000 -0.000000
vn -1.000000 0.000000 -0.000000
vn -0.000000 -1.000000 0.000000
vn 0.000000 -1.000000 0.000000
vn 0.000000 -1.000000 0.000000
vn -0.000000 -1.000000 0.000000
vn 0.000000 -1.000000 0.000000
vn 0.000000 -1.000000 0.000000
vn -0.000000 -1.000000 0.000000
vn -0.000000 -1.000000 0.000000
vn 0.000000 -1.000000 0.000000
vn 0.000000 -1.000000 0.000000
vn -0.000000 -1.000000 0.000000
vn -0.000000 -1.000000 0.000000
vn 0.000000 -1.000000 0.000000
vn -0.000000 -1.000000 0.000000
vn -0.000000 -1.000000 0.000000
vn 0.000000 -1.000000 0.000000
vn 0.000000 0.000000 -1.000000
vn 0.000000 0.000000 -1.000000
vn 0.000000 0.000000 -1.000000
vn 0.000000 0.000000 -1.000000
vn 1.000000 0.000000 0.000000
vn 1.000000 0.000000 0.000000
vn 1.000000 0.000000 0.000000
vn 1.000000 0.000000 0.000000
vn 0.000000 0.000000 1.000000
vn 0.000000 0.000000 1.000000
vn 0.000000 0.000000 1.000000
vn 0.000000 0.000000 1.000000
vn -1.000000 0.000000 -0.000000
vn -1.000000 0.000000 -0.000000
vn -1.000000 0.000000 -0.000000
vn -1.000000 0.000000 -0.000000
vn -1.000000 0.000000 -0.000000
vn -1.000000 0.000000 -0.000000
vn -1.000000 0.000000 -0.000000
vn -1.000000 0.000000 -0.000000
vn 0.000000 0.000000 -1.000000
vn 0.000000 0.000000 -1.000000
vn 0.000000 0.000000 -1.000000
vn 0.000000 0.000000 -1.000000
vn 1.000000 0.000000 0.000000
vn 1.000000 0.000000 0.000000
vn 1.000000 0.000000 0.000000
vn 1.000000 0.000000 0.000000
vn 0.000000 0.000000 1.000000
vn 0.000000 0.000000 1.000000
vn 0.000000 0.000000 1.000000
vn 0.000000 0.000000 1.000000
vn -1.000000 0.000000 -0.000000
vn -1.000000 0.000000 -0.000000
vn -1.000000 0.000000 -0.000000
vn -1.000000 0.000000 -0.000000
vn 0.000000 0.000000 -1.000000
vn 0.000000 0.000000 -1.000000
vn 0.000000 0.000000 -1.000000
vn 0.000000 0.000000 -1.000000
vn 1.000000 0.000000 0.000000
vn 1.000000 0.000000 0.000000
vn 1.000000 0.000000 0.000000
vn 1.000000 0.000000 0.000000
vn 0.000000 0.000000 1.000000
vn 0.000000 0.000000 1.000000
vn 0.000000 0.000000 1.000000
vn 0.000000 0.000000 1.000000
vn 0.000000 0.000000 -1.000000
vn 0.000000 0.000000 -1.000000
vn 0.000000 0.000000 -1.000000
vn 0.000000 0.000000 -1.000000
vn 1.000000 0.000000 0.000000
vn 1.000000 0.000000 0.000000
vn 1.000000 0.000000 0.000000
vn 1.000000 0.000000 0.000000
vn 0.000000 0.000000 1.000000
vn 0.000000 0.000000 1.000000
vn 0.000000 0.000000 1.000000
vn 0.000000 0.000000 1.000000
vn -1.000000 0.000000 -0.000000
vn -1.000000 0.000000 -0.000000
vn -1.000000 0.000000 -0.000000
vn -1.000000 0.000000 -0.000000
vn 0.000000 0.000000 -1.000000
vn 0.000000 0.000000 -1.000000
vn 0.000000 0.000000 -1.000000
vn 0.000000 0.000000 -1.000000
vn 1.000000 0.000000 0.000000
vn 1.000000 0.000000 0.000000
vn 1.000000 0.000000 0.000000
vn 1.000000 0.000000 0.000000
vn 0.000000 0.000000 1.000000
vn 0.000000 0.000000 1.000000
vn 0.000000 0.000000 1.000000
vn 0.000000 0.000000 1.000000
vn -1.000000 0.000000 -0.000000
vn -1.000000 0.000000 -0.000000
vn -1.000000 0.000000 -0.000000
vn -1.000000 0.000000 -0.000000
vn -1.000000 0.000000 -0.000000
vn -1.000000 0.000000 -0.000000
vn -1.000000 0.000000 -0.000000
vn -1.000000 0.000000 -0.000000
vn 0.000000 0.000000 -1.000000
vn 0.000000 0.000000 -1.000000
vn 0.000000 0.000000 -1.000000
vn 0.000000 0.000000 -1.000000
vn 1.000000 0.000000 0.000000
vn 1.000000 0.000000 0.000000
vn 1.000000 0.000000 0.000000
vn 1.000000 0.000000 0.000000
vn 0.000000 0.000000 1.000000
vn 0.000000 0.000000 1.000000
vn 0.000000 0.000000 1.000000
vn 0.000000 0.000000 1.000000
vn -1.000000 0.000000 -0.000000
vn -1.000000 0.000000 -0.000000
vn -1.000000 0.000000 -0.000000
vn -1.000000 0.000000 -0.000000
vn 0.000000 0.000000 -1.000000
vn 0.000000 0.000000 -1.000000
vn 0.000000 0.000000 -1.000000
vn 0.000000 0.000000 -1.000000
vn 1.000000 0.000000 0.000000
vn 1.000000 0.000000 0.000000
vn 1.000000 0.000000 0.000000
vn 1.000000 0.000000 0.000000
vn 0.000000 0.000000 1.000000
vn 0.000000 0.000000 1.000000
vn 0.000000 0.000000 1.000000
vn 0.000000 0.000000 1.000000
vn 0.000000 0.000000 -1.000000
vn 0.000000 0.000000 -1.000000
vn 0.000000 0.000000 -1.000000
vn 0.000000 0.000000 -1.000000
vn 1.000000 0.000000 0.000000
vn 1.000000 0.000000 0.000000
vn 1.000000 0.000000 0.000000
vn 1.000000 0.000000 0.000000
vn 0.000000 0.000000 1.000000
vn 0.000000 0.000000 1.000000
vn 0.000000 0.000000 1.000000
vn 0.000000 0.000000 1.000000
vn -1.000000 0.000000 -0.000000
vn -1.000000 0.000000 -0.000000
vn -1.000000 0.000000 -0.000000
vn -1.000000 0.000000 -0.000000
vn 0.000000 0.000000 -1.000000
vn 0.000000 0.000000 -1.000000
vn 0.000000 0.000000 -1.000000
vn 0.000000 0.000000 -1.000000
vn 1.000000 0.000000 0.000000
vn 1.000000 0.000000 0.000000
vn 1.000000 0.000000 0.000000
vn 1.000000 0.000000 0.000000
vn 0.000000 0.000000 1.000000
vn 0.000000 0.000000 1.000000
vn 0.000000 0.000000 1.000000
vn 0.000000 0.000000 1.000000
vn -1.000000 0.000000 -0.000000
vn -1.000000 0.000000 -0.000000
vn -1.000000 0.000000 -0.000000
vn -1.000000 0.000000 -0.000000
vn -1.000000 0.000000 -0.000000
vn -1.000000 0.000000 -0.000000
vn -1.000000 0.000000 -0.000000
vn -1.000000 0.000000 -0.000000
vn 0.000000 0.000000 -1.000000
vn 0.000000 0.000000 -1.000000
vn 0.000000 0.000000 -1.000000
vn 0.000000 0.000000 -1.000000
vn 1.000000 0.000000 0.000000
vn 1.000000 0.000000 0.000000
vn 1.000000 0.000000 0.000000
vn 1.000000 0.000000 0.000000
vn 0.000000 0.000000 1.000000
vn 0.000000 0.000000 1.000000
vn 0.000000 0.000000 1.000000
vn 0.000000 0.000000 1.000000
vn -1.000000 0.000000 -0.000000
vn -1.000000 0.000000 -0.000000
vn -1.000000 0.000000 -0.000000
vn -1.000000 0.000000 -0.000000
vn 0.000000 0.000000 -1.000000
vn 0.000000 0.000000 -1.000000
vn 0.000000 0.000000 -1.000000
vn 0.000000 0.000000 -1.000000
vn 1.000000 0.000000 0.000000
vn 1.000000 0.000000 0.000000
vn 1.000000 0.000000 0.000000
vn 1.000000 0.000000 0.000000
vn 0.000000 0.000000 1.000000
vn 0.000000 0.000000 1.000000
vn 0.000000 0.000000 1.000000
vn 0.000000 0.000000 1.000000
vn 0.000000 0.000000 -1.000000
vn 0.000000 0.000000 -1.000000
vn 0.000000 0.000000 -1.000000
vn 0.000000 0.000000 -1.000000
vn 1.000000 0.000000 0.000000
vn 1.000000 0.000000 0.000000
vn 1.000000 0.000000 0.000000
vn 1.000000 0.000000 0.000000
vn 0.000000 0.000000 1.000000
vn 0.000000 0.000000 1.000000
vn 0.000000 0.000000 1.000000
vn 0.000000 0.000000 1.000000
vn -1.000000 0.000000 -0.000000
vn -1.000000 0.000000 -0.000000
vn -1.000000 0.000000 -0.000000
vn -1.000000 0.000000 -0.000000
vn 0.000000 -1.000000 0.000000
vn 0.000000 -1.000000 0.000000
vn 0.000000 -1.000000 0.000000
vn 0.000000 -1.000000 0.000000
vn 0.000000 1.000000 0.000000
vn 0.000000 1.000000 0.000000
vn -0.000000 -1.000000 0.000000
vn -0.000000 -1.000000 0.000000
vn 0.000000 1.000000 0.000000
vn -0.000000 -1.000000 0.000000
vn -0.000000 -1.000000 0.000000
vn 0.000000 1.000000 0.000000
vn -0.000000 -1.000000 0.000000
vn -0.000000 -1.000000 0.000000
vn -0.000000 -1.000000 0.000000
vn -0.000000 -1.000000 0.000000
vn -0.000000 1.000000 -0.000000
vn -0.000000 1.000000 -0.000000
vn 0.000000 -1.000000 0.000000
vn 0.000000 -1.000000 0.000000
vn -0.000000 1.000000 -0.000000
vn 0.000000 -1.000000 0.000000
vn 0.000000 -1.000000 0.000000
vn -0.000000 1.000000 -0.000000
vn -0.000000 -1.000000 0.000000
vn 0.000000 -1.000000 0.000000
vn 0.000000 -1.000000 0.000000
vn -0.000000 -1.000000 0.000000
vn -0.000000 1.000000 -0.000000
vn 0.000000 1.000000 0.000000
vn 0.000000 -1.000000 0.000000
vn 0.000000 -1.000000 0.000000
vn 0.000000 1.000000 0.000000
vn -0.000000 -1.000000 0.000000
vn -0.000000 -1.000000 0.000000
vn -0.000000 1.000000 -0.000000
vn 0.000000 -1.000000 0.000000
vn -0.000000 -1.000000 0.000000
vn -0.000000 -1.000000 0.000000
vn 0.000000 -1.000000 0.000000
vn 0.000000 1.000000 0.000000
vn 0.000000 1.000000 0.000000
vn -0.000000 -1.000000 0.000000
vn -0.000000 -1.000000 0.000000
vn 0.000000 1.000000 0.000000
vn 0.000000 -1.000000 0.000000
vn 0.000000 -1.000000 0.000000
vn 0.000000 1.000000 0.000000
vn -0.000000 1.000000 -0.000000
vn 0.000000 1.000000 0.000000
vn 0.000000 1.000000 0.000000
vn -0.000000 1.000000 -0.000000
vn -0.000000 -1.000000 0.000000
vn 0.000000 -1.000000 0.000000
vn 0.000000 -1.000000 0.000000
vn -0.000000 -1.000000 0.000000
vn 0.000000 1.000000 0.000000
vn 0.000000 1.000000 0.000000
vn -0.000000 -1.000000 0.000000
vn -0.000000 -1.000000 0.000000
vn -0.000000 1.000000 -0.000000
vn -0.000000 1.000000 -0.000000
vn 0.000000 -1.000000 0.000000
vn 0.000000 -1.000000 0.000000
vn -0.000000 1.000000 -0.000000
vn -0.000000 1.000000 -0.000000
vn -0.000000 1.000000 -0.000000
vn -0.000000 1.000000 -0.000000
vn 0.000000 -1.000000 0.000000
vn 0.000000 -1.000000 0.000000
vn 0.000000 -1.000000 0.000000
vn 0.000000 -1.000000 0.000000
vn 0.000000 1.000000 0.000000
vn 0.000000 1.000000 0.000000
vn 0.000000 -1.000000 0.000000
vn 0.000000 -1.000000 0.000000
vn 0.000000 1.000000 0.000000
vn 0.000000 1.000000 0.000000
vn 0.000000 -1.000000 0.000000
vn 0.000000 -1.000000 0.000000
vn -0.000000 1.000000 -0.000000
vn -0.000000 1.000000 -0.000000
vn -0.000000 1.000000 -0.000000
vn -0.000000 1.000000 -0.000000
vn 0.000000 -1.000000 0.000000
vn 0.000000 -1.000000 0.000000
vn 0.000000 -1.000000 0.000000
vn 0.000000 -1.000000 0.000000
vn -0.000000 1.000000 -0.000000
vn -0.000000 1.000000 -0.000000
vn -0.000000 -1.000000 0.000000
vn -0.000000 -1.000000 0.000000
vn -0.000000 1.000000 -0.000000
vn -0.000000 1.000000 -0.000000
vn -0.000000 -1.000000 0.000000
vn -0.000000 -1.000000 0.000000
vn -0.000000 1.000000 -0.000000
vn 0.000000 1.000000 0.000000
vn 0.000000 1.000000 0.000000
vn -0.000000 1.000000 -0.000000
vn -0.000000 -1.000000 0.000000
vn 0.000000 -1.000000 0.000000
vn 0.000000 -1.000000 0.000000
vn -0.000000 -1.000000 0.000000
vn 0.000000 1.000000 0.000000
vn 0.000000 1.000000 0.000000
vn -0.000000 -1.000000 0.000000
vn -0.000000 -1.000000 0.000000
vn -0.000000 1.000000 -0.000000
vn -0.000000 1.000000 -0.000000
vn 0.000000 -1.000000 0.000000
vn 0.000000 -1.000000 0.000000
vn 0.000000 1.000000 0.000000
vn -0.000000 1.000000 -0.000000
vn -0.000000 1.000000 -0.000000
vn 0.000000 1.000000 0.000000
vn -0.000000 -1.000000 0.000000
vn 0.000000 -1.000000 0.000000
vn -0.000000 1.000000 -0.000000
vn -0.000000 1.000000 -0.000000
vn 0.000000 -1.000000 0.000000
vn 0.000000 1.000000 0.000000
vn 0.000000 1.000000 0.000000
vn -0.000000 -1.000000 0.000000
vn 0.000000 1.000000 0.000000
vn 0.000000 1.000000 0.000000
vn 0.000000 1.000000 0.000000
vn 0.000000 1.000000 0.000000
vn 0.000000 -1.000000 0.000000
vn 0.000000 -1.000000 0.000000
vn -0.000000 1.000000 -0.000000
vn -0.000000 1.000000 -0.000000
vn -0.000000 -1.000000 0.000000
vn -0.000000 1.000000 -0.000000
vn -0.000000 1.000000 -0.000000
vn -0.000000 -1.000000 0.000000
vn 0.000000 1.000000 0.000000
vn 0.000000 1.000000 0.000000
vn 0.000000 1.000000 0.000000
vn 0.000000 1.000000 0.000000
vn 0.000000 -1.000000 0.000000
vn 0.000000 -1.000000 0.000000
vn -0.000000 1.000000 -0.000000
vn -0.000000 1.000000 -0.000000
vn -0.000000 -1.000000 0.000000
vn -0.000000 1.000000 -0.000000
vn -0.000000 1.000000 -0.000000
vn -0.000000 -1.000000 0.000000
vn 0.000000 1.000000 0.000000
vn -0.000000 1.000000 -0.000000
vn -0.000000 1.000000 -0.000000
vn 0.000000 1.000000 0.000000
vn 0.000000 -1.000000 0.000000
vn -0.000000 -1.000000 0.000000
vn -0.000000 1.000000 -0.000000
vn -0.000000 1.000000 -0.000000
vn -0.000000 -1.000000 0.000000
vn 0.000000 1.000000 0.000000
vn 0.000000 1.000000 0.000000
vn 0.000000 -1.000000 0.000000
s off
g Hallway Hallway_Masters:Hallway_Walls
usemtl initialShadingGroup
f 25/25/25 18/26/26 19/27/27 28/28/28
f 19/377/29 20/378/30 27/379/31 28/380/32
f 20/29/33 17/30/34 26/31/35 27/32/36
f 17/381/37 18/382/38 25/383/39 26/384/40
f 37/33/41 22/34/42 23/35/43 40/36/44
f 23/385/45 24/386/46 39/387/47 40/388/48
f 24/37/49 21/38/50 38/39/51 39/40/52
f 21/389/53 22/390/54 37/391/55 38/392/56
f 11/393/57 30/394/58 29/395/59 12/396/60
f 10/41/61 31/42/62 30/43/63 11/44/64
f 9/397/65 32/398/66 31/399/67 10/400/68
f 12/45/69 29/46/70 32/47/71 9/48/72
f 13/401/73 34/402/74 33/403/75 14/404/76
f 16/49/77 35/50/78 34/51/79 13/52/80
f 15/405/81 36/406/82 35/407/83 16/408/84
f 14/53/85 33/54/86 36/55/87 15/56/88
s 1
f 42/185/89 41/186/90 43/187/91 44/188/92
s 2
f 46/193/93 45/194/94 47/195/95 48/196/96
s 3
f 49/201/97 50/202/98 51/203/99 52/204/100
s 4
f 53/209/101 54/210/102 55/211/103 56/212/104
s off
f 106/409/105 105/410/106 107/411/107 108/412/108
f 105/57/109 109/58/110 110/59/111 107/60/112
f 109/413/113 111/414/114 112/415/115 110/416/116
f 111/61/117 106/62/118 108/63/119 112/64/120
f 114/417/121 113/418/122 115/419/123 116/420/124
f 113/65/125 117/66/126 118/67/127 115/68/128
f 117/421/129 119/422/130 120/423/131 118/424/132
f 119/69/133 114/70/134 116/71/135 120/72/136
f 121/73/137 122/74/138 123/75/139 124/76/140
f 122/425/141 125/426/142 126/427/143 123/428/144
f 125/77/145 127/78/146 128/79/147 126/80/148
f 127/429/149 121/430/150 124/431/151 128/432/152
f 129/81/153 130/82/154 131/83/155 132/84/156
f 130/433/157 133/434/158 134/435/159 131/436/160
f 133/85/161 135/86/162 136/87/163 134/88/164
f 135/437/165 129/438/166 132/439/167 136/440/168
s 5
f 89/217/169 90/218/170 91/219/171 92/220/172
s 6
f 94/225/173 93/226/174 95/227/175 96/228/176
s 7
f 98/233/177 97/234/178 99/235/179 100/236/180
s 8
f 101/241/181 102/242/182 103/243/183 104/244/184
s off
f 137/89/185 138/90/186 139/91/187 140/92/188
f 138/441/189 141/442/190 142/443/191 139/444/192
f 141/93/193 143/94/194 144/95/195 142/96/196
f 143/445/197 137/446/198 140/447/199 144/448/200
f 146/449/201 145/450/202 147/451/203 148/452/204
f 145/97/205 149/98/206 150/99/207 147/100/208
f 149/453/209 151/454/210 152/455/211 150/456/212
f 151/101/213 146/102/214 148/103/215 152/104/216
f 154/457/217 153/458/218 155/459/219 156/460/220
f 153/105/221 157/106/222 158/107/223 155/108/224
f 157/461/225 159/462/226 160/463/227 158/464/228
f 159/109/229 154/110/230 156/111/231 160/112/232
f 161/113/233 162/114/234 163/115/235 164/116/236
f 162/465/237 165/466/238 166/467/239 163/468/240
f 165/117/241 167/118/242 168/119/243 166/120/244
f 167/469/245 161/470/246 164/471/247 168/472/248
f 57/121/249 58/122/250 74/123/251 73/124/252
f 58/473/253 59/474/254 75/475/255 74/476/256
f 59/125/257 60/126/258 76/127/259 75/128/260
f 60/477/261 57/478/262 73/479/263 76/480/264
f 62/481/265 61/482/266 77/483/267 78/484/268
f 61/129/269 63/130/270 79/131/271 77/132/272
f 63/485/273 64/486/274 80/487/275 79/488/276
f 64/133/277 62/134/278 78/135/279 80/136/280
f 66/489/281 65/490/282 81/491/283 82/492/284
f 65/137/285 67/138/286 83/139/287 81/140/288
f 67/493/289 68/494/290 84/495/291 83/496/292
f 68/141/293 66/142/294 82/143/295 84/144/296
f 69/145/297 70/146/298 86/147/299 85/148/300
f 70/497/301 71/498/302 87/499/303 86/500/304
f 71/149/305 72/150/306 88/151/307 87/152/308
f 72/501/309 69/502/310 85/503/311 88/504/312
f 169/153/313 170/154/314 171/155/315 172/156/316
f 170/505/317 173/506/318 174/507/319 171/508/320
f 173/157/321 175/158/322 176/159/323 174/160/324
f 175/509/325 169/510/326 172/511/327 176/512/328
f 178/513/329 177/514/330 179/515/331 180/516/332
f 177/161/333 181/162/334 182/163/335 179/164/336
f 181/517/337 183/518/338 184/519/339 182/520/340
f 183/165/341 178/166/342 180/167/343 184/168/344
f 186/521/345 185/522/346 187/523/347 188/524/348
f 185/169/349 189/170/350 190/171/351 187/172/352
f 189/525/353 191/526/354 192/527/355 190/528/356
f 191/173/357 186/174/358 188/175/359 192/176/360
f 193/177/361 194/178/362 195/179/363 196/180/364
f 194/529/365 197/530/366 198/531/367 195/532/368
f 197/181/369 199/182/370 200/183/371 198/184/372
f 199/533/373 193/534/374 196/535/375 200/536/376
s 9
f 26/249/377 25/250/378 105/251/379 106/252/380
s 1
f 41/186/90 42/185/89 108/189/381 107/190/382
s 9
f 25/250/378 28/253/383 109/254/384 105/251/379
s 1
f 43/187/91 41/186/90 107/190/382 110/191/385
s 9
f 28/253/383 27/255/386 111/256/387 109/254/384
s 1
f 44/188/92 43/187/91 110/191/385 112/192/388
s 9
f 27/255/386 26/249/377 106/252/380 111/256/387
s 1
f 42/185/89 44/188/92 112/192/388 108/189/381
s 10
f 38/257/389 37/258/390 113/259/391 114/260/392
s 2
f 45/194/94 46/193/93 116/197/393 115/198/394
s 10
f 37/258/390 40/261/395 117/262/396 113/259/391
s 2
f 47/195/95 45/194/94 115/198/394 118/199/397
s 10
f 40/261/395 39/263/398 119/264/399 117/262/396
s 2
f 48/196/96 47/195/95 118/199/397 120/200/400
s 10
f 39/263/398 38/257/389 114/260/392 119/264/399
s 2
f 46/193/93 48/196/96 120/200/400 116/197/393
s 11
f 30/265/401 31/266/402 122/267/403 121/268/404
s 3
f 50/202/98 49/201/97 124/205/405 123/206/406
s 11
f 31/266/402 32/269/407 125/270/408 122/267/403
s 3
f 51/203/99 50/202/98 123/206/406 126/207/409
s 11
f 32/269/407 29/271/410 127/272/411 125/270/408
s 3
f 52/204/100 51/203/99 126/207/409 128/208/412
s 11
f 29/271/410 30/265/401 121/268/404 127/272/411
s 3
f 49/201/97 52/204/100 128/208/412 124/205/405
s 12
f 34/273/413 35/274/414 130/275/415 129/276/416
s 4
f 54/210/102 53/209/101 132/213/417 131/214/418
s 12
f 35/274/414 36/277/419 133/278/420 130/275/415
s 4
f 55/211/103 54/210/102 131/214/418 134/215/421
s 12
f 36/277/419 33/279/422 135/280/423 133/278/420
s 4
f 56/212/104 55/211/103 134/215/421 136/216/424
s 12
f 33/279/422 34/273/413 129/276/416 135/280/423
s 4
f 53/209/101 56/212/104 136/216/424 132/213/417
s 13
f 10/281/425 11/282/426 138/283/427 137/284/428
s 14
f 58/289/429 57/290/430 140/291/431 139/292/432
s 13
f 11/282/426 12/285/433 141/286/434 138/283/427
s 14
f 59/295/435 58/289/429 139/292/432 142/296/436
s 13
f 12/285/433 9/287/437 143/288/438 141/286/434
s 14
f 60/293/439 59/295/435 142/296/436 144/294/440
s 13
f 9/287/437 10/281/425 137/284/428 143/288/438
s 14
f 57/290/430 60/293/439 144/294/440 140/291/431
s 15
f 18/297/441 17/298/442 145/299/443 146/300/444
s 16
f 61/305/445 62/306/446 148/307/447 147/308/448
s 15
f 17/298/442 20/301/449 149/302/450 145/299/443
s 16
f 63/311/451 61/305/445 147/308/448 150/312/452
s 15
f 20/301/449 19/303/453 151/304/454 149/302/450
s 16
f 64/309/455 63/311/451 150/312/452 152/310/456
s 15
f 19/303/453 18/297/441 146/300/444 151/304/454
s 16
f 62/306/446 64/309/455 152/310/456 148/307/447
s 17
f 22/313/457 21/314/458 153/315/459 154/316/460
s 18
f 65/321/461 66/322/462 156/323/463 155/324/464
s 17
f 21/314/458 24/317/465 157/318/466 153/315/459
s 18
f 67/327/467 65/321/461 155/324/464 158/328/468
s 17
f 24/317/465 23/319/469 159/320/470 157/318/466
s 18
f 68/325/471 67/327/467 158/328/468 160/326/472
s 17
f 23/319/469 22/313/457 154/316/460 159/320/470
s 18
f 66/322/462 68/325/471 160/326/472 156/323/463
s 19
f 14/329/473 15/330/474 162/331/475 161/332/476
s 20
f 70/337/477 69/338/478 164/339/479 163/340/480
s 19
f 15/330/474 16/333/481 165/334/482 162/331/475
s 20
f 71/343/483 70/337/477 163/340/480 166/344/484
s 19
f 16/333/481 13/335/485 167/336/486 165/334/482
s 20
f 72/341/487 71/343/483 166/344/484 168/342/488
s 19
f 13/335/485 14/329/473 161/332/476 167/336/486
s 20
f 69/338/478 72/341/487 168/342/488 164/339/479
s 21
f 73/345/489 74/346/490 170/347/491 169/348/492
s 5
f 90/218/170 89/217/169 172/221/493 171/222/494
s 21
f 74/346/490 75/349/495 173/350/496 170/347/491
s 5
f 91/219/171 90/218/170 171/222/494 174/223/497
s 21
f 75/349/495 76/351/498 175/352/499 173/350/496
s 5
f 92/220/172 91/219/171 174/223/497 176/224/500
s 21
f 76/351/498 73/345/489 169/348/492 175/352/499
s 5
f 89/217/169 92/220/172 176/224/500 172/221/493
s 22
f 78/353/501 77/354/502 177/355/503 178/356/504
s 6
f 93/226/174 94/225/173 180/229/505 179/230/506
s 22
f 77/354/502 79/357/507 181/358/508 177/355/503
s 6
f 95/227/175 93/226/174 179/230/506 182/231/509
s 22
f 79/357/507 80/359/510 183/360/511 181/358/508
s 6
f 96/228/176 95/227/175 182/231/509 184/232/512
s 22
f 80/359/510 78/353/501 178/356/504 183/360/511
s 6
f 94/225/173 96/228/176 184/232/512 180/229/505
s 23
f 82/361/513 81/362/514 185/363/515 186/364/516
s 7
f 97/234/178 98/233/177 188/237/517 187/238/518
s 23
f 81/362/514 83/365/519 189/366/520 185/363/515
s 7
f 99/235/179 97/234/178 187/238/518 190/239/521
s 23
f 83/365/519 84/367/522 191/368/523 189/366/520
s 7
f 100/236/180 99/235/179 190/239/521 192/240/524
s 23
f 84/367/522 82/361/513 186/364/516 191/368/523
s 7
f 98/233/177 100/236/180 192/240/524 188/237/517
s 24
f 85/369/525 86/370/526 194/371/527 193/372/528
s 8
f 102/242/182 101/241/181 196/245/529 195/246/530
s 24
f 86/370/526 87/373/531 197/374/532 194/371/527
s 8
f 103/243/183 102/242/182 195/246/530 198/247/533
s 24
f 87/373/531 88/375/534 199/376/535 197/374/532
s 8
f 104/244/184 103/243/183 198/247/533 200/248/536
s 24
f 88/375/534 85/369/525 193/372/528 199/376/535
s 8
f 101/241/181 104/244/184 200/248/536 196/245/529
g default
v 11.854582 12.245997 4.964348
v 42.399319 12.245997 4.964349
v 11.854582 12.972092 4.964348
v 42.399319 12.972092 4.964349
v 11.854582 12.972092 -4.551226
v 42.399319 12.972092 -4.551226
v 11.854582 12.245997 -4.551226
v 42.399319 12.245997 -4.551226
vt 0.081587 0.388109
vt 0.081587 0.139665
vt 0.100544 0.139665
vt 0.100544 0.388109
vt 0.081586 0.388109
vt 0.081586 0.139665
vt 0.100544 0.139665
vt 0.100544 0.388109
vt 0.759348 0.985142
vt 0.759348 0.628224
vt 0.870539 0.628224
vt 0.870539 0.985142
vt 0.759348 0.985142
vt 0.759348 0.628224
vt 0.870539 0.628224
vt 0.870539 0.985142
vt 0.115682 0.261330
vt 0.115682 0.073080
vt 0.120157 0.073080
vt 0.120157 0.261330
vt 0.115682 0.261330
vt 0.115682 0.073080
vt 0.120157 0.073080
vt 0.120157 0.261330
vn -0.000000 0.000000 1.000000
vn -0.000000 0.000000 1.000000
vn -0.000000 0.000000 1.000000
vn -0.000000 0.000000 1.000000
vn 0.000000 1.000000 0.000000
vn 0.000000 1.000000 0.000000
vn 0.000000 1.000000 0.000000
vn 0.000000 1.000000 0.000000
vn -0.000000 0.000000 -1.000000
vn -0.000000 0.000000 -1.000000
vn -0.000000 0.000000 -1.000000
vn -0.000000 0.000000 -1.000000
vn 0.000000 -1.000000 0.000000
vn 0.000000 -1.000000 0.000000
vn 0.000000 -1.000000 0.000000
vn 0.000000 -1.000000 0.000000
vn 1.000000 0.000000 0.000000
vn 1.000000 0.000000 0.000000
vn 1.000000 0.000000 0.000000
vn 1.000000 0.000000 0.000000
vn -1.000000 0.000000 0.000000
vn -1.000000 0.000000 0.000000
vn -1.000000 0.000000 0.000000
vn -1.000000 0.000000 0.000000
s off
g Hallway pCube2
usemtl initialShadingGroup
f 201/553/537 202/554/538 204/555/539 203/556/540
f 203/545/541 204/546/542 206/547/543 205/548/544
f 205/557/545 206/558/546 208/559/547 207/560/548
f 207/549/549 208/550/550 202/551/551 201/552/552
f 202/537/553 208/538/554 206/539/555 204/540/556
f 207/541/557 201/542/558 203/543/559 205/544/560
