# This file uses centimeters as units for non-parametric coordinates.

mtllib Roof Boards.mtl
g default
v 10.021381 16.199985 0.587807
v -8.090525 16.199985 0.587807
v -8.090525 16.199985 -1.193176
v 10.021381 16.199985 -1.193177
v 10.021381 15.699985 0.587807
v -8.090525 15.699985 0.587807
v -8.090525 15.699985 -1.193176
v 10.021381 15.699985 -1.193177
vt 0.099545 0.007316
vt 0.099545 0.104600
vt 0.011425 0.104600
vt 0.011425 0.007316
vt 0.099547 0.007317
vt 0.099547 0.104599
vt 0.011424 0.104599
vt 0.011424 0.007317
vt 0.835643 0.004774
vt 0.835643 0.994115
vt 0.738360 0.994115
vt 0.738360 0.004774
vt 0.115331 0.003703
vt 0.212613 0.003703
vt 0.212613 0.993046
vt 0.115331 0.993046
vt 0.208032 0.003704
vt 0.208032 0.993045
vt 0.119912 0.993045
vt 0.119912 0.003704
vt 0.119911 0.993042
vt 0.119911 0.003707
vt 0.208033 0.003707
vt 0.208033 0.993042
vn 0.000000 -1.000000 0.000000
vn 0.000000 -1.000000 0.000000
vn 0.000000 -1.000000 0.000000
vn 0.000000 -1.000000 0.000000
vn 0.000000 1.000000 0.000000
vn 0.000000 1.000000 0.000000
vn 0.000000 1.000000 0.000000
vn 0.000000 1.000000 0.000000
vn 0.000000 0.000000 1.000000
vn 0.000000 0.000000 1.000000
vn 0.000000 0.000000 1.000000
vn 0.000000 0.000000 1.000000
vn -1.000000 0.000000 0.000000
vn -1.000000 0.000000 0.000000
vn -1.000000 0.000000 0.000000
vn -1.000000 0.000000 0.000000
vn -0.000000 0.000000 -1.000000
vn -0.000000 0.000000 -1.000000
vn -0.000000 0.000000 -1.000000
vn -0.000000 0.000000 -1.000000
vn 1.000000 0.000000 0.000000
vn 1.000000 0.000000 0.000000
vn 1.000000 0.000000 0.000000
vn 1.000000 0.000000 0.000000
s off
g Vertical_RoofPiller4 Roof
usemtl lambert1SG
f 5/9/1 6/10/2 7/11/3 8/12/4
f 1/13/5 4/14/6 3/15/7 2/16/8
f 1/17/9 2/18/10 6/19/11 5/20/12
f 2/1/13 3/2/14 7/3/15 6/4/16
f 3/21/17 4/22/18 8/23/19 7/24/20
f 4/5/21 1/6/22 5/7/23 8/8/24
g default
v 10.021381 16.199985 5.662052
v -8.090525 16.199985 5.662052
v -8.090525 16.199985 3.881069
v 10.021381 16.199985 3.881068
v 10.021381 15.699985 5.662052
v -8.090525 15.699985 5.662052
v -8.090525 15.699985 3.881069
v 10.021381 15.699985 3.881068
vt 0.099545 0.007316
vt 0.099545 0.104600
vt 0.011425 0.104600
vt 0.011425 0.007316
vt 0.099547 0.007317
vt 0.099547 0.104599
vt 0.011424 0.104599
vt 0.011424 0.007317
vt 0.731010 0.004774
vt 0.731010 0.994115
vt 0.633728 0.994115
vt 0.633728 0.004774
vt 0.115331 0.003703
vt 0.212613 0.003703
vt 0.212613 0.993046
vt 0.115331 0.993046
vt 0.208032 0.003704
vt 0.208032 0.993045
vt 0.119912 0.993045
vt 0.119912 0.003704
vt 0.119911 0.993042
vt 0.119911 0.003707
vt 0.208033 0.003707
vt 0.208033 0.993042
vn 0.000000 -1.000000 0.000000
vn 0.000000 -1.000000 0.000000
vn 0.000000 -1.000000 0.000000
vn 0.000000 -1.000000 0.000000
vn 0.000000 1.000000 0.000000
vn 0.000000 1.000000 0.000000
vn 0.000000 1.000000 0.000000
vn 0.000000 1.000000 0.000000
vn 0.000000 0.000000 1.000000
vn 0.000000 0.000000 1.000000
vn 0.000000 0.000000 1.000000
vn 0.000000 0.000000 1.000000
vn -1.000000 0.000000 0.000000
vn -1.000000 0.000000 0.000000
vn -1.000000 0.000000 0.000000
vn -1.000000 0.000000 0.000000
vn -0.000000 0.000000 -1.000000
vn -0.000000 0.000000 -1.000000
vn -0.000000 0.000000 -1.000000
vn -0.000000 0.000000 -1.000000
vn 1.000000 0.000000 0.000000
vn 1.000000 0.000000 0.000000
vn 1.000000 0.000000 0.000000
vn 1.000000 0.000000 0.000000
s off
g Roof Vertical_RoofPiller2
usemtl lambert1SG
f 13/33/25 14/34/26 15/35/27 16/36/28
f 9/37/29 12/38/30 11/39/31 10/40/32
f 9/41/33 10/42/34 14/43/35 13/44/36
f 10/25/37 11/26/38 15/27/39 14/28/40
f 11/45/41 12/46/42 16/47/43 15/48/44
f 12/29/45 9/30/46 13/31/47 16/32/48
g default
v 10.021381 16.199985 -4.014148
v -8.090525 16.199985 -4.014148
v -8.090525 16.199985 -5.795131
v 10.021381 16.199985 -5.795132
v 10.021381 15.699985 -4.014148
v -8.090525 15.699985 -4.014148
v -8.090525 15.699985 -5.795131
v 10.021381 15.699985 -5.795132
vt 0.099545 0.007316
vt 0.099545 0.104600
vt 0.011425 0.104600
vt 0.011425 0.007316
vt 0.099547 0.007317
vt 0.099547 0.104599
vt 0.011424 0.104599
vt 0.011424 0.007317
vt 0.448238 0.004774
vt 0.448238 0.994115
vt 0.350955 0.994115
vt 0.350955 0.004774
vt 0.115331 0.003703
vt 0.212614 0.003703
vt 0.212614 0.993046
vt 0.115331 0.993046
vt 0.208032 0.003704
vt 0.208032 0.993045
vt 0.119911 0.993045
vt 0.119911 0.003704
vt 0.119911 0.993042
vt 0.119911 0.003707
vt 0.208033 0.003707
vt 0.208033 0.993042
vn 0.000000 -1.000000 0.000000
vn 0.000000 -1.000000 0.000000
vn 0.000000 -1.000000 0.000000
vn 0.000000 -1.000000 0.000000
vn 0.000000 1.000000 0.000000
vn 0.000000 1.000000 0.000000
vn 0.000000 1.000000 0.000000
vn 0.000000 1.000000 0.000000
vn 0.000000 0.000000 1.000000
vn 0.000000 0.000000 1.000000
vn 0.000000 0.000000 1.000000
vn 0.000000 0.000000 1.000000
vn -1.000000 0.000000 0.000000
vn -1.000000 0.000000 0.000000
vn -1.000000 0.000000 0.000000
vn -1.000000 0.000000 0.000000
vn -0.000000 0.000000 -1.000000
vn -0.000000 0.000000 -1.000000
vn -0.000000 0.000000 -1.000000
vn -0.000000 0.000000 -1.000000
vn 1.000000 0.000000 0.000000
vn 1.000000 0.000000 0.000000
vn 1.000000 0.000000 0.000000
vn 1.000000 0.000000 0.000000
s off
g Roof Vertical_RoofPiller3
usemtl lambert1SG
f 21/57/49 22/58/50 23/59/51 24/60/52
f 17/61/53 20/62/54 19/63/55 18/64/56
f 17/65/57 18/66/58 22/67/59 21/68/60
f 18/49/61 19/50/62 23/51/63 22/52/64
f 19/69/65 20/70/66 24/71/67 23/72/68
f 20/53/69 17/54/70 21/55/71 24/56/72
g default
v 10.021381 16.199985 -8.727478
v -8.090525 16.199985 -8.727478
v -8.090525 16.199985 -10.508461
v 10.021381 16.199985 -10.508462
v 10.021381 15.699985 -8.727478
v -8.090525 15.699985 -8.727478
v -8.090525 15.699985 -10.508461
v 10.021381 15.699985 -10.508462
vt 0.099545 0.007316
vt 0.099545 0.104600
vt 0.011425 0.104600
vt 0.011425 0.007316
vt 0.099547 0.007317
vt 0.099547 0.104599
vt 0.011424 0.104599
vt 0.011424 0.007317
vt 0.344897 0.004129
vt 0.344897 0.993469
vt 0.247615 0.993469
vt 0.247615 0.004129
vt 0.115331 0.003703
vt 0.212613 0.003703
vt 0.212613 0.993046
vt 0.115331 0.993046
vt 0.208032 0.003704
vt 0.208032 0.993045
vt 0.119911 0.993045
vt 0.119911 0.003704
vt 0.119911 0.993042
vt 0.119911 0.003707
vt 0.208033 0.003707
vt 0.208033 0.993042
vn 0.000000 -1.000000 0.000000
vn 0.000000 -1.000000 0.000000
vn 0.000000 -1.000000 0.000000
vn 0.000000 -1.000000 0.000000
vn 0.000000 1.000000 0.000000
vn 0.000000 1.000000 0.000000
vn 0.000000 1.000000 0.000000
vn 0.000000 1.000000 0.000000
vn 0.000000 0.000000 1.000000
vn 0.000000 0.000000 1.000000
vn 0.000000 0.000000 1.000000
vn 0.000000 0.000000 1.000000
vn -1.000000 0.000000 0.000000
vn -1.000000 0.000000 0.000000
vn -1.000000 0.000000 0.000000
vn -1.000000 0.000000 0.000000
vn -0.000000 0.000000 -1.000000
vn -0.000000 0.000000 -1.000000
vn -0.000000 0.000000 -1.000000
vn -0.000000 0.000000 -1.000000
vn 1.000000 0.000000 0.000000
vn 1.000000 0.000000 0.000000
vn 1.000000 0.000000 0.000000
vn 1.000000 0.000000 0.000000
s off
g Roof Vertical_RoofPiller1
usemtl lambert1SG
f 29/81/73 30/82/74 31/83/75 32/84/76
f 25/85/77 28/86/78 27/87/79 26/88/80
f 25/89/81 26/90/82 30/91/83 29/92/84
f 26/73/85 27/74/86 31/75/87 30/76/88
f 27/93/89 28/94/90 32/95/91 31/96/92
f 28/77/93 25/78/94 29/79/95 32/80/96
g default
v 10.021381 16.199985 10.541353
v -8.090525 16.199985 10.541353
v -8.090525 16.199985 8.760370
v 10.021381 16.199985 8.760369
v 10.021381 15.699985 10.541353
v -8.090525 15.699985 10.541353
v -8.090525 15.699985 8.760370
v 10.021381 15.699985 8.760369
vt 0.099545 0.007316
vt 0.099545 0.104600
vt 0.011425 0.104600
vt 0.011425 0.007316
vt 0.099547 0.007317
vt 0.099547 0.104599
vt 0.011424 0.104599
vt 0.011424 0.007317
vt 0.941286 0.004536
vt 0.941286 0.993877
vt 0.844003 0.993877
vt 0.844003 0.004536
vt 0.115331 0.003703
vt 0.212613 0.003703
vt 0.212613 0.993046
vt 0.115331 0.993046
vt 0.208032 0.003704
vt 0.208032 0.993045
vt 0.119911 0.993045
vt 0.119911 0.003704
vt 0.119911 0.993042
vt 0.119911 0.003707
vt 0.208033 0.003707
vt 0.208033 0.993042
vn 0.000000 -1.000000 0.000000
vn 0.000000 -1.000000 0.000000
vn 0.000000 -1.000000 0.000000
vn 0.000000 -1.000000 0.000000
vn 0.000000 1.000000 0.000000
vn 0.000000 1.000000 0.000000
vn 0.000000 1.000000 0.000000
vn 0.000000 1.000000 0.000000
vn 0.000000 0.000000 1.000000
vn 0.000000 0.000000 1.000000
vn 0.000000 0.000000 1.000000
vn 0.000000 0.000000 1.000000
vn -1.000000 0.000000 0.000000
vn -1.000000 0.000000 0.000000
vn -1.000000 0.000000 0.000000
vn -1.000000 0.000000 0.000000
vn -0.000000 0.000000 -1.000000
vn -0.000000 0.000000 -1.000000
vn -0.000000 0.000000 -1.000000
vn -0.000000 0.000000 -1.000000
vn 1.000000 0.000000 0.000000
vn 1.000000 0.000000 0.000000
vn 1.000000 0.000000 0.000000
vn 1.000000 0.000000 0.000000
s off
g Roof Vertical_RoofPiller
usemtl lambert1SG
f 37/105/97 38/106/98 39/107/99 40/108/100
f 33/109/101 36/110/102 35/111/103 34/112/104
f 33/113/105 34/114/106 38/115/107 37/116/108
f 34/97/109 35/98/110 39/99/111 38/100/112
f 35/117/113 36/118/114 40/119/115 39/120/116
f 36/101/117 33/102/118 37/103/119 40/104/120
g default
v 12.017406 15.690398 11.520019
v 12.017406 15.690398 -11.632776
v 10.018067 15.690398 -11.632776
v 10.018067 15.690398 11.520019
v 12.017406 16.190398 -11.632776
v 12.017406 16.190398 11.520019
v 10.018067 16.190398 -11.632776
v 10.018067 16.190398 11.520019
vt 0.129504 0.993046
vt 0.129504 0.003703
vt 0.198440 0.003703
vt 0.198440 0.993046
vt 0.129505 0.993044
vt 0.129505 0.003704
vt 0.198439 0.003704
vt 0.198439 0.993044
vt 0.206689 0.003703
vt 0.206689 0.993046
vt 0.121255 0.993046
vt 0.121255 0.003703
vt 0.538276 0.994341
vt 0.452841 0.994341
vt 0.452841 0.005002
vt 0.538276 0.005002
vt 0.089951 0.013240
vt 0.089951 0.098676
vt 0.021020 0.098676
vt 0.021020 0.013240
vt 0.021017 0.098675
vt 0.021017 0.013241
vt 0.089953 0.013241
vt 0.089953 0.098675
vn 0.000000 1.000000 0.000000
vn 0.000000 1.000000 0.000000
vn 0.000000 1.000000 0.000000
vn 0.000000 1.000000 0.000000
vn 0.000000 -1.000000 0.000000
vn 0.000000 -1.000000 0.000000
vn 0.000000 -1.000000 0.000000
vn 0.000000 -1.000000 0.000000
vn 1.000000 0.000000 0.000000
vn 1.000000 0.000000 0.000000
vn 1.000000 0.000000 0.000000
vn 1.000000 0.000000 0.000000
vn 0.000000 0.000000 -1.000000
vn 0.000000 0.000000 -1.000000
vn 0.000000 0.000000 -1.000000
vn 0.000000 0.000000 -1.000000
vn -1.000000 0.000000 0.000000
vn -1.000000 0.000000 0.000000
vn -1.000000 0.000000 0.000000
vn -1.000000 0.000000 0.000000
vn 0.000000 0.000000 1.000000
vn 0.000000 0.000000 1.000000
vn 0.000000 0.000000 1.000000
vn 0.000000 0.000000 1.000000
s off
g Roof HozRoofPiller
usemtl lambert1SG
f 46/129/121 45/130/122 47/131/123 48/132/124
f 41/133/125 44/134/126 43/135/127 42/136/128
f 41/121/129 42/122/130 45/123/131 46/124/132
f 42/137/133 43/138/134 47/139/135 45/140/136
f 43/125/137 44/126/138 48/127/139 47/128/140
f 44/141/141 41/142/142 46/143/143 48/144/144
g default
v -8.078484 15.690398 11.520019
v -8.078484 15.690398 -11.632776
v -10.077822 15.690398 -11.632776
v -10.077822 15.690398 11.520019
v -8.078484 16.190398 -11.632776
v -8.078484 16.190398 11.520019
v -10.077822 16.190398 -11.632776
v -10.077822 16.190398 11.520019
vt 0.129504 0.993046
vt 0.129504 0.003703
vt 0.198440 0.003703
vt 0.198440 0.993046
vt 0.129505 0.993044
vt 0.129505 0.003704
vt 0.198439 0.003704
vt 0.198439 0.993044
vt 0.206689 0.003703
vt 0.206689 0.993046
vt 0.121255 0.993046
vt 0.121255 0.003703
vt 0.628126 0.993742
vt 0.542692 0.993742
vt 0.542692 0.004402
vt 0.628126 0.004402
vt 0.089951 0.013240
vt 0.089951 0.098676
vt 0.021020 0.098676
vt 0.021020 0.013240
vt 0.021017 0.098675
vt 0.021017 0.013241
vt 0.089953 0.013241
vt 0.089953 0.098675
vn 0.000000 1.000000 0.000000
vn 0.000000 1.000000 0.000000
vn 0.000000 1.000000 0.000000
vn 0.000000 1.000000 0.000000
vn 0.000000 -1.000000 0.000000
vn 0.000000 -1.000000 0.000000
vn 0.000000 -1.000000 0.000000
vn 0.000000 -1.000000 0.000000
vn 1.000000 0.000000 0.000000
vn 1.000000 0.000000 0.000000
vn 1.000000 0.000000 0.000000
vn 1.000000 0.000000 0.000000
vn 0.000000 0.000000 -1.000000
vn 0.000000 0.000000 -1.000000
vn 0.000000 0.000000 -1.000000
vn 0.000000 0.000000 -1.000000
vn -1.000000 0.000000 0.000000
vn -1.000000 0.000000 0.000000
vn -1.000000 0.000000 0.000000
vn -1.000000 0.000000 0.000000
vn 0.000000 0.000000 1.000000
vn 0.000000 0.000000 1.000000
vn 0.000000 0.000000 1.000000
vn 0.000000 0.000000 1.000000
s off
g Roof HozRoofPiller1
usemtl lambert1SG
f 54/153/145 53/154/146 55/155/147 56/156/148
f 49/157/149 52/158/150 51/159/151 50/160/152
f 49/145/153 50/146/154 53/147/155 54/148/156
f 50/161/157 51/162/158 55/163/159 53/164/160
f 51/149/161 52/150/162 56/151/163 55/152/164
f 52/165/165 49/166/166 54/167/167 56/168/168
