# This file uses centimeters as units for non-parametric coordinates.

mtllib RoomNew.mtl
g default
v -10.041513 0.513919 11.529161
v 12.059122 0.513919 11.529161
v -10.041513 16.398443 11.529161
v 12.059122 16.398443 11.529161
v -10.041513 16.398443 10.983124
v 12.059122 16.398443 10.983124
v -10.041513 0.513919 10.983124
v 12.059122 0.513919 10.983124
vt 0.052761 0.599855
vt 0.162521 0.599855
vt 0.162521 0.753782
vt 0.052761 0.753782
vt 0.052761 0.599855
vt 0.162521 0.599855
vt 0.162521 0.753782
vt 0.052761 0.753782
vt 0.052761 0.783900
vt 0.052761 0.569736
vt 0.162521 0.569736
vt 0.162521 0.783900
vt 0.052761 0.783900
vt 0.052761 0.569736
vt 0.162521 0.569736
vt 0.162521 0.783900
vt 0.192056 0.734193
vt 0.510447 0.735346
vt 0.509619 0.964185
vt 0.191228 0.963033
vt 0.529697 0.977765
vt 0.527608 0.728621
vt 0.706677 0.727120
vt 0.708766 0.976263
vn 0.000000 0.000000 1.000000
vn 0.000000 0.000000 1.000000
vn 0.000000 0.000000 1.000000
vn 0.000000 0.000000 1.000000
vn 0.000000 1.000000 0.000000
vn 0.000000 1.000000 0.000000
vn 0.000000 1.000000 0.000000
vn 0.000000 1.000000 0.000000
vn 0.000000 0.000000 -1.000000
vn 0.000000 0.000000 -1.000000
vn 0.000000 0.000000 -1.000000
vn 0.000000 0.000000 -1.000000
vn 0.000000 -1.000000 0.000000
vn 0.000000 -1.000000 0.000000
vn 0.000000 -1.000000 0.000000
vn 0.000000 -1.000000 0.000000
vn 1.000000 0.000000 0.000000
vn 1.000000 0.000000 0.000000
vn 1.000000 0.000000 0.000000
vn 1.000000 0.000000 0.000000
vn -1.000000 0.000000 0.000000
vn -1.000000 0.000000 0.000000
vn -1.000000 0.000000 0.000000
vn -1.000000 0.000000 0.000000
s off
g Side_Wall Walls1
usemtl lambert1SG
f 1/17/1 2/18/2 4/19/3 3/20/4
f 3/9/5 4/10/6 6/11/7 5/12/8
f 5/21/9 6/22/10 8/23/11 7/24/12
f 7/13/13 8/14/14 2/15/15 1/16/16
f 2/1/17 8/2/18 6/3/19 4/4/20
f 7/5/21 1/6/22 3/7/23 5/8/24
g default
v -10.115021 0.499717 11.520441
v -10.115021 16.410099 11.520441
v -10.115021 16.410099 -11.639688
v -10.115021 0.499717 -11.639688
v -9.615021 16.410099 -11.639688
v -9.615021 0.499717 -11.639688
v -9.615021 16.410099 11.520441
v -9.615021 0.499717 11.520441
vt 0.163416 0.221999
vt 0.163343 0.033627
vt 0.398303 0.033548
vt 0.398376 0.221919
vt 0.398785 0.415475
vt 0.163825 0.415554
vt 0.163753 0.227183
vt 0.398713 0.227104
vt 0.019278 0.994065
vt 0.019278 0.792522
vt 0.111746 0.792522
vt 0.111746 0.994065
vt 0.019278 0.994065
vt 0.019278 0.792522
vt 0.111746 0.792522
vt 0.111746 0.994065
vt 0.019278 0.979497
vt 0.019278 0.807090
vt 0.111746 0.807090
vt 0.111746 0.979497
vt 0.019278 0.979497
vt 0.019278 0.807090
vt 0.111746 0.807090
vt 0.111746 0.979497
vn 1.000000 0.000000 0.000000
vn 1.000000 0.000000 0.000000
vn 1.000000 0.000000 0.000000
vn 1.000000 0.000000 0.000000
vn -1.000000 0.000000 0.000000
vn -1.000000 0.000000 0.000000
vn -1.000000 0.000000 0.000000
vn -1.000000 0.000000 0.000000
vn 0.000000 0.000000 -1.000000
vn 0.000000 0.000000 -1.000000
vn 0.000000 0.000000 -1.000000
vn 0.000000 0.000000 -1.000000
vn 0.000000 1.000000 0.000000
vn 0.000000 1.000000 0.000000
vn 0.000000 1.000000 0.000000
vn 0.000000 1.000000 0.000000
vn 0.000000 0.000000 1.000000
vn 0.000000 0.000000 1.000000
vn 0.000000 0.000000 1.000000
vn 0.000000 0.000000 1.000000
vn 0.000000 -1.000000 0.000000
vn 0.000000 -1.000000 0.000000
vn 0.000000 -1.000000 0.000000
vn 0.000000 -1.000000 0.000000
s off
g Walls1 BackWall
usemtl lambert1SG
f 14/25/25 13/26/26 15/27/27 16/28/28
f 12/29/29 9/30/30 10/31/31 11/32/32
f 12/41/33 11/42/34 13/43/35 14/44/36
f 11/33/37 10/34/38 15/35/39 13/36/40
f 10/45/41 9/46/42 16/47/43 15/48/44
f 9/37/45 12/38/46 14/39/47 16/40/48
g default
v 11.664949 0.505986 -2.885740
v 11.664949 0.505986 3.293239
v 11.664949 0.505986 -2.525300
v 11.664949 0.505986 2.932799
v 11.664949 0.898631 3.293239
v 11.664949 0.898631 2.932799
v 11.664949 0.898631 -2.525299
v 11.664949 0.898631 -2.885740
v 12.064949 0.898631 -2.525299
v 12.064949 0.898631 -2.885740
v 12.064949 0.505985 -2.885740
v 12.064949 0.505985 -2.525300
v 12.064949 0.898631 3.293239
v 12.064949 0.898631 2.932799
v 12.064949 0.505985 2.932799
v 12.064949 0.505986 3.293239
v 11.664949 12.284893 -2.885740
v 11.664949 12.284893 3.293239
v 11.664949 12.284893 -2.525300
v 11.664949 12.284893 2.932799
v 11.664949 11.892248 3.293239
v 11.664949 11.892248 2.932799
v 11.664949 11.892248 -2.525299
v 11.664949 11.892248 -2.885740
v 12.064949 11.892248 -2.525299
v 12.064949 11.892248 -2.885740
v 12.064949 12.284894 -2.885740
v 12.064949 12.284894 -2.525300
v 12.064949 11.892248 3.293239
v 12.064949 11.892248 2.932799
v 12.064949 12.284894 2.932799
v 12.064949 12.284893 3.293239
vt 0.875688 0.792200
vt 0.875688 0.785909
vt 0.881463 0.785909
vt 0.881463 0.792200
vt 0.788247 0.792200
vt 0.788247 0.785909
vt 0.881463 0.968323
vt 0.875688 0.968323
vt 0.782472 0.792200
vt 0.782472 0.785909
vt 0.881463 0.974614
vt 0.875688 0.974614
vt 0.788247 0.968323
vt 0.782472 0.968323
vt 0.788247 0.974614
vt 0.782472 0.974614
vt 0.814956 0.581575
vt 0.809181 0.581575
vt 0.809181 0.575285
vt 0.814956 0.575285
vt 0.814956 0.757699
vt 0.809181 0.757699
vt 0.902397 0.575285
vt 0.902397 0.581575
vt 0.814956 0.763989
vt 0.809181 0.763989
vt 0.908172 0.581575
vt 0.908172 0.575285
vt 0.902397 0.757699
vt 0.902397 0.763989
vt 0.908172 0.757699
vt 0.908172 0.763989
vt 0.784306 0.568269
vt 0.797474 0.568269
vt 0.797474 0.580135
vt 0.784306 0.580135
vt 0.797474 0.759817
vt 0.784306 0.759817
vt 0.797474 0.771683
vt 0.784306 0.771683
vt 0.593826 0.512392
vt 0.606994 0.512392
vt 0.606994 0.692075
vt 0.593826 0.692075
vt 0.618191 0.698556
vt 0.618191 0.686690
vt 0.631359 0.686690
vt 0.631359 0.698556
vt 0.618191 0.507008
vt 0.631359 0.507008
vt 0.618191 0.495142
vt 0.631359 0.495142
vt 0.577712 0.692075
vt 0.577712 0.512392
vt 0.590880 0.512392
vt 0.590880 0.692075
vt 0.965446 0.916027
vt 0.977521 0.916027
vt 0.977521 0.927880
vt 0.965446 0.927880
vt 0.965446 0.584158
vt 0.977521 0.584158
vt 0.965446 0.572305
vt 0.977521 0.572305
vt 0.980893 0.584157
vt 0.980893 0.572305
vt 0.992968 0.572305
vt 0.992968 0.584157
vt 0.992968 0.916027
vt 0.980893 0.916027
vt 0.992968 0.927880
vt 0.980893 0.927880
vt 0.922346 0.606938
vt 0.934421 0.606938
vt 0.934421 0.938807
vt 0.922346 0.938807
vt 0.938549 0.938807
vt 0.938549 0.606938
vt 0.950624 0.606938
vt 0.950624 0.938807
vn 1.000000 0.000000 0.000000
vn 1.000000 0.000001 0.000000
vn 1.000000 0.000000 0.000000
vn 1.000000 0.000000 0.000000
vn 1.000000 0.000000 0.000000
vn 1.000000 0.000000 0.000000
vn 1.000000 0.000001 0.000000
vn 1.000000 0.000000 0.000000
vn -1.000000 0.000000 0.000000
vn -1.000000 0.000000 0.000000
vn -1.000000 0.000001 0.000000
vn -1.000000 0.000000 0.000000
vn -1.000000 0.000000 0.000000
vn -1.000000 0.000000 0.000000
vn -1.000000 0.000000 0.000000
vn -1.000000 0.000000 0.000000
vn 0.000000 0.000000 -1.000000
vn 0.000000 0.000000 -1.000000
vn 0.000000 0.000000 -1.000000
vn 0.000000 0.000000 -1.000000
vn -0.000001 -1.000000 0.000000
vn -0.000001 -1.000000 0.000000
vn -0.000001 -1.000000 0.000000
vn -0.000001 -1.000000 0.000000
vn -0.000001 -1.000000 0.000000
vn -0.000001 -1.000000 0.000000
vn -0.000000 -1.000000 0.000001
vn -0.000000 -1.000000 0.000001
vn 0.000001 1.000000 0.000000
vn 0.000001 1.000000 0.000000
vn 0.000001 1.000000 0.000000
vn 0.000001 1.000000 0.000000
vn 0.000000 0.000000 1.000000
vn 0.000000 0.000000 1.000000
vn 0.000000 0.000000 1.000000
vn 0.000000 0.000000 1.000000
vn 0.000000 0.000000 1.000000
vn 0.000000 0.000000 1.000000
vn 0.000000 0.000000 1.000000
vn 0.000000 0.000000 1.000000
vn 0.000000 0.000000 1.000000
vn 0.000000 0.000000 1.000000
vn 1.000000 0.000000 0.000000
vn 1.000000 0.000000 0.000000
vn -1.000000 0.000000 0.000000
vn -1.000000 -0.000000 0.000000
vn 1.000000 -0.000000 0.000000
vn 1.000000 -0.000000 0.000000
vn 1.000000 -0.000000 0.000000
vn 1.000000 -0.000000 0.000000
vn 1.000000 0.000000 0.000000
vn 1.000000 0.000000 0.000000
vn -1.000000 -0.000000 0.000000
vn -1.000000 -0.000001 0.000000
vn -1.000000 0.000000 0.000000
vn -1.000000 0.000000 0.000000
vn -1.000000 0.000000 0.000000
vn -1.000000 -0.000001 0.000000
vn 0.000000 0.000000 -1.000000
vn 0.000000 0.000000 -1.000000
vn 0.000000 0.000000 -1.000000
vn 0.000000 0.000000 -1.000000
vn -0.000002 1.000000 0.000000
vn -0.000002 1.000000 0.000000
vn -0.000002 1.000000 0.000000
vn -0.000002 1.000000 0.000000
vn -0.000002 1.000000 0.000000
vn -0.000001 1.000000 0.000000
vn -0.000001 1.000000 0.000000
vn -0.000002 1.000000 0.000000
vn 0.000000 -1.000000 0.000000
vn 0.000000 -1.000000 0.000000
vn 0.000000 -1.000000 0.000000
vn 0.000000 -1.000000 0.000000
vn 0.000000 0.000000 1.000000
vn 0.000000 0.000000 1.000000
vn -0.000000 0.000000 -1.000000
vn -0.000000 0.000000 -1.000000
vn -0.000000 0.000000 -1.000000
vn -0.000000 0.000000 -1.000000
s 1
g Walls1 DoorReal
usemtl lambert1SG
f 25/49/49 28/50/50 27/51/51 26/52/52
f 29/57/53 32/58/54 31/54/55 30/53/56
f 25/49/49 30/53/56 31/54/55 28/50/50
s 2
f 23/65/57 24/66/58 17/67/59 19/68/60
f 21/75/61 22/72/62 20/71/63 18/76/64
f 23/65/57 19/68/60 20/71/63 22/72/62
s 4
f 24/105/65 26/106/66 27/107/67 17/108/68
s 5
f 17/81/69 27/82/70 28/83/71 19/84/72
f 20/86/73 31/85/74 32/87/75 18/88/76
f 19/84/72 28/83/71 31/85/74 20/86/73
s off
f 22/89/77 30/90/78 25/91/79 23/92/80
s 6
f 21/113/81 18/114/82 32/115/83 29/116/84
s off
f 23/121/85 25/122/86 41/123/87 39/124/88
s 6
f 21/113/81 29/116/84 45/117/89 37/118/90
s 1
f 29/57/53 30/53/56 46/61/91 45/62/92
s 2
f 22/72/62 21/75/61 37/79/93 38/77/94
s 1
f 41/56/95 42/55/96 43/59/97 44/60/98
f 45/62/92 46/61/91 47/63/99 48/64/100
f 41/56/95 44/60/98 47/63/99 46/61/91
s 2
f 39/69/101 35/73/102 33/74/103 40/70/104
f 37/79/93 34/80/105 36/78/106 38/77/94
f 39/69/101 38/77/94 36/78/106 35/73/102
s 4
f 40/109/107 33/111/108 43/112/109 42/110/110
s 8
f 33/93/111 35/94/112 44/95/113 43/96/114
f 36/97/115 34/99/116 48/100/117 47/98/118
f 35/94/112 36/97/115 47/98/118 44/95/113
s off
f 38/101/119 39/102/120 41/103/121 46/104/122
s 6
f 37/118/90 45/117/89 48/119/123 34/120/124
s 2
f 23/65/57 39/69/101 40/70/104 24/66/58
s 1
f 26/52/52 42/55/96 41/56/95 25/49/49
s 4
f 24/105/65 40/109/107 42/110/110 26/106/66
s off
f 22/125/125 38/126/126 46/127/127 30/128/128
g default
v -10.084656 0.365903 11.520019
v 12.017406 0.365903 11.520019
v -10.084656 0.910146 11.520019
v 12.017406 0.910146 11.520019
v -10.084656 0.910146 -11.632775
v 12.017406 0.910146 -11.632775
v -10.084656 0.365903 -11.632775
v 12.017406 0.365903 -11.632775
vt 0.128077 0.555090
vt 0.128077 0.357093
vt 0.143093 0.357093
vt 0.143093 0.555090
vt 0.128077 0.555090
vt 0.128077 0.357094
vt 0.143094 0.357094
vt 0.143094 0.555090
vt 0.418328 0.219150
vt 0.417455 0.039484
vt 0.605663 0.038570
vt 0.606536 0.218236
vt 0.419748 0.404042
vt 0.418875 0.224376
vt 0.607083 0.223462
vt 0.607955 0.403128
vt 0.128077 0.550597
vt 0.128077 0.361587
vt 0.143093 0.361587
vt 0.143093 0.550597
vt 0.128077 0.550597
vt 0.128077 0.361586
vt 0.143093 0.361586
vt 0.143093 0.550597
vn 0.000000 0.000000 1.000000
vn 0.000000 0.000000 1.000000
vn 0.000000 0.000000 1.000000
vn 0.000000 0.000000 1.000000
vn 0.000000 1.000000 0.000000
vn 0.000000 1.000000 0.000000
vn 0.000000 1.000000 0.000000
vn 0.000000 1.000000 0.000000
vn 0.000000 0.000000 -1.000000
vn 0.000000 0.000000 -1.000000
vn 0.000000 0.000000 -1.000000
vn 0.000000 0.000000 -1.000000
vn 0.000000 -1.000000 0.000000
vn 0.000000 -1.000000 0.000000
vn 0.000000 -1.000000 0.000000
vn 0.000000 -1.000000 0.000000
vn 1.000000 0.000000 0.000000
vn 1.000000 0.000000 0.000000
vn 1.000000 0.000000 0.000000
vn 1.000000 0.000000 0.000000
vn -1.000000 0.000000 0.000000
vn -1.000000 0.000000 0.000000
vn -1.000000 0.000000 0.000000
vn -1.000000 0.000000 0.000000
s off
g Walls1 Floor
usemtl lambert1SG
f 49/145/129 50/146/130 52/147/131 51/148/132
f 51/137/133 52/138/134 54/139/135 53/140/136
f 53/149/137 54/150/138 56/151/139 55/152/140
f 55/141/141 56/142/142 50/143/143 49/144/144
f 50/129/145 56/130/146 54/131/147 52/132/148
f 55/133/149 49/134/150 51/135/151 53/136/152
g default
v -10.084656 15.958052 11.520019
v 12.017406 15.958052 11.520019
v -10.084656 16.502295 11.520019
v 12.017406 16.502295 11.520019
v -10.084656 16.502295 -11.632777
v 12.017406 16.502295 -11.632777
v -10.084656 15.958052 -11.632777
v 12.017406 15.958052 -11.632777
vt 0.638180 0.291493
vt 0.638180 0.134411
vt 0.641873 0.134411
vt 0.641873 0.291493
vt 0.632708 0.291493
vt 0.632708 0.134411
vt 0.636400 0.134411
vt 0.636400 0.291493
vt 0.656296 0.129809
vt 0.816616 0.129809
vt 0.816616 0.297750
vt 0.656296 0.297750
vt 0.821575 0.006466
vt 0.994043 0.006466
vt 0.994043 0.187133
vt 0.821575 0.187133
vt 0.627235 0.284364
vt 0.627235 0.134411
vt 0.630928 0.134411
vt 0.630928 0.284364
vt 0.621763 0.284364
vt 0.621763 0.134411
vt 0.625455 0.134411
vt 0.625455 0.284364
vn 0.000000 0.000000 1.000000
vn 0.000000 0.000000 1.000000
vn 0.000000 0.000000 1.000000
vn 0.000000 0.000000 1.000000
vn 0.000000 1.000000 0.000000
vn 0.000000 1.000000 0.000000
vn 0.000000 1.000000 0.000000
vn 0.000000 1.000000 0.000000
vn 0.000000 0.000000 -1.000000
vn 0.000000 0.000000 -1.000000
vn 0.000000 0.000000 -1.000000
vn 0.000000 0.000000 -1.000000
vn 0.000000 -1.000000 0.000000
vn 0.000000 -1.000000 0.000000
vn 0.000000 -1.000000 0.000000
vn 0.000000 -1.000000 0.000000
vn 1.000000 0.000000 0.000000
vn 1.000000 0.000000 0.000000
vn 1.000000 0.000000 0.000000
vn 1.000000 0.000000 0.000000
vn -1.000000 0.000000 0.000000
vn -1.000000 0.000000 0.000000
vn -1.000000 0.000000 0.000000
vn -1.000000 0.000000 0.000000
s off
g Walls1 Roof1
usemtl lambert1SG
f 57/169/153 58/170/154 60/171/155 59/172/156
f 59/161/157 60/162/158 62/163/159 61/164/160
f 61/173/161 62/174/162 64/175/163 63/176/164
f 63/165/165 64/166/166 58/167/167 57/168/168
f 58/153/169 64/154/170 62/155/171 60/156/172
f 63/157/173 57/158/174 59/159/175 61/160/176
g default
v 12.056045 0.505985 11.525539
v 12.056045 0.505985 -11.642637
v 12.056045 16.408129 11.525539
v 12.056045 16.408129 -11.642637
v 11.663059 16.408127 11.525538
v 11.663059 16.408127 -11.642638
v 11.663059 0.505986 11.525538
v 11.663059 0.505986 -11.642638
v 12.056045 0.505985 -2.885740
v 12.056045 16.408129 -2.885740
v 11.663059 16.408127 -2.885740
v 11.663059 0.505986 -2.885740
v 12.056045 0.505985 3.293239
v 12.056044 16.408129 3.334316
v 11.663059 16.408127 3.334316
v 11.663059 0.505986 3.293239
v 11.663059 12.285350 3.293239
v 11.663059 12.285350 -2.885740
v 12.056045 12.285350 -2.885740
v 12.056045 12.285350 3.293239
vt 0.364968 0.702574
vt 0.173930 0.702574
vt 0.173930 0.603677
vt 0.315439 0.603677
vt 0.364968 0.604171
vt 0.315439 0.529447
vt 0.364968 0.529447
vt 0.173930 0.529447
vt 0.173930 0.424248
vt 0.364968 0.424248
vt 0.517534 0.523145
vt 0.376025 0.523145
vt 0.376025 0.424248
vt 0.567062 0.424248
vt 0.567062 0.522652
vt 0.517534 0.597375
vt 0.567062 0.597375
vt 0.376025 0.702574
vt 0.376025 0.597375
vt 0.567062 0.702574
vt 0.719904 0.612774
vt 0.719904 0.718457
vt 0.714833 0.718457
vt 0.714833 0.612774
vt 0.719904 0.798708
vt 0.714833 0.798708
vt 0.719904 0.911689
vt 0.714833 0.911689
vt 0.755750 0.884578
vt 0.755750 0.782016
vt 0.760647 0.782016
vt 0.760647 0.884578
vt 0.768302 0.742566
vt 0.763406 0.742566
vt 0.763406 0.633468
vt 0.768302 0.633468
vt 0.748095 0.858997
vt 0.748095 0.782016
vt 0.752991 0.782016
vt 0.752991 0.858997
vt 0.736425 0.831585
vt 0.731529 0.831585
vt 0.731529 0.633468
vt 0.736425 0.633468
vt 0.739418 0.633468
vt 0.744314 0.633468
vt 0.744314 0.831585
vt 0.739418 0.831585
vt 0.752203 0.633468
vt 0.752203 0.780221
vt 0.747307 0.780221
vt 0.747307 0.633468
vt 0.760092 0.633468
vt 0.760092 0.780221
vt 0.755196 0.780221
vt 0.755196 0.633468
vn 1.000000 0.000000 -0.000000
vn 1.000000 0.000000 -0.000000
vn 1.000000 0.000000 -0.000000
vn 1.000000 0.000000 -0.000000
vn 1.000000 0.000000 -0.000000
vn -0.000005 1.000000 0.000000
vn -0.000005 1.000000 0.000000
vn -0.000005 1.000000 0.000000
vn -0.000005 1.000000 0.000000
vn -1.000000 0.000000 0.000000
vn -1.000000 0.000000 0.000000
vn -1.000000 0.000000 0.000000
vn -1.000000 0.000000 0.000000
vn -1.000000 0.000000 0.000000
vn -0.000003 -1.000000 0.000000
vn -0.000003 -1.000000 0.000000
vn -0.000003 -1.000000 0.000000
vn -0.000003 -1.000000 0.000000
vn 0.000002 0.000000 -1.000000
vn 0.000002 0.000000 -1.000000
vn 0.000002 0.000000 -1.000000
vn 0.000002 0.000000 -1.000000
vn -0.000002 0.000000 1.000000
vn -0.000002 0.000000 1.000000
vn -0.000002 0.000000 1.000000
vn -0.000002 0.000000 1.000000
vn 1.000000 0.000000 0.000000
vn 1.000000 0.000000 0.000000
vn 1.000000 0.000000 0.000000
vn 1.000000 0.000000 0.000000
vn 1.000000 0.000000 0.000000
vn -0.000005 1.000000 0.000000
vn -0.000005 1.000000 0.000000
vn -0.000005 1.000000 0.000000
vn -0.000005 1.000000 0.000000
vn -1.000000 0.000000 0.000000
vn -1.000000 0.000000 0.000000
vn -1.000000 0.000000 0.000000
vn -1.000000 0.000000 0.000000
vn -1.000000 0.000000 0.000000
vn -0.000003 -1.000000 -0.000000
vn -0.000003 -1.000000 -0.000000
vn -0.000003 -1.000000 -0.000000
vn -0.000003 -1.000000 -0.000000
vn 0.000001 0.000000 -1.000000
vn 0.000001 0.000000 -1.000000
vn 0.000001 0.000000 -1.000000
vn 0.000001 0.000000 -1.000000
vn 0.000001 0.000000 1.000000
vn 0.000001 0.000000 1.000000
vn 0.000001 0.000000 1.000000
vn 0.000001 0.000000 1.000000
vn 0.000000 -1.000000 0.000000
vn 0.000000 -1.000000 0.000000
vn 0.000000 -1.000000 0.000000
vn 0.000000 -1.000000 0.000000
s 1
g Walls1 Wall_with_door
usemtl lambert1SG
f 67/177/177 65/178/178 77/179/179 84/180/180 78/181/181
s 2
f 67/197/182 78/198/183 79/199/184 69/200/185
s 3
f 81/187/186 80/188/187 71/189/188 69/190/189 79/191/190
s off
f 71/205/191 80/206/192 77/207/193 65/208/194
f 66/217/195 72/218/196 70/219/197 68/220/198
f 71/221/199 65/222/200 67/223/201 69/224/202
s 1
f 83/182/203 73/184/204 66/185/205 68/186/206 74/183/207
s 2
f 75/202/208 74/201/209 68/203/210 70/204/211
s 3
f 72/194/212 76/195/213 82/192/214 75/193/215 70/196/216
s off
f 73/209/217 76/210/218 72/211/219 66/212/220
s 2
f 79/199/184 78/198/183 74/201/209 75/202/208
s 3
f 82/192/214 81/187/186 79/191/190 75/193/215
s 1
f 78/181/181 84/180/180 83/182/203 74/183/207
s off
f 84/225/221 77/226/222 80/227/223 81/228/224
f 73/229/225 83/230/226 82/231/227 76/232/228
f 81/213/229 82/214/230 83/215/231 84/216/232
g default
v -10.013444 0.509780 -11.648758
v 12.027893 0.509780 -11.648758
v -10.013444 16.395760 -11.648758
v 12.027893 16.395760 -11.648758
v 1.062636 0.509780 -11.648758
v 1.062636 16.395760 -11.648758
v -10.013444 8.077112 -11.648758
v 12.027893 8.077112 -11.648758
v -3.928553 0.509780 -11.648758
v -3.515207 8.077112 -11.648758
v -3.928553 16.395760 -11.648758
v 6.053826 0.509780 -11.648758
v 5.640480 8.077109 -11.648758
v 6.053826 16.395760 -11.648758
v -10.013444 3.085922 -11.648758
v -2.174388 4.840088 -11.648758
v 1.062636 3.499268 -11.648758
v 4.299659 4.840087 -11.648758
v 12.027893 3.085922 -11.648758
v -10.013444 13.068301 -11.648758
v -2.174387 11.314134 -11.648758
v 1.062637 12.654954 -11.648758
v 4.299660 11.314134 -11.648758
v 12.027893 13.068301 -11.648758
v -3.359217 9.261943 -11.648758
v -2.901888 10.366033 -11.648758
v 5.484490 9.261943 -11.648758
v 5.027161 10.366033 -11.648758
v -2.901888 5.788189 -11.648758
v -3.359217 6.892280 -11.648758
v 5.027161 5.788189 -11.648758
v 5.484490 6.892279 -11.648758
v -1.226285 4.112586 -11.648758
v -0.122195 3.655258 -11.648758
v 2.247468 3.655258 -11.648758
v 3.351558 4.112586 -11.648758
v -1.226285 12.041636 -11.648758
v -0.122195 12.498963 -11.648758
v 2.247468 12.498963 -11.648758
v 3.351558 12.041636 -11.648758
v -10.013444 13.068301 -11.072624
v -2.174387 11.314134 -11.072624
v -3.928553 16.395760 -11.072624
v -10.013444 16.395760 -11.072624
v 1.062637 12.654954 -11.072624
v 1.062636 16.395760 -11.072624
v 2.247468 12.498963 -11.072624
v -10.013444 8.077112 -11.072624
v -3.359217 6.892280 -11.072624
v -3.515207 8.077112 -11.072624
v -1.226285 12.041636 -11.072624
v 5.640480 8.077109 -11.072624
v 12.027893 8.077112 -11.072624
v 5.484490 6.892279 -11.072624
v 4.299660 11.314134 -11.072624
v 6.053826 16.395760 -11.072624
v 12.027893 13.068301 -11.072624
v 12.027893 16.395760 -11.072624
v -10.013444 0.509780 -11.072624
v -3.928553 0.509780 -11.072624
v -2.174388 4.840088 -11.072624
v -10.013444 3.085922 -11.072624
v -1.226285 4.112586 -11.072624
v 6.053826 0.509780 -11.072624
v 4.299659 4.840087 -11.072624
v 3.351558 4.112586 -11.072624
v 12.027893 3.085922 -11.072624
v 12.027893 0.509780 -11.072624
v -3.359217 9.261943 -11.072624
v 5.027161 10.366033 -11.072624
v 3.351558 12.041636 -11.072624
v -0.122195 12.498963 -11.072624
v -2.901888 10.366033 -11.072624
v -2.901888 5.788189 -11.072624
v -0.122195 3.655258 -11.072624
v 1.062636 3.499268 -11.072624
v 1.062636 0.509780 -11.072624
v 2.247468 3.655258 -11.072624
v 5.027161 5.788189 -11.072624
v 5.484490 9.261943 -11.072624
vt 0.101385 0.518456
vt 0.101385 0.492111
vt 0.120005 0.492111
vt 0.120005 0.518456
vt 0.101385 0.452594
vt 0.120005 0.452594
vt 0.101385 0.413077
vt 0.120005 0.413077
vt 0.101385 0.392680
vt 0.120005 0.392680
vt 0.059372 0.181408
vt 0.073702 0.181339
vt 0.074512 0.350259
vt 0.060183 0.350328
vt 0.088032 0.181271
vt 0.088842 0.350190
vt 0.046018 0.181472
vt 0.046829 0.350392
vt 0.101386 0.181207
vt 0.102196 0.350126
vt 0.034551 0.181527
vt 0.035362 0.350447
vt 0.112853 0.181152
vt 0.113664 0.350071
vt 0.025752 0.181570
vt 0.026563 0.350489
vt 0.121652 0.181109
vt 0.122462 0.350029
vt 0.074491 0.173974
vt 0.060161 0.174042
vt 0.059350 0.005123
vt 0.073681 0.005054
vt 0.046807 0.174106
vt 0.045997 0.005187
vt 0.088821 0.173905
vt 0.088011 0.004985
vt 0.035340 0.174161
vt 0.034530 0.005242
vt 0.102175 0.173841
vt 0.101364 0.004921
vt 0.026541 0.174204
vt 0.025731 0.005284
vt 0.113642 0.173786
vt 0.112831 0.004866
vt 0.122440 0.173743
vt 0.121630 0.004824
vt 0.120005 0.492111
vt 0.120005 0.518456
vt 0.101385 0.518456
vt 0.101385 0.492111
vt 0.120005 0.452594
vt 0.101385 0.452594
vt 0.120005 0.413077
vt 0.101385 0.413077
vt 0.120005 0.392680
vt 0.101385 0.392680
vt 0.071260 0.492415
vt 0.071260 0.540592
vt 0.052641 0.540592
vt 0.052641 0.492415
vt 0.071260 0.452898
vt 0.052641 0.452898
vt 0.071260 0.413380
vt 0.052641 0.413380
vt 0.071260 0.366081
vt 0.052641 0.366081
vt 0.073680 0.005054
vt 0.088011 0.004985
vt 0.088821 0.173905
vt 0.074491 0.173974
vt 0.101364 0.004921
vt 0.102175 0.173841
vt 0.059350 0.005123
vt 0.060161 0.174042
vt 0.045997 0.005187
vt 0.046807 0.174107
vt 0.101385 0.542823
vt 0.101385 0.494646
vt 0.120005 0.494646
vt 0.120005 0.542823
vt 0.101385 0.455129
vt 0.120005 0.455129
vt 0.101385 0.415612
vt 0.120005 0.415612
vt 0.101385 0.368313
vt 0.120005 0.368313
vt 0.074491 0.173973
vt 0.060161 0.174042
vt 0.059350 0.005123
vt 0.073680 0.005054
vt 0.046807 0.174107
vt 0.045997 0.005187
vt 0.088821 0.173905
vt 0.088011 0.004985
vt 0.102175 0.173841
vt 0.101364 0.004921
vt 0.991157 0.358238
vt 0.865330 0.386892
vt 0.893203 0.305151
vt 0.990956 0.304783
vt 0.877075 0.402079
vt 0.850055 0.375262
vt 0.991459 0.438420
vt 0.884489 0.419788
vt 0.832291 0.367982
vt 0.813021 0.305453
vt 0.887066 0.438814
vt 0.813247 0.365548
vt 0.884632 0.457857
vt 0.794223 0.368125
vt 0.991761 0.518603
vt 0.877352 0.475622
vt 0.776513 0.375540
vt 0.732838 0.305755
vt 0.865722 0.490896
vt 0.761326 0.387284
vt 0.991916 0.559988
vt 0.894164 0.560356
vt 0.637068 0.359571
vt 0.636867 0.306116
vt 0.850535 0.502641
vt 0.749696 0.402559
vt 0.813982 0.560658
vt 0.832826 0.510054
vt 0.742416 0.420324
vt 0.637370 0.439753
vt 0.813801 0.512632
vt 0.739982 0.439367
vt 0.794758 0.510198
vt 0.742559 0.458392
vt 0.733799 0.560959
vt 0.776993 0.502918
vt 0.749973 0.476101
vt 0.637672 0.519936
vt 0.761717 0.491288
vt 0.637827 0.561321
vt 0.637068 0.359571
vt 0.636866 0.306117
vt 0.734618 0.305749
vt 0.763107 0.387278
vt 0.778293 0.375533
vt 0.751476 0.402553
vt 0.814801 0.305447
vt 0.796002 0.368119
vt 0.637370 0.439754
vt 0.744196 0.420317
vt 0.815027 0.365542
vt 0.741762 0.439361
vt 0.834071 0.367976
vt 0.744339 0.458386
vt 0.894983 0.305145
vt 0.851835 0.375256
vt 0.637671 0.519937
vt 0.751753 0.476094
vt 0.867110 0.386886
vt 0.763498 0.491282
vt 0.990956 0.304783
vt 0.991157 0.358238
vt 0.637827 0.561321
vt 0.735579 0.560953
vt 0.878855 0.402073
vt 0.778773 0.502911
vt 0.991459 0.438421
vt 0.886269 0.419782
vt 0.815761 0.560651
vt 0.796537 0.510191
vt 0.888846 0.438807
vt 0.815580 0.512626
vt 0.886412 0.457851
vt 0.834606 0.510048
vt 0.991761 0.518604
vt 0.879131 0.475615
vt 0.895944 0.560349
vt 0.852315 0.502634
vt 0.867501 0.490891
vt 0.991917 0.559988
vn 0.000000 0.000000 1.000000
vn 0.000000 0.000000 1.000000
vn -0.000000 0.000000 1.000000
vn 0.000000 0.000000 1.000000
vn 0.000000 0.000000 1.000000
vn 0.000000 0.000000 1.000000
vn 0.000000 0.000000 1.000000
vn 0.000000 0.000000 1.000000
vn 0.000000 0.000000 1.000000
vn 0.000000 0.000000 1.000000
vn -0.000000 0.000000 1.000000
vn -0.000000 0.000000 1.000000
vn 0.000000 0.000000 1.000000
vn 0.000000 0.000000 1.000000
vn 0.000000 0.000000 1.000000
vn -0.000000 0.000000 1.000000
vn -0.000000 0.000000 1.000000
vn 0.000000 0.000000 1.000000
vn -0.000000 0.000000 1.000000
vn -0.000000 0.000000 1.000000
vn 0.000000 0.000000 1.000000
vn -0.000000 0.000000 1.000000
vn 0.000000 0.000000 1.000000
vn 0.000000 0.000000 1.000000
vn 0.000000 0.000000 1.000000
vn 0.000000 0.000000 1.000000
vn 0.000000 0.000000 1.000000
vn 0.000000 0.000000 1.000000
vn 0.000000 0.000000 1.000000
vn -0.000000 0.000000 1.000000
vn 0.000000 0.000000 1.000000
vn -0.000000 0.000000 1.000000
vn 0.000000 0.000000 1.000000
vn 0.000000 0.000000 1.000000
vn -0.000000 0.000000 1.000000
vn 0.000000 0.000000 1.000000
vn 0.000000 0.000000 1.000000
vn -0.000000 0.000000 1.000000
vn 0.000000 0.000000 1.000000
vn -0.000000 0.000000 1.000000
vn 0.000000 0.000000 -1.000000
vn 0.000000 0.000000 -1.000000
vn 0.000000 0.000000 -1.000000
vn -0.000000 0.000000 -1.000000
vn 0.000000 0.000000 -1.000000
vn 0.000000 0.000000 -1.000000
vn 0.000000 0.000000 -1.000000
vn -0.000000 0.000000 -1.000000
vn 0.000000 0.000000 -1.000000
vn 0.000000 0.000000 -1.000000
vn -0.000000 0.000000 -1.000000
vn -0.000000 0.000000 -1.000000
vn -0.000000 0.000000 -1.000000
vn -0.000000 0.000000 -1.000000
vn -0.000000 0.000000 -1.000000
vn -0.000000 0.000000 -1.000000
vn -0.000000 0.000000 -1.000000
vn 0.000000 0.000000 -1.000000
vn 0.000000 0.000000 -1.000000
vn -0.000000 0.000000 -1.000000
vn 0.000000 0.000000 -1.000000
vn 0.000000 0.000000 -1.000000
vn 0.000000 0.000000 -1.000000
vn 0.000000 0.000000 -1.000000
vn 0.000000 0.000000 -1.000000
vn 0.000000 0.000000 -1.000000
vn 0.000000 0.000000 -1.000000
vn 0.000000 0.000000 -1.000000
vn -0.000000 0.000000 -1.000000
vn 0.000000 0.000000 -1.000000
vn 0.000000 0.000000 -1.000000
vn 0.000000 0.000000 -1.000000
vn -0.000000 0.000000 -1.000000
vn -0.000000 0.000000 -1.000000
vn 0.000000 0.000000 -1.000000
vn 0.000000 0.000000 -1.000000
vn -0.000000 0.000000 -1.000000
vn 0.000000 0.000000 -1.000000
vn 0.000000 0.000000 -1.000000
vn 0.000000 0.000000 -1.000000
vn 0.000000 1.000000 0.000000
vn 0.000000 1.000000 0.000000
vn 0.000000 1.000000 0.000000
vn 0.000000 1.000000 0.000000
vn -1.000000 0.000000 0.000000
vn -1.000000 0.000000 0.000000
vn -1.000000 0.000000 0.000000
vn -1.000000 0.000000 0.000000
vn -0.000000 -1.000000 0.000000
vn -0.258820 -0.965926 0.000000
vn -0.258820 -0.965926 0.000000
vn -0.000000 -1.000000 0.000000
vn 0.965925 0.258821 0.000000
vn 1.000000 0.000000 0.000000
vn 1.000000 0.000000 0.000000
vn 0.965925 0.258821 0.000000
vn 0.707107 -0.707107 0.000000
vn 0.499999 -0.866026 0.000000
vn 0.499999 -0.866026 0.000000
vn 0.707107 -0.707107 0.000000
vn -1.000000 0.000000 0.000000
vn -0.965925 0.258821 0.000000
vn -0.965925 0.258821 0.000000
vn -1.000000 0.000000 0.000000
vn 1.000000 0.000000 0.000000
vn 1.000000 0.000000 0.000000
vn 1.000000 0.000000 0.000000
vn 1.000000 0.000000 0.000000
vn 0.000000 1.000000 0.000000
vn 0.000000 1.000000 0.000000
vn 0.000000 1.000000 0.000000
vn 0.000000 1.000000 0.000000
vn 0.000000 -1.000000 0.000000
vn 0.000000 -1.000000 0.000000
vn 0.000000 -1.000000 0.000000
vn 0.000000 -1.000000 0.000000
vn -1.000000 0.000000 0.000000
vn -1.000000 0.000000 0.000000
vn -1.000000 0.000000 0.000000
vn -1.000000 0.000000 0.000000
vn 0.499999 0.866026 0.000000
vn 0.707107 0.707107 0.000000
vn 0.707107 0.707107 0.000000
vn 0.499999 0.866026 0.000000
vn -0.707107 0.707107 0.000000
vn -0.499999 0.866026 0.000000
vn -0.499999 0.866026 0.000000
vn -0.707107 0.707107 0.000000
vn 0.000000 -1.000000 0.000000
vn 0.000000 -1.000000 0.000000
vn 0.000000 -1.000000 0.000000
vn 0.000000 -1.000000 0.000000
vn 1.000000 0.000000 0.000000
vn 1.000000 0.000000 0.000000
vn 1.000000 0.000000 0.000000
vn 1.000000 0.000000 0.000000
vn 0.965925 -0.258821 0.000000
vn 0.965925 -0.258821 0.000000
vn -0.707107 -0.707106 0.000000
vn -0.866026 -0.499999 0.000000
vn -0.866026 -0.499999 0.000000
vn -0.707107 -0.707106 0.000000
vn -0.499999 -0.866026 0.000000
vn -0.499999 -0.866026 0.000000
vn 0.000000 1.000000 0.000000
vn 0.000000 1.000000 0.000000
vn 0.258820 -0.965926 0.000000
vn 0.258820 -0.965926 0.000000
vn 0.866026 -0.499999 0.000000
vn 0.866026 -0.499999 0.000000
vn -1.000000 0.000000 0.000000
vn -1.000000 0.000000 0.000000
vn 0.866026 0.499999 0.000000
vn 0.866026 0.499999 0.000000
vn -0.000000 1.000000 0.000000
vn 0.258821 0.965925 0.000000
vn 0.258821 0.965925 0.000000
vn -0.000000 1.000000 0.000000
vn 0.000000 -1.000000 0.000000
vn 0.000000 -1.000000 0.000000
vn -0.258821 0.965925 0.000000
vn -0.258821 0.965925 0.000000
vn -0.866026 0.499999 0.000000
vn -0.866026 0.499999 0.000000
vn 1.000000 0.000000 0.000000
vn 1.000000 0.000000 0.000000
vn -0.965925 -0.258820 0.000000
vn -0.965925 -0.258820 0.000000
s 1
g Walls1 WallWindow
usemtl lambert1SG
f 125/329/233 126/330/234 127/331/235 128/332/236
f 130/338/237 129/340/238 131/342/239
f 132/335/240 133/341/241 134/339/242
f 127/331/235 126/330/234 135/334/243
f 137/358/244 136/360/245 138/362/246
f 140/346/247 139/348/248 141/351/249 142/352/250
f 143/349/251 144/350/252 145/347/253 146/343/254
f 144/350/252 147/353/255 145/347/253
f 148/363/256 149/367/257 150/364/258
f 151/366/259 149/367/257 148/363/256 152/368/260
f 132/335/240 134/339/242 153/336/261
f 141/351/249 139/348/248 154/354/262
f 140/346/247 155/345/263 139/348/248
f 130/338/237 131/342/239 155/345/263 140/346/247
f 130/338/237 156/337/264 129/340/238
f 127/331/235 135/334/243 156/337/264 130/338/237
f 125/329/233 157/333/265 126/330/234
f 132/335/240 153/336/261 157/333/265 125/329/233
f 146/343/254 145/347/253 158/344/266
f 146/343/254 158/344/266 133/341/241 132/335/240
f 160/359/267 159/356/268 161/355/269
f 161/355/269 159/356/268 147/353/255 144/350/252
f 161/355/269 162/361/270 160/359/267
f 148/363/256 150/364/258 162/361/270 161/355/269
f 151/366/259 163/365/271 149/367/257
f 137/358/244 138/362/246 163/365/271 151/366/259
f 137/358/244 164/357/272 136/360/245
f 141/351/249 154/354/262 164/357/272 137/358/244
s 8
f 104/369/273 87/370/274 95/371/275 105/372/276
f 90/375/277 123/381/278 106/379/279
f 91/377/280 94/380/281 114/382/282
f 95/371/275 121/373/283 105/372/276
f 92/395/284 116/401/285 97/399/286
f 98/383/287 88/389/288 108/390/289 107/387/290
f 85/391/291 99/385/292 100/388/293 93/392/294
f 93/392/294 100/388/293 117/394/295
f 96/405/296 120/406/297 102/407/298
f 103/403/299 86/408/300 96/405/296 102/407/298
f 91/377/280 109/378/301 94/380/281
f 108/390/289 112/393/302 107/387/290
f 98/383/287 107/387/290 124/384/303
f 90/375/277 98/383/287 124/384/303 123/381/278
f 90/375/277 106/379/279 122/376/304
f 95/371/275 90/375/277 122/376/304 121/373/283
f 104/369/273 105/372/276 110/374/305
f 91/377/280 104/369/273 110/374/305 109/378/301
f 99/385/292 113/386/306 100/388/293
f 99/385/292 91/377/280 114/382/282 113/386/306
f 101/400/307 89/397/308 118/398/309
f 89/397/308 93/392/294 117/394/295 118/398/309
f 89/397/308 101/400/307 119/402/310
f 96/405/296 89/397/308 119/402/310 120/406/297
f 103/403/299 102/407/298 115/404/311
f 92/395/284 103/403/299 115/404/311 116/401/285
f 92/395/284 97/399/286 111/396/312
f 108/390/289 92/395/284 111/396/312 112/393/302
s 16
f 95/289/313 87/290/314 128/291/315 127/292/316
s 17
f 87/233/317 104/234/318 125/235/319 128/236/320
s 18
f 106/299/321 123/300/322 131/301/323 129/302/324
f 114/243/325 94/244/326 134/245/327 133/246/328
f 105/255/329 121/259/330 135/260/331 126/256/332
f 97/261/333 116/262/334 138/263/335 136/264/336
s 22
f 108/279/337 88/280/338 142/281/339 141/282/340
s 16
f 88/297/341 98/295/342 140/296/343 142/298/344
s 24
f 85/309/345 93/310/346 144/311/347 143/312/348
s 17
f 99/239/349 85/241/350 143/242/351 146/240/352
s 18
f 117/257/353 100/253/354 145/254/355 147/258/356
f 102/269/357 120/273/358 150/274/359 149/270/360
s 24
f 96/315/361 86/317/362 152/318/363 148/316/364
s 22
f 86/287/365 103/285/366 151/286/367 152/288/368
s 18
f 94/244/326 109/247/369 153/248/370 134/245/327
f 107/275/371 112/271/372 154/272/373 139/276/374
f 124/277/375 107/275/371 139/276/374 155/278/376
f 123/300/322 124/303/375 155/304/376 131/301/323
s 16
f 98/295/342 90/293/377 130/294/378 140/296/343
s 18
f 122/305/379 106/299/321 129/302/324 156/306/380
f 121/307/330 122/305/379 156/306/380 135/308/331
s 16
f 90/293/377 95/289/313 127/292/316 130/294/378
s 18
f 110/251/381 105/255/329 126/256/332 157/252/382
f 109/247/369 110/251/381 157/252/382 153/248/370
s 17
f 104/234/318 91/237/383 132/238/384 125/235/319
s 18
f 100/253/354 113/249/385 158/250/386 145/254/355
f 113/249/385 114/243/325 133/246/328 158/250/386
s 17
f 91/237/383 99/239/349 146/240/352 132/238/384
s 18
f 101/319/387 118/320/388 159/321/389 160/322/390
f 118/320/388 117/323/353 147/324/356 159/321/389
s 24
f 93/310/346 89/313/391 161/314/392 144/311/347
s 18
f 119/325/393 101/319/387 160/322/390 162/326/394
f 120/327/358 119/325/393 162/326/394 150/328/359
s 24
f 89/313/391 96/315/361 148/316/364 161/314/392
s 18
f 115/265/395 102/269/357 149/270/360 163/266/396
f 116/262/334 115/265/395 163/266/396 138/263/335
s 22
f 103/285/366 92/283/397 137/284/398 151/286/367
s 18
f 111/267/399 97/261/333 136/264/336 164/268/400
f 112/271/372 111/267/399 164/268/400 154/272/373
s 22
f 92/283/397 108/279/337 141/282/340 137/284/398
