# This file uses centimeters as units for non-parametric coordinates.

mtllib Rug.mtl
g default
v 13.810741 0.871873 2.734565
v 40.315723 0.871873 2.734565
v 13.810741 0.941979 2.734565
v 40.315723 0.941979 2.734565
v 13.810741 0.941979 -2.221631
v 40.315723 0.941979 -2.221631
v 13.810741 0.871873 -2.221631
v 40.315723 0.871873 -2.221631
v 13.610741 0.871873 2.934565
v 40.515724 0.871873 2.934565
v 40.515724 0.941978 2.934565
v 13.610741 0.941978 2.934565
v 13.610741 0.941978 -2.421631
v 40.515724 0.941978 -2.421631
v 40.515724 0.871873 -2.421631
v 13.610741 0.871873 -2.421631
vt 0.017546 0.463634
vt 0.017546 0.265349
vt 0.020142 0.265349
vt 0.020142 0.463634
vt 0.026764 0.463634
vt 0.026764 0.265349
vt 0.029360 0.265349
vt 0.029360 0.463634
vt 0.989188 0.243495
vt 0.470867 0.242852
vt 0.470987 0.145931
vt 0.989308 0.146574
vt 0.993094 0.247412
vt 0.466951 0.246759
vt 0.467081 0.142015
vt 0.993224 0.142668
vt 0.989188 0.243496
vt 0.470867 0.242852
vt 0.470986 0.145931
vt 0.989308 0.146574
vt 0.993094 0.247412
vt 0.466951 0.246759
vt 0.467080 0.142015
vt 0.993224 0.142668
vt 0.051204 0.467717
vt 0.051204 0.293157
vt 0.051659 0.293157
vt 0.051659 0.467717
vt 0.068848 0.449201
vt 0.068848 0.322559
vt 0.069178 0.322559
vt 0.069178 0.449201
vt 0.472548 0.111711
vt 0.472668 0.014789
vt 0.990869 0.112354
vt 0.990990 0.015433
vt 0.472548 0.111711
vt 0.472668 0.014789
vt 0.990869 0.112354
vt 0.990990 0.015433
vn 0.000000 0.000000 1.000000
vn 0.000000 0.000000 1.000000
vn 0.000000 0.000000 1.000000
vn 0.000000 0.000000 1.000000
vn -0.000000 1.000000 0.000000
vn 0.000000 1.000000 0.000000
vn 0.000000 1.000000 -0.000000
vn -0.000000 1.000000 -0.000000
vn 0.000000 0.000000 -1.000000
vn 0.000000 0.000000 -1.000000
vn 0.000000 0.000000 -1.000000
vn 0.000000 0.000000 -1.000000
vn 0.000000 -1.000000 -0.000000
vn 0.000000 -1.000000 -0.000000
vn 0.000000 -1.000000 0.000000
vn 0.000000 -1.000000 0.000000
vn 1.000000 0.000000 0.000000
vn 1.000000 0.000000 0.000000
vn 1.000000 0.000000 0.000000
vn 1.000000 0.000000 0.000000
vn -1.000000 0.000000 0.000000
vn -1.000000 0.000000 0.000000
vn -1.000000 0.000000 0.000000
vn -1.000000 0.000000 0.000000
vn 0.000000 -1.000000 0.000000
vn 0.000000 -1.000000 0.000000
vn -0.000001 1.000000 0.000004
vn 0.000001 1.000000 0.000004
vn 0.000001 1.000000 -0.000004
vn -0.000001 1.000000 -0.000004
vn 0.000000 -1.000000 -0.000000
vn 0.000000 -1.000000 -0.000000
s off
g pCube3 Hallway
usemtl initialShadingGroup
f 9/25/1 10/26/2 11/27/3 12/28/4
s 1
f 3/39/5 4/37/6 6/38/7 5/40/8
s off
f 13/29/9 14/30/10 15/31/11 16/32/12
s 2
f 7/35/13 8/33/14 2/34/15 1/36/16
s off
f 10/1/17 15/2/18 14/3/19 11/4/20
f 16/5/21 9/6/22 12/7/23 13/8/24
s 2
f 1/20/16 2/19/15 10/23/25 9/24/26
s 1
f 4/10/6 3/9/5 12/13/27 11/14/28
f 5/12/8 6/11/7 14/15/29 13/16/30
s 2
f 8/18/14 7/17/13 16/21/31 15/22/32
f 2/19/15 8/18/14 15/22/32 10/23/25
s 1
f 6/11/7 4/10/6 11/14/28 14/15/29
s 2
f 7/17/13 1/20/16 9/24/26 16/21/31
s 1
f 3/9/5 5/12/8 13/16/30 12/13/27
