# This file uses centimeters as units for non-parametric coordinates.

mtllib Skirting Board.mtl
g default
v 11.350383 0.893266 23.672121
v 12.350383 0.893266 23.672121
v 11.350383 1.610505 23.672121
v 12.350383 1.610505 23.672121
v 11.350383 1.610505 15.582972
v 12.350383 1.610505 15.582972
v 11.350383 0.893266 15.582972
v 12.350383 0.893266 15.582972
v 11.350383 1.380989 15.582972
v 11.350383 1.380989 23.672121
v 12.350383 1.380989 23.672121
v 12.350383 1.380989 15.582972
v 11.350383 1.283444 23.672121
v 11.350383 1.283444 15.582972
v 12.350383 1.283444 15.582972
v 12.350383 1.283444 23.672121
v 11.400384 1.360989 15.632972
v 11.400384 1.303444 15.632972
v 11.400384 1.303444 23.622120
v 11.400384 1.360989 23.622120
v 12.300383 1.303444 15.632972
v 12.300383 1.360989 15.632972
v 12.300383 1.303444 23.622120
v 12.300383 1.360989 23.622120
v 11.350383 1.370988 15.582972
v 11.360383 1.360989 15.592971
v 11.350383 1.370988 23.672121
v 11.360383 1.360989 23.662121
v 12.350383 1.370988 15.582972
v 12.340384 1.360989 15.592971
v 12.350383 1.370988 23.672121
v 12.340384 1.360989 23.662121
v 11.350383 1.293445 15.582972
v 11.360383 1.303444 15.592971
v 11.350383 1.293445 23.672121
v 11.360383 1.303444 23.662121
v 12.350383 1.293445 15.582972
v 12.340384 1.303444 15.592971
v 12.350383 1.293445 23.672121
v 12.340384 1.303444 23.662121
v 11.400384 1.527879 23.622120
v 11.400384 1.527879 15.632972
v 11.400384 1.564602 23.622120
v 11.400384 1.564602 15.632972
v 12.300383 1.564602 15.632972
v 12.300383 1.527879 15.632972
v 12.300383 1.527879 23.622120
v 12.300383 1.564602 23.622120
v 11.350383 1.587551 15.582972
v 11.373333 1.564602 15.605921
v 11.350383 1.587551 23.672121
v 11.373333 1.564602 23.649171
v 12.350383 1.587551 23.672121
v 12.327434 1.564602 23.649171
v 12.350383 1.587551 15.582972
v 12.327434 1.564602 15.605921
v 11.350383 1.504930 23.672121
v 11.373333 1.527879 23.649171
v 11.350383 1.504930 15.582972
v 11.373333 1.527879 15.605921
v 12.350383 1.504930 15.582972
v 12.327434 1.527879 15.605921
v 12.350383 1.504930 23.672121
v 12.327434 1.527879 23.649171
vt 0.774449 0.524075
vt 0.774449 0.264878
vt 0.915452 0.264878
vt 0.915452 0.524075
vt 0.919066 0.264878
vt 0.919066 0.524075
vt 0.922679 0.265199
vt 0.922679 0.523755
vt 0.761549 0.264878
vt 0.761549 0.524075
vt 0.620546 0.524075
vt 0.620546 0.264878
vt 0.765163 0.264878
vt 0.765163 0.524075
vt 0.768777 0.523754
vt 0.768777 0.265199
vt 0.792206 0.783757
vt 0.771411 0.783757
vt 0.771411 0.527765
vt 0.792206 0.527765
vt 0.798438 0.783757
vt 0.798438 0.527765
vt 0.819234 0.527765
vt 0.819234 0.783757
vt 0.561791 0.264878
vt 0.561791 0.524075
vt 0.558177 0.524075
vt 0.558177 0.264878
vt 0.606581 0.264878
vt 0.606581 0.524075
vt 0.554563 0.523754
vt 0.554563 0.265199
vt 0.614874 0.265614
vt 0.614874 0.523339
vt 0.363841 0.264878
vt 0.363841 0.524075
vt 0.360227 0.524075
vt 0.360227 0.264878
vt 0.408631 0.264878
vt 0.408631 0.524075
vt 0.356613 0.265199
vt 0.356613 0.523755
vt 0.416924 0.265614
vt 0.416924 0.523339
vt 0.825466 0.783757
vt 0.825466 0.527765
vt 0.838737 0.527765
vt 0.838737 0.783757
vt 0.845286 0.783757
vt 0.845286 0.527765
vt 0.858557 0.527765
vt 0.858557 0.783757
vt 0.342646 0.524075
vt 0.342646 0.264878
vt 0.350941 0.264878
vt 0.350941 0.524075
vt 0.334352 0.523339
vt 0.334352 0.265614
vt 0.275863 0.524075
vt 0.275863 0.264878
vt 0.284158 0.264878
vt 0.284158 0.524075
vt 0.267570 0.523339
vt 0.267570 0.265614
vt 0.156981 0.001992
vt 0.416177 0.001992
vt 0.416177 0.261188
vt 0.156981 0.261188
vt 0.576811 0.001992
vt 0.836007 0.001992
vt 0.836007 0.261188
vt 0.576811 0.261188
vt 0.007885 0.523434
vt 0.007885 0.264878
vt 0.018253 0.266160
vt 0.018253 0.522152
vt 0.261898 0.264878
vt 0.251530 0.266160
vt 0.261898 0.523434
vt 0.251530 0.522152
vt 0.001842 0.785680
vt 0.001842 0.527124
vt 0.012210 0.528406
vt 0.012210 0.784398
vt 0.255854 0.527124
vt 0.245486 0.528406
vt 0.255854 0.785680
vt 0.245486 0.784398
vt 0.263290 0.785490
vt 0.263290 0.527765
vt 0.270301 0.528632
vt 0.270301 0.784624
vt 0.510589 0.527765
vt 0.503578 0.528632
vt 0.510589 0.785490
vt 0.503578 0.784624
vt 0.517350 0.785490
vt 0.517350 0.527765
vt 0.524362 0.528632
vt 0.524362 0.784624
vt 0.764650 0.527765
vt 0.757638 0.528632
vt 0.764650 0.785490
vt 0.757638 0.784624
vt 0.142844 0.001992
vt 0.142844 0.261188
vt 0.001842 0.261188
vt 0.001842 0.001992
vt 0.146459 0.001992
vt 0.146459 0.261188
vt 0.150072 0.258597
vt 0.150072 0.004584
vt 0.570083 0.001992
vt 0.570083 0.261188
vt 0.429080 0.261188
vt 0.429080 0.001992
vt 0.425466 0.261188
vt 0.425466 0.001992
vt 0.421852 0.258596
vt 0.421852 0.004584
vt 0.885902 0.527765
vt 0.885902 0.761041
vt 0.865107 0.761041
vt 0.865107 0.527765
vt 0.912930 0.761041
vt 0.892134 0.761041
vt 0.892134 0.527765
vt 0.912930 0.527765
vt 0.548891 0.521483
vt 0.545277 0.524075
vt 0.545277 0.264878
vt 0.548891 0.267470
vt 0.541663 0.524075
vt 0.541663 0.264878
vt 0.496873 0.524075
vt 0.496873 0.264878
vt 0.488580 0.518127
vt 0.488580 0.270827
vt 0.426210 0.524075
vt 0.422596 0.521483
vt 0.422596 0.267470
vt 0.426210 0.264878
vt 0.429824 0.264878
vt 0.429824 0.524075
vt 0.474614 0.264878
vt 0.474614 0.524075
vt 0.482907 0.518126
vt 0.482907 0.270827
vt 0.909409 0.998008
vt 0.909409 0.764732
vt 0.922679 0.764732
vt 0.922679 0.998008
vt 0.890466 0.998008
vt 0.890466 0.764732
vt 0.903737 0.764732
vt 0.903737 0.998008
vt 0.328680 0.518127
vt 0.320387 0.524075
vt 0.320387 0.264878
vt 0.328680 0.270827
vt 0.312091 0.524075
vt 0.312091 0.264878
vt 0.298124 0.524075
vt 0.289831 0.518126
vt 0.289831 0.270827
vt 0.298124 0.264878
vt 0.306419 0.264878
vt 0.306419 0.524075
vn 0.000000 0.000000 1.000000
vn 0.000000 0.000000 1.000000
vn 0.000000 0.000000 1.000000
vn 0.000000 0.000000 1.000000
vn 0.000000 1.000000 0.000000
vn 0.000000 1.000000 0.000000
vn 0.000000 1.000000 0.000000
vn 0.000000 1.000000 0.000000
vn 0.000000 0.000000 -1.000000
vn 0.000000 0.000000 -1.000000
vn 0.000000 0.000000 -1.000000
vn 0.000000 0.000000 -1.000000
vn 0.000000 -1.000000 0.000000
vn 0.000000 -1.000000 0.000000
vn 0.000000 -1.000000 0.000000
vn 0.000000 -1.000000 0.000000
vn 1.000000 0.000000 0.000000
vn 1.000000 0.000000 0.000000
vn 1.000000 0.000000 0.000000
vn 1.000000 0.000000 0.000000
vn -1.000000 -0.000000 0.000000
vn -1.000000 -0.000000 0.000000
vn -1.000000 0.000000 0.000000
vn -1.000000 0.000000 0.000000
vn -1.000000 0.000000 0.000000
vn -1.000000 0.000000 0.000000
vn -1.000000 0.000000 0.000000
vn -1.000000 0.000000 0.000000
vn 0.000000 0.000000 -1.000000
vn 0.000000 0.000000 -1.000000
vn 0.000000 0.000000 -1.000000
vn 0.000000 0.000000 -1.000000
vn 1.000000 0.000000 0.000000
vn 1.000000 0.000000 0.000000
vn 1.000000 0.000000 0.000000
vn 1.000000 0.000000 0.000000
vn 0.000000 0.000000 1.000000
vn 0.000000 0.000000 1.000000
vn 0.000000 0.000000 1.000000
vn 0.000000 0.000000 1.000000
vn -0.707097 -0.707116 -0.000000
vn -0.707097 -0.707116 -0.000000
vn -0.707097 -0.707116 -0.000000
vn -0.707097 -0.707116 -0.000000
vn 0.000000 -0.707133 -0.707080
vn 0.000000 -0.707133 -0.707080
vn 0.000000 -0.707133 -0.707080
vn 0.000000 -0.707133 -0.707080
vn 0.000000 -0.707133 0.707080
vn 0.000000 -0.707133 0.707080
vn 0.000000 -0.707133 0.707080
vn 0.000000 -0.707133 0.707080
vn 0.707099 -0.707114 0.000000
vn 0.707099 -0.707114 0.000000
vn 0.707099 -0.707114 0.000000
vn 0.707099 -0.707114 0.000000
vn -1.000000 -0.000001 0.000000
vn -1.000000 -0.000001 0.000000
vn -1.000000 0.000000 0.000000
vn -1.000000 0.000000 0.000000
vn 0.000000 0.000000 -1.000000
vn 0.000000 0.000000 -1.000000
vn 0.000000 0.000000 -1.000000
vn 0.000000 0.000000 -1.000000
vn 1.000000 -0.000000 -0.000000
vn 1.000000 -0.000000 -0.000000
vn 1.000000 -0.000009 -0.000000
vn 1.000000 -0.000009 -0.000000
vn 0.000000 0.000000 1.000000
vn 0.000000 0.000000 1.000000
vn 0.000000 0.000000 1.000000
vn 0.000000 0.000000 1.000000
vn 0.000000 -1.000000 -0.000000
vn 0.000000 -1.000000 -0.000000
vn 0.000000 -1.000000 -0.000000
vn 0.000000 -1.000000 -0.000000
vn 0.000000 -1.000000 -0.000000
vn 0.000000 -1.000000 -0.000000
vn 0.000000 -1.000000 -0.000000
vn 0.000000 -1.000000 -0.000000
vn 0.000000 0.707133 -0.707080
vn 0.000000 0.707133 -0.707080
vn 0.000000 0.707133 -0.707080
vn 0.000000 0.707133 -0.707080
vn -0.707096 0.707117 0.000000
vn -0.707096 0.707117 0.000000
vn -0.707096 0.707117 0.000000
vn -0.707096 0.707117 0.000000
vn 0.000000 0.707133 0.707080
vn 0.000000 0.707133 0.707080
vn 0.000000 0.707133 0.707080
vn 0.000000 0.707133 0.707080
vn 0.707099 0.707114 0.000000
vn 0.707099 0.707114 0.000000
vn 0.707099 0.707114 0.000000
vn 0.707099 0.707114 0.000000
vn -1.000000 -0.000018 0.000000
vn -1.000000 -0.000018 0.000000
vn 0.000000 0.000000 -1.000000
vn 0.000000 0.000000 -1.000000
vn 1.000000 0.000015 0.000000
vn 1.000000 0.000015 0.000000
vn 0.000000 0.000000 1.000000
vn 0.000000 0.000000 1.000000
vn 0.000000 1.000000 -0.000000
vn 0.000000 1.000000 -0.000000
vn 0.000000 1.000000 -0.000000
vn 0.000000 1.000000 -0.000000
vn 0.000000 1.000000 -0.000000
vn 0.000000 1.000000 -0.000000
vn 0.000000 1.000000 -0.000000
vn 0.000000 1.000000 -0.000000
vn -1.000000 0.000000 0.000000
vn -1.000000 0.000000 0.000000
vn -1.000000 0.000000 0.000000
vn -1.000000 0.000000 0.000000
vn 0.000000 0.000000 -1.000000
vn 0.000000 0.000000 -1.000000
vn 0.000000 0.000000 -1.000000
vn 0.000000 0.000000 -1.000000
vn 1.000000 0.000000 0.000000
vn 1.000000 0.000000 0.000000
vn 1.000000 0.000000 0.000000
vn 1.000000 0.000000 0.000000
vn 0.000000 0.000000 1.000000
vn 0.000000 0.000000 1.000000
vn 0.000000 0.000000 1.000000
vn 0.000000 0.000000 1.000000
vn -0.707107 -0.707107 0.000000
vn -0.707107 -0.707107 0.000000
vn -0.707107 -0.707107 0.000000
vn -0.707107 -0.707107 0.000000
vn 0.000000 -0.707109 -0.707105
vn 0.000000 -0.707109 -0.707105
vn 0.000000 -0.707109 -0.707105
vn 0.000000 -0.707109 -0.707105
vn 0.000000 -0.707124 0.707090
vn 0.000000 -0.707124 0.707090
vn 0.000000 -0.707124 0.707090
vn 0.000000 -0.707124 0.707090
vn 0.707108 -0.707106 0.000000
vn 0.707108 -0.707106 0.000000
vn 0.707108 -0.707106 0.000000
vn 0.707108 -0.707106 0.000000
vn -0.707107 0.707107 0.000000
vn -0.707107 0.707107 0.000000
vn -0.707107 0.707107 0.000000
vn -0.707107 0.707107 0.000000
vn 0.000000 0.707124 0.707090
vn 0.000000 0.707124 0.707090
vn 0.000000 0.707124 0.707090
vn 0.000000 0.707124 0.707090
vn 0.000000 0.707109 -0.707105
vn 0.000000 0.707109 -0.707105
vn 0.000000 0.707109 -0.707105
vn 0.000000 0.707109 -0.707105
vn 0.707108 0.707106 0.000000
vn 0.707108 0.707106 0.000000
vn 0.707108 0.707106 0.000000
vn 0.707108 0.707106 0.000000
vn -1.000000 0.000008 0.000000
vn -1.000000 0.000008 0.000000
vn -1.000000 0.000008 0.000000
vn -1.000000 0.000008 0.000000
vn 0.000000 0.000000 -1.000000
vn 0.000000 0.000000 -1.000000
vn 0.000000 0.000000 -1.000000
vn 0.000000 0.000000 -1.000000
vn 1.000000 -0.000004 0.000000
vn 1.000000 -0.000004 0.000000
vn 1.000000 -0.000004 0.000000
vn 1.000000 -0.000004 0.000000
vn 0.000000 0.000000 1.000000
vn 0.000000 0.000000 1.000000
vn 0.000000 0.000000 1.000000
vn 0.000000 0.000000 1.000000
vn -1.000000 -0.000001 0.000000
vn -1.000000 -0.000001 0.000000
vn 0.000000 0.000000 1.000000
vn 0.000000 0.000000 1.000000
vn 1.000000 0.000001 -0.000000
vn 1.000000 0.000001 -0.000000
vn 0.000000 0.000000 -1.000000
vn 0.000000 0.000000 -1.000000
vn 0.000000 1.000000 -0.000000
vn 0.000000 1.000000 0.000000
vn 0.000000 1.000000 0.000000
vn 0.000000 1.000000 -0.000000
vn 0.000000 -1.000000 -0.000000
vn 0.000000 -1.000000 0.000000
vn 0.000000 -1.000000 0.000000
vn 0.000000 -1.000000 -0.000000
vn 0.000000 -1.000000 0.000000
vn 0.000000 -1.000000 0.000000
vn 0.000000 1.000000 -0.000000
vn 0.000000 1.000000 -0.000000
vn 0.000000 1.000000 0.000000
vn 0.000000 1.000000 0.000000
vn 0.000000 -1.000000 -0.000000
vn 0.000000 -1.000000 -0.000000
s 1
g pCube1
usemtl initialShadingGroup
f 16/105/1 13/106/2 1/107/3 2/108/4
s off
f 3/65/5 4/66/6 6/67/7 5/68/8
s 2
f 8/113/9 7/114/10 14/115/11 15/116/12
s off
f 7/69/13 8/70/14 2/71/15 1/72/16
s 3
f 2/1/17 8/2/18 15/3/19 16/4/20
s 4
f 13/9/21 14/10/22 7/11/23 1/12/24
s off
f 17/17/25 18/18/26 19/19/27 20/20/28
f 21/121/29 18/122/30 17/123/31 22/124/32
f 23/21/33 21/22/34 22/23/35 24/24/36
f 20/125/37 19/126/38 23/127/39 24/128/40
f 25/27/41 26/31/42 28/32/43 27/28/44
f 26/129/45 25/130/46 29/131/47 30/132/48
f 27/139/49 28/140/50 32/141/51 31/142/52
f 30/41/53 29/38/54 31/37/55 32/42/56
s 5
f 10/25/57 9/26/58 25/27/59 27/28/60
s 6
f 9/133/61 12/134/62 29/131/63 25/130/64
s 7
f 12/35/65 11/36/66 31/37/67 29/38/68
s 8
f 11/143/69 10/144/70 27/139/71 31/142/72
s 9
f 28/73/73 26/74/74 17/75/75 20/76/76
f 26/74/74 30/77/77 22/78/78 17/75/75
f 30/77/77 32/79/79 24/80/80 22/78/78
f 32/79/79 28/73/73 20/76/76 24/80/80
s off
f 33/117/81 34/119/82 38/120/83 37/118/84
f 34/15/85 33/14/86 35/13/87 36/16/88
f 36/111/89 35/110/90 39/109/91 40/112/92
f 37/5/93 38/7/94 40/8/95 39/6/96
s 4
f 14/10/22 13/9/21 35/13/97 33/14/98
s 2
f 15/116/12 14/115/11 33/117/99 37/118/100
s 3
f 16/4/20 15/3/19 37/5/101 39/6/102
s 1
f 13/106/2 16/105/1 39/109/103 35/110/104
s 10
f 34/81/105 36/82/106 19/83/107 18/84/108
f 38/87/109 34/81/105 18/84/108 21/88/110
f 40/85/111 38/87/109 21/88/110 23/86/112
f 36/82/106 40/85/111 23/86/112 19/83/107
s off
f 42/45/113 41/46/114 43/47/115 44/48/116
f 44/149/117 45/150/118 46/151/119 42/152/120
f 47/49/121 46/50/122 45/51/123 48/52/124
f 41/153/125 47/154/126 48/155/127 43/156/128
f 49/53/129 50/57/130 52/58/131 51/54/132
f 50/157/133 49/158/134 55/159/135 56/160/136
f 51/163/137 52/164/138 54/165/139 53/166/140
f 53/59/141 54/63/142 56/64/143 55/60/144
f 57/29/145 58/33/146 60/34/147 59/30/148
f 58/147/149 57/146/150 63/145/151 64/148/152
f 59/135/153 60/137/154 62/138/155 61/136/156
f 61/39/157 62/43/158 64/44/159 63/40/160
f 49/53/161 51/54/162 3/55/163 5/56/164
f 5/161/165 6/162/166 55/159/167 49/158/168
f 53/59/169 55/60/170 6/61/171 4/62/172
f 51/163/173 53/166/174 4/167/175 3/168/176
s 5
f 9/26/58 10/25/57 57/29/177 59/30/178
s 8
f 10/144/70 11/143/69 63/145/179 57/146/180
s 7
f 11/36/66 12/35/65 61/39/181 63/40/182
s 6
f 59/135/183 61/136/184 12/134/62 9/133/61
s 11
f 60/89/185 58/90/186 41/91/187 42/92/188
s 12
f 52/97/189 50/98/190 44/99/191 43/100/192
f 50/98/190 56/101/193 45/102/194 44/99/191
s 11
f 62/95/195 60/89/185 42/92/188 46/96/196
f 64/93/197 62/95/195 46/96/196 47/94/198
s 12
f 56/101/193 54/103/199 48/104/200 45/102/194
s 11
f 58/90/186 64/93/197 47/94/198 41/91/187
s 12
f 54/103/199 52/97/189 43/100/192 48/104/200
