# This file uses centimeters as units for non-parametric coordinates.

mtllib Window.mtl
g default
v -0.026039 12.133633 -11.734712
v -0.009577 12.074439 -11.709206
v -0.003353 12.049920 -11.648027
v -1.037815 11.714515 -11.746602
v -1.007299 11.661141 -11.720932
v -0.995255 11.639034 -11.659685
v -1.907626 11.047040 -11.756824
v -1.864348 11.003460 -11.731005
v -1.847016 10.985412 -11.669695
v -2.575052 10.177171 -11.764669
v -2.521981 10.146356 -11.738735
v -2.500593 10.133592 -11.677376
v -2.994617 9.164183 -11.769602
v -2.935389 9.148229 -11.743592
v -2.911452 9.141622 -11.682206
v -3.114076 8.257369 -11.771004
v -3.044697 8.318470 -11.744877
v -3.016556 8.343781 -11.683441
v 0.607898 8.257369 -11.727259
v 0.546503 8.318470 -11.702671
v 0.520477 8.343781 -11.641870
v -0.026039 4.020591 -11.734712
v -0.009577 4.079785 -11.709206
v -0.003353 4.104304 -11.648027
v -1.037815 4.439710 -11.746602
v -1.007299 4.493083 -11.720932
v -0.995255 4.515190 -11.659685
v -1.907626 5.107184 -11.756824
v -1.864348 5.150764 -11.731005
v -1.847016 5.168815 -11.669695
v -2.575052 5.977054 -11.764669
v -2.521981 6.007868 -11.738735
v -2.500593 6.020633 -11.677376
v -2.994617 6.990041 -11.769602
v -2.935389 7.005996 -11.743592
v -2.911452 7.012603 -11.682206
v -3.114076 7.896854 -11.771004
v -3.044697 7.835753 -11.744877
v -3.016556 7.810444 -11.683441
v 0.607898 7.896854 -11.727259
v 0.546503 7.835753 -11.702671
v 0.520477 7.810444 -11.641870
v 0.607898 3.918827 -11.727258
v 0.546503 3.990519 -11.702671
v 0.520477 4.020215 -11.641870
v 0.607898 12.235398 -11.727258
v 0.546503 12.163705 -11.702671
v 0.520477 12.134010 -11.641870
v 0.518446 12.134010 -11.469025
v 0.543034 12.163705 -11.407628
v 0.603836 12.235398 -11.381604
v -0.030102 12.133633 -11.389054
v -0.013045 12.074439 -11.414165
v -0.005385 12.049920 -11.475181
v -1.041878 11.714515 -11.400946
v -1.010767 11.661141 -11.425891
v -0.997286 11.639034 -11.486839
v -1.911689 11.047040 -11.411169
v -1.867815 11.003460 -11.435965
v -1.849048 10.985412 -11.496849
v -2.579115 10.177171 -11.419012
v -2.525449 10.146356 -11.443694
v -2.502625 10.133592 -11.504532
v -2.998680 9.164183 -11.423944
v -2.938858 9.148229 -11.448551
v -2.913484 9.141622 -11.509359
v -3.118138 8.257369 -11.425347
v -3.048166 8.318470 -11.449837
v -3.018587 8.343781 -11.510595
v -0.997286 4.515190 -11.486839
v -1.010767 4.493083 -11.425891
v -1.041878 4.439710 -11.400946
v -0.030102 4.020591 -11.389054
v -0.013045 4.079785 -11.414165
v -0.005385 4.104304 -11.475181
v -1.849048 5.168815 -11.496849
v -1.867815 5.150764 -11.435965
v -1.911689 5.107184 -11.411169
v -2.502625 6.020633 -11.504532
v -2.525449 6.007868 -11.443694
v -2.579115 5.977054 -11.419012
v -2.913484 7.012603 -11.509359
v -2.938858 7.005996 -11.448551
v -2.998680 6.990041 -11.423944
v -3.018587 7.810444 -11.510595
v -3.048166 7.835753 -11.449837
v -3.118138 7.896854 -11.425347
v 0.518446 7.810444 -11.469025
v 0.543035 7.835753 -11.407628
v 0.603836 7.896854 -11.381604
v 0.603836 8.257369 -11.381604
v 0.543035 8.318470 -11.407628
v 0.518446 8.343781 -11.469025
v 0.603836 3.918827 -11.381604
v 0.543034 3.990519 -11.407628
v 0.518446 4.020215 -11.469025
v -2.175708 11.314135 -11.674316
v -2.157105 11.296242 -11.734668
v -2.113616 11.253044 -11.759246
v -1.227671 12.041636 -11.663174
v -1.214308 12.019722 -11.723588
v -1.183471 11.966817 -11.748315
v -0.123658 12.498962 -11.650199
v -0.116240 12.474586 -11.710682
v -0.099754 12.415737 -11.735578
v 0.976451 12.558847 -11.722927
v 1.036718 12.626805 -11.697130
v 1.061092 12.654955 -11.636273
v 0.520485 12.592558 -11.642628
v 0.524440 12.567677 -11.703154
v 0.532562 12.507612 -11.728146
v -3.525853 8.343782 -11.690186
v -3.500055 8.341540 -11.750453
v -3.439199 8.336127 -11.774825
v -3.525853 7.810444 -11.690186
v -3.500055 7.812685 -11.750453
v -3.439199 7.818098 -11.774825
v -3.360455 9.261945 -11.688240
v -3.335535 9.254838 -11.748519
v -3.276794 9.237683 -11.772916
v -2.903159 10.366035 -11.682867
v -2.880533 10.353382 -11.743170
v -2.827338 10.322836 -11.767634
v 0.976451 3.595377 -11.722927
v 1.036718 3.527420 -11.697130
v 1.061092 3.499270 -11.636273
v 0.520485 3.561666 -11.642628
v 0.524440 3.586546 -11.703154
v 0.532562 3.646611 -11.728146
v 1.061090 3.964155 -11.636061
v 1.036780 3.961658 -11.697069
v 0.976664 3.955629 -11.722924
v -1.227671 4.112588 -11.663174
v -1.214308 4.134501 -11.723588
v -1.183471 4.187406 -11.748315
v -0.123658 3.655262 -11.650199
v -0.116240 3.679638 -11.710682
v -0.099754 3.738488 -11.735578
v -2.175708 4.840090 -11.674316
v -2.157105 4.857983 -11.734668
v -2.113616 4.901179 -11.759246
v -2.903159 5.788192 -11.682867
v -2.880533 5.800843 -11.743170
v -2.827338 5.831388 -11.767634
v -3.360455 6.892282 -11.688240
v -3.335535 6.899387 -11.748519
v -3.276794 6.916542 -11.772916
v 1.061090 12.190069 -11.636061
v 1.036780 12.192568 -11.697069
v 0.976664 12.198595 -11.722924
v 1.061083 8.343781 -11.635517
v 1.036940 8.339052 -11.696907
v 0.977216 8.327631 -11.722918
v 1.061083 7.810444 -11.635517
v 1.036940 7.815173 -11.696907
v 0.977216 7.826592 -11.722918
v 0.518436 12.592558 -11.468266
v 0.520967 12.567677 -11.407666
v 0.528498 12.507612 -11.382488
v -0.125706 12.498962 -11.475838
v -0.119713 12.474586 -11.415195
v -0.103816 12.415737 -11.389921
v -1.229720 12.041636 -11.488813
v -1.217781 12.019722 -11.428102
v -1.187534 11.966817 -11.402658
v -2.177757 11.314135 -11.499956
v -2.160578 11.296242 -11.439182
v -2.117679 11.253044 -11.413589
v -2.905208 10.366035 -11.508505
v -2.884007 10.353382 -11.447686
v -2.831401 10.322836 -11.421980
v -3.362504 9.261945 -11.513880
v -3.339007 9.254838 -11.453032
v -3.280857 9.237683 -11.427261
v -3.527903 8.343782 -11.515821
v -3.503528 8.341540 -11.454967
v -3.443261 8.336127 -11.429170
v 0.972388 3.595377 -11.377272
v 1.033245 3.527420 -11.401644
v 1.059043 3.499270 -11.461912
v 1.059045 3.964155 -11.462123
v 1.033308 3.961658 -11.401707
v 0.972600 3.955629 -11.377270
v 0.518436 3.561666 -11.468266
v 0.520967 3.586546 -11.407666
v 0.528498 3.646611 -11.382488
v -3.527903 7.810444 -11.515821
v -3.503528 7.812685 -11.454967
v -3.443261 7.818098 -11.429170
v -0.125706 3.655262 -11.475838
v -0.119713 3.679638 -11.415195
v -0.103816 3.738488 -11.389921
v -1.229720 4.112588 -11.488813
v -1.217781 4.134501 -11.428102
v -1.187534 4.187406 -11.402658
v -2.177757 4.840090 -11.499956
v -2.160578 4.857983 -11.439182
v -2.117679 4.901179 -11.413589
v -2.905208 5.788192 -11.508505
v -2.884007 5.800843 -11.447686
v -2.831401 5.831388 -11.421980
v -3.362504 6.892282 -11.513880
v -3.339007 6.899387 -11.453032
v -3.280857 6.916542 -11.427261
v 0.972388 12.558847 -11.377272
v 1.033245 12.626805 -11.401644
v 1.059043 12.654955 -11.461912
v 1.059045 12.190069 -11.462123
v 1.033308 12.192568 -11.401707
v 0.972600 12.198595 -11.377270
v 1.059052 8.343781 -11.462671
v 1.033472 8.339052 -11.401863
v 0.973153 8.327631 -11.377260
v 1.059052 7.810444 -11.462671
v 1.033472 7.815173 -11.401863
v 0.973153 7.826592 -11.377260
v 0.519698 4.020215 -11.575629
v -0.004132 4.104304 -11.581785
v -0.996033 4.515190 -11.593443
v -1.847795 5.168815 -11.603455
v -2.501371 6.020633 -11.611135
v -2.912231 7.012603 -11.615963
v -3.017334 7.810444 -11.617199
v 0.519698 7.810444 -11.575630
v 0.519698 4.020215 -11.575629
v -0.004132 4.104304 -11.581785
v 0.519698 7.810444 -11.575630
v -3.017334 7.810444 -11.617199
v -2.912231 7.012603 -11.615963
v -2.501371 6.020633 -11.611135
v -1.847795 5.168815 -11.603455
v -0.996033 4.515190 -11.593444
v 0.519022 4.020215 -11.518019
v -0.004808 4.104304 -11.524175
v 0.519021 7.810444 -11.518019
v -3.018011 7.810444 -11.559591
v -2.912908 7.012603 -11.558355
v -2.502048 6.020633 -11.553525
v -1.848472 5.168815 -11.545845
v -0.996711 4.515190 -11.535833
v 0.519698 12.134010 -11.575629
v -0.004132 12.049920 -11.581785
v -0.996033 11.639034 -11.593443
v -1.847795 10.985412 -11.603455
v -2.501371 10.133592 -11.611135
v -2.912231 9.141622 -11.615963
v -3.017334 8.343781 -11.617199
v 0.519698 8.343781 -11.575630
v 0.519698 12.134010 -11.575629
v -0.004132 12.049920 -11.581785
v 0.519698 8.343781 -11.575630
v -3.017334 8.343781 -11.617199
v -2.912231 9.141622 -11.615963
v -2.501371 10.133592 -11.611135
v -1.847795 10.985412 -11.603455
v -0.996033 11.639034 -11.593444
v 0.519022 12.134010 -11.518019
v -0.004808 12.049920 -11.524175
v 0.519021 8.343781 -11.518019
v -3.018011 8.343781 -11.559591
v -2.912908 9.141622 -11.558355
v -2.502048 10.133592 -11.553525
v -1.848472 10.985412 -11.545845
v -0.996711 11.639034 -11.535833
vt 0.047565 0.518822
vt 0.064471 0.514005
vt 0.064016 0.497771
vt 0.049186 0.501997
vt 0.063812 0.458324
vt 0.049842 0.462304
vt 0.047456 0.295355
vt 0.074440 0.287667
vt 0.074894 0.303901
vt 0.048286 0.311482
vt 0.075099 0.343348
vt 0.048646 0.350885
vt 0.609928 0.143963
vt 0.510666 0.143963
vt 0.510666 0.134348
vt 0.609928 0.134348
vt 0.609928 0.134348
vt 0.609928 0.143963
vt 0.510666 0.143963
vt 0.510666 0.134348
vt 0.049788 0.350559
vt 0.063758 0.346578
vt 0.090265 0.450787
vt 0.090211 0.339041
vt 0.113542 0.353182
vt 0.113542 0.464928
vt 0.096110 0.458455
vt 0.096110 0.346711
vt 0.073393 0.453489
vt 0.073393 0.341744
vt 0.046938 0.450367
vt 0.046938 0.338623
vt 0.025661 0.449569
vt 0.025661 0.337824
vt 0.048700 0.462630
vt 0.075153 0.455093
vt 0.042800 0.346711
vt 0.042800 0.458455
vt 0.025369 0.464928
vt 0.025369 0.353182
vt 0.065518 0.341744
vt 0.065518 0.453489
vt 0.091973 0.338623
vt 0.091973 0.450367
vt 0.113250 0.337824
vt 0.113250 0.449569
vt 0.412335 0.105384
vt 0.412281 0.217129
vt 0.317952 0.190253
vt 0.318006 0.078508
vt 0.281440 0.211752
vt 0.281452 0.100007
vt 0.187112 0.073167
vt 0.187101 0.184912
vt 0.089069 0.339367
vt 0.089123 0.451113
vt 0.650152 0.445061
vt 0.650152 0.333316
vt 0.751234 0.333316
vt 0.751234 0.445061
vt 0.650551 0.445061
vt 0.650551 0.333316
vt 0.751633 0.333316
vt 0.751633 0.445061
vt 0.064363 0.290537
vt 0.047457 0.295354
vt 0.049094 0.311251
vt 0.063924 0.307026
vt 0.090532 0.299444
vt 0.091346 0.282849
vt 0.096592 0.307073
vt 0.114131 0.313585
vt 0.097754 0.290381
vt 0.115555 0.296990
vt 0.073733 0.302076
vt 0.074556 0.285309
vt 0.047114 0.298935
vt 0.047540 0.282121
vt 0.024986 0.298104
vt 0.023356 0.281214
vt 0.186422 0.224220
vt 0.282206 0.251471
vt 0.184790 0.240118
vt 0.284063 0.268361
vt 0.074548 0.511135
vt 0.047565 0.518822
vt 0.048379 0.502227
vt 0.074987 0.494646
vt 0.023356 0.296990
vt 0.041157 0.290381
vt 0.042319 0.307073
vt 0.024780 0.313585
vt 0.064355 0.285309
vt 0.065177 0.302076
vt 0.091371 0.282121
vt 0.091796 0.298935
vt 0.115555 0.281214
vt 0.113925 0.298104
vt 0.315405 0.021898
vt 0.414667 0.050179
vt 0.413029 0.066076
vt 0.317256 0.038789
vt 0.753938 0.500266
vt 0.647847 0.500266
vt 0.649759 0.484369
vt 0.752308 0.484369
vt 0.089817 0.490421
vt 0.091454 0.506318
vt 0.752026 0.484369
vt 0.649477 0.484369
vt 0.753938 0.500266
vt 0.647847 0.500266
vt 0.091454 0.506317
vt 0.090625 0.490190
vt 0.115555 0.520458
vt 0.097754 0.513848
vt 0.096592 0.497818
vt 0.114131 0.504331
vt 0.074556 0.508777
vt 0.073733 0.492821
vt 0.047540 0.505589
vt 0.047114 0.489680
vt 0.023356 0.504681
vt 0.024986 0.488849
vt 0.284085 0.044893
vt 0.184813 0.016650
vt 0.186441 0.033475
vt 0.282225 0.060726
vt 0.042319 0.497818
vt 0.024780 0.504331
vt 0.041157 0.513848
vt 0.023356 0.520458
vt 0.091346 0.282849
vt 0.089725 0.299675
vt 0.065177 0.492821
vt 0.064355 0.508777
vt 0.091796 0.489680
vt 0.091371 0.505589
vt 0.113925 0.488849
vt 0.115555 0.504681
vt 0.412937 0.256821
vt 0.317163 0.229534
vt 0.414558 0.273647
vt 0.315297 0.245365
vt 0.649477 0.293623
vt 0.752026 0.293623
vt 0.647847 0.276798
vt 0.753938 0.276797
vt 0.649759 0.293623
vt 0.752308 0.293623
vt 0.647847 0.276797
vt 0.753938 0.276798
vt 0.519708 0.555825
vt 0.519570 0.543427
vt 0.559011 0.543494
vt 0.559051 0.555075
vt 0.575728 0.543655
vt 0.575730 0.553262
vt 0.900271 0.095272
vt 0.885854 0.091164
vt 0.885959 0.052035
vt 0.899621 0.055928
vt 0.886176 0.035877
vt 0.898014 0.039249
vt 0.886068 0.026210
vt 0.897906 0.022837
vt 0.899529 0.038595
vt 0.885867 0.042487
vt 0.900217 0.077558
vt 0.885799 0.081666
vt 0.406983 0.311652
vt 0.407119 0.324050
vt 0.368060 0.323983
vt 0.368020 0.312403
vt 0.352260 0.323823
vt 0.352262 0.314215
vt 0.868675 0.199285
vt 0.868621 0.086561
vt 0.885854 0.194391
vt 0.839232 0.207674
vt 0.839178 0.094950
vt 0.956053 0.198102
vt 0.956053 0.085377
vt 0.975455 0.078173
vt 0.975455 0.190898
vt 0.930768 0.203629
vt 0.930768 0.090904
vt 0.901323 0.207104
vt 0.901323 0.094378
vt 0.876836 0.208360
vt 0.876836 0.095635
vt 0.900217 0.207997
vt 0.885799 0.203889
vt 0.862613 0.208360
vt 0.862613 0.095635
vt 0.868675 0.086270
vt 0.868621 0.198994
vt 0.839178 0.190605
vt 0.839232 0.077880
vt 0.763994 0.190898
vt 0.763994 0.078173
vt 0.783396 0.085377
vt 0.783396 0.198102
vt 0.808681 0.090904
vt 0.808681 0.203629
vt 0.838126 0.094378
vt 0.838126 0.207104
vt 0.900271 0.190283
vt 0.591055 0.254863
vt 0.593021 0.247339
vt 0.609928 0.250053
vt 0.607919 0.257313
vt 0.562154 0.242890
vt 0.566038 0.236162
vt 0.537348 0.223855
vt 0.542841 0.218361
vt 0.518313 0.199047
vt 0.525041 0.195162
vt 0.506327 0.170107
vt 0.513852 0.168147
vt 0.501996 0.146063
vt 0.619762 0.029239
vt 0.609928 0.028258
vt 0.607919 0.020998
vt 0.619757 0.019632
vt 0.501996 0.132248
vt 0.591055 0.023448
vt 0.593021 0.030972
vt 0.566038 0.042149
vt 0.562154 0.035421
vt 0.542841 0.059950
vt 0.537348 0.054456
vt 0.525041 0.083149
vt 0.518313 0.079264
vt 0.513852 0.110164
vt 0.506327 0.108204
vt 0.619762 0.249071
vt 0.619757 0.258679
vt 0.619777 0.145836
vt 0.619777 0.132474
vt 0.591055 0.023448
vt 0.607919 0.020998
vt 0.609928 0.028258
vt 0.593021 0.030972
vt 0.562154 0.035421
vt 0.566038 0.042149
vt 0.537348 0.054456
vt 0.542841 0.059950
vt 0.518313 0.079264
vt 0.525041 0.083148
vt 0.506327 0.108204
vt 0.513852 0.110164
vt 0.501996 0.132247
vt 0.619762 0.249071
vt 0.619757 0.258679
vt 0.607919 0.257313
vt 0.609928 0.250053
vt 0.501996 0.146063
vt 0.591055 0.254863
vt 0.562154 0.242890
vt 0.566038 0.236162
vt 0.593021 0.247339
vt 0.537348 0.223855
vt 0.542841 0.218361
vt 0.518313 0.199047
vt 0.525041 0.195162
vt 0.506327 0.170107
vt 0.513852 0.168147
vt 0.619757 0.019632
vt 0.619762 0.029239
vt 0.619777 0.132475
vt 0.619777 0.145836
vt 0.974870 0.229956
vt 0.955576 0.237119
vt 0.973459 0.245941
vt 0.954424 0.253009
vt 0.868873 0.238388
vt 0.839589 0.246732
vt 0.869313 0.254483
vt 0.840411 0.262718
vt 0.885959 0.233520
vt 0.886176 0.249678
vt 0.898014 0.246305
vt 0.899621 0.229627
vt 0.901133 0.246073
vt 0.876776 0.247324
vt 0.900676 0.261847
vt 0.876632 0.263081
vt 0.862817 0.263081
vt 0.862673 0.247324
vt 0.930430 0.242616
vt 0.929616 0.258432
vt 0.868873 0.047167
vt 0.869313 0.031072
vt 0.575730 0.314215
vt 0.575728 0.323823
vt 0.559011 0.323983
vt 0.559051 0.312403
vt 0.519570 0.324050
vt 0.519708 0.311652
vt 0.783873 0.237119
vt 0.764579 0.229956
vt 0.785025 0.253009
vt 0.765990 0.245941
vt 0.840411 0.022837
vt 0.839589 0.038823
vt 0.809019 0.242616
vt 0.809833 0.258432
vt 0.838316 0.246073
vt 0.838773 0.261847
vt 0.519218 0.440851
vt 0.558906 0.440724
vt 0.575724 0.440420
vt 0.519218 0.426627
vt 0.558906 0.426753
vt 0.575724 0.427058
vt 0.868780 0.047356
vt 0.869204 0.031015
vt 0.839496 0.055700
vt 0.840303 0.039249
vt 0.955576 0.046087
vt 0.974870 0.038924
vt 0.954424 0.029541
vt 0.973459 0.022473
vt 0.930430 0.051584
vt 0.929616 0.034964
vt 0.901133 0.055041
vt 0.900676 0.038379
vt 0.876776 0.056291
vt 0.876632 0.039613
vt 0.862673 0.056291
vt 0.862817 0.039613
vt 0.407473 0.426627
vt 0.368161 0.426753
vt 0.352256 0.427058
vt 0.897906 0.262718
vt 0.886068 0.259345
vt 0.885867 0.243067
vt 0.899529 0.246960
vt 0.838316 0.055041
vt 0.838773 0.038379
vt 0.869204 0.254540
vt 0.868780 0.238199
vt 0.840303 0.246305
vt 0.839496 0.229855
vt 0.765990 0.022473
vt 0.785025 0.029541
vt 0.783873 0.046087
vt 0.764579 0.038924
vt 0.809833 0.034964
vt 0.809019 0.051584
vt 0.352262 0.553262
vt 0.352260 0.543655
vt 0.368060 0.543494
vt 0.368020 0.555075
vt 0.407119 0.543427
vt 0.406983 0.555825
vt 0.352256 0.440420
vt 0.368161 0.440724
vt 0.407473 0.440851
vt 0.663880 0.539952
vt 0.695043 0.534949
vt 0.695043 0.760435
vt 0.484621 0.760435
vt 0.490874 0.712970
vt 0.515316 0.653956
vt 0.554198 0.603281
vt 0.604871 0.564396
vt 0.194789 0.983757
vt 0.135779 0.959314
vt 0.085107 0.920428
vt 0.046225 0.869754
vt 0.021782 0.810740
vt 0.015530 0.763276
vt 0.225952 0.763276
vt 0.225952 0.988761
vt 0.083844 0.027535
vt 0.083844 0.253020
vt 0.083844 0.253020
vt 0.083844 0.027535
vt 0.113820 0.035066
vt 0.053868 0.245489
vt 0.053868 0.245489
vt 0.113820 0.035066
vt 0.088216 0.193517
vt 0.086434 0.146052
vt 0.086434 0.146052
vt 0.088216 0.193517
vt 0.079472 0.087039
vt 0.079472 0.087039
vt 0.115508 0.195118
vt 0.076624 0.144446
vt 0.076624 0.144446
vt 0.115508 0.195118
vt 0.052180 0.085437
vt 0.052180 0.085437
vt 0.097787 0.102703
vt 0.128950 0.111582
vt 0.128910 0.194664
vt 0.097747 0.185786
vt 0.125385 0.027535
vt 0.125385 0.253020
vt 0.042303 0.253020
vt 0.042303 0.027535
vt 0.095409 0.035046
vt 0.155362 0.245468
vt 0.072279 0.245509
vt 0.012326 0.035086
vt 0.025172 0.238297
vt 0.026954 0.190832
vt 0.110036 0.190832
vt 0.108254 0.238297
vt 0.033917 0.131819
vt 0.117000 0.131819
vt 0.044995 0.081143
vt 0.128078 0.081143
vt 0.059433 0.042258
vt 0.142516 0.042258
vt 0.038778 0.085891
vt 0.038738 0.168973
vt 0.664721 0.984654
vt 0.605712 0.960211
vt 0.555040 0.921326
vt 0.516158 0.870650
vt 0.491715 0.811636
vt 0.485462 0.764171
vt 0.695885 0.764171
vt 0.695885 0.989657
vt 0.194798 0.537883
vt 0.225961 0.532879
vt 0.225961 0.758365
vt 0.015539 0.758365
vt 0.021792 0.710901
vt 0.046234 0.651887
vt 0.085116 0.601212
vt 0.135789 0.562327
vt 0.083844 0.253020
vt 0.083844 0.253020
vt 0.083844 0.027535
vt 0.083844 0.027535
vt 0.053868 0.035067
vt 0.053868 0.035067
vt 0.113820 0.245488
vt 0.113820 0.245488
vt 0.088216 0.087038
vt 0.088216 0.087038
vt 0.086434 0.134503
vt 0.086434 0.134503
vt 0.079472 0.193517
vt 0.079472 0.193517
vt 0.064402 0.165614
vt 0.064402 0.165614
vt 0.103286 0.114941
vt 0.103286 0.114941
vt 0.075438 0.169782
vt 0.075438 0.169782
vt 0.092250 0.110773
vt 0.092250 0.110773
vt 0.097787 0.177851
vt 0.097747 0.094769
vt 0.128910 0.085891
vt 0.128950 0.168973
vt 0.125385 0.253020
vt 0.042303 0.253020
vt 0.042303 0.027535
vt 0.125385 0.027535
vt 0.072279 0.035046
vt 0.155361 0.035086
vt 0.095409 0.245509
vt 0.012327 0.245468
vt 0.025172 0.042258
vt 0.108254 0.042258
vt 0.110036 0.089723
vt 0.026954 0.089723
vt 0.117000 0.148736
vt 0.033917 0.148736
vt 0.128078 0.199412
vt 0.044995 0.199412
vt 0.142516 0.238297
vt 0.059433 0.238297
vt 0.038778 0.194664
vt 0.038737 0.111582
vn -0.036962 -0.003932 0.999309
vn 0.006894 -0.058237 0.998279
vn 0.105081 -0.362536 0.926027
vn 0.049788 -0.377836 0.924533
vn 0.141918 -0.912208 0.384365
vn 0.280732 -0.877865 0.387999
vn 0.306781 -0.944805 0.115014
vn 0.155611 -0.979004 0.131667
vn 0.018479 0.052321 0.998459
vn 0.006895 0.058237 0.998279
vn 0.105079 0.362535 0.926027
vn 0.179066 0.328974 0.927206
vn 0.456802 0.799087 0.390886
vn 0.280730 0.877865 0.388000
vn 0.306781 0.944805 0.115016
vn 0.495558 0.860651 0.117056
vn -0.028858 0.015994 0.999456
vn -0.006178 0.022730 0.999723
vn -0.006178 -0.022730 0.999723
vn -0.028859 -0.015994 0.999456
vn -0.005357 0.015994 -0.999858
vn -0.005359 -0.015994 -0.999858
vn 0.017320 -0.022729 -0.999592
vn 0.017320 0.022729 -0.999592
vn 0.158662 -0.979004 -0.127978
vn 0.309399 -0.944806 -0.107774
vn 0.495557 -0.860652 0.117051
vn 0.498172 -0.860652 -0.105372
vn 0.701363 -0.702720 0.119476
vn 0.703978 -0.702720 -0.102959
vn 0.859285 -0.496897 0.121338
vn 0.861899 -0.496898 -0.101107
vn 0.953542 -0.275003 0.123007
vn 0.956170 -0.275003 -0.100558
vn 0.981641 -0.129534 0.140006
vn 0.984661 -0.129533 -0.116891
vn 0.498172 0.860652 -0.105375
vn 0.309398 0.944806 -0.107773
vn 0.703977 0.702720 -0.102965
vn 0.701364 0.702718 0.119483
vn 0.861898 0.496898 -0.101110
vn 0.859285 0.496896 0.121340
vn 0.956170 0.275004 -0.100560
vn 0.953542 0.275002 0.123007
vn 0.984661 0.129534 -0.116893
vn 0.981642 0.129533 0.140004
vn 0.001473 -0.992108 -0.125374
vn -0.001474 -0.992109 0.125374
vn -0.001497 -0.991851 0.127396
vn 0.001497 -0.991851 -0.127396
vn 0.001497 0.991850 -0.127403
vn -0.001497 0.991850 0.127405
vn -0.001474 0.992107 0.125383
vn 0.001474 0.992108 -0.125381
vn 0.155611 0.979003 0.131672
vn 0.158662 0.979004 -0.127979
vn -0.990571 -0.000000 -0.137000
vn -0.993518 -0.000000 0.113677
vn -0.993231 -0.000000 0.116159
vn -0.990226 -0.000000 -0.139474
vn -0.990226 0.000000 -0.139474
vn -0.993231 0.000000 0.116159
vn -0.993518 0.000000 0.113675
vn -0.990571 0.000000 -0.136998
vn 0.030358 -0.058240 -0.997841
vn -0.013460 -0.003932 -0.999902
vn 0.071505 -0.377838 -0.923107
vn 0.126824 -0.362546 -0.923296
vn 0.289769 -0.877864 -0.381299
vn 0.150911 -0.912203 -0.380935
vn 0.465865 -0.799090 -0.380034
vn 0.200811 -0.328979 -0.922739
vn 0.041940 -0.052324 -0.997749
vn 0.656950 -0.652456 -0.377781
vn 0.279467 -0.268612 -0.921817
vn 0.054457 -0.042730 -0.997601
vn 0.803569 -0.461355 -0.376068
vn 0.339848 -0.189939 -0.921101
vn 0.064039 -0.030202 -0.997490
vn 0.891367 -0.254656 -0.374988
vn 0.376396 -0.103566 -0.920652
vn 0.068087 -0.015968 -0.997552
vn 0.920402 -0.120672 -0.371885
vn 0.390256 -0.049987 -0.919349
vn 0.004498 0.923867 -0.382687
vn 0.004498 0.923867 -0.382687
vn 0.010858 0.382677 -0.923818
vn 0.010858 0.382677 -0.923818
vn 0.030358 0.058240 -0.997841
vn 0.041940 0.052324 -0.997749
vn 0.200815 0.328982 -0.922737
vn 0.126825 0.362547 -0.923296
vn 0.289769 0.877863 -0.381301
vn 0.465862 0.799087 -0.380044
vn 0.054458 0.042730 -0.997601
vn 0.279469 0.268615 -0.921815
vn 0.656939 0.652457 -0.377799
vn 0.064040 0.030202 -0.997490
vn 0.339848 0.189940 -0.921100
vn 0.803564 0.461357 -0.376077
vn 0.068087 0.015968 -0.997552
vn 0.376396 0.103566 -0.920652
vn 0.891365 0.254657 -0.374992
vn 0.390257 0.049987 -0.919348
vn 0.920398 0.120674 -0.371894
vn 0.010858 -0.382682 -0.923816
vn 0.010858 -0.382682 -0.923816
vn 0.004497 -0.923877 -0.382664
vn 0.004497 -0.923877 -0.382664
vn -0.013463 0.003932 -0.999902
vn -0.371777 -0.000000 -0.928322
vn -0.371777 -0.000000 -0.928322
vn -0.919318 0.000000 -0.393516
vn -0.919318 0.000000 -0.393516
vn 0.150911 0.912201 -0.380941
vn 0.071503 0.377836 -0.923107
vn -0.919318 -0.000000 -0.393515
vn -0.919318 -0.000000 -0.393515
vn -0.371777 0.000000 -0.928322
vn -0.371777 0.000000 -0.928322
vn 0.018477 -0.052321 0.998459
vn 0.179066 -0.328971 0.927207
vn 0.456805 -0.799093 0.390870
vn 0.030995 -0.042729 0.998606
vn 0.257723 -0.268616 0.928129
vn 0.647889 -0.652460 0.393111
vn 0.040575 -0.030202 0.998720
vn 0.318097 -0.189943 0.928836
vn 0.794510 -0.461354 0.394851
vn 0.044621 -0.015967 0.998876
vn 0.354631 -0.103564 0.929253
vn 0.882306 -0.254655 0.395836
vn 0.368503 -0.049984 0.928282
vn 0.911403 -0.120674 0.393424
vn -0.010857 0.382684 0.923816
vn -0.010857 0.382684 0.923816
vn -0.004498 0.923871 0.382678
vn -0.004498 0.923871 0.382678
vn 0.647884 0.652451 0.393134
vn 0.257726 0.268619 0.928128
vn 0.030996 0.042729 0.998606
vn -0.036964 0.003932 0.999309
vn 0.049784 0.377831 0.924535
vn 0.141919 0.912204 0.384373
vn 0.794507 0.461351 0.394859
vn 0.318103 0.189944 0.928834
vn 0.040577 0.030202 0.998720
vn 0.882307 0.254653 0.395837
vn 0.354632 0.103563 0.929253
vn 0.044621 0.015967 0.998876
vn 0.911405 0.120672 0.393419
vn 0.368499 0.049984 0.928283
vn -0.004497 -0.923879 0.382659
vn -0.004497 -0.923879 0.382659
vn -0.010857 -0.382683 0.923816
vn -0.010857 -0.382683 0.923816
vn -0.928317 -0.000000 0.371791
vn -0.928317 -0.000000 0.371791
vn -0.393477 -0.000000 0.919335
vn -0.393477 -0.000000 0.919335
vn -0.928318 0.000000 0.371787
vn -0.928318 0.000000 0.371787
vn -0.393502 0.000000 0.919324
vn -0.393502 0.000000 0.919324
vn 0.928643 -0.000052 -0.370975
vn 0.929682 -0.000019 -0.368364
vn 0.929671 -0.000019 -0.368390
vn 0.928643 -0.000052 -0.370975
vn 0.394267 0.000062 -0.918996
vn 0.396945 0.000020 -0.917842
vn 0.065346 0.000003 -0.997863
vn 0.076276 0.090193 -0.992999
vn -0.113275 -0.989995 -0.084134
vn -0.128614 -0.985972 -0.106383
vn -0.116247 -0.915942 -0.384105
vn -0.101419 -0.917789 -0.383899
vn -0.033009 -0.380146 -0.924337
vn -0.039387 -0.379323 -0.924425
vn 0.001971 -0.073611 -0.997285
vn 0.076274 -0.090192 -0.992999
vn -0.021471 0.073613 0.997056
vn 0.052917 0.090194 0.994517
vn -0.054731 0.380151 0.923303
vn -0.061106 0.379329 0.923242
vn -0.125241 0.915934 0.381288
vn -0.110416 0.917785 0.381418
vn -0.115223 0.989995 0.081447
vn -0.131079 0.985972 0.103336
vn 0.919662 0.000053 0.392711
vn 0.920761 0.000019 0.390126
vn 0.920750 0.000019 0.390152
vn 0.919662 0.000053 0.392711
vn 0.372560 -0.000058 0.928008
vn 0.375295 -0.000021 0.926905
vn 0.041875 -0.000003 0.999123
vn 0.052917 -0.090194 0.994518
vn -0.297666 0.948562 -0.107819
vn -0.300119 0.948562 0.100792
vn -0.128614 0.985972 -0.106390
vn -0.496007 0.861301 -0.110171
vn -0.498461 0.861301 0.098481
vn -0.701972 0.703249 -0.112588
vn -0.704425 0.703248 0.096059
vn -0.860015 0.497267 -0.114457
vn -0.862467 0.497267 0.094212
vn -0.949183 0.292695 -0.115675
vn -0.951640 0.292695 0.093332
vn -0.986819 0.112620 -0.116213
vn -0.989278 0.112620 0.092987
vn -0.115221 -0.989995 0.081448
vn -0.131078 -0.985972 0.103331
vn -0.986819 -0.112619 -0.116212
vn -0.989278 -0.112619 0.092986
vn -0.297667 -0.948563 -0.107813
vn -0.300120 -0.948562 0.100787
vn -0.498461 -0.861300 0.098482
vn -0.496008 -0.861301 -0.110170
vn -0.704426 -0.703247 0.096061
vn -0.701973 -0.703248 -0.112591
vn -0.862468 -0.497266 0.094211
vn -0.860015 -0.497266 -0.114457
vn -0.951640 -0.292695 0.093331
vn -0.949184 -0.292695 -0.115672
vn -0.113277 0.989995 -0.084138
vn -0.036576 0.078912 0.996210
vn -0.053468 0.072334 0.995946
vn -0.070754 0.059046 0.995745
vn -0.084033 0.041751 0.995588
vn -0.086995 0.023187 0.995939
vn -0.085664 0.008449 0.996288
vn -0.021471 -0.073612 0.997056
vn -0.085667 -0.008449 0.996288
vn -0.036576 -0.078912 0.996210
vn -0.053466 -0.072334 0.995946
vn -0.070754 -0.059046 0.995745
vn -0.084034 -0.041751 0.995588
vn -0.086996 -0.023186 0.995939
vn 0.041873 0.000003 0.999123
vn 0.038663 0.000002 0.999252
vn 0.038667 -0.000002 0.999252
vn -0.013154 0.078914 -0.996795
vn 0.001971 0.073610 -0.997285
vn -0.030048 0.072336 -0.996928
vn -0.047334 0.059047 -0.997132
vn -0.060616 0.041752 -0.997288
vn -0.063568 0.023186 -0.997708
vn -0.062224 0.008448 -0.998026
vn 0.065343 -0.000003 -0.997863
vn -0.062224 -0.008448 -0.998027
vn -0.013154 -0.078913 -0.996795
vn -0.030046 -0.072336 -0.996928
vn -0.047331 -0.059047 -0.997133
vn -0.060614 -0.041752 -0.997288
vn -0.063567 -0.023187 -0.997708
vn 0.062140 0.000002 -0.998067
vn 0.062138 -0.000002 -0.998068
vn -0.456786 0.799093 -0.390893
vn -0.647874 0.652454 -0.393145
vn -0.257735 0.268619 -0.928126
vn -0.179050 0.328992 -0.927203
vn -0.272838 0.880246 -0.388235
vn -0.103449 0.362791 -0.926111
vn -0.116245 0.915935 -0.384124
vn -0.039387 0.379324 -0.924425
vn -0.033009 0.380150 -0.924336
vn -0.101421 0.917786 -0.383904
vn -0.877641 0.271680 -0.394888
vn -0.912858 0.104609 -0.394647
vn -0.368115 0.043301 -0.928771
vn -0.353068 0.112092 -0.928859
vn -0.368114 -0.043301 -0.928772
vn -0.912860 -0.104609 -0.394643
vn -0.794508 0.461337 -0.394873
vn -0.318119 0.189919 -0.928833
vn -0.272839 -0.880253 -0.388218
vn -0.103448 -0.362794 -0.926110
vn 0.396946 -0.000020 -0.917842
vn 0.394252 -0.000062 -0.919002
vn 0.928646 0.000052 -0.370967
vn 0.929670 0.000019 -0.368392
vn 0.929681 0.000019 -0.368366
vn 0.928646 0.000052 -0.370967
vn -0.647872 -0.652452 -0.393151
vn -0.456786 -0.799094 -0.390891
vn -0.179047 -0.328997 -0.927202
vn -0.257732 -0.268623 -0.928125
vn -0.794507 -0.461341 -0.394872
vn -0.318116 -0.189919 -0.928834
vn -0.877644 -0.271682 -0.394880
vn -0.353064 -0.112092 -0.928860
vn 0.929888 -0.000013 -0.367843
vn 0.929904 -0.000013 -0.367802
vn 0.397393 0.000015 -0.917649
vn 0.929887 0.000013 -0.367846
vn 0.929903 0.000013 -0.367805
vn 0.397394 -0.000015 -0.917648
vn -0.281897 0.880245 0.381712
vn -0.125173 0.362784 0.923428
vn -0.465854 0.799093 0.380039
vn -0.200781 0.328981 0.922745
vn -0.656943 0.652455 0.377793
vn -0.279460 0.268610 0.921819
vn -0.803575 0.461339 0.376077
vn -0.339834 0.189911 0.921112
vn -0.886680 0.271681 0.374151
vn -0.374793 0.112088 0.920308
vn -0.921875 0.104609 0.373099
vn -0.389857 0.043301 0.919857
vn -0.921876 -0.104609 0.373096
vn -0.389864 -0.043300 0.919854
vn 0.920981 0.000014 0.389607
vn 0.920998 0.000013 0.389567
vn 0.375751 -0.000016 0.926721
vn -0.061107 -0.379328 0.923242
vn -0.054730 -0.380153 0.923303
vn -0.110413 -0.917789 0.381409
vn -0.125242 -0.915942 0.381267
vn -0.886681 -0.271683 0.374146
vn -0.374799 -0.112088 0.920305
vn -0.125178 -0.362784 0.923427
vn -0.281896 -0.880253 0.381693
vn -0.200787 -0.328985 0.922742
vn -0.465854 -0.799093 0.380039
vn -0.279472 -0.268613 0.921815
vn -0.656939 -0.652453 0.377804
vn -0.339844 -0.189912 0.921108
vn -0.803573 -0.461342 0.376078
vn 0.375275 0.000021 0.926913
vn 0.372558 0.000058 0.928009
vn 0.919663 -0.000053 0.392708
vn 0.920753 -0.000019 0.390146
vn 0.920764 -0.000019 0.390119
vn 0.919663 -0.000053 0.392708
vn 0.375731 0.000016 0.926729
vn 0.921001 -0.000013 0.389561
vn 0.920984 -0.000014 0.389601
vn 0.999931 0.000000 0.011751
vn 0.999931 0.000000 0.011751
vn 0.999931 0.000000 0.011751
vn 0.999931 0.000000 0.011751
vn 0.999931 0.000000 0.011751
vn 0.999931 0.000000 0.011751
vn 0.999931 0.000000 0.011751
vn 0.999931 0.000000 0.011751
vn 0.999931 0.000000 0.011751
vn 0.999931 0.000000 0.011751
vn 0.999931 0.000000 0.011751
vn 0.999931 0.000000 0.011751
vn -0.011752 0.000000 0.999931
vn -0.011752 0.000000 0.999931
vn -0.011752 0.000000 0.999931
vn -0.011752 0.000000 0.999931
vn -0.011752 0.000000 0.999931
vn -0.011752 0.000000 0.999931
vn -0.011752 0.000000 0.999931
vn -0.011752 0.000000 0.999931
vn 0.011752 -0.000000 -0.999931
vn 0.011752 -0.000000 -0.999931
vn 0.011752 -0.000000 -0.999931
vn 0.011752 -0.000000 -0.999931
vn 0.011752 -0.000000 -0.999931
vn 0.011752 -0.000000 -0.999931
vn 0.011752 -0.000000 -0.999931
vn 0.011752 -0.000000 -0.999931
vn 0.000000 0.000000 0.000000
vn 0.000000 1.000000 0.000000
vn 0.000000 1.000000 0.000000
vn 0.000000 0.000000 0.000000
vn 0.000000 -0.000000 -1.000000
vn 0.000000 -0.000000 -0.000000
vn 0.000000 -0.000000 -0.000000
vn 0.000000 -0.000000 -1.000000
vn 0.000000 0.000000 0.000000
vn 0.000000 0.000000 0.000000
vn 0.000000 0.000000 0.000000
vn 0.000000 0.000000 0.000000
vn 0.000000 0.000000 0.000000
vn 0.000000 0.001302 0.999999
vn 0.000000 0.001302 0.999999
vn 0.000000 0.000000 0.000000
vn 0.000000 0.011430 0.999935
vn 0.000000 0.000000 0.000000
vn 0.000000 0.000000 0.000000
vn 0.000000 0.011430 0.999935
vn 0.000000 0.000000 0.000000
vn 0.000000 0.000000 0.000000
vn 0.000000 0.000000 0.000000
vn 0.000000 0.000000 0.000000
vn 0.000000 0.000000 0.000000
vn 0.605395 0.516714 0.605395
vn 0.605395 0.516714 0.605395
vn 0.000000 0.000000 0.000000
vn 0.000000 0.968084 0.250628
vn 0.000000 0.000000 0.000000
vn 0.000000 0.000000 0.000000
vn 0.000000 0.968084 0.250628
vn -0.310378 -0.950606 -0.003645
vn -0.158475 -0.987361 -0.001865
vn -0.158475 -0.987361 -0.001865
vn -0.310377 -0.950606 -0.003645
vn 0.999931 0.000000 0.011749
vn 0.999931 0.000000 0.011749
vn 0.999931 0.000000 0.011749
vn 0.999931 0.000000 0.011749
vn 0.000000 1.000000 0.000007
vn 0.000000 1.000000 0.000007
vn 0.000000 1.000000 0.000007
vn 0.000000 1.000000 0.000007
vn -0.991365 -0.130614 -0.011647
vn -0.960799 -0.277017 -0.011287
vn -0.960799 -0.277017 -0.011287
vn -0.991365 -0.130614 -0.011647
vn -0.865965 -0.500002 -0.010174
vn -0.865965 -0.500002 -0.010174
vn -0.707060 -0.707105 -0.008310
vn -0.707060 -0.707105 -0.008310
vn -0.499963 -0.866027 -0.005874
vn -0.499963 -0.866027 -0.005874
vn -0.011753 -0.000000 0.999931
vn -0.011753 -0.000000 0.999931
vn -0.011753 -0.000000 0.999931
vn -0.011753 -0.000000 0.999931
vn -0.011753 -0.000000 0.999931
vn -0.011753 -0.000000 0.999931
vn -0.011753 -0.000000 0.999931
vn -0.011753 -0.000000 0.999931
vn 0.011752 0.000000 -0.999931
vn 0.011752 0.000000 -0.999931
vn 0.011752 0.000000 -0.999931
vn 0.011752 0.000000 -0.999931
vn 0.011752 0.000000 -0.999931
vn 0.011752 0.000000 -0.999931
vn 0.011752 0.000000 -0.999931
vn 0.011752 0.000000 -0.999931
vn 0.000000 -0.000000 0.000000
vn 0.000000 -0.000000 0.000000
vn 0.000000 -0.001953 0.999998
vn 0.000000 -0.001953 0.999998
vn 0.000000 0.000000 -1.000000
vn 0.000000 0.000000 -1.000000
vn 0.000000 0.000000 -0.000000
vn 0.000000 0.000000 -0.000000
vn 0.000000 0.000000 0.000000
vn 0.000000 0.000000 0.000000
vn 0.000000 0.000000 0.000000
vn 0.000000 0.000000 0.000000
vn 0.000000 -0.000000 0.000000
vn 0.000000 -0.000000 0.000000
vn 0.000000 -0.001302 0.999999
vn 0.000000 -0.001302 0.999999
vn 0.000000 -0.011718 0.999931
vn 0.000000 -0.011718 0.999931
vn 0.000000 -0.000000 0.000000
vn 0.000000 -0.000000 0.000000
vn 0.000000 0.000000 0.000000
vn 0.000000 0.000000 0.000000
vn 0.000000 0.000000 0.000000
vn 0.000000 0.000000 0.000000
vn 0.000000 -0.000000 0.000000
vn 0.000000 -0.000000 0.000000
vn 0.676956 -0.288896 0.676956
vn 0.676956 -0.288896 0.676956
vn 0.000000 -1.000000 0.000000
vn 0.000000 -1.000000 0.000000
vn 0.000000 -0.000000 0.000000
vn 0.000000 -0.000000 0.000000
vn -0.310378 0.950606 -0.003654
vn -0.310377 0.950606 -0.003654
vn -0.158475 0.987361 -0.001872
vn -0.158475 0.987361 -0.001872
vn 0.999931 -0.000000 0.011749
vn 0.999931 -0.000000 0.011749
vn 0.999931 -0.000000 0.011749
vn 0.999931 -0.000000 0.011749
vn 0.000000 -1.000000 -0.000009
vn 0.000000 -1.000000 -0.000009
vn 0.000000 -1.000000 -0.000009
vn 0.000000 -1.000000 -0.000009
vn -0.991365 0.130616 -0.011645
vn -0.991365 0.130616 -0.011645
vn -0.960798 0.277019 -0.011287
vn -0.960798 0.277019 -0.011287
vn -0.865966 0.499999 -0.010177
vn -0.865967 0.499998 -0.010177
vn -0.707064 0.707101 -0.008319
vn -0.707064 0.707101 -0.008319
vn -0.499963 0.866027 -0.005886
vn -0.499963 0.866027 -0.005886
s 1
g WindowL Window1
usemtl initialShadingGroup
f 51/1/1 52/2/2 53/3/3 50/4/4
s 2
f 50/4/5 53/3/6 54/5/7 49/6/8
s 1
f 72/7/9 73/8/10 74/9/11 71/10/12
s 4
f 71/10/13 74/9/14 75/11/15 70/12/16
s 1
f 91/13/17 67/14/18 87/15/19 90/16/20
s 6
f 19/17/21 40/18/22 37/19/23 16/20/24
s 2
f 48/21/25 49/6/8 54/5/7 3/22/26
f 3/22/26 54/5/7 57/23/27 6/24/28
f 6/25/28 57/26/27 60/27/29 9/28/30
f 9/28/30 60/27/29 63/29/31 12/30/32
f 12/30/32 63/29/31 66/31/33 15/32/34
f 15/32/34 66/31/33 69/33/35 18/34/36
s 4
f 27/35/37 70/12/16 75/11/15 24/36/38
f 30/37/39 76/38/40 70/39/16 27/40/37
f 33/41/41 79/42/42 76/38/40 30/37/39
f 36/43/43 82/44/44 79/42/42 33/41/41
f 39/45/45 85/46/46 82/44/44 36/43/43
s 7
f 42/47/47 88/48/48 85/49/49 39/50/50
s 8
f 18/51/51 69/52/52 93/53/53 21/54/54
s 4
f 24/36/38 75/11/15 96/55/55 45/56/56
s 9
f 21/57/57 93/58/58 49/59/59 48/60/60
s 10
f 45/61/61 96/62/62 88/63/63 42/64/64
s 6
f 1/65/65 46/66/66 47/67/67 2/68/68
s 2
f 2/68/69 47/67/70 48/21/25 3/22/26
f 3/22/26 6/24/28 5/69/71 2/68/69
s 6
f 2/68/68 5/69/72 4/70/73 1/65/65
s 2
f 6/25/28 9/28/30 8/71/74 5/72/71
s 6
f 5/72/72 8/71/75 7/73/76 4/74/73
s 2
f 9/28/30 12/30/32 11/75/77 8/71/74
s 6
f 8/71/75 11/75/78 10/76/79 7/73/76
s 2
f 12/30/32 15/32/34 14/77/80 11/75/77
s 6
f 11/75/78 14/77/81 13/78/82 10/76/79
s 2
f 15/32/34 18/34/36 17/79/83 14/77/80
s 6
f 14/77/81 17/79/84 16/80/24 13/78/82
s 8
f 18/51/51 21/54/54 20/81/85 17/82/86
s 6
f 17/82/87 20/81/88 19/83/21 16/84/24
f 22/85/89 25/86/90 26/87/91 23/88/92
s 4
f 23/88/93 26/87/94 27/35/37 24/36/38
s 6
f 25/89/90 28/90/95 29/91/96 26/92/91
s 4
f 26/92/94 29/91/97 30/37/39 27/40/37
s 6
f 28/90/95 31/93/98 32/94/99 29/91/96
s 4
f 29/91/97 32/94/100 33/41/41 30/37/39
s 6
f 31/93/98 34/95/101 35/96/102 32/94/99
s 4
f 32/94/100 35/96/103 36/43/43 33/41/41
s 6
f 34/95/101 37/97/23 38/98/104 35/96/102
s 4
f 35/96/103 38/98/105 39/45/45 36/43/43
s 6
f 37/99/23 40/100/22 41/101/106 38/102/107
s 7
f 38/102/108 41/101/109 42/47/47 39/50/50
s 6
f 40/103/22 43/104/110 44/105/111 41/106/112
s 10
f 41/106/113 44/105/114 45/61/61 42/64/64
s 4
f 24/36/38 45/56/56 44/107/115 23/88/93
s 6
f 23/88/92 44/107/116 43/108/110 22/85/89
s 9
f 21/57/57 48/60/60 47/109/117 20/110/118
s 6
f 20/110/119 47/109/120 46/111/66 19/112/21
s 1
f 52/2/2 55/113/121 56/114/122 53/3/3
s 2
f 53/3/6 56/114/123 57/23/27 54/5/7
s 1
f 55/115/121 58/116/124 59/117/125 56/118/122
s 2
f 56/118/123 59/117/126 60/27/29 57/26/27
s 1
f 58/116/124 61/119/127 62/120/128 59/117/125
s 2
f 59/117/126 62/120/129 63/29/31 60/27/29
s 1
f 61/119/127 64/121/130 65/122/131 62/120/128
s 2
f 62/120/129 65/122/132 66/31/33 63/29/31
s 1
f 64/121/130 67/123/18 68/124/133 65/122/131
s 2
f 65/122/132 68/124/134 69/33/35 66/31/33
s 1
f 67/125/18 91/126/17 92/127/135 68/128/136
s 8
f 68/128/137 92/127/138 93/53/53 69/52/52
s 4
f 70/39/16 76/38/40 77/129/139 71/130/13
s 1
f 71/130/12 77/129/140 78/131/141 72/132/9
f 73/8/10 94/133/142 95/134/143 74/9/11
s 4
f 74/9/14 95/134/144 96/55/55 75/11/15
f 76/38/40 79/42/42 80/135/145 77/129/139
s 1
f 77/129/140 80/135/146 81/136/147 78/131/141
s 4
f 79/42/42 82/44/44 83/137/148 80/135/145
s 1
f 80/135/146 83/137/149 84/138/150 81/136/147
s 4
f 82/44/44 85/46/46 86/139/151 83/137/148
s 1
f 83/137/149 86/139/152 87/140/19 84/138/150
s 7
f 85/49/49 88/48/48 89/141/153 86/142/154
s 1
f 86/142/155 89/141/156 90/143/20 87/144/19
s 9
f 49/59/59 93/58/58 92/145/157 50/146/158
s 1
f 50/146/159 92/145/160 91/147/17 51/148/1
s 10
f 88/63/63 96/62/62 95/149/161 89/150/162
s 1
f 89/150/163 95/149/164 94/151/142 90/152/20
s 17
f 108/153/165 148/154/166 149/155/167 107/156/168
s 6
f 107/156/169 149/155/170 150/157/171 106/158/172
s 19
f 126/159/173 127/160/174 128/161/175 125/162/176
s 6
f 125/162/177 128/161/178 129/163/179 124/164/180
s 1
f 159/165/181 205/166/182 206/167/183 158/168/184
s 19
f 158/168/185 206/167/186 207/169/187 157/170/188
s 23
f 180/171/189 181/172/190 182/173/191 179/174/192
s 1
f 179/174/193 182/173/194 183/175/195 178/176/196
s 19
f 103/177/197 160/178/198 157/170/188 109/179/199
f 100/180/200 163/181/201 160/178/198 103/177/197
f 97/182/202 166/183/203 163/184/201 100/185/200
f 121/186/204 169/187/205 166/183/203 97/182/202
f 118/188/206 172/189/207 169/187/205 121/186/204
f 112/190/208 175/191/209 172/189/207 118/188/206
f 126/159/173 180/192/210 184/193/211 127/160/174
f 115/194/212 187/195/213 175/191/209 112/190/208
f 136/196/214 190/197/215 193/198/216 133/199/217
f 133/200/217 193/201/216 196/202/218 139/203/219
f 139/203/219 196/202/218 199/204/220 142/205/221
f 142/205/221 199/204/220 202/206/222 145/207/223
f 145/207/223 202/206/222 187/195/213 115/194/212
f 127/160/174 184/193/211 190/197/215 136/196/214
f 109/179/199 157/170/188 207/169/187 108/208/224
s 1
f 162/209/225 52/210/2 51/211/1 159/212/181
f 165/213/226 55/214/121 52/210/2 162/209/225
f 168/215/227 58/216/124 55/214/121 165/213/226
f 171/217/228 61/218/127 58/216/124 168/215/227
f 174/219/229 64/220/130 61/218/127 171/217/228
f 177/221/230 67/14/18 64/220/130 174/219/229
f 183/222/195 94/223/142 186/224/231 178/225/196
f 67/14/18 177/221/230 189/226/232 87/15/19
f 192/227/233 73/228/10 72/229/9 195/230/234
f 195/230/234 72/229/9 78/231/141 198/232/235
f 198/232/235 78/231/141 81/233/147 201/234/236
f 201/234/236 81/233/147 84/235/150 204/236/237
f 204/236/237 84/235/150 87/15/19 189/226/232
f 94/223/142 73/228/10 192/227/233 186/224/231
f 51/211/1 210/237/238 205/238/182 159/212/181
f 51/211/1 91/13/17 213/239/239 210/237/238
f 213/239/239 91/13/17 90/16/20 216/240/240
f 216/240/240 90/16/20 94/223/142 183/222/195
s 6
f 105/241/241 111/242/242 46/243/66 1/244/65
f 102/245/243 105/241/241 1/244/65 4/246/73
f 99/247/244 102/245/243 4/246/73 7/248/76
f 123/249/245 99/247/244 7/248/76 10/250/79
f 120/251/246 123/249/245 10/250/79 13/252/82
f 114/253/247 120/251/246 13/252/82 16/20/24
f 132/254/248 124/255/180 129/256/179 43/257/110
f 16/20/24 37/19/23 117/258/249 114/253/247
f 138/259/250 135/260/251 25/261/90 22/262/89
f 135/260/251 141/263/252 28/264/95 25/261/90
f 141/263/252 144/265/253 31/266/98 28/264/95
f 144/265/253 147/267/254 34/268/101 31/266/98
f 147/267/254 117/258/249 37/19/23 34/268/101
f 43/257/110 129/256/179 138/259/250 22/262/89
f 46/243/66 111/242/242 106/269/172 150/270/171
f 46/243/66 150/270/171 153/271/255 19/17/21
f 153/271/255 156/272/256 40/18/22 19/17/21
f 156/272/256 132/254/248 43/257/110 40/18/22
s 19
f 97/182/202 100/185/200 101/273/257 98/274/258
s 6
f 98/274/259 101/273/260 102/275/243 99/276/244
s 19
f 100/180/200 103/177/197 104/277/261 101/278/257
s 6
f 101/278/260 104/277/262 105/279/241 102/280/243
s 19
f 103/177/197 109/179/199 110/281/263 104/277/261
s 6
f 104/277/262 110/281/264 111/282/242 105/279/241
f 106/283/172 111/282/242 110/281/264 107/284/265
s 19
f 107/284/266 110/281/263 109/179/199 108/208/224
f 112/190/208 118/188/206 119/285/267 113/286/268
s 6
f 113/286/269 119/285/270 120/287/246 114/288/247
f 114/288/247 117/289/249 116/290/271 113/286/269
s 19
f 113/286/268 116/290/272 115/194/212 112/190/208
f 118/188/206 121/186/204 122/291/273 119/285/267
s 6
f 119/285/270 122/291/274 123/292/245 120/287/246
f 99/276/244 123/292/245 122/291/274 98/274/259
s 19
f 98/274/258 122/291/273 121/186/204 97/182/202
f 127/160/174 136/196/214 137/293/275 128/161/175
s 6
f 128/161/178 137/293/276 138/294/250 129/163/179
f 124/295/180 132/296/248 131/297/277 125/298/278
s 17
f 125/298/279 131/297/280 130/299/281 126/300/282
s 19
f 133/200/217 139/203/219 140/301/283 134/302/284
s 6
f 134/302/285 140/301/286 141/303/252 135/304/251
f 135/305/251 138/294/250 137/293/276 134/306/285
s 19
f 134/306/284 137/293/275 136/196/214 133/199/217
f 139/203/219 142/205/221 143/307/287 140/301/283
s 6
f 140/301/286 143/307/288 144/308/253 141/303/252
s 19
f 142/205/221 145/207/223 146/309/289 143/307/287
s 6
f 143/307/288 146/309/290 147/310/254 144/308/253
f 117/289/249 147/310/254 146/309/290 116/290/271
s 19
f 116/290/272 146/309/289 145/207/223 115/194/212
s 17
f 148/154/166 151/311/291 152/312/292 149/155/167
s 6
f 149/155/170 152/312/293 153/313/255 150/157/171
s 17
f 151/311/291 154/314/294 155/315/295 152/312/292
s 6
f 152/312/293 155/315/296 156/316/256 153/313/255
f 132/296/248 156/316/256 155/315/296 131/297/277
s 17
f 131/297/280 155/315/295 154/314/294 130/299/281
s 19
f 157/170/188 160/178/198 161/317/297 158/168/185
s 1
f 158/168/184 161/317/298 162/318/225 159/165/181
s 19
f 160/178/198 163/181/201 164/319/299 161/317/297
s 1
f 161/317/298 164/319/300 165/320/226 162/318/225
s 19
f 163/184/201 166/183/203 167/321/301 164/322/299
s 1
f 164/322/300 167/321/302 168/323/227 165/324/226
s 19
f 166/183/203 169/187/205 170/325/303 167/321/301
s 1
f 167/321/302 170/325/304 171/326/228 168/323/227
s 19
f 169/187/205 172/189/207 173/327/305 170/325/303
s 1
f 170/325/304 173/327/306 174/328/229 171/326/228
s 19
f 172/189/207 175/191/209 176/329/307 173/327/305
s 1
f 173/327/306 176/329/308 177/330/230 174/328/229
s 19
f 175/191/209 187/195/213 188/331/309 176/329/307
s 1
f 176/329/308 188/331/310 189/332/232 177/330/230
s 23
f 181/172/190 214/333/311 215/334/312 182/173/191
s 1
f 182/173/194 215/334/313 216/335/240 183/175/195
f 178/336/196 186/337/231 185/338/314 179/339/315
s 19
f 179/339/316 185/338/317 184/193/211 180/192/210
f 187/195/213 202/206/222 203/340/318 188/331/309
s 1
f 188/331/310 203/340/319 204/341/237 189/332/232
f 186/337/231 192/342/233 191/343/320 185/338/314
s 19
f 185/338/317 191/343/321 190/197/215 184/193/211
s 1
f 192/342/233 195/344/234 194/345/322 191/343/320
s 19
f 191/343/321 194/345/323 193/198/216 190/197/215
s 1
f 195/346/234 198/347/235 197/348/324 194/349/322
s 19
f 194/349/323 197/348/325 196/202/218 193/201/216
s 1
f 198/347/235 201/350/236 200/351/326 197/348/324
s 19
f 197/348/325 200/351/327 199/204/220 196/202/218
s 1
f 201/350/236 204/341/237 203/340/319 200/351/326
s 19
f 200/351/327 203/340/318 202/206/222 199/204/220
s 1
f 205/352/182 210/353/238 209/354/328 206/355/329
s 23
f 206/355/330 209/354/331 208/356/332 207/357/333
s 1
f 210/353/238 213/358/239 212/359/334 209/354/328
s 23
f 209/354/331 212/359/335 211/360/336 208/356/332
s 1
f 213/358/239 216/335/240 215/334/313 212/359/334
s 23
f 212/359/335 215/334/312 214/333/311 211/360/336
s off
f 108/153/337 207/357/338 208/356/339 211/360/340 214/333/341 181/172/342 180/171/343 126/300/344 130/299/345 154/314/346 151/311/347 148/154/348
f 234/361/349 233/362/350 235/363/351 236/364/352 237/365/353 238/366/354 239/367/355 240/368/356
f 218/369/357 219/370/358 220/371/359 221/372/360 222/373/361 223/374/362 224/375/363 217/376/364
f 218//365 217//366 225//367 226//368
f 217/377/369 224/378/370 227/379/371 225/380/372
f 224/381/373 223/382/374 228/383/375 227/384/376
f 223/385/377 222/386/378 229/387/379 228/388/380
f 222/386/381 221/389/382 230/390/383 229/387/384
f 221//385 220//386 231//387 230//388
f 220/391/389 219/392/390 232/393/391 231/394/392
f 219/392/393 218/395/394 226/396/395 232/393/396
s 28
f 226/397/397 225/398/398 233/399/399 234/400/400
s off
f 225/401/401 227/402/402 235/403/403 233/404/404
f 227/405/405 228/406/406 236/407/407 235/408/408
s 28
f 228/409/409 229/410/410 237/411/411 236/412/412
f 229/410/410 230/413/413 238/414/414 237/411/411
f 230/413/413 231/415/415 239/416/416 238/414/414
f 231/415/415 232/417/417 240/418/418 239/416/416
f 232/419/417 226/397/397 234/400/400 240/420/418
s off
f 258/421/419 264/422/420 263/423/421 262/424/422 261/425/423 260/426/424 259/427/425 257/428/426
f 242/429/427 241/430/428 248/431/429 247/432/430 246/433/431 245/434/432 244/435/433 243/436/434
f 242//435 250//436 249//437 241//438
f 241/437/439 249/438/440 251/439/441 248/440/442
f 248/441/443 251/442/444 252/443/445 247/444/446
f 247/445/447 252/446/448 253/447/449 246/448/450
f 246/448/451 253/447/452 254/449/453 245/450/454
f 245//455 254//456 255//457 244//458
f 244/451/459 255/452/460 256/453/461 243/454/462
f 243/455/463 256/456/464 250/457/465 242/458/466
s 30
f 250/459/467 258/460/468 257/461/469 249/462/470
s off
f 249/463/471 257/464/472 259/465/473 251/466/474
f 251/467/475 259/468/476 260/469/477 252/470/478
s 30
f 252/471/479 260/472/480 261/473/481 253/474/482
f 253/474/482 261/473/481 262/475/483 254/476/484
f 254/476/484 262/475/483 263/477/485 255/478/486
f 255/478/486 263/477/485 264/479/487 256/480/488
f 256/481/488 264/482/487 258/460/468 250/459/467
g default
v 2.152685 12.133635 -11.727686
v 2.136014 12.074436 -11.702318
v 2.129291 12.049920 -11.641192
v 3.164525 11.714515 -11.731283
v 3.133801 11.661141 -11.705863
v 3.121253 11.639034 -11.644716
v 4.034392 11.047040 -11.734376
v 3.990903 11.003460 -11.708913
v 3.973070 10.985412 -11.647747
v 4.701863 10.177171 -11.736748
v 4.648581 10.146356 -11.711246
v 4.626690 10.133592 -11.650067
v 5.121453 9.164183 -11.738237
v 5.062014 9.148229 -11.712719
v 5.037575 9.141622 -11.651528
v 5.240919 8.257369 -11.738665
v 5.171329 8.318470 -11.713108
v 5.142685 8.343781 -11.651903
v 1.518708 8.257369 -11.725435
v 1.579900 8.318470 -11.700341
v 1.605427 8.343781 -11.639328
v 2.152685 4.020591 -11.727686
v 2.136014 4.079785 -11.702318
v 2.129291 4.104304 -11.641192
v 3.164525 4.439710 -11.731283
v 3.133801 4.493083 -11.705863
v 3.121253 4.515190 -11.644716
v 4.034392 5.107184 -11.734376
v 3.990903 5.150764 -11.708913
v 3.973070 5.168815 -11.647747
v 4.701863 5.977054 -11.736748
v 4.648581 6.007868 -11.711246
v 4.626690 6.020633 -11.650067
v 5.121453 6.990041 -11.738237
v 5.062014 7.005996 -11.712719
v 5.037575 7.012603 -11.651528
v 5.240919 7.896854 -11.738665
v 5.171329 7.835753 -11.713108
v 5.142685 7.810444 -11.651903
v 1.518708 7.896854 -11.725435
v 1.579900 7.835753 -11.700341
v 1.605427 7.810444 -11.639328
v 1.518709 3.918827 -11.725434
v 1.579901 3.990519 -11.700341
v 1.605428 4.020215 -11.639330
v 1.518709 12.235398 -11.725434
v 1.579901 12.163705 -11.700341
v 1.605428 12.134010 -11.639330
v 1.606039 12.134010 -11.466472
v 1.580950 12.163705 -11.405280
v 1.519937 12.235395 -11.379755
v 2.153917 12.133633 -11.382007
v 2.137065 12.074439 -11.407256
v 2.129905 12.049922 -11.468333
v 3.165755 11.714515 -11.385605
v 3.134849 11.661141 -11.410806
v 3.121869 11.639034 -11.471861
v 4.035621 11.047040 -11.388699
v 3.991952 11.003460 -11.413850
v 3.973684 10.985412 -11.474889
v 4.703091 10.177171 -11.391070
v 4.649629 10.146356 -11.416189
v 4.627304 10.133592 -11.477211
v 5.122681 9.164183 -11.392560
v 5.063063 9.148229 -11.417658
v 5.038191 9.141622 -11.478672
v 5.242147 8.257369 -11.392986
v 5.172378 8.318470 -11.418047
v 5.143300 8.343781 -11.479045
v 3.121869 4.515190 -11.471861
v 3.134849 4.493083 -11.410806
v 3.165755 4.439710 -11.385605
v 2.153917 4.020591 -11.382007
v 2.137065 4.079785 -11.407256
v 2.129905 4.104304 -11.468333
v 3.973684 5.168815 -11.474889
v 3.991952 5.150764 -11.413850
v 4.035621 5.107184 -11.388699
v 4.627304 6.020633 -11.477211
v 4.649629 6.007868 -11.416189
v 4.703091 5.977054 -11.391070
v 5.038191 7.012603 -11.478672
v 5.063063 7.005996 -11.417658
v 5.122681 6.990041 -11.392560
v 5.143300 7.810444 -11.479045
v 5.172378 7.835753 -11.418048
v 5.242147 7.896854 -11.392986
v 1.606039 7.810444 -11.466472
v 1.580949 7.835753 -11.405281
v 1.519937 7.896854 -11.379755
v 1.519936 8.257369 -11.379754
v 1.580949 8.318470 -11.405281
v 1.606039 8.343781 -11.466472
v 1.519937 3.918827 -11.379755
v 1.580950 3.990519 -11.405280
v 1.606039 4.020215 -11.466472
v 4.301790 11.314135 -11.649672
v 4.283683 11.296242 -11.710174
v 4.240397 11.253044 -11.735107
v 3.353692 12.041636 -11.646300
v 3.340824 12.019722 -11.706822
v 3.310191 11.966817 -11.731801
v 2.249608 12.498962 -11.642377
v 2.242685 12.474586 -11.702920
v 2.226406 12.415737 -11.727947
v 1.150133 12.558847 -11.724124
v 1.089657 12.626805 -11.698819
v 1.064782 12.654955 -11.638165
v 1.605425 12.592558 -11.640088
v 1.601968 12.567677 -11.700641
v 1.594049 12.507612 -11.725699
v 5.652020 8.343782 -11.654472
v 5.626716 8.341540 -11.714949
v 5.566061 8.336127 -11.739821
v 5.652020 7.810444 -11.654472
v 5.626716 7.812685 -11.714949
v 5.566061 7.818098 -11.739821
v 5.486612 9.261945 -11.653884
v 5.462186 9.254838 -11.714363
v 5.403646 9.237683 -11.739242
v 5.029287 10.366035 -11.652258
v 5.007157 10.353382 -11.712746
v 4.954163 10.322836 -11.737644
v 1.150133 3.595377 -11.724124
v 1.089657 3.527420 -11.698819
v 1.064782 3.499270 -11.638165
v 1.605425 3.561666 -11.640088
v 1.601968 3.586546 -11.700641
v 1.594049 3.646611 -11.725699
v 1.064784 3.964155 -11.637953
v 1.089592 3.961658 -11.698758
v 1.149919 3.955629 -11.724122
v 3.353692 4.112588 -11.646300
v 3.340824 4.134501 -11.706822
v 3.310191 4.187406 -11.731801
v 2.249608 3.655262 -11.642377
v 2.242685 3.679638 -11.702920
v 2.226406 3.738488 -11.727947
v 4.301790 4.840090 -11.649672
v 4.283683 4.857983 -11.710174
v 4.240397 4.901179 -11.735107
v 5.029287 5.788192 -11.652258
v 5.007157 5.800843 -11.712746
v 4.954163 5.831388 -11.737644
v 5.486612 6.892282 -11.653884
v 5.462186 6.899387 -11.714363
v 5.403646 6.916542 -11.739242
v 1.064784 12.190069 -11.637953
v 1.089592 12.192568 -11.698758
v 1.149919 12.198595 -11.724122
v 1.064786 8.343781 -11.637408
v 1.089432 8.339052 -11.698598
v 1.149366 8.327631 -11.724118
v 1.064786 7.810444 -11.637408
v 1.089432 7.815173 -11.698598
v 1.149366 7.826592 -11.724118
v 1.606044 12.592558 -11.465713
v 1.603018 12.567677 -11.405137
v 1.595279 12.507612 -11.380021
v 2.250228 12.498962 -11.468005
v 2.243737 12.474586 -11.407415
v 2.227633 12.415737 -11.382271
v 3.354311 12.041636 -11.471930
v 3.341876 12.019722 -11.411320
v 3.311420 11.966817 -11.386125
v 4.302409 11.314135 -11.475300
v 4.284732 11.296242 -11.414671
v 4.241624 11.253044 -11.389430
v 5.029906 10.366035 -11.477885
v 5.008207 10.353382 -11.417242
v 4.955393 10.322836 -11.391966
v 5.487232 9.261945 -11.479511
v 5.463237 9.254838 -11.418859
v 5.404877 9.237683 -11.393564
v 5.652639 8.343782 -11.480101
v 5.627767 8.341540 -11.419443
v 5.567290 8.336127 -11.394141
v 1.151360 3.595377 -11.378445
v 1.090706 3.527420 -11.403317
v 1.065403 3.499270 -11.463791
v 1.065401 3.964155 -11.464005
v 1.090643 3.961658 -11.403378
v 1.151149 3.955629 -11.378445
v 1.606044 3.561666 -11.465713
v 1.603018 3.586546 -11.405137
v 1.595279 3.646611 -11.380021
v 5.652639 7.810444 -11.480101
v 5.627767 7.812685 -11.419443
v 5.567290 7.818098 -11.394141
v 2.250228 3.655262 -11.468005
v 2.243737 3.679638 -11.407415
v 2.227633 3.738488 -11.382271
v 3.354311 4.112588 -11.471930
v 3.341876 4.134501 -11.411320
v 3.311420 4.187406 -11.386125
v 4.302409 4.840090 -11.475300
v 4.284732 4.857983 -11.414671
v 4.241624 4.901179 -11.389430
v 5.029906 5.788192 -11.477885
v 5.008207 5.800843 -11.417242
v 4.955393 5.831388 -11.391966
v 5.487232 6.892282 -11.479511
v 5.463237 6.899387 -11.418859
v 5.404877 6.916542 -11.393564
v 1.151360 12.558847 -11.378445
v 1.090706 12.626805 -11.403317
v 1.065403 12.654955 -11.463791
v 1.065402 12.190069 -11.464005
v 1.090643 12.192568 -11.403378
v 1.151149 12.198595 -11.378445
v 1.065399 8.343781 -11.464552
v 1.090482 8.339052 -11.403539
v 1.150595 8.327631 -11.378441
v 1.065399 7.810444 -11.464552
v 1.090482 7.815173 -11.403539
v 1.150595 7.826592 -11.378441
v 1.605662 12.134010 -11.573085
v 2.129526 12.049920 -11.574947
v 3.121490 11.639034 -11.578473
v 3.973305 10.985412 -11.581499
v 4.626925 10.133592 -11.583823
v 5.037809 9.141622 -11.585282
v 5.142921 8.343781 -11.585657
v 1.605663 8.343781 -11.573085
v 1.605662 12.134010 -11.573085
v 2.129525 12.049920 -11.574947
v 1.605662 8.343781 -11.573085
v 5.142920 8.343781 -11.585657
v 5.037810 9.141622 -11.585282
v 4.626925 10.133592 -11.583823
v 3.973305 10.985412 -11.581501
v 3.121490 11.639034 -11.578471
v 1.605866 12.134010 -11.515471
v 2.129730 12.049920 -11.517333
v 1.605866 8.343781 -11.515471
v 5.143125 8.343781 -11.528044
v 5.038015 9.141622 -11.527669
v 4.627130 10.133592 -11.526210
v 3.973510 10.985412 -11.523888
v 3.121695 11.639034 -11.520860
v 1.605662 4.020215 -11.573085
v 2.129526 4.104304 -11.574947
v 3.121490 4.515190 -11.578473
v 3.973305 5.168815 -11.581499
v 4.626925 6.020633 -11.583823
v 5.037809 7.012603 -11.585282
v 5.142921 7.810444 -11.585657
v 1.605663 7.810444 -11.573085
v 1.605662 4.020215 -11.573085
v 2.129525 4.104304 -11.574947
v 1.605662 7.810444 -11.573085
v 5.142920 7.810444 -11.585657
v 5.037810 7.012603 -11.585282
v 4.626925 6.020633 -11.583823
v 3.973305 5.168815 -11.581501
v 3.121490 4.515190 -11.578471
v 1.605866 4.020215 -11.515471
v 2.129730 4.104304 -11.517333
v 1.605866 7.810444 -11.515471
v 5.143125 7.810444 -11.528044
v 5.038015 7.012603 -11.527669
v 4.627130 6.020633 -11.526210
v 3.973510 5.168815 -11.523888
v 3.121695 4.515190 -11.520860
vt 0.047526 0.514468
vt 0.049153 0.497965
vt 0.063984 0.496687
vt 0.064433 0.513012
vt 0.049822 0.458404
vt 0.063793 0.457201
vt 0.091418 0.290986
vt 0.090594 0.307278
vt 0.063984 0.304984
vt 0.064433 0.288660
vt 0.090248 0.346750
vt 0.063793 0.344470
vt 0.632919 0.143963
vt 0.632919 0.134348
vt 0.732187 0.134348
vt 0.732187 0.143963
vt 0.632919 0.134348
vt 0.732187 0.134348
vt 0.732187 0.143963
vt 0.632919 0.143963
vt 0.049806 0.346651
vt 0.063777 0.345447
vt 0.090231 0.343169
vt 0.090248 0.454921
vt 0.113542 0.454224
vt 0.096110 0.456184
vt 0.096110 0.344432
vt 0.113542 0.342473
vt 0.073393 0.457685
vt 0.073393 0.345932
vt 0.046938 0.458629
vt 0.046938 0.346877
vt 0.025660 0.458871
vt 0.025660 0.347119
vt 0.090231 0.458502
vt 0.063777 0.456224
vt 0.042801 0.456184
vt 0.025369 0.454224
vt 0.025369 0.342473
vt 0.042801 0.344432
vt 0.065518 0.457685
vt 0.065518 0.345932
vt 0.091973 0.458629
vt 0.091973 0.346877
vt 0.113250 0.458871
vt 0.113250 0.347119
vt 0.412319 0.095976
vt 0.317984 0.087846
vt 0.317968 0.199598
vt 0.412303 0.207727
vt 0.281436 0.202432
vt 0.187100 0.194303
vt 0.187116 0.082551
vt 0.281452 0.090680
vt 0.049806 0.455019
vt 0.049822 0.343266
vt 0.650152 0.332458
vt 0.751234 0.332457
vt 0.751234 0.444210
vt 0.650152 0.444209
vt 0.650551 0.332457
vt 0.751633 0.332458
vt 0.751633 0.444209
vt 0.650551 0.444210
vt 0.064400 0.289530
vt 0.063956 0.305929
vt 0.049125 0.307207
vt 0.047493 0.290985
vt 0.090566 0.303637
vt 0.091385 0.287204
vt 0.114131 0.493757
vt 0.096592 0.495728
vt 0.115555 0.510190
vt 0.097754 0.512190
vt 0.073734 0.497238
vt 0.074555 0.513724
vt 0.047114 0.498189
vt 0.047540 0.514687
vt 0.024985 0.498441
vt 0.023356 0.514963
vt 0.282199 0.242002
vt 0.186419 0.233747
vt 0.284055 0.258524
vt 0.184788 0.249970
vt 0.064400 0.512141
vt 0.063956 0.495742
vt 0.090566 0.498034
vt 0.091385 0.514468
vt 0.023356 0.510190
vt 0.024780 0.493757
vt 0.042319 0.495728
vt 0.041157 0.512190
vt 0.065177 0.497238
vt 0.064356 0.513724
vt 0.091797 0.498189
vt 0.091371 0.514687
vt 0.113925 0.498441
vt 0.115555 0.514963
vt 0.315364 0.031755
vt 0.317220 0.048277
vt 0.413000 0.056531
vt 0.414632 0.040308
vt 0.753938 0.276790
vt 0.752308 0.293013
vt 0.649759 0.293013
vt 0.647847 0.276790
vt 0.049125 0.494463
vt 0.047493 0.510686
vt 0.649477 0.293013
vt 0.752026 0.293013
vt 0.647847 0.276790
vt 0.753938 0.276790
vt 0.090594 0.494393
vt 0.091418 0.510685
vt 0.115555 0.286709
vt 0.114131 0.303001
vt 0.096592 0.304970
vt 0.097754 0.288709
vt 0.073734 0.306481
vt 0.074555 0.290242
vt 0.047114 0.307431
vt 0.047540 0.291206
vt 0.024985 0.307683
vt 0.023356 0.291482
vt 0.284088 0.035043
vt 0.282228 0.051244
vt 0.186448 0.042990
vt 0.184820 0.026487
vt 0.024780 0.303001
vt 0.042319 0.304970
vt 0.023356 0.286709
vt 0.041157 0.288709
vt 0.049153 0.303706
vt 0.047526 0.287203
vt 0.065177 0.306481
vt 0.064356 0.290242
vt 0.091797 0.307431
vt 0.091371 0.291206
vt 0.113925 0.307683
vt 0.115555 0.291482
vt 0.317192 0.239034
vt 0.412972 0.247288
vt 0.315332 0.255235
vt 0.414599 0.263790
vt 0.752026 0.483770
vt 0.649477 0.483770
vt 0.753938 0.500273
vt 0.647847 0.500273
vt 0.752308 0.483770
vt 0.649759 0.483770
vt 0.753938 0.500272
vt 0.647847 0.500273
vt 0.407824 0.555825
vt 0.368610 0.555075
vt 0.368649 0.543494
vt 0.407960 0.543427
vt 0.352251 0.553262
vt 0.352251 0.543655
vt 0.839195 0.089091
vt 0.839858 0.049878
vt 0.853521 0.048700
vt 0.853613 0.087847
vt 0.841471 0.033518
vt 0.853310 0.032500
vt 0.853343 0.029573
vt 0.853549 0.045812
vt 0.839886 0.044635
vt 0.841504 0.028555
vt 0.853630 0.084974
vt 0.839211 0.083731
vt 0.520556 0.311652
vt 0.559653 0.312403
vt 0.559613 0.323983
vt 0.520418 0.324050
vt 0.575732 0.314215
vt 0.575733 0.323823
vt 0.870793 0.199187
vt 0.853613 0.197707
vt 0.870810 0.086455
vt 0.900238 0.201723
vt 0.900254 0.088992
vt 0.783397 0.198828
vt 0.763994 0.196648
vt 0.763994 0.083917
vt 0.783397 0.086096
vt 0.808681 0.200500
vt 0.808681 0.087768
vt 0.838126 0.201551
vt 0.838126 0.088820
vt 0.862613 0.201931
vt 0.862613 0.089200
vt 0.853630 0.200581
vt 0.839211 0.201823
vt 0.876836 0.201931
vt 0.876836 0.089200
vt 0.870793 0.086367
vt 0.900238 0.083831
vt 0.900254 0.196562
vt 0.870810 0.199099
vt 0.975455 0.196648
vt 0.956053 0.198828
vt 0.956053 0.086096
vt 0.975455 0.083917
vt 0.930768 0.200500
vt 0.930768 0.087768
vt 0.901323 0.201551
vt 0.901323 0.088820
vt 0.839195 0.196463
vt 0.651792 0.254863
vt 0.634928 0.257313
vt 0.632919 0.250053
vt 0.649827 0.247339
vt 0.680696 0.242890
vt 0.676811 0.236162
vt 0.705504 0.223855
vt 0.700010 0.218361
vt 0.724539 0.199047
vt 0.717810 0.195162
vt 0.736527 0.170107
vt 0.729001 0.168147
vt 0.740858 0.146063
vt 0.623084 0.029239
vt 0.623089 0.019632
vt 0.634928 0.020998
vt 0.632919 0.028258
vt 0.740858 0.132248
vt 0.651792 0.023448
vt 0.680696 0.035421
vt 0.676811 0.042149
vt 0.649827 0.030972
vt 0.705504 0.054456
vt 0.700010 0.059950
vt 0.724539 0.079264
vt 0.717810 0.083149
vt 0.736527 0.108204
vt 0.729001 0.110164
vt 0.623089 0.258679
vt 0.623084 0.249071
vt 0.623069 0.145836
vt 0.623069 0.132474
vt 0.651792 0.023448
vt 0.649826 0.030972
vt 0.632919 0.028258
vt 0.634928 0.020998
vt 0.680696 0.035421
vt 0.676811 0.042149
vt 0.705504 0.054456
vt 0.700010 0.059950
vt 0.724539 0.079264
vt 0.717810 0.083148
vt 0.736527 0.108204
vt 0.729001 0.110164
vt 0.740858 0.132247
vt 0.623084 0.249071
vt 0.632919 0.250053
vt 0.634928 0.257313
vt 0.623089 0.258679
vt 0.740858 0.146063
vt 0.651792 0.254863
vt 0.649826 0.247339
vt 0.676811 0.236162
vt 0.680696 0.242890
vt 0.700010 0.218361
vt 0.705504 0.223855
vt 0.717810 0.195162
vt 0.724539 0.199047
vt 0.729001 0.168147
vt 0.736527 0.170107
vt 0.623084 0.029239
vt 0.623089 0.019632
vt 0.623069 0.132475
vt 0.623069 0.145836
vt 0.783873 0.237943
vt 0.764579 0.235776
vt 0.785025 0.254062
vt 0.765990 0.251925
vt 0.899895 0.240851
vt 0.870608 0.238328
vt 0.899078 0.257000
vt 0.870174 0.254508
vt 0.853521 0.236855
vt 0.853310 0.253055
vt 0.841471 0.252036
vt 0.839858 0.235677
vt 0.862673 0.241030
vt 0.838316 0.240652
vt 0.862817 0.257110
vt 0.838773 0.256736
vt 0.876776 0.241030
vt 0.876633 0.257110
vt 0.809019 0.239605
vt 0.809833 0.255703
vt 0.870608 0.047226
vt 0.870174 0.031046
vt 0.352251 0.314215
vt 0.368610 0.312403
vt 0.368649 0.323983
vt 0.352251 0.323823
vt 0.407824 0.311652
vt 0.407960 0.324050
vt 0.974870 0.235776
vt 0.955576 0.237943
vt 0.973459 0.251925
vt 0.954424 0.254062
vt 0.899078 0.028555
vt 0.899895 0.044703
vt 0.930430 0.239605
vt 0.929616 0.255703
vt 0.901133 0.240652
vt 0.900676 0.256736
vt 0.368753 0.440724
vt 0.408312 0.440851
vt 0.352254 0.440420
vt 0.368753 0.426753
vt 0.408312 0.426627
vt 0.352254 0.427058
vt 0.870636 0.047284
vt 0.870207 0.031028
vt 0.899923 0.049808
vt 0.899110 0.033520
vt 0.764579 0.044733
vt 0.783873 0.046900
vt 0.765990 0.028444
vt 0.785025 0.030582
vt 0.809019 0.048562
vt 0.809833 0.032221
vt 0.838316 0.049608
vt 0.838773 0.033255
vt 0.862673 0.049985
vt 0.862817 0.033627
vt 0.876776 0.049985
vt 0.876633 0.033627
vt 0.559509 0.426753
vt 0.520064 0.426627
vt 0.575735 0.427058
vt 0.841504 0.257000
vt 0.839886 0.240920
vt 0.853549 0.239743
vt 0.853343 0.255981
vt 0.901133 0.049608
vt 0.900676 0.033255
vt 0.870636 0.238271
vt 0.870207 0.254526
vt 0.899923 0.235746
vt 0.899110 0.252035
vt 0.973459 0.028444
vt 0.974870 0.044733
vt 0.955576 0.046900
vt 0.954424 0.030582
vt 0.930430 0.048562
vt 0.929616 0.032221
vt 0.575732 0.553262
vt 0.559653 0.555075
vt 0.559613 0.543494
vt 0.575733 0.543655
vt 0.520556 0.555825
vt 0.520418 0.543427
vt 0.559509 0.440724
vt 0.575735 0.440420
vt 0.520064 0.440851
vt 0.732032 0.984775
vt 0.700866 0.989778
vt 0.700867 0.764292
vt 0.911302 0.764292
vt 0.905049 0.811757
vt 0.880605 0.870770
vt 0.841720 0.921446
vt 0.791045 0.960331
vt 0.261657 0.538776
vt 0.320670 0.563220
vt 0.371346 0.602105
vt 0.410231 0.652780
vt 0.434674 0.711794
vt 0.440928 0.759258
vt 0.230492 0.759258
vt 0.230492 0.533772
vt 0.082501 0.124695
vt 0.085188 0.155860
vt 0.085187 0.155860
vt 0.082500 0.124695
vt 0.083843 0.253020
vt 0.083843 0.027535
vt 0.083844 0.027535
vt 0.083844 0.253020
vt 0.074778 0.245495
vt 0.092910 0.035059
vt 0.092910 0.035059
vt 0.074779 0.245495
vt 0.130568 0.042258
vt 0.130029 0.089723
vt 0.130028 0.089723
vt 0.130568 0.042258
vt 0.127924 0.148736
vt 0.127923 0.148736
vt 0.079985 0.095497
vt 0.083336 0.146173
vt 0.083335 0.146173
vt 0.079986 0.095497
vt 0.087702 0.185058
vt 0.087703 0.185058
vt 0.128927 0.185706
vt 0.069914 0.180623
vt 0.069914 0.180623
vt 0.128927 0.185706
vt 0.038749 0.177936
vt 0.038761 0.094849
vt 0.069926 0.097533
vt 0.042300 0.253020
vt 0.042300 0.027535
vt 0.125388 0.027535
vt 0.125387 0.253020
vt 0.051365 0.245501
vt 0.033235 0.035065
vt 0.116322 0.035053
vt 0.134453 0.245489
vt 0.046940 0.089723
vt 0.047480 0.042258
vt 0.044836 0.148736
vt 0.124574 0.199412
vt 0.041487 0.199412
vt 0.120207 0.238297
vt 0.037120 0.238297
vt 0.128939 0.102619
vt 0.731560 0.540577
vt 0.790573 0.565021
vt 0.841248 0.603906
vt 0.880133 0.654582
vt 0.904577 0.713595
vt 0.910830 0.761059
vt 0.700395 0.761059
vt 0.700394 0.535574
vt 0.261940 0.983945
vt 0.230775 0.988949
vt 0.230775 0.763463
vt 0.441211 0.763463
vt 0.434958 0.810928
vt 0.410514 0.869941
vt 0.371629 0.920616
vt 0.320954 0.959501
vt 0.085188 0.124694
vt 0.085188 0.124694
vt 0.082501 0.155861
vt 0.082500 0.155861
vt 0.083843 0.027535
vt 0.083845 0.027535
vt 0.083845 0.253020
vt 0.083843 0.253020
vt 0.092910 0.245495
vt 0.092909 0.245495
vt 0.074778 0.035059
vt 0.074778 0.035059
vt 0.130568 0.238297
vt 0.130568 0.238297
vt 0.130028 0.190832
vt 0.130029 0.190832
vt 0.127923 0.131819
vt 0.127924 0.131819
vt 0.079985 0.185058
vt 0.079986 0.185058
vt 0.083335 0.134382
vt 0.083336 0.134382
vt 0.087703 0.095497
vt 0.087702 0.095497
vt 0.128927 0.094850
vt 0.128927 0.094850
vt 0.069914 0.099933
vt 0.069914 0.099933
vt 0.069926 0.183022
vt 0.038761 0.185705
vt 0.038749 0.102619
vt 0.042301 0.027535
vt 0.125387 0.027535
vt 0.125388 0.253020
vt 0.042301 0.253020
vt 0.116322 0.245501
vt 0.033235 0.245489
vt 0.051365 0.035054
vt 0.134453 0.035065
vt 0.047480 0.238297
vt 0.046941 0.190832
vt 0.044836 0.131819
vt 0.041487 0.081143
vt 0.124574 0.081143
vt 0.037120 0.042258
vt 0.120207 0.042258
vt 0.128939 0.177936
vn 0.028768 -0.003932 0.999578
vn -0.057368 -0.377846 0.924090
vn -0.112674 -0.362545 0.925130
vn -0.015079 -0.058235 0.998189
vn -0.145061 -0.912211 0.383182
vn -0.156683 -0.979004 0.130393
vn -0.307713 -0.944805 0.112498
vn -0.283900 -0.877874 0.385665
vn -0.026660 0.052318 0.998275
vn -0.186662 0.328974 0.925707
vn -0.112675 0.362544 0.925131
vn -0.015079 0.058235 0.998189
vn -0.459989 0.799087 0.387130
vn -0.496500 0.860651 0.112991
vn -0.307712 0.944806 0.112498
vn -0.283897 0.877865 0.385689
vn 0.020663 0.015994 0.999659
vn 0.020664 -0.015996 0.999659
vn -0.002018 -0.022731 0.999740
vn -0.002018 0.022729 0.999740
vn 0.013554 0.015995 -0.999780
vn -0.009125 0.022731 -0.999700
vn -0.009125 -0.022731 -0.999700
vn 0.013554 -0.015995 -0.999780
vn -0.157608 -0.979006 -0.129254
vn -0.308506 -0.944807 -0.110289
vn -0.497290 -0.860654 -0.109444
vn -0.496501 -0.860651 0.112986
vn -0.703110 -0.702720 -0.108726
vn -0.702318 -0.702721 0.113722
vn -0.861042 -0.496896 -0.108167
vn -0.860250 -0.496899 0.114287
vn -0.955315 -0.275002 -0.108389
vn -0.954519 -0.275001 0.115182
vn -0.983671 -0.129533 -0.124953
vn -0.982757 -0.129532 0.131949
vn -0.497289 0.860652 -0.109457
vn -0.308504 0.944806 -0.110307
vn -0.703109 0.702719 -0.108734
vn -0.702317 0.702721 0.113728
vn -0.861042 0.496897 -0.108171
vn -0.860249 0.496899 0.114290
vn -0.955314 0.275002 -0.108390
vn -0.954519 0.275001 0.115183
vn -0.983670 0.129533 -0.124954
vn -0.982757 0.129531 0.131948
vn -0.000446 -0.992109 -0.125379
vn -0.000453 -0.991851 -0.127402
vn 0.000453 -0.991851 0.127404
vn 0.000446 -0.992109 0.125382
vn -0.000453 0.991850 -0.127410
vn -0.000446 0.992108 -0.125388
vn 0.000446 0.992107 0.125392
vn 0.000453 0.991850 0.127414
vn -0.157607 0.979004 -0.129276
vn -0.156684 0.979004 0.130391
vn 0.991662 -0.000000 -0.128866
vn 0.991337 -0.000000 -0.131343
vn 0.992245 -0.000000 0.124300
vn 0.992552 -0.000000 0.121821
vn 0.991337 0.000000 -0.131344
vn 0.991662 0.000000 -0.128864
vn 0.992552 0.000000 0.121819
vn 0.992245 0.000000 0.124300
vn -0.022175 -0.058235 -0.998057
vn -0.119246 -0.362533 -0.924311
vn -0.063931 -0.377824 -0.923668
vn 0.021658 -0.003931 -0.999758
vn -0.286634 -0.877874 -0.383639
vn -0.147789 -0.912213 -0.382133
vn -0.462734 -0.799094 -0.383830
vn -0.033760 -0.052320 -0.998060
vn -0.193249 -0.328974 -0.924354
vn -0.653830 -0.652458 -0.383152
vn -0.046279 -0.042729 -0.998014
vn -0.271909 -0.268617 -0.924073
vn -0.800464 -0.461353 -0.382638
vn -0.055862 -0.030203 -0.997982
vn -0.332271 -0.189942 -0.923861
vn -0.888268 -0.254653 -0.382273
vn -0.059908 -0.015967 -0.998076
vn -0.368802 -0.103560 -0.923721
vn -0.917326 -0.120675 -0.379407
vn -0.382661 -0.049980 -0.922536
vn -0.001361 0.923872 -0.382699
vn -0.001361 0.923872 -0.382699
vn -0.003284 0.382699 -0.923867
vn -0.003284 0.382699 -0.923867
vn -0.022176 0.058236 -0.998057
vn -0.119251 0.362548 -0.924304
vn -0.193250 0.328981 -0.924352
vn -0.033758 0.052321 -0.998060
vn -0.286628 0.877864 -0.383666
vn -0.462729 0.799085 -0.383856
vn -0.271909 0.268621 -0.924072
vn -0.046276 0.042729 -0.998014
vn -0.653817 0.652454 -0.383180
vn -0.332268 0.189944 -0.923861
vn -0.055861 0.030203 -0.997982
vn -0.800456 0.461353 -0.382655
vn -0.368803 0.103561 -0.923721
vn -0.059909 0.015968 -0.998076
vn -0.888265 0.254654 -0.382280
vn -0.382675 0.049980 -0.922530
vn -0.917323 0.120676 -0.379416
vn -0.003284 -0.382702 -0.923866
vn -0.003284 -0.382702 -0.923866
vn -0.001361 -0.923881 -0.382678
vn -0.001361 -0.923881 -0.382678
vn 0.379424 -0.000000 -0.925223
vn 0.379424 -0.000000 -0.925223
vn 0.021657 0.003931 -0.999758
vn 0.922513 0.000000 -0.385965
vn 0.922513 0.000000 -0.385965
vn -0.147782 0.912200 -0.382168
vn -0.063938 0.377846 -0.923658
vn 0.922513 -0.000000 -0.385965
vn 0.922514 -0.000000 -0.385965
vn 0.379424 0.000000 -0.925223
vn 0.379424 0.000000 -0.925223
vn -0.186661 -0.328972 0.925708
vn -0.026660 -0.052318 0.998275
vn -0.459997 -0.799097 0.387100
vn -0.265316 -0.268601 0.925992
vn -0.039180 -0.042727 0.998318
vn -0.651084 -0.652464 0.387789
vn -0.325690 -0.189931 0.926203
vn -0.048765 -0.030202 0.998354
vn -0.797716 -0.461361 0.388323
vn -0.362240 -0.103563 0.926314
vn -0.052810 -0.015968 0.998477
vn -0.885528 -0.254655 0.388576
vn -0.376123 -0.049985 0.925220
vn -0.914607 -0.120674 0.385917
vn 0.003284 0.382687 0.923872
vn 0.003284 0.382687 0.923872
vn 0.001360 0.923865 0.382717
vn 0.001360 0.923865 0.382717
vn -0.651074 0.652461 0.387810
vn -0.039179 0.042727 0.998318
vn -0.265317 0.268603 0.925991
vn -0.057370 0.377835 0.924094
vn 0.028768 0.003932 0.999578
vn -0.145063 0.912204 0.383199
vn -0.797712 0.461362 0.388331
vn -0.048764 0.030202 0.998354
vn -0.325692 0.189932 0.926202
vn -0.885527 0.254655 0.388577
vn -0.052810 0.015968 0.998477
vn -0.362241 0.103563 0.926313
vn -0.914609 0.120671 0.385914
vn -0.376123 0.049987 0.925220
vn 0.001360 -0.923875 0.382692
vn 0.001360 -0.923875 0.382692
vn 0.003284 -0.382690 0.923871
vn 0.003284 -0.382690 0.923871
vn 0.925244 -0.000000 0.379372
vn 0.925244 -0.000000 0.379372
vn 0.385948 -0.000000 0.922520
vn 0.385948 -0.000000 0.922520
vn 0.925242 0.000000 0.379378
vn 0.925242 0.000000 0.379378
vn 0.385962 0.000000 0.922515
vn 0.385962 0.000000 0.922515
vn -0.925562 -0.000050 -0.378595
vn -0.925562 -0.000050 -0.378595
vn -0.926619 -0.000019 -0.376001
vn -0.926630 -0.000019 -0.375974
vn -0.386783 0.000063 -0.922171
vn -0.068144 0.090203 -0.993590
vn -0.057171 0.000003 -0.998364
vn -0.389425 0.000020 -0.921058
vn 0.113961 -0.989995 -0.083199
vn 0.104562 -0.917785 -0.383063
vn 0.119394 -0.915939 -0.383145
vn 0.129482 -0.985972 -0.105324
vn 0.040591 -0.380172 -0.924025
vn -0.068139 -0.090202 -0.993590
vn 0.006208 -0.073618 -0.997267
vn 0.046968 -0.379329 -0.924069
vn 0.013298 0.073616 0.997198
vn 0.053540 0.379344 0.923706
vn 0.047160 0.380173 0.923712
vn -0.061073 0.090199 0.994049
vn 0.122111 0.915929 0.382312
vn 0.130227 0.985972 0.104408
vn 0.114551 0.989995 0.082390
vn 0.107284 0.917779 0.382325
vn -0.922849 0.000052 0.385162
vn -0.922849 0.000052 0.385162
vn -0.923916 0.000020 0.382596
vn -0.923927 0.000019 0.382570
vn -0.380157 -0.000061 0.924922
vn -0.061069 -0.090199 0.994050
vn -0.050066 -0.000003 0.998746
vn -0.382879 -0.000020 0.923798
vn 0.298541 0.948562 -0.105370
vn 0.129481 0.985972 -0.105326
vn 0.299281 0.948562 0.103249
vn 0.496895 0.861301 -0.106098
vn 0.497636 0.861301 0.102564
vn 0.702872 0.703248 -0.106828
vn 0.703613 0.703249 0.101831
vn 0.860925 0.497266 -0.107402
vn 0.861665 0.497267 0.101283
vn 0.950100 0.292695 -0.107888
vn 0.950843 0.292695 0.101132
vn 0.987739 0.112619 -0.108118
vn 0.988482 0.112619 0.101092
vn 0.130226 -0.985972 0.104402
vn 0.114549 -0.989995 0.082388
vn 0.987739 -0.112619 -0.108117
vn 0.988483 -0.112619 0.101091
vn 0.298542 -0.948562 -0.105370
vn 0.496894 -0.861301 -0.106099
vn 0.497635 -0.861301 0.102566
vn 0.299281 -0.948563 0.103245
vn 0.702872 -0.703249 -0.106829
vn 0.703613 -0.703248 0.101834
vn 0.860925 -0.497266 -0.107400
vn 0.861666 -0.497267 0.101281
vn 0.950100 -0.292695 -0.107886
vn 0.950844 -0.292694 0.101128
vn 0.113962 0.989995 -0.083201
vn 0.028411 0.078918 0.996476
vn 0.045304 0.072338 0.996351
vn 0.062589 0.059047 0.996291
vn 0.075871 0.041751 0.996243
vn 0.078832 0.023187 0.996618
vn 0.077493 0.008448 0.996957
vn 0.013296 -0.073617 0.997198
vn 0.077495 -0.008448 0.996957
vn 0.028412 -0.078918 0.996476
vn 0.045305 -0.072338 0.996351
vn 0.062589 -0.059048 0.996291
vn 0.075870 -0.041752 0.996243
vn 0.078832 -0.023187 0.996618
vn -0.050068 0.000003 0.998746
vn -0.046859 0.000002 0.998902
vn -0.046859 -0.000002 0.998902
vn 0.021324 0.078914 -0.996653
vn 0.006209 0.073618 -0.997267
vn 0.038216 0.072335 -0.996648
vn 0.055504 0.059048 -0.996711
vn 0.068784 0.041750 -0.996758
vn 0.071739 0.023186 -0.997154
vn 0.070401 0.008450 -0.997483
vn -0.057171 -0.000003 -0.998364
vn 0.070404 -0.008450 -0.997483
vn 0.021324 -0.078913 -0.996653
vn 0.038220 -0.072335 -0.996648
vn 0.055506 -0.059048 -0.996711
vn 0.068782 -0.041750 -0.996758
vn 0.071739 -0.023186 -0.997154
vn -0.053963 0.000002 -0.998543
vn -0.053965 -0.000002 -0.998543
vn 0.651082 0.652453 -0.387810
vn 0.459982 0.799095 -0.387123
vn 0.265323 0.268615 -0.925986
vn 0.186633 0.328985 -0.925709
vn 0.276019 0.880250 -0.385972
vn 0.111026 0.362782 -0.925237
vn 0.119390 0.915936 -0.383154
vn 0.046968 0.379331 -0.924068
vn 0.040595 0.380170 -0.924025
vn 0.104562 0.917781 -0.383072
vn 0.916060 0.104608 -0.387157
vn 0.880848 0.271679 -0.387683
vn 0.375733 0.043304 -0.925716
vn 0.360670 0.112091 -0.925934
vn 0.375733 -0.043304 -0.925716
vn 0.916062 -0.104607 -0.387153
vn 0.797721 0.461337 -0.388342
vn 0.325711 0.189913 -0.926200
vn 0.276021 -0.880250 -0.385969
vn 0.111031 -0.362781 -0.925236
vn -0.386752 -0.000063 -0.922184
vn -0.389422 -0.000020 -0.921059
vn -0.925563 0.000050 -0.378595
vn -0.925563 0.000050 -0.378595
vn -0.926630 0.000019 -0.375974
vn -0.926619 0.000019 -0.376001
vn 0.459976 -0.799096 -0.387129
vn 0.651081 -0.652452 -0.387815
vn 0.186644 -0.328988 -0.925706
vn 0.265327 -0.268619 -0.925984
vn 0.797722 -0.461338 -0.388338
vn 0.325706 -0.189913 -0.926201
vn 0.880849 -0.271681 -0.387678
vn 0.360668 -0.112090 -0.925934
vn -0.926857 -0.000013 -0.375414
vn -0.926841 -0.000014 -0.375454
vn -0.389869 0.000015 -0.920870
vn -0.926857 0.000013 -0.375414
vn -0.926841 0.000014 -0.375454
vn -0.389869 -0.000015 -0.920870
vn 0.278750 0.880245 0.384014
vn 0.117614 0.362790 0.924419
vn 0.462719 0.799092 0.383854
vn 0.193214 0.328982 0.924359
vn 0.653820 0.652452 0.383179
vn 0.271902 0.268613 0.924076
vn 0.800458 0.461340 0.382665
vn 0.332301 0.189921 0.923854
vn 0.883584 0.271679 0.381406
vn 0.367260 0.112096 0.923339
vn 0.918799 0.104607 0.380612
vn 0.382304 0.043303 0.923021
vn 0.918800 -0.104608 0.380611
vn 0.382304 -0.043303 0.923021
vn -0.924157 0.000014 0.382012
vn -0.924141 0.000014 0.382052
vn -0.383335 -0.000015 0.923609
vn 0.047159 -0.380172 0.923713
vn 0.053539 -0.379344 0.923705
vn 0.107280 -0.917782 0.382319
vn 0.122112 -0.915936 0.382296
vn 0.883589 -0.271680 0.381392
vn 0.367260 -0.112096 0.923339
vn 0.117618 -0.362793 0.924417
vn 0.278748 -0.880251 0.384003
vn 0.193221 -0.328988 0.924355
vn 0.462716 -0.799093 0.383854
vn 0.271902 -0.268619 0.924074
vn 0.653819 -0.652450 0.383183
vn 0.332298 -0.189922 0.923855
vn 0.800462 -0.461340 0.382656
vn -0.380189 0.000061 0.924909
vn -0.382882 0.000020 0.923797
vn -0.922850 -0.000052 0.385159
vn -0.922850 -0.000052 0.385159
vn -0.923926 -0.000019 0.382571
vn -0.923915 -0.000020 0.382597
vn -0.383335 0.000015 0.923609
vn -0.924140 -0.000014 0.382054
vn -0.924157 -0.000014 0.382014
vn -0.999994 -0.000000 0.003550
vn -0.999994 -0.000000 0.003550
vn -0.999994 -0.000000 0.003550
vn -0.999994 -0.000000 0.003550
vn -0.999994 -0.000000 0.003550
vn -0.999994 -0.000000 0.003550
vn -0.999994 -0.000000 0.003550
vn -0.999994 -0.000000 0.003550
vn -0.999994 -0.000000 0.003550
vn -0.999994 -0.000000 0.003550
vn -0.999994 -0.000000 0.003550
vn -0.999994 -0.000000 0.003550
vn 0.003555 0.000000 0.999994
vn 0.003555 0.000000 0.999994
vn 0.003555 0.000000 0.999994
vn 0.003555 0.000000 0.999994
vn 0.003555 0.000000 0.999994
vn 0.003555 0.000000 0.999994
vn 0.003555 0.000000 0.999994
vn 0.003555 0.000000 0.999994
vn -0.003554 -0.000000 -0.999994
vn -0.003554 -0.000000 -0.999994
vn -0.003554 -0.000000 -0.999994
vn -0.003554 -0.000000 -0.999994
vn -0.003554 -0.000000 -0.999994
vn -0.003554 -0.000000 -0.999994
vn -0.003554 -0.000000 -0.999994
vn -0.003554 -0.000000 -0.999994
vn 0.000000 -0.029331 -0.999570
vn 0.000000 -0.029331 -0.999570
vn 0.000000 -0.029331 -0.999570
vn 0.000000 -0.029331 -0.999570
vn 0.000000 0.000000 -1.000000
vn 0.000000 0.000000 -1.000000
vn 0.000000 0.000000 -1.000000
vn 0.000000 0.000000 -1.000000
vn 0.000000 0.060489 -0.998169
vn 0.000000 0.000000 -0.000000
vn 0.000000 0.060489 -0.998169
vn 0.000000 0.000000 -0.000000
vn 0.000000 -0.000710 1.000000
vn 0.000000 -0.000710 1.000000
vn 0.000000 -0.000710 1.000000
vn 0.000000 -0.000710 1.000000
vn 0.000000 0.001362 -0.999999
vn 0.000000 0.000000 -0.000000
vn 0.000000 0.000000 -0.000000
vn 0.000000 0.001362 -0.999999
vn -0.000000 -0.000000 0.000000
vn -0.950432 -0.310932 0.000000
vn -0.950432 -0.310932 0.000000
vn -0.000000 -0.000000 0.000000
vn 0.000000 0.000655 -1.000000
vn 0.000000 0.000655 -1.000000
vn 0.000000 0.000655 -1.000000
vn 0.000000 0.000655 -1.000000
vn 0.000000 0.805426 0.592696
vn 0.000000 0.805426 0.592696
vn 0.000000 0.805426 0.592696
vn 0.000000 0.805426 0.592696
vn 0.310407 0.950603 -0.001106
vn 0.158491 0.987360 -0.000570
vn 0.158491 0.987360 -0.000570
vn 0.310408 0.950603 -0.001106
vn -0.999994 -0.000000 0.003545
vn -0.999994 -0.000000 0.003545
vn -0.999994 -0.000000 0.003545
vn -0.999994 -0.000000 0.003545
vn 0.000000 -1.000000 -0.000001
vn 0.000000 -1.000000 -0.000001
vn 0.000000 -1.000000 -0.000001
vn 0.000000 -1.000000 -0.000001
vn 0.991427 0.130615 -0.003532
vn 0.960859 0.277016 -0.003422
vn 0.960859 0.277016 -0.003422
vn 0.991427 0.130615 -0.003532
vn 0.866020 0.500000 -0.003079
vn 0.866020 0.500000 -0.003079
vn 0.707104 0.707105 -0.002513
vn 0.707104 0.707105 -0.002512
vn 0.499999 0.866024 -0.001778
vn 0.499998 0.866024 -0.001778
vn 0.003554 -0.000000 0.999994
vn 0.003554 -0.000000 0.999994
vn 0.003554 -0.000000 0.999994
vn 0.003554 -0.000000 0.999994
vn 0.003554 -0.000000 0.999994
vn 0.003554 -0.000000 0.999994
vn 0.003554 -0.000000 0.999994
vn 0.003554 -0.000000 0.999994
vn -0.003554 0.000000 -0.999994
vn -0.003554 0.000000 -0.999994
vn -0.003554 0.000000 -0.999994
vn -0.003554 0.000000 -0.999994
vn -0.003554 0.000000 -0.999994
vn -0.003554 0.000000 -0.999994
vn -0.003554 0.000000 -0.999994
vn -0.003554 0.000000 -0.999994
vn 0.000000 0.005859 -0.999983
vn 0.000000 0.005859 -0.999983
vn 0.000000 0.005859 -0.999983
vn 0.000000 0.005859 -0.999983
vn 0.000000 0.000000 -1.000000
vn 0.000000 0.000000 -1.000000
vn 0.000000 0.000000 -1.000000
vn 0.000000 0.000000 -1.000000
vn 0.000000 -1.000000 0.000000
vn 0.000000 -1.000000 0.000000
vn 0.000000 -1.000000 0.000000
vn 0.000000 -1.000000 0.000000
vn 0.000000 0.000651 1.000000
vn 0.000000 0.000651 1.000000
vn 0.000000 0.000651 1.000000
vn 0.000000 0.000651 1.000000
vn 0.000000 -0.000977 -1.000000
vn 0.000000 -0.000977 -1.000000
vn 0.000000 -0.000000 -0.000000
vn 0.000000 -0.000000 -0.000000
vn -0.000000 0.000000 0.000000
vn -0.000000 0.000000 0.000000
vn -0.950432 0.310932 0.000000
vn -0.950432 0.310932 0.000000
vn 0.000000 -0.001953 -0.999998
vn 0.000000 -0.001953 -0.999998
vn 0.000000 -0.001953 -0.999998
vn 0.000000 -0.001953 -0.999998
vn 0.000000 -1.000000 0.000000
vn 0.000000 -1.000000 0.000000
vn 0.000000 -1.000000 0.000000
vn 0.000000 -1.000000 0.000000
vn 0.310406 -0.950603 -0.001106
vn 0.310407 -0.950603 -0.001106
vn 0.158489 -0.987361 -0.000562
vn 0.158489 -0.987361 -0.000562
vn -0.999994 0.000000 0.003545
vn -0.999994 0.000000 0.003545
vn -0.999994 0.000000 0.003545
vn -0.999994 0.000000 0.003545
vn 0.000000 1.000000 0.000000
vn 0.000000 1.000000 0.000000
vn 0.000000 1.000000 0.000000
vn 0.000000 1.000000 0.000000
vn 0.991427 -0.130615 -0.003533
vn 0.991427 -0.130615 -0.003533
vn 0.960859 -0.277016 -0.003421
vn 0.960859 -0.277016 -0.003421
vn 0.866020 -0.500000 -0.003079
vn 0.866020 -0.500000 -0.003079
vn 0.707106 -0.707103 -0.002509
vn 0.707106 -0.707103 -0.002509
vn 0.500001 -0.866023 -0.001777
vn 0.500002 -0.866022 -0.001777
s 1
g Window1 WindowRShape
usemtl initialShadingGroup
f 315/483/489 314/484/490 317/485/491 316/486/492
s 2
f 314/484/493 313/487/494 318/488/495 317/485/496
s 1
f 336/489/497 335/490/498 338/491/499 337/492/500
s 4
f 335/490/501 334/493/502 339/494/503 338/491/504
s 1
f 355/495/505 354/496/506 351/497/507 331/498/508
s 6
f 283/499/509 280/500/510 301/501/511 304/502/512
s 2
f 312/503/513 267/504/514 318/488/495 313/487/494
f 267/504/514 270/505/515 321/506/516 318/488/495
f 270/507/515 273/508/517 324/509/518 321/510/516
f 273/508/517 276/511/519 327/512/520 324/509/518
f 276/511/519 279/513/521 330/514/522 327/512/520
f 279/513/521 282/515/523 333/516/524 330/514/522
s 4
f 291/517/525 288/518/526 339/494/503 334/493/502
f 294/519/527 291/520/525 334/521/502 340/522/528
f 297/523/529 294/519/527 340/522/528 343/524/530
f 300/525/531 297/523/529 343/524/530 346/526/532
f 303/527/533 300/525/531 346/526/532 349/528/534
s 7
f 306/529/535 303/530/536 349/531/537 352/532/538
s 8
f 282/533/539 285/534/540 357/535/541 333/536/542
s 4
f 288/518/526 309/537/543 360/538/544 339/494/503
s 9
f 285/539/545 312/540/546 313/541/547 357/542/548
s 10
f 309/543/549 306/544/550 352/545/551 360/546/552
s 6
f 265/547/553 266/548/554 311/549/555 310/550/556
s 2
f 266/548/557 267/504/514 312/503/513 311/549/558
f 267/504/514 266/548/557 269/551/559 270/505/515
s 6
f 266/548/554 265/547/553 268/552/560 269/551/561
s 2
f 270/507/515 269/553/559 272/554/562 273/508/517
s 6
f 269/553/561 268/555/560 271/556/563 272/554/564
s 2
f 273/508/517 272/554/562 275/557/565 276/511/519
s 6
f 272/554/564 271/556/563 274/558/566 275/557/567
s 2
f 276/511/519 275/557/565 278/559/568 279/513/521
s 6
f 275/557/567 274/558/566 277/560/569 278/559/570
s 2
f 279/513/521 278/559/568 281/561/571 282/515/523
s 6
f 278/559/570 277/560/569 280/562/510 281/561/572
s 8
f 282/533/539 281/563/573 284/564/574 285/534/540
s 6
f 281/563/575 280/565/510 283/566/509 284/564/576
f 286/567/577 287/568/578 290/569/579 289/570/580
s 4
f 287/568/581 288/518/526 291/517/525 290/569/582
s 6
f 289/571/580 290/572/579 293/573/583 292/574/584
s 4
f 290/572/582 291/520/525 294/519/527 293/573/585
s 6
f 292/574/584 293/573/583 296/575/586 295/576/587
s 4
f 293/573/585 294/519/527 297/523/529 296/575/588
s 6
f 295/576/587 296/575/586 299/577/589 298/578/590
s 4
f 296/575/588 297/523/529 300/525/531 299/577/591
s 6
f 298/578/590 299/577/589 302/579/592 301/580/511
s 4
f 299/577/591 300/525/531 303/527/533 302/579/593
s 6
f 301/581/511 302/582/594 305/583/595 304/584/512
s 7
f 302/582/596 303/530/536 306/529/535 305/583/597
s 6
f 304/585/512 305/586/598 308/587/599 307/588/600
s 10
f 305/586/601 306/544/550 309/543/549 308/587/602
s 4
f 288/518/526 287/568/581 308/589/603 309/537/543
s 6
f 287/568/578 286/567/577 307/590/600 308/589/604
s 9
f 285/539/545 284/591/605 311/592/606 312/540/546
s 6
f 284/591/607 283/593/509 310/594/556 311/592/608
s 1
f 316/486/492 317/485/491 320/595/609 319/596/610
s 2
f 317/485/496 318/488/495 321/506/516 320/595/611
s 1
f 319/597/610 320/598/609 323/599/612 322/600/613
s 2
f 320/598/611 321/510/516 324/509/518 323/599/614
s 1
f 322/600/613 323/599/612 326/601/615 325/602/616
s 2
f 323/599/614 324/509/518 327/512/520 326/601/617
s 1
f 325/602/616 326/601/615 329/603/618 328/604/619
s 2
f 326/601/617 327/512/520 330/514/522 329/603/620
s 1
f 328/604/619 329/603/618 332/605/621 331/606/508
s 2
f 329/603/620 330/514/522 333/516/524 332/605/622
s 1
f 331/607/508 332/608/623 356/609/624 355/610/505
s 8
f 332/608/625 333/536/542 357/535/541 356/609/626
s 4
f 334/521/502 335/611/501 341/612/627 340/522/528
s 1
f 335/611/498 336/613/497 342/614/628 341/612/629
f 337/492/500 338/491/499 359/615/630 358/616/631
s 4
f 338/491/504 339/494/503 360/538/544 359/615/632
f 340/522/528 341/612/627 344/617/633 343/524/530
s 1
f 341/612/629 342/614/628 345/618/634 344/617/635
s 4
f 343/524/530 344/617/633 347/619/636 346/526/532
s 1
f 344/617/635 345/618/634 348/620/637 347/619/638
s 4
f 346/526/532 347/619/636 350/621/639 349/528/534
s 1
f 347/619/638 348/620/637 351/622/507 350/621/640
s 7
f 349/531/537 350/623/641 353/624/642 352/532/538
s 1
f 350/623/643 351/625/507 354/626/506 353/624/644
s 9
f 313/541/547 314/627/645 356/628/646 357/542/548
s 1
f 314/627/647 315/629/489 355/630/505 356/628/648
s 10
f 352/545/551 353/631/649 359/632/650 360/546/552
s 1
f 353/631/651 354/633/506 358/634/631 359/632/652
s 17
f 372/635/653 371/636/654 413/637/655 412/638/656
s 6
f 371/636/657 370/639/658 414/640/659 413/637/660
s 19
f 390/641/661 389/642/662 392/643/663 391/644/664
s 6
f 389/642/665 388/645/666 393/646/667 392/643/668
s 1
f 423/647/669 422/648/670 470/649/671 469/650/672
s 19
f 422/648/673 421/651/674 471/652/675 470/649/676
s 23
f 444/653/677 443/654/678 446/655/679 445/656/680
s 1
f 443/654/681 442/657/682 447/658/683 446/655/684
s 19
f 367/659/685 373/660/686 421/651/674 424/661/687
f 364/662/688 367/659/685 424/661/687 427/663/689
f 361/664/690 364/665/688 427/666/689 430/667/691
f 385/668/692 361/664/690 430/667/691 433/669/693
f 382/670/694 385/668/692 433/669/693 436/671/695
f 376/672/696 382/670/694 436/671/695 439/673/697
f 390/641/661 391/644/664 448/674/698 444/675/699
f 379/676/700 376/672/696 439/673/697 451/677/701
f 400/678/702 397/679/703 457/680/704 454/681/705
f 397/682/703 403/683/706 460/684/707 457/685/704
f 403/683/706 406/686/708 463/687/709 460/684/707
f 406/686/708 409/688/710 466/689/711 463/687/709
f 409/688/710 379/676/700 451/677/701 466/689/711
f 391/644/664 400/678/702 454/681/705 448/674/698
f 373/660/686 372/690/712 471/652/675 421/651/674
s 1
f 426/691/713 423/692/669 315/693/489 316/694/492
f 429/695/714 426/691/713 316/694/492 319/696/610
f 432/697/715 429/695/714 319/696/610 322/698/613
f 435/699/716 432/697/715 322/698/613 325/700/616
f 438/701/717 435/699/716 325/700/616 328/702/619
f 441/703/718 438/701/717 328/702/619 331/498/508
f 447/704/683 442/705/682 450/706/719 358/707/631
f 331/498/508 351/497/507 453/708/720 441/703/718
f 456/709/721 459/710/722 336/711/497 337/712/500
f 459/710/722 462/713/723 342/714/628 336/711/497
f 462/713/723 465/715/724 345/716/634 342/714/628
f 465/715/724 468/717/725 348/718/637 345/716/634
f 468/717/725 453/708/720 351/497/507 348/718/637
f 358/707/631 450/706/719 456/709/721 337/712/500
f 315/693/489 423/692/669 469/719/672 474/720/726
f 315/693/489 474/720/726 477/721/727 355/495/505
f 477/721/727 480/722/728 354/496/506 355/495/505
f 480/722/728 447/704/683 358/707/631 354/496/506
s 6
f 369/723/729 265/724/553 310/725/556 375/726/730
f 366/727/731 268/728/560 265/724/553 369/723/729
f 363/729/732 271/730/563 268/728/560 366/727/731
f 387/731/733 274/732/566 271/730/563 363/729/732
f 384/733/734 277/734/569 274/732/566 387/731/733
f 378/735/735 280/500/510 277/734/569 384/733/734
f 396/736/736 307/737/600 393/738/667 388/739/666
f 280/500/510 378/735/735 381/740/737 301/501/511
f 402/741/738 286/742/577 289/743/580 399/744/739
f 399/744/739 289/743/580 292/745/584 405/746/740
f 405/746/740 292/745/584 295/747/587 408/748/741
f 408/748/741 295/747/587 298/749/590 411/750/742
f 411/750/742 298/749/590 301/501/511 381/740/737
f 307/737/600 286/742/577 402/741/738 393/738/667
f 310/725/556 414/751/659 370/752/658 375/726/730
f 310/725/556 283/499/509 417/753/743 414/751/659
f 417/753/743 283/499/509 304/502/512 420/754/744
f 420/754/744 304/502/512 307/737/600 396/736/736
s 19
f 361/664/690 362/755/745 365/756/746 364/665/688
s 6
f 362/755/747 363/757/732 366/758/731 365/756/748
s 19
f 364/662/688 365/759/746 368/760/749 367/659/685
s 6
f 365/759/748 366/761/731 369/762/729 368/760/750
s 19
f 367/659/685 368/760/749 374/763/751 373/660/686
s 6
f 368/760/750 369/762/729 375/764/730 374/763/752
f 370/765/658 371/766/753 374/763/752 375/764/730
s 19
f 371/766/754 372/690/712 373/660/686 374/763/751
f 376/672/696 377/767/755 383/768/756 382/670/694
s 6
f 377/767/757 378/769/735 384/770/734 383/768/758
f 378/769/735 377/767/757 380/771/759 381/772/737
s 19
f 377/767/755 376/672/696 379/676/700 380/771/760
f 382/670/694 383/768/756 386/773/761 385/668/692
s 6
f 383/768/758 384/770/734 387/774/733 386/773/762
f 363/757/732 362/755/747 386/773/762 387/774/733
s 19
f 362/755/745 361/664/690 385/668/692 386/773/761
f 391/644/664 392/643/663 401/775/763 400/678/702
s 6
f 392/643/668 393/646/667 402/776/738 401/775/764
f 388/777/666 389/778/765 395/779/766 396/780/736
s 17
f 389/778/767 390/781/768 394/782/769 395/779/770
s 19
f 397/682/703 398/783/771 404/784/772 403/683/706
s 6
f 398/783/773 399/785/739 405/786/740 404/784/774
f 399/787/739 398/788/773 401/775/764 402/776/738
s 19
f 398/788/771 397/679/703 400/678/702 401/775/763
f 403/683/706 404/784/772 407/789/775 406/686/708
s 6
f 404/784/774 405/786/740 408/790/741 407/789/776
s 19
f 406/686/708 407/789/775 410/791/777 409/688/710
s 6
f 407/789/776 408/790/741 411/792/742 410/791/778
f 381/772/737 380/771/759 410/791/778 411/792/742
s 19
f 380/771/760 379/676/700 409/688/710 410/791/777
s 17
f 412/638/656 413/637/655 416/793/779 415/794/780
s 6
f 413/637/660 414/640/659 417/795/743 416/793/781
s 17
f 415/794/780 416/793/779 419/796/782 418/797/783
s 6
f 416/793/781 417/795/743 420/798/744 419/796/784
f 396/780/736 395/779/766 419/796/784 420/798/744
s 17
f 395/779/770 394/782/769 418/797/783 419/796/782
s 19
f 421/651/674 422/648/673 425/799/785 424/661/687
s 1
f 422/648/670 423/647/669 426/800/713 425/799/786
s 19
f 424/661/687 425/799/785 428/801/787 427/663/689
s 1
f 425/799/786 426/800/713 429/802/714 428/801/788
s 19
f 427/666/689 428/803/787 431/804/789 430/667/691
s 1
f 428/803/788 429/805/714 432/806/715 431/804/790
s 19
f 430/667/691 431/804/789 434/807/791 433/669/693
s 1
f 431/804/790 432/806/715 435/808/716 434/807/792
s 19
f 433/669/693 434/807/791 437/809/793 436/671/695
s 1
f 434/807/792 435/808/716 438/810/717 437/809/794
s 19
f 436/671/695 437/809/793 440/811/795 439/673/697
s 1
f 437/809/794 438/810/717 441/812/718 440/811/796
s 19
f 439/673/697 440/811/795 452/813/797 451/677/701
s 1
f 440/811/796 441/812/718 453/814/720 452/813/798
s 23
f 445/656/680 446/655/679 479/815/799 478/816/800
s 1
f 446/655/684 447/658/683 480/817/728 479/815/801
f 442/818/682 443/819/802 449/820/803 450/821/719
s 19
f 443/819/804 444/675/699 448/674/698 449/820/805
f 451/677/701 452/813/797 467/822/806 466/689/711
s 1
f 452/813/798 453/814/720 468/823/725 467/822/807
f 450/821/719 449/820/803 455/824/808 456/825/721
s 19
f 449/820/805 448/674/698 454/681/705 455/824/809
s 1
f 456/825/721 455/824/808 458/826/810 459/827/722
s 19
f 455/824/809 454/681/705 457/680/704 458/826/811
s 1
f 459/828/722 458/829/810 461/830/812 462/831/723
s 19
f 458/829/811 457/685/704 460/684/707 461/830/813
s 1
f 462/831/723 461/830/812 464/832/814 465/833/724
s 19
f 461/830/813 460/684/707 463/687/709 464/832/815
s 1
f 465/833/724 464/832/814 467/822/807 468/823/725
s 19
f 464/832/815 463/687/709 466/689/711 467/822/806
s 1
f 469/834/672 470/835/816 473/836/817 474/837/726
s 23
f 470/835/818 471/838/819 472/839/820 473/836/821
s 1
f 474/837/726 473/836/817 476/840/822 477/841/727
s 23
f 473/836/821 472/839/820 475/842/823 476/840/824
s 1
f 477/841/727 476/840/822 479/815/801 480/817/728
s 23
f 476/840/824 475/842/823 478/816/800 479/815/799
s off
f 372/635/825 412/638/826 415/794/827 418/797/828 394/782/829 390/781/830 444/653/831 445/656/832 478/816/833 475/842/834 472/839/835 471/838/836
f 498/843/837 497/844/838 499/845/839 500/846/840 501/847/841 502/848/842 503/849/843 504/850/844
f 482/851/845 483/852/846 484/853/847 485/854/848 486/855/849 487/856/850 488/857/851 481/858/852
f 482/859/853 481/860/854 489/861/855 490/862/856
f 481/863/857 488/864/858 491/865/859 489/866/860
f 488/867/861 487/868/862 492/869/863 491/870/864
f 487/871/865 486/872/866 493/873/867 492/874/868
f 486/872/869 485/875/870 494/876/871 493/873/872
f 485/877/873 484/878/874 495/879/875 494/880/876
f 484/878/877 483/881/878 496/882/879 495/879/880
f 483/883/881 482/884/882 490/885/883 496/886/884
s 29
f 490/885/885 489/887/886 497/888/887 498/889/888
s off
f 489/890/889 491/891/890 499/892/891 497/893/892
f 491/894/893 492/895/894 500/896/895 499/897/896
s 29
f 492/874/897 493/873/898 501/898/899 500/899/900
f 493/873/898 494/876/901 502/900/902 501/898/899
f 494/876/901 495/901/903 503/902/904 502/900/902
f 495/901/903 496/903/905 504/904/906 503/902/904
f 496/886/905 490/885/885 498/889/888 504/905/906
s off
f 522/906/907 528/907/908 527/908/909 526/909/910 525/910/911 524/911/912 523/912/913 521/913/914
f 506/914/915 505/915/916 512/916/917 511/917/918 510/918/919 509/919/920 508/920/921 507/921/922
f 506/922/923 514/923/924 513/924/925 505/925/926
f 505/926/927 513/927/928 515/928/929 512/929/930
f 512/930/931 515/931/932 516/932/933 511/933/934
f 511/934/935 516/935/936 517/936/937 510/937/938
f 510/937/939 517/936/940 518/938/941 509/939/942
f 509/940/943 518/941/944 519/942/945 508/943/946
f 508/943/947 519/942/948 520/944/949 507/945/950
f 507/946/951 520/947/952 514/948/953 506/949/954
s 31
f 514/948/955 522/950/956 521/951/957 513/952/958
s off
f 513/953/959 521/954/960 523/955/961 515/956/962
f 515/957/963 523/958/964 524/959/965 516/960/966
s 31
f 516/935/967 524/961/968 525/962/969 517/936/970
f 517/936/970 525/962/969 526/963/971 518/938/972
f 518/938/972 526/963/971 527/964/973 519/965/974
f 519/965/974 527/964/973 528/966/975 520/967/976
f 520/947/976 528/968/975 522/950/956 514/948/955
