# This file uses centimeters as units for non-parametric coordinates.

mtllib Book_Closed.mtl
g default
v -28.869252 2.311322 32.923248
v -27.479149 2.311322 32.923248
v -28.869252 2.311322 31.338776
v -27.479149 2.311322 31.338776
v -28.869252 2.375004 32.923248
v -27.439422 2.375004 32.923248
v -27.439422 2.375004 31.338776
v -28.869252 2.375004 31.338776
v -28.813406 2.375004 32.900176
v -27.521816 2.375004 32.900176
v -27.521816 2.375004 31.361849
v -28.813406 2.375004 31.361849
v -28.813406 2.488663 32.900176
v -27.521816 2.488663 32.900176
v -27.521816 2.488663 31.361849
v -28.813406 2.488663 31.361849
v -28.869252 2.488663 32.923248
v -27.439425 2.488663 32.923248
v -27.439425 2.488663 31.338776
v -28.869252 2.488663 31.338776
v -28.869252 2.552345 32.923248
v -27.479154 2.552345 32.923248
v -27.479154 2.552345 31.338776
v -28.869252 2.552345 31.338776
vt 0.375000 0.250000
vt 0.625000 0.250000
vt 0.375000 0.500000
vt 0.625000 0.500000
vt 0.375000 0.250000
vt 0.625000 0.250000
vt 0.625000 0.500000
vt 0.375000 0.500000
vt 0.375000 0.250000
vt 0.625000 0.250000
vt 0.625000 0.500000
vt 0.375000 0.500000
vt 0.375000 0.250000
vt 0.625000 0.250000
vt 0.625000 0.500000
vt 0.375000 0.500000
vt 0.375000 0.250000
vt 0.625000 0.250000
vt 0.625000 0.500000
vt 0.375000 0.500000
vt 0.375000 0.250000
vt 0.625000 0.250000
vt 0.625000 0.500000
vt 0.375000 0.500000
vt 0.375000 0.250000
vt 0.625000 0.250000
vt 0.625000 0.500000
vt 0.375000 0.500000
vn 0.000000 1.000000 0.000000
vn 0.000000 1.000000 0.000000
vn 0.000000 1.000000 0.000000
vn 0.000000 1.000000 0.000000
vn 0.000000 -1.000000 0.000000
vn 0.000000 -1.000000 0.000000
vn 0.000000 -1.000000 0.000000
vn 0.000000 -1.000000 0.000000
vn 0.000000 0.000000 1.000000
vn 0.000000 0.000000 1.000000
vn 0.000000 0.000000 1.000000
vn 0.000000 0.000000 1.000000
vn 0.848450 -0.529275 0.000000
vn 0.848450 -0.529275 0.000000
vn 0.848450 -0.529275 0.000000
vn 0.848450 -0.529275 0.000000
vn 0.000000 0.000000 -1.000000
vn 0.000000 0.000000 -1.000000
vn 0.000000 0.000000 -1.000000
vn 0.000000 0.000000 -1.000000
vn -1.000000 0.000000 0.000000
vn -1.000000 0.000000 0.000000
vn -1.000000 0.000000 0.000000
vn -1.000000 0.000000 0.000000
vn 0.000000 1.000000 -0.000000
vn 0.000000 1.000000 -0.000002
vn 0.000000 1.000000 -0.000002
vn 0.000000 1.000000 -0.000001
vn 0.000000 1.000000 -0.000000
vn 0.000000 1.000000 -0.000000
vn 0.000000 1.000000 -0.000000
vn 0.000000 1.000000 -0.000000
vn 0.000000 0.000000 1.000000
vn 0.000000 0.000000 1.000000
vn 0.000000 0.000000 1.000000
vn 0.000000 0.000000 1.000000
vn 0.000000 0.000000 -1.000000
vn 0.000000 0.000000 -1.000000
vn 0.000000 0.000000 -1.000000
vn 0.000000 0.000000 -1.000000
vn -1.000000 0.000000 0.000000
vn -1.000000 0.000000 0.000000
vn -1.000000 0.000000 0.000000
vn -1.000000 0.000000 0.000000
vn 0.000000 -1.000000 -0.000001
vn 0.000000 -1.000000 -0.000004
vn 0.000000 -1.000000 -0.000004
vn 0.000000 -1.000000 -0.000000
vn 0.000000 -1.000000 -0.000002
vn 0.000000 -1.000000 -0.000001
vn 0.000000 -1.000000 -0.000000
vn 0.000000 -1.000000 -0.000002
vn 0.000000 0.000000 1.000000
vn 0.000000 0.000000 1.000000
vn 0.000000 0.000000 1.000000
vn 0.000000 0.000000 1.000000
vn 0.848439 0.529293 0.000000
vn 0.848439 0.529293 0.000000
vn 0.848439 0.529293 0.000000
vn 0.848439 0.529293 0.000000
vn 0.000000 0.000000 -1.000000
vn 0.000000 0.000000 -1.000000
vn 0.000000 0.000000 -1.000000
vn 0.000000 0.000000 -1.000000
vn -1.000000 0.000000 0.000000
vn -1.000000 0.000000 0.000000
vn -1.000000 0.000000 0.000000
vn -1.000000 0.000000 0.000000
vn -0.269660 0.000000 -0.962956
vn -0.269660 0.000000 -0.962956
vn -0.269660 0.000000 -0.962956
vn -0.269660 0.000000 -0.962956
vn -1.000000 0.000000 0.000000
vn -1.000000 0.000000 0.000000
vn -1.000000 0.000000 0.000000
vn -1.000000 0.000000 0.000000
vn -0.269660 0.000000 0.962956
vn -0.269660 0.000000 0.962956
vn -0.269660 0.000000 0.962956
vn -0.269660 0.000000 0.962956
vn 1.000000 0.000016 0.000000
vn 1.000000 0.000016 0.000000
vn 1.000000 0.000016 0.000000
vn 1.000000 0.000016 0.000000
s off
g Hallway_Masters:Closed_Book
usemtl initialShadingGroup
f 21/25/1 22/26/2 23/27/3 24/28/4
f 1/5/5 3/8/6 4/7/7 2/6/8
f 1/1/9 2/2/10 6/10/11 5/9/12
f 2/2/13 4/4/14 7/11/15 6/10/16
f 4/4/17 3/3/18 8/12/19 7/11/20
f 3/3/21 1/1/22 5/9/23 8/12/24
s 1
f 5/9/25 6/10/26 10/14/27 9/13/28
f 7/11/29 8/12/30 12/16/31 11/15/32
f 8/12/30 5/9/25 9/13/28 12/16/31
s off
f 9/13/33 10/14/34 14/18/35 13/17/36
f 11/15/37 12/16/38 16/20/39 15/19/40
f 12/16/41 9/13/42 13/17/43 16/20/44
s 2
f 13/17/45 14/18/46 18/22/47 17/21/48
f 15/19/49 16/20/50 20/24/51 19/23/52
f 16/20/50 13/17/45 17/21/48 20/24/51
s off
f 17/21/53 18/22/54 22/26/55 21/25/56
f 18/22/57 19/23/58 23/27/59 22/26/60
f 19/23/61 20/24/62 24/28/63 23/27/64
f 20/24/65 17/21/66 21/25/67 24/28/68
f 7/11/69 11/15/70 15/19/71 19/23/72
f 11/15/73 10/14/74 14/18/75 15/19/76
f 10/14/77 6/10/78 18/22/79 14/18/80
f 6/10/81 7/11/82 19/23/83 18/22/84
