# This file uses centimeters as units for non-parametric coordinates.

mtllib Candle.mtl
g default
v -1.097915 0.430757 10.643461
v -1.113016 0.430757 10.613824
v -1.136536 0.430757 10.590304
v -1.166172 0.430757 10.575204
v -1.199025 0.430757 10.570000
v -1.231877 0.430757 10.575204
v -1.261514 0.430757 10.590304
v -1.285034 0.430757 10.613824
v -1.300135 0.430757 10.643461
v -1.305338 0.430757 10.676313
v -1.300134 0.430757 10.709166
v -1.285034 0.430757 10.738802
v -1.261514 0.430757 10.762322
v -1.231877 0.430757 10.777423
v -1.199025 0.430757 10.782626
v -1.166172 0.430757 10.777423
v -1.136536 0.430757 10.762322
v -1.113016 0.430757 10.738802
v -1.097915 0.430757 10.709166
v -1.092712 0.430757 10.676313
v -0.996806 0.430757 10.610608
v -1.027007 0.430757 10.551335
v -1.074047 0.430757 10.504295
v -1.133320 0.430757 10.474094
v -1.199025 0.430757 10.463687
v -1.264730 0.430757 10.474094
v -1.324003 0.430757 10.504295
v -1.371043 0.430757 10.551335
v -1.401244 0.430757 10.610608
v -1.411651 0.430757 10.676313
v -1.401244 0.430757 10.742018
v -1.371043 0.430757 10.801292
v -1.324003 0.430757 10.848331
v -1.264730 0.430757 10.878532
v -1.199025 0.430757 10.888939
v -1.133320 0.430757 10.878532
v -1.074047 0.430757 10.848331
v -1.027007 0.430757 10.801292
v -0.996806 0.430757 10.742018
v -0.986399 0.430757 10.676313
v -0.895696 1.587321 10.577756
v -0.940998 1.587321 10.488846
v -1.011557 1.587321 10.418286
v -1.100467 1.587321 10.372985
v -1.199025 1.587321 10.357375
v -1.297582 1.587321 10.372985
v -1.386492 1.587321 10.418286
v -1.457052 1.587321 10.488846
v -1.502354 1.587321 10.577756
v -1.517964 1.587321 10.676313
v -1.502354 1.587321 10.774871
v -1.457052 1.587898 10.863781
v -1.386492 1.587898 10.934340
v -1.297582 1.587898 10.979642
v -1.199025 1.587898 10.995252
v -1.100468 1.587898 10.979642
v -1.011558 1.587898 10.934340
v -0.940998 1.587321 10.863781
v -0.895696 1.587321 10.774871
v -0.880086 1.587321 10.676313
v -0.996806 1.587321 10.610608
v -1.027007 1.587321 10.551335
v -1.074047 1.587321 10.504295
v -1.133320 1.587321 10.474094
v -1.199025 1.587321 10.463687
v -1.264730 1.587321 10.474094
v -1.324003 1.587321 10.504295
v -1.371043 1.587321 10.551335
v -1.401244 1.587321 10.610608
v -1.411651 1.587321 10.676313
v -1.401244 1.587321 10.742018
v -1.371043 1.587898 10.801292
v -1.324003 1.587898 10.848331
v -1.264730 1.587898 10.878532
v -1.199025 1.587898 10.888939
v -1.133320 1.587898 10.878532
v -1.074047 1.587898 10.848331
v -1.027007 1.587321 10.801292
v -0.996806 1.587321 10.742018
v -0.986399 1.587321 10.676313
v -1.097915 1.587898 10.643461
v -1.113016 1.587898 10.613824
v -1.136536 1.587898 10.590304
v -1.166172 1.587898 10.575204
v -1.199025 1.587898 10.570000
v -1.231877 1.587898 10.575204
v -1.261514 1.587898 10.590304
v -1.285034 1.587898 10.613824
v -1.300135 1.587898 10.643461
v -1.305338 1.587898 10.676313
v -1.300135 1.587898 10.709166
v -1.285034 1.587898 10.738802
v -1.261514 1.587898 10.762322
v -1.231877 1.587898 10.777423
v -1.199025 1.587898 10.782626
v -1.166172 1.587898 10.777423
v -1.136536 1.587898 10.762322
v -1.113016 1.587898 10.738802
v -1.097915 1.587898 10.709166
v -1.092712 1.587898 10.676313
v -1.199025 0.430757 10.676313
v -1.199025 1.587898 10.676313
v -0.895696 1.643189 10.577756
v -0.940998 1.643189 10.488846
v -1.027007 1.643189 10.551335
v -0.996806 1.643189 10.610608
v -1.011557 1.643189 10.418286
v -1.074047 1.643189 10.504295
v -1.100467 1.643189 10.372985
v -1.133320 1.643189 10.474094
v -1.199025 1.643189 10.357375
v -1.199025 1.643189 10.463687
v -1.297582 1.643189 10.372985
v -1.264730 1.643189 10.474094
v -1.386492 1.643189 10.418287
v -1.324003 1.643189 10.504295
v -1.457052 1.643189 10.488846
v -1.371043 1.643189 10.551335
v -1.502354 1.643189 10.577756
v -1.401244 1.643189 10.610608
v -1.517964 1.643189 10.676313
v -1.411651 1.643189 10.676313
v -1.502354 1.643189 10.774871
v -1.401244 1.643189 10.742018
v -0.940998 1.643189 10.863781
v -0.895696 1.643189 10.774871
v -0.996806 1.643189 10.742018
v -1.027007 1.643189 10.801292
v -0.880086 1.643189 10.676313
v -0.986399 1.643189 10.676313
v -0.895696 1.699056 10.577756
v -0.940998 1.699056 10.488846
v -1.027007 1.699056 10.551335
v -0.996806 1.657703 10.610608
v -1.011557 1.699056 10.418286
v -1.074047 1.699056 10.504295
v -1.100467 1.699056 10.372985
v -1.133320 1.699056 10.474094
v -1.199025 1.699056 10.357375
v -1.199025 1.699056 10.463688
v -1.297582 1.670587 10.372985
v -1.264730 1.670587 10.474094
v -1.386492 1.670587 10.418287
v -1.324003 1.670587 10.504295
v -1.457052 1.670587 10.488846
v -1.371043 1.670587 10.551335
v -0.940998 1.756209 10.488846
v -1.011557 1.756209 10.418286
v -1.074047 1.756209 10.504295
v -1.027007 1.756209 10.551335
v -1.100467 1.791176 10.372985
v -1.133320 1.791176 10.474094
v -1.199025 1.756209 10.357375
v -1.199025 1.713033 10.463688
v -1.297582 1.727739 10.372984
v -1.264730 1.727739 10.474094
v -1.386492 1.726455 10.418286
v -1.324003 1.689662 10.504295
v -0.878420 0.430757 10.572142
v -0.895696 0.522407 10.577756
v -0.926302 0.430757 10.478168
v -0.940998 0.522407 10.488846
v -1.000880 0.430757 10.403590
v -1.011557 0.522407 10.418286
v -1.094854 0.430757 10.355708
v -1.100467 0.522407 10.372985
v -1.199025 0.430757 10.339209
v -1.199025 0.522407 10.357375
v -1.303196 0.430757 10.355708
v -1.297582 0.522407 10.372985
v -1.397170 0.430757 10.403590
v -1.386492 0.522407 10.418286
v -1.471748 0.430757 10.478169
v -1.457052 0.522407 10.488846
v -1.519630 0.430757 10.572142
v -1.502354 0.522407 10.577756
v -1.536129 0.430757 10.676313
v -1.517964 0.522407 10.676313
v -1.519630 0.430757 10.780484
v -1.502354 0.522407 10.774871
v -1.471748 0.430757 10.874458
v -1.457052 0.522407 10.863781
v -1.397170 0.430757 10.949036
v -1.386493 0.522407 10.934340
v -1.303196 0.430757 10.996918
v -1.297583 0.522407 10.979642
v -1.199025 0.430757 11.013417
v -1.199025 0.522407 10.995252
v -1.094854 0.430757 10.996918
v -1.100468 0.522407 10.979642
v -1.000880 0.430757 10.949036
v -1.011558 0.522407 10.934340
v -0.926302 0.430757 10.874458
v -0.940998 0.522407 10.863781
v -0.878420 0.430757 10.780484
v -0.895696 0.522407 10.774871
v -0.861921 0.430757 10.676313
v -0.880086 0.522407 10.676313
v -0.895679 0.522315 10.577750
v -0.880068 0.522315 10.676313
v -0.895679 0.522315 10.774876
v -0.940984 0.522315 10.863791
v -1.011547 0.522315 10.934355
v -1.100462 0.522315 10.979659
v -1.199025 0.522315 10.995270
v -1.297588 0.522315 10.979659
v -1.386503 0.522315 10.934355
v -1.457067 0.522315 10.863791
v -1.502371 0.522315 10.774876
v -1.517982 0.522315 10.676313
v -1.502371 0.522315 10.577750
v -1.457066 0.522315 10.488835
v -1.386503 0.522315 10.418272
v -1.297588 0.522315 10.372967
v -1.199025 0.522315 10.357356
v -1.100462 0.522315 10.372967
v -1.011547 0.522315 10.418272
v -0.940983 0.522315 10.488835
v -0.940998 1.267847 10.488846
v -0.895696 1.267847 10.577756
v -0.880086 1.267847 10.676313
v -0.895696 1.267847 10.774871
v -0.940998 1.267846 10.863781
v -1.011558 1.268250 10.934340
v -1.100468 1.268250 10.979642
v -1.199025 1.268250 10.995252
v -1.297582 1.268250 10.979642
v -1.386492 1.268250 10.934340
v -1.457052 1.268250 10.863781
v -1.502354 1.267846 10.774871
v -1.517964 1.267847 10.676313
v -1.502354 1.267847 10.577756
v -1.457052 1.267847 10.488846
v -1.386492 1.267847 10.418286
v -1.297582 1.267847 10.372985
v -1.199025 1.267847 10.357375
v -1.100467 1.267847 10.372985
v -1.011557 1.267847 10.418286
v -0.895696 1.427584 10.577756
v -0.940998 1.427584 10.488846
v -1.011557 1.427584 10.418286
v -1.100467 1.427584 10.372985
v -1.199025 1.427584 10.357375
v -1.297582 1.427584 10.372985
v -1.386492 1.427584 10.418286
v -1.457052 1.427584 10.488846
v -1.502354 1.427584 10.577756
v -1.517964 1.427584 10.676313
v -1.502354 1.427583 10.774871
v -1.457052 1.428074 10.863781
v -1.386492 1.428074 10.934340
v -1.297582 1.428074 10.979642
v -1.199025 1.428074 10.995252
v -1.100468 1.428074 10.979642
v -1.011558 1.428074 10.934340
v -0.940998 1.427583 10.863781
v -0.895696 1.427584 10.774871
v -0.880086 1.427584 10.676313
v -0.940998 1.283820 10.488846
v -0.895696 1.283820 10.577756
v -0.880086 1.283820 10.676313
v -0.895696 1.283820 10.774871
v -0.940998 1.283820 10.863781
v -1.011558 1.284233 10.934340
v -1.100468 1.284233 10.979642
v -1.199025 1.284233 10.995252
v -1.297582 1.284233 10.979642
v -1.386492 1.284233 10.934340
v -1.457052 1.284233 10.863781
v -1.502354 1.283820 10.774871
v -1.517964 1.283820 10.676313
v -1.502354 1.283820 10.577756
v -1.457052 1.283820 10.488846
v -1.386492 1.283820 10.418286
v -1.297582 1.283820 10.372985
v -1.199025 1.283820 10.357375
v -1.100467 1.283820 10.372985
v -1.011557 1.283820 10.418286
vt 0.549534 0.140155
vt 0.542136 0.125636
vt 0.530614 0.114114
vt 0.516095 0.106716
vt 0.500000 0.104167
vt 0.483905 0.106716
vt 0.469386 0.114114
vt 0.457864 0.125636
vt 0.450466 0.140155
vt 0.447917 0.156250
vt 0.450466 0.172345
vt 0.457864 0.186864
vt 0.469386 0.198386
vt 0.483905 0.205784
vt 0.500000 0.208333
vt 0.516095 0.205784
vt 0.530614 0.198386
vt 0.542136 0.186864
vt 0.549534 0.172345
vt 0.552083 0.156250
vt 0.648603 0.795466
vt 0.626409 0.751908
vt 0.591842 0.717341
vt 0.548284 0.695147
vt 0.500000 0.687500
vt 0.451716 0.695147
vt 0.408159 0.717341
vt 0.373591 0.751909
vt 0.351397 0.795466
vt 0.343750 0.843750
vt 0.351397 0.892034
vt 0.373591 0.935591
vt 0.408159 0.970159
vt 0.451716 0.992353
vt 0.500000 1.000000
vt 0.548284 0.992353
vt 0.591841 0.970159
vt 0.626409 0.935591
vt 0.648603 0.892034
vt 0.656250 0.843750
vt 0.599068 0.811561
vt 0.584273 0.782522
vt 0.561228 0.759477
vt 0.532189 0.744682
vt 0.500000 0.739583
vt 0.467811 0.744682
vt 0.438772 0.759477
vt 0.415727 0.782522
vt 0.400932 0.811561
vt 0.395833 0.843750
vt 0.400932 0.875939
vt 0.415727 0.904978
vt 0.438772 0.928023
vt 0.467811 0.942818
vt 0.500000 0.947917
vt 0.532189 0.942818
vt 0.561228 0.928023
vt 0.584273 0.904978
vt 0.599068 0.875939
vt 0.604167 0.843750
vt 0.549534 0.827655
vt 0.542136 0.813136
vt 0.530614 0.801614
vt 0.516095 0.794216
vt 0.500000 0.791667
vt 0.483905 0.794216
vt 0.469386 0.801614
vt 0.457864 0.813136
vt 0.450466 0.827655
vt 0.447917 0.843750
vt 0.450466 0.859845
vt 0.457864 0.874364
vt 0.469386 0.885886
vt 0.483905 0.893284
vt 0.500000 0.895833
vt 0.516095 0.893284
vt 0.530614 0.885886
vt 0.542136 0.874364
vt 0.549534 0.859845
vt 0.552083 0.843750
vt 0.500000 0.156250
vt 0.500000 0.843750
vt 0.648603 0.892034
vt 0.626409 0.935591
vt 0.584273 0.904978
vt 0.599068 0.875939
vt 0.591841 0.970159
vt 0.561228 0.928023
vt 0.548284 0.992353
vt 0.532189 0.942818
vt 0.500000 1.000000
vt 0.500000 0.947917
vt 0.451716 0.992353
vt 0.467811 0.942818
vt 0.408159 0.970159
vt 0.438772 0.928023
vt 0.373591 0.935591
vt 0.415727 0.904978
vt 0.351397 0.892034
vt 0.400932 0.875939
vt 0.343750 0.843750
vt 0.395833 0.843750
vt 0.351397 0.795466
vt 0.400932 0.811561
vt 0.626409 0.751908
vt 0.648603 0.795466
vt 0.599068 0.811561
vt 0.584273 0.782522
vt 0.656250 0.843750
vt 0.604167 0.843750
vt 0.648603 0.892034
vt 0.626409 0.935591
vt 0.584273 0.904978
vt 0.599068 0.875939
vt 0.591841 0.970159
vt 0.561228 0.928023
vt 0.548284 0.992353
vt 0.532189 0.942818
vt 0.500000 1.000000
vt 0.500000 0.947917
vt 0.451716 0.992353
vt 0.467811 0.942818
vt 0.408159 0.970159
vt 0.438772 0.928023
vt 0.373591 0.935591
vt 0.415727 0.904978
vt 0.626409 0.935591
vt 0.591841 0.970159
vt 0.561228 0.928023
vt 0.584273 0.904978
vt 0.548284 0.992353
vt 0.532189 0.942818
vt 0.500000 1.000000
vt 0.500000 0.947917
vt 0.451716 0.992353
vt 0.467811 0.942818
vt 0.408159 0.970159
vt 0.438772 0.928023
vt 0.648603 0.107966
vt 0.626409 0.064409
vt 0.591842 0.029841
vt 0.548284 0.007647
vt 0.500000 -0.000000
vt 0.451716 0.007647
vt 0.408159 0.029841
vt 0.373591 0.064409
vt 0.351397 0.107966
vt 0.343750 0.156250
vt 0.351397 0.204534
vt 0.373591 0.248091
vt 0.408159 0.282659
vt 0.451716 0.304853
vt 0.500000 0.312500
vt 0.548284 0.304853
vt 0.591841 0.282659
vt 0.626409 0.248091
vt 0.648603 0.204534
vt 0.656250 0.156250
vt 0.584273 0.095022
vt 0.623838 0.116013
vt 0.561228 0.071977
vt 0.605343 0.079714
vt 0.532189 0.057182
vt 0.576536 0.050907
vt 0.500000 0.052083
vt 0.540237 0.032412
vt 0.467811 0.057182
vt 0.500000 0.026039
vt 0.438772 0.071977
vt 0.459763 0.032412
vt 0.415727 0.095022
vt 0.423464 0.050907
vt 0.400932 0.124061
vt 0.394657 0.079714
vt 0.395833 0.156250
vt 0.376162 0.116013
vt 0.400932 0.188439
vt 0.369789 0.156250
vt 0.415727 0.217478
vt 0.376162 0.196487
vt 0.438772 0.240523
vt 0.394657 0.232786
vt 0.467811 0.255318
vt 0.423464 0.261593
vt 0.500000 0.260417
vt 0.459763 0.280088
vt 0.532189 0.255318
vt 0.500000 0.286461
vt 0.561228 0.240523
vt 0.540237 0.280088
vt 0.584273 0.217478
vt 0.576536 0.261593
vt 0.599068 0.188439
vt 0.605343 0.232786
vt 0.604167 0.156250
vt 0.623838 0.196487
vt 0.599068 0.124061
vt 0.630211 0.156250
vt 0.375000 0.325091
vt 0.387500 0.325091
vt 0.375000 0.687500
vt 0.400000 0.325091
vt 0.387500 0.687500
vt 0.412500 0.325091
vt 0.400000 0.687500
vt 0.425000 0.325091
vt 0.412500 0.687500
vt 0.437500 0.325091
vt 0.425000 0.687500
vt 0.450000 0.325091
vt 0.437500 0.687500
vt 0.462500 0.325091
vt 0.450000 0.687500
vt 0.475000 0.325091
vt 0.462500 0.687500
vt 0.487500 0.325091
vt 0.475000 0.687500
vt 0.500000 0.325091
vt 0.487500 0.687500
vt 0.512500 0.325091
vt 0.500000 0.687500
vt 0.525000 0.325091
vt 0.512500 0.687500
vt 0.537500 0.325091
vt 0.525000 0.687500
vt 0.550000 0.325091
vt 0.537500 0.687500
vt 0.562500 0.325091
vt 0.550000 0.687500
vt 0.575000 0.325091
vt 0.562500 0.687500
vt 0.587500 0.325091
vt 0.575000 0.687500
vt 0.600000 0.325091
vt 0.587500 0.687500
vt 0.612500 0.325091
vt 0.600000 0.687500
vt 0.625000 0.325091
vt 0.625000 0.687500
vt 0.612500 0.687500
vt 0.648578 0.107974
vt 0.656224 0.156250
vt 0.648578 0.204526
vt 0.626388 0.248076
vt 0.591826 0.282638
vt 0.548276 0.304828
vt 0.500000 0.312474
vt 0.451724 0.304828
vt 0.408174 0.282638
vt 0.373612 0.248076
vt 0.351422 0.204526
vt 0.343776 0.156250
vt 0.351422 0.107974
vt 0.373612 0.064424
vt 0.408174 0.029862
vt 0.451724 0.007672
vt 0.500000 0.000026
vt 0.548276 0.007672
vt 0.591826 0.029862
vt 0.626388 0.064424
vt 0.387500 0.578777
vt 0.375000 0.578777
vt 0.625000 0.578777
vt 0.612500 0.578777
vt 0.600000 0.578777
vt 0.587500 0.578777
vt 0.575000 0.578777
vt 0.562500 0.578777
vt 0.550000 0.578777
vt 0.537500 0.578777
vt 0.525000 0.578777
vt 0.512500 0.578777
vt 0.500000 0.578777
vt 0.487500 0.578777
vt 0.475000 0.578777
vt 0.462500 0.578777
vt 0.450000 0.578777
vt 0.437500 0.578777
vt 0.425000 0.578777
vt 0.412500 0.578777
vt 0.400000 0.578777
vt 0.375000 0.633139
vt 0.625000 0.633139
vt 0.387500 0.633139
vt 0.400000 0.633139
vt 0.412500 0.633139
vt 0.425000 0.633139
vt 0.437500 0.633139
vt 0.450000 0.633139
vt 0.462500 0.633139
vt 0.475000 0.633139
vt 0.487500 0.633139
vt 0.500000 0.633139
vt 0.512500 0.633139
vt 0.525000 0.633139
vt 0.537500 0.633139
vt 0.550000 0.633139
vt 0.562500 0.633139
vt 0.575000 0.633139
vt 0.587500 0.633139
vt 0.600000 0.633139
vt 0.612500 0.633139
vt 0.387500 0.584213
vt 0.375000 0.584213
vt 0.625000 0.584213
vt 0.612500 0.584213
vt 0.600000 0.584213
vt 0.587500 0.584213
vt 0.575000 0.584213
vt 0.562500 0.584213
vt 0.550000 0.584213
vt 0.537500 0.584213
vt 0.525000 0.584213
vt 0.512500 0.584213
vt 0.500000 0.584213
vt 0.487500 0.584213
vt 0.475000 0.584213
vt 0.462500 0.584213
vt 0.450000 0.584213
vt 0.437500 0.584213
vt 0.425000 0.584213
vt 0.412500 0.584213
vt 0.400000 0.584213
vn 0.000000 -1.000000 0.000000
vn 0.000000 -1.000000 -0.000001
vn 0.000000 -1.000000 -0.000000
vn 0.000000 -1.000000 0.000000
vn 0.000000 -1.000000 -0.000000
vn 0.000000 -1.000000 -0.000001
vn 0.000000 -1.000000 0.000000
vn 0.000000 -1.000000 -0.000001
vn 0.000000 -1.000000 0.000000
vn -0.000000 -1.000000 -0.000001
vn 0.000000 -1.000000 0.000000
vn -0.000000 -1.000000 -0.000000
vn 0.000000 -1.000000 -0.000000
vn -0.000000 -1.000000 -0.000000
vn 0.000000 -1.000000 -0.000001
vn -0.000000 -1.000000 -0.000000
vn 0.000000 -1.000000 0.000000
vn -0.000000 -1.000000 -0.000000
vn 0.000000 -1.000000 0.000000
vn -0.000000 -1.000000 0.000000
vn 0.000000 -1.000000 -0.000000
vn -0.000000 -1.000000 -0.000000
vn 0.000000 -1.000000 0.000001
vn -0.000000 -1.000000 0.000000
vn 0.000000 -1.000000 0.000000
vn -0.000000 -1.000000 0.000000
vn 0.000000 -1.000000 -0.000000
vn -0.000000 -1.000000 0.000000
vn 0.000000 -1.000000 -0.000000
vn 0.000000 -1.000000 0.000000
vn 0.000000 -1.000000 -0.000000
vn 0.000000 -1.000000 0.000000
vn 0.000000 -1.000000 0.000000
vn 0.000000 -1.000000 0.000000
vn 0.000000 -1.000000 0.000000
vn 0.000000 -1.000000 0.000000
vn 0.000000 -1.000000 -0.000000
vn 0.000000 -1.000000 -0.000000
vn 0.000000 -1.000000 0.000000
vn 0.000000 -1.000000 -0.000000
vn -0.059637 0.953202 0.296395
vn -0.059637 0.953202 0.296395
vn -0.059637 0.953202 0.296395
vn -0.059637 0.953202 0.296395
vn 0.000000 1.000000 0.000001
vn 0.183510 0.978561 0.093504
vn 0.183013 0.978678 0.093251
vn 0.000000 1.000000 0.000001
vn -0.160817 0.976937 0.140472
vn -0.157943 0.977360 0.140790
vn -0.356094 0.923463 0.142876
vn -0.339265 0.929100 0.147214
vn -0.087600 0.968701 0.232259
vn -0.087557 0.968711 0.232236
vn -0.125994 0.959274 0.252822
vn -0.125994 0.959274 0.252822
vn 0.000000 1.000000 0.000000
vn 0.000000 1.000000 0.000000
vn 0.000000 1.000000 0.000000
vn 0.000000 1.000000 0.000000
vn 0.000000 1.000000 0.000001
vn 0.000000 1.000000 0.000001
vn 0.000000 1.000000 0.000001
vn 0.000000 1.000000 0.000001
vn 0.000000 1.000000 0.000000
vn 0.000000 1.000000 0.000000
vn 0.000000 1.000000 -0.000001
vn 0.000000 1.000000 -0.000001
vn -0.003153 0.999976 -0.006183
vn -0.001578 0.999994 -0.003091
vn -0.001894 0.999995 -0.002716
vn -0.004193 0.999984 -0.003874
vn -0.000002 1.000000 0.000003
vn -0.000001 1.000000 0.000002
vn -0.000001 1.000000 0.000003
vn -0.000001 1.000000 0.000002
vn -0.000000 1.000000 0.000003
vn -0.000000 1.000000 0.000002
vn 0.000001 1.000000 0.000002
vn 0.000001 1.000000 0.000002
vn 0.002455 0.999994 -0.002452
vn 0.002640 0.999995 -0.001998
vn 0.004909 0.999976 -0.004906
vn 0.005185 0.999984 -0.002389
vn 0.000000 1.000000 0.000001
vn 0.000000 1.000000 0.000000
vn 0.000000 1.000000 -0.000000
vn 0.000000 1.000000 0.000001
vn 0.000000 1.000000 0.000000
vn 0.000000 1.000000 -0.000000
vn 0.000000 1.000000 0.000001
vn 0.000000 1.000000 0.000001
vn 0.005163 0.999985 -0.001677
vn 0.004392 0.999985 -0.003191
vn 0.003451 0.999991 -0.002507
vn 0.004057 0.999991 -0.001318
vn 0.003191 0.999985 -0.004393
vn 0.002507 0.999991 -0.003451
vn 0.001678 0.999985 -0.005164
vn 0.001318 0.999991 -0.004057
vn -0.000000 0.999985 -0.005429
vn -0.000000 0.999991 -0.004266
vn -0.001678 0.999985 -0.005163
vn -0.001318 0.999991 -0.004057
vn -0.003191 0.999985 -0.004392
vn -0.002507 0.999991 -0.003451
vn -0.004392 0.999985 -0.003191
vn -0.003451 0.999991 -0.002507
vn -0.005163 0.999985 -0.001677
vn -0.004057 0.999991 -0.001318
vn -0.005429 0.999985 0.000000
vn -0.004266 0.999991 0.000000
vn -0.004127 0.999991 -0.001197
vn -0.001994 0.999997 -0.001534
vn 0.000000 1.000000 0.000000
vn 0.000000 1.000000 0.000000
vn 0.000000 1.000000 -0.000000
vn 0.000000 1.000000 0.000000
vn 0.002370 0.999997 -0.000843
vn 0.004294 0.999991 0.000137
vn 0.005163 0.999985 0.001677
vn 0.004057 0.999991 0.001318
vn 0.005429 0.999985 -0.000000
vn 0.004266 0.999991 0.000000
vn 0.000000 -1.000000 -0.000000
vn 0.000000 1.000000 0.000000
vn 0.951057 -0.000000 -0.309016
vn 0.809017 -0.000000 -0.587785
vn 0.809017 -0.000001 -0.587786
vn 0.933442 -0.000001 -0.358728
vn -0.809017 0.000001 0.587785
vn -0.951057 0.000000 0.309016
vn -0.938659 0.000000 0.344847
vn -0.799420 0.000001 0.600772
vn 0.587785 -0.000000 -0.809017
vn 0.587785 0.000000 -0.809017
vn -0.587785 0.000000 0.809017
vn -0.587784 0.000000 0.809018
vn 0.309017 0.000000 -0.951057
vn 0.309017 0.000001 -0.951057
vn -0.309017 -0.000000 0.951057
vn -0.309016 -0.000000 0.951057
vn -0.000000 0.000000 -1.000000
vn 0.010775 0.000001 -0.999942
vn 0.000000 -0.000000 1.000000
vn -0.010774 -0.000001 0.999942
vn -0.309017 0.000000 -0.951056
vn -0.297132 0.000000 -0.954836
vn 0.309017 -0.000000 0.951056
vn 0.297133 -0.000001 0.954836
vn -0.587785 0.000000 -0.809017
vn -0.587785 0.000000 -0.809017
vn 0.587785 -0.000001 0.809017
vn 0.587785 -0.000000 0.809017
vn -0.809017 -0.000000 -0.587785
vn -0.790300 -0.000000 -0.612720
vn 0.809017 -0.000000 0.587785
vn 0.790300 0.000000 0.612720
vn -0.951057 -0.000000 -0.309017
vn -0.951056 -0.000000 -0.309017
vn 0.951057 0.000000 0.309017
vn 0.951056 0.000000 0.309017
vn -1.000000 -0.000000 -0.000000
vn -1.000000 -0.000000 0.000000
vn 1.000000 0.000000 0.000000
vn 1.000000 0.000000 0.000000
vn -0.958024 0.000000 0.286687
vn -0.987688 -0.000001 0.156434
vn 0.309017 -0.000002 0.951056
vn 0.309017 -0.000002 0.951056
vn 0.309017 -0.000002 0.951056
vn 0.309017 -0.000002 0.951056
vn 0.987688 0.000000 -0.156434
vn 0.987688 0.000000 -0.156434
vn 0.822544 0.000000 0.568701
vn 0.951056 0.000000 0.309017
vn 0.951056 0.000000 0.309017
vn 0.891007 0.000000 0.453990
vn -0.951056 -0.000000 -0.309017
vn -0.891006 0.000000 -0.453991
vn -0.891006 0.000000 -0.453991
vn -0.951056 -0.000000 -0.309017
vn -0.587785 0.000000 0.809017
vn -0.587785 0.000000 0.809017
vn -0.587785 0.000000 0.809017
vn -0.587785 0.000000 0.809017
vn 1.000000 0.000000 0.000001
vn 1.000000 -0.000000 0.000001
vn -1.000000 -0.000000 -0.000001
vn -1.000000 -0.000000 -0.000001
vn 0.776398 -0.000000 -0.630242
vn 0.891006 0.000000 -0.453990
vn -0.891006 0.000000 0.453991
vn -0.749238 0.000000 0.662301
vn 0.309017 0.000000 0.951057
vn 0.309017 0.000000 0.951057
vn 0.309017 0.000000 0.951057
vn 0.309017 0.000000 0.951057
vn 0.578547 -0.000000 -0.815649
vn -0.578547 0.000000 0.815649
vn 0.309016 0.000001 -0.951057
vn -0.322565 0.000000 0.946547
vn 0.020703 0.000000 -0.999786
vn -0.027877 -0.000001 0.999611
vn -0.297908 -0.000001 -0.954595
vn 0.295791 -0.000001 0.955253
vn -0.521050 -0.000001 -0.853526
vn 0.534095 0.000001 0.845425
vn -0.707107 0.000000 -0.707107
vn -0.587786 0.000000 0.809017
vn -0.587786 0.000000 0.809017
vn -0.587786 0.000000 0.809017
vn -0.587786 0.000000 0.809017
vn 0.707106 0.000001 0.707107
vn 0.563379 -0.000001 -0.826198
vn 0.707106 -0.000001 -0.707107
vn -0.707106 0.000000 0.707108
vn -0.560209 0.000000 0.828351
vn 0.587785 0.000000 0.809017
vn 0.587785 0.000000 0.809017
vn 0.587785 0.000000 0.809017
vn 0.587785 0.000000 0.809017
vn 0.309016 -0.000000 -0.951057
vn -0.352451 0.000001 0.935830
vn 0.037733 -0.000000 -0.999288
vn -0.048765 0.000001 0.998810
vn -0.300690 -0.000002 -0.953722
vn 0.303979 0.000001 0.952679
vn -0.453991 -0.000002 -0.891006
vn -0.809017 0.000002 0.587786
vn -0.809017 0.000002 0.587786
vn -0.809017 0.000002 0.587786
vn -0.809017 0.000002 0.587786
vn 0.453987 0.000002 0.891008
vn 0.932908 0.194423 -0.303119
vn 0.932909 0.194423 -0.303119
vn 0.980918 0.194422 0.000001
vn 0.980918 0.194422 0.000001
vn 0.793579 0.194423 -0.576569
vn 0.793579 0.194422 -0.576569
vn 0.576569 0.194422 -0.793579
vn 0.576569 0.194422 -0.793579
vn 0.303120 0.194422 -0.932908
vn 0.303120 0.194422 -0.932908
vn -0.000000 0.194422 -0.980918
vn 0.000000 0.194422 -0.980918
vn -0.303120 0.194422 -0.932908
vn -0.303120 0.194422 -0.932908
vn -0.576569 0.194422 -0.793579
vn -0.576569 0.194422 -0.793579
vn -0.793580 0.194422 -0.576569
vn -0.793580 0.194422 -0.576569
vn -0.932908 0.194422 -0.303121
vn -0.932908 0.194422 -0.303120
vn -0.980918 0.194422 -0.000000
vn -0.980918 0.194422 -0.000000
vn -0.932909 0.194422 0.303120
vn -0.932908 0.194422 0.303120
vn -0.793579 0.194422 0.576570
vn -0.793579 0.194422 0.576569
vn -0.576570 0.194421 0.793579
vn -0.576569 0.194421 0.793580
vn -0.303121 0.194421 0.932908
vn -0.303120 0.194421 0.932909
vn 0.000000 0.194422 0.980918
vn 0.000000 0.194422 0.980918
vn 0.303121 0.194422 0.932908
vn 0.303121 0.194422 0.932908
vn 0.576569 0.194422 0.793579
vn 0.576569 0.194422 0.793579
vn 0.793579 0.194422 0.576569
vn 0.793579 0.194422 0.576569
vn 0.932909 0.194422 0.303120
vn 0.932908 0.194422 0.303120
vn 0.000000 -1.000000 -0.000000
vn 0.000001 -1.000000 0.000000
vn 0.000000 -1.000000 -0.000001
vn 0.000000 -1.000000 -0.000001
vn -0.000000 -1.000000 -0.000001
vn -0.000000 -1.000000 -0.000001
vn -0.000000 -1.000000 -0.000000
vn -0.000000 -1.000000 -0.000000
vn -0.000001 -1.000000 0.000000
vn -0.000001 -1.000000 -0.000000
vn -0.000001 -1.000000 -0.000000
vn -0.000000 -1.000000 0.000000
vn -0.000000 -1.000000 0.000001
vn -0.000000 -1.000000 0.000000
vn 0.000000 -1.000000 0.000001
vn 0.000000 -1.000000 0.000001
vn 0.000000 -1.000000 0.000000
vn 0.000000 -1.000000 0.000000
vn 0.000001 -1.000000 0.000000
vn 0.000001 -1.000000 0.000000
vn 0.951057 -0.000000 -0.309016
vn 0.809017 -0.000000 -0.587785
vn 0.809017 0.000000 -0.587785
vn 0.951057 -0.000000 -0.309016
vn 0.587785 -0.000000 -0.809017
vn 0.587785 0.000000 -0.809017
vn 0.309017 -0.000000 -0.951057
vn 0.309017 0.000000 -0.951057
vn 0.000000 -0.000000 -1.000000
vn 0.000000 0.000000 -1.000000
vn -0.309017 -0.000000 -0.951056
vn -0.309017 0.000000 -0.951056
vn -0.587785 -0.000000 -0.809017
vn -0.587785 -0.000000 -0.809017
vn -0.809017 0.000000 -0.587785
vn -0.809017 0.000000 -0.587785
vn -0.951056 0.000000 -0.309017
vn -0.951056 0.000000 -0.309017
vn -1.000000 0.000000 -0.000000
vn -1.000000 0.000000 -0.000000
vn -0.951050 0.000000 0.309037
vn -0.951017 0.000000 0.309140
vn -0.809004 0.000000 0.587802
vn -0.808941 0.000000 0.587890
vn -0.587785 0.000000 0.809017
vn -0.587785 0.000000 0.809017
vn -0.309017 0.000000 0.951057
vn -0.309017 0.000000 0.951057
vn 0.000000 0.000000 1.000000
vn 0.000000 0.000000 1.000000
vn 0.309017 0.000000 0.951056
vn 0.309017 0.000000 0.951056
vn 0.587768 0.000000 0.809029
vn 0.587681 0.000000 0.809093
vn 0.809004 -0.000000 0.587803
vn 0.808941 0.000000 0.587890
vn 0.951056 -0.000000 0.309017
vn 0.951056 0.000000 0.309017
vn 1.000000 -0.000000 0.000001
vn 1.000000 0.000000 0.000001
vn 0.932931 0.194374 -0.303082
vn 0.980928 0.194370 0.000008
vn 0.932913 0.194452 0.303087
vn 0.793604 0.194535 0.576497
vn 0.576553 0.194531 0.793564
vn 0.303094 0.194401 0.932922
vn 0.000017 0.194491 0.980904
vn -0.303195 0.194495 0.932869
vn -0.576491 0.194469 0.793624
vn -0.793530 0.194518 0.576604
vn -0.932898 0.194531 0.303082
vn -0.980928 0.194369 -0.000002
vn -0.932907 0.194368 -0.303160
vn -0.793489 0.194589 -0.576638
vn -0.576485 0.194508 -0.793619
vn -0.303178 0.194452 -0.932883
vn -0.000017 0.194545 -0.980893
vn 0.303195 0.194495 -0.932869
vn 0.576491 0.194469 -0.793624
vn 0.793531 0.194518 -0.576604
vn 0.951057 0.000000 -0.309016
vn 0.809017 0.000000 -0.587785
vn 1.000000 0.000000 0.000001
vn 0.951056 -0.000000 0.309017
vn 0.809009 -0.000000 0.587797
vn 0.587774 -0.000000 0.809025
vn 0.587638 0.000000 0.809124
vn 0.309017 -0.000000 0.951056
vn 0.309017 0.000000 0.951057
vn 0.000000 -0.000000 1.000000
vn 0.000000 0.000000 1.000000
vn -0.309017 0.000000 0.951057
vn -0.309017 0.000000 0.951057
vn -0.587785 0.000000 0.809017
vn -0.587785 0.000000 0.809017
vn -0.809009 0.000000 0.587797
vn -0.808910 0.000000 0.587933
vn -0.951052 0.000000 0.309031
vn -1.000000 0.000000 -0.000000
vn -0.951056 0.000000 -0.309017
vn -0.809017 -0.000000 -0.587785
vn -0.587785 -0.000000 -0.809017
vn -0.309017 -0.000000 -0.951056
vn -0.000000 0.000000 -1.000000
vn 0.309017 0.000000 -0.951057
vn 0.587785 -0.000000 -0.809017
vn 0.809017 -0.000000 -0.587785
vn 0.951057 0.000000 -0.309016
vn 0.587785 -0.000000 -0.809017
vn 0.309017 0.000000 -0.951057
vn -0.000000 0.000000 -1.000000
vn -0.309017 -0.000000 -0.951056
vn -0.587785 0.000000 -0.809017
vn -0.809017 0.000000 -0.587785
vn -0.951056 0.000000 -0.309017
vn -1.000000 0.000000 -0.000000
vn -0.951078 0.000000 0.308950
vn -0.809058 0.000000 0.587728
vn -0.587785 0.000000 0.809017
vn -0.309017 0.000000 0.951057
vn 0.000000 0.000000 1.000000
vn 0.309017 0.000000 0.951056
vn 0.587842 -0.000000 0.808976
vn 0.809058 0.000000 0.587728
vn 0.951056 -0.000000 0.309017
vn 1.000000 0.000000 0.000001
s 1
g Candle3
usemtl initialShadingGroup
f 1/1/1 2/2/2 22/159/3 21/197/4
f 2/2/2 3/3/5 23/161/6 22/159/3
f 3/3/5 4/4/7 24/163/8 23/161/6
f 4/4/7 5/5/9 25/165/10 24/163/8
f 5/5/9 6/6/11 26/167/12 25/165/10
f 6/6/11 7/7/13 27/169/14 26/167/12
f 7/7/13 8/8/15 28/171/16 27/169/14
f 8/8/15 9/9/17 29/173/18 28/171/16
f 9/9/17 10/10/19 30/175/20 29/173/18
f 10/10/19 11/11/21 31/177/22 30/175/20
f 11/11/21 12/12/23 32/179/24 31/177/22
f 12/12/23 13/13/25 33/181/26 32/179/24
f 13/13/25 14/14/27 34/183/28 33/181/26
f 14/14/27 15/15/29 35/185/30 34/183/28
f 15/15/29 16/16/31 36/187/32 35/185/30
f 16/16/31 17/17/33 37/189/34 36/187/32
f 17/17/33 18/18/35 38/191/36 37/189/34
f 18/18/35 19/19/37 39/193/38 38/191/36
f 19/19/37 20/20/39 40/195/40 39/193/38
f 20/20/39 1/1/1 21/197/4 40/195/40
s off
f 131/111/41 132/112/42 133/113/43 134/114/44
s 2
f 147/127/45 148/128/46 149/129/47 150/130/48
f 148/128/46 151/131/49 152/132/50 149/129/47
f 151/131/49 153/133/51 154/134/52 152/132/50
f 153/133/51 155/135/53 156/136/54 154/134/52
f 155/135/53 157/137/55 158/138/56 156/136/54
s off
f 143/123/57 145/125/58 146/126/59 144/124/60
s 3
f 117/97/61 119/99/62 120/100/63 118/98/64
f 119/99/62 121/101/65 122/102/66 120/100/63
f 121/101/65 123/103/67 124/104/68 122/102/66
s 4
f 51/29/69 52/28/70 72/48/71 71/49/72
f 52/28/70 53/27/73 73/47/74 72/48/71
f 53/27/73 54/26/75 74/46/76 73/47/74
f 54/26/75 55/25/77 75/45/78 74/46/76
f 55/25/77 56/24/79 76/44/80 75/45/78
f 56/24/79 57/23/81 77/43/82 76/44/80
f 57/23/81 58/22/83 78/42/84 77/43/82
s 5
f 125/105/85 126/106/86 127/107/87 128/108/88
f 126/106/86 129/109/89 130/110/90 127/107/87
f 129/109/89 103/83/91 106/86/92 130/110/90
s 4
f 61/59/93 62/58/94 82/78/95 81/79/96
f 62/58/94 63/57/97 83/77/98 82/78/95
f 63/57/97 64/56/99 84/76/100 83/77/98
f 64/56/99 65/55/101 85/75/102 84/76/100
f 65/55/101 66/54/103 86/74/104 85/75/102
f 66/54/103 67/53/105 87/73/106 86/74/104
f 67/53/105 68/52/107 88/72/108 87/73/106
f 68/52/107 69/51/109 89/71/110 88/72/108
f 69/51/109 70/50/111 90/70/112 89/71/110
f 70/50/111 71/49/72 91/69/113 90/70/112
f 71/49/72 72/48/71 92/68/114 91/69/113
f 72/48/71 73/47/74 93/67/115 92/68/114
f 73/47/74 74/46/76 94/66/116 93/67/115
f 74/46/76 75/45/78 95/65/117 94/66/116
f 75/45/78 76/44/80 96/64/118 95/65/117
f 76/44/80 77/43/82 97/63/119 96/64/118
f 77/43/82 78/42/84 98/62/120 97/63/119
f 78/42/84 79/41/121 99/61/122 98/62/120
f 79/41/121 80/60/123 100/80/124 99/61/122
f 80/60/123 61/59/93 81/79/96 100/80/124
s 1
f 2/2/2 1/1/1 101/81/125
f 3/3/5 2/2/2 101/81/125
f 4/4/7 3/3/5 101/81/125
f 5/5/9 4/4/7 101/81/125
f 6/6/11 5/5/9 101/81/125
f 7/7/13 6/6/11 101/81/125
f 8/8/15 7/7/13 101/81/125
f 9/9/17 8/8/15 101/81/125
f 10/10/19 9/9/17 101/81/125
f 11/11/21 10/10/19 101/81/125
f 12/12/23 11/11/21 101/81/125
f 13/13/25 12/12/23 101/81/125
f 14/14/27 13/13/25 101/81/125
f 15/15/29 14/14/27 101/81/125
f 16/16/31 15/15/29 101/81/125
f 17/17/33 16/16/31 101/81/125
f 18/18/35 17/17/33 101/81/125
f 19/19/37 18/18/35 101/81/125
f 20/20/39 19/19/37 101/81/125
f 1/1/1 20/20/39 101/81/125
s 4
f 81/79/96 82/78/95 102/82/126
f 82/78/95 83/77/98 102/82/126
f 83/77/98 84/76/100 102/82/126
f 84/76/100 85/75/102 102/82/126
f 85/75/102 86/74/104 102/82/126
f 86/74/104 87/73/106 102/82/126
f 87/73/106 88/72/108 102/82/126
f 88/72/108 89/71/110 102/82/126
f 89/71/110 90/70/112 102/82/126
f 90/70/112 91/69/113 102/82/126
f 91/69/113 92/68/114 102/82/126
f 92/68/114 93/67/115 102/82/126
f 93/67/115 94/66/116 102/82/126
f 94/66/116 95/65/117 102/82/126
f 95/65/117 96/64/118 102/82/126
f 96/64/118 97/63/119 102/82/126
f 97/63/119 98/62/120 102/82/126
f 98/62/120 99/61/122 102/82/126
f 99/61/122 100/80/124 102/82/126
f 100/80/124 81/79/96 102/82/126
s 7
f 41/39/127 42/38/128 104/84/129 103/83/130
s 8
f 62/58/131 61/59/132 106/86/133 105/85/134
s 7
f 42/38/128 43/37/135 107/87/136 104/84/129
s 8
f 63/57/137 62/58/131 105/85/134 108/88/138
s 7
f 43/37/135 44/36/139 109/89/140 107/87/136
s 8
f 64/56/141 63/57/137 108/88/138 110/90/142
s 7
f 44/36/139 45/35/143 111/91/144 109/89/140
s 8
f 65/55/145 64/56/141 110/90/142 112/92/146
s 7
f 45/35/143 46/34/147 113/93/148 111/91/144
s 8
f 66/54/149 65/55/145 112/92/146 114/94/150
s 7
f 46/34/147 47/33/151 115/95/152 113/93/148
s 8
f 67/53/153 66/54/149 114/94/150 116/96/154
s 7
f 47/33/151 48/32/155 117/97/156 115/95/152
s 8
f 68/52/157 67/53/153 116/96/154 118/98/158
s 7
f 48/32/155 49/31/159 119/99/160 117/97/156
s 8
f 69/51/161 68/52/157 118/98/158 120/100/162
s 7
f 49/31/159 50/30/163 121/101/164 119/99/160
s 8
f 70/50/165 69/51/161 120/100/162 122/102/166
s 7
f 50/30/163 51/29/167 123/103/168 121/101/164
s off
f 51/29/169 71/49/170 124/104/171 123/103/172
s 8
f 71/49/173 70/50/165 122/102/166 124/104/174
s 7
f 58/22/175 59/21/176 126/106/177 125/105/178
s 8
f 79/41/179 78/42/180 128/108/181 127/107/182
s off
f 78/42/183 58/22/184 125/105/185 128/108/186
s 7
f 59/21/176 60/40/187 129/109/188 126/106/177
s 8
f 80/60/189 79/41/179 127/107/182 130/110/190
s 7
f 60/40/187 41/39/127 103/83/130 129/109/188
s 8
f 61/59/132 80/60/189 130/110/190 106/86/133
s 7
f 103/83/130 104/84/129 132/112/191 131/111/192
s 8
f 105/85/134 106/86/133 134/114/193 133/113/194
s off
f 106/86/195 103/83/196 131/111/197 134/114/198
s 7
f 104/84/129 107/87/136 135/115/199 132/112/191
s 8
f 108/88/138 105/85/134 133/113/194 136/116/200
s 7
f 107/87/136 109/89/140 137/117/201 135/115/199
s 8
f 110/90/142 108/88/138 136/116/200 138/118/202
s 7
f 109/89/140 111/91/144 139/119/203 137/117/201
s 8
f 112/92/146 110/90/142 138/118/202 140/120/204
s 7
f 111/91/144 113/93/148 141/121/205 139/119/203
s 8
f 114/94/150 112/92/146 140/120/204 142/122/206
s 7
f 113/93/148 115/95/152 143/123/207 141/121/205
s 8
f 116/96/154 114/94/150 142/122/206 144/124/208
s 7
f 115/95/152 117/97/156 145/125/209 143/123/207
s off
f 117/97/210 118/98/211 146/126/212 145/125/213
s 8
f 118/98/158 116/96/154 144/124/208 146/126/214
s 7
f 132/112/191 135/115/199 148/128/215 147/127/216
s 8
f 136/116/200 133/113/194 150/130/217 149/129/218
s off
f 133/113/219 132/112/220 147/127/221 150/130/222
s 7
f 135/115/199 137/117/201 151/131/223 148/128/215
s 8
f 138/118/202 136/116/200 149/129/218 152/132/224
s 7
f 137/117/201 139/119/203 153/133/225 151/131/223
s 8
f 140/120/204 138/118/202 152/132/224 154/134/226
s 7
f 139/119/203 141/121/205 155/135/227 153/133/225
s 8
f 142/122/206 140/120/204 154/134/226 156/136/228
s 7
f 141/121/205 143/123/207 157/137/229 155/135/227
s off
f 143/123/230 144/124/231 158/138/232 157/137/233
s 8
f 144/124/208 142/122/206 156/136/228 158/138/234
s 11
f 159/160/235 199/241/236 200/242/237 197/198/238
f 218/260/239 199/241/236 159/160/235 161/162/240
f 217/259/241 218/260/239 161/162/240 163/164/242
f 216/258/243 217/259/241 163/164/242 165/166/244
f 215/257/245 216/258/243 165/166/244 167/168/246
f 214/256/247 215/257/245 167/168/246 169/170/248
f 213/255/249 214/256/247 169/170/248 171/172/250
f 212/254/251 213/255/249 171/172/250 173/174/252
f 211/253/253 212/254/251 173/174/252 175/176/254
f 210/252/255 211/253/253 175/176/254 177/178/256
f 209/251/257 210/252/255 177/178/256 179/180/258
f 208/250/259 209/251/257 179/180/258 181/182/260
f 207/249/261 208/250/259 181/182/260 183/184/262
f 206/248/263 207/249/261 183/184/262 185/186/264
f 205/247/265 206/248/263 185/186/264 187/188/266
f 204/246/267 205/247/265 187/188/266 189/190/268
f 203/245/269 204/246/267 189/190/268 191/192/270
f 202/244/271 203/245/269 191/192/270 193/194/272
f 201/243/273 202/244/271 193/194/272 195/196/274
f 200/242/237 201/243/273 195/196/274 197/198/238
s 1
f 21/197/4 22/159/3 161/162/275 159/160/276
f 22/159/3 23/161/6 163/164/277 161/162/275
f 23/161/6 24/163/8 165/166/278 163/164/277
f 24/163/8 25/165/10 167/168/279 165/166/278
f 25/165/10 26/167/12 169/170/280 167/168/279
f 26/167/12 27/169/14 171/172/281 169/170/280
f 27/169/14 28/171/16 173/174/282 171/172/281
f 28/171/16 29/173/18 175/176/283 173/174/282
f 29/173/18 30/175/20 177/178/284 175/176/283
f 30/175/20 31/177/22 179/180/285 177/178/284
f 31/177/22 32/179/24 181/182/286 179/180/285
f 32/179/24 33/181/26 183/184/287 181/182/286
f 33/181/26 34/183/28 185/186/288 183/184/287
f 34/183/28 35/185/30 187/188/289 185/186/288
f 35/185/30 36/187/32 189/190/290 187/188/289
f 36/187/32 37/189/34 191/192/291 189/190/290
f 37/189/34 38/191/36 193/194/292 191/192/291
f 38/191/36 39/193/38 195/196/293 193/194/292
f 39/193/38 40/195/40 197/198/294 195/196/293
f 40/195/40 21/197/4 159/160/276 197/198/294
s 7
f 160/199/295 162/200/296 219/261/297 220/262/298
f 162/200/296 164/202/299 238/281/300 219/261/297
f 164/202/299 166/204/301 237/280/302 238/281/300
f 166/204/301 168/206/303 236/279/304 237/280/302
f 168/206/303 170/208/305 235/278/306 236/279/304
f 170/208/305 172/210/307 234/277/308 235/278/306
f 172/210/307 174/212/309 233/276/310 234/277/308
f 174/212/309 176/214/311 232/275/312 233/276/310
f 176/214/311 178/216/313 231/274/314 232/275/312
f 178/216/313 180/218/315 230/273/316 231/274/314
f 180/218/315 182/220/317 229/272/318 230/273/316
f 182/220/317 184/222/319 228/271/320 229/272/318
f 184/222/319 186/224/321 227/270/322 228/271/320
f 186/224/321 188/226/323 226/269/324 227/270/322
f 188/226/323 190/228/325 225/268/326 226/269/324
f 190/228/325 192/230/327 224/267/328 225/268/326
f 192/230/327 194/232/329 223/266/330 224/267/328
f 194/232/329 196/234/331 222/265/332 223/266/330
f 196/234/331 198/236/333 221/264/334 222/265/332
f 198/236/333 160/238/295 220/263/298 221/264/334
s 11
f 200/242/237 199/241/236 160/139/335 198/158/336
f 196/157/337 201/243/273 200/242/237 198/158/336
f 194/156/338 202/244/271 201/243/273 196/157/337
f 192/155/339 203/245/269 202/244/271 194/156/338
f 190/154/340 204/246/267 203/245/269 192/155/339
f 188/153/341 205/247/265 204/246/267 190/154/340
f 186/152/342 206/248/263 205/247/265 188/153/341
f 184/151/343 207/249/261 206/248/263 186/152/342
f 182/150/344 208/250/259 207/249/261 184/151/343
f 180/149/345 209/251/257 208/250/259 182/150/344
f 178/148/346 210/252/255 209/251/257 180/149/345
f 176/147/347 211/253/253 210/252/255 178/148/346
f 174/146/348 212/254/251 211/253/253 176/147/347
f 172/145/349 213/255/249 212/254/251 174/146/348
f 170/144/350 214/256/247 213/255/249 172/145/349
f 168/143/351 215/257/245 214/256/247 170/144/350
f 166/142/352 216/258/243 215/257/245 168/143/351
f 164/141/353 217/259/241 216/258/243 166/142/352
f 162/140/354 218/260/239 217/259/241 164/141/353
f 160/139/335 199/241/236 218/260/239 162/140/354
s 7
f 239/282/355 240/284/356 42/203/128 41/201/127
f 258/302/357 239/283/355 41/239/127 60/240/187
f 257/301/358 258/302/357 60/240/187 59/237/176
f 256/300/359 257/301/358 59/237/176 58/235/175
f 255/299/360 256/300/359 58/235/175 57/233/361
f 254/298/362 255/299/360 57/233/361 56/231/363
f 253/297/364 254/298/362 56/231/363 55/229/365
f 252/296/366 253/297/364 55/229/365 54/227/367
f 251/295/368 252/296/366 54/227/367 53/225/369
f 250/294/370 251/295/368 53/225/369 52/223/371
f 249/293/372 250/294/370 52/223/371 51/221/167
f 248/292/373 249/293/372 51/221/167 50/219/163
f 247/291/374 248/292/373 50/219/163 49/217/159
f 246/290/375 247/291/374 49/217/159 48/215/155
f 245/289/376 246/290/375 48/215/155 47/213/151
f 244/288/377 245/289/376 47/213/151 46/211/147
f 243/287/378 244/288/377 46/211/147 45/209/143
f 242/286/379 243/287/378 45/209/143 44/207/139
f 241/285/380 242/286/379 44/207/139 43/205/135
f 240/284/356 241/285/380 43/205/135 42/203/128
f 220/262/298 219/261/297 259/303/381 260/304/382
f 219/261/297 238/281/300 278/323/383 259/303/381
f 238/281/300 237/280/302 277/322/384 278/323/383
f 237/280/302 236/279/304 276/321/385 277/322/384
f 236/279/304 235/278/306 275/320/386 276/321/385
f 235/278/306 234/277/308 274/319/387 275/320/386
f 234/277/308 233/276/310 273/318/388 274/319/387
f 233/276/310 232/275/312 272/317/389 273/318/388
f 232/275/312 231/274/314 271/316/390 272/317/389
f 231/274/314 230/273/316 270/315/391 271/316/390
f 230/273/316 229/272/318 269/314/392 270/315/391
f 229/272/318 228/271/320 268/313/393 269/314/392
f 228/271/320 227/270/322 267/312/394 268/313/393
f 227/270/322 226/269/324 266/311/395 267/312/394
f 226/269/324 225/268/326 265/310/396 266/311/395
f 225/268/326 224/267/328 264/309/397 265/310/396
f 224/267/328 223/266/330 263/308/398 264/309/397
f 223/266/330 222/265/332 262/307/399 263/308/398
f 222/265/332 221/264/334 261/306/400 262/307/399
f 221/264/334 220/263/298 260/305/382 261/306/400
f 260/304/382 259/303/381 240/284/356 239/282/355
f 261/306/400 260/305/382 239/283/355 258/302/357
f 262/307/399 261/306/400 258/302/357 257/301/358
f 263/308/398 262/307/399 257/301/358 256/300/359
f 264/309/397 263/308/398 256/300/359 255/299/360
f 265/310/396 264/309/397 255/299/360 254/298/362
f 266/311/395 265/310/396 254/298/362 253/297/364
f 267/312/394 266/311/395 253/297/364 252/296/366
f 268/313/393 267/312/394 252/296/366 251/295/368
f 269/314/392 268/313/393 251/295/368 250/294/370
f 270/315/391 269/314/392 250/294/370 249/293/372
f 271/316/390 270/315/391 249/293/372 248/292/373
f 272/317/389 271/316/390 248/292/373 247/291/374
f 273/318/388 272/317/389 247/291/374 246/290/375
f 274/319/387 273/318/388 246/290/375 245/289/376
f 275/320/386 274/319/387 245/289/376 244/288/377
f 276/321/385 275/320/386 244/288/377 243/287/378
f 277/322/384 276/321/385 243/287/378 242/286/379
f 278/323/383 277/322/384 242/286/379 241/285/380
f 259/303/381 278/323/383 241/285/380 240/284/356
g default
v -1.185991 1.574887 10.672079
v -1.187938 1.574887 10.668258
v -1.190970 1.574887 10.665227
v -1.194790 1.574887 10.663280
v -1.199025 1.574887 10.662609
v -1.203259 1.574887 10.663280
v -1.207080 1.574887 10.665227
v -1.210111 1.574887 10.668258
v -1.212058 1.574887 10.672079
v -1.212729 1.574887 10.676313
v -1.212058 1.574887 10.680548
v -1.210111 1.574887 10.684368
v -1.207080 1.574887 10.687400
v -1.203259 1.574887 10.689346
v -1.199025 1.574887 10.690017
v -1.194790 1.574887 10.689346
v -1.190970 1.574887 10.687400
v -1.187938 1.574887 10.684368
v -1.185992 1.574887 10.680548
v -1.185321 1.574887 10.676313
v -1.185991 1.684561 10.672079
v -1.187938 1.684561 10.668258
v -1.190970 1.684561 10.665227
v -1.194790 1.684561 10.663280
v -1.199025 1.684561 10.662609
v -1.203259 1.684561 10.663280
v -1.207080 1.684561 10.665227
v -1.210111 1.684561 10.668258
v -1.212058 1.684561 10.672079
v -1.212729 1.684561 10.676313
v -1.212058 1.684561 10.680548
v -1.210111 1.684561 10.684368
v -1.207080 1.684561 10.687400
v -1.203259 1.684561 10.689346
v -1.199025 1.684561 10.690017
v -1.194790 1.684561 10.689346
v -1.190970 1.684561 10.687400
v -1.187938 1.684561 10.684368
v -1.185992 1.684561 10.680548
v -1.185321 1.684561 10.676313
v -1.199025 1.574887 10.676313
v -1.199025 1.684561 10.676313
vt 0.648603 0.107966
vt 0.626409 0.064408
vt 0.591842 0.029841
vt 0.548284 0.007647
vt 0.500000 -0.000000
vt 0.451716 0.007647
vt 0.408159 0.029841
vt 0.373591 0.064409
vt 0.351397 0.107966
vt 0.343750 0.156250
vt 0.351397 0.204534
vt 0.373591 0.248091
vt 0.408159 0.282659
vt 0.451716 0.304853
vt 0.500000 0.312500
vt 0.548284 0.304853
vt 0.591841 0.282659
vt 0.626409 0.248091
vt 0.648603 0.204534
vt 0.656250 0.156250
vt 0.375000 0.312500
vt 0.387500 0.312500
vt 0.400000 0.312500
vt 0.412500 0.312500
vt 0.425000 0.312500
vt 0.437500 0.312500
vt 0.450000 0.312500
vt 0.462500 0.312500
vt 0.475000 0.312500
vt 0.487500 0.312500
vt 0.500000 0.312500
vt 0.512500 0.312500
vt 0.525000 0.312500
vt 0.537500 0.312500
vt 0.550000 0.312500
vt 0.562500 0.312500
vt 0.575000 0.312500
vt 0.587500 0.312500
vt 0.600000 0.312500
vt 0.612500 0.312500
vt 0.625000 0.312500
vt 0.375000 0.687500
vt 0.387500 0.687500
vt 0.400000 0.687500
vt 0.412500 0.687500
vt 0.425000 0.687500
vt 0.437500 0.687500
vt 0.450000 0.687500
vt 0.462500 0.687500
vt 0.475000 0.687500
vt 0.487500 0.687500
vt 0.500000 0.687500
vt 0.512500 0.687500
vt 0.525000 0.687500
vt 0.537500 0.687500
vt 0.550000 0.687500
vt 0.562500 0.687500
vt 0.575000 0.687500
vt 0.587500 0.687500
vt 0.600000 0.687500
vt 0.612500 0.687500
vt 0.625000 0.687500
vt 0.648603 0.795466
vt 0.626409 0.751908
vt 0.591842 0.717341
vt 0.548284 0.695147
vt 0.500000 0.687500
vt 0.451716 0.695147
vt 0.408159 0.717341
vt 0.373591 0.751909
vt 0.351397 0.795466
vt 0.343750 0.843750
vt 0.351397 0.892034
vt 0.373591 0.935591
vt 0.408159 0.970159
vt 0.451716 0.992353
vt 0.500000 1.000000
vt 0.548284 0.992353
vt 0.591841 0.970159
vt 0.626409 0.935591
vt 0.648603 0.892034
vt 0.656250 0.843750
vt 0.500000 0.156250
vt 0.500000 0.843750
vn 0.951057 0.000000 -0.309016
vn 0.809017 0.000000 -0.587785
vn 0.809017 0.000000 -0.587785
vn 0.951057 0.000000 -0.309016
vn 0.587785 0.000000 -0.809017
vn 0.587785 0.000000 -0.809017
vn 0.309017 0.000000 -0.951057
vn 0.309017 0.000000 -0.951057
vn 0.000000 0.000000 -1.000000
vn 0.000000 0.000000 -1.000000
vn -0.309017 0.000000 -0.951056
vn -0.309017 0.000000 -0.951056
vn -0.587785 0.000000 -0.809017
vn -0.587785 0.000000 -0.809017
vn -0.809017 0.000000 -0.587785
vn -0.809017 0.000000 -0.587785
vn -0.951057 0.000000 -0.309017
vn -0.951057 0.000000 -0.309017
vn -1.000000 0.000000 0.000000
vn -1.000000 0.000000 0.000000
vn -0.951057 0.000000 0.309017
vn -0.951057 0.000000 0.309017
vn -0.809017 0.000000 0.587785
vn -0.809017 0.000000 0.587785
vn -0.587785 0.000000 0.809017
vn -0.587785 0.000000 0.809017
vn -0.309017 0.000000 0.951057
vn -0.309017 0.000000 0.951057
vn 0.000000 0.000000 1.000000
vn 0.000000 0.000000 1.000000
vn 0.309017 0.000000 0.951056
vn 0.309017 0.000000 0.951056
vn 0.587785 0.000000 0.809017
vn 0.587785 0.000000 0.809017
vn 0.809017 0.000000 0.587785
vn 0.809017 0.000000 0.587785
vn 0.951057 0.000000 0.309017
vn 0.951057 0.000000 0.309017
vn 1.000000 0.000000 0.000001
vn 1.000000 0.000000 0.000001
vn 0.000000 -1.000000 -0.000001
vn 0.000000 -1.000000 0.000000
vn 0.000000 -1.000000 0.000000
vn 0.000000 -1.000000 -0.000001
vn 0.000000 -1.000000 0.000000
vn 0.000000 -1.000000 0.000000
vn 0.000000 -1.000000 0.000000
vn 0.000000 -1.000000 0.000001
vn 0.000000 -1.000000 0.000001
vn 0.000000 -1.000000 0.000000
vn 0.000000 -1.000000 0.000000
vn 0.000000 -1.000000 0.000001
vn 0.000000 -1.000000 0.000000
vn 0.000000 -1.000000 -0.000001
vn 0.000000 -1.000000 0.000000
vn 0.000000 -1.000000 0.000000
vn 0.000000 -1.000000 0.000000
vn 0.000000 -1.000000 0.000000
vn 0.000000 -1.000000 0.000000
vn 0.000000 -1.000000 0.000000
vn 0.000000 -1.000000 0.000000
vn 0.000000 1.000000 0.000000
vn 0.000000 1.000000 -0.000001
vn 0.000000 1.000000 -0.000000
vn 0.000000 1.000000 -0.000001
vn 0.000000 1.000000 0.000000
vn 0.000000 1.000000 0.000000
vn 0.000000 1.000000 -0.000000
vn 0.000000 1.000000 0.000000
vn 0.000000 1.000000 0.000000
vn 0.000000 1.000000 0.000000
vn 0.000000 1.000000 0.000000
vn 0.000000 1.000000 0.000000
vn 0.000000 1.000000 0.000000
vn 0.000000 1.000000 -0.000000
vn 0.000000 1.000000 -0.000000
vn 0.000000 1.000000 0.000000
vn 0.000000 1.000000 0.000000
vn 0.000000 1.000000 0.000000
vn 0.000000 1.000000 0.000001
vn 0.000000 1.000000 -0.000000
vn 0.000000 1.000000 -0.000001
s 1
g Candle3 pCylinder2
usemtl initialShadingGroup
f 279/344/401 280/345/402 300/366/403 299/365/404
f 280/345/402 281/346/405 301/367/406 300/366/403
f 281/346/405 282/347/407 302/368/408 301/367/406
f 282/347/407 283/348/409 303/369/410 302/368/408
f 283/348/409 284/349/411 304/370/412 303/369/410
f 284/349/411 285/350/413 305/371/414 304/370/412
f 285/350/413 286/351/415 306/372/416 305/371/414
f 286/351/415 287/352/417 307/373/418 306/372/416
f 287/352/417 288/353/419 308/374/420 307/373/418
f 288/353/419 289/354/421 309/375/422 308/374/420
f 289/354/421 290/355/423 310/376/424 309/375/422
f 290/355/423 291/356/425 311/377/426 310/376/424
f 291/356/425 292/357/427 312/378/428 311/377/426
f 292/357/427 293/358/429 313/379/430 312/378/428
f 293/358/429 294/359/431 314/380/432 313/379/430
f 294/359/431 295/360/433 315/381/434 314/380/432
f 295/360/433 296/361/435 316/382/436 315/381/434
f 296/361/435 297/362/437 317/383/438 316/382/436
f 297/362/437 298/363/439 318/384/440 317/383/438
f 298/363/439 279/364/401 299/385/404 318/384/440
s 2
f 280/325/441 279/324/442 319/406/443
f 281/326/444 280/325/441 319/406/443
f 282/327/445 281/326/444 319/406/443
f 283/328/446 282/327/445 319/406/443
f 284/329/447 283/328/446 319/406/443
f 285/330/448 284/329/447 319/406/443
f 286/331/449 285/330/448 319/406/443
f 287/332/450 286/331/449 319/406/443
f 288/333/451 287/332/450 319/406/443
f 289/334/452 288/333/451 319/406/443
f 290/335/453 289/334/452 319/406/443
f 291/336/454 290/335/453 319/406/443
f 292/337/455 291/336/454 319/406/443
f 293/338/456 292/337/455 319/406/443
f 294/339/457 293/338/456 319/406/443
f 295/340/458 294/339/457 319/406/443
f 296/341/459 295/340/458 319/406/443
f 297/342/460 296/341/459 319/406/443
f 298/343/461 297/342/460 319/406/443
f 279/324/442 298/343/461 319/406/443
s 3
f 299/404/462 300/403/463 320/407/464
f 300/403/463 301/402/465 320/407/464
f 301/402/465 302/401/466 320/407/464
f 302/401/466 303/400/467 320/407/464
f 303/400/467 304/399/468 320/407/464
f 304/399/468 305/398/469 320/407/464
f 305/398/469 306/397/470 320/407/464
f 306/397/470 307/396/471 320/407/464
f 307/396/471 308/395/472 320/407/464
f 308/395/472 309/394/473 320/407/464
f 309/394/473 310/393/474 320/407/464
f 310/393/474 311/392/475 320/407/464
f 311/392/475 312/391/476 320/407/464
f 312/391/476 313/390/477 320/407/464
f 313/390/477 314/389/478 320/407/464
f 314/389/478 315/388/479 320/407/464
f 315/388/479 316/387/480 320/407/464
f 316/387/480 317/386/481 320/407/464
f 317/386/481 318/405/482 320/407/464
f 318/405/482 299/404/462 320/407/464
