# This file uses centimeters as units for non-parametric coordinates.

mtllib Light_Switch.mtl
g default
v -0.315120 6.318102 -11.731360
v -0.315120 6.318102 -12.222540
v -0.315120 7.124019 -11.731360
v -0.315120 7.124019 -12.222540
v -0.426213 7.124019 -11.731360
v -0.426213 7.124019 -12.222540
v -0.426213 6.318102 -11.731360
v -0.426213 6.318102 -12.222540
v -0.426213 7.107926 -11.754620
v -0.426213 7.107926 -12.199280
v -0.426213 6.334195 -12.199280
v -0.426213 6.334195 -11.754620
v -0.457687 7.084296 -11.780210
v -0.457687 7.084296 -12.173690
v -0.457687 6.357825 -12.173690
v -0.457687 6.357825 -11.780210
v -0.315120 6.721060 -11.731360
v -0.426213 6.721060 -11.731360
v -0.426213 6.721060 -11.754620
v -0.457687 6.721060 -11.780210
v -0.457687 6.721060 -12.173690
v -0.426213 6.721060 -12.199280
v -0.426213 6.721060 -12.222540
v -0.315120 6.721060 -12.222540
v -0.426213 6.922540 -11.731360
v -0.315120 6.922540 -11.731360
v -0.315120 6.922540 -12.222540
v -0.426213 6.922540 -12.222540
v -0.426213 6.914493 -12.199280
v -0.457687 6.902678 -12.173690
v -0.457687 6.902678 -11.780210
v -0.426213 6.914493 -11.754620
v -0.315120 6.519581 -11.731360
v -0.426213 6.519581 -11.731360
v -0.426213 6.527627 -11.754620
v -0.457687 6.539443 -11.780210
v -0.457687 6.539443 -12.173690
v -0.426213 6.527627 -12.199280
v -0.426213 6.519581 -12.222540
v -0.315120 6.519581 -12.222540
v -0.315120 6.318102 -11.976950
v -0.315120 6.519581 -11.976950
v -0.315120 6.721060 -11.976950
v -0.315120 6.922540 -11.976950
v -0.315120 7.124019 -11.976950
v -0.426213 7.124019 -11.976950
v -0.426213 7.107926 -11.976950
v -0.457687 7.084296 -11.976950
v -0.457687 6.902678 -11.976950
v -0.457687 6.539443 -11.976950
v -0.457687 6.357825 -11.976950
v -0.426213 6.334195 -11.976950
v -0.426213 6.318102 -11.976950
v -0.315120 6.318102 -11.854155
v -0.315120 6.519581 -11.854155
v -0.315120 6.721060 -11.854155
v -0.315120 6.922540 -11.854155
v -0.315120 7.124019 -11.854155
v -0.426213 7.124019 -11.854155
v -0.426213 7.107926 -11.865784
v -0.457687 7.084296 -11.878580
v -0.457687 6.902678 -11.878580
v -0.457687 6.721060 -11.878580
v -0.457687 6.539443 -11.878580
v -0.457687 6.357825 -11.878580
v -0.426213 6.334195 -11.865784
v -0.426213 6.318102 -11.854155
v -0.315120 6.721060 -12.099744
v -0.315120 6.519581 -12.099744
v -0.315120 6.318102 -12.099744
v -0.426213 6.318102 -12.099744
v -0.426213 6.334195 -12.088115
v -0.457687 6.357825 -12.075319
v -0.457687 6.539443 -12.075319
v -0.457687 6.721060 -12.075319
v -0.457687 6.902678 -12.075319
v -0.457687 7.084296 -12.075319
v -0.426213 7.107926 -12.088115
v -0.426213 7.124019 -12.099744
v -0.315120 7.124019 -12.099744
v -0.315120 6.922540 -12.099744
v -0.457687 6.882817 -11.903005
v -0.457687 6.721060 -11.903005
v -0.457687 6.882817 -11.976950
v -0.457687 6.559304 -11.903005
v -0.457687 6.559304 -11.976950
v -0.457687 6.721060 -12.050894
v -0.457687 6.559304 -12.050894
v -0.457687 6.882817 -12.050894
v -0.419781 6.882817 -11.903005
v -0.419781 6.721060 -11.903005
v -0.419781 6.882817 -11.976950
v -0.419781 6.721060 -11.976950
v -0.419781 6.559304 -11.903005
v -0.419781 6.559304 -11.976950
v -0.419781 6.721060 -12.050894
v -0.419781 6.559304 -12.050894
v -0.419781 6.882817 -12.050894
vt 0.375000 0.000000
vt 0.625000 0.000000
vt 0.375000 0.250000
vt 0.625000 0.250000
vt 0.375000 0.500000
vt 0.625000 0.500000
vt 0.375000 0.750000
vt 0.625000 0.750000
vt 0.375000 1.000000
vt 0.625000 1.000000
vt 0.875000 0.000000
vt 0.875000 0.250000
vt 0.125000 0.000000
vt 0.125000 0.250000
vt 0.375000 0.500000
vt 0.625000 0.500000
vt 0.625000 0.750000
vt 0.375000 0.750000
vt 0.375000 0.500000
vt 0.625000 0.500000
vt 0.625000 0.750000
vt 0.375000 0.750000
vt 0.375000 0.125000
vt 0.125000 0.125000
vt 0.375000 0.625000
vt 0.375000 0.625000
vt 0.375000 0.625000
vt 0.625000 0.625000
vt 0.625000 0.625000
vt 0.625000 0.625000
vt 0.875000 0.125000
vt 0.625000 0.125000
vt 0.125000 0.187500
vt 0.375000 0.562500
vt 0.375000 0.187500
vt 0.625000 0.187500
vt 0.625000 0.562500
vt 0.875000 0.187500
vt 0.625000 0.562500
vt 0.625000 0.562500
vt 0.375000 0.562500
vt 0.375000 0.562500
vt 0.375000 0.062500
vt 0.125000 0.062500
vt 0.375000 0.687500
vt 0.375000 0.687500
vt 0.375000 0.687500
vt 0.625000 0.687500
vt 0.625000 0.687500
vt 0.625000 0.687500
vt 0.875000 0.062500
vt 0.625000 0.062500
vt 0.500000 0.000000
vt 0.500000 1.000000
vt 0.500000 0.062500
vt 0.500000 0.125000
vt 0.500000 0.187500
vt 0.500000 0.250000
vt 0.500000 0.500000
vt 0.500000 0.500000
vt 0.500000 0.500000
vt 0.500000 0.562500
vt 0.500000 0.625000
vt 0.500000 0.687500
vt 0.500000 0.750000
vt 0.500000 0.750000
vt 0.500000 0.750000
vt 0.437500 0.000000
vt 0.437500 1.000000
vt 0.437500 0.062500
vt 0.437500 0.125000
vt 0.437500 0.187500
vt 0.437500 0.250000
vt 0.437500 0.500000
vt 0.437500 0.500000
vt 0.437500 0.500000
vt 0.437500 0.562500
vt 0.437500 0.625000
vt 0.437500 0.687500
vt 0.437500 0.750000
vt 0.437500 0.750000
vt 0.437500 0.750000
vt 0.562500 0.125000
vt 0.562500 0.062500
vt 0.562500 0.000000
vt 0.562500 1.000000
vt 0.562500 0.750000
vt 0.562500 0.750000
vt 0.562500 0.750000
vt 0.562500 0.687500
vt 0.562500 0.625000
vt 0.562500 0.562500
vt 0.562500 0.500000
vt 0.562500 0.500000
vt 0.562500 0.500000
vt 0.562500 0.250000
vt 0.562500 0.187500
vt 0.437500 0.625000
vt 0.437500 0.562500
vt 0.500000 0.562500
vt 0.437500 0.687500
vt 0.500000 0.687500
vt 0.562500 0.625000
vt 0.562500 0.687500
vt 0.562500 0.562500
vt 0.437500 0.625000
vt 0.437500 0.562500
vt 0.500000 0.562500
vt 0.437500 0.687500
vt 0.500000 0.687500
vt 0.562500 0.625000
vt 0.562500 0.687500
vt 0.562500 0.562500
vn 1.000000 0.000000 0.000000
vn 1.000000 0.000000 0.000000
vn 1.000000 0.000000 0.000000
vn 1.000000 0.000000 0.000000
vn 0.000000 1.000000 0.000000
vn 0.000000 1.000000 0.000000
vn 0.000000 1.000000 0.000000
vn 0.000000 1.000000 0.000000
vn -1.000000 0.000000 -0.000000
vn -1.000000 0.000000 -0.000000
vn -1.000000 0.000000 -0.000000
vn -1.000000 0.000000 -0.000000
vn 0.000000 -1.000000 0.000000
vn 0.000000 -1.000000 0.000000
vn 0.000000 -1.000000 0.000000
vn 0.000000 -1.000000 0.000000
vn 0.000000 0.000000 -1.000000
vn 0.000000 0.000000 -1.000000
vn 0.000000 0.000000 -1.000000
vn 0.000000 0.000000 -1.000000
vn 0.000000 0.000000 1.000000
vn 0.000000 0.000000 1.000000
vn 0.000000 0.000000 1.000000
vn 0.000000 0.000000 1.000000
vn -1.000000 0.000000 0.000000
vn -1.000000 0.000000 -0.000000
vn -1.000000 0.000000 -0.000000
vn -1.000000 0.000000 0.000000
vn -1.000000 0.000000 -0.000000
vn -1.000000 0.000000 -0.000000
vn -1.000000 0.000000 -0.000000
vn -1.000000 0.000000 -0.000000
vn -1.000000 0.000000 -0.000000
vn -1.000000 0.000000 -0.000000
vn -1.000000 0.000000 0.000000
vn -1.000000 0.000000 0.000000
vn -1.000000 0.000000 0.000000
vn -1.000000 0.000000 0.000000
vn -0.600405 0.799696 -0.000000
vn -0.600405 0.799696 -0.000000
vn -0.600405 0.799696 -0.000000
vn -0.600405 0.799696 -0.000000
vn -0.630862 0.000000 -0.775895
vn -0.630862 0.000000 -0.775895
vn -0.630862 0.000000 -0.775895
vn -0.630862 0.000000 -0.775895
vn -0.600405 -0.799696 0.000000
vn -0.600405 -0.799696 0.000000
vn -0.600405 -0.799696 0.000000
vn -0.600405 -0.799696 0.000000
vn -0.630852 0.000000 0.775903
vn -0.630852 0.000000 0.775903
vn -0.630852 0.000000 0.775903
vn -0.630852 0.000000 0.775903
vn 0.000000 0.000000 1.000000
vn 0.000000 0.000000 1.000000
vn 0.000000 0.000000 1.000000
vn 0.000000 0.000000 1.000000
vn -1.000000 0.000000 0.000000
vn -1.000000 0.000000 0.000000
vn -0.630852 0.000000 0.775903
vn -0.630852 0.000000 0.775903
vn -0.630852 0.000000 0.775903
vn -0.630852 0.000000 0.775903
vn -1.000000 0.000000 -0.000000
vn -1.000000 0.000000 -0.000000
vn -1.000000 0.000000 -0.000000
vn -1.000000 0.000000 -0.000000
vn -0.630862 0.000000 -0.775895
vn -0.630863 0.000000 -0.775895
vn -0.630862 0.000000 -0.775895
vn -0.630863 0.000000 -0.775895
vn -1.000000 0.000000 -0.000000
vn -1.000000 0.000000 -0.000000
vn -1.000000 0.000000 -0.000000
vn -1.000000 0.000000 -0.000000
vn 0.000000 0.000000 -1.000000
vn 0.000000 0.000000 -1.000000
vn 0.000000 0.000000 -1.000000
vn 0.000000 0.000000 -1.000000
vn 1.000000 0.000000 0.000000
vn 1.000000 0.000000 0.000000
vn 1.000000 0.000000 0.000000
vn 1.000000 0.000000 0.000000
vn 0.000000 0.000000 1.000000
vn 0.000000 0.000000 1.000000
vn 1.000000 0.000000 0.000000
vn 1.000000 0.000000 0.000000
vn 0.000000 0.000000 -1.000000
vn 0.000000 0.000000 -1.000000
vn -1.000000 0.000000 -0.000000
vn -1.000000 0.000000 -0.000000
vn -0.630862 0.000000 -0.775895
vn -0.630862 0.000000 -0.775895
vn -1.000000 0.000000 -0.000000
vn -1.000000 0.000000 -0.000000
vn -0.630852 0.000000 0.775903
vn -0.630852 0.000000 0.775903
vn -1.000000 0.000000 -0.000000
vn -1.000000 0.000000 -0.000000
vn 1.000000 0.000000 0.000000
vn 1.000000 0.000000 0.000000
vn 1.000000 0.000000 0.000000
vn 1.000000 0.000000 0.000000
vn 1.000000 0.000000 0.000000
vn 1.000000 0.000000 0.000000
vn 1.000000 0.000000 0.000000
vn 1.000000 0.000000 0.000000
vn 1.000000 0.000000 0.000000
vn 1.000000 0.000000 0.000000
vn 0.000000 1.000000 0.000000
vn 0.000000 1.000000 0.000000
vn 0.000000 1.000000 0.000000
vn 0.000000 1.000000 0.000000
vn -1.000000 0.000000 -0.000000
vn -1.000000 0.000000 -0.000000
vn -0.600405 0.799696 -0.000000
vn -0.600405 0.799696 -0.000000
vn -0.600404 0.799697 -0.000000
vn -0.600404 0.799697 -0.000000
vn -1.000000 0.000000 0.000000
vn -1.000000 0.000000 -0.000000
vn -1.000000 0.000000 -0.000000
vn -1.000000 0.000000 -0.000000
vn -1.000000 0.000000 0.000000
vn -1.000000 0.000000 -0.000000
vn -1.000000 0.000000 -0.000000
vn -1.000000 0.000000 -0.000000
vn -1.000000 0.000000 -0.000000
vn -1.000000 0.000000 -0.000000
vn -0.600404 -0.799697 0.000000
vn -0.600405 -0.799696 0.000000
vn -0.600405 -0.799696 0.000000
vn -0.600404 -0.799697 0.000000
vn -1.000000 0.000000 -0.000000
vn -1.000000 0.000000 -0.000000
vn 0.000000 -1.000000 0.000000
vn 0.000000 -1.000000 0.000000
vn 0.000000 -1.000000 0.000000
vn 0.000000 -1.000000 0.000000
vn 1.000000 0.000000 0.000000
vn 1.000000 0.000000 0.000000
vn 1.000000 0.000000 0.000000
vn 1.000000 0.000000 0.000000
vn 1.000000 0.000000 0.000000
vn 0.000000 1.000000 0.000000
vn 0.000000 1.000000 0.000000
vn -1.000000 0.000000 -0.000000
vn -1.000000 0.000000 -0.000000
vn -0.600405 0.799696 -0.000000
vn -0.600405 0.799696 -0.000000
vn -1.000000 0.000000 -0.000000
vn -1.000000 0.000000 -0.000000
vn -1.000000 0.000000 0.000000
vn -1.000000 0.000000 0.000000
vn -1.000000 0.000000 -0.000000
vn -1.000000 0.000000 -0.000000
vn -1.000000 0.000000 -0.000000
vn -1.000000 0.000000 -0.000000
vn -1.000000 0.000000 -0.000000
vn -1.000000 0.000000 -0.000000
vn -0.600405 -0.799696 0.000000
vn -0.600405 -0.799696 0.000000
vn -1.000000 0.000000 -0.000000
vn -1.000000 0.000000 -0.000000
vn 0.000000 -1.000000 0.000000
vn 0.000000 -1.000000 0.000000
vn -1.000000 0.000000 -0.000000
vn -1.000000 0.000000 -0.000000
vn -1.000000 0.000000 -0.000000
vn -1.000000 0.000000 -0.000000
vn -1.000000 0.000000 -0.000000
vn -1.000000 0.000000 -0.000000
vn -1.000000 0.000000 -0.000000
vn -1.000000 0.000000 -0.000000
vn -1.000000 0.000000 -0.000000
vn -1.000000 0.000000 0.000000
vn -1.000000 0.000000 0.000000
vn 0.000000 0.000000 -1.000000
vn 0.000000 0.000000 -1.000000
vn 0.000000 0.000000 -1.000000
vn 0.000000 0.000000 -1.000000
vn 0.000000 -1.000000 0.000000
vn 0.000000 -1.000000 0.000000
vn 0.000000 -1.000000 0.000000
vn 0.000000 -1.000000 0.000000
vn 0.000000 0.000000 -1.000000
vn 0.000000 0.000000 -1.000000
vn 0.000000 1.000000 0.000000
vn 0.000000 1.000000 0.000000
vn 0.000000 1.000000 0.000000
vn 0.000000 1.000000 0.000000
vn 0.000000 0.000000 1.000000
vn 0.000000 0.000000 1.000000
vn 0.000000 0.000000 1.000000
vn 0.000000 0.000000 1.000000
vn 0.000000 1.000000 0.000000
vn 0.000000 1.000000 0.000000
vn 0.000000 -1.000000 0.000000
vn 0.000000 -1.000000 0.000000
vn 0.000000 0.000000 1.000000
vn 0.000000 0.000000 1.000000
s 1
g Hallway_Masters:LightBase
usemtl initialShadingGroup
f 1/1/1 54/68/2 55/70/3 33/43/4
s 2
f 3/3/5 58/73/6 59/74/7 5/5/8
s 3
f 36/47/9 64/79/10 65/80/11 16/22/12
s 4
f 7/7/13 67/82/14 54/69/15 1/9/16
s 5
f 2/2/17 8/11/18 39/51/19 40/52/20
s 6
f 7/13/21 1/1/22 33/43/23 34/44/24
s 7
f 5/5/25 59/74/26 60/75/27 9/15/28
f 38/49/29 39/50/30 8/8/31 11/17/32
f 66/81/33 67/82/34 7/7/35 12/18/36
f 7/7/35 34/45/37 35/46/38 12/18/36
s 10
f 9/15/39 60/75/40 61/76/41 13/19/42
s 11
f 37/48/43 38/49/44 11/17/45 15/21/46
s 12
f 65/80/47 66/81/48 12/18/49 16/22/50
s 13
f 12/18/51 35/46/52 36/47/53 16/22/54
s 6
f 25/33/55 26/35/56 3/3/57 5/14/58
s 7
f 32/42/59 25/34/60 5/5/25 9/15/28
s 13
f 31/41/61 32/42/62 9/15/63 13/19/64
s 3
f 13/19/65 61/76/66 62/77/67 31/41/68
s 11
f 10/16/69 29/39/70 30/40/71 14/20/72
s 7
f 6/6/73 28/37/74 29/39/75 10/16/76
s 5
f 27/36/77 28/38/78 6/12/79 4/4/80
s 1
f 26/35/81 57/72/82 58/73/83 3/3/84
s 6
f 18/24/85 17/23/86 26/35/56 25/33/55
s 1
f 17/23/87 56/71/88 57/72/82 26/35/81
s 5
f 24/32/89 23/31/90 28/38/78 27/36/77
s 7
f 29/39/75 28/37/74 23/30/91 22/29/92
s 11
f 30/40/71 29/39/70 22/29/93 21/28/94
s 3
f 31/41/68 62/77/67 63/78/95 20/27/96
s 13
f 20/27/97 19/26/98 32/42/62 31/41/61
s 7
f 19/26/99 18/25/100 25/34/60 32/42/59
s 6
f 34/44/24 33/43/23 17/23/86 18/24/85
s 7
f 35/46/38 34/45/37 18/25/100 19/26/99
s 13
f 36/47/53 35/46/52 19/26/98 20/27/97
s 3
f 20/27/96 63/78/95 64/79/10 36/47/9
s 11
f 21/28/94 22/29/93 38/49/44 37/48/43
s 7
f 22/29/92 23/30/91 39/50/30 38/49/29
s 5
f 40/52/20 39/51/19 23/31/90 24/32/89
s 1
f 33/43/4 55/70/3 56/71/88 17/23/87
f 69/84/101 70/85/102 2/2/103 40/52/104
f 68/83/105 69/84/101 40/52/104 24/32/106
f 81/97/107 68/83/105 24/32/106 27/36/108
f 80/96/109 81/97/107 27/36/108 4/4/110
s 2
f 79/95/111 80/96/112 4/4/113 6/6/114
s 7
f 78/94/115 79/95/116 6/6/73 10/16/76
s 10
f 77/93/117 78/94/118 10/16/119 14/20/120
s 3
f 76/92/121 77/93/122 14/20/123 30/40/124
f 75/91/125 76/92/121 30/40/124 21/28/126
f 74/90/127 75/91/125 21/28/126 37/48/128
f 73/89/129 74/90/127 37/48/128 15/21/130
s 12
f 11/17/131 72/88/132 73/89/133 15/21/134
s 7
f 8/8/31 71/87/135 72/88/136 11/17/32
s 4
f 70/86/137 71/87/138 8/8/139 2/10/140
s 1
f 55/70/3 54/68/2 41/53/141 42/55/142
f 56/71/88 55/70/3 42/55/142 43/56/143
f 57/72/82 56/71/88 43/56/143 44/57/144
f 58/73/83 57/72/82 44/57/144 45/58/145
s 2
f 59/74/7 58/73/6 45/58/146 46/59/147
s 7
f 60/75/27 59/74/26 46/59/148 47/60/149
s 10
f 61/76/41 60/75/40 47/60/150 48/61/151
s 3
f 62/77/67 61/76/66 48/61/152 49/62/153
s 27
f 91/106/154 90/107/155 92/108/156 93/63/157
f 94/109/158 91/106/154 93/63/157 95/110/159
s 3
f 65/80/11 64/79/10 50/64/160 51/65/161
s 12
f 51/65/162 52/66/163 66/81/48 65/80/47
s 7
f 52/66/164 53/67/165 67/82/34 66/81/33
s 4
f 54/69/15 67/82/14 53/67/166 41/54/167
s 1
f 43/56/143 42/55/142 69/84/101 68/83/105
f 42/55/142 41/53/141 70/85/102 69/84/101
s 4
f 41/54/167 53/67/166 71/87/138 70/86/137
s 7
f 72/88/136 71/87/135 53/67/165 52/66/164
s 12
f 73/89/133 72/88/132 52/66/163 51/65/162
s 3
f 51/65/161 50/64/160 74/90/127 73/89/129
s 27
f 95/110/159 93/63/157 96/111/168 97/112/169
f 93/63/157 92/108/156 98/113/170 96/111/168
s 3
f 49/62/153 48/61/152 77/93/122 76/92/121
s 10
f 48/61/151 47/60/150 78/94/118 77/93/117
s 7
f 47/60/149 46/59/148 79/95/116 78/94/115
s 2
f 46/59/147 45/58/146 80/96/112 79/95/111
s 1
f 45/58/145 44/57/144 81/97/107 80/96/109
f 44/57/144 43/56/143 68/83/105 81/97/107
s 3
f 63/78/95 62/77/67 82/99/171 83/98/172
f 62/77/67 49/62/153 84/100/173 82/99/171
f 64/79/10 63/78/95 83/98/172 85/101/174
f 50/64/160 64/79/10 85/101/174 86/102/175
f 75/91/125 74/90/127 88/104/176 87/103/177
f 74/90/127 50/64/160 86/102/175 88/104/176
f 49/62/153 76/92/121 89/105/178 84/100/173
f 76/92/121 75/91/125 87/103/177 89/105/178
s 28
f 83/98/179 82/99/180 90/107/181 91/106/182
s 29
f 82/99/183 84/100/184 92/108/185 90/107/186
s 28
f 85/101/187 83/98/179 91/106/182 94/109/188
s 30
f 86/102/189 85/101/190 94/109/191 95/110/192
s 31
f 87/103/193 88/104/194 97/112/195 96/111/196
s 30
f 88/104/197 86/102/189 95/110/192 97/112/198
s 29
f 84/100/184 89/105/199 98/113/200 92/108/185
s 31
f 89/105/201 87/103/193 96/111/196 98/113/202
g default
v -0.337903 6.725299 -11.908302
v -0.345127 6.712023 -11.903345
v -0.334910 6.730797 -11.920266
v -0.595342 6.792870 -11.933463
v -0.591074 6.800713 -11.936392
v -0.589306 6.803962 -11.943460
v -0.337903 6.725299 -12.045601
v -0.334910 6.730797 -12.033635
v -0.345127 6.712023 -12.050554
v -0.595342 6.792870 -12.020437
v -0.589306 6.803962 -12.010439
v -0.591074 6.800713 -12.017508
v -0.372789 6.661193 -11.908302
v -0.375781 6.655694 -11.920266
v -0.365564 6.674468 -11.903345
v -0.611684 6.762840 -11.936392
v -0.607416 6.770683 -11.933463
v -0.613452 6.759591 -11.943460
v -0.372789 6.661193 -12.045601
v -0.365564 6.674468 -12.050554
v -0.375781 6.655694 -12.033635
v -0.611684 6.762840 -12.017508
v -0.613452 6.759591 -12.010439
v -0.607416 6.770683 -12.020437
v -0.611684 6.762840 -11.936392
v -0.611684 6.762840 -11.943460
v -0.613452 6.759591 -11.943460
v -0.589306 6.803962 -11.943460
v -0.591074 6.800713 -11.943460
v -0.591074 6.800713 -11.936392
v -0.595342 6.792870 -11.943460
v -0.595342 6.792870 -11.933463
v -0.591074 6.800713 -12.017508
v -0.591074 6.800713 -12.010439
v -0.589306 6.803962 -12.010439
v -0.595342 6.792870 -12.010439
v -0.595342 6.792870 -12.020437
v -0.613452 6.759591 -12.010439
v -0.611684 6.762840 -12.017508
v -0.611684 6.762840 -12.010439
v -0.607416 6.770683 -11.943460
v -0.607416 6.770683 -11.933463
v -0.607416 6.770683 -12.010439
v -0.607416 6.770683 -12.020437
vt 0.125000 0.187506
vt 0.875000 0.062494
vt 0.596264 1.000000
vt 0.375000 0.187506
vt 0.403736 0.500000
vt 0.596264 0.250000
vt 0.875000 0.187506
vt 0.403736 1.000000
vt 0.125000 0.062494
vt 0.625000 0.062494
vt 0.596264 0.750000
vt 0.625000 0.187506
vt 0.403736 0.250000
vt 0.375000 0.062494
vt 0.403736 0.000000
vt 0.596264 0.000000
vt 0.403736 0.750000
vt 0.375000 0.687506
vt 0.375000 0.562494
vt 0.596264 0.500000
vt 0.625000 0.562494
vt 0.625000 0.687506
vt 0.375000 0.250000
vt 0.375000 0.500000
vt 0.125000 0.250000
vt 0.625000 0.250000
vt 0.875000 0.250000
vt 0.625000 0.500000
vt 0.375000 0.000000
vt 0.375000 1.000000
vt 0.125000 0.000000
vt 0.375000 0.750000
vt 0.625000 0.000000
vt 0.625000 1.000000
vt 0.625000 0.750000
vt 0.875000 0.000000
vt 0.603213 0.500000
vt 0.596264 0.562494
vt 0.396786 0.500000
vt 0.403736 0.562494
vt 0.403736 0.731696
vt 0.596264 0.731696
vt 0.596264 0.687506
vt 0.403736 0.687506
vt 0.403736 0.750000
vt 0.375000 0.750000
vt 0.375000 0.500000
vt 0.403736 0.500000
vt 0.375000 0.562494
vt 0.596264 0.500000
vt 0.625000 0.500000
vt 0.625000 0.562494
vt 0.625000 0.750000
vt 0.596264 0.750000
vt 0.375000 0.687506
vt 0.625000 0.687506
vn 0.274277 0.961346 0.024209
vn 0.269446 0.960200 0.073584
vn 0.269445 0.960201 -0.073581
vn 0.274277 0.961346 -0.024210
vn -0.402816 -0.914792 0.029904
vn -0.405090 -0.911871 0.066285
vn -0.405090 -0.911871 -0.066283
vn -0.402816 -0.914792 -0.029906
vn -0.177750 -0.141983 -0.973779
vn -0.109671 0.035257 -0.993342
vn -0.037499 0.244865 -0.968832
vn -0.094539 0.077143 -0.992528
vn -0.109681 0.035252 0.993342
vn -0.177783 -0.142063 0.973761
vn -0.094543 0.077156 0.992526
vn -0.037474 0.244944 0.968813
vn 0.000229 0.349728 0.936851
vn 0.000229 0.349728 0.936851
vn 0.208466 0.867828 0.451018
vn 0.208466 0.867828 0.451018
vn 0.208475 0.867853 -0.450964
vn 0.208475 0.867853 -0.450964
vn 0.000188 0.349614 -0.936894
vn 0.000188 0.349614 -0.936894
vn -0.392531 -0.794500 0.463346
vn -0.392531 -0.794500 0.463346
vn -0.212741 -0.238110 0.947652
vn -0.212741 -0.238110 0.947652
vn -0.212699 -0.237994 -0.947691
vn -0.212700 -0.237994 -0.947691
vn -0.392541 -0.794524 -0.463296
vn -0.392540 -0.794525 -0.463295
vn 0.878361 -0.477997 -0.000000
vn 0.878361 -0.477997 -0.000000
vn 0.878361 -0.477997 -0.000000
vn 0.878361 -0.477997 -0.000000
vn 0.878361 -0.477997 -0.000000
vn 0.878361 -0.477997 -0.000000
vn 0.878361 -0.477997 -0.000000
vn 0.878361 -0.477997 -0.000000
vn 0.878361 -0.477997 -0.000000
vn 0.878361 -0.477997 -0.000000
vn 0.878361 -0.477997 -0.000000
vn 0.878361 -0.477997 -0.000000
vn -0.878363 0.477995 -0.000004
vn -0.878363 0.477993 -0.000000
vn -0.878362 0.477996 0.000000
vn -0.878356 0.478008 -0.000000
vn -0.878353 0.478012 -0.000000
vn -0.878353 0.478012 -0.000001
vn -0.878361 0.477999 0.000000
vn -0.878361 0.477998 -0.000001
vn -0.878353 0.478013 -0.000000
vn -0.878353 0.478012 -0.000000
vn -0.878356 0.478008 -0.000000
vn -0.878361 0.477998 -0.000000
vn -0.878361 0.477999 0.000000
vn -0.878363 0.477994 0.000004
vn -0.878362 0.477996 0.000000
vn -0.878363 0.477993 0.000001
vn -0.878364 0.477993 -0.000000
vn -0.878363 0.477994 -0.000002
vn -0.878364 0.477993 0.000000
vn -0.878363 0.477994 0.000000
vn -0.999427 0.000000 -0.033839
vn -0.999427 0.000000 -0.033839
vn -0.999427 0.000000 -0.033839
vn -0.999427 0.000000 -0.033839
vn 0.000000 0.000000 0.000000
vn 0.000000 0.000000 0.000000
vn 0.000000 0.000000 0.000000
vn 0.000000 0.000000 0.000000
vn 0.000000 0.000000 0.000000
vn 0.000000 0.000000 0.000000
vn 0.000000 0.000000 0.000000
vn 0.000000 0.000000 0.000000
vn 0.000000 0.000000 0.000000
vn 0.000000 0.000000 0.000000
vn 0.000000 0.000000 0.000000
vn 0.000000 0.000000 0.000000
vn 0.000000 0.000000 0.000000
vn 0.000000 0.000000 0.000000
vn 0.000000 0.000000 0.000000
vn 0.000000 0.000000 0.000000
vn 0.000000 0.000000 0.000000
vn 0.932337 0.000000 0.361592
vn 0.932337 0.000000 0.361592
vn 0.000000 0.000000 0.000000
vn 0.000000 0.000000 0.000000
vn 0.000000 0.000000 0.000000
vn 0.000000 0.000000 0.000000
vn 0.000000 0.000000 0.000000
vn 1.000000 0.000000 -0.000000
vn 1.000000 0.000000 -0.000000
vn 1.000000 0.000000 -0.000000
vn 1.000000 0.000000 -0.000000
vn 0.000000 0.000000 1.000000
vn 0.000000 0.000000 0.000000
vn 0.000000 0.000000 0.000000
vn 0.000000 0.000000 1.000000
vn 0.000000 0.000000 0.000000
vn 0.000000 0.000000 0.000000
vn 0.000000 0.000000 0.000000
vn 0.000000 0.000000 0.000000
vn 0.000000 0.000000 0.000000
vn 0.000000 0.000000 0.000000
vn 0.000000 0.000000 0.000000
vn 0.000000 0.000000 0.000000
vn -0.510526 0.000000 0.859863
vn -0.510526 0.000000 0.859863
vn -0.510526 0.000000 0.859863
vn -0.510526 0.000000 0.859863
s 1
g Hallway_Masters:LightBase Hallway_Masters:LightSwitch
usemtl initialShadingGroup
f 104/118/203 101/126/204 106/119/205 109/133/206
s 2
f 112/121/207 116/130/208 121/124/209 119/116/210
s 3
f 118/123/211 122/115/212 108/120/213 107/125/214
s 4
f 115/122/215 113/127/216 100/117/217 102/114/218
f 100/117/217 99/136/219 103/138/220 102/114/218
s 1
f 99/136/221 101/126/204 104/118/203 103/137/222
f 106/119/205 105/139/223 110/141/224 109/133/206
s 3
f 105/139/225 107/125/214 108/120/213 110/140/226
s 2
f 112/121/207 111/143/227 114/145/228 116/130/208
s 4
f 111/142/229 113/127/216 115/122/215 114/144/230
s 3
f 118/123/211 117/146/231 120/149/232 122/115/212
s 2
f 117/147/233 119/116/210 121/124/209 120/148/234
s off
f 117/146/235 118/123/236 107/125/237 105/139/238 106/119/239 101/126/240 99/136/241 100/117/242 113/127/243 111/142/244 112/128/245 119/129/246
s 5
f 123/159/247 124/154/248 125/158/249
f 126/161/250 127/152/251 128/160/252
f 127/152/251 129/153/253 130/162/254 128/160/252
f 131/164/255 132/150/256 133/163/257
f 135/165/258 134/151/259 132/150/256 131/164/255
f 137/166/260 136/167/261 138/155/262
f 133/163/257 132/150/256 127/152/251 126/161/250
f 132/150/256 134/151/259 129/153/253 127/152/251
f 124/154/248 138/155/262 136/167/261 125/158/249
f 129/153/253 139/157/263 140/168/264 130/162/254
f 134/151/259 141/156/265 139/157/263 129/153/253
f 142/169/266 141/156/265 134/151/259 135/165/258
f 137/166/260 138/155/262 141/156/265 142/169/266
f 139/157/263 141/156/265 138/155/262 124/154/248
f 140/168/264 139/157/263 124/154/248 123/159/247
s off
f 116/130/267 114/145/268 123/159/269 125/158/270
f 103/137/271 104/118/272 126/161/273 128/160/274
f 102/132/275 103/137/276 128/160/277 130/162/278
f 109/133/279 110/141/280 131/164/281 133/163/282
f 110/141/283 108/134/284 135/165/285 131/164/286
f 120/148/287 121/124/288 136/167/289 137/166/290
f 104/118/291 109/133/292 133/163/293 126/161/294
f 121/124/295 116/130/296 125/158/297 136/167/298
f 115/131/299 102/132/300 130/162/301 140/168/302
f 108/134/303 122/135/304 142/169/305 135/165/306
f 122/135/307 120/148/308 137/166/309 142/169/310
f 114/145/311 115/131/312 140/168/313 123/159/314
