# This file uses centimeters as units for non-parametric coordinates.

mtllib Light_Bulb.mtl
g default
v 11.701009 -1.135815 0.151807
v 11.700605 -1.135815 -0.150271
v 11.701009 -1.343256 0.151807
v 11.700605 -1.343256 -0.150271
v 12.094022 -1.135815 -0.544786
v 12.396085 -1.135815 -0.545185
v 12.094022 -1.343256 -0.544786
v 12.396085 -1.343256 -0.545185
v 12.790590 -1.135815 -0.151758
v 12.791025 -1.135815 0.150290
v 12.790590 -1.343256 -0.151758
v 12.791025 -1.343256 0.150290
v 12.397596 -1.135815 0.544827
v 12.095514 -1.135815 0.545218
v 12.397596 -1.343256 0.544827
v 12.095514 -1.343256 0.545218
v 11.700605 -1.389349 -0.150271
v 11.701009 -1.389349 0.151807
v 11.701009 -1.576047 0.151807
v 11.700605 -1.576047 -0.150271
v 12.396085 -1.389349 -0.545185
v 12.094022 -1.389349 -0.544786
v 12.094022 -1.576047 -0.544786
v 12.396085 -1.576047 -0.545185
v 12.095514 -1.389349 0.545218
v 12.397596 -1.389349 0.544827
v 12.397596 -1.576047 0.544827
v 12.095514 -1.576047 0.545218
v 12.791025 -1.389349 0.150290
v 12.790590 -1.389349 -0.151758
v 12.790590 -1.576047 -0.151758
v 12.791025 -1.576047 0.150290
v 12.095514 -1.848249 0.545218
v 12.397596 -1.848249 0.544827
v 11.700605 -1.848249 -0.150271
v 11.701009 -1.848249 0.151807
v 12.791025 -1.848249 0.150290
v 12.790590 -1.848249 -0.151758
v 12.396085 -1.848249 -0.545185
v 12.094022 -1.848249 -0.544786
v 11.700605 -1.617532 -0.150271
v 11.701009 -1.617532 0.151807
v 11.701009 -1.806304 0.151807
v 11.700605 -1.806304 -0.150271
v 12.396085 -1.617532 -0.545185
v 12.094022 -1.617532 -0.544786
v 12.094022 -1.806304 -0.544786
v 12.396085 -1.806304 -0.545185
v 12.791025 -1.617532 0.150290
v 12.790590 -1.617532 -0.151758
v 12.790590 -1.806304 -0.151758
v 12.791025 -1.806304 0.150290
v 12.095514 -1.617532 0.545218
v 12.397596 -1.617532 0.544827
v 12.397596 -1.806304 0.544827
v 12.095514 -1.806304 0.545218
v 12.396208 -1.386527 -0.459973
v 12.094145 -1.386527 -0.459560
v 12.396208 -1.346078 -0.459973
v 12.094145 -1.346078 -0.459560
v 12.705369 -1.346078 -0.151653
v 12.705775 -1.346078 0.150427
v 12.705369 -1.386527 -0.151653
v 12.705775 -1.386527 0.150427
v 11.785800 -1.386527 -0.150381
v 11.786245 -1.386527 0.151670
v 11.785800 -1.346078 -0.150381
v 11.786245 -1.346078 0.151670
v 12.095407 -1.386527 0.459982
v 12.397471 -1.386527 0.459569
v 12.095407 -1.346078 0.459982
v 12.397471 -1.346078 0.459569
v 11.782640 -1.615087 -0.150387
v 11.783044 -1.615087 0.151685
v 11.782640 -1.578492 -0.150387
v 11.783044 -1.578492 0.151685
v 12.094144 -1.578492 -0.462737
v 12.396208 -1.578492 -0.463137
v 12.094144 -1.615087 -0.462737
v 12.396208 -1.615087 -0.463137
v 12.095403 -1.615087 0.463164
v 12.397482 -1.615087 0.462749
v 12.095403 -1.578492 0.463164
v 12.397482 -1.578492 0.462749
v 12.708558 -1.578492 -0.151642
v 12.708974 -1.578492 0.150438
v 12.708558 -1.615087 -0.151642
v 12.708974 -1.615087 0.150438
v 11.792422 -1.845482 -0.150388
v 11.792855 -1.845482 0.151665
v 11.792422 -1.809071 -0.150388
v 11.792855 -1.809071 0.151665
v 12.094144 -1.809071 -0.452950
v 12.396223 -1.809071 -0.453364
v 12.094144 -1.845482 -0.452950
v 12.396223 -1.845482 -0.453364
v 12.095407 -1.845482 0.453373
v 12.397472 -1.845482 0.452972
v 12.095407 -1.809071 0.453373
v 12.397472 -1.809071 0.452972
v 12.698743 -1.809071 -0.151642
v 12.699182 -1.809071 0.150416
v 12.698743 -1.845482 -0.151642
v 12.699182 -1.845482 0.150416
v 12.308397 -2.441807 -0.227106
v 12.182574 -2.441807 -0.226932
v 12.472753 -2.441807 -0.063216
v 12.472928 -2.441807 0.062633
v 12.309021 -2.441807 0.226968
v 12.183203 -2.441807 0.227130
v 12.018851 -2.441807 0.063250
v 12.018689 -2.441807 -0.062592
v 12.365640 -2.262233 -0.434730
v 12.356953 -2.300075 -0.403235
v 12.124769 -2.262233 -0.434421
v 12.133530 -2.300075 -0.402931
v 12.680235 -2.262233 -0.121001
v 12.648740 -2.300075 -0.112248
v 12.680562 -2.262234 0.119865
v 12.649064 -2.300075 0.111164
v 12.366833 -2.262233 0.434450
v 12.358072 -2.300075 0.402961
v 12.125959 -2.262233 0.434766
v 12.134634 -2.300075 0.403269
v 11.811376 -2.262233 0.121048
v 11.842859 -2.300075 0.112277
v 11.811043 -2.262233 -0.119816
v 11.842558 -2.300075 -0.111142
v 12.095514 -2.036815 0.545218
v 12.098247 -2.076197 0.535262
v 12.397596 -2.036815 0.544827
v 12.394823 -2.076197 0.534864
v 11.701009 -2.036815 0.151807
v 11.710955 -2.076197 0.149035
v 11.700605 -2.036815 -0.150271
v 11.710553 -2.076197 -0.147524
v 12.791025 -2.036815 0.150290
v 12.781064 -2.076197 0.147545
v 12.790590 -2.036815 -0.151758
v 12.780648 -2.076197 -0.148984
v 12.396085 -2.036815 -0.545185
v 12.393340 -2.076197 -0.535228
v 12.094022 -2.036815 -0.544786
v 12.096796 -2.076197 -0.534835
v 12.114045 -2.039242 0.477993
v 12.116445 -2.073770 0.469264
v 12.376446 -2.073769 0.468914
v 12.378878 -2.039242 0.477648
v 11.768185 -2.039242 0.133090
v 11.776907 -2.073770 0.130659
v 12.715061 -2.073769 0.129355
v 12.723796 -2.039242 0.131762
v 11.767830 -2.039242 -0.131739
v 11.776550 -2.073770 -0.129331
v 12.112738 -2.039242 -0.477608
v 12.115170 -2.073770 -0.468885
v 12.714700 -2.073770 -0.130611
v 12.723415 -2.039242 -0.133042
v 12.375145 -2.073770 -0.469230
v 12.377557 -2.039242 -0.477960
v 12.340827 -2.266151 -0.344712
v 12.333938 -2.296158 -0.319739
v 12.156777 -2.296158 -0.319498
v 12.149830 -2.266151 -0.344467
v 12.590283 -2.266151 -0.095943
v 12.565309 -2.296158 -0.089002
v 11.926053 -2.296158 -0.088126
v 11.901063 -2.266151 -0.095003
v 12.590542 -2.266151 0.095050
v 12.565566 -2.296158 0.088151
v 12.341773 -2.266151 0.344498
v 12.334826 -2.296158 0.319528
v 12.150773 -2.266151 0.344748
v 12.157652 -2.296158 0.319773
v 11.901327 -2.266151 0.095988
v 11.926291 -2.296158 0.089033
vt 0.375001 0.304248
vt 0.625000 0.304247
vt 0.429247 0.500000
vt 0.375000 0.445752
vt 0.320752 0.250000
vt 0.125001 0.250000
vt 0.125001 0.193749
vt 0.375000 0.556251
vt 0.375000 0.556251
vt 0.625000 0.445752
vt 0.625000 0.556251
vt 0.570753 0.250000
vt 0.375000 0.568749
vt 0.125002 0.181251
vt 0.125001 0.130624
vt 0.624999 0.568749
vt 0.624999 0.568749
vt 0.874998 0.181251
vt 0.874998 0.130625
vt 0.624999 0.619376
vt 0.625000 0.693187
vt 0.125001 0.056813
vt 0.125001 0.056813
vt 0.125001 0.119376
vt 0.125002 0.119376
vt 0.125001 0.068187
vt 0.624999 0.630624
vt 0.624999 0.630625
vt 0.625000 0.681813
vt 0.375000 0.568749
vt 0.624998 0.556251
vt 0.125001 0.130624
vt 0.624999 0.619376
vt 0.125001 0.068187
vt 0.624999 0.681813
vt 0.436816 0.556251
vt 0.563172 0.568749
vt 0.186817 0.181251
vt 0.313185 0.193749
vt 0.436821 0.181251
vt 0.563184 0.193749
vt 0.686815 0.181251
vt 0.813173 0.193749
vt 0.179248 0.193749
vt 0.179248 0.250000
vt 0.570752 0.500000
vt 0.570752 0.556251
vt 0.679246 0.193749
vt 0.820752 0.250000
vt 0.679246 0.250000
vt 0.429249 0.193749
vt 0.429249 0.250000
vt 0.313505 0.130624
vt 0.186498 0.119376
vt 0.436497 0.119376
vt 0.563504 0.130624
vt 0.436497 0.619375
vt 0.563501 0.630624
vt 0.813502 0.130624
vt 0.686495 0.119376
vt 0.179248 0.130624
vt 0.320753 0.181251
vt 0.429248 0.130624
vt 0.570753 0.181251
vt 0.679246 0.130624
vt 0.820752 0.181251
vt 0.429247 0.568749
vt 0.570752 0.619375
vt 0.312508 0.068187
vt 0.187493 0.056813
vt 0.437492 0.056813
vt 0.562503 0.068187
vt 0.437499 0.681813
vt 0.562490 0.693187
vt 0.812504 0.068187
vt 0.687492 0.056813
vt 0.820752 0.056813
vt 0.179248 0.068187
vt 0.320752 0.119376
vt 0.429247 0.630624
vt 0.570752 0.681813
vt 0.679246 0.068187
vt 0.820752 0.119376
vt 0.429249 0.068187
vt 0.570753 0.119376
vt 0.429247 0.556251
vt 0.563187 0.556251
vt 0.570752 0.568749
vt 0.436817 0.568749
vt 0.179249 0.181251
vt 0.313184 0.181251
vt 0.320752 0.193749
vt 0.186817 0.193749
vt 0.429248 0.181251
vt 0.563183 0.181251
vt 0.570753 0.193749
vt 0.436816 0.193749
vt 0.679246 0.181251
vt 0.813184 0.181251
vt 0.820752 0.193749
vt 0.686816 0.193749
vt 0.320752 0.130624
vt 0.186497 0.130624
vt 0.179249 0.119376
vt 0.313504 0.119376
vt 0.429248 0.119376
vt 0.563503 0.119376
vt 0.570753 0.130624
vt 0.436497 0.130624
vt 0.429247 0.619375
vt 0.563504 0.619375
vt 0.570752 0.630624
vt 0.436497 0.630624
vt 0.820751 0.130624
vt 0.686496 0.130624
vt 0.679246 0.119376
vt 0.813501 0.119376
vt 0.320752 0.068187
vt 0.187495 0.068187
vt 0.312507 0.056813
vt 0.562510 0.056813
vt 0.570753 0.068187
vt 0.437494 0.068187
vt 0.429247 0.681813
vt 0.562513 0.681813
vt 0.437490 0.693187
vt 0.820752 0.068187
vt 0.687493 0.068187
vt 0.812506 0.056813
vt 0.429247 0.750000
vt 0.375000 0.804248
vt 0.570753 0.750001
vt 0.429247 0.750000
vt 0.625000 0.804248
vt 0.570753 0.750001
vt 0.624999 0.945754
vt 0.625000 0.804251
vt 0.570753 1.000000
vt 0.624999 0.945755
vt 0.429249 1.000000
vt 0.570753 1.000000
vt 0.375001 0.945752
vt 0.429249 1.000000
vt 0.375000 0.804248
vt 0.375001 0.945752
vt 0.571662 -0.000000
vt 0.669562 0.000000
vt 0.569565 -0.000000
vt 0.430426 0.000473
vt 0.680424 0.000473
vt 0.819564 0.000000
vt 0.419565 -0.000000
vt 0.321664 -0.000000
vt 0.319565 -0.000000
vt 0.179248 0.005681
vt 0.180426 0.000473
vt 0.625000 0.793143
vt 0.679246 0.005681
vt 0.570753 0.056813
vt 0.429249 0.005681
vt 0.320752 0.056813
vt 0.570752 0.744319
vt 0.625000 0.693187
vt 0.375000 0.793143
vt 0.375000 0.693187
vt 0.429247 0.693187
vt 0.429249 0.056813
vt 0.570753 0.005681
vt 0.570752 0.693187
vt 0.429247 0.744320
vt 0.679246 0.056813
vt 0.820752 0.005681
vt 0.179248 0.056813
vt 0.320752 0.005681
vt 0.429246 0.750001
vt 0.375000 0.804248
vt 0.570753 0.750000
vt 0.429247 0.750000
vt 0.625000 0.804248
vt 0.570753 0.750001
vt 0.625000 0.945754
vt 0.625000 0.804250
vt 0.570753 1.000000
vt 0.625000 0.945754
vt 0.429249 1.000000
vt 0.570752 1.000000
vt 0.375001 0.945753
vt 0.429249 1.000000
vt 0.375000 0.804247
vt 0.375001 0.945752
vt 0.571662 -0.000000
vt 0.669562 0.000000
vt 0.679246 0.005681
vt 0.570753 0.005681
vt 0.429249 0.005681
vt 0.430426 0.000473
vt 0.569565 -0.000000
vt 0.680424 0.000473
vt 0.819564 0.000000
vt 0.820752 0.005681
vt 0.320752 0.005681
vt 0.321664 -0.000000
vt 0.419565 -0.000000
vt 0.179248 0.005681
vt 0.180426 0.000473
vt 0.319565 -0.000000
vt 0.625000 0.804248
vt 0.570753 0.750000
vt 0.570752 0.744319
vt 0.625000 0.793143
vt 0.429246 0.750001
vt 0.429247 0.744320
vt 0.375000 0.804247
vt 0.375000 0.793143
vt 0.429247 0.750000
vt 0.375000 0.804248
vt 0.375000 0.804248
vt 0.429247 0.750000
vt 0.570753 0.750001
vt 0.570753 0.750001
vt 0.375001 0.945752
vt 0.375001 0.945752
vt 0.625000 0.804250
vt 0.625000 0.804248
vt 0.625000 0.945754
vt 0.624999 0.945754
vt 0.570752 1.000000
vt 0.570753 1.000000
vt 0.429249 1.000000
vt 0.429249 1.000000
vn 0.000000 1.000000 -0.000000
vn 0.000000 1.000000 -0.000000
vn 0.000000 1.000000 -0.000000
vn 0.000000 1.000000 -0.000000
vn 0.000000 1.000000 -0.000000
vn 0.000000 1.000000 -0.000000
vn 0.000000 1.000000 -0.000000
vn 0.000000 1.000000 -0.000000
vn -0.000000 -1.000000 0.000000
vn -0.000000 -1.000000 0.000000
vn -0.000000 -1.000000 0.000000
vn -0.000000 -1.000000 0.000000
vn -0.000000 -1.000000 0.000000
vn -0.000000 -1.000000 0.000000
vn -0.000000 -1.000000 0.000000
vn -0.000000 -1.000000 0.000000
vn -0.999999 0.000000 0.001338
vn -0.999999 0.000000 0.001338
vn -0.999999 0.000000 0.001338
vn -0.999999 0.000000 0.001338
vn -0.033076 -0.999377 0.012272
vn -0.033115 -0.999377 -0.012180
vn -0.033122 -0.999231 -0.020972
vn -0.033056 -0.999232 0.021058
vn -0.001322 0.000000 -0.999999
vn -0.001322 0.000000 -0.999999
vn -0.001322 0.000000 -0.999999
vn -0.001322 0.000000 -0.999999
vn -0.012271 -0.999377 -0.033081
vn 0.012179 -0.999377 -0.033116
vn 0.020976 -0.999231 -0.033124
vn -0.021063 -0.999231 -0.033064
vn 0.999999 0.000000 -0.001440
vn 0.999999 0.000000 -0.001440
vn 0.999999 0.000000 -0.001440
vn 0.999999 0.000000 -0.001440
vn 0.033078 -0.999377 -0.012267
vn 0.033106 -0.999378 0.012173
vn 0.033112 -0.999232 0.020968
vn 0.033064 -0.999231 -0.021065
vn 0.001293 0.000000 0.999999
vn 0.001293 0.000000 0.999999
vn 0.001293 0.000000 0.999999
vn 0.001293 0.000000 0.999999
vn 0.012266 -0.999378 0.033069
vn -0.012177 -0.999378 0.033103
vn -0.020964 -0.999232 0.033110
vn 0.021055 -0.999232 0.033052
vn -0.033114 0.999377 -0.012180
vn -0.033075 0.999377 0.012272
vn -0.033055 0.999232 0.021057
vn -0.033121 0.999231 -0.020971
vn -0.999999 0.000000 0.001339
vn -0.999999 0.000000 0.001339
vn -0.999999 0.000000 0.001339
vn -0.999999 0.000000 0.001339
vn -0.029773 -0.999495 0.011066
vn -0.029804 -0.999495 -0.010984
vn -0.029811 -0.999377 -0.018911
vn -0.029757 -0.999377 0.018990
vn 0.012179 0.999377 -0.033115
vn -0.012270 0.999377 -0.033080
vn -0.021062 0.999231 -0.033063
vn 0.020975 0.999231 -0.033123
vn -0.001322 0.000000 -0.999999
vn -0.001322 0.000000 -0.999999
vn -0.001322 0.000000 -0.999999
vn -0.001322 0.000000 -0.999999
vn -0.011065 -0.999495 -0.029771
vn 0.010982 -0.999496 -0.029802
vn 0.018912 -0.999377 -0.029811
vn -0.018989 -0.999377 -0.029757
vn -0.012176 0.999378 0.033102
vn 0.012266 0.999378 0.033068
vn 0.021054 0.999232 0.033051
vn -0.020963 0.999232 0.033108
vn 0.001293 0.000000 0.999999
vn 0.001293 0.000000 0.999999
vn 0.001293 0.000000 0.999999
vn 0.001293 0.000000 0.999999
vn 0.011062 -0.999496 0.029767
vn -0.010981 -0.999496 0.029797
vn -0.018906 -0.999377 0.029806
vn 0.018988 -0.999377 0.029754
vn 0.033105 0.999378 0.012172
vn 0.033077 0.999378 -0.012266
vn 0.033063 0.999231 -0.021064
vn 0.033111 0.999232 0.020967
vn 0.999999 0.000000 -0.001440
vn 0.999999 0.000000 -0.001440
vn 0.999999 0.000000 -0.001440
vn 0.999999 0.000000 -0.001440
vn 0.029774 -0.999495 -0.011067
vn 0.029802 -0.999496 0.010978
vn 0.029809 -0.999377 0.018912
vn 0.029760 -0.999377 -0.018993
vn -0.011010 0.999485 0.030129
vn 0.011089 0.999485 0.030100
vn 0.019103 0.999365 0.030085
vn -0.019017 0.999365 0.030136
vn -0.030137 0.999485 -0.011010
vn -0.030102 0.999485 0.011093
vn -0.030085 0.999365 0.019102
vn -0.030145 0.999364 -0.019023
vn 0.030132 0.999485 0.011007
vn 0.030105 0.999485 -0.011091
vn 0.030093 0.999364 -0.019109
vn 0.030139 0.999365 0.019019
vn 0.011009 0.999485 -0.030138
vn -0.011092 0.999485 -0.030107
vn -0.019108 0.999364 -0.030092
vn 0.019027 0.999364 -0.030146
vn -0.029804 0.999495 -0.010984
vn -0.029772 0.999495 0.011066
vn -0.029756 0.999377 0.018990
vn -0.029810 0.999377 -0.018910
vn -0.999999 0.000000 0.001338
vn -0.999999 0.000000 0.001338
vn -0.999999 0.000000 0.001338
vn -0.999999 0.000000 0.001338
vn -0.030098 -0.999485 0.011092
vn -0.030133 -0.999485 -0.011009
vn -0.030140 -0.999365 -0.019020
vn -0.030080 -0.999365 0.019099
vn 0.010982 0.999495 -0.029801
vn -0.011065 0.999496 -0.029770
vn -0.018989 0.999377 -0.029756
vn 0.018912 0.999377 -0.029810
vn -0.001322 0.000000 -0.999999
vn -0.001322 0.000000 -0.999999
vn -0.001322 0.000000 -0.999999
vn -0.001322 0.000000 -0.999999
vn -0.011090 -0.999485 -0.030103
vn 0.011007 -0.999485 -0.030134
vn 0.019024 -0.999365 -0.030141
vn -0.019105 -0.999365 -0.030088
vn 0.029802 0.999496 0.010977
vn 0.029773 0.999495 -0.011066
vn 0.029759 0.999377 -0.018992
vn 0.029808 0.999377 0.018912
vn 0.999999 0.000000 -0.001440
vn 0.999999 0.000000 -0.001440
vn 0.999999 0.000000 -0.001440
vn 0.999999 0.000000 -0.001440
vn 0.030100 -0.999485 -0.011089
vn 0.030128 -0.999485 0.011006
vn 0.030135 -0.999365 0.019017
vn 0.030088 -0.999365 -0.019105
vn -0.010981 0.999496 0.029796
vn 0.011062 0.999496 0.029766
vn 0.018987 0.999377 0.029754
vn -0.018906 0.999377 0.029805
vn 0.001293 0.000000 0.999999
vn 0.001293 0.000000 0.999999
vn 0.001293 0.000000 0.999999
vn 0.001293 0.000000 0.999999
vn 0.011087 -0.999485 0.030096
vn -0.011008 -0.999485 0.030125
vn -0.019014 -0.999365 0.030131
vn 0.019100 -0.999365 0.030081
vn -0.001367 0.000000 -0.999999
vn -0.001367 0.000000 -0.999999
vn -0.001367 0.000000 -0.999999
vn -0.001367 0.000000 -0.999999
vn 0.999999 0.000000 -0.001344
vn 0.999999 0.000000 -0.001344
vn 0.999999 0.000000 -0.001344
vn 0.999999 0.000000 -0.001344
vn -0.999999 0.000000 0.001474
vn -0.999999 0.000000 0.001474
vn -0.999999 0.000000 0.001474
vn -0.999999 0.000000 0.001474
vn 0.001367 0.000000 0.999999
vn 0.001367 0.000000 0.999999
vn 0.001367 0.000000 0.999999
vn 0.001367 0.000000 0.999999
vn -0.999999 0.000000 0.001339
vn -0.999999 0.000000 0.001339
vn -0.999999 0.000000 0.001339
vn -0.999999 0.000000 0.001339
vn -0.001322 0.000000 -0.999999
vn -0.001322 0.000000 -0.999999
vn -0.001322 0.000000 -0.999999
vn -0.001322 0.000000 -0.999999
vn 0.001373 0.000000 0.999999
vn 0.001373 0.000000 0.999999
vn 0.001373 0.000000 0.999999
vn 0.001373 0.000000 0.999999
vn 0.999999 0.000000 -0.001378
vn 0.999999 0.000000 -0.001378
vn 0.999999 0.000000 -0.001378
vn 0.999999 0.000000 -0.001378
vn -0.999999 0.000000 0.001435
vn -0.999999 0.000000 0.001435
vn -0.999999 0.000000 0.001435
vn -0.999999 0.000000 0.001435
vn -0.001372 0.000000 -0.999999
vn -0.001372 0.000000 -0.999999
vn -0.001372 0.000000 -0.999999
vn -0.001372 0.000000 -0.999999
vn 0.001327 0.000000 0.999999
vn 0.001327 0.000000 0.999999
vn 0.001327 0.000000 0.999999
vn 0.001327 0.000000 0.999999
vn 0.999999 0.000000 -0.001451
vn 0.999999 0.000000 -0.001451
vn 0.999999 0.000000 -0.001451
vn 0.999999 0.000000 -0.001451
vn 0.706143 0.000000 -0.708069
vn 0.706143 0.000000 -0.708069
vn 0.706143 0.000000 -0.708069
vn 0.706143 0.000000 -0.708069
vn -0.708061 0.000000 -0.706151
vn -0.708061 0.000000 -0.706151
vn -0.708061 0.000000 -0.706151
vn -0.708061 0.000000 -0.706151
vn -0.706132 0.000000 0.708080
vn -0.706132 0.000000 0.708080
vn -0.706132 0.000000 0.708080
vn -0.706132 0.000000 0.708080
vn 0.708065 0.000000 0.706147
vn 0.708065 0.000000 0.706147
vn 0.708065 0.000000 0.706147
vn 0.708065 0.000000 0.706147
vn -0.708091 0.000000 -0.706121
vn -0.708091 0.000000 -0.706121
vn -0.708091 0.000000 -0.706121
vn -0.708091 0.000000 -0.706121
vn 0.706140 0.000000 -0.708073
vn 0.706140 0.000000 -0.708073
vn 0.706140 0.000000 -0.708073
vn 0.706140 0.000000 -0.708073
vn 0.708100 0.000000 0.706112
vn 0.708100 0.000000 0.706112
vn 0.708100 0.000000 0.706112
vn 0.708100 0.000000 0.706112
vn -0.706124 0.000000 0.708088
vn -0.706124 0.000000 0.708088
vn -0.706124 0.000000 0.708088
vn -0.706124 0.000000 0.708088
vn -0.708065 0.000000 -0.706147
vn -0.708065 0.000000 -0.706147
vn -0.708065 0.000000 -0.706147
vn -0.708065 0.000000 -0.706147
vn -0.706109 0.000000 0.708103
vn -0.706109 0.000000 0.708103
vn -0.706109 0.000000 0.708103
vn -0.706109 0.000000 0.708103
vn 0.706136 0.000000 -0.708077
vn 0.706136 0.000000 -0.708077
vn 0.706136 0.000000 -0.708077
vn 0.706136 0.000000 -0.708077
vn 0.708034 0.000000 0.706179
vn 0.708034 0.000000 0.706179
vn 0.708034 0.000000 0.706179
vn 0.708034 0.000000 0.706179
vn -0.708091 0.000000 -0.706121
vn -0.708091 0.000000 -0.706121
vn -0.708091 0.000000 -0.706121
vn -0.708091 0.000000 -0.706121
vn -0.706124 0.000000 0.708088
vn -0.706124 0.000000 0.708088
vn -0.706124 0.000000 0.708088
vn -0.706124 0.000000 0.708088
vn 0.708100 0.000000 0.706112
vn 0.708100 0.000000 0.706112
vn 0.708100 0.000000 0.706112
vn 0.708100 0.000000 0.706112
vn 0.706140 0.000000 -0.708073
vn 0.706140 0.000000 -0.708073
vn 0.706140 0.000000 -0.708073
vn 0.706140 0.000000 -0.708073
vn -0.708089 0.000000 -0.706123
vn -0.708089 0.000000 -0.706123
vn -0.708089 0.000000 -0.706123
vn -0.708089 0.000000 -0.706123
vn -0.706120 0.000000 0.708092
vn -0.706120 0.000000 0.708092
vn -0.706120 0.000000 0.708092
vn -0.706120 0.000000 0.708092
vn 0.706171 0.000000 -0.708041
vn 0.706171 0.000000 -0.708041
vn 0.706171 0.000000 -0.708041
vn 0.706171 0.000000 -0.708041
vn 0.708097 0.000000 0.706116
vn 0.708097 0.000000 0.706116
vn 0.708097 0.000000 0.706116
vn 0.708097 0.000000 0.706116
vn -0.708091 0.000000 -0.706121
vn -0.708091 0.000000 -0.706121
vn -0.708091 0.000000 -0.706121
vn -0.708091 0.000000 -0.706121
vn 0.706140 0.000000 -0.708073
vn 0.706140 0.000000 -0.708073
vn 0.706140 0.000000 -0.708073
vn 0.706140 0.000000 -0.708073
vn 0.708100 0.000000 0.706112
vn 0.708100 0.000000 0.706112
vn 0.708100 0.000000 0.706112
vn 0.708100 0.000000 0.706112
vn -0.706124 0.000000 0.708088
vn -0.706124 0.000000 0.708088
vn -0.706124 0.000000 0.708088
vn -0.706124 0.000000 0.708088
vn -0.001014 -0.639671 -0.768648
vn -0.001014 -0.639671 -0.768648
vn -0.001014 -0.639671 -0.768648
vn -0.001014 -0.639671 -0.768648
vn 0.564515 -0.600739 -0.566070
vn 0.564515 -0.600739 -0.566070
vn 0.564515 -0.600739 -0.566070
vn 0.564515 -0.600739 -0.566070
vn -0.566058 -0.600789 -0.564474
vn -0.566058 -0.600789 -0.564474
vn -0.566058 -0.600789 -0.564474
vn -0.566058 -0.600789 -0.564474
vn 0.768602 -0.639726 -0.001078
vn 0.768602 -0.639726 -0.001078
vn 0.768602 -0.639726 -0.001078
vn 0.768602 -0.639726 -0.001078
vn 0.566012 -0.600841 0.564464
vn 0.566012 -0.600841 0.564464
vn 0.566012 -0.600841 0.564464
vn 0.566012 -0.600841 0.564464
vn 0.001034 -0.639684 0.768637
vn 0.001034 -0.639684 0.768638
vn 0.001034 -0.639684 0.768637
vn 0.001034 -0.639684 0.768637
vn -0.564530 -0.600725 0.566070
vn -0.564530 -0.600725 0.566070
vn -0.564530 -0.600725 0.566070
vn -0.564530 -0.600725 0.566070
vn -0.768579 -0.639754 0.001048
vn -0.768579 -0.639754 0.001048
vn -0.768579 -0.639754 0.001048
vn -0.768579 -0.639754 0.001048
vn -0.301728 -0.781869 -0.545564
vn 0.300226 -0.781858 -0.546409
vn 0.312307 -0.780309 -0.541833
vn -0.313796 -0.780321 -0.540954
vn 0.545577 -0.781856 -0.301741
vn 0.540964 -0.780306 -0.313815
vn 0.546404 -0.781866 0.300215
vn 0.541822 -0.780315 0.312310
vn 0.301716 -0.781863 0.545580
vn 0.313776 -0.780315 0.540974
vn -0.300224 -0.781869 0.546394
vn -0.312302 -0.780320 0.541819
vn -0.545573 -0.781871 0.301707
vn -0.540961 -0.780322 0.313780
vn -0.546406 -0.781863 -0.300219
vn -0.541827 -0.780314 -0.312305
vn 0.001284 -0.245161 0.969482
vn 0.001284 -0.245160 0.969482
vn 0.001284 -0.245160 0.969482
vn 0.001284 -0.245161 0.969482
vn -0.688438 -0.222436 0.690344
vn -0.688438 -0.222436 0.690344
vn -0.688438 -0.222436 0.690344
vn -0.688438 -0.222436 0.690344
vn 0.690312 -0.222697 0.688386
vn 0.690312 -0.222697 0.688386
vn 0.690312 -0.222697 0.688386
vn 0.690312 -0.222697 0.688386
vn -0.969551 -0.244886 0.001316
vn -0.969551 -0.244886 0.001316
vn -0.969551 -0.244886 0.001316
vn -0.969551 -0.244886 0.001316
vn -0.690340 -0.222468 -0.688431
vn -0.690340 -0.222468 -0.688431
vn -0.690340 -0.222468 -0.688431
vn -0.690340 -0.222469 -0.688432
vn 0.969522 -0.245002 -0.001368
vn 0.969522 -0.245002 -0.001368
vn 0.969522 -0.245002 -0.001368
vn 0.969522 -0.245002 -0.001368
vn 0.688434 -0.222505 -0.690326
vn 0.688434 -0.222505 -0.690326
vn 0.688434 -0.222505 -0.690326
vn 0.688434 -0.222505 -0.690326
vn -0.001287 -0.245048 -0.969510
vn -0.001287 -0.245048 -0.969510
vn -0.001287 -0.245048 -0.969510
vn -0.001288 -0.245048 -0.969510
vn 0.001293 0.000000 0.999999
vn 0.001293 0.000000 0.999999
vn 0.001293 0.000000 0.999999
vn 0.001293 0.000000 0.999999
vn -0.999999 0.000000 0.001338
vn -0.999999 0.000000 0.001338
vn -0.999999 0.000000 0.001338
vn -0.999999 0.000000 0.001338
vn 0.999999 0.000000 -0.001440
vn 0.999999 0.000000 -0.001440
vn 0.999999 0.000000 -0.001440
vn 0.999999 0.000000 -0.001440
vn -0.001322 0.000000 -0.999999
vn -0.001322 0.000000 -0.999999
vn -0.001322 0.000000 -0.999999
vn -0.001322 0.000000 -0.999999
vn -0.706124 0.000000 0.708088
vn -0.706124 0.000000 0.708088
vn -0.706124 0.000000 0.708088
vn -0.706124 0.000000 0.708088
vn 0.706140 0.000000 -0.708073
vn 0.706140 0.000000 -0.708073
vn 0.706140 0.000000 -0.708073
vn 0.706140 0.000000 -0.708073
vn 0.708100 0.000000 0.706112
vn 0.708100 0.000000 0.706112
vn 0.708100 0.000000 0.706112
vn 0.708100 0.000000 0.706112
vn -0.708091 0.000000 -0.706121
vn -0.708091 0.000000 -0.706121
vn -0.708091 0.000000 -0.706121
vn -0.708091 0.000000 -0.706121
vn -0.001150 -0.475137 -0.879911
vn -0.001150 -0.475137 -0.879911
vn -0.001150 -0.475137 -0.879911
vn -0.001150 -0.475137 -0.879911
vn 0.634689 -0.438310 -0.636439
vn 0.634689 -0.438310 -0.636439
vn 0.634689 -0.438310 -0.636439
vn 0.634689 -0.438310 -0.636439
vn 0.879908 -0.475142 -0.001218
vn 0.879908 -0.475142 -0.001218
vn 0.879908 -0.475142 -0.001218
vn 0.879908 -0.475142 -0.001217
vn 0.636445 -0.438296 0.634693
vn 0.636445 -0.438296 0.634693
vn 0.636445 -0.438296 0.634693
vn 0.636445 -0.438296 0.634693
vn 0.001169 -0.475134 0.879913
vn 0.001169 -0.475134 0.879913
vn 0.001169 -0.475134 0.879913
vn 0.001169 -0.475134 0.879913
vn -0.634679 -0.438339 0.636429
vn -0.634679 -0.438339 0.636429
vn -0.634679 -0.438339 0.636429
vn -0.634679 -0.438339 0.636429
vn -0.879913 -0.475134 0.001203
vn -0.879913 -0.475134 0.001203
vn -0.879913 -0.475134 0.001203
vn -0.879913 -0.475134 0.001203
vn -0.636451 -0.438297 -0.634686
vn -0.636451 -0.438297 -0.634686
vn -0.636451 -0.438297 -0.634686
vn -0.636451 -0.438297 -0.634686
vn 0.000049 0.999324 0.036764
vn 0.000049 0.999324 0.036764
vn 0.000049 0.999324 0.036764
vn 0.000049 0.999324 0.036764
vn 0.000046 -0.999348 0.036096
vn 0.000046 -0.999348 0.036096
vn 0.000046 -0.999348 0.036096
vn 0.000046 -0.999348 0.036096
vn -0.028219 -0.999201 0.028298
vn -0.028219 -0.999201 0.028298
vn -0.028219 -0.999201 0.028298
vn -0.028219 -0.999201 0.028298
vn -0.028740 0.999171 0.028819
vn -0.028740 0.999171 0.028819
vn -0.028740 0.999171 0.028819
vn -0.028740 0.999171 0.028819
vn 0.028822 0.999171 0.028742
vn 0.028822 0.999171 0.028742
vn 0.028822 0.999171 0.028742
vn 0.028822 0.999171 0.028742
vn 0.028299 -0.999201 0.028219
vn 0.028299 -0.999201 0.028219
vn 0.028299 -0.999201 0.028219
vn 0.028299 -0.999201 0.028219
vn -0.036096 -0.999348 0.000048
vn -0.036096 -0.999348 0.000048
vn -0.036096 -0.999348 0.000048
vn -0.036096 -0.999348 0.000048
vn -0.036765 0.999324 0.000050
vn -0.036765 0.999324 0.000050
vn -0.036765 0.999324 0.000050
vn -0.036765 0.999324 0.000050
vn -0.028298 -0.999201 -0.028219
vn -0.028298 -0.999201 -0.028219
vn -0.028298 -0.999201 -0.028219
vn -0.028298 -0.999201 -0.028219
vn -0.028823 0.999171 -0.028743
vn -0.028823 0.999171 -0.028743
vn -0.028823 0.999171 -0.028743
vn -0.028823 0.999171 -0.028743
vn 0.036764 0.999324 -0.000052
vn 0.036764 0.999324 -0.000052
vn 0.036764 0.999324 -0.000052
vn 0.036764 0.999324 -0.000052
vn 0.036097 -0.999348 -0.000051
vn 0.036097 -0.999348 -0.000051
vn 0.036097 -0.999348 -0.000051
vn 0.036097 -0.999348 -0.000051
vn 0.028742 0.999171 -0.028821
vn 0.028742 0.999171 -0.028821
vn 0.028742 0.999171 -0.028821
vn 0.028742 0.999171 -0.028821
vn 0.028222 -0.999201 -0.028299
vn 0.028222 -0.999201 -0.028299
vn 0.028222 -0.999201 -0.028299
vn 0.028222 -0.999201 -0.028299
vn -0.000048 0.999324 -0.036764
vn -0.000048 0.999324 -0.036764
vn -0.000048 0.999324 -0.036764
vn -0.000048 0.999324 -0.036764
vn -0.000047 -0.999348 -0.036096
vn -0.000047 -0.999348 -0.036096
vn -0.000047 -0.999348 -0.036096
vn -0.000047 -0.999348 -0.036096
vn -0.000064 0.998900 -0.046886
vn -0.000064 0.998900 -0.046886
vn -0.000064 0.998900 -0.046886
vn -0.000064 0.998900 -0.046886
vn -0.000056 -0.999053 -0.043502
vn -0.000056 -0.999053 -0.043502
vn -0.000056 -0.999053 -0.043502
vn -0.000056 -0.999053 -0.043502
vn 0.034009 -0.998840 -0.034103
vn 0.034009 -0.998840 -0.034103
vn 0.034009 -0.998840 -0.034103
vn 0.034009 -0.998839 -0.034103
vn 0.036652 0.998652 -0.036753
vn 0.036652 0.998652 -0.036753
vn 0.036652 0.998652 -0.036753
vn 0.036652 0.998652 -0.036753
vn -0.036754 0.998652 -0.036651
vn -0.036754 0.998652 -0.036651
vn -0.036754 0.998652 -0.036651
vn -0.036754 0.998652 -0.036651
vn -0.034103 -0.998840 -0.034008
vn -0.034103 -0.998840 -0.034008
vn -0.034103 -0.998840 -0.034008
vn -0.034103 -0.998840 -0.034008
vn 0.043499 -0.999054 -0.000063
vn 0.043499 -0.999054 -0.000063
vn 0.043499 -0.999054 -0.000063
vn 0.043499 -0.999054 -0.000063
vn 0.046886 0.998900 -0.000068
vn 0.046886 0.998900 -0.000068
vn 0.046886 0.998900 -0.000068
vn 0.046886 0.998900 -0.000068
vn 0.034097 -0.998840 0.034007
vn 0.034097 -0.998840 0.034007
vn 0.034097 -0.998840 0.034007
vn 0.034097 -0.998840 0.034007
vn 0.036754 0.998652 0.036652
vn 0.036754 0.998652 0.036652
vn 0.036754 0.998652 0.036652
vn 0.036754 0.998652 0.036652
vn 0.000057 -0.999053 0.043503
vn 0.000057 -0.999053 0.043503
vn 0.000057 -0.999053 0.043503
vn 0.000057 -0.999053 0.043503
vn 0.000064 0.998900 0.046887
vn 0.000064 0.998900 0.046887
vn 0.000064 0.998900 0.046887
vn 0.000064 0.998900 0.046887
vn -0.034009 -0.998840 0.034103
vn -0.034009 -0.998840 0.034103
vn -0.034009 -0.998840 0.034103
vn -0.034009 -0.998840 0.034103
vn -0.036654 0.998652 0.036753
vn -0.036654 0.998652 0.036753
vn -0.036654 0.998652 0.036753
vn -0.036654 0.998652 0.036753
vn -0.043502 -0.999053 0.000060
vn -0.043502 -0.999053 0.000060
vn -0.043502 -0.999053 0.000060
vn -0.043502 -0.999053 0.000060
vn -0.046886 0.998900 0.000063
vn -0.046886 0.998900 0.000063
vn -0.046886 0.998900 0.000063
vn -0.046886 0.998900 0.000063
s off
g pCube4 LightBulb
usemtl initialShadingGroup
f 2/1/1 1/52/2 14/12/3 13/2/4 10/10/5 9/46/6 6/3/7 5/4/8
f 106/131/9 105/133/10 107/135/11 108/137/12 109/139/13 110/141/14 111/143/15 112/145/16
f 1/52/17 2/5/18 4/92/19 3/51/20
s 1
f 3/51/21 4/92/22 67/39/23 68/97/24
s off
f 5/45/25 6/6/26 8/7/27 7/44/28
s 1
f 7/8/29 8/86/30 59/36/31 60/9/32
s off
f 9/46/33 10/10/34 12/11/35 11/47/36
s 1
f 11/47/37 12/11/38 62/31/39 61/87/40
s off
f 13/50/41 14/12/42 16/96/43 15/48/44
s 1
f 15/48/45 16/96/46 71/41/47 72/101/48
s 4
f 17/62/49 18/94/50 66/40/51 65/91/52
s off
f 18/94/53 17/62/54 20/102/55 19/63/56
s 5
f 19/63/57 20/102/58 75/53/59 76/109/60
s 4
f 21/67/61 22/13/62 58/30/63 57/89/64
s off
f 22/90/65 21/14/66 24/15/67 23/61/68
s 5
f 23/61/69 24/15/70 78/32/71 77/103/72
s 4
f 25/64/73 26/98/74 70/42/75 69/95/76
s off
f 26/98/77 25/64/78 28/108/79 27/65/80
s 5
f 27/65/81 28/108/82 83/56/83 84/115/84
s 4
f 29/16/85 30/88/86 63/37/87 64/17/88
s off
f 30/18/89 29/66/90 32/114/91 31/19/92
s 5
f 31/68/93 32/20/94 86/33/95 85/111/96
s 8
f 33/159/97 34/171/98 98/76/99 97/121/100
f 35/161/101 36/167/102 90/71/103 89/120/104
f 37/163/105 38/169/106 103/74/107 104/21/108
f 39/22/109 40/173/110 95/70/111 96/23/112
s 10
f 41/79/113 42/106/114 74/55/115 73/105/116
s off
f 42/106/117 41/79/118 44/118/119 43/84/120
s 11
f 43/84/121 44/118/122 91/69/123 92/123/124
s 10
f 45/25/125 46/104/126 79/54/127 80/24/128
s off
f 46/104/129 45/25/130 48/26/131 47/78/132
s 11
f 47/78/133 48/26/134 94/34/135 93/119/136
s 10
f 49/28/137 50/112/138 87/58/139 88/27/140
s off
f 50/112/141 49/28/142 52/29/143 51/81/144
s 11
f 51/81/145 52/29/146 102/35/147 101/125/148
s 10
f 53/85/149 54/116/150 82/60/151 81/107/152
s off
f 54/116/153 53/85/154 56/122/155 55/82/156
s 11
f 55/82/157 56/122/158 99/72/159 100/128/160
s off
f 57/89/161 58/30/162 60/9/163 59/36/164
f 61/87/165 62/31/166 64/17/167 63/37/168
f 65/91/169 66/40/170 68/97/171 67/39/172
f 69/95/173 70/42/174 72/101/175 71/41/176
f 73/105/177 74/55/178 76/109/179 75/53/180
f 77/103/181 78/32/182 80/24/183 79/54/184
f 81/107/185 82/60/186 84/115/187 83/56/188
f 85/111/189 86/33/190 88/27/191 87/58/192
f 89/120/193 90/71/194 92/123/195 91/69/196
f 93/119/197 94/34/198 96/23/199 95/70/200
f 97/121/201 98/76/202 100/128/203 99/72/204
f 101/125/205 102/35/206 104/21/207 103/74/208
f 57/89/209 59/36/210 61/87/211 63/37/212
f 60/93/213 58/38/214 65/91/215 67/39/216
f 68/97/217 66/40/218 69/95/219 71/41/220
f 72/101/221 70/42/222 64/99/223 62/43/224
f 7/44/225 4/92/226 2/5/227 5/45/228
f 8/86/229 6/3/230 9/46/231 11/47/232
f 15/48/233 12/100/234 10/49/235 13/50/236
f 3/51/237 16/96/238 14/12/239 1/52/240
f 73/105/241 75/53/242 77/103/243 79/54/244
f 76/109/245 74/55/246 81/107/247 83/56/248
f 80/113/249 78/57/250 85/111/251 87/58/252
f 88/117/253 86/59/254 84/115/255 82/60/256
f 23/61/257 20/102/258 17/62/259 22/90/260
f 19/63/261 28/108/262 25/64/263 18/94/264
f 27/65/265 32/114/266 29/66/267 26/98/268
f 21/67/269 30/88/270 31/68/271 24/110/272
f 89/120/273 91/69/274 93/119/275 95/70/276
f 92/123/277 90/71/278 97/121/279 99/72/280
f 96/126/281 94/73/282 101/125/283 103/74/284
f 104/129/285 102/75/286 100/128/287 98/76/288
f 47/78/289 44/118/290 41/79/291 46/104/292
f 45/80/293 50/112/294 51/81/295 48/124/296
f 55/82/297 52/127/298 49/83/299 54/116/300
f 43/84/301 56/122/302 53/85/303 42/106/304
s 1
f 8/86/30 11/47/37 61/87/40 59/36/31
s 4
f 30/88/86 21/67/61 57/89/64 63/37/87
f 22/90/62 17/62/49 65/91/52 58/38/63
s 1
f 4/92/22 7/44/29 60/93/32 67/39/23
s 4
f 18/94/50 25/64/73 69/95/76 66/40/51
s 1
f 16/96/46 3/51/21 68/97/24 71/41/47
s 4
f 26/98/74 29/66/85 64/99/88 70/42/75
s 1
f 12/100/38 15/48/45 72/101/48 62/43/39
s 5
f 20/102/58 23/61/69 77/103/72 75/53/59
s 10
f 46/104/126 41/79/113 73/105/116 79/54/127
f 42/106/114 53/85/149 81/107/152 74/55/115
s 5
f 28/108/82 19/63/57 76/109/60 83/56/83
f 24/110/70 31/68/93 85/111/96 78/57/71
s 10
f 50/112/138 45/80/125 80/113/128 87/58/139
s 5
f 32/114/94 27/65/81 84/115/84 86/59/95
s 10
f 54/116/150 49/83/137 88/117/140 82/60/151
s 11
f 44/118/122 47/78/133 93/119/136 91/69/123
s 8
f 40/173/110 35/161/101 89/120/104 95/70/111
f 36/167/102 33/159/97 97/121/100 90/71/103
s 11
f 56/122/158 43/84/121 92/123/124 99/72/159
f 48/124/134 51/81/145 101/125/148 94/73/135
s 8
f 38/169/106 39/166/109 96/126/112 103/74/107
s 11
f 52/127/146 55/82/157 100/128/160 102/75/147
s 8
f 34/171/98 37/77/105 104/129/108 98/76/99
s off
f 161/218/305 162/215/306 163/216/307 164/217/308
f 162/215/309 161/218/310 165/219/311 166/220/312
f 164/217/313 163/216/314 167/221/315 168/222/316
f 166/220/317 165/219/318 169/223/319 170/224/320
f 170/224/321 169/223/322 171/225/323 172/226/324
f 172/226/325 171/225/326 173/227/327 174/228/328
f 174/228/329 173/227/330 175/229/331 176/230/332
f 176/230/333 175/229/334 168/222/335 167/221/336
s 14
f 116/144/337 114/130/338 105/133/339 106/131/340
f 114/130/338 118/132/341 107/135/342 105/133/339
f 118/132/341 120/134/343 108/137/344 107/135/342
f 120/134/343 122/136/345 109/139/346 108/137/344
f 122/136/345 124/138/347 110/141/348 109/139/346
f 124/138/347 126/140/349 111/143/350 110/141/348
f 126/140/349 128/142/351 112/145/352 111/143/350
f 128/142/351 116/144/337 106/131/340 112/145/352
s off
f 145/194/353 146/191/354 147/192/355 148/193/356
f 146/197/357 145/194/358 149/195/359 150/196/360
f 148/193/361 147/198/362 151/199/363 152/200/364
f 150/203/365 149/195/366 153/201/367 154/202/368
f 154/206/369 153/201/370 155/204/371 156/205/372
f 152/210/373 151/207/374 157/208/375 158/209/376
f 158/209/377 157/208/378 159/211/379 160/212/380
f 160/212/381 159/211/382 156/213/383 155/214/384
f 129/168/385 131/158/386 34/171/387 33/159/388
f 135/174/389 133/160/390 36/167/391 35/161/392
f 137/157/393 139/162/394 38/169/395 37/163/396
f 141/170/397 143/164/398 40/165/399 39/166/400
f 36/167/401 133/160/402 129/168/403 33/159/404
f 39/166/405 38/169/406 139/162/407 141/170/408
f 34/171/409 131/158/410 137/172/411 37/77/412
f 40/173/413 143/155/414 135/174/415 35/161/416
f 144/189/417 142/175/418 113/178/419 115/176/420
f 142/175/421 140/177/422 117/180/423 113/178/424
f 140/177/425 138/179/426 119/182/427 117/180/428
f 138/179/429 132/181/430 121/184/431 119/182/432
f 132/181/433 130/183/434 123/186/435 121/184/436
f 130/183/437 134/185/438 125/188/439 123/186/440
f 134/185/441 136/187/442 127/190/443 125/188/444
f 136/187/445 144/189/446 115/176/447 127/190/448
f 130/146/449 132/147/450 147/192/451 146/191/452
f 131/158/453 129/168/454 145/194/455 148/193/456
f 129/168/457 133/160/458 149/195/459 145/194/460
f 134/149/461 130/148/462 146/197/463 150/196/464
f 132/150/465 138/151/466 151/199/467 147/198/468
f 137/172/469 131/158/470 148/193/471 152/200/472
f 133/160/473 135/174/474 153/201/475 149/195/476
f 136/153/477 134/152/478 150/203/479 154/202/480
f 135/174/481 143/155/482 155/204/483 153/201/484
f 144/156/485 136/154/486 154/206/487 156/205/488
f 138/179/489 140/177/490 157/208/491 151/207/492
f 139/162/493 137/157/494 152/210/495 158/209/496
f 140/177/497 142/175/498 159/211/499 157/208/500
f 141/170/501 139/162/502 158/209/503 160/212/504
f 142/175/505 144/189/506 156/213/507 159/211/508
f 143/164/509 141/170/510 160/212/511 155/214/512
f 114/130/513 116/144/514 163/216/515 162/215/516
f 115/176/517 113/178/518 161/218/519 164/217/520
f 113/178/521 117/180/522 165/219/523 161/218/524
f 118/132/525 114/130/526 162/215/527 166/220/528
f 116/144/529 128/142/530 167/221/531 163/216/532
f 127/190/533 115/176/534 164/217/535 168/222/536
f 117/180/537 119/182/538 169/223/539 165/219/540
f 120/134/541 118/132/542 166/220/543 170/224/544
f 119/182/545 121/184/546 171/225/547 169/223/548
f 122/136/549 120/134/550 170/224/551 172/226/552
f 121/184/553 123/186/554 173/227/555 171/225/556
f 124/138/557 122/136/558 172/226/559 174/228/560
f 123/186/561 125/188/562 175/229/563 173/227/564
f 126/140/565 124/138/566 174/228/567 176/230/568
f 125/188/569 127/190/570 168/222/571 175/229/572
f 128/142/573 126/140/574 176/230/575 167/221/576
g default
v 13.349402 0.492708 -0.356235
v 13.185660 0.492708 -0.677599
v 12.930620 0.492708 -0.932636
v 12.609259 0.492708 -1.096378
v 12.253023 0.492708 -1.152801
v 11.896788 0.492708 -1.096378
v 11.575427 0.492708 -0.932636
v 11.320387 0.492708 -0.677599
v 11.156645 0.492708 -0.356235
v 11.100222 0.492708 0.000000
v 11.156645 0.492708 0.356235
v 11.320387 0.492708 0.677599
v 11.575427 0.492708 0.932634
v 11.896788 0.492708 1.096379
v 12.253023 0.492708 1.152799
v 12.609259 0.492708 1.096379
v 12.930620 0.492708 0.932634
v 13.185660 0.492708 0.677599
v 13.349402 0.492708 0.356235
v 13.405824 0.492708 0.000000
v 12.397184 1.673693 -0.046844
v 12.375654 1.673692 -0.089094
v 12.342119 1.673694 -0.122629
v 12.299860 1.673693 -0.144159
v 12.253023 1.673692 -0.151577
v 12.206186 1.673692 -0.144159
v 12.163927 1.673690 -0.122628
v 12.130392 1.673694 -0.089094
v 12.108862 1.673692 -0.046844
v 12.101450 1.673690 -0.000000
v 12.108862 1.673693 0.046843
v 12.130392 1.673694 0.089094
v 12.163927 1.673694 0.122628
v 12.206186 1.673693 0.144158
v 12.253023 1.673689 0.151576
v 12.299860 1.673692 0.144158
v 12.342119 1.673694 0.122629
v 12.375654 1.673693 0.089094
v 12.397184 1.673694 0.046844
v 12.404596 1.673692 -0.000000
v 12.856581 1.507587 -0.196107
v 12.738527 1.571843 -0.157750
v 12.613054 1.623039 -0.116982
v 12.765741 1.506340 -0.372508
v 12.665823 1.571537 -0.299914
v 12.559206 1.623071 -0.222453
v 12.625529 1.506340 -0.512713
v 12.552939 1.571537 -0.412796
v 12.475477 1.623071 -0.306181
v 12.448858 1.506340 -0.602729
v 12.410696 1.571537 -0.485271
v 12.369974 1.623071 -0.359937
v 12.253023 1.507588 -0.634611
v 12.253023 1.571843 -0.510485
v 12.253023 1.623039 -0.378554
v 12.056917 1.507588 -0.603552
v 12.095278 1.571843 -0.485501
v 12.136046 1.623039 -0.360027
v 11.880011 1.507588 -0.513411
v 11.952967 1.571843 -0.412991
v 12.030512 1.623039 -0.306256
v 11.739607 1.507588 -0.373016
v 11.840029 1.571843 -0.300055
v 11.946764 1.623039 -0.222508
v 11.649465 1.507587 -0.196106
v 11.767519 1.571843 -0.157750
v 11.892996 1.623039 -0.116982
v 11.618418 1.507588 -0.000000
v 11.742541 1.571843 -0.000000
v 11.874472 1.623039 -0.000000
v 11.649465 1.507587 0.196106
v 11.767519 1.571843 0.157749
v 11.892996 1.623039 0.116981
v 11.739611 1.507588 0.373015
v 11.840029 1.571843 0.300055
v 11.946764 1.623039 0.222508
v 11.880011 1.507589 0.513412
v 11.952967 1.571845 0.412991
v 12.030512 1.623041 0.306256
v 12.056917 1.507588 0.603551
v 12.095278 1.571843 0.485500
v 12.136046 1.623039 0.360026
v 12.253023 1.507588 0.634610
v 12.253023 1.571843 0.510484
v 12.253023 1.623038 0.378552
v 12.449129 1.507588 0.603551
v 12.410769 1.571843 0.485500
v 12.370001 1.623039 0.360026
v 12.626036 1.507589 0.513412
v 12.553080 1.571845 0.412991
v 12.475535 1.623041 0.306256
v 12.766439 1.507588 0.373015
v 12.666018 1.571845 0.300056
v 12.559282 1.623041 0.222508
v 12.856581 1.507588 0.196106
v 12.738527 1.571843 0.157749
v 12.613051 1.623039 0.116981
v 12.887629 1.507588 -0.000000
v 12.763506 1.571843 -0.000000
v 12.631575 1.623038 -0.000000
v 13.107408 -0.103654 0.620746
v 13.257414 -0.103654 0.326346
v 12.873770 -0.103654 0.854383
v 12.579370 -0.103654 1.004389
v 12.253023 -0.103654 1.056077
v 11.926676 -0.103654 1.004389
v 11.632276 -0.103654 0.854383
v 11.398638 -0.103654 0.620746
v 11.248633 -0.103654 0.326346
v 11.196947 -0.103654 -0.000000
v 11.248633 -0.103654 -0.326346
v 11.398638 -0.103654 -0.620746
v 11.632276 -0.103654 -0.854384
v 11.926676 -0.103654 -1.004388
v 12.253023 -0.103654 -1.056077
v 12.579370 -0.103654 -1.004389
v 12.873770 -0.103654 -0.854384
v 13.107408 -0.103654 -0.620746
v 13.257414 -0.103654 -0.326346
v 13.309099 -0.103654 -0.000000
v 12.669371 -1.034570 0.302494
v 12.742468 -1.034570 0.159031
v 12.555514 -1.034570 0.416348
v 12.412058 -1.034570 0.489447
v 12.253023 -1.034570 0.514635
v 12.093989 -1.034570 0.489447
v 11.950533 -1.034570 0.416348
v 11.836676 -1.034570 0.302494
v 11.763579 -1.034570 0.159031
v 11.738390 -1.034569 -0.000000
v 11.763579 -1.034570 -0.159031
v 11.836676 -1.034570 -0.302495
v 11.950533 -1.034570 -0.416349
v 12.093989 -1.034570 -0.489448
v 12.253023 -1.034570 -0.514635
v 12.412058 -1.034570 -0.489448
v 12.555514 -1.034570 -0.416349
v 12.669371 -1.034570 -0.302495
v 12.742468 -1.034570 -0.159031
v 12.767657 -1.034569 -0.000000
v 12.638693 -1.222422 0.280205
v 12.706404 -1.222422 0.147312
v 12.533224 -1.222422 0.385669
v 12.400339 -1.222422 0.453381
v 12.253023 -1.222422 0.476713
v 12.105707 -1.222422 0.453382
v 11.972822 -1.222422 0.385669
v 11.867354 -1.222422 0.280205
v 11.799643 -1.222422 0.147312
v 11.776312 -1.222422 -0.000000
v 11.799643 -1.222422 -0.147313
v 11.867354 -1.222422 -0.280205
v 11.972822 -1.222422 -0.385669
v 12.105707 -1.222422 -0.453382
v 12.253023 -1.222422 -0.476713
v 12.400339 -1.222422 -0.453382
v 12.533224 -1.222422 -0.385670
v 12.638693 -1.222422 -0.280205
v 12.706404 -1.222422 -0.147313
v 12.729735 -1.222422 -0.000000
v 12.914518 -0.638882 0.480602
v 13.030653 -0.638882 0.252667
v 12.733625 -0.638882 0.661491
v 12.505690 -0.638883 0.777630
v 12.253023 -0.638883 0.817649
v 12.000357 -0.638883 0.777630
v 11.772421 -0.638882 0.661491
v 11.591528 -0.638882 0.480602
v 11.475394 -0.638882 0.252667
v 11.435377 -0.638882 -0.000000
v 11.475394 -0.638882 -0.252667
v 11.591528 -0.638882 -0.480601
v 11.772421 -0.638882 -0.661492
v 12.000357 -0.638883 -0.777630
v 12.253023 -0.638883 -0.817649
v 12.505690 -0.638883 -0.777630
v 12.733625 -0.638882 -0.661492
v 12.914518 -0.638882 -0.480602
v 13.030653 -0.638882 -0.252667
v 13.070670 -0.638882 -0.000000
v 12.400339 -1.222422 0.453382
v 12.253023 -1.222422 0.476713
v 12.105707 -1.222422 0.453382
v 11.972822 -1.222422 0.385669
v 11.867354 -1.222422 0.280205
v 11.799643 -1.222422 0.147313
v 11.776312 -1.222422 -0.000000
v 11.799643 -1.222422 -0.147313
v 11.867354 -1.222422 -0.280205
v 11.972822 -1.222422 -0.385669
v 12.105707 -1.222422 -0.453382
v 12.253023 -1.222422 -0.476713
v 12.400339 -1.222422 -0.453382
v 12.533224 -1.222422 -0.385670
v 12.638693 -1.222422 -0.280206
v 12.706404 -1.222422 -0.147313
v 12.729735 -1.222422 -0.000000
v 12.706404 -1.222422 0.147313
v 12.638693 -1.222422 0.280205
v 12.533224 -1.222422 0.385669
v 13.322565 0.919527 -0.347515
v 13.078909 1.327147 -0.268345
v 13.377604 0.919529 -0.000000
v 13.121405 1.327148 -0.000000
v 13.162844 0.919190 -0.661023
v 12.955111 1.326527 -0.510096
v 12.914045 0.919200 -0.909820
v 12.763124 1.326520 -0.702095
v 12.600542 0.919200 -1.069557
v 12.521197 1.326520 -0.825363
v 12.253023 0.919536 -1.124581
v 12.253023 1.327139 -0.868393
v 11.905508 0.919529 -1.069541
v 11.984678 1.327148 -0.825880
v 11.592012 0.919529 -0.909806
v 11.742605 1.327148 -0.702535
v 11.343218 0.919530 -0.661012
v 11.550486 1.327149 -0.510421
v 11.183482 0.919529 -0.347515
v 11.427141 1.327151 -0.268344
v 11.128443 0.919529 -0.000000
v 11.384645 1.327148 -0.000000
v 11.183482 0.919529 0.347515
v 11.427141 1.327150 0.268344
v 11.343218 0.919530 0.661012
v 11.550490 1.327149 0.510421
v 11.592012 0.919529 0.909805
v 11.742605 1.327148 0.702534
v 11.905508 0.919529 1.069540
v 11.984678 1.327148 0.825879
v 12.253023 0.919529 1.124580
v 12.253023 1.327148 0.868381
v 12.600539 0.919529 1.069540
v 12.521368 1.327148 0.825879
v 12.914034 0.919529 0.909805
v 12.763441 1.327148 0.702534
v 13.162829 0.919530 0.661012
v 12.955561 1.327149 0.510421
v 13.322565 0.919530 0.347515
v 13.078905 1.327151 0.268344
vt 0.648603 0.107966
vt 0.626409 0.064408
vt 0.591842 0.029841
vt 0.548284 0.007647
vt 0.500000 -0.000000
vt 0.451716 0.007647
vt 0.408159 0.029841
vt 0.373591 0.064409
vt 0.351397 0.107966
vt 0.343750 0.156250
vt 0.351397 0.204534
vt 0.373591 0.248091
vt 0.408159 0.282659
vt 0.451716 0.304853
vt 0.500000 0.312500
vt 0.548284 0.304853
vt 0.591841 0.282659
vt 0.626409 0.248091
vt 0.648603 0.204534
vt 0.656250 0.156250
vt 0.368467 0.680686
vt 0.363369 0.680686
vt 0.363369 0.687500
vt 0.361534 0.673872
vt 0.341325 0.673872
vt 0.341325 0.687500
vt 0.374033 0.673872
vt 0.353824 0.673872
vt 0.353824 0.687500
vt 0.386542 0.673872
vt 0.366324 0.673872
vt 0.366324 0.687500
vt 0.399041 0.673872
vt 0.378824 0.673873
vt 0.378824 0.687500
vt 0.411541 0.673872
vt 0.391324 0.673872
vt 0.391325 0.687500
vt 0.424042 0.673872
vt 0.403825 0.673872
vt 0.403825 0.687500
vt 0.436542 0.673872
vt 0.416325 0.673872
vt 0.416325 0.687500
vt 0.449042 0.673872
vt 0.428824 0.673872
vt 0.428825 0.687500
vt 0.461541 0.673872
vt 0.441324 0.673872
vt 0.441324 0.687500
vt 0.474042 0.673872
vt 0.453824 0.673872
vt 0.453824 0.687500
vt 0.486542 0.673872
vt 0.466325 0.673872
vt 0.466325 0.687500
vt 0.499042 0.673872
vt 0.478824 0.673872
vt 0.478824 0.687500
vt 0.511542 0.673872
vt 0.491324 0.673872
vt 0.491324 0.687500
vt 0.524041 0.673872
vt 0.503824 0.673873
vt 0.503824 0.687500
vt 0.536541 0.673872
vt 0.516324 0.673872
vt 0.516324 0.687500
vt 0.549042 0.673872
vt 0.528825 0.673872
vt 0.528825 0.687500
vt 0.561542 0.673872
vt 0.541324 0.673872
vt 0.541324 0.687500
vt 0.574042 0.673872
vt 0.553824 0.673872
vt 0.553824 0.687500
vt 0.586542 0.673872
vt 0.566324 0.673872
vt 0.566324 0.687500
vt 0.604074 0.673872
vt 0.586541 0.687500
vt 0.368469 0.687500
vt 0.372876 0.680686
vt 0.361534 0.687500
vt 0.379036 0.673872
vt 0.374033 0.687500
vt 0.391535 0.673872
vt 0.386533 0.687500
vt 0.404074 0.673872
vt 0.399042 0.687500
vt 0.416574 0.673872
vt 0.411542 0.687500
vt 0.429074 0.673872
vt 0.424042 0.687500
vt 0.441575 0.673872
vt 0.436542 0.687500
vt 0.454075 0.673872
vt 0.449042 0.687500
vt 0.466574 0.673872
vt 0.461542 0.687500
vt 0.479075 0.673872
vt 0.474042 0.687500
vt 0.491574 0.673872
vt 0.486542 0.687500
vt 0.504074 0.673872
vt 0.499042 0.687500
vt 0.516574 0.673872
vt 0.511542 0.687500
vt 0.529074 0.673872
vt 0.524042 0.687500
vt 0.541574 0.673872
vt 0.536542 0.687500
vt 0.554074 0.673872
vt 0.549042 0.687500
vt 0.566574 0.673872
vt 0.561542 0.687500
vt 0.579074 0.673872
vt 0.574042 0.687500
vt 0.591574 0.673872
vt 0.371522 0.687500
vt 0.598643 0.673872
vt 0.373643 0.687500
vt 0.371522 0.680686
vt 0.386143 0.687500
vt 0.373643 0.673872
vt 0.398643 0.687500
vt 0.386143 0.673872
vt 0.411143 0.687500
vt 0.398643 0.673872
vt 0.423643 0.687500
vt 0.411143 0.673872
vt 0.436143 0.687500
vt 0.423643 0.673872
vt 0.448643 0.687500
vt 0.436143 0.673872
vt 0.461143 0.687500
vt 0.448643 0.673872
vt 0.473643 0.687500
vt 0.461143 0.673872
vt 0.486143 0.687500
vt 0.473643 0.673872
vt 0.498643 0.687500
vt 0.486143 0.673872
vt 0.511143 0.687500
vt 0.498643 0.673872
vt 0.523643 0.687500
vt 0.511143 0.673872
vt 0.536143 0.687500
vt 0.523643 0.673872
vt 0.548643 0.687500
vt 0.536143 0.673872
vt 0.561143 0.687500
vt 0.548643 0.673872
vt 0.573643 0.687500
vt 0.561143 0.673872
vt 0.586143 0.687500
vt 0.573643 0.673872
vt 0.586143 0.673872
vt 0.598643 0.687500
vt 0.626409 0.248092
vt 0.648603 0.204534
vt 0.591841 0.282659
vt 0.626409 0.248091
vt 0.548285 0.304852
vt 0.591841 0.282659
vt 0.500000 0.312500
vt 0.548284 0.304852
vt 0.451716 0.304852
vt 0.500000 0.312500
vt 0.408159 0.282659
vt 0.451716 0.304852
vt 0.373591 0.248092
vt 0.408159 0.282659
vt 0.351398 0.204534
vt 0.373591 0.248091
vt 0.343750 0.156250
vt 0.351397 0.204534
vt 0.351397 0.107966
vt 0.343750 0.156250
vt 0.373591 0.064408
vt 0.351397 0.107966
vt 0.408159 0.029841
vt 0.373591 0.064409
vt 0.451715 0.007648
vt 0.408159 0.029841
vt 0.500000 -0.000000
vt 0.451716 0.007648
vt 0.548284 0.007648
vt 0.500000 -0.000000
vt 0.591841 0.029841
vt 0.548284 0.007647
vt 0.626409 0.064408
vt 0.591842 0.029841
vt 0.648603 0.107966
vt 0.626409 0.064409
vt 0.656250 0.156250
vt 0.648603 0.107966
vt 0.648603 0.204534
vt 0.656250 0.156250
vt 0.626409 0.248091
vt 0.591841 0.282659
vt 0.548284 0.304853
vt 0.500000 0.312500
vt 0.451716 0.304853
vt 0.408159 0.282659
vt 0.373591 0.248091
vt 0.351397 0.204534
vt 0.343750 0.156250
vt 0.351397 0.107966
vt 0.373591 0.064409
vt 0.408159 0.029841
vt 0.451716 0.007647
vt 0.500000 -0.000000
vt 0.548284 0.007647
vt 0.591842 0.029841
vt 0.626409 0.064408
vt 0.648603 0.107966
vt 0.656250 0.156250
vt 0.648603 0.204534
vt 0.626409 0.248091
vt 0.648603 0.204534
vt 0.591842 0.282659
vt 0.548284 0.304853
vt 0.500000 0.312500
vt 0.451716 0.304853
vt 0.408159 0.282659
vt 0.373591 0.248091
vt 0.351397 0.204534
vt 0.343750 0.156250
vt 0.351397 0.107966
vt 0.373591 0.064409
vt 0.408158 0.029841
vt 0.451716 0.007647
vt 0.500000 -0.000000
vt 0.548284 0.007647
vt 0.591842 0.029841
vt 0.626409 0.064408
vt 0.648603 0.107966
vt 0.656250 0.156250
vt 0.548284 0.304852
vt 0.500000 0.312500
vt 0.451716 0.304852
vt 0.408159 0.282659
vt 0.373591 0.248091
vt 0.351397 0.204534
vt 0.343750 0.156250
vt 0.351397 0.107966
vt 0.373591 0.064409
vt 0.408159 0.029841
vt 0.451716 0.007648
vt 0.500000 -0.000000
vt 0.548284 0.007647
vt 0.591842 0.029841
vt 0.626409 0.064409
vt 0.648603 0.107966
vt 0.656250 0.156250
vt 0.648603 0.204534
vt 0.626409 0.248091
vt 0.591841 0.282659
vt 0.625000 0.499561
vt 0.608290 0.668830
vt 0.373943 0.668830
vt 0.383268 0.668822
vt 0.595790 0.668830
vt 0.395768 0.668821
vt 0.408268 0.668821
vt 0.420790 0.668829
vt 0.433290 0.668830
vt 0.445790 0.668830
vt 0.458290 0.668830
vt 0.470790 0.668830
vt 0.483290 0.668830
vt 0.495790 0.668830
vt 0.508290 0.668830
vt 0.520790 0.668830
vt 0.533290 0.668830
vt 0.545790 0.668830
vt 0.558290 0.668830
vt 0.570790 0.668830
vt 0.583290 0.668830
vt 0.375000 0.312500
vt 0.387500 0.312500
vt 0.375000 0.499560
vt 0.400000 0.312500
vt 0.387500 0.499420
vt 0.412500 0.312500
vt 0.400000 0.499425
vt 0.425000 0.312500
vt 0.412500 0.499425
vt 0.437500 0.312500
vt 0.425000 0.499566
vt 0.450000 0.312500
vt 0.437500 0.499563
vt 0.462500 0.312500
vt 0.450000 0.499563
vt 0.475000 0.312500
vt 0.462500 0.499563
vt 0.487500 0.312500
vt 0.475000 0.499563
vt 0.500000 0.312500
vt 0.487500 0.499563
vt 0.512500 0.312500
vt 0.500000 0.499563
vt 0.525000 0.312500
vt 0.512500 0.499563
vt 0.537500 0.312500
vt 0.525000 0.499563
vt 0.550000 0.312500
vt 0.537500 0.499563
vt 0.562500 0.312500
vt 0.550000 0.499563
vt 0.575000 0.312500
vt 0.562500 0.499563
vt 0.587500 0.312500
vt 0.575000 0.499563
vt 0.600000 0.312500
vt 0.587500 0.499563
vt 0.612500 0.312500
vt 0.600000 0.499564
vt 0.625000 0.312500
vt 0.612500 0.499563
vt 0.380188 0.665415
vt 0.372885 0.687500
vt 0.389519 0.662008
vt 0.379036 0.687500
vt 0.402019 0.662008
vt 0.391535 0.687500
vt 0.414544 0.662019
vt 0.404035 0.687500
vt 0.427044 0.662020
vt 0.416574 0.687500
vt 0.439544 0.662020
vt 0.429074 0.687500
vt 0.452044 0.662020
vt 0.441575 0.687500
vt 0.464544 0.662020
vt 0.454075 0.687500
vt 0.477044 0.662020
vt 0.466574 0.687500
vt 0.489544 0.662020
vt 0.479074 0.687500
vt 0.502044 0.662020
vt 0.491575 0.687500
vt 0.514544 0.662020
vt 0.504075 0.687500
vt 0.527044 0.662020
vt 0.516574 0.687500
vt 0.539544 0.662020
vt 0.529074 0.687500
vt 0.552044 0.662020
vt 0.541574 0.687500
vt 0.564544 0.662020
vt 0.554074 0.687500
vt 0.577044 0.662020
vt 0.566574 0.687500
vt 0.589544 0.662020
vt 0.579074 0.687500
vt 0.602044 0.662020
vt 0.591574 0.687500
vt 0.614544 0.662020
vt 0.604074 0.687500
vn 0.283797 0.954400 -0.092630
vn 0.241877 0.954167 -0.176241
vn 0.176203 0.976000 -0.127974
vn 0.207155 0.975994 -0.067256
vn 0.176088 0.954071 -0.242367
vn 0.127998 0.976002 -0.176175
vn 0.092863 0.954167 -0.284503
vn 0.067249 0.976000 -0.207127
vn 0.000407 0.954399 -0.298533
vn -0.000039 0.975993 -0.217803
vn -0.092156 0.954496 -0.283627
vn -0.067306 0.975993 -0.207143
vn -0.175289 0.954496 -0.241271
vn -0.128019 0.975992 -0.176211
vn -0.241266 0.954496 -0.175294
vn -0.176205 0.975992 -0.128029
vn -0.283630 0.954497 -0.092144
vn -0.207151 0.975992 -0.067288
vn -0.298221 0.954497 -0.000001
vn -0.217809 0.975991 -0.000003
vn -0.283630 0.954496 0.092144
vn -0.207153 0.975992 0.067288
vn -0.241274 0.954495 0.175289
vn -0.176216 0.975991 0.128022
vn -0.175288 0.954496 0.241269
vn -0.128019 0.975992 0.176210
vn -0.092142 0.954496 0.283632
vn -0.067284 0.975993 0.207151
vn 0.000001 0.954496 0.298224
vn 0.000002 0.975992 0.217807
vn 0.092141 0.954496 0.283632
vn 0.067282 0.975993 0.207151
vn 0.175282 0.954496 0.241273
vn 0.128011 0.975993 0.176213
vn 0.241271 0.954496 0.175287
vn 0.176211 0.975992 0.128019
vn 0.283633 0.954496 0.092140
vn 0.207154 0.975992 0.067286
vn 0.298224 0.954496 0.000002
vn 0.217814 0.975990 0.000001
vn 0.548119 0.816653 -0.180676
vn 0.401328 0.906297 -0.132522
vn 0.421544 0.906808 -0.000000
vn 0.577365 0.816486 -0.000002
vn 0.343235 0.904844 -0.251887
vn 0.465898 0.816261 -0.341550
vn 0.250885 0.904329 -0.345320
vn 0.339404 0.816436 -0.467159
vn 0.133489 0.904843 -0.404277
vn 0.180856 0.816263 -0.548640
vn 0.002029 0.906297 -0.422637
vn 0.002465 0.816653 -0.577124
vn -0.130262 0.906809 -0.400910
vn -0.178416 0.816485 -0.549109
vn -0.247775 0.906808 -0.341037
vn -0.339366 0.816484 -0.467102
vn -0.341032 0.906809 -0.247779
vn -0.467094 0.816485 -0.339376
vn -0.400911 0.906810 -0.130255
vn -0.549111 0.816486 -0.178405
vn -0.421544 0.906808 0.000001
vn -0.577367 0.816485 0.000001
vn -0.400913 0.906809 0.130256
vn -0.549111 0.816485 0.178409
vn -0.341039 0.906807 0.247777
vn -0.467098 0.816483 0.339375
vn -0.247775 0.906808 0.341038
vn -0.339369 0.816483 0.467102
vn -0.130257 0.906809 0.400913
vn -0.178415 0.816485 0.549109
vn 0.000000 0.906809 0.421541
vn 0.000000 0.816485 0.577367
vn 0.130257 0.906808 0.400913
vn 0.178415 0.816484 0.549109
vn 0.247773 0.906807 0.341043
vn 0.339366 0.816483 0.467105
vn 0.341037 0.906808 0.247779
vn 0.467096 0.816483 0.339377
vn 0.400913 0.906810 0.130251
vn 0.549110 0.816486 0.178406
vn 0.949071 -0.064588 0.308370
vn 0.807326 -0.064588 0.586561
vn 0.778917 -0.270230 0.565919
vn 0.915674 -0.270231 0.297517
vn 0.586558 -0.064588 0.807328
vn 0.565917 -0.270231 0.778918
vn 0.308372 -0.064588 0.949071
vn 0.297521 -0.270231 0.915673
vn -0.000000 -0.064588 0.997912
vn 0.000000 -0.270231 0.962796
vn -0.308372 -0.064588 0.949071
vn -0.297521 -0.270231 0.915673
vn -0.586558 -0.064588 0.807328
vn -0.565917 -0.270231 0.778918
vn -0.807326 -0.064588 0.586561
vn -0.778917 -0.270230 0.565919
vn -0.949071 -0.064588 0.308371
vn -0.915674 -0.270231 0.297517
vn -0.997912 -0.064588 0.000000
vn -0.962795 -0.270232 0.000000
vn -0.949071 -0.064588 -0.308370
vn -0.915674 -0.270231 -0.297517
vn -0.807327 -0.064588 -0.586560
vn -0.778917 -0.270231 -0.565918
vn -0.586558 -0.064588 -0.807328
vn -0.565917 -0.270231 -0.778918
vn -0.308372 -0.064589 -0.949071
vn -0.297521 -0.270231 -0.915673
vn -0.000012 -0.064598 -0.997911
vn -0.000001 -0.270231 -0.962795
vn 0.308360 -0.064617 -0.949073
vn 0.297520 -0.270231 -0.915673
vn 0.586555 -0.064627 -0.807327
vn 0.565917 -0.270231 -0.778918
vn 0.807332 -0.064618 -0.586549
vn 0.778917 -0.270231 -0.565918
vn 0.949074 -0.064598 -0.308358
vn 0.915674 -0.270231 -0.297517
vn 0.997912 -0.064588 0.000000
vn 0.962795 -0.270232 0.000000
vn 0.685428 -0.531214 0.497997
vn 0.805774 -0.531211 0.261806
vn 0.833840 -0.480948 0.270925
vn 0.709304 -0.480948 0.515341
vn 0.497997 -0.531211 0.685430
vn 0.515340 -0.480947 0.709306
vn 0.847240 -0.531211 -0.000000
vn 0.876749 -0.480949 -0.000000
vn 0.261815 -0.531212 0.805771
vn 0.270931 -0.480947 0.833838
vn 0.000000 -0.531209 0.847241
vn 0.000000 -0.480947 0.876750
vn -0.261815 -0.531212 0.805771
vn -0.270931 -0.480947 0.833838
vn -0.497997 -0.531211 0.685430
vn -0.515340 -0.480947 0.709306
vn -0.685428 -0.531214 0.497997
vn -0.709304 -0.480948 0.515341
vn -0.805775 -0.531211 0.261806
vn -0.833840 -0.480949 0.270925
vn -0.847240 -0.531211 0.000000
vn -0.876749 -0.480949 0.000000
vn -0.805775 -0.531211 -0.261806
vn -0.833840 -0.480948 -0.270925
vn -0.685428 -0.531214 -0.497996
vn -0.709305 -0.480948 -0.515341
vn -0.497997 -0.531211 -0.685429
vn -0.515340 -0.480947 -0.709306
vn -0.261814 -0.531212 -0.805771
vn -0.270931 -0.480946 -0.833839
vn 0.000000 -0.531209 -0.847241
vn -0.000000 -0.480946 -0.876750
vn 0.261814 -0.531212 -0.805771
vn 0.270931 -0.480947 -0.833839
vn 0.497996 -0.531212 -0.685430
vn 0.515340 -0.480947 -0.709306
vn 0.685428 -0.531214 -0.497996
vn 0.709305 -0.480948 -0.515341
vn 0.805775 -0.531211 -0.261806
vn 0.833840 -0.480948 -0.270925
vn -0.000003 1.000000 -0.000001
vn -0.000003 1.000000 -0.000001
vn -0.000003 1.000000 -0.000001
vn -0.000003 1.000000 -0.000001
vn -0.000003 1.000000 -0.000001
vn -0.000003 1.000000 -0.000001
vn -0.000003 1.000000 -0.000001
vn -0.000003 1.000000 -0.000001
vn -0.000003 1.000000 -0.000001
vn -0.000003 1.000000 -0.000001
vn -0.000003 1.000000 -0.000001
vn -0.000003 1.000000 -0.000001
vn -0.000003 1.000000 -0.000001
vn -0.000003 1.000000 -0.000001
vn -0.000003 1.000000 -0.000001
vn -0.000003 1.000000 -0.000001
vn -0.000003 1.000000 -0.000001
vn -0.000003 1.000000 -0.000001
vn -0.000003 1.000000 -0.000001
vn -0.000003 1.000000 -0.000001
vn -0.000000 -1.000000 -0.000000
vn -0.000000 -1.000000 -0.000000
vn -0.000000 -1.000000 -0.000000
vn -0.000000 -1.000000 -0.000000
vn -0.000000 -1.000000 -0.000000
vn -0.000000 -1.000000 -0.000000
vn -0.000000 -1.000000 -0.000000
vn -0.000000 -1.000000 -0.000000
vn -0.000000 -1.000000 -0.000000
vn -0.000000 -1.000000 -0.000000
vn -0.000000 -1.000000 -0.000000
vn -0.000000 -1.000000 -0.000000
vn -0.000000 -1.000000 -0.000000
vn -0.000000 -1.000000 -0.000000
vn -0.000000 -1.000000 -0.000000
vn -0.000000 -1.000000 -0.000000
vn -0.000000 -1.000000 -0.000000
vn -0.000000 -1.000000 -0.000000
vn -0.000000 -1.000000 -0.000000
vn -0.000000 -1.000000 -0.000000
vn 0.793016 -0.197872 0.576170
vn 0.932254 -0.197872 0.302903
vn 0.576170 -0.197874 0.793016
vn 0.302911 -0.197878 0.932250
vn 0.000000 -0.197878 0.980227
vn -0.302911 -0.197878 0.932250
vn -0.576170 -0.197874 0.793016
vn -0.793017 -0.197872 0.576170
vn -0.932254 -0.197872 0.302903
vn -0.980228 -0.197874 0.000000
vn -0.932254 -0.197872 -0.302903
vn -0.793017 -0.197873 -0.576169
vn -0.576170 -0.197876 -0.793015
vn -0.302910 -0.197879 -0.932250
vn 0.000000 -0.197879 -0.980227
vn 0.302909 -0.197879 -0.932250
vn 0.576170 -0.197875 -0.793016
vn 0.793017 -0.197872 -0.576169
vn 0.932254 -0.197872 -0.302903
vn 0.980228 -0.197873 -0.000000
vn 0.000000 1.000000 0.000000
vn 0.000000 0.000000 0.000000
vn 0.000000 0.000000 0.000000
vn 0.000000 1.000000 0.000000
vn 0.000000 0.000000 0.000000
vn 0.000000 0.000000 0.000000
vn 0.000000 0.000000 0.000000
vn 0.000000 0.000000 0.000000
vn 0.000000 0.000000 0.000000
vn 0.000000 1.000000 0.000000
vn 0.000000 1.000000 0.000000
vn 0.000000 0.000000 0.000000
vn -0.000001 1.000000 0.000000
vn -0.000000 0.000000 0.000000
vn -0.000000 0.000000 0.000000
vn -0.000001 1.000000 0.000000
vn 0.000000 0.000000 0.000000
vn 0.000000 1.000000 0.000000
vn 0.000000 1.000000 0.000000
vn 0.000000 0.000000 0.000000
vn 0.000000 0.000000 0.000000
vn 0.000000 0.000000 0.000000
vn 0.000000 0.000000 0.000000
vn 0.000000 0.000000 0.000000
vn 0.000000 0.000000 0.000000
vn 0.000000 0.000000 0.000000
vn 0.000000 0.000000 0.000000
vn 0.000000 0.000000 0.000000
vn 0.000001 1.000000 0.000000
vn 0.000001 1.000000 0.000000
vn 0.000001 1.000000 0.000000
vn 0.000001 1.000000 0.000000
vn -0.000001 1.000000 0.000000
vn -0.000001 1.000000 0.000000
vn -0.000001 1.000000 0.000000
vn -0.000001 1.000000 0.000000
vn -0.000001 -1.000000 0.000000
vn -0.000001 -1.000000 0.000000
vn -0.000001 -1.000000 0.000000
vn -0.000001 -1.000000 0.000000
vn 0.000000 -1.000000 0.000000
vn 0.000000 -1.000000 0.000000
vn 0.000000 -1.000000 0.000000
vn 0.000000 -1.000000 0.000000
vn 0.000000 -1.000000 0.000000
vn 0.000000 -0.000000 0.000000
vn 0.000000 -0.000000 0.000000
vn 0.000000 -1.000000 0.000000
vn 0.000000 -0.000000 0.000000
vn 0.000000 -1.000000 0.000000
vn 0.000000 -1.000000 0.000000
vn 0.000000 -0.000000 0.000000
vn 0.000000 -1.000000 0.000000
vn 0.000000 -1.000000 0.000000
vn 0.000000 -1.000000 0.000000
vn 0.000000 -1.000000 0.000000
vn 0.000000 1.000000 0.000000
vn 0.000000 1.000000 0.000000
vn 0.000000 1.000000 0.000000
vn 0.000000 1.000000 0.000000
vn -0.000000 0.000000 0.000000
vn -0.000000 0.000000 0.000000
vn -0.000000 0.000000 0.000000
vn -0.000000 0.000000 0.000000
vn 0.000000 -0.000000 0.000000
vn 0.000000 -0.000000 0.000000
vn 0.000000 -0.000000 0.000000
vn 0.000000 -0.000000 0.000000
vn -0.000002 1.000000 0.000000
vn -0.000002 1.000000 0.000000
vn -0.000002 1.000000 0.000000
vn -0.000002 1.000000 0.000000
vn -0.000001 -1.000000 0.000000
vn -0.000001 -1.000000 0.000000
vn -0.000001 -1.000000 0.000000
vn -0.000001 -1.000000 0.000000
vn 0.000002 -1.000000 0.000000
vn 0.000002 -1.000000 0.000000
vn 0.000002 -1.000000 0.000000
vn 0.000002 -1.000000 0.000000
vn 0.907281 0.299547 -0.295150
vn 0.749512 0.615074 -0.244777
vn 0.788785 0.614670 -0.000001
vn 0.954163 0.299289 -0.000000
vn 0.771630 0.299698 -0.561042
vn 0.636956 0.615440 -0.464242
vn 0.750179 0.614671 0.243743
vn 0.907463 0.299289 0.294851
vn 0.560721 0.299960 -0.771762
vn 0.463098 0.615849 -0.637393
vn 0.295137 0.299697 -0.907235
vn 0.244690 0.615445 -0.749236
vn 0.000338 0.299545 -0.954082
vn 0.001181 0.615079 -0.788465
vn -0.294857 0.299287 -0.907462
vn -0.243754 0.614674 -0.750173
vn -0.560843 0.299291 -0.771933
vn -0.463634 0.614671 -0.638140
vn -0.771931 0.299290 -0.560846
vn -0.638136 0.614670 -0.463641
vn -0.907463 0.299289 -0.294850
vn -0.750180 0.614671 -0.243741
vn -0.954162 0.299290 0.000000
vn -0.788784 0.614671 0.000001
vn -0.907463 0.299291 0.294851
vn -0.750179 0.614671 0.243744
vn -0.771930 0.299292 0.560846
vn -0.638135 0.614671 0.463641
vn -0.560843 0.299291 0.771933
vn -0.463635 0.614672 0.638139
vn -0.294853 0.299290 0.907462
vn -0.243748 0.614671 0.750178
vn -0.000000 0.299291 0.954162
vn 0.000000 0.614671 0.788784
vn 0.294853 0.299291 0.907462
vn 0.243748 0.614671 0.750178
vn 0.560842 0.299290 0.771933
vn 0.463634 0.614671 0.638140
vn 0.771930 0.299290 0.560847
vn 0.638136 0.614670 0.463642
s 1
g LightBulb
usemtl initialShadingGroup
f 219/313/577 222/251/578 198/252/579 197/253/580
f 222/315/578 225/254/581 199/255/582 198/256/579
f 225/317/581 228/257/583 200/258/584 199/259/582
f 228/319/583 231/260/585 201/261/586 200/262/584
f 231/321/585 234/263/587 202/264/588 201/265/586
f 234/323/587 237/266/589 203/267/590 202/268/588
f 237/325/589 240/269/591 204/270/592 203/271/590
f 240/327/591 243/272/593 205/273/594 204/274/592
f 243/329/593 246/275/595 206/276/596 205/277/594
f 246/331/595 249/278/597 207/279/598 206/280/596
f 249/333/597 252/281/599 208/282/600 207/283/598
f 252/335/599 255/284/601 209/285/602 208/286/600
f 255/337/601 258/287/603 210/288/604 209/289/602
f 258/339/603 261/290/605 211/291/606 210/292/604
f 261/341/605 264/293/607 212/294/608 211/295/606
f 264/343/607 267/296/609 213/297/610 212/298/608
f 267/345/609 270/299/611 214/300/612 213/301/610
f 270/347/611 273/302/613 215/303/614 214/304/612
f 273/349/613 276/305/615 216/306/616 215/307/614
f 276/312/615 219/308/577 197/309/580 216/310/616
f 217/311/617 218/352/618 275/390/619 274/592/620
f 218/352/618 219/308/577 276/312/615 275/390/619
f 219/313/577 218/351/618 221/354/621 222/251/578
f 218/351/618 217/554/617 220/314/622 221/354/621
f 222/315/578 221/353/621 224/356/623 225/254/581
f 221/353/621 220/556/622 223/316/624 224/356/623
f 225/317/581 224/355/623 227/358/625 228/257/583
f 224/355/623 223/558/624 226/318/626 227/358/625
f 228/319/583 227/357/625 230/360/627 231/260/585
f 227/357/625 226/560/626 229/320/628 230/360/627
f 231/321/585 230/359/627 233/362/629 234/263/587
f 230/359/627 229/562/628 232/322/630 233/362/629
f 234/323/587 233/361/629 236/364/631 237/266/589
f 233/361/629 232/564/630 235/324/632 236/364/631
f 237/325/589 236/363/631 239/366/633 240/269/591
f 236/363/631 235/566/632 238/326/634 239/366/633
f 240/327/591 239/365/633 242/368/635 243/272/593
f 239/365/633 238/568/634 241/328/636 242/368/635
f 243/329/593 242/367/635 245/370/637 246/275/595
f 242/367/635 241/570/636 244/330/638 245/370/637
f 246/331/595 245/369/637 248/372/639 249/278/597
f 245/369/637 244/572/638 247/332/640 248/372/639
f 249/333/597 248/371/639 251/374/641 252/281/599
f 248/371/639 247/574/640 250/334/642 251/374/641
f 252/335/599 251/373/641 254/376/643 255/284/601
f 251/373/641 250/576/642 253/336/644 254/376/643
f 255/337/601 254/375/643 257/378/645 258/287/603
f 254/375/643 253/578/644 256/338/646 257/378/645
f 258/339/603 257/377/645 260/380/647 261/290/605
f 257/377/645 256/580/646 259/340/648 260/380/647
f 261/341/605 260/379/647 263/382/649 264/293/607
f 260/379/647 259/582/648 262/342/650 263/382/649
f 264/343/607 263/381/649 266/384/651 267/296/609
f 263/381/649 262/584/650 265/344/652 266/384/651
f 267/345/609 266/383/651 269/386/653 270/299/611
f 266/383/651 265/586/652 268/346/654 269/386/653
f 270/347/611 269/385/653 272/388/655 273/302/613
f 269/385/653 268/588/654 271/348/656 272/388/655
f 273/349/613 272/387/655 275/389/619 276/305/615
f 272/387/655 271/590/656 274/350/620 275/389/619
f 195/249/657 194/248/658 277/431/659 278/450/660
f 194/248/658 193/247/661 279/432/662 277/431/659
f 193/247/661 192/246/663 280/433/664 279/432/662
f 192/246/663 191/245/665 281/434/666 280/433/664
f 191/245/665 190/244/667 282/435/668 281/434/666
f 190/244/667 189/243/669 283/436/670 282/435/668
f 189/243/669 188/242/671 284/437/672 283/436/670
f 188/242/671 187/241/673 285/438/674 284/437/672
f 187/241/673 186/240/675 286/439/676 285/438/674
f 186/240/675 185/239/677 287/440/678 286/439/676
f 185/239/677 184/238/679 288/441/680 287/440/678
f 184/238/679 183/237/681 289/442/682 288/441/680
f 183/237/681 182/236/683 290/443/684 289/442/682
f 182/236/683 181/235/685 291/444/686 290/443/684
f 181/235/685 180/234/687 292/445/688 291/444/686
f 180/234/687 179/233/689 293/446/690 292/445/688
f 179/233/689 178/232/691 294/447/692 293/446/690
f 178/232/691 177/231/693 295/448/694 294/447/692
f 177/231/693 196/250/695 296/449/696 295/448/694
f 196/250/695 195/249/657 278/450/660 296/449/696
f 297/391/697 298/429/698 338/452/699 337/451/700
f 299/393/701 297/391/697 337/451/700 339/453/702
f 298/429/698 316/427/703 356/470/704 338/452/699
f 300/395/705 299/393/701 339/453/702 340/454/706
f 301/397/707 300/395/705 340/454/706 341/455/708
f 302/399/709 301/397/707 341/455/708 342/456/710
f 303/401/711 302/399/709 342/456/710 343/457/712
f 304/403/713 303/401/711 343/457/712 344/458/714
f 305/405/715 304/403/713 344/458/714 345/459/716
f 306/407/717 305/405/715 345/459/716 346/460/718
f 307/409/719 306/407/717 346/460/718 347/461/720
f 308/411/721 307/409/719 347/461/720 348/462/722
f 309/413/723 308/411/721 348/462/722 349/463/724
f 310/415/725 309/413/723 349/463/724 350/464/726
f 311/417/727 310/415/725 350/464/726 351/465/728
f 312/419/729 311/417/727 351/465/728 352/466/730
f 313/421/731 312/419/729 352/466/730 353/467/732
f 314/423/733 313/421/731 353/467/732 354/468/734
f 315/425/735 314/423/733 354/468/734 355/469/736
f 316/427/703 315/425/735 355/469/736 356/470/704
s off
f 197/253/737 198/256/738 199/259/739 200/262/740 201/265/741 202/268/742 203/271/743 204/274/744 205/277/745 206/280/746 207/283/747 208/286/748 209/289/749 210/292/750 211/295/751 212/298/752 213/301/753 214/304/754 215/307/755 216/310/756
f 357/471/757 358/472/758 359/473/759 360/474/760 361/475/761 362/476/762 363/477/763 364/478/764 365/479/765 366/480/766 367/481/767 368/482/768 369/483/769 370/484/770 371/485/771 372/486/772 373/487/773 374/488/774 375/489/775 376/490/776
s 1
f 298/429/698 297/391/697 317/394/777 318/392/778
f 297/391/697 299/393/701 319/396/779 317/394/777
f 299/393/701 300/395/705 320/398/780 319/396/779
f 300/395/705 301/397/707 321/400/781 320/398/780
f 301/397/707 302/399/709 322/402/782 321/400/781
f 302/399/709 303/401/711 323/404/783 322/402/782
f 303/401/711 304/403/713 324/406/784 323/404/783
f 304/403/713 305/405/715 325/408/785 324/406/784
f 305/405/715 306/407/717 326/410/786 325/408/785
f 306/407/717 307/409/719 327/412/787 326/410/786
f 307/409/719 308/411/721 328/414/788 327/412/787
f 308/411/721 309/413/723 329/416/789 328/414/788
f 309/413/723 310/415/725 330/418/790 329/416/789
f 310/415/725 311/417/727 331/420/791 330/418/790
f 311/417/727 312/419/729 332/422/792 331/420/791
f 312/419/729 313/421/731 333/424/793 332/422/792
f 313/421/731 314/423/733 334/426/794 333/424/793
f 314/423/733 315/425/735 335/428/795 334/426/794
f 315/425/735 316/427/703 336/430/796 335/428/795
f 316/427/703 298/429/698 318/392/778 336/430/796
f 337/451/700 338/452/699 278/450/660 277/431/659
f 338/452/699 356/470/704 296/449/696 278/450/660
f 339/453/702 337/451/700 277/431/659 279/432/662
f 340/454/706 339/453/702 279/432/662 280/433/664
f 341/455/708 340/454/706 280/433/664 281/434/666
f 342/456/710 341/455/708 281/434/666 282/435/668
f 343/457/712 342/456/710 282/435/668 283/436/670
f 344/458/714 343/457/712 283/436/670 284/437/672
f 345/459/716 344/458/714 284/437/672 285/438/674
f 346/460/718 345/459/716 285/438/674 286/439/676
f 347/461/720 346/460/718 286/439/676 287/440/678
f 348/462/722 347/461/720 287/440/678 288/441/680
f 349/463/724 348/462/722 288/441/680 289/442/682
f 350/464/726 349/463/724 289/442/682 290/443/684
f 351/465/728 350/464/726 290/443/684 291/444/686
f 352/466/730 351/465/728 291/444/686 292/445/688
f 353/467/732 352/466/730 292/445/688 293/446/690
f 354/468/734 353/467/732 293/446/690 294/447/692
f 355/469/736 354/468/734 294/447/692 295/448/694
f 356/470/704 355/469/736 295/448/694 296/449/696
s off
f 320/398/797 321/400/798 358/472/799 357/471/800
f 321/400/801 322/402/802 359/473/803 358/472/804
f 322/402/805 323/404/806 360/474/807 359/473/808
f 323/404/809 324/406/810 361/475/811 360/474/812
f 324/406/813 325/408/814 362/476/815 361/475/816
f 325/408/817 326/410/818 363/477/819 362/476/820
f 326/410/821 327/412/822 364/478/823 363/477/824
f 327/412/825 328/414/826 365/479/827 364/478/828
f 328/414/829 329/416/830 366/480/831 365/479/832
f 329/416/833 330/418/834 367/481/835 366/480/836
f 330/418/837 331/420/838 368/482/839 367/481/840
f 331/420/841 332/422/842 369/483/843 368/482/844
f 332/422/845 333/424/846 370/484/847 369/483/848
f 333/424/849 334/426/850 371/485/851 370/484/852
f 334/426/853 335/428/854 372/486/855 371/485/856
f 335/428/857 336/430/858 373/487/859 372/486/860
f 336/430/861 318/392/862 374/488/863 373/487/864
f 318/392/865 317/394/866 375/489/867 374/488/868
f 317/394/869 319/396/870 376/490/871 375/489/872
f 319/396/873 320/398/874 357/471/875 376/490/876
s 1
f 377/491/877 378/591/878 380/492/879 379/552/880
f 378/493/878 377/514/877 381/516/881 382/494/882
f 379/552/880 380/589/879 416/495/883 415/550/884
f 382/494/882 381/516/881 383/518/885 384/555/886
f 384/496/886 383/518/885 385/520/887 386/557/888
f 386/497/888 385/520/887 387/522/889 388/559/890
f 388/498/890 387/522/889 389/524/891 390/561/892
f 390/499/892 389/524/891 391/526/893 392/500/894
f 392/500/894 391/526/893 393/528/895 394/565/896
f 394/501/896 393/528/895 395/530/897 396/567/898
f 396/502/898 395/530/897 397/532/899 398/503/900
f 398/503/900 397/532/899 399/534/901 400/504/902
f 400/504/902 399/534/901 401/536/903 402/505/904
f 402/505/904 401/536/903 403/538/905 404/575/906
f 404/506/906 403/538/905 405/540/907 406/507/908
f 406/507/908 405/540/907 407/542/909 408/508/910
f 408/508/910 407/542/909 409/544/911 410/581/912
f 410/509/912 409/544/911 411/546/913 412/510/914
f 412/510/914 411/546/913 413/548/915 414/585/916
f 414/511/916 413/548/915 415/550/884 416/587/883
f 177/512/693 178/513/691 381/516/881 377/514/877
f 178/513/691 179/515/689 383/518/885 381/516/881
f 179/515/689 180/517/687 385/520/887 383/518/885
f 180/517/687 181/519/685 387/522/889 385/520/887
f 181/519/685 182/521/683 389/524/891 387/522/889
f 182/521/683 183/523/681 391/526/893 389/524/891
f 183/523/681 184/525/679 393/528/895 391/526/893
f 184/525/679 185/527/677 395/530/897 393/528/895
f 185/527/677 186/529/675 397/532/899 395/530/897
f 186/529/675 187/531/673 399/534/901 397/532/899
f 187/531/673 188/533/671 401/536/903 399/534/901
f 188/533/671 189/535/669 403/538/905 401/536/903
f 189/535/669 190/537/667 405/540/907 403/538/905
f 190/537/667 191/539/665 407/542/909 405/540/907
f 191/539/665 192/541/663 409/544/911 407/542/909
f 192/541/663 193/543/661 411/546/913 409/544/911
f 193/543/661 194/545/658 413/548/915 411/546/913
f 194/545/658 195/547/657 415/550/884 413/548/915
f 195/547/657 196/549/695 379/552/880 415/550/884
f 196/549/695 177/551/693 377/491/877 379/552/880
f 382/553/882 220/314/622 217/554/617 378/493/878
f 384/555/886 223/316/624 220/556/622 382/494/882
f 386/557/888 226/318/626 223/558/624 384/496/886
f 388/559/890 229/320/628 226/560/626 386/497/888
f 390/561/892 232/322/630 229/562/628 388/498/890
f 392/563/894 235/324/632 232/564/630 390/499/892
f 394/565/896 238/326/634 235/566/632 392/500/894
f 396/567/898 241/328/636 238/568/634 394/501/896
f 398/569/900 244/330/638 241/570/636 396/502/898
f 400/571/902 247/332/640 244/572/638 398/503/900
f 402/573/904 250/334/642 247/574/640 400/504/902
f 404/575/906 253/336/644 250/576/642 402/505/904
f 406/577/908 256/338/646 253/578/644 404/506/906
f 408/579/910 259/340/648 256/580/646 406/507/908
f 410/581/912 262/342/650 259/582/648 408/508/910
f 412/583/914 265/344/652 262/584/650 410/509/912
f 414/585/916 268/346/654 265/586/652 412/510/914
f 416/587/883 271/348/656 268/588/654 414/511/916
f 380/589/879 274/350/620 271/590/656 416/495/883
f 378/591/878 217/311/617 274/592/620 380/492/879
