# This file uses centimeters as units for non-parametric coordinates.

mtllib Open_Book.mtl
g default
v 3.531376 0.665501 -8.959300
v 3.779837 0.730356 -8.959300
v 3.779837 0.730356 -11.327580
v 3.531376 0.665501 -11.327580
v 4.545947 0.794409 -8.959300
v 4.806105 0.765762 -8.959300
v 4.806105 0.765762 -11.327580
v 4.545947 0.794409 -11.327580
v 4.290685 0.799559 -8.959300
v 4.290685 0.799559 -11.327580
v 4.034945 0.783148 -8.959300
v 4.034945 0.783148 -11.327580
v 5.123672 0.602335 -8.959300
v 4.982995 0.708638 -8.959300
v 5.123672 0.602335 -11.327580
v 4.982995 0.708638 -11.327580
v 5.211735 0.531452 -8.959300
v 5.211735 0.531452 -11.327580
v 6.892093 0.665501 -8.959300
v 6.643632 0.730356 -8.959300
v 6.643632 0.730356 -11.327580
v 6.892093 0.665501 -11.327580
v 5.877522 0.794409 -8.959300
v 5.617364 0.765762 -8.959300
v 5.617364 0.765762 -11.327580
v 5.877522 0.794409 -11.327580
v 6.132785 0.799559 -8.959300
v 6.132785 0.799559 -11.327580
v 6.388524 0.783148 -8.959300
v 6.388524 0.783148 -11.327580
v 5.299797 0.602335 -8.959300
v 5.440474 0.708638 -8.959300
v 5.299797 0.602335 -11.327580
v 5.440474 0.708638 -11.327580
v 5.211735 0.531452 -8.959300
v 5.211735 0.531452 -11.327580
vt 0.375000 0.250000
vt 0.388889 0.250000
vt 0.388889 0.500000
vt 0.375000 0.500000
vt 0.430556 0.250000
vt 0.444444 0.250000
vt 0.444444 0.500000
vt 0.430556 0.500000
vt 0.416667 0.250000
vt 0.416667 0.500000
vt 0.402778 0.250000
vt 0.402778 0.500000
vt 0.453345 0.250000
vt 0.472221 0.250000
vt 0.472221 0.500000
vt 0.453345 0.500000
vt 0.486072 0.250000
vt 0.486072 0.500000
vt 0.375000 0.250000
vt 0.388889 0.250000
vt 0.388889 0.500000
vt 0.375000 0.500000
vt 0.430556 0.250000
vt 0.444444 0.250000
vt 0.444444 0.500000
vt 0.430556 0.500000
vt 0.416667 0.250000
vt 0.416667 0.500000
vt 0.402778 0.250000
vt 0.402778 0.500000
vt 0.453345 0.250000
vt 0.472221 0.250000
vt 0.472221 0.500000
vt 0.453345 0.500000
vt 0.486072 0.250000
vt 0.486072 0.500000
vn -0.252564 0.967580 0.000000
vn -0.227500 0.973778 0.000000
vn -0.227500 0.973778 0.000000
vn -0.252564 0.967580 0.000000
vn 0.065431 0.997857 0.000000
vn 0.192576 0.981282 0.000000
vn 0.192576 0.981282 0.000000
vn 0.065431 0.997857 0.000000
vn -0.022032 0.999757 0.000000
vn -0.022032 0.999757 0.000000
vn -0.134241 0.990949 0.000000
vn -0.134241 0.990949 0.000000
vn 0.457585 0.889166 0.000000
vn 0.612384 0.790560 -0.000000
vn 0.612384 0.790560 -0.000000
vn 0.457585 0.889166 0.000000
vn 0.627025 0.778999 -0.000000
vn 0.627025 0.778999 -0.000000
vn 0.252564 0.967580 0.000000
vn 0.252564 0.967580 0.000000
vn 0.227500 0.973778 0.000000
vn 0.227500 0.973778 0.000000
vn -0.065431 0.997857 0.000000
vn -0.065431 0.997857 0.000000
vn -0.192576 0.981282 0.000000
vn -0.192576 0.981282 0.000000
vn 0.022032 0.999757 0.000000
vn 0.022032 0.999757 0.000000
vn 0.134241 0.990949 0.000000
vn 0.134241 0.990949 0.000000
vn -0.457586 0.889166 0.000000
vn -0.457586 0.889166 0.000000
vn -0.612384 0.790560 -0.000000
vn -0.612384 0.790560 -0.000000
vn -0.627025 0.778999 -0.000000
vn -0.627025 0.778999 -0.000000
s 1
g Hallway_Masters:Open_Book
usemtl initialShadingGroup
f 1/1/1 2/2/2 3/3/3 4/4/4
f 5/5/5 6/6/6 7/7/7 8/8/8
f 9/9/9 5/5/5 8/8/8 10/10/10
f 11/11/11 9/9/9 10/10/10 12/12/12
f 2/2/2 11/11/11 12/12/12 3/3/3
f 14/13/13 13/14/14 15/15/15 16/16/16
f 13/14/14 17/17/17 18/18/18 15/15/15
f 6/6/6 14/13/13 16/16/16 7/7/7
s 4
f 19/19/19 22/22/20 21/21/21 20/20/22
f 23/23/23 26/26/24 25/25/25 24/24/26
f 27/27/27 28/28/28 26/26/24 23/23/23
f 29/29/29 30/30/30 28/28/28 27/27/27
f 20/20/22 21/21/21 30/30/30 29/29/29
f 32/31/31 34/34/32 33/33/33 31/32/34
f 31/32/34 33/33/33 36/36/35 35/35/36
f 24/24/26 25/25/25 34/34/32 32/31/31
g default
v 3.501929 0.560355 -8.959300
v 3.493775 0.564144 -11.327580
v 4.747917 0.601449 -8.959300
v 4.747917 0.601449 -11.327580
v 4.494960 0.612298 -8.959300
v 4.494960 0.612298 -11.327580
v 4.244242 0.614183 -8.959300
v 4.244242 0.614183 -11.327580
v 3.992831 0.609761 -8.959300
v 3.992831 0.609761 -11.327580
v 3.742046 0.592866 -8.959300
v 3.742046 0.592866 -11.327580
v 3.485620 0.611174 -8.959300
v 3.742046 0.643784 -8.959300
v 3.742046 0.643784 -11.327580
v 3.493775 0.614963 -11.327580
v 4.747917 0.652175 -8.959300
v 4.747917 0.652175 -11.327580
v 4.494960 0.663680 -8.959300
v 4.494960 0.663680 -11.327580
v 4.244242 0.665645 -8.959300
v 4.244242 0.665645 -11.327580
v 3.992830 0.660994 -8.959300
v 3.992830 0.660994 -11.327580
v 6.926469 0.611174 -8.959300
v 6.670044 0.643784 -8.959300
v 6.670044 0.643784 -11.327580
v 6.918313 0.616362 -11.327580
v 5.664172 0.662561 -8.959300
v 5.664172 0.662561 -11.327580
v 5.917130 0.663680 -8.959300
v 5.917130 0.663680 -11.327580
v 6.167847 0.665645 -8.959300
v 6.167847 0.665645 -11.327580
v 6.419259 0.660994 -8.959300
v 6.419259 0.660994 -11.327580
v 6.910158 0.560355 -8.959300
v 6.918313 0.565543 -11.327580
v 6.670044 0.592866 -11.327580
v 6.670044 0.592866 -8.959300
v 5.664172 0.611835 -8.959300
v 5.664172 0.611835 -11.327580
v 5.917130 0.612298 -8.959300
v 5.917130 0.612298 -11.327580
v 6.167847 0.614183 -8.959300
v 6.167847 0.614183 -11.327580
v 6.419259 0.609761 -8.959300
v 6.419259 0.609761 -11.327580
v 4.910270 0.584341 -8.959300
v 5.057971 0.552390 -8.959300
v 5.057971 0.552390 -11.327580
v 4.910270 0.584341 -11.327580
v 5.057971 0.598837 -8.959300
v 4.910270 0.631235 -8.959300
v 5.057971 0.598837 -11.327580
v 4.910270 0.631235 -11.327580
v 5.501821 0.645153 -8.959300
v 5.365667 0.614981 -8.959300
v 5.365667 0.614981 -11.327580
v 5.501822 0.645153 -11.327580
v 5.365667 0.568534 -8.959300
v 5.501822 0.598259 -8.959300
v 5.501822 0.598259 -11.327580
v 5.365667 0.568534 -11.327580
v 5.119510 0.568738 -8.959300
v 5.119510 0.568738 -11.327580
v 5.119510 0.523585 -11.327580
v 5.119510 0.523585 -8.959300
v 5.304128 0.580516 -11.327580
v 5.304128 0.580516 -8.959300
v 5.304128 0.535364 -8.959300
v 5.304128 0.535364 -11.327580
v 5.165665 0.530998 -11.327580
v 5.165665 0.530998 -8.959300
v 5.165665 0.486816 -8.959300
v 5.165665 0.486816 -11.327580
v 5.257973 0.531666 -8.959300
v 5.257973 0.531666 -11.327580
v 5.257973 0.487484 -11.327580
v 5.257973 0.487484 -8.959300
vt 0.375000 0.250000
vt 0.375000 0.500000
vt 0.388889 0.500000
vt 0.388889 0.250000
vt 0.430556 0.250000
vt 0.430556 0.500000
vt 0.444444 0.500000
vt 0.444444 0.250000
vt 0.416667 0.250000
vt 0.416667 0.500000
vt 0.402778 0.250000
vt 0.402778 0.500000
vt 0.375000 0.250000
vt 0.388889 0.250000
vt 0.388889 0.500000
vt 0.375000 0.500000
vt 0.430556 0.250000
vt 0.444444 0.250000
vt 0.444444 0.500000
vt 0.430556 0.500000
vt 0.416667 0.250000
vt 0.416667 0.500000
vt 0.402778 0.250000
vt 0.402778 0.500000
vt 0.375000 0.250000
vt 0.388889 0.250000
vt 0.388889 0.500000
vt 0.375000 0.500000
vt 0.430556 0.250000
vt 0.430556 0.500000
vt 0.416667 0.250000
vt 0.416667 0.500000
vt 0.402778 0.250000
vt 0.402778 0.500000
vt 0.375000 0.250000
vt 0.388889 0.250000
vt 0.388889 0.500000
vt 0.375000 0.500000
vt 0.430556 0.250000
vt 0.444444 0.250000
vt 0.444444 0.500000
vt 0.430556 0.500000
vt 0.416667 0.250000
vt 0.416667 0.500000
vt 0.402778 0.250000
vt 0.402778 0.500000
vt 0.375000 0.250000
vt 0.375000 0.500000
vt 0.388889 0.500000
vt 0.388889 0.250000
vt 0.430556 0.250000
vt 0.430556 0.500000
vt 0.444444 0.500000
vt 0.444444 0.250000
vt 0.416667 0.250000
vt 0.416667 0.500000
vt 0.402778 0.250000
vt 0.402778 0.500000
vt 0.375000 0.250000
vt 0.388889 0.250000
vt 0.388889 0.500000
vt 0.375000 0.500000
vt 0.430556 0.250000
vt 0.430556 0.500000
vt 0.416667 0.250000
vt 0.416667 0.500000
vt 0.402778 0.250000
vt 0.402778 0.500000
vt 0.452884 0.250000
vt 0.471661 0.250000
vt 0.472221 0.250000
vt 0.453345 0.250000
vt 0.458333 0.250000
vt 0.458333 0.500000
vt 0.471661 0.500000
vt 0.452884 0.500000
vt 0.453345 0.500000
vt 0.472221 0.500000
vt 0.453345 0.250000
vt 0.472221 0.250000
vt 0.471661 0.250000
vt 0.452884 0.250000
vt 0.453345 0.500000
vt 0.472221 0.500000
vt 0.452884 0.500000
vt 0.471662 0.500000
vt 0.458333 0.250000
vt 0.458333 0.500000
vt 0.472221 0.250000
vt 0.472221 0.500000
vt 0.471661 0.500000
vt 0.471661 0.250000
vt 0.472221 0.500000
vt 0.472221 0.250000
vt 0.471661 0.250000
vt 0.471662 0.500000
vt 0.472221 0.500000
vt 0.472221 0.250000
vt 0.471661 0.250000
vt 0.471661 0.500000
vt 0.472221 0.250000
vt 0.472221 0.500000
vt 0.471662 0.500000
vt 0.471661 0.250000
vn 0.118115 0.992999 0.000884
vn 0.118115 0.992999 0.000884
vn 0.093453 0.995624 0.000445
vn 0.093453 0.995624 0.000445
vn -0.006123 0.999981 0.000000
vn -0.006123 0.999981 0.000000
vn -0.044566 0.999007 -0.000000
vn -0.044566 0.999007 -0.000000
vn 0.005348 0.999986 0.000000
vn 0.005348 0.999986 0.000000
vn 0.043489 0.999054 0.000000
vn 0.043489 0.999054 0.000000
vn -0.121604 -0.992578 -0.001296
vn -0.094154 -0.995557 -0.000642
vn -0.094154 -0.995557 -0.000642
vn -0.121604 -0.992578 -0.001296
vn 0.004662 -0.999989 0.000000
vn 0.033785 -0.999429 -0.000000
vn 0.033785 -0.999429 -0.000000
vn 0.004662 -0.999989 0.000000
vn -0.005052 -0.999987 0.000000
vn -0.005052 -0.999987 0.000000
vn -0.042409 -0.999100 0.000000
vn -0.042409 -0.999100 0.000000
vn -0.000000 0.000000 1.000000
vn -0.000000 0.000000 1.000000
vn 0.000000 0.000000 1.000000
vn -0.000000 0.000000 1.000000
vn -0.000000 0.000000 -1.000000
vn 0.000000 0.000000 -1.000000
vn -0.000000 0.000000 -1.000000
vn -0.000000 0.000000 -1.000000
vn 0.987367 -0.158451 -0.000347
vn 0.987367 -0.158451 -0.000347
vn 0.987367 -0.158451 -0.000347
vn 0.987367 -0.158451 -0.000347
vn 0.000000 0.000000 1.000000
vn 0.000000 0.000000 1.000000
vn 0.000000 0.000000 1.000000
vn 0.000000 0.000000 1.000000
vn 0.000000 0.000000 -1.000000
vn 0.000000 0.000000 -1.000000
vn 0.000000 0.000000 -1.000000
vn 0.000000 0.000000 -1.000000
vn -0.000000 0.000000 1.000000
vn -0.000000 0.000000 1.000000
vn -0.000000 0.000000 -1.000000
vn -0.000000 0.000000 -1.000000
vn 0.000000 0.000000 1.000000
vn -0.000000 0.000000 1.000000
vn -0.000000 0.000000 -1.000000
vn 0.000000 0.000000 -1.000000
vn -0.120825 0.992674 0.000586
vn -0.094824 0.995494 0.000295
vn -0.094824 0.995494 0.000295
vn -0.120825 0.992674 0.000586
vn 0.026734 0.999643 0.000000
vn 0.077884 0.996962 0.000000
vn 0.077884 0.996962 0.000000
vn 0.026734 0.999643 0.000000
vn -0.005348 0.999986 0.000000
vn -0.005348 0.999986 0.000000
vn -0.043490 0.999054 0.000000
vn -0.043490 0.999054 0.000000
vn 0.124402 -0.992231 -0.001008
vn 0.124402 -0.992231 -0.001008
vn 0.095547 -0.995425 -0.000499
vn 0.095547 -0.995425 -0.000499
vn -0.025274 -0.999681 0.000000
vn -0.025274 -0.999681 0.000000
vn -0.067163 -0.997742 0.000000
vn -0.067163 -0.997742 0.000000
vn 0.005052 -0.999987 0.000000
vn 0.005052 -0.999987 0.000000
vn 0.042409 -0.999100 0.000000
vn 0.042409 -0.999100 0.000000
vn -0.000000 0.000000 1.000000
vn -0.000000 0.000000 1.000000
vn -0.000000 0.000000 1.000000
vn -0.000000 0.000000 1.000000
vn 0.000000 0.000000 -1.000000
vn 0.000000 0.000000 -1.000000
vn 0.000000 0.000000 -1.000000
vn 0.000000 0.000000 -1.000000
vn -0.987369 -0.158440 -0.000253
vn -0.987369 -0.158440 -0.000253
vn -0.987369 -0.158440 -0.000253
vn -0.987369 -0.158440 -0.000253
vn 0.000000 0.000000 1.000000
vn 0.000000 0.000000 1.000000
vn 0.000000 0.000000 1.000000
vn 0.000000 0.000000 1.000000
vn -0.000000 0.000000 -1.000000
vn 0.000000 0.000000 -1.000000
vn 0.000000 0.000000 -1.000000
vn 0.000000 0.000000 -1.000000
vn 0.000000 0.000000 1.000000
vn 0.000000 0.000000 1.000000
vn 0.000000 0.000000 -1.000000
vn 0.000000 0.000000 -1.000000
vn 0.000000 0.000000 1.000000
vn 0.000000 0.000000 1.000000
vn 0.000000 0.000000 -1.000000
vn 0.000000 0.000000 -1.000000
vn 0.000000 0.000000 1.000000
vn 0.000002 0.000000 1.000000
vn 0.000000 0.000000 1.000000
vn 0.000000 0.000000 1.000000
vn -0.278847 -0.960336 0.000000
vn -0.156283 -0.987712 0.000000
vn -0.156283 -0.987712 0.000000
vn -0.278847 -0.960336 0.000000
vn 0.000001 0.000000 -1.000000
vn -0.000000 0.000000 -1.000000
vn -0.000001 0.000000 -1.000000
vn 0.000000 0.000000 -1.000000
vn 0.169540 0.985523 0.000000
vn 0.286193 0.958172 0.000000
vn 0.286193 0.958172 0.000000
vn 0.169540 0.985523 0.000000
vn 0.000000 0.000000 1.000000
vn -0.000001 0.000000 1.000000
vn -0.000002 0.000000 1.000000
vn -0.000001 0.000000 1.000000
vn -0.310763 0.950488 -0.000000
vn -0.157407 0.987534 -0.000000
vn -0.157407 0.987534 -0.000000
vn -0.310763 0.950488 -0.000000
vn 0.000000 0.000000 -1.000000
vn 0.000000 0.000000 -1.000000
vn 0.000000 0.000000 -1.000000
vn 0.000001 0.000000 -1.000000
vn 0.143555 -0.989642 -0.000000
vn 0.303170 -0.952936 -0.000000
vn 0.303170 -0.952936 -0.000000
vn 0.143555 -0.989642 -0.000000
vn -0.520072 -0.854123 0.000000
vn -0.520072 -0.854123 0.000000
vn 0.000001 0.000000 -1.000000
vn 0.000000 0.000000 -1.000000
vn 0.532991 0.846121 0.000000
vn 0.532991 0.846121 0.000000
vn 0.000003 0.000000 1.000000
vn 0.000002 0.000000 1.000000
vn -0.611894 0.790940 0.000000
vn -0.611894 0.790940 0.000000
vn 0.000000 0.000000 -1.000000
vn 0.000001 0.000000 -1.000000
vn 0.601330 -0.799001 0.000000
vn 0.601330 -0.799001 0.000000
vn -0.000002 0.000000 1.000000
vn -0.000000 0.000000 1.000000
vn 0.258630 0.965976 0.000000
vn 0.258630 0.965976 0.000000
vn -0.336743 0.941597 0.000000
vn -0.336743 0.941597 0.000000
vn 0.000000 0.000000 -1.000000
vn 0.000000 0.000000 -1.000000
vn 0.000000 0.000000 -1.000000
vn 0.000000 0.000000 -1.000000
vn -0.252296 -0.967650 0.000000
vn -0.252296 -0.967650 0.000000
vn 0.330872 -0.943676 0.000000
vn 0.330872 -0.943676 0.000000
vn 0.000000 0.000000 1.000000
vn 0.000001 0.000000 1.000000
vn 0.000000 0.000000 1.000000
vn 0.000000 0.000000 1.000000
s 1
g Hallway_Masters:Open_Book Hallway_Masters:polySurface5
usemtl initialShadingGroup
f 61/37/37 64/38/38 63/39/39 62/40/40
f 67/41/41 68/42/42 66/43/43 65/44/44
f 69/45/45 70/46/46 68/42/42 67/41/41
f 71/47/47 72/48/48 70/46/46 69/45/45
f 62/40/40 63/39/39 72/48/48 71/47/47
s 3
f 73/49/49 76/50/50 75/51/51 74/52/52
f 79/53/53 77/54/54 78/55/55 80/56/56
f 81/57/57 79/53/53 80/56/56 82/58/58
f 83/59/59 81/57/57 82/58/58 84/60/60
f 76/50/50 83/59/59 84/60/60 75/51/51
s 5
f 73/61/61 61/37/62 62/40/63 76/62/64
s 6
f 75/63/65 63/39/66 64/38/67 74/64/68
s off
f 74/64/69 64/38/70 61/37/71 73/61/72
s 5
f 79/65/73 67/41/74 65/44/75 77/54/76
s 6
f 78/55/77 66/43/78 68/42/79 80/66/80
s 5
f 81/67/81 69/45/82 67/41/74 79/65/73
s 6
f 80/66/80 68/42/79 70/46/83 82/68/84
s 5
f 83/69/85 71/47/86 69/45/82 81/67/81
s 6
f 82/68/84 70/46/83 72/48/87 84/70/88
s 5
f 76/62/64 62/40/63 71/47/86 83/69/85
s 6
f 84/70/88 72/48/87 63/39/66 75/63/65
s 1
f 49/71/89 50/72/90 51/73/91 52/74/92
f 55/75/93 53/76/94 54/77/95 56/78/96
f 57/79/97 55/75/93 56/78/96 58/80/98
f 59/81/99 57/79/97 58/80/98 60/82/100
f 50/72/90 59/81/99 60/82/100 51/73/91
s 3
f 37/83/101 38/84/102 48/85/103 47/86/104
f 41/87/105 42/88/106 40/89/107 39/90/108
f 43/91/109 44/92/110 42/88/106 41/87/105
f 45/93/111 46/94/112 44/92/110 43/91/109
f 47/86/104 48/85/103 46/94/112 45/93/111
s 5
f 37/95/113 47/96/114 50/72/115 49/71/116
s 6
f 48/97/117 38/98/118 52/74/119 51/73/120
s off
f 38/98/121 37/95/122 49/71/123 52/74/124
s 5
f 41/99/125 39/90/126 53/76/127 55/75/128
s 6
f 40/89/129 42/100/130 56/78/131 54/77/132
s 5
f 43/101/133 41/99/125 55/75/128 57/79/134
s 6
f 42/100/130 44/102/135 58/80/136 56/78/131
s 5
f 45/103/137 43/101/133 57/79/134 59/81/138
s 6
f 44/102/135 46/104/139 60/82/140 58/80/136
s 5
f 47/96/114 45/103/137 59/81/138 50/72/115
s 6
f 46/104/139 48/97/117 51/73/120 60/82/140
s 5
f 85/105/141 86/106/142 89/107/143 90/108/144
s 3
f 86/106/145 85/109/146 88/110/147 87/111/148
s 6
f 87/111/149 88/112/150 92/113/151 91/114/152
s 1
f 90/108/153 89/107/154 91/114/155 92/113/156
s 5
f 93/115/157 94/116/158 97/117/159 98/118/160
s 1
f 94/116/161 93/115/162 96/119/163 95/120/164
s 6
f 95/120/165 96/119/166 99/121/167 100/122/168
s 3
f 98/123/169 97/117/170 100/122/171 99/124/172
s 1
f 65/44/44 66/43/43 96/119/163 93/115/162
s 3
f 103/127/173 104/128/174 86/106/145 87/111/148
f 77/54/54 98/118/169 99/121/172 78/55/55
s 6
f 102/126/175 103/127/176 87/111/149 91/114/152
s 5
f 77/54/76 65/44/75 93/115/157 98/118/160
s 6
f 99/121/167 96/119/166 66/43/78 78/55/77
s 1
f 101/125/177 102/126/178 91/114/155 89/107/154
f 53/76/94 90/108/153 92/113/156 54/77/95
s 3
f 39/90/108 40/89/107 88/112/147 85/105/146
s 5
f 104/128/179 101/125/180 89/107/143 86/106/142
f 39/90/126 85/105/141 90/108/144 53/76/127
s 6
f 88/112/150 40/89/129 54/77/132 92/113/151
s 1
f 95/120/164 105/129/181 106/130/182 94/116/161
s 6
f 95/120/165 100/122/168 108/132/183 105/129/184
s 3
f 100/122/171 97/117/170 107/131/185 108/132/186
s 5
f 94/116/158 106/130/187 107/131/188 97/117/159
s 1
f 109/133/189 110/134/190 113/137/191 114/138/192
s 6
f 115/139/193 112/136/194 109/133/195 114/138/196
s 3
f 111/135/197 112/136/198 115/139/199 116/140/200
s 5
f 113/137/201 110/134/202 111/135/203 116/140/204
s 1
f 110/134/190 109/133/189 102/126/178 101/125/177
s 5
f 111/135/203 110/134/202 101/125/180 104/128/179
s 3
f 112/136/198 111/135/197 104/128/174 103/127/173
s 6
f 109/133/195 112/136/194 103/127/176 102/126/175
s 1
f 106/130/182 105/129/181 114/138/192 113/137/191
s 6
f 105/129/184 108/132/183 115/139/193 114/138/196
s 3
f 108/132/186 107/131/185 116/140/200 115/139/199
s 5
f 107/131/188 106/130/187 113/137/201 116/140/204
g default
v 3.454066 0.488707 -8.899112
v 6.972013 0.488707 -8.899112
v 3.454066 0.586975 -8.899112
v 6.972013 0.586975 -8.899112
v 3.454066 0.586975 -11.387768
v 6.972013 0.586975 -11.387768
v 3.454066 0.488707 -11.387768
v 6.972013 0.488707 -11.387768
v 5.402955 0.563708 -8.899112
v 5.402955 0.563708 -11.387768
v 5.402955 0.476673 -11.387768
v 5.402955 0.476673 -8.899112
v 5.023123 0.563708 -8.899112
v 5.023123 0.563708 -11.387768
v 5.023123 0.476673 -11.387768
v 5.023123 0.476673 -8.899112
v 5.317746 0.548465 -8.899112
v 5.251785 0.503920 -8.899112
v 5.317746 0.548465 -11.387768
v 5.251785 0.503920 -11.387768
v 5.317746 0.452932 -11.387768
v 5.251785 0.409699 -11.387768
v 5.317746 0.452932 -8.899112
v 5.251785 0.409699 -8.899112
v 5.174293 0.503920 -8.899112
v 5.108331 0.548465 -8.899112
v 5.108331 0.548465 -11.387768
v 5.174293 0.503920 -11.387768
v 5.108331 0.452932 -11.387768
v 5.174293 0.409699 -11.387768
v 5.108331 0.452932 -8.899112
v 5.174293 0.409699 -8.899112
vt 0.375000 0.000000
vt 0.375000 0.250000
vt 0.375000 0.500000
vt 0.375000 0.750000
vt 0.458333 1.000000
vt 0.375000 1.000000
vt 0.625000 0.000000
vt 0.875000 0.000000
vt 0.875000 0.250000
vt 0.625000 0.250000
vt 0.125000 0.000000
vt 0.125000 0.250000
vt 0.625000 0.500000
vt 0.625000 0.750000
vt 0.625000 1.000000
vt 0.541667 0.000000
vt 0.508334 0.000000
vt 0.518236 1.000000
vt 0.481764 0.000000
vt 0.491666 1.000000
vt 0.458333 0.250000
vt 0.481764 0.500000
vt 0.458334 0.500000
vt 0.481764 0.750000
vt 0.458333 0.750000
vt 0.481764 1.000000
vt 0.458334 0.000002
vt 0.481764 0.250000
vt 0.518236 0.250000
vt 0.541667 0.500000
vt 0.518236 0.500000
vt 0.541667 0.750000
vt 0.518236 0.750000
vt 0.541667 1.000000
vt 0.518236 -0.000000
vt 0.541667 0.249998
vt 0.491666 0.250000
vt 0.508334 0.500000
vt 0.491666 0.500000
vt 0.508334 0.750000
vt 0.491666 0.750000
vt 0.508334 1.000000
vt 0.491666 0.000000
vt 0.508334 0.250000
vn 0.000000 0.000000 1.000000
vn -0.000000 0.000000 1.000000
vn -0.000000 0.000000 1.000000
vn 0.000000 0.000000 1.000000
vn 0.014827 0.999890 0.000000
vn 0.014827 0.999890 0.000000
vn 0.014827 0.999890 0.000000
vn 0.014827 0.999890 0.000000
vn 0.000000 0.000000 -1.000000
vn -0.000000 0.000000 -1.000000
vn -0.000000 0.000000 -1.000000
vn 0.000000 0.000000 -1.000000
vn -0.007669 -0.999971 0.000000
vn -0.007669 -0.999971 0.000000
vn -0.007669 -0.999971 0.000000
vn -0.007669 -0.999971 0.000000
vn 1.000000 0.000000 0.000000
vn 1.000000 0.000000 0.000000
vn 1.000000 0.000000 0.000000
vn 1.000000 0.000000 0.000000
vn -1.000000 0.000000 0.000000
vn -1.000000 0.000000 0.000000
vn -1.000000 0.000000 0.000000
vn -1.000000 0.000000 0.000000
vn -0.014827 0.999890 0.000000
vn -0.014827 0.999890 0.000000
vn -0.014827 0.999890 0.000000
vn -0.014827 0.999890 0.000000
vn 0.000000 0.000000 -1.000000
vn -0.000000 0.000000 -1.000000
vn -0.000000 0.000000 -1.000000
vn -0.000000 0.000000 -1.000000
vn 0.007669 -0.999971 0.000000
vn 0.007669 -0.999971 0.000000
vn 0.007669 -0.999971 0.000000
vn 0.007669 -0.999971 0.000000
vn -0.000000 0.000000 1.000000
vn 0.000000 0.000000 1.000000
vn -0.000000 0.000000 1.000000
vn -0.000000 0.000000 1.000000
vn 0.000001 0.000000 1.000000
vn -0.000001 0.000000 1.000000
vn -0.000000 0.000000 1.000000
vn -0.000002 0.000000 1.000000
vn -0.296554 0.955016 0.000000
vn -0.367781 0.929912 0.000000
vn -0.367781 0.929912 0.000000
vn -0.296554 0.955016 0.000000
vn -0.000001 0.000000 -1.000000
vn 0.000001 0.000000 -1.000000
vn -0.000002 0.000000 -1.000000
vn -0.000000 0.000000 -1.000000
vn 0.288553 -0.957464 0.000000
vn 0.405061 -0.914290 0.000000
vn 0.405061 -0.914290 0.000000
vn 0.288553 -0.957464 0.000000
vn 0.000001 0.000000 1.000000
vn -0.000001 0.000000 1.000000
vn 0.000002 0.000000 1.000000
vn 0.000000 0.000000 1.000000
vn 0.367784 0.929911 0.000000
vn 0.296552 0.955017 0.000000
vn 0.296552 0.955017 0.000000
vn 0.367784 0.929911 0.000000
vn -0.000001 0.000000 -1.000000
vn 0.000001 0.000000 -1.000000
vn 0.000000 0.000000 -1.000000
vn 0.000002 0.000000 -1.000000
vn -0.405063 -0.914289 0.000000
vn -0.288552 -0.957464 0.000000
vn -0.288552 -0.957464 0.000000
vn -0.405063 -0.914289 0.000000
vn 0.176092 0.984374 0.000000
vn 0.176092 0.984374 0.000000
vn -0.268398 -0.963308 0.000000
vn -0.268398 -0.963308 0.000000
vn -0.176088 0.984375 0.000000
vn -0.176088 0.984375 0.000000
vn 0.268393 -0.963310 0.000000
vn 0.268393 -0.963310 0.000000
s 1
g Hallway_Masters:Open_Book Hallway_Masters:polySurface1
usemtl initialShadingGroup
f 117/141/205 132/167/206 129/161/207 119/142/208
s off
f 119/142/209 129/161/210 130/163/211 121/143/212
s 2
f 121/143/213 130/163/214 131/165/215 123/144/216
s off
f 123/144/217 131/165/218 132/145/219 117/146/220
f 118/147/221 124/148/222 122/149/223 120/150/224
f 123/151/225 117/141/226 119/142/227 121/152/228
f 125/176/229 120/150/230 122/153/231 126/170/232
s 2
f 127/172/233 126/170/234 122/153/235 124/154/236
s off
f 128/174/237 127/172/238 124/154/239 118/155/240
s 1
f 125/176/241 128/156/242 118/147/243 120/150/244
f 133/169/245 134/184/246 140/157/247 139/175/248
s 6
f 134/184/249 133/169/250 135/171/251 136/178/252
s 2
f 136/178/253 135/171/254 137/173/255 138/180/256
s 7
f 138/180/257 137/173/258 139/158/259 140/182/260
s 1
f 141/177/261 142/168/262 147/159/263 148/183/264
s 6
f 142/168/265 141/177/266 144/179/267 143/162/268
s 2
f 143/162/269 144/179/270 146/181/271 145/164/272
s 7
f 145/164/273 146/181/274 148/160/275 147/166/276
s 6
f 129/161/277 142/168/265 143/162/268 130/163/278
s 2
f 131/165/215 130/163/214 143/162/269 145/164/272
s 7
f 132/145/279 131/165/280 145/164/273 147/166/276
s 1
f 129/161/207 132/167/206 147/159/263 142/168/262
s 6
f 133/169/250 125/176/281 126/170/282 135/171/251
s 2
f 137/173/255 135/171/254 126/170/234 127/172/233
s 7
f 139/158/259 137/173/258 127/172/283 128/174/284
s 1
f 133/169/245 139/175/248 128/156/242 125/176/241
s 6
f 141/177/266 134/184/249 136/178/252 144/179/267
s 2
f 146/181/271 144/179/270 136/178/253 138/180/256
s 7
f 148/160/275 146/181/274 138/180/257 140/182/260
s 1
f 141/177/261 148/183/264 140/157/247 134/184/246
