# This file uses centimeters as units for non-parametric coordinates.

mtllib Picture_Frame.mtl
g default
v -16.910418 4.636179 38.695507
v -16.910418 4.636179 37.980274
v -16.910418 5.769868 37.980274
v -16.910418 5.769868 38.695507
vt 0.625000 0.000000
vt 0.875000 0.000000
vt 0.875000 0.250000
vt 0.625000 0.250000
vn 1.000000 0.000000 0.000000
vn 1.000000 0.000000 0.000000
vn 1.000000 0.000000 0.000000
vn 1.000000 0.000000 0.000000
s off
g Hallway_Masters:GlassPlain Hallway_Masters:PictureFrame
usemtl initialShadingGroup
f 1/1/1 2/2/2 3/3/3 4/4/4
g default
v -16.920862 4.636179 38.695507
v -16.920862 4.636179 37.980274
v -16.920862 5.769868 37.980274
v -16.920862 5.769868 38.695507
vt 0.625000 0.000000
vt 0.875000 0.000000
vt 0.875000 0.250000
vt 0.625000 0.250000
vn 1.000000 0.000000 0.000000
vn 1.000000 0.000000 0.000000
vn 1.000000 0.000000 0.000000
vn 1.000000 0.000000 0.000000
s off
g Hallway_Masters:PictureFrame Hallway_Masters:PicturePlain
usemtl initialShadingGroup
f 5/5/5 6/6/6 7/7/7 8/8/8
g default
v -16.963082 4.586179 38.745509
v -16.898859 4.586179 38.745509
v -16.963084 5.819868 38.745509
v -16.898859 5.819868 38.745509
v -16.963082 5.819868 37.930275
v -16.898859 5.819868 37.930275
v -16.963082 4.586179 37.930275
v -16.898859 4.586179 37.930275
v -16.898859 4.636179 37.980274
v -16.898859 4.636179 38.695507
v -16.898859 5.769868 37.980274
v -16.898859 5.769868 38.695507
v -16.962929 4.636179 37.980274
v -16.962928 4.636179 38.695507
v -16.962928 5.769868 37.980274
v -16.962929 5.769868 38.695507
vt 0.375000 0.000000
vt 0.625000 0.000000
vt 0.625000 0.250000
vt 0.375000 0.250000
vt 0.625000 0.500000
vt 0.375000 0.500000
vt 0.625000 0.750000
vt 0.375000 0.750000
vt 0.625000 1.000000
vt 0.375000 1.000000
vt 0.625000 0.000000
vt 0.875000 0.000000
vt 0.875000 0.250000
vt 0.625000 0.250000
vt 0.125000 0.000000
vt 0.125000 0.250000
vt 0.875000 0.000000
vt 0.875000 0.000000
vt 0.625000 0.000000
vt 0.875000 0.250000
vt 0.875000 0.250000
vt 0.625000 0.250000
vn 0.000000 0.000000 1.000000
vn 0.000000 0.000000 1.000000
vn 0.000000 0.000000 1.000000
vn 0.000000 0.000000 1.000000
vn 0.000000 1.000000 -0.000000
vn 0.000000 1.000000 -0.000000
vn 0.000000 1.000000 -0.000000
vn 0.000000 1.000000 -0.000000
vn 0.000000 0.000000 -1.000000
vn 0.000000 0.000000 -1.000000
vn 0.000000 0.000000 -1.000000
vn 0.000000 0.000000 -1.000000
vn 0.000000 -1.000000 0.000000
vn 0.000000 -1.000000 0.000000
vn 0.000000 -1.000000 0.000000
vn 0.000000 -1.000000 0.000000
vn 1.000000 0.000000 0.000000
vn 1.000000 0.000000 0.000000
vn 1.000000 0.000000 0.000000
vn 1.000000 0.000000 0.000000
vn -1.000000 0.000000 -0.000001
vn -1.000000 0.000000 -0.000001
vn -1.000000 0.000000 -0.000001
vn -1.000000 0.000000 -0.000001
vn 1.000000 0.000004 0.000000
vn 1.000000 0.000004 0.000000
vn 1.000000 0.000005 0.000000
vn 1.000000 0.000005 0.000000
vn 1.000000 -0.000006 0.000000
vn 1.000000 -0.000008 0.000000
vn 1.000000 -0.000006 0.000000
vn 1.000000 -0.000008 0.000000
vn 0.000000 1.000000 0.000000
vn 0.000000 1.000000 0.000000
vn 0.000000 1.000000 0.000000
vn 0.000000 1.000000 0.000000
vn 0.000000 0.000000 1.000000
vn 0.000000 0.000000 1.000000
vn 0.000000 0.000000 1.000000
vn 0.000000 0.000000 1.000000
vn 0.000000 -1.000000 0.000000
vn 0.000000 -1.000000 0.000000
vn 0.000000 -1.000000 0.000000
vn 0.000000 -1.000000 0.000000
vn 0.000000 0.000000 -1.000000
vn 0.000000 0.000000 -1.000000
vn 0.000000 0.000000 -1.000000
vn 0.000000 0.000000 -1.000000
s off
g Hallway_Masters:PictureFrame
usemtl initialShadingGroup
f 9/9/9 10/10/10 12/11/11 11/12/12
f 11/12/13 12/11/14 14/13/15 13/14/16
f 13/14/17 14/13/18 16/15/19 15/16/20
f 15/16/21 16/15/22 10/17/23 9/18/24
f 22/19/25 21/20/26 23/21/27 24/22/28
f 15/23/29 9/9/30 11/12/31 13/24/32
s 1
f 10/10/33 16/25/34 17/26/35 18/27/36
f 16/25/34 14/28/37 19/29/38 17/26/35
f 14/28/37 12/11/39 20/30/40 19/29/38
f 12/11/39 10/10/33 18/27/36 20/30/40
s off
f 18/27/41 17/26/42 21/20/43 22/19/44
f 17/26/45 19/29/46 23/21/47 21/20/48
f 19/29/49 20/30/50 24/22/51 23/21/52
f 20/30/53 18/27/54 22/19/55 24/22/56
g default
v -17.292160 4.651048 38.275382
v -17.247177 4.623191 38.275382
v -16.940667 5.181345 38.440455
v -16.929038 5.174145 38.440455
v -16.940667 5.181346 38.278118
v -16.929038 5.174146 38.278118
v -17.204527 4.792537 38.024307
v -17.159552 4.764681 38.024307
v -16.940667 5.181345 38.404576
v -17.292160 4.651047 38.216419
v -17.247177 4.623189 38.216419
v -16.929038 5.174145 38.404576
v -17.292160 4.651047 38.098500
v -16.940667 5.181346 38.332813
v -16.929038 5.174146 38.332813
v -17.247177 4.623189 38.098500
vt 0.375000 0.000000
vt 0.625000 0.000000
vt 0.375000 0.250000
vt 0.625000 0.250000
vt 0.375000 0.500000
vt 0.625000 0.500000
vt 0.375000 0.750000
vt 0.625000 0.750000
vt 0.375000 1.000000
vt 0.625000 1.000000
vt 0.875000 0.000000
vt 0.875000 0.250000
vt 0.125000 0.000000
vt 0.125000 0.250000
vt 0.312500 0.250000
vt 0.375000 0.312500
vt 0.312500 0.000000
vt 0.375000 0.937500
vt 0.625000 0.937500
vt 0.687500 0.000000
vt 0.625000 0.312500
vt 0.687500 0.250000
vt 0.187500 0.000000
vt 0.375000 0.812500
vt 0.187500 0.250000
vt 0.375000 0.437500
vt 0.625000 0.437500
vt 0.812500 0.250000
vt 0.625000 0.812500
vt 0.812500 0.000000
vn -0.132203 -0.213612 0.967932
vn -0.132203 -0.213612 0.967932
vn -0.132203 -0.213612 0.967932
vn -0.132203 -0.213612 0.967932
vn 0.526401 0.850236 0.000000
vn 0.526401 0.850236 0.000000
vn 0.526390 0.850243 0.000012
vn 0.526390 0.850243 0.000012
vn 0.250406 0.404305 -0.879678
vn 0.250406 0.404305 -0.879678
vn 0.250406 0.404305 -0.879678
vn 0.250406 0.404305 -0.879678
vn -0.526512 -0.850168 0.000008
vn -0.526512 -0.850168 0.000008
vn -0.526511 -0.850168 0.000024
vn -0.526511 -0.850168 0.000024
vn 0.865986 -0.500068 0.000010
vn 0.865990 -0.500061 -0.000000
vn 0.865990 -0.500061 0.000000
vn 0.865986 -0.500068 0.000010
vn -0.833520 0.552489 -0.000000
vn -0.833520 0.552490 0.000000
vn -0.833526 0.552480 -0.000005
vn -0.833526 0.552480 -0.000005
vn -0.837705 0.545345 0.029133
vn -0.833916 0.551885 0.002567
vn -0.835536 0.549273 0.013385
vn -0.837705 0.545345 0.029133
vn -0.214339 -0.346161 -0.913363
vn -0.214339 -0.346161 -0.913363
vn -0.332419 -0.536817 -0.775452
vn -0.523703 -0.845638 -0.103106
vn 0.864032 -0.503260 0.013327
vn 0.865611 -0.500710 0.002681
vn 0.861488 -0.506939 0.029159
vn 0.861488 -0.506939 0.029159
vn 0.526378 0.850251 0.000011
vn 0.526378 0.850251 0.000011
vn 0.526368 0.850257 0.000000
vn 0.526368 0.850257 0.000000
s off
g Hallway_Masters:PictureFrame Hallway_Masters:FrameBack
usemtl initialShadingGroup
f 25/31/57 26/32/58 28/34/59 27/33/60
s 1
f 27/33/61 28/34/62 36/51/63 33/46/64
s off
f 29/35/65 30/36/66 32/38/67 31/37/68
s 2
f 34/48/69 35/49/70 26/40/71 25/39/72
s 3
f 26/32/73 35/50/74 36/52/75 28/34/76
s 4
f 33/45/77 34/47/78 25/31/79 27/33/80
f 31/43/81 37/53/82 38/55/83 29/44/84
s 2
f 31/37/85 32/38/86 40/59/87 37/54/88
s 3
f 39/58/89 40/60/90 32/41/91 30/42/92
s 1
f 38/56/93 39/57/94 30/36/95 29/35/96
s 4
f 34/47/78 33/45/77 38/55/83 37/53/82
s 2
f 35/49/70 34/48/69 37/54/88 40/59/87
s 3
f 39/58/89 36/52/75 35/50/74 40/60/90
s 1
f 38/56/93 33/46/64 36/51/63 39/57/94
