# This file uses centimeters as units for non-parametric coordinates.

mtllib Radio.mtl
g default
v -26.607781 5.601012 24.740148
v -26.596407 5.601012 24.511481
v -26.697570 5.601012 24.735720
v -26.686237 5.601012 24.507027
v -26.607781 5.629660 24.740148
v -26.612907 5.641707 24.737996
v -26.625399 5.646694 24.732719
v -26.614708 5.646694 24.517157
v -26.601772 5.641707 24.513143
v -26.596407 5.629660 24.511481
v -26.679267 5.646694 24.730032
v -26.692216 5.641707 24.734075
v -26.697570 5.629660 24.735720
v -26.668597 5.646694 24.514477
v -26.681071 5.641707 24.509215
v -26.686237 5.629660 24.507027
vt 0.625000 0.750000
vt 0.375000 1.000000
vt 0.625000 1.000000
vt 0.625000 0.000000
vt 0.375000 0.156777
vt 0.382160 0.299995
vt 0.617840 0.299995
vt 0.617840 0.450006
vt 0.625000 0.593223
vt 0.375000 0.750000
vt 0.875000 0.000000
vt 0.625000 0.156777
vt 0.125000 0.000000
vt 0.375000 0.000000
vt 0.125000 0.156777
vt 0.875000 0.156777
vt 0.375000 0.593223
vt 0.382160 0.450006
vt 0.375000 0.250000
vt 0.625000 0.250000
vt 0.375000 0.500000
vt 0.125000 0.250000
vt 0.625000 0.500000
vt 0.875000 0.250000
vn 0.000000 -1.000000 0.000000
vn 0.000000 -1.000000 0.000000
vn 0.000000 -1.000000 0.000000
vn 0.000000 -1.000000 0.000000
vn 0.107051 0.993628 0.035270
vn 0.364276 0.931116 0.018053
vn 0.364276 0.931116 0.018053
vn 0.077701 0.996861 -0.015173
vn 0.915527 0.399682 0.045439
vn 0.991329 0.121811 0.049280
vn 0.991177 0.123046 0.049272
vn 0.915527 0.399682 0.045439
vn 0.998765 0.000000 0.049681
vn 0.998765 0.000000 0.049681
vn -0.106983 0.993636 -0.035247
vn -0.077751 0.996858 0.015150
vn -0.991146 0.123357 -0.049120
vn -0.991315 0.121987 -0.049128
vn -0.998774 0.000000 -0.049497
vn -0.998774 0.000000 -0.049497
vn 0.049532 0.000000 -0.998773
vn 0.049532 0.000000 -0.998773
vn 0.049471 0.044014 -0.997805
vn 0.049468 0.045155 -0.997754
vn -0.049256 0.000000 0.998786
vn -0.049256 0.000000 0.998786
vn -0.049224 0.043480 0.997841
vn -0.049222 0.044582 0.997792
vn 0.036262 0.681489 -0.730929
vn 0.036262 0.681489 -0.730929
vn 0.048863 0.157967 -0.986235
vn 0.048863 0.157967 -0.986235
vn -0.048703 0.156000 0.986556
vn -0.048703 0.156000 0.986556
vn -0.036187 0.683168 0.729364
vn -0.036187 0.683168 0.729364
vn -0.915199 0.400442 -0.045357
vn -0.915199 0.400442 -0.045357
vn -0.364401 0.931067 -0.018052
vn -0.364401 0.931067 -0.018052
s off
g Hallway_Masters:Button_Pause_Play Hallway_Masters:BaseClock
usemtl initialShadingGroup
f 3/10/1 4/1/2 2/3/3 1/2/4
s 1
f 7/6/5 6/19/6 9/20/7 8/7/8
s 2
f 6/19/9 5/5/10 10/12/11 9/20/12
f 1/14/13 2/4/14 10/12/11 5/5/10
s 1
f 7/6/5 8/7/8 14/8/15 11/18/16
s 3
f 13/17/17 16/9/18 4/1/19 3/10/20
s 4
f 2/4/21 4/11/22 16/16/23 10/12/24
s 5
f 3/13/25 1/14/26 5/5/27 13/15/28
s 1
f 8/7/8 9/20/29 15/23/30 14/8/15
s 4
f 9/20/31 10/12/24 16/16/23 15/24/32
s 5
f 5/5/27 6/19/33 12/22/34 13/15/28
s 1
f 6/19/35 7/6/5 11/18/16 12/21/36
s 3
f 13/17/17 12/21/37 15/23/38 16/9/18
s 1
f 12/21/39 11/18/16 14/8/15 15/23/40
g default
v -26.645835 5.601012 25.509405
v -26.623160 5.601012 25.051446
v -26.735651 5.601012 25.504946
v -26.712974 5.601012 25.047023
v -26.645835 5.629660 25.509405
v -26.650909 5.641707 25.505286
v -26.663165 5.646694 25.495394
v -26.641771 5.646694 25.063676
v -26.628606 5.641707 25.055025
v -26.623160 5.629660 25.051446
v -26.717054 5.646694 25.492718
v -26.730202 5.641707 25.501355
v -26.735651 5.629660 25.504946
v -26.695677 5.646694 25.061015
v -26.707900 5.641707 25.051110
v -26.712974 5.629660 25.047023
vt 0.625000 0.750000
vt 0.375000 1.000000
vt 0.625000 1.000000
vt 0.625000 0.000000
vt 0.375000 0.156777
vt 0.382160 0.299995
vt 0.617840 0.299995
vt 0.617840 0.450006
vt 0.625000 0.593223
vt 0.375000 0.750000
vt 0.875000 0.000000
vt 0.625000 0.156777
vt 0.125000 0.000000
vt 0.375000 0.000000
vt 0.125000 0.156777
vt 0.875000 0.156777
vt 0.375000 0.593223
vt 0.382160 0.450006
vt 0.375000 0.250000
vt 0.625000 0.250000
vt 0.375000 0.500000
vt 0.125000 0.250000
vt 0.625000 0.500000
vt 0.875000 0.250000
vn 0.000000 -1.000000 0.000000
vn 0.000000 -1.000000 0.000000
vn 0.000000 -1.000000 0.000000
vn 0.000000 -1.000000 0.000000
vn 0.118368 0.992757 0.020554
vn 0.364374 0.931078 0.018052
vn 0.364374 0.931078 0.018052
vn 0.087536 0.996153 -0.004165
vn 0.915177 0.400496 0.045323
vn 0.991919 0.116984 0.049116
vn 0.991755 0.118367 0.049108
vn 0.915177 0.400496 0.045323
vn 0.998776 0.000000 0.049452
vn 0.998776 0.000000 0.049452
vn -0.118351 0.992760 -0.020534
vn -0.087491 0.996157 0.004160
vn -0.991757 0.118343 -0.049116
vn -0.991907 0.117078 -0.049124
vn -0.998776 0.000000 -0.049463
vn -0.998776 0.000000 -0.049463
vn 0.049194 0.000000 -0.998789
vn 0.049194 0.000000 -0.998789
vn 0.049028 0.086306 -0.995062
vn 0.049010 0.090721 -0.994670
vn -0.049588 0.000000 0.998770
vn -0.049588 0.000000 0.998770
vn -0.049392 0.086769 0.995003
vn -0.049372 0.091268 0.994602
vn 0.023313 0.881082 -0.472388
vn 0.023313 0.881082 -0.472388
vn 0.046937 0.303471 -0.951684
vn 0.046937 0.303471 -0.951684
vn -0.047192 0.305088 0.951154
vn -0.047192 0.305088 0.951154
vn -0.023466 0.880770 0.472963
vn -0.023466 0.880770 0.472963
vn -0.915169 0.400515 -0.045327
vn -0.915169 0.400515 -0.045327
vn -0.365050 0.930812 -0.018081
vn -0.365050 0.930812 -0.018081
s off
g Hallway_Masters:BaseClock Hallway_Masters:BigButton
usemtl initialShadingGroup
f 19/34/41 20/25/42 18/27/43 17/26/44
s 1
f 23/30/45 22/43/46 25/44/47 24/31/48
s 2
f 22/43/49 21/29/50 26/36/51 25/44/52
f 17/38/53 18/28/54 26/36/51 21/29/50
s 1
f 23/30/45 24/31/48 30/32/55 27/42/56
s 3
f 29/41/57 32/33/58 20/25/59 19/34/60
s 4
f 18/28/61 20/35/62 32/40/63 26/36/64
s 5
f 19/37/65 17/38/66 21/29/67 29/39/68
s 1
f 24/31/48 25/44/69 31/47/70 30/32/55
s 4
f 25/44/71 26/36/64 32/40/63 31/48/72
s 5
f 21/29/67 22/43/73 28/46/74 29/39/68
s 1
f 22/43/75 23/30/45 27/42/56 28/45/76
s 3
f 29/41/57 28/45/77 31/47/78 32/33/58
s 1
f 28/45/79 27/42/56 30/32/55 31/47/80
g default
v -28.128884 5.526251 25.540936
v -26.426743 5.526251 25.625236
v -26.343879 5.526251 23.951938
v -28.046020 5.526251 23.867639
v -26.426743 5.238921 25.625236
v -28.128884 5.238921 25.540936
v -28.046020 5.238921 23.867639
v -26.343879 5.238921 23.951938
v -26.345950 5.238921 23.993766
v -26.345950 5.188645 23.993766
v -28.048101 5.188645 23.909482
v -28.048101 5.238921 23.909482
v -28.048101 5.526251 23.909482
v -28.048101 5.576535 23.909482
v -26.345950 5.576535 23.993766
v -26.345950 5.526251 23.993766
v -26.424876 5.188645 25.587570
v -26.424876 5.238921 25.587570
v -26.424876 5.526251 25.587570
v -26.424876 5.576535 25.587570
v -28.126999 5.576535 25.503290
v -28.126999 5.526251 25.503290
v -28.126999 5.238921 25.503290
v -28.126999 5.188645 25.503290
v -28.074876 5.238921 25.543609
v -28.074876 5.526251 25.543609
v -28.072995 5.576535 25.505963
v -27.994093 5.576535 23.912144
v -27.992001 5.526251 23.870319
v -27.992001 5.238921 23.870319
v -27.994093 5.188645 23.912144
v -28.072995 5.188645 25.505963
v -26.475351 5.526251 25.622807
v -26.475351 5.238921 25.622807
v -26.473493 5.188645 25.585173
v -26.394558 5.188645 23.991370
v -26.392491 5.238921 23.949535
v -26.392491 5.526251 23.949535
v -26.394558 5.576535 23.991370
v -26.473493 5.576535 25.585173
v -26.426743 5.547227 25.625236
v -26.425445 5.576535 25.598880
v -26.426359 5.567940 25.617506
v -26.475351 5.547227 25.622807
v -26.474943 5.567940 25.615128
v -26.474037 5.576535 25.596493
v -26.345177 5.576535 23.978301
v -26.343879 5.547227 23.951938
v -26.344267 5.567940 23.959653
v -26.392491 5.547227 23.949535
v -26.392869 5.567940 23.957249
v -26.393801 5.576535 23.975888
v -28.128884 5.217948 25.540936
v -28.127586 5.188645 25.514581
v -28.128496 5.197223 25.533222
v -28.074876 5.217948 25.543609
v -28.074496 5.197223 25.535898
v -28.073574 5.188645 25.517253
v -28.047322 5.188645 23.893998
v -28.046020 5.217948 23.867639
v -28.046404 5.197223 23.875369
v -27.992001 5.217948 23.870319
v -27.992400 5.197223 23.878035
v -27.993330 5.188645 23.896666
v -28.074876 5.547227 25.543609
v -28.074496 5.567940 25.535898
v -28.073574 5.576535 25.517253
v -27.993330 5.576535 23.896666
v -27.992400 5.567940 23.878035
v -27.992001 5.547227 23.870319
v -28.128496 5.567940 25.533222
v -28.127586 5.576535 25.514581
v -28.128884 5.547227 25.540936
v -28.046404 5.567940 23.875369
v -28.046020 5.547227 23.867639
v -28.047322 5.576535 23.893998
v -26.475351 5.217948 25.622807
v -26.474943 5.197223 25.615128
v -26.474037 5.188645 25.596493
v -26.393801 5.188645 23.975888
v -26.392869 5.197223 23.957249
v -26.392491 5.217948 23.949535
v -26.426359 5.197223 25.617506
v -26.425445 5.188645 25.598880
v -26.426743 5.217948 25.625236
v -26.344267 5.197223 23.959653
v -26.343879 5.217948 23.951938
v -26.345177 5.188645 23.978301
v -27.994093 5.594665 23.912144
v -27.982830 5.606748 23.923597
v -28.060670 5.606748 25.495675
v -28.072995 5.594665 25.505963
v -26.406899 5.606748 24.001638
v -26.394558 5.594665 23.991370
v -26.473493 5.594665 25.585173
v -26.484750 5.606748 25.573720
v -26.386692 5.238921 23.991760
v -26.465609 5.238921 25.585560
v -26.386692 5.526251 23.991760
v -26.465609 5.526251 25.585560
vt 0.125000 0.237500
vt 0.375000 0.237500
vt 0.625000 0.237500
vt 0.625000 0.512500
vt 0.125000 0.012500
vt 0.375000 0.737500
vt 0.625000 0.737500
vt 0.875000 0.012500
vt 0.618750 1.000000
vt 0.618750 0.750000
vt 0.618750 0.737500
vt 0.618750 0.500000
vt 0.618750 0.250000
vt 0.618750 0.237500
vt 0.380625 0.000000
vt 0.380625 0.012500
vt 0.380625 0.512500
vt 0.378937 0.250000
vt 0.378937 0.750000
vt 0.378937 0.995500
vt 0.380625 1.000000
vt 0.629500 0.007285
vt 0.625000 0.012500
vt 0.370500 0.012500
vt 0.370500 0.242715
vt 0.375000 0.242715
vt 0.629500 0.237500
vt 0.621063 0.254500
vt 0.621063 0.250000
vt 0.618750 0.995500
vt 0.130000 0.237500
vt 0.125000 0.007285
vt 0.130000 0.007285
vt 0.380625 0.755000
vt 0.621063 0.755000
vt 0.621063 0.750000
vt 0.870000 0.012500
vt 0.870000 0.242715
vt 0.875000 0.237500
vt 0.378937 0.495000
vt 0.380625 0.500000
vt 0.130000 0.012500
vt 0.130000 0.242715
vt 0.621063 0.495000
vt 0.870000 0.237500
vt 0.870000 0.007285
vt 0.618750 0.755000
vt 0.378937 0.755000
vt 0.370500 0.237500
vt 0.370500 0.007285
vt 0.380625 0.995500
vt 0.621063 0.995500
vt 0.629500 0.012500
vt 0.629500 0.242715
vt 0.378937 0.254500
vt 0.380625 0.237500
vt 0.380625 0.250000
vt 0.375000 0.742715
vt 0.380625 0.737500
vt 0.380625 0.750000
vt 0.625000 0.742715
vt 0.375000 0.512500
vt 0.375000 0.507285
vt 0.625000 0.507285
vt 0.618750 0.512500
vt 0.378937 0.000000
vt 0.375000 0.012500
vt 0.618750 0.012500
vt 0.618750 0.000000
vt 0.621063 0.000000
vt 0.625000 0.242715
vt 0.875000 0.007285
vt 0.125000 0.242715
vt 0.378937 0.500000
vt 0.621063 0.500000
vt 0.875000 0.242715
vt 0.375000 0.007285
vt 0.378937 1.000000
vt 0.621063 1.000000
vt 0.625000 0.007285
vt 0.375000 0.250000
vt 0.375000 0.254500
vt 0.370500 0.250000
vt 0.625000 0.250000
vt 0.629500 0.250000
vt 0.625000 0.254500
vt 0.375000 0.750000
vt 0.125000 0.000000
vt 0.375000 0.755000
vt 0.130000 0.000000
vt 0.875000 0.000000
vt 0.625000 0.750000
vt 0.870000 0.000000
vt 0.625000 0.755000
vt 0.375000 0.495000
vt 0.130000 0.250000
vt 0.870000 0.250000
vt 0.625000 0.495000
vt 0.125000 0.250000
vt 0.375000 0.500000
vt 0.625000 0.500000
vt 0.875000 0.250000
vt 0.375000 0.995500
vt 0.370500 0.000000
vt 0.629500 0.000000
vt 0.625000 0.995500
vt 0.375000 0.000000
vt 0.375000 1.000000
vt 0.625000 1.000000
vt 0.625000 0.000000
vt 0.617126 0.255593
vt 0.382249 0.493907
vt 0.382249 0.255593
vt 0.617126 0.493907
vt 0.380625 0.495000
vt 0.618750 0.495000
vt 0.380625 0.495000
vt 0.380625 0.254500
vt 0.618750 0.254500
vt 0.380625 0.254500
vt 0.618750 0.254500
vt 0.618750 0.495000
vt 0.380625 0.012500
vt 0.618750 0.012500
vt 0.618750 0.237500
vt 0.380625 0.237500
vn -0.049466 0.000000 0.998776
vn -0.049466 0.000000 0.998776
vn -0.049887 0.000000 0.998755
vn -0.049886 0.000000 0.998755
vn -0.998776 -0.000001 -0.049455
vn -0.998776 0.000000 -0.049455
vn -0.998748 0.000021 -0.050016
vn -0.998748 -0.000026 -0.050016
vn -0.998766 0.000007 -0.049673
vn -0.998766 -0.000007 -0.049673
vn -0.998777 -0.000000 -0.049448
vn -0.998777 0.000000 -0.049448
vn 0.049387 0.000000 -0.998780
vn 0.049387 0.000000 -0.998780
vn 0.049462 0.000000 -0.998776
vn 0.049462 0.000000 -0.998776
vn 0.998776 0.000001 0.049458
vn 0.998777 0.000009 0.049447
vn 0.998777 -0.000009 0.049447
vn 0.998776 -0.000001 0.049458
vn 0.998773 0.000005 0.049517
vn 0.998773 -0.000008 0.049517
vn 0.998776 -0.000001 0.049467
vn 0.998776 0.000001 0.049467
vn 0.998776 0.000000 0.049455
vn 0.998776 0.000000 0.049455
vn 0.998776 0.000000 0.049455
vn 0.998776 0.000000 0.049455
vn 0.998776 0.000002 0.049459
vn 0.998776 -0.000001 0.049461
vn 0.000000 -1.000000 0.000000
vn 0.000000 -1.000000 -0.000000
vn 0.000000 -1.000000 0.000000
vn 0.000000 -1.000000 0.000000
vn -0.998777 -0.000001 -0.049448
vn -0.998776 0.000003 -0.049455
vn -0.998777 0.000001 -0.049448
vn -0.998776 -0.000004 -0.049454
vn 0.000000 1.000000 0.000000
vn 0.000000 1.000000 0.000000
vn 0.000000 1.000000 0.000007
vn 0.000000 1.000000 0.000000
vn 0.998776 -0.000002 0.049459
vn 0.998776 0.000001 0.049461
vn -0.049422 0.000000 0.998778
vn -0.049420 0.000000 0.998778
vn -0.049452 0.000000 0.998776
vn -0.049452 0.000000 0.998776
vn 0.000000 -1.000000 0.000000
vn 0.000000 -1.000000 -0.000000
vn 0.000000 -1.000000 0.000000
vn 0.000000 -1.000000 0.000000
vn 0.049467 0.000000 -0.998776
vn 0.049467 0.000000 -0.998776
vn 0.049558 0.000000 -0.998771
vn 0.049559 0.000000 -0.998771
vn 0.000000 1.000000 0.000006
vn 0.000000 1.000000 0.000000
vn 0.000000 1.000000 0.000000
vn 0.000000 1.000000 0.000000
vn -0.048828 0.181943 0.982096
vn -0.046300 0.349043 0.935962
vn -0.046356 0.348644 0.936108
vn -0.048639 0.181752 0.982141
vn -0.020486 0.908216 0.418000
vn -0.013484 0.961307 0.275148
vn -0.013635 0.961248 0.275347
vn -0.020691 0.908298 0.417811
vn -0.048610 -0.182081 0.982081
vn -0.046364 -0.349144 0.935922
vn -0.046362 -0.348476 0.936171
vn -0.048634 -0.181708 0.982149
vn -0.020663 -0.908626 0.417098
vn -0.013623 -0.961351 0.274989
vn -0.013615 -0.961384 0.274874
vn -0.020664 -0.908595 0.417167
vn -0.046357 0.348655 0.936104
vn -0.048633 0.181749 0.982142
vn -0.013640 0.961247 0.275349
vn -0.020697 0.908301 0.417804
vn -0.046360 -0.348465 0.936174
vn -0.048640 -0.181710 0.982148
vn -0.013611 -0.961385 0.274872
vn -0.020657 -0.908592 0.417174
vn 0.012048 -0.969878 -0.243293
vn 0.020662 -0.908570 -0.417221
vn 0.020663 -0.908573 -0.417214
vn 0.012047 -0.969887 -0.243258
vn 0.046346 -0.349274 -0.935874
vn 0.048637 -0.182173 -0.982063
vn 0.048634 -0.182161 -0.982065
vn 0.046346 -0.349263 -0.935878
vn 0.020695 0.908257 -0.417900
vn 0.012070 0.969765 -0.243741
vn 0.012070 0.969774 -0.243706
vn 0.020696 0.908261 -0.417892
vn 0.048638 0.182211 -0.982056
vn 0.046345 0.349455 -0.935806
vn 0.046343 0.349443 -0.935811
vn 0.048634 0.182200 -0.982058
vn -0.013463 -0.961451 0.274649
vn 0.048564 -0.182123 -0.982076
vn -0.048817 -0.181903 0.982104
vn 0.048558 0.182163 -0.982069
vn 0.012075 0.969768 -0.243730
vn 0.012056 -0.969880 -0.243284
vn -0.048605 0.182123 0.982074
vn 0.012024 -0.969886 -0.243262
vn 0.048662 -0.182328 -0.982033
vn 0.048688 0.182368 -0.982024
vn 0.012042 0.969777 -0.243696
vn -0.013643 0.961210 0.275479
vn 0.998773 0.000038 0.049532
vn 0.998773 0.000038 0.049532
vn 0.998773 0.000038 0.049532
vn 0.998778 -0.000068 0.049426
vn 0.998778 -0.000068 0.049426
vn 0.998778 -0.000068 0.049426
vn -0.998746 0.000154 -0.050056
vn -0.998746 0.000154 -0.050056
vn -0.998746 0.000154 -0.050056
vn -0.998764 -0.000051 -0.049697
vn -0.998764 -0.000051 -0.049697
vn -0.998764 -0.000051 -0.049697
vn -0.998746 -0.000192 -0.050056
vn -0.998746 -0.000192 -0.050056
vn -0.998746 -0.000192 -0.050056
vn -0.998764 0.000051 -0.049696
vn -0.998764 0.000051 -0.049696
vn -0.998764 0.000051 -0.049696
vn 0.998773 -0.000058 0.049532
vn 0.998773 -0.000058 0.049532
vn 0.998773 -0.000058 0.049532
vn 0.998778 0.000068 0.049425
vn 0.998778 0.000068 0.049425
vn 0.998778 0.000068 0.049425
vn 0.020697 0.908325 -0.417753
vn 0.046284 0.349403 -0.935829
vn 0.020628 -0.908525 -0.417322
vn 0.046319 -0.349577 -0.935762
vn -0.046328 0.349327 0.935855
vn -0.020689 0.908320 0.417765
vn 0.020654 0.908211 -0.418002
vn 0.046343 0.349760 -0.935693
vn -0.046276 -0.348863 0.936031
vn -0.020457 -0.908526 0.417328
vn 0.020668 -0.908633 -0.417085
vn 0.046293 -0.349222 -0.935896
vn 0.036769 0.668941 -0.742406
vn 0.036769 0.668941 -0.742406
vn 0.036769 0.668941 -0.742406
vn 0.036769 0.668941 -0.742406
vn -0.714365 0.698879 -0.035369
vn -0.714365 0.698879 -0.035369
vn -0.714365 0.698879 -0.035369
vn -0.714365 0.698879 -0.035369
vn -0.036753 0.669264 0.742115
vn -0.036753 0.669264 0.742115
vn -0.036753 0.669264 0.742115
vn -0.036753 0.669264 0.742115
vn 0.714135 0.699114 0.035366
vn 0.714135 0.699114 0.035366
vn 0.714135 0.699114 0.035366
vn 0.714135 0.699114 0.035366
vn 0.000000 1.000000 0.000000
vn 0.000000 1.000000 0.000000
vn 0.000000 1.000000 0.000000
vn 0.000000 1.000000 0.000000
vn -0.998777 0.000000 -0.049444
vn -0.998777 0.000000 -0.049444
vn -0.998777 0.000000 -0.049444
vn -0.998777 0.000000 -0.049444
vn -0.049462 0.000000 0.998776
vn -0.049462 0.000000 0.998776
vn -0.049462 0.000000 0.998776
vn -0.049462 0.000000 0.998776
vn 0.998776 0.000000 0.049467
vn 0.998776 0.000000 0.049467
vn 0.998776 0.000000 0.049467
vn 0.998776 0.000000 0.049467
vn 0.049469 0.000000 -0.998776
vn 0.049469 0.000000 -0.998776
vn 0.049469 0.000000 -0.998776
vn 0.049469 0.000000 -0.998776
vn 0.000000 1.000000 0.000000
vn 0.000000 1.000000 0.000000
vn 0.000000 1.000000 0.000000
vn 0.000000 1.000000 0.000000
vn -0.049198 0.000000 0.998789
vn -0.049198 0.000000 0.998789
vn -0.049198 0.000000 0.998789
vn -0.049198 0.000000 0.998789
vn 0.000000 -1.000000 0.000001
vn 0.000000 -1.000000 0.000001
vn 0.000000 -1.000000 0.000001
vn 0.000000 -1.000000 0.000001
vn 0.049306 0.000000 -0.998784
vn 0.049306 0.000000 -0.998784
vn 0.049306 0.000000 -0.998784
vn 0.049306 0.000000 -0.998784
s 1
g Hallway_Masters:BaseClock
usemtl initialShadingGroup
f 65/97/81 66/72/82 37/115/83 34/50/84
s 2
f 54/65/85 55/107/86 38/54/87 33/110/88
f 36/52/89 39/55/90 44/59/91 45/113/92
s 4
f 35/51/93 40/71/94 69/101/95 70/75/96
s 5
f 41/116/97 40/71/98 35/51/99 48/62/100
f 34/50/101 37/115/102 50/64/103 51/104/104
s off
f 130/171/105 129/172/106 131/173/107 132/174/108
s 5
f 42/117/109 41/116/97 50/64/103 49/63/110
s 7
f 67/99/111 68/78/112 42/57/113 49/69/114
s 2
f 44/59/91 43/58/115 56/108/116 55/107/86
f 45/113/92 44/59/91 55/107/86 54/65/85
f 46/60/117 45/113/92 54/65/85 53/89/118
s 8
f 47/61/119 71/167/120 72/166/121 52/105/122
s 5
f 48/62/100 47/61/123 52/105/124 51/104/104
s 1
f 33/49/125 38/53/126 57/90/127 58/79/128
s 7
f 43/58/129 63/95/130 64/82/131 56/108/132
s 4
f 61/93/133 62/85/134 39/56/135 36/87/136
s 8
f 59/163/137 60/170/138 46/60/139 53/89/140
s 1
f 66/72/82 65/97/81 58/79/128 57/90/127
s 7
f 68/78/112 67/99/111 64/82/131 63/95/130
s 4
f 70/75/96 69/101/95 62/85/134 61/93/133
s 1
f 73/74/141 75/129/142 77/131/143 76/73/144
s 8
f 75/129/145 74/66/146 78/103/147 77/130/148
s 1
f 85/80/149 87/136/150 89/138/151 88/81/152
s 7
f 87/135/153 86/67/154 90/96/155 89/137/156
s 1
f 98/144/157 97/91/158 76/73/144 77/131/143
s 8
f 99/88/159 98/143/160 77/130/148 78/103/147
s 1
f 88/81/152 89/138/151 110/152/161 109/98/162
s 7
f 89/137/156 90/96/155 111/68/163 110/151/164
f 96/83/165 95/142/166 113/154/167 112/100/168
s 4
f 95/141/169 94/94/170 114/70/171 113/153/172
s 8
f 101/146/173 100/92/174 84/76/175 83/134/176
s 4
f 102/86/177 101/145/178 83/133/179 82/102/180
s 8
f 78/103/147 74/66/146 52/105/122 72/166/121
s 7
f 111/68/163 67/99/111 49/69/114 116/126/181
s 4
f 119/128/182 114/70/171 69/101/95 40/71/94
s 1
f 66/72/82 109/98/162 117/125/183 37/115/83
f 76/73/144 65/97/81 34/50/84 73/74/141
s 4
f 35/51/93 70/75/96 82/102/180 80/119/184
s 8
f 84/76/175 71/167/120 47/61/119 79/77/185
s 7
f 42/57/113 68/78/112 112/100/168 120/127/186
s 1
f 33/49/125 58/79/128 97/91/158 105/121/187
f 85/80/149 88/81/152 57/90/127 38/53/126
s 7
f 90/96/155 86/67/154 56/108/132 64/82/131
f 96/83/165 63/95/130 43/58/129 91/84/188
s 4
f 62/85/134 94/94/170 92/120/189 39/56/135
f 102/86/177 61/93/133 36/87/136 107/124/190
s 8
f 46/60/139 60/170/138 100/92/174 108/123/191
f 99/88/159 59/163/137 53/89/140 104/122/192
s 1
f 66/72/82 57/90/127 88/81/152 109/98/162
f 76/73/144 97/91/158 58/79/128 65/97/81
s 8
f 72/166/121 59/163/137 99/88/159 78/103/147
f 84/76/175 100/92/174 60/170/138 71/167/120
s 4
f 70/75/96 61/93/133 102/86/177 82/102/180
f 114/70/171 94/94/170 62/85/134 69/101/95
s 7
f 68/78/112 63/95/130 96/83/165 112/100/168
f 111/68/163 90/96/155 64/82/131 67/99/111
s 5
f 73/74/193 34/50/101 51/104/104 52/105/124 74/66/194 75/129/195
f 79/77/196 47/61/123 48/62/100 35/51/99 80/119/197 81/132/198
s 2
f 85/106/199 38/54/87 55/107/86 56/108/116 86/67/200 87/135/201
f 91/84/202 43/58/115 44/59/91 39/55/90 92/109/203 93/140/204
f 103/148/205 104/122/206 53/89/118 54/65/85 33/110/88 105/111/207
f 106/149/208 107/112/209 36/52/89 45/113/92 46/60/117 108/123/210
s 5
f 115/155/211 116/114/212 49/63/110 50/64/103 37/115/102 117/125/213
f 118/158/214 119/128/215 40/71/98 41/116/97 42/117/109 120/118/216
s 8
f 79/77/185 81/132/217 83/134/176 84/76/175
s 4
f 81/132/218 80/119/184 82/102/180 83/133/179
s 7
f 91/84/188 93/140/219 95/142/166 96/83/165
s 4
f 93/139/220 92/120/189 94/94/170 95/141/169
s 1
f 97/91/158 98/144/157 103/147/221 105/121/187
s 8
f 98/143/160 99/88/159 104/122/192 103/148/222
f 100/92/174 101/146/173 106/149/223 108/123/191
s 4
f 101/145/178 102/86/177 107/124/190 106/150/224
s 1
f 109/98/162 110/152/161 115/155/225 117/125/183
s 7
f 110/151/164 111/68/163 116/126/181 115/156/226
f 112/100/168 113/154/167 118/157/227 120/127/186
s 4
f 113/153/172 114/70/171 119/128/182 118/158/228
s off
f 121/164/229 122/162/230 125/159/231 126/169/232
f 122/162/233 121/164/234 124/165/235 123/160/236
f 123/160/237 124/165/238 127/168/239 128/161/240
f 126/169/241 125/159/242 128/161/243 127/168/244
f 123/160/245 128/161/246 125/159/247 122/162/248
f 60/170/249 59/163/250 124/165/251 121/164/252
f 124/165/253 59/163/254 72/166/255 127/168/256
f 72/166/257 71/167/258 126/169/259 127/168/260
f 121/164/261 126/169/262 71/167/263 60/170/264
f 50/64/265 41/116/266 129/172/267 130/171/268
f 41/116/269 48/62/270 131/173/271 129/172/272
f 48/62/273 51/104/274 132/174/275 131/173/276
f 51/104/277 50/64/278 130/171/279 132/174/280
g default
v -26.620230 5.601012 24.992192
v -26.608921 5.601012 24.763502
v -26.710038 5.601012 24.987749
v -26.698707 5.601012 24.759089
v -26.620230 5.629660 24.992192
v -26.625437 5.641707 24.990001
v -26.637889 5.646694 24.984743
v -26.627184 5.646694 24.769175
v -26.614280 5.641707 24.765160
v -26.608921 5.629660 24.763502
v -26.691787 5.646694 24.982096
v -26.704679 5.641707 24.986077
v -26.710038 5.629660 24.987749
v -26.681079 5.646694 24.766501
v -26.693544 5.641707 24.761230
v -26.698707 5.629660 24.759089
vt 0.625000 0.750000
vt 0.375000 1.000000
vt 0.625000 1.000000
vt 0.625000 0.000000
vt 0.375000 0.156777
vt 0.382160 0.299995
vt 0.617840 0.299995
vt 0.617840 0.450006
vt 0.625000 0.593223
vt 0.375000 0.750000
vt 0.875000 0.000000
vt 0.625000 0.156777
vt 0.125000 0.000000
vt 0.375000 0.000000
vt 0.125000 0.156777
vt 0.875000 0.156777
vt 0.375000 0.593223
vt 0.382160 0.450006
vt 0.375000 0.250000
vt 0.625000 0.250000
vt 0.375000 0.500000
vt 0.125000 0.250000
vt 0.625000 0.500000
vt 0.875000 0.250000
vn 0.000000 -1.000000 0.000000
vn 0.000000 -1.000000 0.000000
vn 0.000000 -1.000000 0.000000
vn 0.000000 -1.000000 0.000000
vn 0.106806 0.993658 0.035162
vn 0.365209 0.930749 0.018131
vn 0.365209 0.930749 0.018131
vn 0.077743 0.996858 -0.015170
vn 0.914441 0.402175 0.045297
vn 0.991244 0.122597 0.049041
vn 0.991076 0.123949 0.049033
vn 0.914441 0.402175 0.045297
vn 0.998780 0.000000 0.049390
vn 0.998780 0.000000 0.049390
vn -0.107016 0.993633 -0.035240
vn -0.077760 0.996856 0.015234
vn -0.991153 0.123305 -0.049110
vn -0.991299 0.122124 -0.049117
vn -0.998775 0.000000 -0.049492
vn -0.998775 0.000000 -0.049492
vn 0.049093 0.000000 -0.998794
vn 0.049093 0.000000 -0.998794
vn 0.049102 0.043462 -0.997848
vn 0.049101 0.044565 -0.997799
vn -0.049411 0.000000 0.998779
vn -0.049411 0.000000 0.998779
vn -0.049372 0.044136 0.997805
vn -0.049370 0.045288 0.997753
vn 0.036235 0.681843 -0.730601
vn 0.036235 0.681843 -0.730601
vn 0.048692 0.155954 -0.986563
vn 0.048692 0.155954 -0.986563
vn -0.048820 0.158442 0.986161
vn -0.048820 0.158442 0.986161
vn -0.036135 0.679980 0.732340
vn -0.036135 0.679980 0.732340
vn -0.915185 0.400476 -0.045336
vn -0.915185 0.400476 -0.045336
vn -0.365234 0.930739 -0.018112
vn -0.365234 0.930739 -0.018112
s off
g Hallway_Masters:BaseClock Hallway_Masters:ButtonVolumeUp
usemtl initialShadingGroup
f 135/184/281 136/175/282 134/177/283 133/176/284
s 1
f 139/180/285 138/193/286 141/194/287 140/181/288
s 2
f 138/193/289 137/179/290 142/186/291 141/194/292
f 133/188/293 134/178/294 142/186/291 137/179/290
s 1
f 139/180/285 140/181/288 146/182/295 143/192/296
s 3
f 145/191/297 148/183/298 136/175/299 135/184/300
s 4
f 134/178/301 136/185/302 148/190/303 142/186/304
s 5
f 135/187/305 133/188/306 137/179/307 145/189/308
s 1
f 140/181/288 141/194/309 147/197/310 146/182/295
s 4
f 141/194/311 142/186/304 148/190/303 147/198/312
s 5
f 137/179/307 138/193/313 144/196/314 145/189/308
s 1
f 138/193/315 139/180/285 143/192/296 144/195/316
s 3
f 145/191/297 144/195/317 147/197/318 148/183/298
s 1
f 144/195/319 143/192/296 146/182/295 147/197/320
g default
v -26.595117 5.601012 24.485330
v -26.583806 5.601012 24.256652
v -26.684953 5.601012 24.480901
v -26.673625 5.601012 24.252209
v -26.595117 5.629660 24.485330
v -26.600281 5.641707 24.483170
v -26.612773 5.646694 24.477900
v -26.602090 5.646694 24.262339
v -26.589165 5.641707 24.258335
v -26.583806 5.629660 24.256652
v -26.666679 5.646694 24.475231
v -26.679607 5.641707 24.479239
v -26.684953 5.629660 24.480901
v -26.655974 5.646694 24.259666
v -26.668448 5.641707 24.254395
v -26.673625 5.629660 24.252209
vt 0.625000 0.750000
vt 0.375000 1.000000
vt 0.625000 1.000000
vt 0.625000 0.000000
vt 0.375000 0.156777
vt 0.382160 0.299995
vt 0.617840 0.299995
vt 0.617840 0.450006
vt 0.625000 0.593223
vt 0.375000 0.750000
vt 0.875000 0.000000
vt 0.625000 0.156777
vt 0.125000 0.000000
vt 0.375000 0.000000
vt 0.125000 0.156777
vt 0.875000 0.156777
vt 0.375000 0.593223
vt 0.382160 0.450006
vt 0.375000 0.250000
vt 0.625000 0.250000
vt 0.375000 0.500000
vt 0.125000 0.250000
vt 0.625000 0.500000
vt 0.875000 0.250000
vn 0.000000 -1.000000 0.000000
vn 0.000000 -1.000000 0.000000
vn 0.000000 -1.000000 0.000000
vn 0.000000 -1.000000 0.000000
vn 0.106905 0.993645 0.035220
vn 0.364514 0.931023 0.018041
vn 0.364514 0.931023 0.018041
vn 0.077686 0.996862 -0.015189
vn 0.915122 0.400629 0.045256
vn 0.991303 0.122125 0.049032
vn 0.991154 0.123327 0.049025
vn 0.915122 0.400629 0.045256
vn 0.998779 0.000000 0.049406
vn 0.998779 0.000000 0.049406
vn -0.106953 0.993640 -0.035230
vn -0.077720 0.996859 0.015193
vn -0.991144 0.123375 -0.049110
vn -0.991308 0.122049 -0.049118
vn -0.998775 0.000000 -0.049473
vn -0.998775 0.000000 -0.049473
vn 0.049405 0.000000 -0.998779
vn 0.049405 0.000000 -0.998779
vn 0.049392 0.044235 -0.997799
vn 0.049390 0.045387 -0.997748
vn -0.049231 0.000000 0.998787
vn -0.049231 0.000000 0.998787
vn -0.049222 0.043703 0.997831
vn -0.049221 0.044824 0.997782
vn 0.036299 0.681417 -0.730995
vn 0.036299 0.681417 -0.730995
vn 0.048905 0.158743 -0.986108
vn 0.048905 0.158743 -0.986108
vn -0.048760 0.156824 0.986422
vn -0.048760 0.156824 0.986422
vn -0.036226 0.681475 0.730944
vn -0.036225 0.681475 0.730944
vn -0.915125 0.400608 -0.045376
vn -0.915125 0.400608 -0.045376
vn -0.364645 0.930971 -0.018103
vn -0.364645 0.930971 -0.018103
s off
g Hallway_Masters:BaseClock Hallway_Masters:ButtonVolumeDown
usemtl initialShadingGroup
f 151/208/321 152/199/322 150/201/323 149/200/324
s 1
f 155/204/325 154/217/326 157/218/327 156/205/328
s 2
f 154/217/329 153/203/330 158/210/331 157/218/332
f 149/212/333 150/202/334 158/210/331 153/203/330
s 1
f 155/204/325 156/205/328 162/206/335 159/216/336
s 3
f 161/215/337 164/207/338 152/199/339 151/208/340
s 4
f 150/202/341 152/209/342 164/214/343 158/210/344
s 5
f 151/211/345 149/212/346 153/203/347 161/213/348
s 1
f 156/205/328 157/218/349 163/221/350 162/206/335
s 4
f 157/218/351 158/210/344 164/214/343 163/222/352
s 5
f 153/203/347 154/217/353 160/220/354 161/213/348
s 1
f 154/217/355 155/204/325 159/216/336 160/219/356
s 3
f 161/215/337 160/219/357 163/221/358 164/207/338
s 1
f 160/219/359 159/216/336 162/206/335 163/221/360
g default
v -26.579589 5.601012 24.170902
v -26.575149 5.601012 24.081629
v -26.669381 5.601012 24.166445
v -26.664957 5.601012 24.077164
v -26.579589 5.629660 24.170902
v -26.584796 5.641707 24.169891
v -26.597392 5.646694 24.167456
v -26.593229 5.646694 24.083306
v -26.580443 5.641707 24.082116
v -26.575149 5.629660 24.081629
v -26.651295 5.646694 24.164770
v -26.664079 5.641707 24.165966
v -26.669381 5.629660 24.166445
v -26.647103 5.646694 24.080630
v -26.659739 5.641707 24.078195
v -26.664957 5.629660 24.077164
vt 0.625000 0.750000
vt 0.375000 1.000000
vt 0.625000 1.000000
vt 0.625000 0.000000
vt 0.375000 0.156777
vt 0.382160 0.299995
vt 0.617840 0.299995
vt 0.617840 0.450006
vt 0.625000 0.593223
vt 0.375000 0.750000
vt 0.875000 0.000000
vt 0.625000 0.156777
vt 0.125000 0.000000
vt 0.375000 0.000000
vt 0.125000 0.156777
vt 0.875000 0.156777
vt 0.375000 0.593223
vt 0.382160 0.450006
vt 0.375000 0.250000
vt 0.625000 0.250000
vt 0.375000 0.500000
vt 0.125000 0.250000
vt 0.625000 0.500000
vt 0.875000 0.250000
vn 0.000000 -1.000000 0.000005
vn 0.000000 -1.000000 0.000005
vn 0.000000 -1.000000 0.000005
vn 0.000000 -1.000000 0.000005
vn 0.094688 0.992162 0.081545
vn 0.364879 0.930880 0.018074
vn 0.364879 0.930880 0.018074
vn 0.070432 0.996282 -0.049620
vn 0.915397 0.399978 0.045460
vn 0.990954 0.124835 0.049263
vn 0.990789 0.126136 0.049255
vn 0.915397 0.399978 0.045460
vn 0.998766 0.000000 0.049672
vn 0.998766 0.000000 0.049672
vn -0.094601 0.992174 -0.081493
vn -0.070408 0.996286 0.049559
vn -0.990778 0.126300 -0.049073
vn -0.990952 0.124923 -0.049082
vn -0.998775 0.000000 -0.049485
vn -0.998775 0.000000 -0.049485
vn 0.049659 0.000000 -0.998766
vn 0.049659 0.000000 -0.998766
vn 0.049617 0.017523 -0.998615
vn 0.049616 0.017702 -0.998611
vn -0.049586 0.000000 0.998770
vn -0.049586 0.000000 0.998770
vn -0.049555 0.017196 0.998623
vn -0.049554 0.017367 0.998620
vn 0.046510 0.341698 -0.938658
vn 0.046510 0.341698 -0.938658
vn 0.049437 0.063018 -0.996787
vn 0.049437 0.063018 -0.996787
vn -0.049406 0.061833 0.996863
vn -0.049406 0.061833 0.996863
vn -0.046586 0.342541 0.938347
vn -0.046586 0.342541 0.938347
vn -0.915234 0.400368 -0.045297
vn -0.915234 0.400368 -0.045297
vn -0.364454 0.931046 -0.018088
vn -0.364454 0.931046 -0.018088
s off
g Hallway_Masters:BaseClock Hallway_Masters:ButtonOn_Off
usemtl initialShadingGroup
f 167/232/361 168/223/362 166/225/363 165/224/364
s 1
f 171/228/365 170/241/366 173/242/367 172/229/368
s 2
f 170/241/369 169/227/370 174/234/371 173/242/372
f 165/236/373 166/226/374 174/234/371 169/227/370
s 1
f 171/228/365 172/229/368 178/230/375 175/240/376
s 3
f 177/239/377 180/231/378 168/223/379 167/232/380
s 4
f 166/226/381 168/233/382 180/238/383 174/234/384
s 5
f 167/235/385 165/236/386 169/227/387 177/237/388
s 1
f 172/229/368 173/242/389 179/245/390 178/230/375
s 4
f 173/242/391 174/234/384 180/238/383 179/246/392
s 5
f 169/227/387 170/241/393 176/244/394 177/237/388
s 1
f 170/241/395 171/228/365 175/240/376 176/243/396
s 3
f 177/239/377 176/243/397 179/245/398 180/231/378
s 1
f 176/243/399 175/240/376 178/230/375 179/245/400
