# This file uses centimeters as units for non-parametric coordinates.

mtllib RoofPillers.mtl
g default
v 10.021381 16.199985 10.541353
v -8.090525 16.199985 10.541353
v -8.090525 16.199985 8.760370
v 10.021381 16.199985 8.760369
v 10.021381 15.699985 10.541353
v -8.090525 15.699985 10.541353
v -8.090525 15.699985 8.760370
v 10.021381 15.699985 8.760369
vt 0.602500 0.980769
vt 0.375000 0.980769
vt 0.375000 0.961538
vt 0.602500 0.961538
vt 0.602500 0.980769
vt 0.375000 0.980769
vt 0.375000 0.961538
vt 0.602500 0.961538
vt 0.602500 0.980769
vt 0.375000 0.980769
vt 0.375000 0.961538
vt 0.602500 0.961538
vn 0.000000 -1.000000 0.000000
vn 0.000000 -1.000000 0.000000
vn 0.000000 -1.000000 0.000000
vn 0.000000 -1.000000 0.000000
vn 0.000000 1.000000 0.000000
vn 0.000000 1.000000 0.000000
vn 0.000000 1.000000 0.000000
vn 0.000000 1.000000 0.000000
vn 0.000000 0.000000 1.000000
vn 0.000000 0.000000 1.000000
vn 0.000000 0.000000 1.000000
vn 0.000000 0.000000 1.000000
vn -1.000000 0.000000 0.000000
vn -1.000000 0.000000 0.000000
vn -1.000000 0.000000 0.000000
vn -1.000000 0.000000 0.000000
vn -0.000000 0.000000 -1.000000
vn -0.000000 0.000000 -1.000000
vn -0.000000 0.000000 -1.000000
vn -0.000000 0.000000 -1.000000
vn 1.000000 0.000000 0.000000
vn 1.000000 0.000000 0.000000
vn 1.000000 0.000000 0.000000
vn 1.000000 0.000000 0.000000
s off
g Vertical_RoofPiller
usemtl lambert1SG
f 5/9/1 6/10/2 7/11/3 8/12/4
f 1/5/5 4/8/6 3/7/7 2/6/8
f 1/1/9 2/2/10 6/10/11 5/9/12
f 2/2/13 3/3/14 7/11/15 6/10/16
f 3/3/17 4/4/18 8/12/19 7/11/20
f 4/4/21 1/1/22 5/9/23 8/12/24
g default
v 10.021381 16.199985 5.662052
v -8.090525 16.199985 5.662052
v -8.090525 16.199985 3.881069
v 10.021381 16.199985 3.881068
v 10.021381 15.699985 5.662052
v -8.090525 15.699985 5.662052
v -8.090525 15.699985 3.881069
v 10.021381 15.699985 3.881068
vt 0.602500 0.980769
vt 0.375000 0.980769
vt 0.375000 0.961538
vt 0.602500 0.961538
vt 0.602500 0.980769
vt 0.375000 0.980769
vt 0.375000 0.961538
vt 0.602500 0.961538
vt 0.602500 0.980769
vt 0.375000 0.980769
vt 0.375000 0.961538
vt 0.602500 0.961538
vn 0.000000 -1.000000 0.000000
vn 0.000000 -1.000000 0.000000
vn 0.000000 -1.000000 0.000000
vn 0.000000 -1.000000 0.000000
vn 0.000000 1.000000 0.000000
vn 0.000000 1.000000 0.000000
vn 0.000000 1.000000 0.000000
vn 0.000000 1.000000 0.000000
vn 0.000000 0.000000 1.000000
vn 0.000000 0.000000 1.000000
vn 0.000000 0.000000 1.000000
vn 0.000000 0.000000 1.000000
vn -1.000000 0.000000 0.000000
vn -1.000000 0.000000 0.000000
vn -1.000000 0.000000 0.000000
vn -1.000000 0.000000 0.000000
vn -0.000000 0.000000 -1.000000
vn -0.000000 0.000000 -1.000000
vn -0.000000 0.000000 -1.000000
vn -0.000000 0.000000 -1.000000
vn 1.000000 0.000000 0.000000
vn 1.000000 0.000000 0.000000
vn 1.000000 0.000000 0.000000
vn 1.000000 0.000000 0.000000
s off
g Vertical_RoofPiller2
usemtl lambert1SG
f 13/21/25 14/22/26 15/23/27 16/24/28
f 9/17/29 12/20/30 11/19/31 10/18/32
f 9/13/33 10/14/34 14/22/35 13/21/36
f 10/14/37 11/15/38 15/23/39 14/22/40
f 11/15/41 12/16/42 16/24/43 15/23/44
f 12/16/45 9/13/46 13/21/47 16/24/48
g default
v 10.021381 16.199985 -4.014148
v -8.090525 16.199985 -4.014148
v -8.090525 16.199985 -5.795131
v 10.021381 16.199985 -5.795132
v 10.021381 15.699985 -4.014148
v -8.090525 15.699985 -4.014148
v -8.090525 15.699985 -5.795131
v 10.021381 15.699985 -5.795132
vt 0.602500 0.980769
vt 0.375000 0.980769
vt 0.375000 0.961538
vt 0.602500 0.961538
vt 0.602500 0.980769
vt 0.375000 0.980769
vt 0.375000 0.961538
vt 0.602500 0.961538
vt 0.602500 0.980769
vt 0.375000 0.980769
vt 0.375000 0.961538
vt 0.602500 0.961538
vn 0.000000 -1.000000 0.000000
vn 0.000000 -1.000000 0.000000
vn 0.000000 -1.000000 0.000000
vn 0.000000 -1.000000 0.000000
vn 0.000000 1.000000 0.000000
vn 0.000000 1.000000 0.000000
vn 0.000000 1.000000 0.000000
vn 0.000000 1.000000 0.000000
vn 0.000000 0.000000 1.000000
vn 0.000000 0.000000 1.000000
vn 0.000000 0.000000 1.000000
vn 0.000000 0.000000 1.000000
vn -1.000000 0.000000 0.000000
vn -1.000000 0.000000 0.000000
vn -1.000000 0.000000 0.000000
vn -1.000000 0.000000 0.000000
vn -0.000000 0.000000 -1.000000
vn -0.000000 0.000000 -1.000000
vn -0.000000 0.000000 -1.000000
vn -0.000000 0.000000 -1.000000
vn 1.000000 0.000000 0.000000
vn 1.000000 0.000000 0.000000
vn 1.000000 0.000000 0.000000
vn 1.000000 0.000000 0.000000
s off
g Vertical_RoofPiller3
usemtl lambert1SG
f 21/33/49 22/34/50 23/35/51 24/36/52
f 17/29/53 20/32/54 19/31/55 18/30/56
f 17/25/57 18/26/58 22/34/59 21/33/60
f 18/26/61 19/27/62 23/35/63 22/34/64
f 19/27/65 20/28/66 24/36/67 23/35/68
f 20/28/69 17/25/70 21/33/71 24/36/72
g default
v 12.017406 15.690398 11.520019
v 12.017406 15.690398 -11.632776
v 10.018067 15.690398 -11.632776
v 10.018067 15.690398 11.520019
v 12.017406 16.190398 -11.632776
v 12.017406 16.190398 11.520019
v 10.018067 16.190398 -11.632776
v 10.018067 16.190398 11.520019
vt 0.875000 0.000000
vt 0.625000 0.000000
vt 0.875000 0.000000
vt 0.625000 0.000000
vt 0.625000 0.000000
vt 0.875000 0.000000
vt 0.875000 0.000000
vt 0.625000 0.000000
vt 0.625000 0.000000
vt 0.875000 0.000000
vt 0.875000 0.000000
vt 0.625000 0.000000
vn 0.000000 1.000000 0.000000
vn 0.000000 1.000000 0.000000
vn 0.000000 1.000000 0.000000
vn 0.000000 1.000000 0.000000
vn 0.000000 -1.000000 0.000000
vn 0.000000 -1.000000 0.000000
vn 0.000000 -1.000000 0.000000
vn 0.000000 -1.000000 0.000000
vn 1.000000 0.000000 0.000000
vn 1.000000 0.000000 0.000000
vn 1.000000 0.000000 0.000000
vn 1.000000 0.000000 0.000000
vn 0.000000 0.000000 -1.000000
vn 0.000000 0.000000 -1.000000
vn 0.000000 0.000000 -1.000000
vn 0.000000 0.000000 -1.000000
vn -1.000000 0.000000 0.000000
vn -1.000000 0.000000 0.000000
vn -1.000000 0.000000 0.000000
vn -1.000000 0.000000 0.000000
vn 0.000000 0.000000 1.000000
vn 0.000000 0.000000 1.000000
vn 0.000000 0.000000 1.000000
vn 0.000000 0.000000 1.000000
s off
g HozRoofPiller
usemtl lambert1SG
f 30/45/73 29/46/74 31/47/75 32/48/76
f 25/41/77 28/44/78 27/43/79 26/42/80
f 25/38/81 26/37/82 29/46/83 30/45/84
f 26/37/85 27/39/86 31/47/87 29/46/88
f 27/39/89 28/40/90 32/48/91 31/47/92
f 28/40/93 25/38/94 30/45/95 32/48/96
g default
v 10.021381 16.199985 0.587807
v -8.090525 16.199985 0.587807
v -8.090525 16.199985 -1.193176
v 10.021381 16.199985 -1.193177
v 10.021381 15.699985 0.587807
v -8.090525 15.699985 0.587807
v -8.090525 15.699985 -1.193176
v 10.021381 15.699985 -1.193177
vt 0.602500 0.980769
vt 0.375000 0.980769
vt 0.375000 0.961538
vt 0.602500 0.961538
vt 0.602500 0.980769
vt 0.375000 0.980769
vt 0.375000 0.961538
vt 0.602500 0.961538
vt 0.602500 0.980769
vt 0.375000 0.980769
vt 0.375000 0.961538
vt 0.602500 0.961538
vn 0.000000 -1.000000 0.000000
vn 0.000000 -1.000000 0.000000
vn 0.000000 -1.000000 0.000000
vn 0.000000 -1.000000 0.000000
vn 0.000000 1.000000 0.000000
vn 0.000000 1.000000 0.000000
vn 0.000000 1.000000 0.000000
vn 0.000000 1.000000 0.000000
vn 0.000000 0.000000 1.000000
vn 0.000000 0.000000 1.000000
vn 0.000000 0.000000 1.000000
vn 0.000000 0.000000 1.000000
vn -1.000000 0.000000 0.000000
vn -1.000000 0.000000 0.000000
vn -1.000000 0.000000 0.000000
vn -1.000000 0.000000 0.000000
vn -0.000000 0.000000 -1.000000
vn -0.000000 0.000000 -1.000000
vn -0.000000 0.000000 -1.000000
vn -0.000000 0.000000 -1.000000
vn 1.000000 0.000000 0.000000
vn 1.000000 0.000000 0.000000
vn 1.000000 0.000000 0.000000
vn 1.000000 0.000000 0.000000
s off
g Vertical_RoofPiller4
usemtl lambert1SG
f 37/57/97 38/58/98 39/59/99 40/60/100
f 33/53/101 36/56/102 35/55/103 34/54/104
f 33/49/105 34/50/106 38/58/107 37/57/108
f 34/50/109 35/51/110 39/59/111 38/58/112
f 35/51/113 36/52/114 40/60/115 39/59/116
f 36/52/117 33/49/118 37/57/119 40/60/120
g default
v 10.021381 16.199985 -8.727478
v -8.090525 16.199985 -8.727478
v -8.090525 16.199985 -10.508461
v 10.021381 16.199985 -10.508462
v 10.021381 15.699985 -8.727478
v -8.090525 15.699985 -8.727478
v -8.090525 15.699985 -10.508461
v 10.021381 15.699985 -10.508462
vt 0.602500 0.980769
vt 0.375000 0.980769
vt 0.375000 0.961538
vt 0.602500 0.961538
vt 0.602500 0.980769
vt 0.375000 0.980769
vt 0.375000 0.961538
vt 0.602500 0.961538
vt 0.602500 0.980769
vt 0.375000 0.980769
vt 0.375000 0.961538
vt 0.602500 0.961538
vn 0.000000 -1.000000 0.000000
vn 0.000000 -1.000000 0.000000
vn 0.000000 -1.000000 0.000000
vn 0.000000 -1.000000 0.000000
vn 0.000000 1.000000 0.000000
vn 0.000000 1.000000 0.000000
vn 0.000000 1.000000 0.000000
vn 0.000000 1.000000 0.000000
vn 0.000000 0.000000 1.000000
vn 0.000000 0.000000 1.000000
vn 0.000000 0.000000 1.000000
vn 0.000000 0.000000 1.000000
vn -1.000000 0.000000 0.000000
vn -1.000000 0.000000 0.000000
vn -1.000000 0.000000 0.000000
vn -1.000000 0.000000 0.000000
vn -0.000000 0.000000 -1.000000
vn -0.000000 0.000000 -1.000000
vn -0.000000 0.000000 -1.000000
vn -0.000000 0.000000 -1.000000
vn 1.000000 0.000000 0.000000
vn 1.000000 0.000000 0.000000
vn 1.000000 0.000000 0.000000
vn 1.000000 0.000000 0.000000
s off
g Vertical_RoofPiller1
usemtl lambert1SG
f 45/69/121 46/70/122 47/71/123 48/72/124
f 41/65/125 44/68/126 43/67/127 42/66/128
f 41/61/129 42/62/130 46/70/131 45/69/132
f 42/62/133 43/63/134 47/71/135 46/70/136
f 43/63/137 44/64/138 48/72/139 47/71/140
f 44/64/141 41/61/142 45/69/143 48/72/144
g default
v -8.078484 15.690398 11.520019
v -8.078484 15.690398 -11.632776
v -10.077822 15.690398 -11.632776
v -10.077822 15.690398 11.520019
v -8.078484 16.190398 -11.632776
v -8.078484 16.190398 11.520019
v -10.077822 16.190398 -11.632776
v -10.077822 16.190398 11.520019
vt 0.875000 0.000000
vt 0.625000 0.000000
vt 0.875000 0.000000
vt 0.625000 0.000000
vt 0.625000 0.000000
vt 0.875000 0.000000
vt 0.875000 0.000000
vt 0.625000 0.000000
vt 0.625000 0.000000
vt 0.875000 0.000000
vt 0.875000 0.000000
vt 0.625000 0.000000
vn 0.000000 1.000000 0.000000
vn 0.000000 1.000000 0.000000
vn 0.000000 1.000000 0.000000
vn 0.000000 1.000000 0.000000
vn 0.000000 -1.000000 0.000000
vn 0.000000 -1.000000 0.000000
vn 0.000000 -1.000000 0.000000
vn 0.000000 -1.000000 0.000000
vn 1.000000 0.000000 0.000000
vn 1.000000 0.000000 0.000000
vn 1.000000 0.000000 0.000000
vn 1.000000 0.000000 0.000000
vn 0.000000 0.000000 -1.000000
vn 0.000000 0.000000 -1.000000
vn 0.000000 0.000000 -1.000000
vn 0.000000 0.000000 -1.000000
vn -1.000000 0.000000 0.000000
vn -1.000000 0.000000 0.000000
vn -1.000000 0.000000 0.000000
vn -1.000000 0.000000 0.000000
vn 0.000000 0.000000 1.000000
vn 0.000000 0.000000 1.000000
vn 0.000000 0.000000 1.000000
vn 0.000000 0.000000 1.000000
s off
g HozRoofPiller1
usemtl lambert1SG
f 54/81/145 53/82/146 55/83/147 56/84/148
f 49/77/149 52/80/150 51/79/151 50/78/152
f 49/74/153 50/73/154 53/82/155 54/81/156
f 50/73/157 51/75/158 55/83/159 53/82/160
f 51/75/161 52/76/162 56/84/163 55/83/164
f 52/76/165 49/74/166 54/81/167 56/84/168
