# This file uses centimeters as units for non-parametric coordinates.

mtllib Rug.mtl
g default
v -7.563820 0.210973 4.213998
v -1.165086 0.210973 4.213998
v -1.165086 0.210973 -2.184736
v -5.689672 0.210973 -0.310588
v 5.233648 0.210973 4.213997
v 3.359500 0.210973 -0.310588
v -1.165086 0.210973 10.612731
v -5.689672 0.210973 8.738583
v 3.359500 0.210973 8.738583
v -4.364453 0.210973 -1.327465
v -2.821199 0.210973 -1.966706
v -7.345789 0.210973 2.557885
v -6.706548 0.210973 1.014631
v 5.015617 0.210973 2.557884
v 4.376376 0.210973 1.014631
v 0.491027 0.210973 -1.966706
v 2.034281 0.210973 -1.327464
v -6.706548 0.210973 7.413364
v -7.345789 0.210973 5.870110
v -4.364453 0.210973 9.755460
v -2.821199 0.210973 10.394701
v 4.376376 0.210973 7.413365
v 5.015617 0.210973 5.870111
v 0.491027 0.210973 10.394701
v 2.034281 0.210973 9.755460
v -7.563820 0.210973 4.213998
v -1.165086 0.210973 -2.184736
v -2.821199 0.210973 -1.966706
v -4.364453 0.210973 -1.327465
v -5.689672 0.210973 -0.310588
v -6.706548 0.210973 1.014631
v -7.345789 0.210973 2.557885
v 5.233648 0.210973 4.213997
v 5.015617 0.210973 2.557884
v 4.376376 0.210973 1.014631
v 3.359500 0.210973 -0.310588
v 2.034281 0.210973 -1.327464
v 0.491027 0.210973 -1.966706
v -1.165086 0.210973 10.612731
v -7.345789 0.210973 5.870110
v -6.706548 0.210973 7.413364
v -5.689672 0.210973 8.738583
v -4.364453 0.210973 9.755460
v -2.821199 0.210973 10.394701
v 3.359500 0.210973 8.738583
v 4.376376 0.210973 7.413365
v 5.015617 0.210973 5.870111
v 0.491027 0.210973 10.394701
v 2.034281 0.210973 9.755460
v -7.563820 0.550743 4.213998
v -1.165086 0.550743 4.213998
v -1.165086 0.550743 -2.184736
v -2.821199 0.550743 -1.966706
v -4.364453 0.550743 -1.327465
v -5.689672 0.550743 -0.310588
v -6.706548 0.550743 1.014631
v -7.345789 0.550743 2.557885
v 5.233648 0.550743 4.213997
v 5.015617 0.550743 2.557884
v 4.376376 0.550743 1.014631
v 3.359500 0.550743 -0.310588
v 2.034281 0.550743 -1.327464
v 0.491027 0.550743 -1.966706
v -1.165086 0.550743 10.612731
v -7.345789 0.550743 5.870110
v -6.706548 0.550743 7.413364
v -5.689672 0.550743 8.738583
v -4.364453 0.550743 9.755460
v -2.821199 0.550743 10.394701
v 3.359500 0.550743 8.738583
v 4.376376 0.550743 7.413365
v 5.015617 0.550743 5.870111
v 0.491027 0.550743 10.394701
v 2.034281 0.550743 9.755460
v -3.122879 0.210973 -3.092589
v -1.165086 0.210973 -3.350333
v -3.122879 0.550743 -3.092589
v -1.165086 0.550743 -3.350333
v -4.947251 0.210973 -2.336902
v -4.947251 0.550743 -2.336902
v -6.513875 0.210973 -1.134792
v -6.513875 0.550743 -1.134792
v -7.715986 0.210973 0.431832
v -7.715986 0.550743 0.431832
v -8.471673 0.210973 2.256205
v -8.471673 0.550743 2.256205
v -8.729416 0.210973 4.213998
v -8.729416 0.550743 4.213998
v 6.399244 0.210973 4.213997
v 6.141500 0.210973 2.256204
v 6.141500 0.550743 2.256204
v 6.399244 0.550743 4.213997
v 5.385814 0.210973 0.431832
v 5.385814 0.550743 0.431832
v 4.183704 0.210973 -1.134792
v 4.183704 0.550743 -1.134792
v 2.617080 0.210973 -2.336902
v 2.617080 0.550743 -2.336902
v 0.792707 0.210973 -3.092588
v 0.792707 0.550743 -3.092588
v -8.471673 0.210973 6.171790
v -8.471673 0.550743 6.171790
v -7.715986 0.210973 7.996163
v -7.715986 0.550743 7.996163
v -6.513875 0.210973 9.562787
v -6.513875 0.550743 9.562787
v -4.947251 0.210973 10.764898
v -4.947251 0.550743 10.764898
v -3.122879 0.210973 11.520584
v -3.122879 0.550743 11.520584
v -1.165086 0.210973 11.778327
v -1.165086 0.550743 11.778327
v 4.183704 0.210973 9.562787
v 5.385814 0.210973 7.996164
v 5.385814 0.550743 7.996164
v 4.183704 0.550743 9.562787
v 6.141500 0.210973 6.171791
v 6.141500 0.550743 6.171791
v 0.792707 0.210973 11.520583
v 0.792707 0.550743 11.520583
v 2.617080 0.210973 10.764898
v 2.617080 0.550743 10.764898
vt 0.500000 0.500000
vt 0.500000 1.000000
vt 0.000000 1.000000
vt 0.000000 0.500000
vt 1.000000 0.500000
vt 1.000000 1.000000
vt 0.000000 0.000000
vt 0.500000 0.000000
vt 1.000000 0.000000
vt 0.166667 1.000000
vt 0.333333 1.000000
vt 0.000000 0.666667
vt 0.000000 0.833333
vt 1.000000 0.666667
vt 1.000000 0.833333
vt 0.666667 1.000000
vt 0.833333 1.000000
vt 0.000000 0.166667
vt 0.000000 0.333333
vt 0.166667 0.000000
vt 0.333333 0.000000
vt 1.000000 0.166667
vt 1.000000 0.333333
vt 0.666667 0.000000
vt 0.833333 0.000000
vt 0.000000 0.500000
vt 0.500000 0.500000
vt 0.500000 1.000000
vt 0.333333 1.000000
vt 0.166667 1.000000
vt 0.000000 1.000000
vt 0.000000 0.833333
vt 0.000000 0.666667
vt 1.000000 0.500000
vt 1.000000 0.666667
vt 1.000000 0.833333
vt 1.000000 1.000000
vt 0.833333 1.000000
vt 0.666667 1.000000
vt 0.500000 0.000000
vt 0.000000 0.333333
vt 0.000000 0.166667
vt 0.000000 0.000000
vt 0.166667 0.000000
vt 0.333333 0.000000
vt 1.000000 0.000000
vt 1.000000 0.166667
vt 1.000000 0.333333
vt 0.666667 0.000000
vt 0.833333 0.000000
vt 0.500000 1.000000
vt 0.333333 1.000000
vt 0.166667 1.000000
vt 0.000000 1.000000
vt 0.000000 0.833333
vt 0.000000 0.666667
vt 0.000000 0.500000
vt 1.000000 0.500000
vt 1.000000 0.666667
vt 1.000000 0.833333
vt 1.000000 1.000000
vt 0.833333 1.000000
vt 0.666667 1.000000
vt 0.000000 0.333333
vt 0.000000 0.166667
vt 0.000000 0.000000
vt 0.166667 0.000000
vt 0.333333 0.000000
vt 0.500000 0.000000
vt 1.000000 0.000000
vt 1.000000 0.166667
vt 1.000000 0.333333
vt 0.666667 0.000000
vt 0.833333 0.000000
vt 0.500000 1.000000
vt 0.333333 1.000000
vt 0.166667 1.000000
vt 0.000000 1.000000
vt 0.000000 0.833333
vt 0.000000 0.666667
vt 0.000000 0.500000
vt 1.000000 0.500000
vt 1.000000 0.666667
vt 1.000000 0.833333
vt 1.000000 1.000000
vt 0.833333 1.000000
vt 0.666667 1.000000
vt 0.000000 0.333333
vt 0.000000 0.166667
vt 0.000000 0.000000
vt 0.166667 0.000000
vt 0.333333 0.000000
vt 0.500000 0.000000
vt 1.000000 0.000000
vt 1.000000 0.166667
vt 1.000000 0.333333
vt 0.666667 0.000000
vt 0.833333 0.000000
vt 0.500000 1.000000
vt 0.333333 1.000000
vt 0.333333 1.000000
vt 0.500000 1.000000
vt 0.166667 1.000000
vt 0.166667 1.000000
vt 0.000000 1.000000
vt 0.000000 1.000000
vt 0.000000 0.833333
vt 0.000000 0.833333
vt 0.000000 0.666667
vt 0.000000 0.666667
vt 0.000000 0.500000
vt 0.000000 0.500000
vt 1.000000 0.500000
vt 1.000000 0.666667
vt 1.000000 0.666667
vt 1.000000 0.500000
vt 1.000000 0.833333
vt 1.000000 0.833333
vt 1.000000 1.000000
vt 1.000000 1.000000
vt 0.833333 1.000000
vt 0.833333 1.000000
vt 0.666667 1.000000
vt 0.666667 1.000000
vt 0.000000 0.333333
vt 0.000000 0.333333
vt 0.000000 0.166667
vt 0.000000 0.166667
vt 0.000000 0.000000
vt 0.000000 0.000000
vt 0.166667 0.000000
vt 0.166667 0.000000
vt 0.333333 0.000000
vt 0.333333 0.000000
vt 0.500000 0.000000
vt 0.500000 0.000000
vt 1.000000 0.000000
vt 1.000000 0.166667
vt 1.000000 0.166667
vt 1.000000 0.000000
vt 1.000000 0.333333
vt 1.000000 0.333333
vt 0.666667 0.000000
vt 0.666667 0.000000
vt 0.833333 0.000000
vt 0.833333 0.000000
vn 0.000000 1.000000 -0.000000
vn 0.000000 1.000000 -0.000000
vn 0.000000 1.000000 -0.000000
vn 0.000000 1.000000 0.000000
vn 0.000000 1.000000 0.000000
vn 0.000000 1.000000 0.000000
vn 0.000000 1.000000 0.000000
vn 0.000000 1.000000 0.000000
vn -0.000000 1.000000 -0.000000
vn 0.000000 1.000000 -0.000000
vn 0.000000 1.000000 -0.000000
vn 0.000000 1.000000 -0.000000
vn 0.000000 1.000000 -0.000000
vn 0.000000 1.000000 -0.000000
vn 0.000000 1.000000 -0.000000
vn 0.000000 1.000000 -0.000000
vn 0.000000 1.000000 -0.000000
vn 0.000000 1.000000 -0.000000
vn 0.000000 1.000000 -0.000000
vn 0.000000 1.000000 -0.000000
vn -0.000000 1.000000 -0.000000
vn -0.000000 1.000000 -0.000000
vn -0.000000 1.000000 -0.000000
vn -0.000000 1.000000 -0.000000
vn -0.000000 1.000000 -0.000000
vn 0.000000 -1.000000 0.000000
vn 0.000000 -1.000000 0.000000
vn 0.000000 -1.000000 0.000000
vn 0.000000 -1.000000 0.000000
vn 0.000000 -1.000000 0.000000
vn 0.000000 -1.000000 0.000000
vn 0.000000 -1.000000 0.000000
vn 0.000000 -1.000000 0.000000
vn 0.000000 -1.000000 0.000000
vn 0.000000 -1.000000 0.000000
vn 0.000000 -1.000000 0.000000
vn 0.000000 -1.000000 0.000000
vn 0.000000 -1.000000 0.000000
vn 0.000000 -1.000000 0.000000
vn 0.000000 -1.000000 -0.000000
vn 0.000000 -1.000000 -0.000000
vn 0.000000 -1.000000 -0.000000
vn 0.000000 -1.000000 -0.000000
vn 0.000000 -1.000000 -0.000000
vn 0.000000 -1.000000 -0.000000
vn 0.000000 -1.000000 -0.000000
vn 0.000000 -1.000000 -0.000000
vn 0.000000 -1.000000 -0.000000
vn 0.000000 -1.000000 -0.000000
vn 0.000000 -1.000000 -0.000000
vn 0.000000 0.000000 0.000000
vn 0.000000 0.000000 0.000000
vn 0.000000 0.000000 0.000000
vn 0.000000 0.000000 0.000000
vn 0.000000 0.000000 0.000000
vn 0.000000 0.000000 0.000000
vn 0.000000 0.000000 0.000000
vn 0.000000 0.000000 0.000000
vn 0.000000 0.000000 0.000000
vn 0.000000 0.000000 0.000000
vn 0.000000 0.000000 0.000000
vn 0.000000 0.000000 0.000000
vn 0.000000 0.000000 0.000000
vn 0.000000 0.000000 0.000000
vn 0.000000 0.000000 0.000000
vn 0.000000 0.000000 0.000000
vn 0.000000 0.000000 0.000000
vn 0.000000 0.000000 0.000000
vn 0.000000 0.000000 0.000000
vn 0.000000 0.000000 0.000000
vn 0.000000 0.000000 0.000000
vn 0.000000 0.000000 0.000000
vn 0.000000 0.000000 0.000000
vn 0.000000 0.000000 0.000000
vn 0.000000 0.000000 0.000000
vn 0.000000 0.000000 0.000000
vn 0.000000 0.000000 0.000000
vn 0.000000 0.000000 0.000000
vn 0.000000 0.000000 0.000000
vn 0.000000 0.000000 0.000000
vn 0.000000 0.000000 0.000000
vn 0.000000 0.000000 0.000000
vn 0.000000 0.000000 0.000000
vn 0.000000 0.000000 0.000000
vn 0.000000 0.000000 0.000000
vn 0.000000 0.000000 0.000000
vn 0.000000 0.000000 0.000000
vn 0.000000 0.000000 0.000000
vn 0.000000 0.000000 0.000000
vn 0.000000 0.000000 0.000000
vn 0.000000 0.000000 0.000000
vn 0.000000 0.000000 0.000000
vn 0.000000 0.000000 0.000000
vn 0.000000 0.000000 0.000000
vn 0.000000 0.000000 0.000000
vn 0.000000 0.000000 0.000000
vn 0.000000 0.000000 0.000000
vn 0.000000 0.000000 0.000000
vn 0.000000 0.000000 0.000000
vn 0.000000 0.000000 0.000000
vn 0.000000 0.000000 0.000000
vn 0.000000 0.000000 0.000000
vn 0.000000 0.000000 0.000000
vn 0.000000 0.000000 0.000000
vn 0.000000 0.000000 0.000000
vn 0.000000 0.000000 0.000000
vn 0.000000 0.000000 0.000000
vn 0.000000 0.000000 0.000000
vn 0.000000 0.000000 0.000000
vn 0.000000 0.000000 0.000000
vn 0.000000 0.000000 0.000000
vn 0.000000 0.000000 0.000000
vn 0.000000 0.000000 0.000000
vn 0.000000 0.000000 0.000000
vn 0.000000 0.000000 0.000000
vn 0.000000 0.000000 0.000000
vn 0.000000 0.000000 0.000000
vn 0.000000 0.000000 0.000000
vn 0.000000 0.000000 0.000000
vn 0.000000 0.000000 0.000000
vn 0.000000 0.000000 0.000000
vn 0.000000 0.000000 0.000000
vn 0.000000 0.000000 0.000000
vn 0.000000 0.000000 0.000000
vn 0.000000 0.000000 0.000000
vn 0.000000 0.000000 0.000000
vn 0.000000 0.000000 0.000000
vn 0.000000 0.000000 0.000000
vn 0.000000 0.000000 0.000000
vn 0.000000 0.000000 0.000000
vn 0.000000 0.000000 0.000000
vn 0.000000 0.000000 0.000000
vn 0.000000 0.000000 0.000000
vn 0.000000 0.000000 0.000000
vn 0.000000 0.000000 0.000000
vn 0.000000 0.000000 0.000000
vn 0.000000 0.000000 0.000000
vn 0.000000 0.000000 0.000000
vn 0.000000 0.000000 0.000000
vn 0.000000 0.000000 0.000000
vn 0.000000 0.000000 0.000000
vn 0.000000 0.000000 0.000000
vn 0.000000 0.000000 0.000000
vn 0.000000 0.000000 0.000000
vn 0.000000 0.000000 0.000000
vn 0.000000 0.000000 0.000000
vn 0.000000 0.000000 -1.000000
vn -0.258820 0.000000 -0.965926
vn -0.258820 0.000000 -0.965926
vn 0.000000 0.000000 -1.000000
vn -0.500001 0.000000 -0.866025
vn -0.500001 0.000000 -0.866025
vn -0.707107 0.000000 -0.707107
vn -0.707107 0.000000 -0.707107
vn -0.866025 0.000000 -0.500001
vn -0.866025 0.000000 -0.500001
vn -0.965926 0.000000 -0.258819
vn -0.965926 0.000000 -0.258819
vn -1.000000 0.000000 -0.000000
vn -1.000000 0.000000 -0.000000
vn 1.000000 0.000000 0.000000
vn 0.965926 0.000000 -0.258819
vn 0.965926 0.000000 -0.258819
vn 1.000000 0.000000 0.000000
vn 0.866025 0.000000 -0.500001
vn 0.866025 0.000000 -0.500001
vn 0.707107 0.000000 -0.707107
vn 0.707107 0.000000 -0.707107
vn 0.500001 0.000000 -0.866025
vn 0.500001 0.000000 -0.866025
vn 0.258819 0.000000 -0.965926
vn 0.258819 0.000000 -0.965926
vn -0.965926 0.000000 0.258819
vn -0.965926 0.000000 0.258819
vn -0.866025 0.000000 0.500001
vn -0.866025 0.000000 0.500001
vn -0.707107 0.000000 0.707107
vn -0.707107 0.000000 0.707107
vn -0.500001 0.000000 0.866025
vn -0.500001 0.000000 0.866025
vn -0.258819 0.000000 0.965926
vn -0.258819 0.000000 0.965926
vn 0.000000 0.000000 1.000000
vn 0.000000 0.000000 1.000000
vn 0.707107 0.000000 0.707107
vn 0.866025 0.000000 0.500001
vn 0.866025 0.000000 0.500001
vn 0.707107 0.000000 0.707107
vn 0.965926 0.000000 0.258819
vn 0.965926 0.000000 0.258819
vn 0.258819 0.000000 0.965926
vn 0.258819 0.000000 0.965926
vn 0.500000 0.000000 0.866025
vn 0.500000 0.000000 0.866025
vn 0.000000 -1.000000 0.000000
vn 0.000000 -1.000000 0.000000
vn 0.000000 -1.000000 0.000000
vn 0.000000 -1.000000 0.000000
vn 0.000000 1.000000 -0.000000
vn 0.000000 1.000000 -0.000000
vn 0.000000 -1.000000 -0.000000
vn 0.000000 -1.000000 -0.000000
vn 0.000000 1.000000 0.000000
vn 0.000000 -1.000000 -0.000000
vn 0.000000 -1.000000 -0.000000
vn 0.000000 1.000000 0.000000
vn 0.000000 -1.000000 -0.000000
vn 0.000000 -1.000000 -0.000000
vn 0.000000 1.000000 -0.000000
vn 0.000000 -1.000000 -0.000000
vn 0.000000 -1.000000 -0.000000
vn 0.000000 1.000000 -0.000000
vn 0.000000 -1.000000 -0.000000
vn 0.000000 -1.000000 -0.000000
vn 0.000000 1.000000 0.000000
vn 0.000000 -1.000000 0.000000
vn 0.000000 -1.000000 0.000000
vn 0.000000 -1.000000 0.000000
vn 0.000000 -1.000000 -0.000000
vn 0.000000 1.000000 -0.000000
vn 0.000000 1.000000 0.000000
vn 0.000000 -1.000000 -0.000000
vn 0.000000 -1.000000 0.000000
vn 0.000000 1.000000 0.000000
vn 0.000000 -1.000000 -0.000000
vn 0.000000 -1.000000 -0.000000
vn 0.000000 1.000000 -0.000000
vn 0.000000 -1.000000 0.000000
vn 0.000000 -1.000000 0.000000
vn 0.000000 1.000000 -0.000000
vn 0.000000 -1.000000 0.000000
vn 0.000000 -1.000000 0.000000
vn 0.000000 1.000000 0.000000
vn 0.000000 -1.000000 0.000000
vn 0.000000 -1.000000 0.000000
vn 0.000000 1.000000 0.000000
vn 0.000000 -1.000000 0.000000
vn 0.000000 -1.000000 0.000000
vn 0.000000 1.000000 0.000000
vn 0.000000 -1.000000 0.000000
vn 0.000000 -1.000000 0.000000
vn 0.000000 1.000000 0.000000
vn 0.000000 -1.000000 0.000000
vn 0.000000 -1.000000 0.000000
vn 0.000000 1.000000 -0.000000
vn 0.000000 -1.000000 -0.000000
vn 0.000000 -1.000000 -0.000000
vn 0.000000 1.000000 -0.000000
vn 0.000000 -1.000000 0.000000
vn 0.000000 -1.000000 0.000000
vn 0.000000 1.000000 -0.000000
vn 0.000000 -1.000000 0.000000
vn 0.000000 -1.000000 0.000000
vn 0.000000 -1.000000 0.000000
vn 0.000000 -1.000000 0.000000
vn 0.000000 1.000000 0.000000
vn 0.000000 1.000000 0.000000
vn 0.000000 -1.000000 0.000000
vn 0.000000 -1.000000 0.000000
vn 0.000000 1.000000 -0.000000
vn 0.000000 -1.000000 -0.000000
vn 0.000000 -1.000000 -0.000000
vn 0.000000 1.000000 -0.000000
vn 0.000000 -1.000000 -0.000000
vn 0.000000 -1.000000 -0.000000
vn 0.000000 1.000000 0.000000
s 1
g Rug
usemtl initialShadingGroup
f 50/81/1 51/1/2 52/75/3 53/76/4 54/77/5 55/78/6 56/79/7 57/80/8
f 51/1/2 58/82/9 59/83/10 60/84/11 61/85/12 62/86/13 63/87/14 52/75/3
f 64/93/15 51/1/2 50/81/1 65/88/16 66/89/17 67/90/18 68/91/19 69/92/20
f 70/94/21 71/95/22 72/96/23 58/82/9 51/1/2 64/93/15 73/97/24 74/98/25
s 2
f 1/26/26 12/33/27 13/32/28 4/31/29 10/30/30 11/29/31 3/28/32 2/27/33
f 2/27/33 3/28/32 16/39/34 17/38/35 6/37/36 15/36/37 14/35/38 5/34/39
f 7/40/40 21/45/41 20/44/42 8/43/43 18/42/44 19/41/45 1/26/26 2/27/33
f 9/46/46 25/50/47 24/49/48 7/40/40 2/27/33 5/34/39 23/48/49 22/47/50
s off
f 3/2/51 11/11/52 28/52/53 27/51/54
f 11/11/55 10/10/56 29/53/57 28/52/58
f 10/10/59 4/3/60 30/54/61 29/53/62
f 4/3/63 13/13/64 31/55/65 30/54/66
f 13/13/67 12/12/68 32/56/69 31/55/70
f 12/12/71 1/4/72 26/57/73 32/56/74
f 5/5/75 14/14/76 34/59/77 33/58/78
f 14/14/79 15/15/80 35/60/81 34/59/82
f 15/15/83 6/6/84 36/61/85 35/60/86
f 6/6/87 17/17/88 37/62/89 36/61/90
f 17/17/91 16/16/92 38/63/93 37/62/94
f 16/16/95 3/2/96 27/51/97 38/63/98
f 1/4/99 19/19/100 40/64/101 26/57/102
f 19/19/103 18/18/104 41/65/105 40/64/106
f 18/18/107 8/7/108 42/66/109 41/65/110
f 8/7/111 20/20/112 43/67/113 42/66/114
f 20/20/115 21/21/116 44/68/117 43/67/118
f 21/21/119 7/8/120 39/69/121 44/68/122
f 9/9/123 22/22/124 46/71/125 45/70/126
f 22/22/127 23/23/128 47/72/129 46/71/130
f 23/23/131 5/5/132 33/58/133 47/72/134
f 7/8/135 24/24/136 48/73/137 39/69/138
f 24/24/139 25/25/140 49/74/141 48/73/142
f 25/25/143 9/9/144 45/70/145 49/74/146
s 3
f 76/99/147 75/100/148 77/101/149 78/102/150
f 75/100/148 79/103/151 80/104/152 77/101/149
f 79/103/151 81/105/153 82/106/154 80/104/152
f 81/105/153 83/107/155 84/108/156 82/106/154
f 83/107/155 85/109/157 86/110/158 84/108/156
f 85/109/157 87/111/159 88/112/160 86/110/158
f 89/113/161 90/114/162 91/115/163 92/116/164
f 90/114/162 93/117/165 94/118/166 91/115/163
f 93/117/165 95/119/167 96/120/168 94/118/166
f 95/119/167 97/121/169 98/122/170 96/120/168
f 97/121/169 99/123/171 100/124/172 98/122/170
f 99/123/171 76/99/147 78/102/150 100/124/172
f 87/111/159 101/125/173 102/126/174 88/112/160
f 101/125/173 103/127/175 104/128/176 102/126/174
f 103/127/175 105/129/177 106/130/178 104/128/176
f 105/129/177 107/131/179 108/132/180 106/130/178
f 107/131/179 109/133/181 110/134/182 108/132/180
f 109/133/181 111/135/183 112/136/184 110/134/182
f 113/137/185 114/138/186 115/139/187 116/140/188
f 114/138/186 117/141/189 118/142/190 115/139/187
f 117/141/189 89/113/161 92/116/164 118/142/190
f 111/135/183 119/143/191 120/144/192 112/136/184
f 119/143/191 121/145/193 122/146/194 120/144/192
f 121/145/193 113/137/185 116/140/188 122/146/194
s 6
f 27/51/195 28/52/196 75/100/197 76/99/198
s 1
f 53/76/4 52/75/3 78/102/199 77/101/200
s 6
f 28/52/196 29/53/201 79/103/202 75/100/197
s 1
f 54/77/5 53/76/4 77/101/200 80/104/203
s 6
f 29/53/201 30/54/204 81/105/205 79/103/202
s 1
f 55/78/6 54/77/5 80/104/203 82/106/206
s 6
f 30/54/204 31/55/207 83/107/208 81/105/205
s 1
f 56/79/7 55/78/6 82/106/206 84/108/209
s 6
f 31/55/207 32/56/210 85/109/211 83/107/208
s 1
f 57/80/8 56/79/7 84/108/209 86/110/212
s 6
f 32/56/210 26/57/213 87/111/214 85/109/211
s 1
f 50/81/1 57/80/8 86/110/212 88/112/215
s 6
f 33/58/216 34/59/217 90/114/218 89/113/219
s 1
f 59/83/10 58/82/9 92/116/220 91/115/221
s 6
f 34/59/217 35/60/222 93/117/223 90/114/218
s 1
f 60/84/11 59/83/10 91/115/221 94/118/224
s 6
f 35/60/222 36/61/225 95/119/226 93/117/223
s 1
f 61/85/12 60/84/11 94/118/224 96/120/227
s 6
f 36/61/225 37/62/228 97/121/229 95/119/226
s 1
f 62/86/13 61/85/12 96/120/227 98/122/230
s 6
f 37/62/228 38/63/231 99/123/232 97/121/229
s 1
f 63/87/14 62/86/13 98/122/230 100/124/233
s 6
f 38/63/231 27/51/195 76/99/198 99/123/232
s 1
f 52/75/3 63/87/14 100/124/233 78/102/199
s 6
f 26/57/213 40/64/234 101/125/235 87/111/214
s 1
f 65/88/16 50/81/1 88/112/215 102/126/236
s 6
f 40/64/234 41/65/237 103/127/238 101/125/235
s 1
f 66/89/17 65/88/16 102/126/236 104/128/239
s 6
f 41/65/237 42/66/240 105/129/241 103/127/238
s 1
f 67/90/18 66/89/17 104/128/239 106/130/242
s 6
f 42/66/240 43/67/243 107/131/244 105/129/241
s 1
f 68/91/19 67/90/18 106/130/242 108/132/245
s 6
f 43/67/243 44/68/246 109/133/247 107/131/244
s 1
f 69/92/20 68/91/19 108/132/245 110/134/248
s 6
f 44/68/246 39/69/249 111/135/250 109/133/247
s 1
f 64/93/15 69/92/20 110/134/248 112/136/251
s 6
f 45/70/252 46/71/253 114/138/254 113/137/255
s 1
f 71/95/22 70/94/21 116/140/256 115/139/257
s 6
f 46/71/253 47/72/258 117/141/259 114/138/254
s 1
f 72/96/23 71/95/22 115/139/257 118/142/260
s 6
f 47/72/258 33/58/216 89/113/219 117/141/259
s 1
f 58/82/9 72/96/23 118/142/260 92/116/220
s 6
f 39/69/249 48/73/261 119/143/262 111/135/250
s 1
f 73/97/24 64/93/15 112/136/251 120/144/263
s 6
f 48/73/261 49/74/264 121/145/265 119/143/262
s 1
f 74/98/25 73/97/24 120/144/263 122/146/266
s 6
f 49/74/264 45/70/252 113/137/255 121/145/265
s 1
f 70/94/21 74/98/25 122/146/266 116/140/256
