# This file uses centimeters as units for non-parametric coordinates.

mtllib WallPicture.mtl
g default
v 9.698730 6.080930 -14.040759
v 13.684638 7.443582 -14.040759
v 7.428726 12.720940 -14.040759
v 11.414635 14.083592 -14.040759
v 7.428726 12.720940 -14.292141
v 11.414635 14.083592 -14.292141
v 9.698730 6.080930 -14.292141
v 13.684638 7.443582 -14.292141
vt 0.375000 0.000000
vt 0.625000 0.000000
vt 0.375000 0.250000
vt 0.625000 0.250000
vt 0.375000 0.500000
vt 0.625000 0.500000
vt 0.375000 0.750000
vt 0.625000 0.750000
vt 0.375000 1.000000
vt 0.625000 1.000000
vt 0.875000 0.000000
vt 0.875000 0.250000
vt 0.125000 0.000000
vt 0.125000 0.250000
vn 0.000000 0.000000 1.000000
vn 0.000000 0.000000 1.000000
vn 0.000000 0.000000 1.000000
vn 0.000000 0.000000 1.000000
vn -0.323486 0.946233 0.000000
vn -0.323486 0.946233 0.000000
vn -0.323486 0.946233 0.000000
vn -0.323486 0.946233 0.000000
vn 0.000000 0.000000 -1.000000
vn 0.000000 0.000000 -1.000000
vn 0.000000 0.000000 -1.000000
vn 0.000000 0.000000 -1.000000
vn 0.323486 -0.946233 0.000000
vn 0.323486 -0.946233 0.000000
vn 0.323486 -0.946233 0.000000
vn 0.323486 -0.946233 0.000000
vn 0.946233 0.323486 0.000000
vn 0.946233 0.323486 0.000000
vn 0.946233 0.323486 0.000000
vn 0.946233 0.323486 0.000000
vn -0.946233 -0.323486 0.000000
vn -0.946233 -0.323486 0.000000
vn -0.946233 -0.323486 0.000000
vn -0.946233 -0.323486 0.000000
s off
g Poster
usemtl initialShadingGroup
f 1/1/1 2/2/2 4/4/3 3/3/4
f 3/3/5 4/4/6 6/6/7 5/5/8
f 5/5/9 6/6/10 8/8/11 7/7/12
f 7/7/13 8/8/14 2/10/15 1/9/16
f 2/2/17 8/11/18 6/12/19 4/4/20
f 7/13/21 1/1/22 3/3/23 5/14/24
