# This file uses centimeters as units for non-parametric coordinates.

mtllib Lighter.mtl
g default
v -0.594809 3.633618 0.500000
v -0.160484 3.633618 0.500000
v -0.160484 3.633618 -0.500000
v -0.594809 3.633618 -0.500000
v -0.741135 3.633618 -0.377081
v -0.741135 3.633618 0.377081
v -0.837720 3.633618 -0.271691
v -0.837720 3.633618 0.271691
v -0.920981 3.633618 -0.104431
v -0.920981 3.633618 0.104431
v -0.160484 3.633618 -0.400000
v -0.594809 3.633618 -0.400000
v -0.741135 3.633618 -0.301665
v -0.837720 3.633618 -0.217353
v -0.920981 3.633618 -0.068970
v -0.160484 3.633618 0.410000
v -0.594809 3.633618 0.410000
v -0.741135 3.633618 0.309206
v -0.837720 3.633618 0.222787
v -0.920981 3.633618 0.070694
v -0.507944 3.633618 0.500000
v -0.507944 3.633618 0.410000
v -0.507944 3.633618 -0.400000
v -0.507944 3.633618 -0.500000
v -0.567311 3.633618 -0.080275
v -0.766841 3.633618 -0.082066
v -0.837720 3.633618 -0.129325
v -0.920981 3.633618 -0.041037
v -0.507944 3.633618 -0.238000
v -0.569103 3.633618 0.119255
v -0.768633 3.633618 0.117463
v -0.837720 3.633618 0.152365
v -0.920981 3.633618 0.048348
v -0.507944 3.633618 0.280400
v -0.630232 3.633618 -0.117359
v -0.703265 3.633618 -0.118015
v -0.532019 3.633618 0.056334
v -0.531363 3.633618 -0.016698
v -0.804581 3.633618 0.053887
v -0.803925 3.633618 -0.019146
v -0.632679 3.633618 0.155203
v -0.705712 3.633618 0.154547
v -0.799672 3.633618 -0.026362
v -0.594809 4.133618 0.500000
v -0.507944 4.133618 0.500000
v -0.507944 4.133618 0.410000
v -0.594809 4.133618 0.410001
v -0.741135 4.133618 0.309206
v -0.741135 4.133618 0.377081
v -0.837720 4.133618 0.222786
v -0.837720 4.133618 0.271689
v -0.920981 4.133618 0.070694
v -0.920981 4.133618 0.104431
v -0.507944 4.133618 -0.400000
v -0.594809 4.133618 -0.400000
v -0.507944 4.133618 -0.500000
v -0.594809 4.133618 -0.500000
v -0.741135 4.133618 -0.301665
v -0.741135 4.133618 -0.377081
v -0.837720 4.133618 -0.217353
v -0.837720 4.133618 -0.271691
v -0.920981 4.133618 -0.068970
v -0.920981 4.133618 -0.104431
v -0.507944 4.133618 0.280400
v -0.569103 4.133618 0.119255
v -0.632679 4.133618 0.155204
v -0.768633 4.133618 0.117460
v -0.837720 4.133618 0.152365
v -0.920981 4.133618 0.048347
v -0.160484 4.133618 0.500000
v -0.160484 4.133618 0.410000
v -0.160484 4.133618 -0.400000
v -0.160484 4.133618 -0.500000
v -0.703265 4.133618 -0.118016
v -0.766841 4.133618 -0.082065
v -0.837720 4.133618 -0.129324
v -0.920981 4.133618 -0.041037
v -0.507944 4.133618 -0.238000
v -0.567311 4.133618 -0.080275
v -0.804581 4.133618 0.053887
v -0.531363 4.133618 -0.016699
v -0.705712 4.133618 0.154547
v -0.630232 4.133618 -0.117359
v -0.799672 4.133618 -0.026359
v -0.803925 4.133618 -0.019146
v -0.532019 4.133618 0.056336
v -0.394490 3.425246 0.391283
v -0.076547 3.579930 0.402644
v -0.053630 3.592618 -0.411431
v -0.371573 3.437935 -0.422793
v 0.241396 3.734614 0.414006
v 0.264313 3.747302 -0.400070
v 0.351329 3.788287 0.317768
v 0.368613 3.797856 -0.296177
v 0.424448 3.824022 0.234500
v 0.436901 3.830917 -0.207856
v 0.489650 3.856029 0.085683
v 0.493601 3.858217 -0.054683
v -0.460121 3.560127 0.391538
v -0.142177 3.714810 0.402899
v -0.119260 3.727499 -0.411177
v -0.437203 3.572815 -0.422538
v 0.175766 3.869494 0.414261
v 0.198683 3.882182 -0.399815
v 0.285699 3.923167 0.318023
v 0.302982 3.932736 -0.295922
v 0.358818 3.958903 0.234754
v 0.371271 3.965797 -0.207601
v 0.424020 3.990910 0.085938
v 0.427971 3.993097 -0.054428
v -0.594809 0.821677 0.500000
v -0.594809 3.142675 0.500000
v -0.594809 3.142675 -0.500000
v -0.594809 0.821677 -0.500000
v -0.741135 0.821677 -0.377081
v -0.741135 0.821677 0.377081
v -0.741135 3.142675 0.377081
v -0.741135 3.142675 -0.377081
v -0.837720 0.821677 -0.271691
v -0.837720 0.821677 0.271691
v -0.837720 3.142675 0.271691
v -0.837720 3.142675 -0.271691
v -0.920981 0.821677 -0.086212
v -0.920981 0.821677 0.086212
v -0.920981 3.142675 0.086212
v -0.920981 3.142675 -0.086212
v -0.160484 0.821677 0.500000
v -0.160484 3.142675 0.500000
v -0.160484 3.142675 -0.500000
v -0.160484 0.821677 -0.500000
v 0.273842 0.821677 0.500000
v 0.273842 3.142675 0.500000
v 0.273842 3.142675 -0.500000
v 0.273842 0.821677 -0.500000
v 0.420168 0.821677 -0.377081
v 0.420168 0.821677 0.377081
v 0.420168 3.142675 0.377081
v 0.420168 3.142675 -0.377081
v 0.516752 0.821677 -0.271691
v 0.516752 0.821677 0.271691
v 0.516752 3.142675 0.271691
v 0.516752 3.142675 -0.271691
v 0.600014 0.821677 -0.086212
v 0.600014 0.821677 0.086212
v 0.600014 3.142675 0.086212
v 0.600014 3.142675 -0.086212
v -0.521953 0.877617 -0.300000
v -0.160484 0.877617 -0.300000
v -0.160484 0.877617 0.300000
v -0.521953 0.877617 0.300000
v -0.602504 0.877617 0.232335
v -0.602504 0.877617 -0.232335
v -0.668474 0.877617 0.160350
v -0.668474 0.877617 -0.160350
v -0.720981 0.877617 0.043381
v -0.720981 0.877617 -0.043381
v 0.200986 0.877617 -0.300000
v 0.200986 0.877617 0.300000
v 0.281536 0.877617 -0.232335
v 0.281536 0.877617 0.232335
v 0.347507 0.877617 -0.160350
v 0.347507 0.877617 0.160350
v 0.400014 0.877617 -0.043381
v 0.400014 0.877617 0.043381
v -0.594809 3.642675 0.500000
v -0.160484 3.642675 0.500000
v -0.160484 3.642675 -0.500000
v -0.594809 3.642675 -0.500000
v -0.741135 3.642675 -0.377081
v -0.741135 3.642675 0.377081
v -0.837720 3.642675 -0.271691
v -0.837720 3.642675 0.271691
v -0.920981 3.642675 -0.086212
v -0.920981 3.642675 0.086212
v 0.273842 3.642675 0.500000
v 0.273842 3.642675 -0.500000
v 0.420168 3.642675 0.377081
v 0.420168 3.642675 -0.377081
v 0.516752 3.642675 0.271691
v 0.516752 3.642675 -0.271691
v 0.600014 3.642675 0.086212
v 0.600014 3.642675 -0.086212
v -0.532141 0.821677 -0.327967
v -0.524937 0.829869 -0.308191
v -0.521953 0.849644 -0.300000
v -0.160484 0.821677 -0.327967
v -0.160484 0.829869 -0.308191
v -0.160484 0.849644 -0.300000
v -0.160484 0.821677 0.327967
v -0.160484 0.829869 0.308191
v -0.160484 0.849644 0.300000
v -0.532141 0.821677 0.327967
v -0.524937 0.829869 0.308191
v -0.521953 0.849644 0.300000
v -0.621889 0.821677 0.252575
v -0.608181 0.829869 0.238263
v -0.602504 0.849644 0.232335
v -0.621889 0.821677 -0.252575
v -0.608181 0.829869 -0.238263
v -0.602504 0.849644 -0.232335
v -0.692140 0.821677 0.175920
v -0.675405 0.829869 0.164911
v -0.668474 0.849644 0.160350
v -0.692140 0.821677 -0.175920
v -0.675405 0.829869 -0.164911
v -0.668474 0.849644 -0.160350
v -0.748948 0.821677 0.049370
v -0.729173 0.829869 0.045135
v -0.720981 0.849644 0.043381
v -0.748948 0.821677 -0.049370
v -0.729173 0.829869 -0.045135
v -0.720981 0.849644 -0.043381
v 0.211173 0.821677 0.327967
v 0.203970 0.829869 0.308191
v 0.200986 0.849644 0.300000
v 0.211173 0.821677 -0.327967
v 0.203970 0.829869 -0.308191
v 0.200986 0.849644 -0.300000
v 0.300922 0.821677 -0.252575
v 0.287214 0.829869 -0.238263
v 0.281536 0.849644 -0.232335
v 0.300922 0.821677 0.252575
v 0.287214 0.829869 0.238263
v 0.281536 0.849644 0.232335
v 0.371173 0.821677 -0.175920
v 0.354438 0.829869 -0.164910
v 0.347507 0.849644 -0.160350
v 0.371173 0.821677 0.175920
v 0.354438 0.829869 0.164910
v 0.347507 0.849644 0.160350
v 0.427981 0.821677 -0.049370
v 0.408206 0.829869 -0.045135
v 0.400014 0.849644 -0.043381
v 0.427981 0.821677 0.049370
v 0.408206 0.829869 0.045135
v 0.400014 0.849644 0.043381
v -0.281362 4.357507 -0.341340
v -0.375045 4.309773 -0.341340
v -0.449391 4.235426 -0.341340
v -0.497125 4.141744 -0.341340
v -0.513573 4.037896 -0.341340
v -0.497125 3.934047 -0.341340
v -0.449391 3.840365 -0.341340
v -0.375044 3.766018 -0.341340
v -0.281362 3.718284 -0.341340
v -0.177514 3.701836 -0.341340
v -0.073666 3.718284 -0.341340
v 0.020016 3.766018 -0.341340
v 0.094363 3.840365 -0.341340
v 0.142097 3.934047 -0.341340
v 0.158545 4.037896 -0.341340
v 0.142097 4.141743 -0.341340
v 0.094363 4.235426 -0.341340
v 0.020016 4.309773 -0.341340
v -0.073666 4.357506 -0.341340
v -0.177514 4.373954 -0.341340
v -0.281362 4.357507 0.333689
v -0.375045 4.309773 0.333689
v -0.449391 4.235426 0.333689
v -0.497125 4.141744 0.333689
v -0.513573 4.037896 0.333689
v -0.497125 3.934047 0.333689
v -0.449391 3.840365 0.333689
v -0.375044 3.766018 0.333689
v -0.281362 3.718284 0.333689
v -0.177514 3.701836 0.333689
v -0.073666 3.718284 0.333689
v 0.020016 3.766018 0.333689
v 0.094363 3.840365 0.333689
v 0.142097 3.934047 0.333689
v 0.158545 4.037896 0.333689
v 0.142097 4.141743 0.333689
v 0.094363 4.235426 0.333689
v 0.020016 4.309773 0.333689
v -0.073666 4.357506 0.333689
v -0.177514 4.373954 0.333689
v -0.177514 4.037896 -0.341340
v -0.177514 4.037896 0.333689
v -0.281362 4.357507 -0.206334
v -0.177514 4.373954 -0.206334
v -0.073666 4.357506 -0.206334
v 0.020016 4.309773 -0.206334
v 0.094363 4.235426 -0.206334
v 0.142097 4.141743 -0.206334
v 0.158545 4.037896 -0.206334
v 0.142097 3.934047 -0.206334
v 0.094363 3.840365 -0.206334
v 0.020016 3.766018 -0.206334
v -0.073666 3.718284 -0.206334
v -0.177514 3.701836 -0.206334
v -0.281362 3.718284 -0.206334
v -0.375044 3.766018 -0.206334
v -0.449391 3.840365 -0.206334
v -0.497125 3.934047 -0.206334
v -0.513573 4.037896 -0.206334
v -0.497125 4.141744 -0.206334
v -0.449391 4.235426 -0.206334
v -0.375045 4.309773 -0.206334
v -0.281362 4.357507 0.225684
v -0.177514 4.373954 0.225684
v -0.073666 4.357506 0.225684
v 0.020016 4.309773 0.225684
v 0.094363 4.235426 0.225684
v 0.142097 4.141743 0.225684
v 0.158545 4.037896 0.225684
v 0.142097 3.934047 0.225684
v 0.094363 3.840365 0.225684
v 0.020016 3.766018 0.225684
v -0.073666 3.718284 0.225684
v -0.177514 3.701836 0.225684
v -0.281362 3.718284 0.225684
v -0.375044 3.766018 0.225684
v -0.449391 3.840365 0.225684
v -0.497125 3.934047 0.225684
v -0.513573 4.037896 0.225684
v -0.497125 4.141744 0.225684
v -0.449391 4.235426 0.225684
v -0.375045 4.309773 0.225684
v -0.273162 4.332271 -0.206334
v -0.177514 4.347419 -0.206334
v -0.273162 4.332271 0.225684
v -0.177514 4.347419 0.225684
v -0.081866 4.332270 -0.206334
v -0.081866 4.332270 0.225684
v 0.004420 4.288306 -0.206334
v 0.004420 4.288306 0.225684
v 0.072896 4.219829 -0.206334
v 0.072896 4.219829 0.225684
v 0.116861 4.133543 -0.206334
v 0.116861 4.133543 0.225684
v 0.132010 4.037896 -0.206334
v 0.132010 4.037896 0.225684
v 0.116861 3.942247 -0.206334
v 0.116861 3.942247 0.225684
v 0.072896 3.855962 -0.206334
v 0.072896 3.855962 0.225684
v 0.004420 3.787485 -0.206334
v 0.004420 3.787485 0.225684
v -0.081866 3.743521 -0.206334
v -0.081866 3.743521 0.225684
v -0.177514 3.728371 -0.206334
v -0.177514 3.728371 0.225684
v -0.273162 3.743521 -0.206334
v -0.273162 3.743521 0.225684
v -0.359448 3.787485 -0.206334
v -0.359448 3.787485 0.225684
v -0.427924 3.855962 -0.206334
v -0.427924 3.855962 0.225684
v -0.471889 3.942247 -0.206334
v -0.471889 3.942247 0.225684
v -0.487038 4.037896 -0.206334
v -0.487038 4.037896 0.225684
v -0.471889 4.133544 -0.206334
v -0.471889 4.133544 0.225684
v -0.427924 4.219830 -0.206334
v -0.427924 4.219830 0.225684
v -0.359448 4.288306 -0.206334
v -0.359448 4.288306 0.225684
vt 0.829663 0.667679
vt 0.829663 0.649489
vt 0.915962 0.649489
vt 0.915962 0.667680
vt 0.829663 0.696548
vt 0.915962 0.696548
vt 0.829663 0.702371
vt 0.915962 0.702371
vt 0.829663 0.706228
vt 0.915962 0.706228
vt 0.829663 0.721656
vt 0.915962 0.721656
vt 0.829663 0.726477
vt 0.915962 0.726477
vt 0.829663 0.732598
vt 0.915962 0.732598
vt 0.829663 0.761467
vt 0.915962 0.761467
vt 0.829663 0.779657
vt 0.915962 0.779657
vt 0.557797 0.989296
vt 0.557797 0.952479
vt 0.699840 0.952479
vt 0.699840 0.989296
vt 0.557797 0.805208
vt 0.699840 0.805208
vt 0.557797 0.759186
vt 0.699840 0.759186
vt 0.643840 0.415125
vt 0.643862 0.440047
vt 0.505409 0.440171
vt 0.505387 0.415250
vt 0.643700 0.385010
vt 0.643725 0.412700
vt 0.505272 0.412825
vt 0.505247 0.385134
vt 0.869579 0.382260
vt 0.869604 0.410810
vt 0.645076 0.411012
vt 0.645050 0.382463
vt 0.869634 0.443605
vt 0.645106 0.443807
vt 0.869637 0.446846
vt 0.645108 0.447046
vt 0.869659 0.471860
vt 0.645131 0.472061
vt 0.869661 0.473991
vt 0.869687 0.502541
vt 0.645159 0.502742
vt 0.645133 0.474193
vt 0.869716 0.535336
vt 0.645188 0.535539
vt 0.869742 0.563591
vt 0.645214 0.563793
vt 0.913047 0.151870
vt 0.913082 0.190877
vt 0.872667 0.190913
vt 0.872633 0.151906
vt 0.913223 0.346906
vt 0.872808 0.346943
vt 0.814470 0.190966
vt 0.742082 0.163567
vt 0.827311 0.086238
vt 0.857791 0.086211
vt 0.713843 0.180245
vt 0.758199 0.135003
vt 0.757875 0.102207
vt 0.788465 0.042901
vt 0.810425 0.042881
vt 0.581679 0.191175
vt 0.681046 0.180569
vt 0.741195 0.073968
vt 0.756841 0.042930
vt 0.720133 0.005574
vt 0.735283 0.005560
vt 0.652482 0.164452
vt 0.712633 0.057851
vt 0.710098 0.005582
vt 0.508932 0.191240
vt 0.508897 0.152233
vt 0.679837 0.058175
vt 0.676600 0.060087
vt 0.630348 0.043043
vt 0.669960 0.005619
vt 0.464026 0.191281
vt 0.463991 0.152273
vt 0.635804 0.136212
vt 0.651598 0.074853
vt 0.590817 0.043079
vt 0.657416 0.005630
vt 0.509072 0.347270
vt 0.464167 0.347310
vt 0.552996 0.086485
vt 0.519130 0.086515
vt 0.635480 0.103417
vt 0.566417 0.043101
vt 0.641492 0.005644
vt 0.370496 0.010172
vt 0.370319 0.034339
vt 0.346993 0.034168
vt 0.347171 0.010001
vt 0.409546 0.043467
vt 0.409412 0.061693
vt 0.362843 0.112361
vt 0.346738 0.068969
vt 0.253692 0.033484
vt 0.253869 0.009317
vt 0.435274 0.071957
vt 0.435177 0.085089
vt 0.399596 0.103153
vt 0.379986 0.102833
vt 0.352761 0.129184
vt 0.457302 0.117035
vt 0.457236 0.126094
vt 0.435039 0.103999
vt 0.416418 0.113235
vt 0.352442 0.148793
vt 0.345717 0.208172
vt 0.457192 0.132094
vt 0.425946 0.130378
vt 0.361969 0.165936
vt 0.457015 0.156096
vt 0.434484 0.179640
vt 0.424470 0.151917
vt 0.425626 0.149987
vt 0.368723 0.251844
vt 0.345398 0.251673
vt 0.456960 0.163597
vt 0.434310 0.203277
vt 0.415544 0.166810
vt 0.378792 0.176018
vt 0.368526 0.278696
vt 0.345201 0.278525
vt 0.456891 0.173119
vt 0.434203 0.217868
vt 0.408209 0.225727
vt 0.398402 0.176338
vt 0.408061 0.245978
vt 0.251900 0.277841
vt 0.252097 0.250988
vt 0.892236 0.610402
vt 0.892236 0.594365
vt 0.984545 0.594365
vt 0.984545 0.610402
vt 0.892236 0.530217
vt 0.984545 0.530217
vt 0.892236 0.637416
vt 0.984545 0.637416
vt 0.819772 0.739258
vt 0.819772 0.753207
vt 0.739482 0.753207
vt 0.739482 0.739258
vt 0.819772 0.776703
vt 0.739482 0.776703
vt 0.819772 0.683463
vt 0.739482 0.683463
vt 0.645177 0.286954
vt 0.645152 0.258405
vt 0.869680 0.258203
vt 0.869706 0.286752
vt 0.645122 0.225609
vt 0.869651 0.225407
vt 0.645097 0.197354
vt 0.869625 0.197152
vt 0.511432 0.382724
vt 0.511350 0.291429
vt 0.642724 0.291311
vt 0.642806 0.382606
vt 0.642231 0.195370
vt 0.642313 0.286664
vt 0.510939 0.286782
vt 0.510857 0.195488
vt 0.869496 0.289958
vt 0.869521 0.318507
vt 0.644993 0.318709
vt 0.644967 0.290159
vt 0.869551 0.351303
vt 0.645023 0.351505
vt 0.869576 0.379557
vt 0.645048 0.379759
vt 0.875673 0.789863
vt 0.876714 0.863560
vt 0.707032 0.865957
vt 0.705991 0.792260
vt 0.877755 0.937258
vt 0.708073 0.939655
vt 0.857249 0.962381
vt 0.729281 0.964189
vt 0.839598 0.979023
vt 0.747395 0.980325
vt 0.808325 0.993595
vt 0.779067 0.994009
vt 0.585027 0.744786
vt 0.585602 0.636378
vt 0.632686 0.636627
vt 0.632112 0.745036
vt 0.679196 0.745286
vt 0.679771 0.636877
vt 0.695564 0.650286
vt 0.695130 0.732045
vt 0.705974 0.661767
vt 0.705661 0.720675
vt 0.714893 0.681923
vt 0.714794 0.700615
vt 0.960612 0.796328
vt 0.960718 0.870033
vt 0.929466 0.870078
vt 0.929360 0.796373
vt 0.963487 0.870448
vt 0.963382 0.796744
vt 0.994634 0.796699
vt 0.994740 0.870404
vt 0.583344 0.635849
vt 0.583120 0.744259
vt 0.563155 0.744218
vt 0.563379 0.635808
vt 0.963593 0.944153
vt 0.994846 0.944108
vt 0.960824 0.943738
vt 0.929571 0.943783
vt 0.960859 0.968569
vt 0.929607 0.968614
vt 0.963629 0.968984
vt 0.994881 0.968940
vt 0.927158 0.796762
vt 0.927225 0.820528
vt 0.885694 0.820647
vt 0.885626 0.796880
vt 0.927575 0.943069
vt 0.927643 0.966836
vt 0.886112 0.966955
vt 0.886044 0.943188
vt 0.927345 0.862357
vt 0.885814 0.862475
vt 0.927456 0.901241
vt 0.885925 0.901359
vt 0.139874 0.608081
vt 0.198713 0.608081
vt 0.198713 0.922512
vt 0.139874 0.922512
vt 0.216123 0.537834
vt 0.142411 0.538211
vt 0.141542 0.368495
vt 0.215254 0.368117
vt 0.413782 0.676848
vt 0.472621 0.676848
vt 0.472621 0.991279
vt 0.413782 0.991279
vt 0.310396 0.487084
vt 0.310396 0.434023
vt 0.398471 0.434023
vt 0.398471 0.487084
vt 0.323790 0.608474
vt 0.347149 0.608474
vt 0.347149 0.922905
vt 0.323790 0.922905
vt 0.388538 0.498908
vt 0.320329 0.498908
vt 0.120051 0.922512
vt 0.120051 0.608081
vt 0.240195 0.388851
vt 0.240850 0.516845
vt 0.393959 0.991279
vt 0.393959 0.676848
vt 0.377972 0.508592
vt 0.330896 0.508592
vt 0.386554 0.608474
vt 0.386554 0.922905
vt 0.372276 0.922905
vt 0.372276 0.608474
vt 0.256678 0.406654
vt 0.257151 0.498875
vt 0.284386 0.922905
vt 0.284386 0.608474
vt 0.298663 0.608474
vt 0.298663 0.922905
vt 0.360802 0.516300
vt 0.348066 0.516300
vt 0.270970 0.438060
vt 0.271120 0.467324
vt 0.257553 0.608081
vt 0.257553 0.922512
vt 0.068699 0.538589
vt 0.067830 0.368872
vt 0.531460 0.676848
vt 0.531460 0.991279
vt 0.310396 0.380963
vt 0.398471 0.380963
vt 0.072597 0.608105
vt 0.072597 0.922536
vt 0.049238 0.922536
vt 0.049238 0.608105
vt 0.320329 0.369139
vt 0.388538 0.369139
vt 0.277376 0.608081
vt 0.277376 0.922512
vt 0.043758 0.517855
vt 0.043102 0.389861
vt 0.551283 0.676848
vt 0.551283 0.991279
vt 0.330896 0.359455
vt 0.377972 0.359455
vt 0.009833 0.608105
vt 0.024111 0.608105
vt 0.024111 0.922536
vt 0.009833 0.922536
vt 0.027274 0.500052
vt 0.026802 0.407831
vt 0.112001 0.922536
vt 0.097724 0.922536
vt 0.097724 0.608105
vt 0.112001 0.608105
vt 0.348066 0.351747
vt 0.360802 0.351747
vt 0.012982 0.468646
vt 0.012832 0.439383
vt 0.198713 0.990248
vt 0.139874 0.990248
vt 0.413782 0.609111
vt 0.472621 0.609111
vt 0.393959 0.609111
vt 0.120051 0.990248
vt 0.298663 0.990641
vt 0.284386 0.990641
vt 0.386554 0.990641
vt 0.372276 0.990641
vt 0.323790 0.990641
vt 0.347149 0.990641
vt 0.531460 0.609111
vt 0.257553 0.990248
vt 0.277376 0.990248
vt 0.551283 0.609111
vt 0.024111 0.990273
vt 0.009833 0.990273
vt 0.112001 0.990273
vt 0.097724 0.990273
vt 0.049238 0.990273
vt 0.072597 0.990273
vt 0.281256 0.497323
vt 0.281256 0.433568
vt 0.306509 0.433568
vt 0.306509 0.488124
vt 0.428047 0.433568
vt 0.428047 0.497323
vt 0.402794 0.488124
vt 0.402794 0.433568
vt 0.410003 0.518802
vt 0.391727 0.501298
vt 0.299299 0.518802
vt 0.317576 0.501298
vt 0.394533 0.532980
vt 0.380475 0.511610
vt 0.314769 0.532980
vt 0.328828 0.511610
vt 0.367306 0.545202
vt 0.361898 0.519949
vt 0.341996 0.545202
vt 0.347404 0.519949
vt 0.428047 0.369813
vt 0.402794 0.379012
vt 0.281256 0.369813
vt 0.306509 0.379012
vt 0.299299 0.348333
vt 0.317576 0.365838
vt 0.410003 0.348333
vt 0.391727 0.365838
vt 0.314769 0.334156
vt 0.328828 0.355525
vt 0.394533 0.334156
vt 0.380475 0.355525
vt 0.341996 0.321934
vt 0.347404 0.347186
vt 0.367306 0.321934
vt 0.361898 0.347186
vt 0.320962 0.292876
vt 0.243560 0.292227
vt 0.243610 0.286237
vt 0.321012 0.286886
vt 0.243437 0.306831
vt 0.320840 0.307481
vt 0.320789 0.313470
vt 0.243387 0.312821
vt 0.338088 0.307625
vt 0.338038 0.313615
vt 0.338211 0.293021
vt 0.338261 0.287031
vt 0.248189 0.324987
vt 0.232774 0.324858
vt 0.232825 0.318868
vt 0.248239 0.318998
vt 0.164102 0.324282
vt 0.148687 0.324153
vt 0.148738 0.318163
vt 0.164152 0.318292
vt 0.207727 0.324648
vt 0.207778 0.318658
vt 0.189149 0.324492
vt 0.189199 0.318502
vt 0.166034 0.306182
vt 0.165984 0.312172
vt 0.166157 0.291578
vt 0.166207 0.285588
vt 0.148908 0.291433
vt 0.148958 0.285444
vt 0.148786 0.306038
vt 0.148735 0.312028
vt 0.248051 0.341347
vt 0.232637 0.341218
vt 0.232687 0.335228
vt 0.248102 0.335357
vt 0.163964 0.340642
vt 0.148550 0.340513
vt 0.148600 0.334523
vt 0.164015 0.334652
vt 0.207590 0.341008
vt 0.207640 0.335018
vt 0.189012 0.340852
vt 0.189062 0.334862
vt 0.309411 0.487066
vt 0.319676 0.499286
vt 0.321566 0.297116
vt 0.339391 0.297266
vt 0.243524 0.296462
vt 0.309411 0.433568
vt 0.399891 0.433568
vt 0.399891 0.380069
vt 0.243472 0.302597
vt 0.165431 0.301942
vt 0.321514 0.303251
vt 0.399891 0.487066
vt 0.339340 0.303401
vt 0.389626 0.499286
vt 0.330444 0.509154
vt 0.147382 0.328377
vt 0.163090 0.328509
vt 0.249423 0.329233
vt 0.233715 0.329101
vt 0.378859 0.509154
vt 0.348026 0.517046
vt 0.188738 0.328724
vt 0.208067 0.328886
vt 0.361277 0.517046
vt 0.389626 0.367850
vt 0.147605 0.301793
vt 0.165482 0.295807
vt 0.309411 0.380069
vt 0.147657 0.295658
vt 0.319676 0.367850
vt 0.378859 0.357982
vt 0.147245 0.344736
vt 0.162952 0.344868
vt 0.249285 0.345592
vt 0.233578 0.345460
vt 0.330444 0.357982
vt 0.361277 0.350089
vt 0.188600 0.345083
vt 0.207930 0.345245
vt 0.348026 0.350089
vt 0.029324 0.303095
vt 0.029324 0.285617
vt 0.054403 0.285617
vt 0.054403 0.303095
vt 0.029324 0.271746
vt 0.054403 0.271746
vt 0.029101 0.270182
vt 0.029168 0.252704
vt 0.054247 0.252799
vt 0.054181 0.270277
vt 0.029241 0.233329
vt 0.054320 0.233424
vt 0.029314 0.213954
vt 0.054394 0.214049
vt 0.029381 0.196476
vt 0.054460 0.196571
vt 0.029433 0.182605
vt 0.054512 0.182700
vt 0.028960 0.181607
vt 0.028960 0.164129
vt 0.054039 0.164129
vt 0.054039 0.181607
vt 0.028960 0.144754
vt 0.054039 0.144754
vt 0.028960 0.125379
vt 0.054039 0.125379
vt 0.028960 0.107901
vt 0.054039 0.107901
vt 0.029137 0.106624
vt 0.029137 0.092753
vt 0.054216 0.092753
vt 0.054216 0.106624
vt 0.029137 0.075275
vt 0.054216 0.075275
vt 0.029137 0.055900
vt 0.054216 0.055900
vt 0.029137 0.036525
vt 0.054216 0.036525
vt 0.029137 0.019047
vt 0.054216 0.019047
vt 0.029137 0.005176
vt 0.054216 0.005176
vt 0.029324 0.359323
vt 0.029324 0.341845
vt 0.054403 0.341845
vt 0.054403 0.359323
vt 0.029324 0.322470
vt 0.054403 0.322470
vt 0.314418 0.092226
vt 0.326604 0.116143
vt 0.245009 0.142655
vt 0.295438 0.073246
vt 0.271521 0.061060
vt 0.245009 0.056861
vt 0.218497 0.061060
vt 0.194580 0.073246
vt 0.175600 0.092226
vt 0.163413 0.116143
vt 0.159214 0.142655
vt 0.163413 0.169167
vt 0.175600 0.193084
vt 0.194580 0.212064
vt 0.218497 0.224250
vt 0.245009 0.228450
vt 0.271521 0.224250
vt 0.295438 0.212064
vt 0.314418 0.193084
vt 0.326604 0.169167
vt 0.330803 0.142655
vt 0.326604 0.169167
vt 0.314418 0.193084
vt 0.245009 0.142655
vt 0.295438 0.212064
vt 0.271521 0.224250
vt 0.245009 0.228450
vt 0.218497 0.224250
vt 0.194580 0.212064
vt 0.175600 0.193084
vt 0.163413 0.169167
vt 0.159214 0.142655
vt 0.163413 0.116143
vt 0.175600 0.092226
vt 0.194580 0.073246
vt 0.218497 0.061060
vt 0.245009 0.056861
vt 0.271521 0.061060
vt 0.295438 0.073246
vt 0.314418 0.092226
vt 0.326604 0.116143
vt 0.330803 0.142655
vt 0.059087 0.310851
vt 0.059087 0.292409
vt 0.142026 0.292409
vt 0.142026 0.310851
vt 0.059087 0.329293
vt 0.142026 0.329293
vt 0.059087 0.345930
vt 0.142026 0.345930
vt 0.058936 0.018716
vt 0.058936 0.005513
vt 0.141875 0.005513
vt 0.141875 0.018716
vt 0.058936 0.035353
vt 0.141875 0.035353
vt 0.058936 0.053795
vt 0.141875 0.053795
vt 0.058936 0.072237
vt 0.141875 0.072237
vt 0.058936 0.088874
vt 0.141875 0.088874
vt 0.058936 0.102077
vt 0.141875 0.102077
vt 0.058729 0.121391
vt 0.058697 0.104539
vt 0.142711 0.104384
vt 0.142742 0.121237
vt 0.058763 0.140072
vt 0.142776 0.139918
vt 0.058798 0.158753
vt 0.142810 0.158598
vt 0.058828 0.175605
vt 0.142841 0.175451
vt 0.059291 0.191067
vt 0.059258 0.177864
vt 0.142197 0.177658
vt 0.142230 0.190861
vt 0.059332 0.207704
vt 0.142271 0.207498
vt 0.059378 0.226146
vt 0.142317 0.225940
vt 0.059423 0.244588
vt 0.142362 0.244382
vt 0.059465 0.261225
vt 0.142404 0.261019
vt 0.059087 0.275772
vt 0.059087 0.262569
vt 0.142026 0.262569
vt 0.142026 0.275772
vt 0.025693 0.144546
vt 0.025589 0.163920
vt 0.005526 0.163813
vt 0.005630 0.144438
vt 0.025797 0.125171
vt 0.005734 0.125064
vt 0.025891 0.107693
vt 0.005828 0.107586
vt 0.025583 0.092453
vt 0.025510 0.106324
vt 0.005447 0.106219
vt 0.005520 0.092348
vt 0.025674 0.074975
vt 0.005611 0.074870
vt 0.025776 0.055600
vt 0.005712 0.055495
vt 0.025877 0.036226
vt 0.005814 0.036121
vt 0.025968 0.018748
vt 0.005905 0.018643
vt 0.026041 0.004877
vt 0.005978 0.004772
vt 0.025971 0.340468
vt 0.026123 0.357945
vt 0.006060 0.358119
vt 0.005909 0.340642
vt 0.025804 0.321094
vt 0.005741 0.321268
vt 0.025636 0.301720
vt 0.005573 0.301893
vt 0.025484 0.284242
vt 0.005421 0.284416
vt 0.025578 0.269525
vt 0.025578 0.283396
vt 0.005515 0.283396
vt 0.005515 0.269525
vt 0.025578 0.252047
vt 0.005515 0.252047
vt 0.025578 0.232672
vt 0.005515 0.232672
vt 0.025578 0.213297
vt 0.005515 0.213297
vt 0.025578 0.195819
vt 0.005515 0.195819
vt 0.025495 0.181398
vt 0.025421 0.195269
vt 0.005358 0.195161
vt 0.005432 0.181291
vt 0.343008 0.142846
vt 0.338247 0.172906
vt 0.330942 0.170532
vt 0.335327 0.142846
vt 0.338247 0.112786
vt 0.343008 0.142846
vt 0.335327 0.142846
vt 0.330942 0.115159
vt 0.338247 0.112786
vt 0.330942 0.115159
vt 0.338247 0.172906
vt 0.330942 0.170532
vt 0.324430 0.085668
vt 0.318216 0.090183
vt 0.324430 0.200024
vt 0.318216 0.195509
vt 0.302909 0.064147
vt 0.298395 0.070361
vt 0.302909 0.221544
vt 0.298395 0.215330
vt 0.275792 0.050330
vt 0.273418 0.057635
vt 0.275792 0.235361
vt 0.273418 0.228056
vt 0.245731 0.045569
vt 0.245731 0.053250
vt 0.245731 0.240122
vt 0.245731 0.232442
vt 0.215671 0.050330
vt 0.218045 0.057635
vt 0.215671 0.235361
vt 0.218045 0.228056
vt 0.188554 0.064147
vt 0.193068 0.070361
vt 0.188554 0.221544
vt 0.193068 0.215330
vt 0.167033 0.085668
vt 0.173247 0.090183
vt 0.167033 0.200024
vt 0.173247 0.195509
vt 0.153216 0.112786
vt 0.160521 0.115159
vt 0.153216 0.172906
vt 0.160521 0.170532
vt 0.148455 0.142846
vt 0.156136 0.142846
vt 0.148455 0.142846
vt 0.156136 0.142846
vt 0.153216 0.172906
vt 0.160521 0.170532
vt 0.153216 0.112786
vt 0.160521 0.115159
vt 0.167033 0.200024
vt 0.173247 0.195509
vt 0.167033 0.085668
vt 0.173247 0.090183
vt 0.188554 0.221544
vt 0.193068 0.215330
vt 0.188554 0.064147
vt 0.193068 0.070361
vt 0.215671 0.235361
vt 0.218045 0.228056
vt 0.215671 0.050330
vt 0.218045 0.057635
vt 0.245731 0.240122
vt 0.245731 0.232442
vt 0.245731 0.045569
vt 0.245731 0.053250
vt 0.275792 0.235361
vt 0.273418 0.228056
vt 0.275792 0.050330
vt 0.273418 0.057635
vt 0.302909 0.221544
vt 0.298395 0.215330
vt 0.302909 0.064147
vt 0.298395 0.070361
vt 0.324430 0.200024
vt 0.318216 0.195509
vt 0.324430 0.085668
vt 0.318216 0.090183
vn 0.000000 1.000000 0.000000
vn 0.000000 1.000000 0.000000
vn 0.000000 1.000000 0.000000
vn 0.000000 1.000000 0.000000
vn 0.000000 1.000000 -0.000001
vn 0.000000 1.000000 -0.000001
vn 0.000000 1.000000 0.000001
vn 0.000000 1.000000 -0.000005
vn 0.000000 1.000000 -0.000002
vn 0.000000 1.000000 0.000000
vn 0.000000 1.000000 -0.000000
vn 0.000000 1.000000 -0.000000
vn 0.000000 1.000000 0.000000
vn 0.000000 1.000000 0.000000
vn 0.000000 1.000000 0.000000
vn 0.000000 1.000000 0.000000
vn 0.000000 1.000000 0.000000
vn 0.000000 1.000000 0.000000
vn 0.000000 1.000000 0.000000
vn 0.000000 1.000000 0.000000
vn 0.000000 1.000000 0.000000
vn 0.000000 1.000000 0.000000
vn 0.000000 1.000000 0.000000
vn 0.000000 1.000000 0.000002
vn 0.000000 1.000000 0.000001
vn 0.000000 1.000000 -0.000000
vn 0.000000 1.000000 0.000000
vn 0.000000 1.000000 0.000000
vn 0.000000 1.000000 0.000000
vn 0.000000 1.000000 0.000000
vn 0.000000 1.000000 0.000000
vn 0.000000 1.000000 -0.000000
vn 0.000000 1.000000 0.000000
vn 0.000000 1.000000 0.000000
vn 0.000000 1.000000 -0.000000
vn 0.000000 1.000000 -0.000000
vn 0.000000 1.000000 0.000001
vn 0.000000 1.000000 -0.000000
vn 0.000000 1.000000 0.000000
vn 0.000000 1.000000 -0.000000
vn 0.000000 1.000000 0.000001
vn 0.000000 1.000000 0.000001
vn 0.000000 1.000000 -0.000000
vn 0.000000 -1.000000 0.000000
vn 0.000000 -1.000000 -0.000000
vn 0.000000 -1.000000 0.000000
vn 0.000000 -1.000000 0.000000
vn 0.000000 -1.000000 0.000001
vn 0.000000 -1.000000 0.000001
vn 0.000000 -1.000000 0.000005
vn 0.000000 -1.000000 -0.000001
vn 0.000000 -1.000000 0.000002
vn 0.000000 -1.000000 0.000000
vn 0.000000 -1.000000 0.000000
vn 0.000000 -1.000000 0.000000
vn 0.000000 -1.000000 0.000000
vn 0.000000 -1.000000 0.000000
vn 0.000000 -1.000000 0.000000
vn 0.000000 -1.000000 0.000000
vn 0.000000 -1.000000 -0.000001
vn 0.000000 -1.000000 0.000000
vn 0.000000 -1.000000 0.000000
vn 0.000000 -1.000000 0.000000
vn 0.000000 -1.000000 -0.000001
vn 0.000000 -1.000000 0.000000
vn 0.000000 -1.000000 -0.000001
vn 0.000000 -1.000000 -0.000001
vn 0.000000 -1.000000 -0.000002
vn 0.000000 -1.000000 0.000000
vn 0.000000 -1.000000 0.000000
vn 0.000000 -1.000000 0.000000
vn 0.000000 -1.000000 0.000000
vn 0.000000 -1.000000 0.000000
vn 0.000000 -1.000000 -0.000001
vn 0.000000 -1.000000 0.000000
vn 0.000000 -1.000000 -0.000001
vn 0.000000 -1.000000 0.000000
vn 0.000000 -1.000000 0.000000
vn 0.000000 -1.000000 0.000001
vn 0.000000 -1.000000 0.000001
vn 0.000000 -1.000000 0.000000
vn 0.000000 -1.000000 0.000000
vn 0.000000 -1.000000 0.000000
vn 0.000000 -1.000000 0.000001
vn 0.000000 -1.000000 0.000001
vn 0.000000 -1.000000 0.000000
vn 0.000000 0.000000 1.000000
vn 0.000000 0.000000 1.000000
vn 0.000000 0.000000 1.000000
vn 0.000000 0.000000 1.000000
vn -0.684868 0.000001 0.728667
vn -0.643208 0.000000 0.765692
vn -0.643208 0.000000 0.765692
vn -0.684868 0.000001 0.728667
vn -0.834754 0.000002 0.550623
vn -0.834754 0.000002 0.550623
vn -1.000000 0.000000 0.000000
vn -0.923870 0.000001 0.382708
vn -0.923870 0.000001 0.382708
vn -1.000000 0.000000 0.000000
vn 0.000000 0.000000 -1.000000
vn 0.000000 0.000000 -1.000000
vn 0.000000 0.000000 -1.000000
vn 0.000000 0.000000 -1.000000
vn -0.643208 0.000000 -0.765692
vn -0.684866 0.000000 -0.728669
vn -0.684866 0.000000 -0.728669
vn -0.643208 0.000000 -0.765692
vn -0.834754 0.000000 -0.550623
vn -0.834754 0.000000 -0.550623
vn -0.925019 0.000000 -0.379922
vn -0.925019 0.000000 -0.379922
vn -1.000000 0.000000 0.000000
vn -1.000000 0.000000 0.000000
vn 1.000000 0.000000 0.000000
vn 1.000000 0.000000 0.000000
vn 1.000000 0.000000 0.000000
vn 1.000000 0.000000 0.000000
vn -0.492209 0.000001 -0.870477
vn -0.492209 0.000001 -0.870477
vn -0.492209 0.000001 -0.870477
vn -0.492209 0.000001 -0.870477
vn -1.000000 0.000000 0.000001
vn -1.000000 0.000000 0.000001
vn 0.000000 0.000000 1.000000
vn 0.000000 0.000000 1.000000
vn 1.000000 0.000000 0.000000
vn 1.000000 0.000000 0.000000
vn 1.000000 0.000000 0.000000
vn 1.000000 0.000000 0.000000
vn 0.000000 0.000000 -1.000000
vn 0.000000 0.000000 -1.000000
vn 0.000000 0.000000 -1.000000
vn 0.000000 0.000000 -1.000000
vn 0.000000 0.000000 1.000000
vn 0.000000 0.000000 1.000000
vn 0.000000 0.000000 1.000000
vn 0.000000 0.000000 1.000000
vn 1.000000 0.000000 0.000000
vn 1.000000 0.000000 0.000000
vn 1.000000 0.000000 0.000000
vn 1.000000 0.000000 0.000000
vn 0.000000 0.000000 -1.000000
vn 0.000000 0.000000 -1.000000
vn 0.492219 -0.000001 0.870472
vn 0.492219 -0.000001 0.870472
vn 0.492219 -0.000001 0.870472
vn 0.492219 -0.000001 0.870472
vn -1.000000 0.000000 0.000000
vn -1.000000 0.000000 0.000000
vn 1.000000 0.000000 0.000000
vn 1.000000 0.000000 0.000000
vn 1.000000 0.000000 0.000000
vn 1.000000 0.000000 0.000000
vn 0.713426 -0.000002 -0.700730
vn 0.870476 -0.000001 -0.492211
vn 0.870476 -0.000001 -0.492211
vn 0.713427 -0.000002 -0.700729
vn -0.870480 0.000000 0.492204
vn -0.870480 0.000000 0.492204
vn -0.870480 0.000000 0.492204
vn -0.870480 0.000000 0.492204
vn 0.507767 -0.000003 -0.861495
vn 0.507767 -0.000003 -0.861495
vn 0.008991 0.000000 -0.999960
vn 0.008991 0.000000 -0.999960
vn 0.008991 0.000000 -0.999960
vn 0.008991 0.000000 -0.999960
vn -0.507755 -0.000000 0.861502
vn -0.507755 -0.000000 0.861502
vn -0.507755 -0.000000 0.861502
vn -0.507755 -0.000000 0.861502
vn -0.008990 0.000001 0.999960
vn -0.008990 0.000001 0.999960
vn -0.008990 0.000001 0.999960
vn -0.008990 0.000001 0.999960
vn 0.861497 -0.000002 0.507762
vn 0.861502 -0.000002 0.507753
vn 0.861502 -0.000002 0.507754
vn 0.861497 -0.000002 0.507762
vn 0.999960 0.000000 0.008980
vn 0.999960 0.000000 0.008980
vn 0.999960 0.000000 0.008980
vn 0.999960 0.000000 0.008980
vn 0.861458 -0.000001 0.507828
vn 0.861459 -0.000001 0.507828
vn -0.999960 0.000000 -0.008979
vn -0.999960 0.000000 -0.008979
vn -0.999960 0.000000 -0.008979
vn -0.999960 0.000000 -0.008979
vn -0.861498 0.000001 -0.507761
vn -0.861498 0.000001 -0.507761
vn -0.861498 0.000001 -0.507761
vn -0.861498 0.000001 -0.507761
vn -0.437534 0.899200 0.001698
vn -0.437534 0.899200 0.001698
vn -0.437534 0.899200 0.001698
vn -0.437534 0.899200 0.001698
vn -0.437534 0.899201 0.001698
vn -0.437534 0.899200 0.001698
vn -0.437534 0.899200 0.001698
vn -0.437534 0.899200 0.001698
vn -0.437534 0.899200 0.001699
vn -0.437534 0.899200 0.001699
vn -0.437535 0.899200 0.001698
vn -0.437535 0.899200 0.001698
vn 0.437533 -0.899200 -0.001698
vn 0.437533 -0.899200 -0.001698
vn 0.437534 -0.899201 -0.001698
vn 0.437534 -0.899201 -0.001698
vn 0.437534 -0.899200 -0.001698
vn 0.437534 -0.899200 -0.001698
vn 0.437534 -0.899200 -0.001698
vn 0.437534 -0.899200 -0.001698
vn 0.437533 -0.899201 -0.001698
vn 0.437533 -0.899201 -0.001698
vn 0.437536 -0.899199 -0.001697
vn 0.437536 -0.899199 -0.001697
vn -0.028136 -0.015578 0.999483
vn -0.028136 -0.015578 0.999483
vn -0.028136 -0.015578 0.999483
vn -0.028136 -0.015578 0.999483
vn 0.028136 0.015578 -0.999483
vn 0.028136 0.015578 -0.999483
vn 0.028136 0.015578 -0.999483
vn 0.028136 0.015578 -0.999483
vn -0.898762 -0.437260 -0.032116
vn -0.898762 -0.437260 -0.032116
vn -0.898762 -0.437260 -0.032116
vn -0.898762 -0.437260 -0.032116
vn 0.028136 0.015578 -0.999483
vn 0.028136 0.015578 -0.999483
vn -0.028136 -0.015578 0.999483
vn -0.028136 -0.015578 0.999483
vn 0.556547 0.269321 0.785953
vn 0.595030 0.288113 0.750287
vn 0.595030 0.288113 0.750287
vn 0.556547 0.269321 0.785953
vn 0.636033 0.310815 -0.706297
vn 0.599633 0.293176 -0.744639
vn 0.599633 0.293176 -0.744639
vn 0.636033 0.310815 -0.706297
vn 0.749643 0.363717 0.552943
vn 0.749643 0.363717 0.552943
vn 0.779236 0.380102 -0.498312
vn 0.779236 0.380102 -0.498312
vn 0.869011 0.422357 0.257751
vn 0.869011 0.422357 0.257750
vn 0.881761 0.429416 -0.195190
vn 0.881761 0.429416 -0.195190
vn 0.000000 0.000000 1.000000
vn 0.000000 0.000000 1.000000
vn 0.000000 0.000000 1.000000
vn 0.000000 0.000000 1.000000
vn 0.000000 1.000000 0.000000
vn 0.000000 1.000000 0.000000
vn 0.000000 1.000000 0.000000
vn 0.000000 1.000000 0.000000
vn 0.000000 0.000000 -1.000000
vn 0.000000 0.000000 -1.000000
vn 0.000000 0.000000 -1.000000
vn 0.000000 0.000000 -1.000000
vn 0.000000 -1.000000 0.000000
vn 0.000000 -1.000000 0.000000
vn 0.000000 -1.000000 0.000000
vn 0.000000 -1.000000 0.000000
vn -0.973991 0.000000 -0.226587
vn -0.973991 0.000000 0.226587
vn -0.973991 0.000000 0.226587
vn -0.973991 0.000000 -0.226587
vn 0.000000 -1.000000 0.000000
vn 0.000000 -1.000000 0.000000
vn -0.643208 0.000000 0.765692
vn -0.643208 0.000000 0.765692
vn -0.684866 0.000000 0.728669
vn -0.684866 0.000000 0.728669
vn 0.000000 1.000000 0.000000
vn 0.000000 1.000000 0.000000
vn -0.643208 0.000000 -0.765692
vn -0.643208 0.000000 -0.765692
vn -0.684866 0.000000 -0.728669
vn -0.684866 0.000000 -0.728669
vn 0.000000 -1.000000 0.000000
vn 0.000000 -1.000000 0.000000
vn -0.850547 0.000000 0.525899
vn -0.850547 0.000000 0.525899
vn 0.000000 1.000000 0.000000
vn 0.000000 1.000000 0.000000
vn -0.850547 0.000000 -0.525899
vn -0.850547 0.000000 -0.525899
vn 0.000000 -1.000000 0.000000
vn 0.000000 -1.000000 0.000000
vn 0.000000 1.000000 0.000000
vn 0.000000 1.000000 0.000000
vn 0.000000 0.000000 1.000000
vn 0.000000 0.000000 1.000000
vn 0.000000 1.000000 0.000000
vn 0.000000 1.000000 0.000000
vn 0.000000 0.000000 -1.000000
vn 0.000000 0.000000 -1.000000
vn 0.000000 -1.000000 0.000000
vn 0.000000 -1.000000 0.000000
vn 0.973991 0.000000 -0.226587
vn 0.973991 0.000000 -0.226587
vn 0.973991 0.000000 0.226587
vn 0.973991 0.000000 0.226587
vn 0.000000 -1.000000 0.000000
vn 0.000000 -1.000000 0.000000
vn 0.643208 0.000000 0.765692
vn 0.684866 0.000000 0.728669
vn 0.684866 0.000000 0.728669
vn 0.643208 0.000000 0.765692
vn 0.000000 1.000000 0.000000
vn 0.000000 1.000000 0.000000
vn 0.643208 0.000000 -0.765692
vn 0.684866 0.000000 -0.728669
vn 0.684866 0.000000 -0.728669
vn 0.643208 0.000000 -0.765692
vn 0.000000 -1.000000 0.000000
vn 0.000000 -1.000000 0.000000
vn 0.850547 0.000000 0.525899
vn 0.850547 0.000000 0.525899
vn 0.000000 1.000000 0.000000
vn 0.000000 1.000000 0.000000
vn 0.850547 0.000000 -0.525899
vn 0.850547 0.000000 -0.525899
vn 0.000000 -1.000000 0.000000
vn 0.000000 -1.000000 0.000000
vn 0.000000 1.000000 0.000000
vn 0.000000 1.000000 0.000000
vn 0.000000 0.000000 1.000000
vn 0.000000 0.000000 1.000000
vn 0.000000 0.000000 -1.000000
vn 0.000000 0.000000 -1.000000
vn -0.684866 0.000000 -0.728669
vn -0.643208 0.000000 -0.765692
vn -0.643208 0.000000 0.765692
vn -0.684866 0.000000 0.728669
vn -0.850547 0.000000 -0.525899
vn -0.850547 0.000000 0.525899
vn -0.973991 0.000000 -0.226587
vn -0.973991 0.000000 0.226587
vn 0.000000 0.000000 -1.000000
vn 0.000000 0.000000 1.000000
vn 0.684866 0.000000 0.728669
vn 0.643208 0.000000 0.765692
vn 0.643208 0.000000 -0.765692
vn 0.684866 0.000000 -0.728669
vn 0.850547 0.000000 0.525899
vn 0.850547 0.000000 -0.525899
vn 0.973991 0.000000 0.226587
vn 0.973991 0.000000 -0.226587
vn 0.000000 -1.000000 -0.000000
vn 0.000000 -1.000000 -0.000000
vn 0.000000 -0.999227 0.039325
vn 0.003785 -0.999713 0.023679
vn 0.000000 -1.000000 0.000000
vn 0.000000 -1.000000 0.000000
vn 0.003785 -0.999713 -0.023679
vn 0.000000 -0.999227 -0.039325
vn 0.000000 -1.000000 -0.000000
vn 0.021601 -0.999509 -0.022708
vn 0.000000 -1.000000 0.000000
vn 0.021601 -0.999509 0.022708
vn 0.000000 -1.000000 0.000000
vn 0.024471 -0.999583 -0.015316
vn 0.000000 -1.000000 0.000000
vn 0.024471 -0.999583 0.015316
vn 0.000000 -1.000000 0.000000
vn 0.024462 -0.999681 -0.006213
vn 0.000000 -1.000000 -0.000000
vn 0.024462 -0.999681 0.006213
vn 0.000000 -1.000000 0.000000
vn -0.003785 -0.999712 -0.023679
vn 0.000000 -1.000000 -0.000000
vn -0.003785 -0.999712 0.023679
vn 0.000000 -1.000000 0.000000
vn -0.021601 -0.999509 0.022708
vn 0.000000 -1.000000 -0.000000
vn -0.021601 -0.999509 -0.022708
vn 0.000000 -1.000000 0.000000
vn -0.024471 -0.999583 0.015316
vn 0.000000 -1.000000 -0.000000
vn -0.024471 -0.999583 -0.015316
vn 0.000000 -1.000000 0.000000
vn -0.024462 -0.999681 0.006213
vn 0.000000 -1.000000 0.000000
vn -0.024462 -0.999681 -0.006213
vn 0.000000 -0.177650 0.984094
vn 0.000000 -0.169479 0.985534
vn 0.000000 0.000000 1.000000
vn 0.000000 0.000000 1.000000
vn 0.000000 -0.169479 -0.985534
vn 0.000000 -0.177650 -0.984094
vn 0.000000 0.000000 -1.000000
vn 0.000000 0.000000 -1.000000
vn 0.632835 -0.178861 -0.753345
vn 0.679551 -0.172225 -0.713127
vn 0.689929 0.000000 -0.723877
vn 0.643208 0.000000 -0.765692
vn 0.679551 -0.172225 0.713126
vn 0.632835 -0.178861 0.753345
vn 0.643208 0.000000 0.765692
vn 0.689929 0.000000 0.723877
vn 0.834050 -0.175983 -0.522869
vn 0.847228 0.000000 -0.531229
vn 0.834049 -0.175983 0.522869
vn 0.847228 0.000000 0.531229
vn 0.952776 -0.179158 -0.245194
vn 0.968356 0.000000 -0.249575
vn 0.952776 -0.179157 0.245195
vn 0.968356 0.000000 0.249575
vn 0.000000 -0.177650 -0.984094
vn 0.000000 0.000000 -1.000000
vn 0.000000 -0.177650 0.984094
vn 0.000000 0.000000 1.000000
vn -0.632836 -0.178862 0.753344
vn -0.679551 -0.172225 0.713126
vn -0.689930 0.000000 0.723877
vn -0.643208 0.000000 0.765692
vn -0.679551 -0.172225 -0.713126
vn -0.632836 -0.178861 -0.753344
vn -0.643208 0.000000 -0.765692
vn -0.689930 0.000000 -0.723877
vn -0.834049 -0.175983 0.522869
vn -0.847228 0.000000 0.531229
vn -0.834049 -0.175983 -0.522869
vn -0.847228 0.000000 -0.531229
vn -0.952776 -0.179158 0.245195
vn -0.968356 0.000000 0.249575
vn -0.952776 -0.179158 -0.245195
vn -0.968356 0.000000 -0.249575
vn 0.058166 -0.929629 0.363878
vn 0.263277 -0.924166 0.276773
vn 0.594246 -0.382683 0.707407
vn 0.637059 -0.383377 0.668714
vn 0.000000 -0.382684 0.923879
vn 0.000000 -0.382684 0.923880
vn 0.000000 -0.923878 0.382687
vn 0.000000 -0.923878 -0.382687
vn -0.058166 -0.929628 -0.363880
vn 0.000000 -0.382684 -0.923879
vn 0.000000 -0.382684 -0.923879
vn 0.000000 -0.382684 -0.923879
vn 0.058166 -0.929629 -0.363878
vn 0.594246 -0.382683 -0.707407
vn 0.637058 -0.383376 -0.668715
vn 0.263277 -0.924165 -0.276774
vn 0.320916 -0.925566 0.200850
vn 0.781374 -0.386814 0.489724
vn 0.781374 -0.386814 -0.489724
vn 0.320916 -0.925566 -0.200850
vn 0.364076 -0.926767 0.092475
vn 0.891957 -0.389782 0.229091
vn 0.891957 -0.389782 -0.229090
vn 0.364076 -0.926767 -0.092476
vn -0.263277 -0.924166 -0.276772
vn -0.594247 -0.382684 -0.707406
vn -0.637059 -0.383377 -0.668714
vn 0.000000 -0.382684 0.923879
vn -0.058166 -0.929628 0.363880
vn -0.594247 -0.382685 0.707405
vn -0.637059 -0.383378 0.668713
vn -0.263277 -0.924166 0.276772
vn -0.320915 -0.925566 -0.200849
vn -0.781373 -0.386816 -0.489724
vn -0.781373 -0.386816 0.489724
vn -0.320915 -0.925566 0.200849
vn -0.364075 -0.926767 -0.092476
vn -0.891956 -0.389784 -0.229091
vn -0.891956 -0.389784 0.229091
vn -0.364075 -0.926767 0.092476
vn -0.309016 0.951057 0.000000
vn -0.587786 0.809017 0.000000
vn -0.587786 0.809017 0.000000
vn -0.309016 0.951057 0.000000
vn -0.809017 0.587786 0.000000
vn -0.809017 0.587786 0.000000
vn -0.951056 0.309017 0.000000
vn -0.951056 0.309017 0.000000
vn -1.000000 0.000000 0.000000
vn -1.000000 0.000000 0.000000
vn -0.951057 -0.309017 0.000000
vn -0.951057 -0.309017 0.000000
vn -0.809017 -0.587785 0.000000
vn -0.809017 -0.587785 0.000000
vn -0.587785 -0.809017 0.000000
vn -0.587785 -0.809017 0.000000
vn -0.309017 -0.951057 0.000000
vn -0.309017 -0.951057 0.000000
vn 0.000000 -1.000000 0.000000
vn 0.000000 -1.000000 0.000000
vn 0.309017 -0.951057 0.000000
vn 0.309017 -0.951057 0.000000
vn 0.587785 -0.809017 0.000000
vn 0.587785 -0.809017 0.000000
vn 0.809017 -0.587785 0.000000
vn 0.809017 -0.587785 0.000000
vn 0.951057 -0.309016 0.000000
vn 0.951057 -0.309016 0.000000
vn 1.000000 0.000000 0.000000
vn 1.000000 0.000000 0.000000
vn 0.951056 0.309017 0.000000
vn 0.951056 0.309017 0.000000
vn 0.809018 0.587785 0.000000
vn 0.809018 0.587785 0.000000
vn 0.587785 0.809018 0.000000
vn 0.587785 0.809018 0.000000
vn 0.309016 0.951057 0.000000
vn 0.309016 0.951057 0.000000
vn 0.000002 1.000000 0.000000
vn 0.000002 1.000000 0.000000
vn -0.000000 0.000000 -1.000000
vn -0.000000 0.000000 -1.000000
vn -0.000000 0.000000 -1.000000
vn -0.000000 0.000000 -1.000000
vn 0.000000 0.000000 -1.000000
vn 0.000000 0.000000 -1.000000
vn 0.000000 0.000000 -1.000000
vn 0.000000 0.000000 -1.000000
vn 0.000000 0.000000 -1.000000
vn 0.000000 0.000000 -1.000000
vn 0.000000 0.000000 -1.000000
vn -0.000000 0.000000 -1.000000
vn 0.000000 0.000000 -1.000000
vn 0.000000 0.000000 -1.000000
vn 0.000000 0.000000 -1.000000
vn 0.000000 0.000000 -1.000000
vn 0.000000 0.000000 -1.000000
vn 0.000000 0.000000 -1.000000
vn 0.000000 0.000000 -1.000000
vn 0.000000 0.000000 -1.000000
vn -0.000000 0.000000 -1.000000
vn 0.000000 0.000000 1.000000
vn 0.000000 0.000000 1.000000
vn 0.000000 0.000000 1.000000
vn 0.000000 0.000000 1.000000
vn 0.000000 0.000000 1.000000
vn 0.000000 0.000000 1.000000
vn -0.000000 0.000000 1.000000
vn -0.000000 0.000000 1.000000
vn 0.000000 0.000000 1.000000
vn 0.000000 0.000000 1.000000
vn 0.000000 0.000000 1.000000
vn 0.000000 0.000000 1.000000
vn 0.000000 0.000000 1.000000
vn 0.000000 0.000000 1.000000
vn 0.000000 0.000000 1.000000
vn 0.000000 0.000000 1.000000
vn -0.000000 0.000000 1.000000
vn 0.000000 0.000000 1.000000
vn 0.000000 0.000000 1.000000
vn 0.000000 0.000000 1.000000
vn 0.000000 0.000000 1.000000
vn 0.000002 1.000000 0.000000
vn -0.309015 0.951057 0.000000
vn -0.309015 0.951057 0.000000
vn 0.000002 1.000000 0.000000
vn 0.309015 0.951057 0.000000
vn 0.309015 0.951057 0.000000
vn 0.587787 0.809016 0.000000
vn 0.587787 0.809016 0.000000
vn 0.809018 0.587784 0.000000
vn 0.809018 0.587784 0.000000
vn 0.951056 0.309018 0.000000
vn 0.951056 0.309018 0.000000
vn 1.000000 0.000001 0.000000
vn 1.000000 0.000001 0.000000
vn 0.951057 -0.309017 0.000000
vn 0.951057 -0.309017 0.000000
vn 0.809017 -0.587785 0.000000
vn 0.809017 -0.587785 0.000000
vn 0.587786 -0.809017 0.000000
vn 0.587786 -0.809017 0.000000
vn 0.309017 -0.951057 0.000000
vn 0.309017 -0.951057 0.000000
vn 0.000000 -1.000000 0.000000
vn 0.000000 -1.000000 0.000000
vn -0.309017 -0.951057 0.000000
vn -0.309017 -0.951057 0.000000
vn -0.587786 -0.809017 0.000000
vn -0.587786 -0.809017 0.000000
vn -0.809017 -0.587785 0.000000
vn -0.809017 -0.587785 0.000000
vn -0.951056 -0.309018 0.000000
vn -0.951056 -0.309018 0.000000
vn -1.000000 0.000001 0.000000
vn -1.000000 0.000001 0.000000
vn -0.951057 0.309017 0.000000
vn -0.951057 0.309017 0.000000
vn -0.809017 0.587785 0.000000
vn -0.809017 0.587785 0.000000
vn -0.587785 0.809017 0.000000
vn -0.587785 0.809017 0.000000
vn 0.000002 1.000000 0.000000
vn -0.309016 0.951057 0.000000
vn -0.309016 0.951057 0.000000
vn 0.000002 1.000000 0.000000
vn 0.309016 0.951057 0.000000
vn 0.309016 0.951057 0.000000
vn 0.587785 0.809017 0.000000
vn 0.587785 0.809017 0.000000
vn 0.809018 0.587784 0.000000
vn 0.809018 0.587784 0.000000
vn 0.951056 0.309017 0.000000
vn 0.951056 0.309017 0.000000
vn 1.000000 0.000000 0.000000
vn 1.000000 0.000000 0.000000
vn 0.951057 -0.309016 0.000000
vn 0.951057 -0.309016 0.000000
vn 0.809017 -0.587785 0.000000
vn 0.809017 -0.587785 0.000000
vn 0.587785 -0.809017 0.000000
vn 0.587785 -0.809017 0.000000
vn 0.309017 -0.951057 0.000000
vn 0.309017 -0.951057 0.000000
vn 0.000000 -1.000000 0.000000
vn 0.000000 -1.000000 0.000000
vn -0.309017 -0.951057 0.000000
vn -0.309017 -0.951057 0.000000
vn -0.587785 -0.809017 0.000000
vn -0.587785 -0.809017 0.000000
vn -0.809017 -0.587785 0.000000
vn -0.809017 -0.587785 0.000000
vn -0.951057 -0.309017 0.000000
vn -0.951057 -0.309017 0.000000
vn -1.000000 -0.000000 0.000000
vn -1.000000 -0.000000 0.000000
vn -0.951056 0.309017 0.000000
vn -0.951056 0.309017 0.000000
vn -0.809017 0.587786 0.000000
vn -0.809017 0.587786 0.000000
vn -0.587786 0.809017 0.000000
vn -0.587786 0.809017 0.000000
vn 0.000000 0.000000 1.000000
vn 0.000000 0.000000 1.000000
vn 0.000000 0.000000 1.000000
vn 0.000000 0.000000 1.000000
vn 0.000000 0.000000 -1.000000
vn 0.000000 0.000000 -1.000000
vn 0.000000 0.000000 -1.000000
vn 0.000000 0.000000 -1.000000
vn -0.000000 0.000000 1.000000
vn -0.000000 0.000000 1.000000
vn 0.000000 0.000000 -1.000000
vn 0.000000 0.000000 -1.000000
vn -0.000000 0.000000 1.000000
vn -0.000000 0.000000 1.000000
vn -0.000000 0.000000 -1.000000
vn -0.000000 0.000000 -1.000000
vn -0.000000 0.000000 1.000000
vn -0.000000 0.000000 1.000000
vn -0.000000 0.000000 -1.000000
vn -0.000000 0.000000 -1.000000
vn -0.000000 0.000000 1.000000
vn -0.000000 0.000000 1.000000
vn -0.000000 0.000000 -1.000000
vn -0.000000 0.000000 -1.000000
vn 0.000000 0.000000 1.000000
vn 0.000000 0.000000 1.000000
vn -0.000000 0.000000 -1.000000
vn -0.000000 0.000000 -1.000000
vn 0.000000 0.000000 1.000000
vn 0.000000 0.000000 1.000000
vn -0.000000 0.000000 -1.000000
vn -0.000000 0.000000 -1.000000
vn -0.000000 0.000000 1.000000
vn -0.000000 0.000000 1.000000
vn -0.000000 0.000000 -1.000000
vn -0.000000 0.000000 -1.000000
vn 0.000000 0.000000 1.000000
vn 0.000000 0.000000 1.000000
vn -0.000000 0.000000 -1.000000
vn -0.000000 0.000000 -1.000000
vn 0.000000 0.000000 1.000000
vn 0.000000 0.000000 1.000000
vn 0.000000 0.000000 -1.000000
vn 0.000000 0.000000 -1.000000
vn 0.000000 0.000000 1.000000
vn 0.000000 0.000000 1.000000
vn 0.000000 0.000000 -1.000000
vn 0.000000 0.000000 -1.000000
vn 0.000000 0.000000 1.000000
vn 0.000000 0.000000 1.000000
vn -0.000000 0.000000 -1.000000
vn -0.000000 0.000000 -1.000000
vn 0.000000 0.000000 1.000000
vn 0.000000 0.000000 1.000000
vn 0.000000 0.000000 -1.000000
vn 0.000000 0.000000 -1.000000
vn -0.000000 0.000000 1.000000
vn -0.000000 0.000000 1.000000
vn 0.000000 0.000000 -1.000000
vn 0.000000 0.000000 -1.000000
vn -0.000000 0.000000 1.000000
vn -0.000000 0.000000 1.000000
vn 0.000000 0.000000 -1.000000
vn 0.000000 0.000000 -1.000000
vn -0.000000 0.000000 1.000000
vn -0.000000 0.000000 1.000000
vn 0.000000 0.000000 -1.000000
vn 0.000000 0.000000 -1.000000
vn 0.000000 0.000000 1.000000
vn 0.000000 0.000000 1.000000
vn 0.000000 0.000000 -1.000000
vn 0.000000 0.000000 -1.000000
vn 0.000000 0.000000 1.000000
vn 0.000000 0.000000 1.000000
vn 0.000001 0.000000 -1.000000
vn 0.000001 0.000000 -1.000000
vn 0.000000 0.000000 1.000000
vn 0.000000 0.000000 1.000000
vn 0.000000 0.000000 -1.000000
vn 0.000000 0.000000 -1.000000
s 1
g Lighter
usemtl initialShadingGroup
f 44/55/1 45/56/2 46/57/3 47/58/4
f 44/55/1 47/58/4 48/63/5 49/64/6
f 49/64/6 48/63/5 50/68/7 51/69/8
f 51/69/8 50/68/7 52/74/9 53/75/10
f 55/80/11 54/79/12 56/85/13 57/86/14
f 58/93/15 55/80/11 57/86/14 59/94/16
f 60/89/17 58/93/15 59/94/16 61/96/18
f 62/90/19 60/89/17 61/96/18 63/97/20
f 47/58/4 46/57/3 64/61/21 65/62/22
f 66/66/23 47/58/4 65/62/22
f 50/68/7 48/63/5 67/72/24 68/73/25
f 52/74/9 50/68/7 68/73/25 69/78/26
f 46/57/3 45/56/2 70/59/27 71/60/28
f 56/85/13 54/79/12 72/91/29 73/92/30
f 75/88/31 74/95/32 58/93/15
f 76/83/33 75/88/31 58/93/15 60/89/17
f 77/84/34 76/83/33 60/89/17 62/90/19
f 79/76/35 78/70/36 54/79/12 55/80/11
f 68/73/25 67/72/24 80/77/37
f 69/78/26 68/73/25 76/83/33 77/84/34
f 81/71/38 78/70/36 79/76/35
f 48/63/5 82/67/39 67/72/24
f 48/63/5 47/58/4 66/66/23 82/67/39
f 55/80/11 83/87/40 79/76/35
f 58/93/15 74/95/32 83/87/40 55/80/11
f 76/83/33 84/82/41 75/88/31
f 68/73/25 80/77/37 85/81/42 84/82/41 76/83/33
f 86/65/43 64/61/21 78/70/36 81/71/38
f 65/62/22 64/61/21 86/65/43
s 3
f 1/98/44 17/99/45 22/100/46 21/101/47
f 1/98/44 6/102/48 18/103/49 17/99/45
f 6/102/48 8/108/50 19/109/51 18/103/49
f 8/108/50 10/113/52 20/114/53 19/109/51
f 12/126/54 4/132/55 24/133/56 23/127/57
f 13/136/58 5/138/59 4/132/55 12/126/54
f 14/129/60 7/135/61 5/138/59 13/136/58
f 15/128/62 9/134/63 7/135/61 14/129/60
f 17/99/45 30/104/64 34/105/65 22/100/46
f 41/111/66 30/104/64 17/99/45
f 19/109/51 32/115/67 31/116/68 18/103/49
f 20/114/53 33/119/69 32/115/67 19/109/51
f 22/100/46 16/106/70 2/107/71 21/101/47
f 24/133/56 3/139/72 11/140/73 23/127/57
f 26/130/74 13/136/58 36/137/75
f 27/123/76 14/129/60 13/136/58 26/130/74
f 28/122/77 15/128/62 14/129/60 27/123/76
f 25/121/78 12/126/54 23/127/57 29/118/79
f 32/115/67 39/120/80 31/116/68
f 33/119/69 28/122/77 27/123/76 32/115/67
f 38/117/81 25/121/78 29/118/79
f 18/103/49 31/116/68 42/110/82
f 18/103/49 42/110/82 41/111/66 17/99/45
f 12/126/54 25/121/78 35/131/83
f 13/136/58 12/126/54 35/131/83 36/137/75
f 27/123/76 26/130/74 43/124/84
f 32/115/67 27/123/76 43/124/84 40/125/85 39/120/80
f 37/112/86 38/117/81 29/118/79 34/105/65
f 30/104/64 37/112/86 34/105/65
s 5
f 1/141/87 21/142/88 45/143/89 44/144/90
s 6
f 6/147/91 1/141/92 44/144/93 49/148/94
f 8/1/95 6/2/91 49/3/94 51/4/96
f 20/7/97 10/5/98 53/6/99 52/8/100
f 10/5/98 8/1/95 51/4/96 53/6/99
s 7
f 24/149/101 4/150/102 57/151/103 56/152/104
s 6
f 4/150/105 5/153/106 59/154/107 57/151/108
f 5/19/106 7/17/109 61/18/110 59/20/107
f 7/17/109 9/15/111 63/16/112 61/18/110
f 9/15/111 15/13/113 62/14/114 63/16/112
s 9
f 22/21/115 34/22/116 64/23/117 46/24/118
s off
f 30/157/119 41/158/120 66/159/121 65/160/122
s 6
f 33/9/123 20/7/97 52/8/100 69/10/124
s 5
f 21/142/88 2/145/125 70/146/126 45/143/89
s off
f 2/29/127 16/30/128 71/31/129 70/32/130
f 16/165/131 22/166/132 46/167/133 71/168/134
f 23/169/135 11/170/136 72/171/137 54/172/138
f 11/33/139 3/34/140 73/35/141 72/36/142
s 7
f 3/155/143 24/149/101 56/152/104 73/156/144
s off
f 26/173/145 36/174/146 74/175/147 75/176/148
s 6
f 15/13/113 28/11/149 77/12/150 62/14/114
s 9
f 29/25/151 23/27/152 54/28/153 78/26/154
s 10
f 31/37/155 39/38/156 80/39/157 67/40/158
s 6
f 28/11/149 33/9/123 69/10/124 77/12/150
s off
f 25/47/159 38/48/160 81/49/161 79/50/162
s 10
f 42/161/163 31/163/155 67/164/158 82/162/164
s off
f 41/158/165 42/161/166 82/162/167 66/159/168
f 35/177/169 25/179/170 79/180/171 83/178/172
f 36/174/173 35/177/174 83/178/175 74/175/176
s 11
f 43/43/177 26/45/178 75/46/179 84/44/180
s off
f 39/38/181 40/41/182 85/42/183 80/39/184
s 11
f 40/41/185 43/43/177 84/44/180 85/42/186
s 9
f 34/22/116 29/25/151 78/26/154 64/23/117
s off
f 38/48/187 37/51/188 86/52/189 81/49/190
f 37/51/191 30/53/192 65/54/193 86/52/194
s 12
f 99/181/195 100/182/196 101/183/197 102/184/198
f 103/185/199 104/186/200 101/183/197 100/182/196
f 103/185/199 105/187/201 106/188/202 104/186/200
f 105/187/201 107/189/203 108/190/204 106/188/202
f 107/189/203 109/191/205 110/192/206 108/190/204
s 13
f 87/193/207 90/194/208 89/195/209 88/196/210
f 91/197/211 88/196/210 89/195/209 92/198/212
f 91/197/211 92/198/212 94/199/213 93/200/214
f 93/200/214 94/199/213 96/201/215 95/202/216
f 95/202/216 96/201/215 98/203/217 97/204/218
s 14
f 87/205/219 88/206/220 100/207/221 99/208/222
s 15
f 89/209/223 90/210/224 102/211/225 101/212/226
s off
f 90/213/227 87/214/228 99/215/229 102/216/230
s 15
f 92/217/231 89/209/223 101/212/226 104/218/232
s 14
f 88/206/220 91/219/233 103/220/234 100/207/221
s 16
f 91/219/235 93/221/236 105/222/237 103/220/238
f 94/223/239 92/217/240 104/218/241 106/224/242
f 93/225/236 95/226/243 107/227/244 105/228/237
f 96/229/245 94/230/239 106/231/242 108/232/246
f 95/226/243 97/233/247 109/234/248 107/227/244
f 97/233/247 98/235/249 110/236/250 109/234/248
f 98/235/249 96/229/245 108/232/246 110/236/250
s 18
f 111/237/251 127/238/252 128/239/253 112/240/254
s 19
f 165/241/255 166/242/256 167/243/257 168/244/258
s 20
f 113/245/259 129/246/260 130/247/261 114/248/262
s 21
f 147/249/263 148/250/264 149/251/265 150/252/266
s 22
f 123/253/267 124/254/268 125/255/269 126/256/270
s 21
f 147/249/263 150/252/266 151/257/271 152/258/272
s 22
f 111/237/273 112/240/274 117/259/275 116/260/276
s 19
f 165/241/255 168/244/258 169/261/277 170/262/278
s 22
f 113/245/279 114/248/280 115/263/281 118/264/282
s 21
f 152/258/272 151/257/271 153/265/283 154/266/284
s 22
f 116/267/276 117/268/275 121/269/285 120/270/286
s 19
f 170/262/278 169/261/277 171/271/287 172/272/288
s 22
f 118/273/282 115/274/281 119/275/289 122/276/290
s 21
f 154/266/284 153/265/283 155/277/291 156/278/292
s 22
f 120/270/286 121/269/285 125/255/269 124/254/268
s 19
f 172/272/288 171/271/287 173/279/293 174/280/294
s 22
f 122/276/290 119/275/289 123/253/267 126/256/270
s 18
f 131/281/295 132/282/296 128/239/253 127/238/252
s 19
f 175/283/297 176/284/298 167/243/257 166/242/256
s 20
f 133/285/299 134/286/300 130/247/261 129/246/260
s 21
f 157/287/301 158/288/302 149/251/265 148/250/264
s 25
f 143/289/303 146/290/304 145/291/305 144/292/306
s 21
f 157/287/301 159/293/307 160/294/308 158/288/302
s 25
f 131/281/309 136/295/310 137/296/311 132/282/312
s 19
f 175/283/297 177/297/313 178/298/314 176/284/298
s 25
f 133/285/315 138/299/316 135/300/317 134/286/318
s 21
f 159/293/307 161/301/319 162/302/320 160/294/308
s 25
f 136/303/310 140/304/321 141/305/322 137/306/311
s 19
f 177/297/313 179/307/323 180/308/324 178/298/314
s 25
f 138/309/316 142/310/325 139/311/326 135/312/317
s 21
f 161/301/319 163/313/327 164/314/328 162/302/320
s 25
f 140/304/321 144/292/306 145/291/305 141/305/322
s 19
f 179/307/323 181/315/329 182/316/330 180/308/324
s 25
f 142/310/325 146/290/304 143/289/303 139/311/326
s 18
f 112/240/254 128/239/253 166/317/331 165/318/332
s 20
f 129/246/260 113/245/259 168/319/333 167/320/334
s 22
f 113/245/279 118/264/282 169/321/335 168/319/336
f 117/259/275 112/240/274 165/318/337 170/322/338
f 118/273/282 122/276/290 171/323/339 169/324/335
f 121/269/285 117/268/275 170/325/338 172/326/340
f 122/276/290 126/256/270 173/327/341 171/323/339
f 126/256/270 125/255/269 174/328/342 173/327/341
f 125/255/269 121/269/285 172/326/340 174/328/342
s 20
f 133/285/299 129/246/260 167/320/334 176/329/343
s 18
f 128/239/253 132/282/296 175/330/344 166/317/331
s 25
f 132/282/312 137/296/311 177/331/345 175/330/346
f 138/299/316 133/285/315 176/329/347 178/332/348
f 137/306/311 141/305/322 179/333/349 177/334/345
f 142/310/325 138/309/316 178/335/348 180/336/350
f 141/305/322 145/291/305 181/337/351 179/333/349
f 145/291/305 146/290/304 182/338/352 181/337/351
f 146/290/304 142/310/325 180/336/350 182/338/352
s 28
f 114/339/353 130/340/354 186/341/355 183/342/356
f 127/343/357 111/344/358 192/345/359 189/346/360
f 111/344/358 116/347/361 195/348/362 192/345/359
f 115/349/363 114/339/353 183/342/356 198/350/364
f 116/347/361 120/351/365 201/352/366 195/348/362
f 119/353/367 115/349/363 198/350/364 204/354/368
f 120/351/365 124/355/369 207/356/370 201/352/366
f 124/355/369 123/357/371 210/358/372 207/356/370
f 123/357/371 119/353/367 204/354/368 210/358/372
f 131/359/373 127/343/357 189/346/360 213/360/374
f 130/340/354 134/361/375 216/362/376 186/341/355
f 134/361/375 135/363/377 219/364/378 216/362/376
f 136/365/379 131/359/373 213/360/374 222/366/380
f 135/363/377 139/367/381 225/368/382 219/364/378
f 140/369/383 136/365/379 222/366/380 228/370/384
f 139/367/381 143/371/385 231/372/386 225/368/382
f 143/371/385 144/373/387 234/374/388 231/372/386
f 144/373/387 140/369/383 228/370/384 234/374/388
s 30
f 185/375/389 188/376/390 148/377/391 147/378/392
s 31
f 191/379/393 194/380/394 150/381/395 149/382/396
s 32
f 194/380/397 197/383/398 151/384/399 150/381/400
f 200/385/401 185/375/402 147/378/403 152/386/404
f 197/387/398 203/388/405 153/389/406 151/390/399
f 206/391/407 200/392/401 152/393/404 154/394/408
f 203/388/405 209/395/409 155/396/410 153/389/406
f 209/395/409 212/397/411 156/398/412 155/396/410
f 212/397/411 206/391/407 154/394/408 156/398/412
s 31
f 215/399/413 191/379/393 149/382/396 158/400/414
s 30
f 188/376/390 218/401/415 157/402/416 148/377/391
s 34
f 218/401/417 221/403/418 159/404/419 157/402/420
f 224/405/421 215/399/422 158/400/423 160/406/424
f 221/407/418 227/408/425 161/409/426 159/410/419
f 230/411/427 224/412/421 160/413/424 162/414/428
f 227/408/425 233/415/429 163/416/430 161/409/426
f 233/415/429 236/417/431 164/418/432 163/416/430
f 236/417/431 230/411/427 162/414/428 164/418/432
s 28
f 183/342/356 184/419/433 199/420/434 198/350/364
s 32
f 184/421/435 185/375/402 200/385/401 199/422/436
s 30
f 185/375/389 184/421/437 187/423/438 188/376/390
s 28
f 184/419/433 183/342/356 186/341/355 187/424/439
f 189/346/360 190/425/440 214/426/441 213/360/374
s 31
f 190/427/442 191/379/393 215/399/413 214/428/443
f 191/379/393 190/427/442 193/429/444 194/380/394
s 28
f 190/425/440 189/346/360 192/345/359 193/430/445
s 32
f 194/380/397 193/429/446 196/431/447 197/383/398
s 28
f 193/430/445 192/345/359 195/348/362 196/432/448
f 198/350/364 199/420/434 205/433/449 204/354/368
s 32
f 199/434/436 200/392/401 206/391/407 205/435/450
f 197/387/398 196/436/447 202/437/451 203/388/405
s 28
f 196/432/448 195/348/362 201/352/366 202/438/452
f 204/354/368 205/433/449 211/439/453 210/358/372
s 32
f 205/435/450 206/391/407 212/397/411 211/440/454
f 203/388/405 202/437/451 208/441/455 209/395/409
s 28
f 202/438/452 201/352/366 207/356/370 208/442/456
s 32
f 209/395/409 208/441/455 211/440/454 212/397/411
s 28
f 208/442/456 207/356/370 210/358/372 211/439/453
f 213/360/374 214/426/441 223/443/457 222/366/380
s 34
f 214/428/458 215/399/422 224/405/421 223/444/459
s 30
f 188/376/390 187/423/438 217/445/460 218/401/415
s 28
f 187/424/439 186/341/355 216/362/376 217/446/461
s 34
f 218/401/417 217/445/462 220/447/463 221/403/418
s 28
f 217/446/461 216/362/376 219/364/378 220/448/464
f 222/366/380 223/443/457 229/449/465 228/370/384
s 34
f 223/450/459 224/412/421 230/411/427 229/451/466
f 221/407/418 220/452/463 226/453/467 227/408/425
s 28
f 220/448/464 219/364/378 225/368/382 226/454/468
f 228/370/384 229/449/465 235/455/469 234/374/388
s 34
f 229/451/466 230/411/427 236/417/431 235/456/470
f 227/408/425 226/453/467 232/457/471 233/415/429
s 28
f 226/454/468 225/368/382 231/372/386 232/458/472
s 34
f 233/415/429 232/457/471 235/456/470 236/417/431
s 28
f 232/458/472 231/372/386 234/374/388 235/455/469
s 36
f 237/459/473 238/460/474 298/461/475 279/462/476
f 238/460/474 239/463/477 297/464/478 298/461/475
f 239/465/477 240/466/479 296/467/480 297/468/478
f 240/466/479 241/469/481 295/470/482 296/467/480
f 241/469/481 242/471/483 294/472/484 295/470/482
f 242/471/483 243/473/485 293/474/486 294/472/484
f 243/473/485 244/475/487 292/476/488 293/474/486
f 244/477/487 245/478/489 291/479/490 292/480/488
f 245/478/489 246/481/491 290/482/492 291/479/490
f 246/481/491 247/483/493 289/484/494 290/482/492
f 247/483/493 248/485/495 288/486/496 289/484/494
f 248/487/495 249/488/497 287/489/498 288/490/496
f 249/488/497 250/491/499 286/492/500 287/489/498
f 250/491/499 251/493/501 285/494/502 286/492/500
f 251/493/501 252/495/503 284/496/504 285/494/502
f 252/495/503 253/497/505 283/498/506 284/496/504
f 253/497/505 254/499/507 282/500/508 283/498/506
f 254/501/507 255/502/509 281/503/510 282/504/508
f 255/502/509 256/505/511 280/506/512 281/503/510
f 256/505/511 237/459/473 279/462/476 280/506/512
s 37
f 238/507/513 237/508/514 277/509/515
f 239/510/516 238/507/513 277/509/515
f 240/511/517 239/510/516 277/509/515
f 241/512/518 240/511/517 277/509/515
f 242/513/519 241/512/518 277/509/515
f 243/514/520 242/513/519 277/509/515
f 244/515/521 243/514/520 277/509/515
f 245/516/522 244/515/521 277/509/515
f 246/517/523 245/516/522 277/509/515
f 247/518/524 246/517/523 277/509/515
f 248/519/525 247/518/524 277/509/515
f 249/520/526 248/519/525 277/509/515
f 250/521/527 249/520/526 277/509/515
f 251/522/528 250/521/527 277/509/515
f 252/523/529 251/522/528 277/509/515
f 253/524/530 252/523/529 277/509/515
f 254/525/531 253/524/530 277/509/515
f 255/526/532 254/525/531 277/509/515
f 256/527/533 255/526/532 277/509/515
f 237/508/514 256/527/533 277/509/515
s 38
f 257/528/534 258/529/535 278/530/536
f 258/529/535 259/531/537 278/530/536
f 259/531/537 260/532/538 278/530/536
f 260/532/538 261/533/539 278/530/536
f 261/533/539 262/534/540 278/530/536
f 262/534/540 263/535/541 278/530/536
f 263/535/541 264/536/542 278/530/536
f 264/536/542 265/537/543 278/530/536
f 265/537/543 266/538/544 278/530/536
f 266/538/544 267/539/545 278/530/536
f 267/539/545 268/540/546 278/530/536
f 268/540/546 269/541/547 278/530/536
f 269/541/547 270/542/548 278/530/536
f 270/542/548 271/543/549 278/530/536
f 271/543/549 272/544/550 278/530/536
f 272/544/550 273/545/551 278/530/536
f 273/545/551 274/546/552 278/530/536
f 274/546/552 275/547/553 278/530/536
f 275/547/553 276/548/554 278/530/536
f 276/548/554 257/528/534 278/530/536
s 39
f 320/549/555 319/550/556 321/551/557 322/552/558
f 323/553/559 320/549/555 322/552/558 324/554/560
f 325/555/561 323/553/559 324/554/560 326/556/562
f 327/557/563 325/558/561 326/559/562 328/560/564
f 329/561/565 327/557/563 328/560/564 330/562/566
f 331/563/567 329/561/565 330/562/566 332/564/568
f 333/565/569 331/563/567 332/564/568 334/566/570
f 335/567/571 333/565/569 334/566/570 336/568/572
f 337/569/573 335/567/571 336/568/572 338/570/574
f 339/571/575 337/572/573 338/573/574 340/574/576
f 341/575/577 339/571/575 340/574/576 342/576/578
f 343/577/579 341/575/577 342/576/578 344/578/580
f 345/579/581 343/577/579 344/578/580 346/580/582
f 347/581/583 345/582/581 346/583/582 348/584/584
f 349/585/585 347/581/583 348/584/584 350/586/586
f 351/587/587 349/585/585 350/586/586 352/588/588
f 353/589/589 351/587/587 352/588/588 354/590/590
f 355/591/591 353/589/589 354/590/590 356/592/592
f 357/593/593 355/594/591 356/595/592 358/596/594
f 319/550/556 357/593/593 358/596/594 321/551/557
s 40
f 300/597/595 299/598/596 257/599/597 276/600/598
f 301/601/599 300/597/595 276/600/598 275/602/600
f 302/603/601 301/601/599 275/602/600 274/604/602
f 303/605/603 302/606/601 274/607/602 273/608/604
f 304/609/605 303/605/603 273/608/604 272/610/606
f 305/611/607 304/609/605 272/610/606 271/612/608
f 306/613/609 305/611/607 271/612/608 270/614/610
f 307/615/611 306/613/609 270/614/610 269/616/612
f 308/617/613 307/615/611 269/616/612 268/618/614
f 309/619/615 308/620/613 268/621/614 267/622/616
f 310/623/617 309/619/615 267/622/616 266/624/618
f 311/625/619 310/623/617 266/624/618 265/626/620
f 312/627/621 311/625/619 265/626/620 264/628/622
f 313/629/623 312/630/621 264/631/622 263/632/624
f 314/633/625 313/629/623 263/632/624 262/634/626
f 315/635/627 314/633/625 262/634/626 261/636/628
f 316/637/629 315/635/627 261/636/628 260/638/630
f 317/639/631 316/637/629 260/638/630 259/640/632
f 318/641/633 317/642/631 259/643/632 258/644/634
f 299/598/596 318/641/633 258/644/634 257/599/597
s 41
f 280/645/635 279/646/636 319/647/637 320/648/638
s 42
f 299/649/639 300/650/640 322/651/641 321/652/642
s 41
f 281/653/643 280/645/635 320/648/638 323/654/644
s 42
f 300/650/640 301/655/645 324/656/646 322/651/641
s 41
f 282/657/647 281/653/643 323/654/644 325/658/648
s 42
f 301/655/645 302/659/649 326/660/650 324/656/646
s 41
f 283/661/651 282/657/647 325/658/648 327/662/652
s 42
f 302/659/649 303/663/653 328/664/654 326/660/650
s 41
f 284/665/655 283/661/651 327/662/652 329/666/656
s 42
f 303/663/653 304/667/657 330/668/658 328/664/654
s 41
f 285/669/659 284/665/655 329/666/656 331/670/660
s 42
f 304/667/657 305/671/661 332/672/662 330/668/658
s 41
f 286/673/663 285/669/659 331/670/660 333/674/664
s 42
f 305/671/661 306/675/665 334/676/666 332/672/662
s 41
f 287/677/667 286/673/663 333/674/664 335/678/668
s 42
f 306/675/665 307/679/669 336/680/670 334/676/666
s 41
f 288/681/671 287/677/667 335/678/668 337/682/672
s 42
f 307/679/669 308/683/673 338/684/674 336/680/670
s 41
f 289/685/675 288/681/671 337/682/672 339/686/676
s 42
f 308/683/673 309/687/677 340/688/678 338/684/674
s 41
f 290/689/679 289/685/675 339/686/676 341/690/680
s 42
f 309/687/677 310/691/681 342/692/682 340/688/678
s 41
f 291/693/683 290/689/679 341/690/680 343/694/684
s 42
f 310/691/681 311/695/685 344/696/686 342/692/682
s 41
f 292/697/687 291/693/683 343/694/684 345/698/688
s 42
f 311/695/685 312/699/689 346/700/690 344/696/686
s 41
f 293/701/691 292/697/687 345/698/688 347/702/692
s 42
f 312/699/689 313/703/693 348/704/694 346/700/690
s 41
f 294/705/695 293/701/691 347/702/692 349/706/696
s 42
f 313/703/693 314/707/697 350/708/698 348/704/694
s 41
f 295/709/699 294/705/695 349/706/696 351/710/700
s 42
f 314/707/697 315/711/701 352/712/702 350/708/698
s 41
f 296/713/703 295/709/699 351/710/700 353/714/704
s 42
f 315/711/701 316/715/705 354/716/706 352/712/702
s 41
f 297/717/707 296/713/703 353/714/704 355/718/708
s 42
f 316/715/705 317/719/709 356/720/710 354/716/706
s 41
f 298/721/711 297/717/707 355/718/708 357/722/712
s 42
f 317/719/709 318/723/713 358/724/714 356/720/710
s 41
f 279/646/636 298/721/711 357/722/712 319/647/637
s 42
f 318/723/713 299/649/639 321/652/642 358/724/714
