# This file uses centimeters as units for non-parametric coordinates.

mtllib LightBulb.mtl
g default
v 13.957197 -0.076216 0.671810
v 13.919462 -0.076216 0.597750
v 13.860687 -0.076216 0.538975
v 13.786626 -0.076216 0.501240
v 13.704531 -0.076216 0.488236
v 13.622434 -0.076216 0.501240
v 13.548375 -0.076216 0.538975
v 13.489599 -0.076216 0.597750
v 13.451864 -0.076216 0.671810
v 13.438860 -0.076216 0.753907
v 13.451864 -0.076216 0.836004
v 13.489599 -0.076216 0.910064
v 13.548375 -0.076216 0.968838
v 13.622434 -0.076216 1.006574
v 13.704531 -0.076216 1.019577
v 13.786626 -0.076216 1.006574
v 13.860687 -0.076216 0.968838
v 13.919462 -0.076216 0.910064
v 13.957197 -0.076216 0.836004
v 13.970200 -0.076216 0.753907
v 13.737753 0.195948 0.743111
v 13.732791 0.195949 0.733375
v 13.725063 0.195949 0.725646
v 13.715324 0.195948 0.720685
v 13.704531 0.195948 0.718975
v 13.693736 0.195949 0.720685
v 13.683998 0.195948 0.725647
v 13.676270 0.195949 0.733375
v 13.671308 0.195948 0.743112
v 13.669600 0.195948 0.753907
v 13.671308 0.195948 0.764702
v 13.676270 0.195949 0.774439
v 13.683998 0.195949 0.782167
v 13.693736 0.195948 0.787129
v 13.704531 0.195948 0.788839
v 13.715324 0.195949 0.787129
v 13.725063 0.195949 0.782167
v 13.732791 0.195949 0.774439
v 13.737753 0.195949 0.764702
v 13.739461 0.195948 0.753907
v 13.843624 0.157667 0.708713
v 13.816418 0.172474 0.717553
v 13.787501 0.184275 0.726948
v 13.822689 0.157381 0.668060
v 13.799662 0.172407 0.684790
v 13.775092 0.184282 0.702641
v 13.790376 0.157381 0.635749
v 13.773648 0.172407 0.658776
v 13.755796 0.184282 0.683346
v 13.749662 0.157381 0.615004
v 13.740867 0.172407 0.642073
v 13.731482 0.184282 0.670957
v 13.704531 0.157667 0.607657
v 13.704531 0.172474 0.636263
v 13.704531 0.184275 0.666667
v 13.659337 0.157667 0.614815
v 13.668178 0.172474 0.642021
v 13.677573 0.184275 0.670937
v 13.618568 0.157667 0.635588
v 13.635381 0.172474 0.658730
v 13.653251 0.184275 0.683328
v 13.586211 0.157667 0.667943
v 13.609353 0.172474 0.684757
v 13.633951 0.184275 0.702629
v 13.565437 0.157667 0.708713
v 13.592643 0.172474 0.717553
v 13.621560 0.184275 0.726948
v 13.558282 0.157667 0.753907
v 13.586887 0.172474 0.753907
v 13.617291 0.184275 0.753907
v 13.565437 0.157667 0.799100
v 13.592643 0.172474 0.790261
v 13.621560 0.184275 0.780866
v 13.586212 0.157667 0.839871
v 13.609353 0.172474 0.823056
v 13.633951 0.184275 0.805185
v 13.618568 0.157667 0.872226
v 13.635381 0.172477 0.849083
v 13.653251 0.184276 0.824486
v 13.659337 0.157667 0.892998
v 13.668178 0.172474 0.865793
v 13.677573 0.184275 0.836877
v 13.704531 0.157667 0.900157
v 13.704531 0.172474 0.871551
v 13.704531 0.184275 0.841147
v 13.749724 0.157667 0.892998
v 13.740883 0.172474 0.865793
v 13.731489 0.184275 0.836877
v 13.790493 0.157667 0.872226
v 13.773679 0.172477 0.849083
v 13.755809 0.184276 0.824486
v 13.822850 0.157667 0.839871
v 13.799707 0.172477 0.823056
v 13.775110 0.184276 0.805185
v 13.843624 0.157667 0.799100
v 13.816418 0.172474 0.790261
v 13.787501 0.184275 0.780866
v 13.850779 0.157667 0.753907
v 13.822174 0.172474 0.753907
v 13.791769 0.184275 0.753907
v 13.901428 -0.213652 0.896962
v 13.935998 -0.213652 0.829115
v 13.847585 -0.213652 0.950805
v 13.779739 -0.213652 0.985374
v 13.704531 -0.213652 0.997286
v 13.629321 -0.213652 0.985374
v 13.561476 -0.213652 0.950806
v 13.507633 -0.213652 0.896962
v 13.473063 -0.213652 0.829115
v 13.461152 -0.213652 0.753907
v 13.473063 -0.213652 0.678699
v 13.507633 -0.213652 0.610852
v 13.561476 -0.213652 0.557009
v 13.629321 -0.213652 0.522440
v 13.704531 -0.213652 0.510528
v 13.779739 -0.213652 0.522439
v 13.847585 -0.213652 0.557009
v 13.901428 -0.213652 0.610852
v 13.935998 -0.213652 0.678699
v 13.947909 -0.213652 0.753907
v 13.800480 -0.428187 0.823619
v 13.817326 -0.428187 0.790557
v 13.774241 -0.428187 0.849857
v 13.741181 -0.428187 0.866703
v 13.704531 -0.428187 0.872508
v 13.667880 -0.428187 0.866703
v 13.634819 -0.428187 0.849857
v 13.608581 -0.428187 0.823619
v 13.591734 -0.428187 0.790557
v 13.585929 -0.428187 0.753907
v 13.591734 -0.428187 0.717257
v 13.608581 -0.428187 0.684195
v 13.634819 -0.428187 0.657957
v 13.667880 -0.428187 0.641111
v 13.704531 -0.428187 0.635306
v 13.741181 -0.428187 0.641111
v 13.774241 -0.428187 0.657957
v 13.800480 -0.428187 0.684195
v 13.817326 -0.428187 0.717257
v 13.823131 -0.428187 0.753907
v 13.793410 -0.471478 0.818482
v 13.809015 -0.471478 0.787856
v 13.769104 -0.471478 0.842787
v 13.738480 -0.471478 0.858392
v 13.704531 -0.471478 0.863768
v 13.670581 -0.471478 0.858392
v 13.639956 -0.471478 0.842787
v 13.615651 -0.471478 0.818482
v 13.600046 -0.471478 0.787856
v 13.594670 -0.471478 0.753907
v 13.600046 -0.471478 0.719958
v 13.615651 -0.471478 0.689332
v 13.639956 -0.471478 0.665027
v 13.670581 -0.471478 0.649422
v 13.704531 -0.471478 0.644046
v 13.738480 -0.471478 0.649422
v 13.769104 -0.471478 0.665027
v 13.793410 -0.471478 0.689332
v 13.809015 -0.471478 0.719958
v 13.814391 -0.471478 0.753907
v 13.856975 -0.336998 0.864664
v 13.883740 -0.336998 0.812136
v 13.815288 -0.336998 0.906352
v 13.762759 -0.336999 0.933116
v 13.704531 -0.336999 0.942339
v 13.646302 -0.336999 0.933116
v 13.593773 -0.336998 0.906352
v 13.552085 -0.336998 0.864665
v 13.525321 -0.336998 0.812136
v 13.516099 -0.336998 0.753907
v 13.525321 -0.336998 0.695678
v 13.552085 -0.336998 0.643149
v 13.593773 -0.336998 0.601462
v 13.646302 -0.336999 0.574697
v 13.704531 -0.336999 0.565475
v 13.762759 -0.336999 0.574697
v 13.815288 -0.336998 0.601462
v 13.856975 -0.336998 0.643149
v 13.883740 -0.336998 0.695678
v 13.892962 -0.336998 0.753907
v 13.738480 -0.471478 0.858392
v 13.704531 -0.471478 0.863768
v 13.670581 -0.471478 0.858392
v 13.639956 -0.471478 0.842787
v 13.615651 -0.471478 0.818482
v 13.600046 -0.471478 0.787856
v 13.594670 -0.471478 0.753907
v 13.600046 -0.471478 0.719958
v 13.615651 -0.471478 0.689332
v 13.639956 -0.471478 0.665027
v 13.670581 -0.471478 0.649422
v 13.704531 -0.471478 0.644046
v 13.738480 -0.471478 0.649422
v 13.769104 -0.471478 0.665027
v 13.793410 -0.471478 0.689332
v 13.809015 -0.471478 0.719958
v 13.814391 -0.471478 0.753907
v 13.809015 -0.471478 0.787856
v 13.793410 -0.471478 0.818482
v 13.769104 -0.471478 0.842787
v 13.951012 0.022146 0.673820
v 13.894861 0.116085 0.692065
v 13.963696 0.022146 0.753907
v 13.904654 0.116085 0.753907
v 13.914205 0.022069 0.601570
v 13.866331 0.115942 0.636352
v 13.856866 0.022072 0.544233
v 13.822086 0.115941 0.592105
v 13.784618 0.022069 0.507421
v 13.766332 0.115941 0.563697
v 13.704531 0.022146 0.494741
v 13.704531 0.116083 0.553781
v 13.624443 0.022149 0.507425
v 13.642689 0.116085 0.563578
v 13.552197 0.022146 0.544237
v 13.586902 0.116085 0.592003
v 13.494861 0.022146 0.601572
v 13.542627 0.116085 0.636277
v 13.458049 0.022146 0.673820
v 13.514202 0.116086 0.692065
v 13.445364 0.022146 0.753907
v 13.504407 0.116085 0.753907
v 13.458049 0.022149 0.833994
v 13.514202 0.116085 0.815749
v 13.494861 0.022149 0.906241
v 13.542628 0.116086 0.871537
v 13.552197 0.022149 0.963577
v 13.586902 0.116085 0.915810
v 13.624443 0.022149 1.000389
v 13.642689 0.116086 0.944236
v 13.704531 0.022146 1.013073
v 13.704531 0.116085 0.954031
v 13.784617 0.022149 1.000389
v 13.766372 0.116085 0.944236
v 13.856864 0.022149 0.963577
v 13.822158 0.116085 0.915810
v 13.914200 0.022149 0.906241
v 13.866434 0.116085 0.871536
v 13.951012 0.022149 0.833994
v 13.894860 0.116086 0.815749
vt 0.886537 0.365443
vt 0.860956 0.365443
vt 0.865482 0.317971
vt 0.888916 0.317971
vt 0.887231 0.399419
vt 0.862276 0.399419
vt 0.840655 0.365443
vt 0.846883 0.317971
vt 0.876637 0.275366
vt 0.894781 0.275366
vt 0.914894 0.365443
vt 0.914894 0.317971
vt 0.914894 0.399419
vt 0.874264 0.431867
vt 0.893533 0.431867
vt 0.842472 0.399419
vt 0.862238 0.275366
vt 0.890815 0.243868
vt 0.902235 0.243868
vt 0.914894 0.275366
vt 0.943251 0.365443
vt 0.940872 0.317971
vt 0.942557 0.399419
vt 0.914894 0.431866
vt 0.858971 0.431867
vt 0.899284 0.446230
vt 0.885202 0.446230
vt 0.881752 0.243868
vt 0.892589 0.228915
vt 0.903168 0.228915
vt 0.914894 0.243868
vt 0.935007 0.275366
vt 0.968833 0.365443
vt 0.964307 0.317971
vt 0.967513 0.399392
vt 0.936255 0.431866
vt 0.914894 0.446230
vt 0.884194 0.228915
vt 0.914894 0.228915
vt 0.927554 0.243868
vt 0.953151 0.275366
vt 0.989134 0.365443
vt 0.982905 0.317971
vt 0.987318 0.399393
vt 0.955499 0.431817
vt 0.930505 0.446230
vt 0.926621 0.228915
vt 0.938974 0.243868
vt 0.967551 0.275366
vt 0.970783 0.431817
vt 0.944547 0.446131
vt 0.937199 0.228915
vt 0.948037 0.243868
vt 0.945595 0.228915
vt 0.969911 0.365443
vt 0.944330 0.365443
vt 0.941950 0.317971
vt 0.965385 0.317971
vt 0.968590 0.399419
vt 0.943635 0.399419
vt 0.915972 0.365443
vt 0.915972 0.317971
vt 0.936085 0.275366
vt 0.954229 0.275366
vt 0.990212 0.365443
vt 0.983983 0.317971
vt 0.988395 0.399419
vt 0.937333 0.431867
vt 0.956603 0.431867
vt 0.915972 0.399419
vt 0.887615 0.365443
vt 0.889995 0.317971
vt 0.915972 0.275366
vt 0.928632 0.243868
vt 0.940052 0.243868
vt 0.968629 0.275366
vt 0.971896 0.431867
vt 0.915972 0.431866
vt 0.945665 0.446230
vt 0.931583 0.446230
vt 0.888309 0.399419
vt 0.862034 0.365443
vt 0.866560 0.317971
vt 0.895860 0.275366
vt 0.915972 0.243868
vt 0.927699 0.228915
vt 0.938277 0.228915
vt 0.949115 0.243868
vt 0.894612 0.431867
vt 0.915972 0.446230
vt 0.863354 0.399419
vt 0.841732 0.365443
vt 0.847962 0.317971
vt 0.877715 0.275366
vt 0.903313 0.243868
vt 0.915972 0.228915
vt 0.946673 0.228915
vt 0.875342 0.431867
vt 0.900362 0.446230
vt 0.843550 0.399419
vt 0.863316 0.275366
vt 0.891893 0.243868
vt 0.904246 0.228915
vt 0.860049 0.431866
vt 0.886280 0.446230
vt 0.882830 0.243868
vt 0.893667 0.228915
vt 0.885272 0.228915
vt 0.654373 0.353477
vt 0.650086 0.361873
vt 0.635475 0.351258
vt 0.637189 0.347894
vt 0.664361 0.356723
vt 0.658573 0.368039
vt 0.643421 0.368538
vt 0.632806 0.353927
vt 0.629442 0.355641
vt 0.625714 0.356231
vt 0.621985 0.355641
vt 0.618621 0.353927
vt 0.615952 0.351258
vt 0.614238 0.347894
vt 0.613648 0.344166
vt 0.614238 0.340437
vt 0.615952 0.337073
vt 0.618621 0.334404
vt 0.621985 0.332690
vt 0.625714 0.332100
vt 0.629442 0.332690
vt 0.632806 0.334404
vt 0.635475 0.337073
vt 0.637189 0.340437
vt 0.637779 0.344166
vt 0.655847 0.344166
vt 0.666349 0.344166
vt 0.673758 0.359776
vt 0.666527 0.373818
vt 0.649588 0.377025
vt 0.635023 0.372817
vt 0.625714 0.374299
vt 0.616402 0.372824
vt 0.608001 0.368544
vt 0.601335 0.361878
vt 0.597054 0.353477
vt 0.595580 0.344166
vt 0.597054 0.334854
vt 0.601335 0.326453
vt 0.608001 0.319787
vt 0.616402 0.315507
vt 0.625714 0.314032
vt 0.635025 0.315507
vt 0.643426 0.319787
vt 0.650092 0.326453
vt 0.654373 0.334853
vt 0.664361 0.331608
vt 0.676229 0.344166
vt 0.655366 0.384979
vt 0.638265 0.382794
vt 0.625714 0.384801
vt 0.613157 0.382812
vt 0.601828 0.377040
vt 0.592838 0.368051
vt 0.587066 0.356723
vt 0.585078 0.344166
vt 0.587066 0.331608
vt 0.592838 0.320280
vt 0.601828 0.311290
vt 0.613157 0.305519
vt 0.625714 0.303530
vt 0.638270 0.305519
vt 0.649599 0.311291
vt 0.658589 0.320280
vt 0.673758 0.328555
vt 0.666319 0.400054
vt 0.681601 0.384770
vt 0.641302 0.392144
vt 0.625714 0.394682
vt 0.610103 0.392210
vt 0.596021 0.385034
vt 0.584844 0.373858
vt 0.577669 0.359776
vt 0.575198 0.344166
vt 0.577669 0.328555
vt 0.584845 0.314473
vt 0.596021 0.303297
vt 0.610103 0.296121
vt 0.625714 0.293649
vt 0.641324 0.296121
vt 0.655406 0.303297
vt 0.666583 0.314473
vt 0.647061 0.409866
vt 0.625714 0.413291
vt 0.604353 0.409907
vt 0.585083 0.400089
vt 0.569790 0.384796
vt 0.585083 0.288242
vt 0.569790 0.303535
vt 0.604353 0.278423
vt 0.625714 0.275040
vt 0.647074 0.278423
vt 0.666344 0.288242
vt 0.681637 0.303535
vt 0.678332 0.416589
vt 0.653377 0.429305
vt 0.625714 0.433685
vt 0.598051 0.429303
vt 0.573095 0.416588
vt 0.573095 0.271743
vt 0.598051 0.259028
vt 0.625714 0.254646
vt 0.653377 0.259028
vt 0.678332 0.271743
vt 0.789596 0.490221
vt 0.777870 0.492078
vt 0.766143 0.490221
vt 0.755565 0.484831
vt 0.747170 0.476436
vt 0.741780 0.465857
vt 0.739923 0.454130
vt 0.741780 0.442404
vt 0.747170 0.431825
vt 0.755565 0.423430
vt 0.766143 0.418040
vt 0.777870 0.416183
vt 0.789596 0.418040
vt 0.800174 0.423430
vt 0.808570 0.431825
vt 0.813960 0.442404
vt 0.815817 0.454130
vt 0.813960 0.465857
vt 0.808570 0.476436
vt 0.800174 0.484831
vt 0.741780 0.442404
vt 0.747170 0.431825
vt 0.755565 0.423430
vt 0.766143 0.418040
vt 0.777870 0.416183
vt 0.789596 0.418040
vt 0.800174 0.423430
vt 0.808570 0.431825
vt 0.813960 0.442404
vt 0.815817 0.454130
vt 0.808570 0.476436
vt 0.800174 0.484831
vt 0.789596 0.490221
vt 0.772912 0.393716
vt 0.771055 0.405443
vt 0.771055 0.405443
vt 0.772912 0.393716
vt 0.768084 0.393716
vt 0.757506 0.399106
vt 0.757506 0.399106
vt 0.768084 0.393716
vt 0.749111 0.407501
vt 0.749111 0.407501
vt 0.743721 0.418080
vt 0.743721 0.418080
vt 0.741864 0.429806
vt 0.741864 0.429806
vt 0.792079 0.402112
vt 0.800474 0.393716
vt 0.800474 0.393716
vt 0.792079 0.402112
vt 0.775907 0.404295
vt 0.781296 0.393716
vt 0.781296 0.393716
vt 0.775907 0.404295
vt 0.789383 0.404295
vt 0.783993 0.393716
vt 0.783993 0.393716
vt 0.789383 0.404295
vt 0.813759 0.341500
vt 0.788178 0.341500
vt 0.785799 0.294028
vt 0.809233 0.294028
vt 0.812438 0.375476
vt 0.787484 0.375476
vt 0.759821 0.341500
vt 0.759821 0.294028
vt 0.779933 0.251423
vt 0.798078 0.251423
vt 0.759821 0.375476
vt 0.731463 0.341500
vt 0.733843 0.294028
vt 0.759821 0.251423
vt 0.772480 0.219925
vt 0.783900 0.219925
vt 0.732158 0.375476
vt 0.705882 0.341500
vt 0.710408 0.294028
vt 0.739708 0.251423
vt 0.759821 0.219925
vt 0.771547 0.204972
vt 0.782125 0.204972
vt 0.707203 0.375476
vt 0.721564 0.251423
vt 0.747161 0.219925
vt 0.759821 0.204972
vt 0.735742 0.219925
vt 0.748094 0.204972
vt 0.737516 0.204972
vt 0.706711 0.340389
vt 0.732292 0.340389
vt 0.734671 0.292918
vt 0.711236 0.292918
vt 0.708031 0.374366
vt 0.732986 0.374365
vt 0.760649 0.340389
vt 0.760649 0.292918
vt 0.740536 0.250312
vt 0.722392 0.250312
vt 0.760649 0.374366
vt 0.789006 0.340389
vt 0.786627 0.292918
vt 0.760649 0.250312
vt 0.747989 0.218815
vt 0.736570 0.218815
vt 0.788312 0.374339
vt 0.814587 0.340389
vt 0.810062 0.292918
vt 0.780762 0.250312
vt 0.760649 0.218815
vt 0.748922 0.203861
vt 0.738344 0.203861
vt 0.813268 0.374339
vt 0.798906 0.250312
vt 0.773308 0.218815
vt 0.760649 0.203861
vt 0.784728 0.218815
vt 0.772376 0.203861
vt 0.782954 0.203861
vn 0.283830 0.954391 -0.092626
vn 0.241889 0.954166 -0.176232
vn 0.176201 0.976000 -0.127975
vn 0.207158 0.975993 -0.067256
vn 0.176080 0.954074 -0.242359
vn 0.127992 0.976002 -0.176175
vn 0.092853 0.954168 -0.284503
vn 0.067257 0.976001 -0.207119
vn 0.000393 0.954389 -0.298566
vn -0.000036 0.975993 -0.217804
vn -0.092170 0.954483 -0.283667
vn -0.067309 0.975993 -0.207138
vn -0.175311 0.954484 -0.241302
vn -0.128015 0.975994 -0.176204
vn -0.241299 0.954483 -0.175320
vn -0.176202 0.975992 -0.128032
vn -0.283668 0.954484 -0.092157
vn -0.207148 0.975993 -0.067289
vn -0.298265 0.954483 -0.000000
vn -0.217805 0.975992 -0.000000
vn -0.283669 0.954484 0.092157
vn -0.207147 0.975993 0.067288
vn -0.241311 0.954484 0.175299
vn -0.176213 0.975992 0.128019
vn -0.175296 0.954491 0.241284
vn -0.128013 0.975994 0.176206
vn -0.092137 0.954486 0.283667
vn -0.067282 0.975994 0.207146
vn -0.000001 0.954483 0.298265
vn -0.000001 0.975992 0.217805
vn 0.092140 0.954486 0.283666
vn 0.067284 0.975992 0.207152
vn 0.175277 0.954493 0.241290
vn 0.128008 0.975994 0.176210
vn 0.241282 0.954495 0.175280
vn 0.176204 0.975994 0.128013
vn 0.283665 0.954487 0.092134
vn 0.207155 0.975992 0.067284
vn 0.298262 0.954484 -0.000001
vn 0.217814 0.975990 -0.000001
vn 0.548118 0.816655 -0.180667
vn 0.401334 0.906297 -0.132504
vn 0.421539 0.906810 0.000000
vn 0.577351 0.816496 -0.000001
vn 0.343245 0.904845 -0.251868
vn 0.465898 0.816262 -0.341547
vn 0.250884 0.904331 -0.345316
vn 0.339402 0.816437 -0.467158
vn 0.133468 0.904845 -0.404280
vn 0.180851 0.816265 -0.548639
vn 0.002005 0.906295 -0.422642
vn 0.002458 0.816660 -0.577114
vn -0.130262 0.906807 -0.400916
vn -0.178410 0.816499 -0.549089
vn -0.247775 0.906805 -0.341046
vn -0.339353 0.816497 -0.467089
vn -0.341034 0.906807 -0.247783
vn -0.467081 0.816495 -0.339369
vn -0.400914 0.906808 -0.130254
vn -0.549096 0.816497 -0.178400
vn -0.421552 0.906804 -0.000000
vn -0.577352 0.816495 0.000001
vn -0.400913 0.906809 0.130256
vn -0.549096 0.816496 0.178403
vn -0.341055 0.906802 0.247773
vn -0.467090 0.816489 0.339370
vn -0.247781 0.906800 0.341054
vn -0.339363 0.816488 0.467098
vn -0.130246 0.906801 0.400935
vn -0.178409 0.816496 0.549095
vn -0.000000 0.906807 0.421545
vn 0.000000 0.816500 0.577346
vn 0.130248 0.906802 0.400931
vn 0.178411 0.816496 0.549094
vn 0.247769 0.906797 0.341070
vn 0.339360 0.816488 0.467100
vn 0.341057 0.906800 0.247778
vn 0.467091 0.816488 0.339373
vn 0.400927 0.906805 0.130239
vn 0.549102 0.816493 0.178400
vn 0.949071 -0.064586 0.308370
vn 0.807327 -0.064585 0.586560
vn 0.778916 -0.270231 0.565919
vn 0.915673 -0.270232 0.297519
vn 0.586558 -0.064585 0.807328
vn 0.565918 -0.270231 0.778917
vn 0.308376 -0.064586 0.949070
vn 0.297524 -0.270231 0.915671
vn -0.000000 -0.064586 0.997912
vn -0.000000 -0.270233 0.962795
vn -0.308370 -0.064586 0.949071
vn -0.297517 -0.270232 0.915674
vn -0.586558 -0.064586 0.807328
vn -0.565918 -0.270229 0.778918
vn -0.807327 -0.064588 0.586559
vn -0.778918 -0.270231 0.565917
vn -0.949071 -0.064587 0.308371
vn -0.915673 -0.270234 0.297517
vn -0.997912 -0.064583 0.000000
vn -0.962795 -0.270234 0.000000
vn -0.949071 -0.064585 -0.308372
vn -0.915673 -0.270233 -0.297517
vn -0.807327 -0.064589 -0.586559
vn -0.778916 -0.270231 -0.565919
vn -0.586557 -0.064590 -0.807328
vn -0.565918 -0.270229 -0.778918
vn -0.308373 -0.064588 -0.949070
vn -0.297522 -0.270230 -0.915673
vn -0.000013 -0.064598 -0.997911
vn -0.000001 -0.270232 -0.962795
vn 0.308363 -0.064617 -0.949072
vn 0.297523 -0.270231 -0.915672
vn 0.586555 -0.064627 -0.807327
vn 0.565918 -0.270233 -0.778917
vn 0.807332 -0.064620 -0.586548
vn 0.778917 -0.270233 -0.565918
vn 0.949075 -0.064600 -0.308357
vn 0.915674 -0.270229 -0.297519
vn 0.997912 -0.064587 0.000000
vn 0.962796 -0.270231 0.000000
vn 0.685428 -0.531211 0.498000
vn 0.805771 -0.531216 0.261808
vn 0.833839 -0.480948 0.270928
vn 0.709303 -0.480949 0.515342
vn 0.498000 -0.531206 0.685431
vn 0.515343 -0.480947 0.709304
vn 0.847239 -0.531212 -0.000000
vn 0.876751 -0.480945 0.000000
vn 0.261818 -0.531213 0.805769
vn 0.270933 -0.480948 0.833837
vn 0.000000 -0.531212 0.847239
vn 0.000000 -0.480949 0.876749
vn -0.261813 -0.531208 0.805774
vn -0.270927 -0.480947 0.833840
vn -0.498000 -0.531205 0.685432
vn -0.515343 -0.480945 0.709305
vn -0.685429 -0.531209 0.498000
vn -0.709306 -0.480945 0.515341
vn -0.805775 -0.531208 0.261811
vn -0.833840 -0.480946 0.270927
vn -0.847241 -0.531209 -0.000000
vn -0.876750 -0.480946 0.000000
vn -0.805775 -0.531208 -0.261811
vn -0.833841 -0.480945 -0.270927
vn -0.685429 -0.531211 -0.497998
vn -0.709305 -0.480946 -0.515342
vn -0.497999 -0.531211 -0.685429
vn -0.515344 -0.480943 -0.709306
vn -0.261812 -0.531209 -0.805774
vn -0.270931 -0.480943 -0.833841
vn -0.000000 -0.531211 -0.847240
vn -0.000001 -0.480946 -0.876750
vn 0.261816 -0.531216 -0.805768
vn 0.270932 -0.480949 -0.833837
vn 0.497999 -0.531210 -0.685430
vn 0.515342 -0.480949 -0.709303
vn 0.685431 -0.531208 -0.497998
vn 0.709304 -0.480948 -0.515341
vn 0.805775 -0.531209 -0.261809
vn 0.833839 -0.480947 -0.270929
vn -0.000003 1.000000 -0.000000
vn -0.000003 1.000000 -0.000000
vn -0.000003 1.000000 -0.000000
vn -0.000003 1.000000 -0.000000
vn -0.000003 1.000000 -0.000000
vn -0.000003 1.000000 -0.000000
vn -0.000003 1.000000 -0.000000
vn -0.000003 1.000000 -0.000000
vn -0.000003 1.000000 -0.000000
vn -0.000003 1.000000 -0.000000
vn -0.000003 1.000000 -0.000000
vn -0.000003 1.000000 -0.000000
vn -0.000003 1.000000 -0.000000
vn -0.000003 1.000000 -0.000000
vn -0.000003 1.000000 -0.000000
vn -0.000003 1.000000 -0.000000
vn -0.000003 1.000000 -0.000000
vn -0.000003 1.000000 -0.000000
vn -0.000003 1.000000 -0.000000
vn -0.000003 1.000000 -0.000000
vn -0.000000 -1.000000 0.000000
vn -0.000000 -1.000000 0.000000
vn -0.000000 -1.000000 0.000000
vn -0.000000 -1.000000 0.000000
vn -0.000000 -1.000000 0.000000
vn -0.000000 -1.000000 0.000000
vn -0.000000 -1.000000 0.000000
vn -0.000000 -1.000000 0.000000
vn -0.000000 -1.000000 0.000000
vn -0.000000 -1.000000 0.000000
vn -0.000000 -1.000000 0.000000
vn -0.000000 -1.000000 0.000000
vn -0.000000 -1.000000 0.000000
vn -0.000000 -1.000000 0.000000
vn -0.000000 -1.000000 0.000000
vn -0.000000 -1.000000 0.000000
vn -0.000000 -1.000000 0.000000
vn -0.000000 -1.000000 0.000000
vn -0.000000 -1.000000 0.000000
vn -0.000000 -1.000000 0.000000
vn 0.793013 -0.197886 0.576170
vn 0.932248 -0.197902 0.302899
vn 0.576172 -0.197867 0.793016
vn 0.302913 -0.197875 0.932250
vn 0.000000 -0.197877 0.980227
vn -0.302905 -0.197881 0.932251
vn -0.576167 -0.197880 0.793017
vn -0.793015 -0.197875 0.576170
vn -0.932251 -0.197876 0.302907
vn -0.980225 -0.197887 -0.000000
vn -0.932251 -0.197877 -0.302907
vn -0.793018 -0.197871 -0.576169
vn -0.576168 -0.197882 -0.793015
vn -0.302901 -0.197884 -0.932252
vn 0.000000 -0.197886 -0.980225
vn 0.302909 -0.197877 -0.932250
vn 0.576173 -0.197865 -0.793016
vn 0.793016 -0.197877 -0.576169
vn 0.932251 -0.197887 -0.302900
vn 0.980224 -0.197890 -0.000000
vn 0.000000 0.000000 0.000000
vn 0.000000 0.000000 0.000000
vn 0.000000 0.000000 0.000000
vn 0.000000 0.000000 0.000000
vn 0.000000 0.000000 0.000000
vn 0.000000 0.000000 0.000000
vn 0.000000 0.000000 0.000000
vn 0.000000 0.000000 0.000000
vn 0.000000 0.000000 0.000000
vn 0.000000 0.000000 0.000000
vn 0.000000 0.000000 0.000000
vn 0.000000 0.000000 0.000000
vn 0.000000 0.000000 0.000000
vn 0.000000 0.000000 0.000000
vn 0.000000 0.000000 0.000000
vn 0.000000 0.000000 0.000000
vn 0.000000 -0.000000 0.000000
vn 0.000000 -1.000000 0.000000
vn 0.000000 -1.000000 0.000000
vn 0.000000 -0.000000 0.000000
vn 0.000000 -0.000000 0.000000
vn 0.000000 -0.000000 0.000000
vn 0.000000 -0.000000 0.000000
vn 0.000000 -0.000000 0.000000
vn 0.000000 0.000000 0.000000
vn 0.000000 0.000000 0.000000
vn 0.000000 0.000000 0.000000
vn 0.000000 0.000000 0.000000
vn 0.000000 0.000000 0.000000
vn 0.000000 0.000000 0.000000
vn 0.000000 0.000000 0.000000
vn 0.000000 0.000000 0.000000
vn 0.000000 0.000000 0.000000
vn 0.000000 0.000000 0.000000
vn 0.000000 0.000000 0.000000
vn 0.000000 0.000000 0.000000
vn 0.000000 0.000000 0.000000
vn 0.000000 0.000000 0.000000
vn 0.000000 0.000000 0.000000
vn 0.000000 0.000000 0.000000
vn 0.000000 0.000000 0.000000
vn 0.000000 0.000000 0.000000
vn 0.000000 0.000000 0.000000
vn 0.000000 0.000000 0.000000
vn 0.000000 0.000000 0.000000
vn 0.000000 0.000000 0.000000
vn 0.000000 0.000000 0.000000
vn 0.000000 0.000000 0.000000
vn 0.000000 0.000000 0.000000
vn 0.000000 0.000000 0.000000
vn 0.000000 0.000000 0.000000
vn 0.000000 0.000000 0.000000
vn 0.000000 -0.000000 0.000000
vn 0.000000 -1.000000 0.000000
vn 0.000000 -1.000000 0.000000
vn 0.000000 -0.000000 0.000000
vn 0.000000 -0.000000 0.000000
vn 0.000000 -0.000000 0.000000
vn 0.000000 -0.000000 0.000000
vn 0.000000 -0.000000 0.000000
vn 0.000000 0.000000 0.000000
vn 0.000000 0.000000 0.000000
vn 0.000000 0.000000 0.000000
vn 0.000000 0.000000 0.000000
vn 0.000000 0.000000 0.000000
vn 0.000000 0.000000 0.000000
vn 0.000000 0.000000 0.000000
vn 0.000000 0.000000 0.000000
vn -0.000000 0.000000 0.000000
vn -0.000000 0.000000 0.000000
vn -0.000000 0.000000 0.000000
vn -0.000000 0.000000 0.000000
vn 0.000000 0.000000 0.000000
vn 0.000000 0.000000 0.000000
vn 0.000000 0.000000 0.000000
vn 0.000000 0.000000 0.000000
vn 0.000000 0.000000 0.000000
vn 0.000000 0.000000 0.000000
vn 0.000000 0.000000 0.000000
vn 0.000000 0.000000 0.000000
vn 0.907283 0.299545 -0.295144
vn 0.749515 0.615074 -0.244768
vn 0.788787 0.614666 -0.000003
vn 0.954164 0.299286 -0.000002
vn 0.771632 0.299695 -0.561041
vn 0.636957 0.615440 -0.464241
vn 0.750179 0.614674 0.243737
vn 0.907463 0.299292 0.294846
vn 0.560716 0.299963 -0.771764
vn 0.463093 0.615849 -0.637397
vn 0.295136 0.299698 -0.907235
vn 0.244686 0.615443 -0.749239
vn 0.000340 0.299542 -0.954083
vn 0.001186 0.615074 -0.788469
vn -0.294855 0.299293 -0.907460
vn -0.243750 0.614676 -0.750173
vn -0.560845 0.299288 -0.771932
vn -0.463637 0.614673 -0.638136
vn -0.771931 0.299290 -0.560846
vn -0.638138 0.614668 -0.463642
vn -0.907462 0.299293 -0.294851
vn -0.750183 0.614665 -0.243745
vn -0.954161 0.299292 -0.000002
vn -0.788786 0.614668 -0.000004
vn -0.907460 0.299299 0.294850
vn -0.750175 0.614677 0.243741
vn -0.771930 0.299295 0.560844
vn -0.638131 0.614678 0.463637
vn -0.560843 0.299288 0.771934
vn -0.463633 0.614676 0.638136
vn -0.294851 0.299291 0.907462
vn -0.243742 0.614675 0.750176
vn 0.000000 0.299288 0.954163
vn 0.000000 0.614674 0.788781
vn 0.294853 0.299293 0.907461
vn 0.243745 0.614675 0.750175
vn 0.560841 0.299288 0.771935
vn 0.463631 0.614674 0.638139
vn 0.771931 0.299290 0.560846
vn 0.638133 0.614674 0.463640
s 1
g LightBulb
usemtl initialShadingGroup
f 43/109/1 46/110/2 22/111/3 21/112/4
f 46/110/2 49/115/5 23/116/6 22/111/3
f 49/115/5 52/139/7 24/117/8 23/116/6
f 52/139/7 55/140/9 25/118/10 24/117/8
f 55/140/9 58/141/11 26/119/12 25/118/10
f 58/141/11 61/142/13 27/120/14 26/119/12
f 61/142/13 64/143/15 28/121/16 27/120/14
f 64/143/15 67/144/17 29/122/18 28/121/16
f 67/144/17 70/145/19 30/123/20 29/122/18
f 70/145/19 73/146/21 31/124/22 30/123/20
f 73/146/21 76/147/23 32/125/24 31/124/22
f 76/147/23 79/148/25 33/126/26 32/125/24
f 79/148/25 82/149/27 34/127/28 33/126/26
f 82/149/27 85/150/29 35/128/30 34/127/28
f 85/150/29 88/151/31 36/129/32 35/128/30
f 88/151/31 91/152/33 37/130/34 36/129/32
f 91/152/33 94/153/35 38/131/36 37/130/34
f 94/153/35 97/154/37 39/132/38 38/131/36
f 97/154/37 100/134/39 40/133/40 39/132/38
f 100/134/39 43/109/1 21/112/4 40/133/40
f 41/136/41 42/113/42 99/135/43 98/156/44
f 42/113/42 43/109/1 100/134/39 99/135/43
f 43/109/1 42/113/42 45/114/45 46/110/2
f 42/113/42 41/136/41 44/137/46 45/114/45
f 46/110/2 45/114/45 48/138/47 49/115/5
f 45/114/45 44/137/46 47/157/48 48/138/47
f 49/115/5 48/138/47 51/158/49 52/139/7
f 48/138/47 47/157/48 50/176/50 51/158/49
f 52/139/7 51/158/49 54/159/51 55/140/9
f 51/158/49 50/176/50 53/177/52 54/159/51
f 55/140/9 54/159/51 57/160/53 58/141/11
f 54/159/51 53/177/52 56/178/54 57/160/53
f 58/141/11 57/160/53 60/161/55 61/142/13
f 57/160/53 56/178/54 59/179/56 60/161/55
f 61/142/13 60/161/55 63/162/57 64/143/15
f 60/161/55 59/179/56 62/180/58 63/162/57
f 64/143/15 63/162/57 66/163/59 67/144/17
f 63/162/57 62/180/58 65/181/60 66/163/59
f 67/144/17 66/163/59 69/164/61 70/145/19
f 66/163/59 65/181/60 68/182/62 69/164/61
f 70/145/19 69/164/61 72/165/63 73/146/21
f 69/164/61 68/182/62 71/183/64 72/165/63
f 73/146/21 72/165/63 75/166/65 76/147/23
f 72/165/63 71/183/64 74/184/66 75/166/65
f 76/147/23 75/166/65 78/167/67 79/148/25
f 75/166/65 74/184/66 77/185/68 78/167/67
f 79/148/25 78/167/67 81/168/69 82/149/27
f 78/167/67 77/185/68 80/186/70 81/168/69
f 82/149/27 81/168/69 84/169/71 85/150/29
f 81/168/69 80/186/70 83/187/72 84/169/71
f 85/150/29 84/169/71 87/170/73 88/151/31
f 84/169/71 83/187/72 86/188/74 87/170/73
f 88/151/31 87/170/73 90/171/75 91/152/33
f 87/170/73 86/188/74 89/189/76 90/171/75
f 91/152/33 90/171/75 93/172/77 94/153/35
f 90/171/75 89/189/76 92/190/78 93/172/77
f 94/153/35 93/172/77 96/155/79 97/154/37
f 93/172/77 92/190/78 95/173/80 96/155/79
f 97/154/37 96/155/79 99/135/43 100/134/39
f 96/155/79 95/173/80 98/156/44 99/135/43
f 19/1/81 18/2/82 101/3/83 102/4/84
f 18/2/82 17/7/85 103/8/86 101/3/83
f 17/272/85 16/273/87 104/274/88 103/275/86
f 16/273/87 15/278/89 105/279/90 104/274/88
f 15/278/89 14/283/91 106/284/92 105/279/90
f 14/283/91 13/289/93 107/290/94 106/284/92
f 13/65/93 12/55/95 108/58/96 107/66/94
f 12/55/95 11/56/97 109/57/98 108/58/96
f 11/56/97 10/61/99 110/62/100 109/57/98
f 10/61/99 9/71/101 111/72/102 110/62/100
f 9/71/101 8/82/103 112/83/104 111/72/102
f 8/82/103 7/92/105 113/93/106 112/83/104
f 7/302/105 6/303/107 114/304/108 113/305/106
f 6/303/107 5/308/109 115/309/110 114/304/108
f 5/308/109 4/313/111 116/314/112 115/309/110
f 4/313/111 3/319/113 117/320/114 116/314/112
f 3/42/113 2/33/115 118/34/116 117/43/114
f 2/33/115 1/21/117 119/22/118 118/34/116
f 1/21/117 20/11/119 120/12/120 119/22/118
f 20/11/119 19/1/81 102/4/84 120/12/120
f 121/18/121 122/19/122 162/10/123 161/9/124
f 123/28/125 121/18/121 161/9/124 163/17/126
f 122/19/122 140/31/127 180/20/128 162/10/123
f 124/286/129 123/287/125 163/281/126 164/280/130
f 125/292/131 124/286/129 164/280/130 165/285/132
f 126/297/133 125/292/131 165/285/132 166/291/134
f 127/299/135 126/297/133 166/291/134 167/296/136
f 128/75/137 127/88/135 167/76/136 168/64/138
f 129/74/139 128/75/137 168/64/138 169/63/140
f 130/85/141 129/74/139 169/63/140 170/73/142
f 131/95/143 130/85/141 170/73/142 171/84/144
f 132/102/145 131/95/143 171/84/144 172/94/146
f 133/106/147 132/102/145 172/94/146 173/101/148
f 134/316/149 133/317/147 173/311/148 174/310/150
f 135/322/151 134/316/149 174/310/150 175/315/152
f 136/327/153 135/322/151 175/315/152 176/321/154
f 137/329/155 136/327/153 176/321/154 177/326/156
f 138/48/157 137/53/155 177/49/156 178/41/158
f 139/40/159 138/48/157 178/41/158 179/32/160
f 140/31/127 139/40/159 179/32/160 180/20/128
s off
f 21/112/161 22/111/162 23/116/163 24/117/164 25/118/165 26/119/166 27/120/167 28/121/168 29/122/169 30/123/170 31/124/171 32/125/172 33/126/173 34/127/174 35/128/175 36/129/176 37/130/177 38/131/178 39/132/179 40/133/180
f 181/213/181 182/214/182 183/215/183 184/216/184 185/217/185 186/218/186 187/219/187 188/220/188 189/221/189 190/222/190 191/223/191 192/224/192 193/225/193 194/226/194 195/227/195 196/228/196 197/229/197 198/230/198 199/231/199 200/232/200
s 1
f 122/19/122 121/18/121 141/29/201 142/30/202
f 121/18/121 123/28/125 143/38/203 141/29/201
f 123/287/125 124/286/129 144/293/204 143/294/203
f 124/286/129 125/292/131 145/298/205 144/293/204
f 125/292/131 126/297/133 146/300/206 145/298/205
f 126/297/133 127/299/135 147/301/207 146/300/206
f 127/88/135 128/75/137 148/87/208 147/97/207
f 128/75/137 129/74/139 149/86/209 148/87/208
f 129/74/139 130/85/141 150/96/210 149/86/209
f 130/85/141 131/95/143 151/103/211 150/96/210
f 131/95/143 132/102/145 152/107/212 151/103/211
f 132/102/145 133/106/147 153/108/213 152/107/212
f 133/317/147 134/316/149 154/323/214 153/324/213
f 134/316/149 135/322/151 155/328/215 154/323/214
f 135/322/151 136/327/153 156/330/216 155/328/215
f 136/327/153 137/329/155 157/331/217 156/330/216
f 137/53/155 138/48/157 158/52/218 157/54/217
f 138/48/157 139/40/159 159/47/219 158/52/218
f 139/40/159 140/31/127 160/39/220 159/47/219
f 140/31/127 122/19/122 142/30/202 160/39/220
f 161/9/124 162/10/123 102/4/84 101/3/83
f 162/10/123 180/20/128 120/12/120 102/4/84
f 163/17/126 161/9/124 101/3/83 103/8/86
f 164/280/130 163/281/126 103/275/86 104/274/88
f 165/285/132 164/280/130 104/274/88 105/279/90
f 166/291/134 165/285/132 105/279/90 106/284/92
f 167/296/136 166/291/134 106/284/92 107/290/94
f 168/64/138 167/76/136 107/66/94 108/58/96
f 169/63/140 168/64/138 108/58/96 109/57/98
f 170/73/142 169/63/140 109/57/98 110/62/100
f 171/84/144 170/73/142 110/62/100 111/72/102
f 172/94/146 171/84/144 111/72/102 112/83/104
f 173/101/148 172/94/146 112/83/104 113/93/106
f 174/310/150 173/311/148 113/305/106 114/304/108
f 175/315/152 174/310/150 114/304/108 115/309/110
f 176/321/154 175/315/152 115/309/110 116/314/112
f 177/326/156 176/321/154 116/314/112 117/320/114
f 178/41/158 177/49/156 117/43/114 118/34/116
f 179/32/160 178/41/158 118/34/116 119/22/118
f 180/20/128 179/32/160 119/22/118 120/12/120
s off
f 144/246/221 145/247/222 182/248/223 181/249/224
f 145//225 146//226 183//227 182//228
f 146/250/229 147/251/230 184/252/231 183/253/232
f 147/251/233 148/254/234 185/255/235 184/252/236
f 148/254/237 149/256/238 186/257/239 185/255/240
f 149/256/241 150/258/242 187/259/243 186/257/244
f 150//245 151//246 188//247 187//248
f 151/233/249 152/234/250 189/221/251 188/220/252
f 152/260/253 153/261/254 190/262/255 189/263/256
f 153/235/257 154/236/258 191/223/259 190/222/260
f 154/236/261 155/237/262 192/224/263 191/223/264
f 155/237/265 156/238/266 193/225/267 192/224/268
f 156/238/269 157/239/270 194/226/271 193/225/272
f 157/239/273 158/240/274 195/227/275 194/226/276
f 158/264/277 159/265/278 196/266/279 195/267/280
f 159/241/281 160/242/282 197/229/283 196/228/284
f 160//285 142//286 198//287 197//288
f 142/268/289 141/269/290 199/270/291 198/271/292
f 141/243/293 143/244/294 200/232/295 199/231/296
f 143/244/297 144/245/298 181/213/299 200/232/300
s 1
f 201/23/301 202/36/302 204/24/303 203/13/304
f 202/36/302 201/23/301 205/35/305 206/45/306
f 203/13/304 204/24/303 240/15/307 239/5/308
f 206/45/306 205/35/305 207/44/309 208/50/310
f 208/174/310 207/203/309 209/204/311 210/191/312
f 210/191/312 209/204/311 211/205/313 212/192/314
f 212/192/314 211/205/313 213/206/315 214/193/316
f 214/193/316 213/206/315 215/207/317 216/194/318
f 216/104/318 215/100/317 217/91/319 218/98/320
f 218/98/320 217/91/319 219/81/321 220/89/322
f 220/89/322 219/81/321 221/70/323 222/78/324
f 222/78/324 221/70/323 223/60/325 224/68/326
f 224/68/326 223/60/325 225/59/327 226/69/328
f 226/69/328 225/59/327 227/67/329 228/77/330
f 228/196/330 227/208/329 229/209/331 230/198/332
f 230/198/332 229/209/331 231/210/333 232/199/334
f 232/199/334 231/210/333 233/211/335 234/200/336
f 234/200/336 233/211/335 235/212/337 236/201/338
f 236/25/338 235/16/337 237/6/339 238/14/340
f 238/14/340 237/6/339 239/5/308 240/15/307
f 1/21/117 2/33/115 205/35/305 201/23/301
f 2/33/115 3/42/113 207/44/309 205/35/305
f 3/319/113 4/313/111 209/318/311 207/325/309
f 4/313/111 5/308/109 211/312/313 209/318/311
f 5/308/109 6/303/107 213/307/315 211/312/313
f 6/303/107 7/302/105 215/306/317 213/307/315
f 7/92/105 8/82/103 217/91/319 215/100/317
f 8/82/103 9/71/101 219/81/321 217/91/319
f 9/71/101 10/61/99 221/70/323 219/81/321
f 10/61/99 11/56/97 223/60/325 221/70/323
f 11/56/97 12/55/95 225/59/327 223/60/325
f 12/55/95 13/65/93 227/67/329 225/59/327
f 13/289/93 14/283/91 229/288/331 227/295/329
f 14/283/91 15/278/89 231/282/333 229/288/331
f 15/278/89 16/273/87 233/277/335 231/282/333
f 16/273/87 17/272/85 235/276/337 233/277/335
f 17/7/85 18/2/82 237/6/339 235/16/337
f 18/2/82 19/1/81 239/5/308 237/6/339
f 19/1/81 20/11/119 203/13/304 239/5/308
f 20/11/119 1/21/117 201/23/301 203/13/304
f 206/45/306 44/51/46 41/46/41 202/36/302
f 208/174/310 47/157/48 44/137/46 206/175/306
f 210/191/312 50/176/50 47/157/48 208/174/310
f 212/192/314 53/177/52 50/176/50 210/191/312
f 214/193/316 56/178/54 53/177/52 212/192/314
f 216/194/318 59/179/56 56/178/54 214/193/316
f 218/195/320 62/180/58 59/179/56 216/194/318
f 220/89/322 65/99/60 62/105/58 218/98/320
f 222/78/324 68/90/62 65/99/60 220/89/322
f 224/68/326 71/80/64 68/90/62 222/78/324
f 226/69/328 74/79/66 71/80/64 224/68/326
f 228/196/330 77/185/68 74/184/66 226/197/328
f 230/198/332 80/186/70 77/185/68 228/196/330
f 232/199/334 83/187/72 80/186/70 230/198/332
f 234/200/336 86/188/74 83/187/72 232/199/334
f 236/201/338 89/189/76 86/188/74 234/200/336
f 238/202/340 92/190/78 89/189/76 236/201/338
f 240/15/307 95/26/80 92/27/78 238/14/340
f 204/24/303 98/37/44 95/26/80 240/15/307
f 202/36/302 41/46/41 98/37/44 204/24/303
g default
v 13.738564 -0.516676 0.644577
v 13.666767 -0.516676 0.644675
v 13.738564 -0.507062 0.644577
v 13.666767 -0.507062 0.644675
v 13.812047 -0.507062 0.717861
v 13.812144 -0.507062 0.789661
v 13.812047 -0.516676 0.717861
v 13.812144 -0.516676 0.789661
v 13.593477 -0.516676 0.718163
v 13.593583 -0.516676 0.789957
v 13.593477 -0.507062 0.718163
v 13.593583 -0.507062 0.789957
v 13.667067 -0.516676 0.863239
v 13.738864 -0.516676 0.863141
v 13.667067 -0.507062 0.863239
v 13.738864 -0.507062 0.863141
v 13.592725 -0.571002 0.718162
v 13.592822 -0.571002 0.789960
v 13.592725 -0.562302 0.718162
v 13.592822 -0.562302 0.789960
v 13.666767 -0.562302 0.643919
v 13.738563 -0.562302 0.643825
v 13.666767 -0.571002 0.643919
v 13.738563 -0.571002 0.643825
v 13.667066 -0.571002 0.863995
v 13.738866 -0.571002 0.863897
v 13.667066 -0.562302 0.863995
v 13.738866 -0.562302 0.863897
v 13.812805 -0.562302 0.717863
v 13.812905 -0.562302 0.789665
v 13.812805 -0.571002 0.717863
v 13.812905 -0.571002 0.789665
v 13.595050 -0.625765 0.718161
v 13.595153 -0.625765 0.789956
v 13.595050 -0.617108 0.718161
v 13.595153 -0.617108 0.789956
v 13.666767 -0.617108 0.646246
v 13.738567 -0.617108 0.646147
v 13.666767 -0.625765 0.646246
v 13.738567 -0.625765 0.646147
v 13.667066 -0.625765 0.861668
v 13.738863 -0.625765 0.861573
v 13.667066 -0.617108 0.861668
v 13.738863 -0.617108 0.861573
v 13.810473 -0.617108 0.717863
v 13.810577 -0.617108 0.789659
v 13.810473 -0.625765 0.717863
v 13.810577 -0.625765 0.789659
v 13.671498 -0.671819 0.867519
v 13.672067 -0.680026 0.865445
v 13.733866 -0.680026 0.865362
v 13.734444 -0.671819 0.867438
v 13.589290 -0.671819 0.785541
v 13.591362 -0.680026 0.784963
v 13.814351 -0.680026 0.784654
v 13.816427 -0.671819 0.785225
v 13.589205 -0.671819 0.722594
v 13.591278 -0.680026 0.723166
v 13.671186 -0.671819 0.640385
v 13.671764 -0.680026 0.642458
v 13.814266 -0.680026 0.722862
v 13.816337 -0.671819 0.722284
v 13.733557 -0.680026 0.642376
v 13.734130 -0.671819 0.640301
v 13.725399 -0.725752 0.671972
v 13.723763 -0.732886 0.677909
v 13.681653 -0.732886 0.677966
v 13.680002 -0.725752 0.672031
v 13.784693 -0.725752 0.731102
v 13.778757 -0.732886 0.732752
v 13.626813 -0.732886 0.732960
v 13.620873 -0.725752 0.731326
v 13.784754 -0.725752 0.776499
v 13.778818 -0.732886 0.774859
v 13.725625 -0.725752 0.835790
v 13.723974 -0.732886 0.829855
v 13.680227 -0.725752 0.835850
v 13.681861 -0.732886 0.829913
v 13.620936 -0.725752 0.776722
v 13.626870 -0.732886 0.775069
v 13.576309 -0.457085 0.788748
v 13.573323 -0.460072 0.789989
v 13.668325 -0.457085 0.880511
v 13.667092 -0.460072 0.883499
v 13.576215 -0.457085 0.719422
v 13.573226 -0.460072 0.718189
v 13.667979 -0.457085 0.627402
v 13.666737 -0.460072 0.624417
v 13.737301 -0.457085 0.627310
v 13.738534 -0.460072 0.624323
v 13.829319 -0.457085 0.719077
v 13.832303 -0.460072 0.717836
v 13.829418 -0.457085 0.788396
v 13.832406 -0.460072 0.789629
v 13.737652 -0.457085 0.880421
v 13.738893 -0.460072 0.883405
v 13.573323 -0.503453 0.789989
v 13.576258 -0.506489 0.788769
v 13.576166 -0.506489 0.719401
v 13.573226 -0.503453 0.718189
v 13.666737 -0.503453 0.624417
v 13.667958 -0.506489 0.627353
v 13.737322 -0.506489 0.627261
v 13.738534 -0.503453 0.624323
v 13.832303 -0.503453 0.717836
v 13.829368 -0.506489 0.719056
v 13.829468 -0.506489 0.788417
v 13.832406 -0.503453 0.789629
v 13.738893 -0.503453 0.883405
v 13.737673 -0.506489 0.880471
v 13.668305 -0.506489 0.880561
v 13.667092 -0.503453 0.883499
v 13.573226 -0.520286 0.718189
v 13.576166 -0.517251 0.719401
v 13.576258 -0.517251 0.788769
v 13.573323 -0.520286 0.789989
v 13.573323 -0.558781 0.789989
v 13.576263 -0.561811 0.788767
v 13.576170 -0.561811 0.719403
v 13.573226 -0.558781 0.718189
v 13.738534 -0.520286 0.624323
v 13.737322 -0.517251 0.627261
v 13.667958 -0.517251 0.627353
v 13.666737 -0.520286 0.624417
v 13.666737 -0.558781 0.624417
v 13.667960 -0.561811 0.627358
v 13.737320 -0.561811 0.627266
v 13.738534 -0.558781 0.624323
v 13.667092 -0.520286 0.883499
v 13.668305 -0.517251 0.880561
v 13.737673 -0.517251 0.880471
v 13.738893 -0.520286 0.883405
v 13.738893 -0.558781 0.883405
v 13.737671 -0.561811 0.880466
v 13.668306 -0.561811 0.880555
v 13.667092 -0.558781 0.883499
v 13.832406 -0.520286 0.789629
v 13.829468 -0.517251 0.788417
v 13.829368 -0.517251 0.719056
v 13.832303 -0.520286 0.717836
v 13.832303 -0.558781 0.717836
v 13.829363 -0.561811 0.719058
v 13.829463 -0.561811 0.788415
v 13.832406 -0.558781 0.789629
v 13.668306 -0.626332 0.880556
v 13.667092 -0.629363 0.883499
v 13.737671 -0.626332 0.880466
v 13.738893 -0.629363 0.883405
v 13.576169 -0.626332 0.719403
v 13.573226 -0.629363 0.718189
v 13.576262 -0.626332 0.788768
v 13.573323 -0.629363 0.789989
v 13.829463 -0.626332 0.788415
v 13.832406 -0.629363 0.789629
v 13.829364 -0.626332 0.719058
v 13.832303 -0.629363 0.717836
v 13.737320 -0.626332 0.627265
v 13.738534 -0.629363 0.624323
v 13.667960 -0.626332 0.627357
v 13.666737 -0.629363 0.624417
v 13.573226 -0.574529 0.718189
v 13.576170 -0.571496 0.719403
v 13.576263 -0.571496 0.788767
v 13.573323 -0.574529 0.789989
v 13.573323 -0.613510 0.789989
v 13.576262 -0.616539 0.788768
v 13.576169 -0.616539 0.719403
v 13.573226 -0.613510 0.718189
v 13.738534 -0.574529 0.624323
v 13.737320 -0.571496 0.627266
v 13.667960 -0.571496 0.627358
v 13.666737 -0.574529 0.624417
v 13.666737 -0.613510 0.624417
v 13.667960 -0.616539 0.627357
v 13.737320 -0.616539 0.627265
v 13.738534 -0.613510 0.624323
v 13.832406 -0.574529 0.789629
v 13.829463 -0.571496 0.788415
v 13.829363 -0.571496 0.719058
v 13.832303 -0.574529 0.717836
v 13.832303 -0.613510 0.717836
v 13.829364 -0.616539 0.719058
v 13.829463 -0.616539 0.788415
v 13.832406 -0.613510 0.789629
v 13.667092 -0.574529 0.883499
v 13.668306 -0.571496 0.880555
v 13.737671 -0.571496 0.880466
v 13.738893 -0.574529 0.883405
v 13.738893 -0.613510 0.883405
v 13.737671 -0.616539 0.880466
v 13.668306 -0.616539 0.880556
v 13.667092 -0.613510 0.883499
v 13.716731 -0.767504 0.702255
v 13.718183 -0.766072 0.698148
v 13.688715 -0.767504 0.702205
v 13.687290 -0.766072 0.698190
v 13.754520 -0.767504 0.739812
v 13.758535 -0.766072 0.738386
v 13.754470 -0.767504 0.767833
v 13.758578 -0.766072 0.769284
v 13.716911 -0.767504 0.805616
v 13.718336 -0.766072 0.809632
v 13.688896 -0.767504 0.805565
v 13.687444 -0.766072 0.809672
v 13.651108 -0.767504 0.768010
v 13.647092 -0.766072 0.769436
v 13.651160 -0.767504 0.739990
v 13.647053 -0.766072 0.738539
v 13.727976 -0.737484 0.662620
v 13.726866 -0.733547 0.663799
v 13.677397 -0.737484 0.662689
v 13.678601 -0.733537 0.664082
v 13.731619 -0.722660 0.649410
v 13.730297 -0.724924 0.653004
v 13.673721 -0.722661 0.649484
v 13.675077 -0.724929 0.653130
v 13.807240 -0.722661 0.724822
v 13.803594 -0.724929 0.726178
v 13.794033 -0.737484 0.728496
v 13.792640 -0.733537 0.729700
v 13.611525 -0.737484 0.728746
v 13.612704 -0.733547 0.729856
v 13.598310 -0.722661 0.725106
v 13.601903 -0.724924 0.726429
v 13.807319 -0.722661 0.782719
v 13.803724 -0.724924 0.781396
v 13.794107 -0.737484 0.779074
v 13.792928 -0.733547 0.777963
v 13.731906 -0.722661 0.858337
v 13.730551 -0.724929 0.854691
v 13.728230 -0.737484 0.845132
v 13.727025 -0.733537 0.843739
v 13.674007 -0.722660 0.858413
v 13.675330 -0.724924 0.854818
v 13.677647 -0.737484 0.845201
v 13.678758 -0.733547 0.844022
v 13.598389 -0.722660 0.783004
v 13.602035 -0.724929 0.781647
v 13.611593 -0.737484 0.779325
v 13.612987 -0.733537 0.778121
v 13.668260 -0.684084 0.879252
v 13.669356 -0.680457 0.877221
v 13.737710 -0.684084 0.879159
v 13.736574 -0.680455 0.877043
v 13.667092 -0.668308 0.883499
v 13.668302 -0.671349 0.880565
v 13.738893 -0.668308 0.883405
v 13.737675 -0.671349 0.880475
v 13.573323 -0.668308 0.789989
v 13.576253 -0.671349 0.788771
v 13.577566 -0.684084 0.788807
v 13.579681 -0.680455 0.787670
v 13.828159 -0.684084 0.788459
v 13.826127 -0.680457 0.787363
v 13.832406 -0.668308 0.789629
v 13.829473 -0.671349 0.788419
v 13.573226 -0.668308 0.718189
v 13.576160 -0.671349 0.719400
v 13.577471 -0.684084 0.719360
v 13.579503 -0.680457 0.720457
v 13.666737 -0.668308 0.624417
v 13.667956 -0.671349 0.627348
v 13.667920 -0.684084 0.628661
v 13.669057 -0.680455 0.630777
v 13.828061 -0.684084 0.719019
v 13.825946 -0.680455 0.720156
v 13.832303 -0.668308 0.717836
v 13.829373 -0.671349 0.719054
v 13.737363 -0.684084 0.628570
v 13.736268 -0.680457 0.630601
v 13.738534 -0.668308 0.624323
v 13.737323 -0.671349 0.627256
vt 0.299378 0.139712
vt 0.274568 0.139712
vt 0.274568 0.055612
vt 0.299378 0.055612
vt 0.274568 0.180850
vt 0.299378 0.180850
vt 0.274568 0.014481
vt 0.299378 0.014481
vt 0.299378 0.139712
vt 0.274568 0.139712
vt 0.274568 0.055622
vt 0.299378 0.055622
vt 0.274568 0.180849
vt 0.299378 0.180849
vt 0.299378 0.014481
vt 0.274568 0.014481
vt 0.275750 0.055186
vt 0.298195 0.055186
vt 0.298195 0.140149
vt 0.275750 0.140149
vt 0.275750 0.014046
vt 0.298195 0.014046
vt 0.298195 0.181284
vt 0.275750 0.181284
vt 0.275750 0.055188
vt 0.298195 0.055188
vt 0.298195 0.140143
vt 0.275750 0.140143
vt 0.298195 0.014048
vt 0.275750 0.014048
vt 0.275750 0.181283
vt 0.298195 0.181283
vt 0.275806 0.056514
vt 0.298139 0.056514
vt 0.298139 0.138811
vt 0.275806 0.138811
vt 0.275806 0.015380
vt 0.298139 0.015380
vt 0.298139 0.179951
vt 0.275806 0.179951
vt 0.275806 0.056517
vt 0.298139 0.056517
vt 0.298139 0.138811
vt 0.275806 0.138811
vt 0.298139 0.015383
vt 0.275806 0.015383
vt 0.275806 0.179947
vt 0.298139 0.179947
vt 0.296175 0.131593
vt 0.277770 0.129132
vt 0.277770 0.066200
vt 0.296175 0.063739
vt 0.296175 0.157602
vt 0.277770 0.153259
vt 0.277770 0.042072
vt 0.296175 0.037729
vt 0.277770 0.066196
vt 0.296175 0.063740
vt 0.296175 0.131592
vt 0.277770 0.129131
vt 0.277770 0.042072
vt 0.296175 0.037729
vt 0.296175 0.157602
vt 0.277770 0.153261
vt 0.297562 0.144703
vt 0.276384 0.143843
vt 0.276384 0.051483
vt 0.297562 0.050623
vt 0.297562 0.180768
vt 0.276384 0.179251
vt 0.276384 0.016079
vt 0.297562 0.014563
vt 0.276384 0.051487
vt 0.297562 0.050629
vt 0.297562 0.144705
vt 0.276384 0.143846
vt 0.276384 0.016079
vt 0.297562 0.014561
vt 0.297562 0.180769
vt 0.276384 0.179251
vt 0.488736 0.079352
vt 0.496443 0.080355
vt 0.496443 0.185657
vt 0.488736 0.186660
vt 0.488736 0.038211
vt 0.496443 0.040631
vt 0.496443 0.225376
vt 0.488736 0.227796
vt 0.376788 0.186660
vt 0.376788 0.079352
vt 0.376788 0.038211
vt 0.376788 0.227796
vt 0.368955 0.080338
vt 0.368955 0.185674
vt 0.368955 0.040591
vt 0.368955 0.225416
vt 0.488736 0.079345
vt 0.496443 0.080348
vt 0.496443 0.185655
vt 0.488736 0.186658
vt 0.488736 0.038213
vt 0.496443 0.040633
vt 0.496443 0.225375
vt 0.488736 0.227795
vt 0.376788 0.186658
vt 0.376788 0.079345
vt 0.376788 0.038213
vt 0.376788 0.227795
vt 0.368955 0.080331
vt 0.368955 0.185671
vt 0.368955 0.040592
vt 0.368955 0.225415
vt 0.482361 0.079352
vt 0.490195 0.080338
vt 0.490194 0.185674
vt 0.482361 0.186660
vt 0.482361 0.038211
vt 0.490194 0.040591
vt 0.490195 0.225416
vt 0.482361 0.227796
vt 0.383024 0.186660
vt 0.383024 0.079352
vt 0.383024 0.038211
vt 0.383024 0.227796
vt 0.375203 0.080340
vt 0.375203 0.185672
vt 0.375203 0.040595
vt 0.375203 0.225412
vt 0.490194 0.185671
vt 0.482361 0.186658
vt 0.482361 0.079345
vt 0.490194 0.080331
vt 0.490195 0.225415
vt 0.482361 0.227795
vt 0.383024 0.186658
vt 0.383024 0.079345
vt 0.482361 0.038213
vt 0.490195 0.040592
vt 0.383024 0.227795
vt 0.375203 0.185670
vt 0.375203 0.080333
vt 0.383024 0.038213
vt 0.375203 0.225411
vt 0.375203 0.040596
vt 0.490780 0.185670
vt 0.482958 0.186658
vt 0.482958 0.079345
vt 0.490780 0.080333
vt 0.490780 0.225412
vt 0.482958 0.227795
vt 0.382463 0.186658
vt 0.382463 0.079345
vt 0.482958 0.038213
vt 0.490780 0.040596
vt 0.382463 0.227795
vt 0.374618 0.185673
vt 0.374618 0.080329
vt 0.382463 0.038213
vt 0.374618 0.225419
vt 0.374618 0.040588
vt 0.482958 0.079352
vt 0.490780 0.080340
vt 0.490779 0.185672
vt 0.482957 0.186660
vt 0.482957 0.038211
vt 0.490779 0.040594
vt 0.490780 0.225413
vt 0.482958 0.227796
vt 0.382463 0.186660
vt 0.382463 0.079352
vt 0.382463 0.038211
vt 0.382463 0.227796
vt 0.374618 0.080336
vt 0.374618 0.185676
vt 0.374618 0.040587
vt 0.374618 0.225420
vt 0.482999 0.079352
vt 0.490820 0.080340
vt 0.490820 0.185672
vt 0.482999 0.186660
vt 0.482999 0.038211
vt 0.490820 0.040595
vt 0.490820 0.225412
vt 0.482999 0.227796
vt 0.382400 0.186660
vt 0.382400 0.079352
vt 0.382400 0.038211
vt 0.382400 0.227796
vt 0.374578 0.080340
vt 0.374578 0.185672
vt 0.374578 0.040594
vt 0.374578 0.225412
vt 0.482999 0.079345
vt 0.490820 0.080333
vt 0.490820 0.185670
vt 0.482999 0.186657
vt 0.482999 0.038213
vt 0.490820 0.040596
vt 0.490820 0.225411
vt 0.482999 0.227795
vt 0.382400 0.186657
vt 0.382400 0.079345
vt 0.382400 0.038213
vt 0.382400 0.227795
vt 0.374578 0.080333
vt 0.374578 0.185670
vt 0.374578 0.040596
vt 0.374578 0.225412
vt 0.856042 0.150921
vt 0.845857 0.151032
vt 0.845857 0.075440
vt 0.856015 0.075477
vt 0.856015 0.178700
vt 0.845857 0.180012
vt 0.772082 0.136323
vt 0.772082 0.090149
vt 0.845857 0.046458
vt 0.856042 0.047946
vt 0.772082 0.154024
vt 0.768388 0.134835
vt 0.768388 0.091667
vt 0.772082 0.072445
vt 0.768388 0.150837
vt 0.768388 0.075561
vt 0.381171 0.176274
vt 0.375316 0.174958
vt 0.375322 0.091033
vt 0.381171 0.089736
vt 0.381171 0.209446
vt 0.375322 0.206627
vt 0.375316 0.059427
vt 0.381171 0.056563
vt 0.480720 0.081109
vt 0.480720 0.184902
vt 0.480720 0.224689
vt 0.480720 0.041318
vt 0.490074 0.081643
vt 0.490082 0.184339
vt 0.490074 0.222897
vt 0.490082 0.043181
vt 0.375321 0.091033
vt 0.381170 0.089735
vt 0.381171 0.176271
vt 0.375316 0.174955
vt 0.375316 0.059425
vt 0.381171 0.056561
vt 0.480720 0.081104
vt 0.480720 0.184897
vt 0.381171 0.209444
vt 0.375322 0.206625
vt 0.480720 0.041318
vt 0.490082 0.184333
vt 0.490074 0.081637
vt 0.480720 0.224689
vt 0.490082 0.043181
vt 0.490074 0.222897
vt 0.845857 0.075435
vt 0.856015 0.075472
vt 0.856042 0.150919
vt 0.845857 0.151030
vt 0.845857 0.046457
vt 0.856042 0.047946
vt 0.856015 0.178701
vt 0.845857 0.180013
vt 0.772082 0.136323
vt 0.772082 0.090147
vt 0.772082 0.072444
vt 0.772082 0.154022
vt 0.768388 0.091665
vt 0.768388 0.134835
vt 0.768388 0.075560
vt 0.768388 0.150835
vt 0.571581 0.233232
vt 0.531857 0.193511
vt 0.531860 0.088210
vt 0.571580 0.048485
vt 0.676887 0.048489
vt 0.716602 0.088210
vt 0.716602 0.193513
vt 0.676884 0.233235
vt 0.585786 0.118393
vt 0.601889 0.102391
vt 0.645060 0.102318
vt 0.661065 0.118423
vt 0.661134 0.161593
vt 0.645031 0.177593
vt 0.601861 0.177667
vt 0.585858 0.161561
vt 0.600371 0.099204
vt 0.646548 0.099202
vt 0.646548 0.180780
vt 0.600373 0.180783
vt 0.716642 0.193527
vt 0.676895 0.233272
vt 0.666279 0.224048
vt 0.707411 0.182908
vt 0.571559 0.233275
vt 0.582179 0.224047
vt 0.716640 0.088194
vt 0.707410 0.098815
vt 0.531817 0.193529
vt 0.541042 0.182909
vt 0.676896 0.048444
vt 0.666272 0.057677
vt 0.531817 0.088193
vt 0.541042 0.098815
vt 0.571556 0.048448
vt 0.582183 0.057676
vt 0.571565 0.233272
vt 0.531817 0.193527
vt 0.541049 0.182908
vt 0.582180 0.224048
vt 0.531819 0.088193
vt 0.541050 0.098814
vt 0.676900 0.233275
vt 0.666280 0.224047
vt 0.571563 0.048444
vt 0.582187 0.057677
vt 0.716642 0.193529
vt 0.707418 0.182909
vt 0.676903 0.048448
vt 0.666277 0.057676
vt 0.716642 0.088193
vt 0.707418 0.098815
vt 0.716639 0.193526
vt 0.676893 0.233268
vt 0.666708 0.224480
vt 0.707848 0.183342
vt 0.571561 0.233271
vt 0.581746 0.224479
vt 0.716636 0.088195
vt 0.707844 0.098383
vt 0.531821 0.193528
vt 0.540610 0.183339
vt 0.676895 0.048448
vt 0.666704 0.057243
vt 0.531821 0.088195
vt 0.540610 0.098379
vt 0.571558 0.048452
vt 0.581749 0.057238
vt 0.531823 0.088195
vt 0.571564 0.048448
vt 0.583087 0.058574
vt 0.541951 0.099714
vt 0.676902 0.048452
vt 0.665382 0.058577
vt 0.531821 0.193526
vt 0.541948 0.182007
vt 0.716639 0.088195
vt 0.706515 0.099717
vt 0.571566 0.233269
vt 0.583082 0.223146
vt 0.716639 0.193528
vt 0.706519 0.182009
vt 0.676899 0.233272
vt 0.665379 0.223148
vt 0.571566 0.233268
vt 0.531821 0.193526
vt 0.540611 0.183342
vt 0.581751 0.224480
vt 0.531823 0.088195
vt 0.540615 0.098383
vt 0.676899 0.233271
vt 0.666714 0.224479
vt 0.571565 0.048448
vt 0.581755 0.057243
vt 0.716639 0.193528
vt 0.707849 0.183339
vt 0.676902 0.048452
vt 0.666710 0.057238
vt 0.716639 0.088195
vt 0.707850 0.098379
vt 0.716639 0.193526
vt 0.676894 0.233268
vt 0.665378 0.223146
vt 0.706511 0.182007
vt 0.571561 0.233271
vt 0.583081 0.223148
vt 0.716637 0.088195
vt 0.706509 0.099713
vt 0.531821 0.193528
vt 0.541941 0.182009
vt 0.676895 0.048448
vt 0.665372 0.058574
vt 0.531821 0.088195
vt 0.541945 0.099717
vt 0.571558 0.048452
vt 0.583078 0.058577
vt 0.675590 0.050967
vt 0.714055 0.089530
vt 0.705818 0.094683
vt 0.670408 0.059275
vt 0.714123 0.192226
vt 0.705816 0.187043
vt 0.572899 0.051037
vt 0.578052 0.059274
vt 0.675564 0.230683
vt 0.670410 0.222447
vt 0.534337 0.089499
vt 0.542644 0.094681
vt 0.572868 0.230753
vt 0.578050 0.222445
vt 0.534407 0.192194
vt 0.542643 0.187041
vt 0.676898 0.048440
vt 0.716644 0.088192
vt 0.707332 0.093823
vt 0.671267 0.057754
vt 0.716646 0.193529
vt 0.707333 0.187898
vt 0.571555 0.048445
vt 0.577187 0.057757
vt 0.676897 0.233276
vt 0.671266 0.223963
vt 0.531814 0.088191
vt 0.541126 0.093823
vt 0.571558 0.233279
vt 0.577189 0.223966
vt 0.531814 0.193531
vt 0.541125 0.187899
vt 0.586468 0.206325
vt 0.558938 0.178546
vt 0.568634 0.172327
vt 0.592761 0.196454
vt 0.558765 0.103102
vt 0.568636 0.109395
vt 0.661914 0.206149
vt 0.655695 0.196454
vt 0.586543 0.075572
vt 0.592762 0.085267
vt 0.689695 0.178623
vt 0.679824 0.172330
vt 0.661988 0.075394
vt 0.655696 0.085265
vt 0.689519 0.103176
vt 0.679824 0.109395
vt 0.582277 0.214441
vt 0.550608 0.182830
vt 0.564293 0.174786
vt 0.590303 0.200800
vt 0.550652 0.098907
vt 0.564293 0.106933
vt 0.666201 0.214483
vt 0.658156 0.200798
vt 0.582259 0.067236
vt 0.590304 0.080922
vt 0.697808 0.182812
vt 0.684167 0.174786
vt 0.666182 0.067282
vt 0.658156 0.080922
vt 0.697852 0.098892
vt 0.684166 0.106936
vt 0.299378 0.139712
vt 0.274568 0.139712
vt 0.274568 0.055618
vt 0.299378 0.055618
vt 0.299378 0.139712
vt 0.274568 0.139712
vt 0.274568 0.055619
vt 0.299378 0.055619
vt 0.298195 0.140145
vt 0.275750 0.140145
vt 0.275750 0.055185
vt 0.298195 0.055185
vt 0.298195 0.140146
vt 0.275750 0.140146
vt 0.275750 0.055185
vt 0.298195 0.055185
vt 0.298139 0.138812
vt 0.275806 0.138812
vt 0.275806 0.056519
vt 0.298139 0.056519
vt 0.298139 0.138811
vt 0.275806 0.138811
vt 0.275806 0.056520
vt 0.298139 0.056520
vt 0.296175 0.129134
vt 0.277770 0.131592
vt 0.277770 0.063739
vt 0.296175 0.066201
vt 0.277770 0.066199
vt 0.296175 0.063740
vt 0.296175 0.131591
vt 0.277770 0.129132
vt 0.276384 0.051488
vt 0.297562 0.050628
vt 0.297562 0.144703
vt 0.276384 0.143844
vt 0.276384 0.050627
vt 0.297562 0.051485
vt 0.297562 0.143845
vt 0.276384 0.144704
vt 0.380049 0.196747
vt 0.379046 0.189041
vt 0.486351 0.189041
vt 0.485349 0.196747
vt 0.379046 0.077093
vt 0.486351 0.077093
vt 0.380032 0.069260
vt 0.485366 0.069260
vt 0.379045 0.076966
vt 0.380047 0.069260
vt 0.485350 0.069260
vt 0.486353 0.076966
vt 0.379045 0.188914
vt 0.486353 0.188914
vt 0.380031 0.196748
vt 0.485367 0.196748
vt 0.380032 0.190499
vt 0.379046 0.182666
vt 0.486352 0.182666
vt 0.485366 0.190499
vt 0.379046 0.083329
vt 0.486352 0.083329
vt 0.380033 0.075508
vt 0.485364 0.075508
vt 0.379045 0.083341
vt 0.380031 0.075508
vt 0.485367 0.075508
vt 0.486353 0.083341
vt 0.486353 0.182678
vt 0.379045 0.182678
vt 0.380032 0.190499
vt 0.485365 0.190499
vt 0.486351 0.183262
vt 0.485364 0.191084
vt 0.380033 0.191084
vt 0.379046 0.183262
vt 0.379046 0.082768
vt 0.486351 0.082768
vt 0.485367 0.074923
vt 0.380031 0.074923
vt 0.485366 0.074923
vt 0.486353 0.082745
vt 0.379045 0.082745
vt 0.380032 0.074923
vt 0.486353 0.183240
vt 0.379045 0.183240
vt 0.485369 0.191084
vt 0.380029 0.191084
vt 0.380034 0.191124
vt 0.379046 0.183304
vt 0.486351 0.183304
vt 0.485364 0.191124
vt 0.379046 0.082705
vt 0.486351 0.082705
vt 0.380034 0.074883
vt 0.485364 0.074883
vt 0.379045 0.082704
vt 0.380032 0.074883
vt 0.485365 0.074883
vt 0.486353 0.082704
vt 0.486353 0.183302
vt 0.379045 0.183302
vt 0.380032 0.191124
vt 0.485366 0.191124
vt 0.952702 0.151375
vt 0.952665 0.161534
vt 0.877219 0.161560
vt 0.877108 0.151375
vt 0.891817 0.077601
vt 0.937993 0.077600
vt 0.390729 0.075627
vt 0.389431 0.081475
vt 0.475969 0.081475
vt 0.474653 0.075621
vt 0.380803 0.181025
vt 0.484595 0.181025
vt 0.484032 0.190387
vt 0.381337 0.190378
vt 0.474669 0.075627
vt 0.475966 0.081475
vt 0.389432 0.081475
vt 0.390748 0.075621
vt 0.484593 0.181025
vt 0.380805 0.181025
vt 0.484059 0.190378
vt 0.381368 0.190387
vt 0.952702 0.151375
vt 0.952664 0.161534
vt 0.877219 0.161560
vt 0.877109 0.151375
vt 0.891818 0.077600
vt 0.937993 0.077600
vn -0.001370 0.000000 -0.999999
vn -0.001370 0.000000 -0.999999
vn -0.001370 0.000000 -0.999999
vn -0.001370 0.000000 -0.999999
vn 0.999999 0.000000 -0.001342
vn 0.999999 0.000000 -0.001342
vn 0.999999 0.000000 -0.001342
vn 0.999999 0.000000 -0.001342
vn -0.999999 0.000000 0.001474
vn -0.999999 0.000000 0.001474
vn -0.999999 0.000000 0.001474
vn -0.999999 0.000000 0.001474
vn 0.001368 0.000000 0.999999
vn 0.001368 0.000000 0.999999
vn 0.001368 0.000000 0.999999
vn 0.001368 0.000000 0.999999
vn -0.999999 0.000000 0.001342
vn -0.999999 0.000000 0.001342
vn -0.999999 0.000000 0.001342
vn -0.999999 0.000000 0.001342
vn -0.001322 0.000000 -0.999999
vn -0.001322 0.000000 -0.999999
vn -0.001322 0.000000 -0.999999
vn -0.001322 0.000000 -0.999999
vn 0.001362 0.000000 0.999999
vn 0.001362 0.000000 0.999999
vn 0.001362 0.000000 0.999999
vn 0.001362 0.000000 0.999999
vn 0.999999 0.000000 -0.001395
vn 0.999999 0.000000 -0.001395
vn 0.999999 0.000000 -0.001395
vn 0.999999 0.000000 -0.001395
vn -0.999999 0.000000 0.001435
vn -0.999999 0.000000 0.001435
vn -0.999999 0.000000 0.001435
vn -0.999999 0.000000 0.001435
vn -0.001370 0.000000 -0.999999
vn -0.001370 0.000000 -0.999999
vn -0.001370 0.000000 -0.999999
vn -0.001370 0.000000 -0.999999
vn 0.001327 0.000000 0.999999
vn 0.001327 0.000000 0.999999
vn 0.001327 0.000000 0.999999
vn 0.001327 0.000000 0.999999
vn 0.999999 0.000000 -0.001448
vn 0.999999 0.000000 -0.001448
vn 0.999999 0.000000 -0.001448
vn 0.999999 0.000000 -0.001448
vn 0.706144 0.000000 -0.708068
vn 0.706144 0.000000 -0.708068
vn 0.706144 0.000000 -0.708068
vn 0.706144 0.000000 -0.708068
vn -0.708060 0.000000 -0.706153
vn -0.708060 0.000000 -0.706153
vn -0.708060 0.000000 -0.706153
vn -0.708060 0.000000 -0.706153
vn -0.706133 0.000000 0.708079
vn -0.706133 0.000000 0.708079
vn -0.706133 0.000000 0.708079
vn -0.706133 0.000000 0.708079
vn 0.708072 0.000000 0.706141
vn 0.708072 0.000000 0.706141
vn 0.708072 0.000000 0.706141
vn 0.708072 0.000000 0.706141
vn -0.708063 0.000000 -0.706149
vn -0.708063 0.000000 -0.706149
vn -0.708063 0.000000 -0.706149
vn -0.708063 0.000000 -0.706149
vn -0.706107 0.000000 0.708105
vn -0.706107 0.000000 0.708105
vn -0.706107 0.000000 0.708105
vn -0.706107 0.000000 0.708105
vn 0.706138 0.000000 -0.708074
vn 0.706138 0.000000 -0.708074
vn 0.706138 0.000000 -0.708074
vn 0.706138 0.000000 -0.708074
vn 0.708032 0.000000 0.706180
vn 0.708032 0.000000 0.706180
vn 0.708032 0.000000 0.706180
vn 0.708032 0.000000 0.706180
vn -0.708087 0.000000 -0.706125
vn -0.708087 0.000000 -0.706125
vn -0.708087 0.000000 -0.706125
vn -0.708087 0.000000 -0.706125
vn -0.706118 0.000000 0.708094
vn -0.706118 0.000000 0.708094
vn -0.706118 0.000000 0.708094
vn -0.706118 0.000000 0.708094
vn 0.706168 0.000000 -0.708044
vn 0.706168 0.000000 -0.708044
vn 0.706168 0.000000 -0.708044
vn 0.706168 0.000000 -0.708044
vn 0.708095 0.000000 0.706117
vn 0.708095 0.000000 0.706117
vn 0.708095 0.000000 0.706117
vn 0.708095 0.000000 0.706117
vn -0.001015 -0.639626 -0.768685
vn -0.001015 -0.639626 -0.768685
vn -0.001015 -0.639626 -0.768685
vn -0.001015 -0.639626 -0.768685
vn 0.564531 -0.600708 -0.566087
vn 0.564531 -0.600708 -0.566087
vn 0.564531 -0.600708 -0.566087
vn 0.564531 -0.600708 -0.566087
vn -0.566098 -0.600713 -0.564514
vn -0.566098 -0.600713 -0.564514
vn -0.566099 -0.600713 -0.564514
vn -0.566098 -0.600713 -0.564514
vn 0.768609 -0.639718 -0.001072
vn 0.768609 -0.639718 -0.001072
vn 0.768609 -0.639718 -0.001072
vn 0.768609 -0.639718 -0.001072
vn 0.566083 -0.600711 0.564532
vn 0.566083 -0.600711 0.564532
vn 0.566083 -0.600711 0.564532
vn 0.566083 -0.600711 0.564532
vn 0.001039 -0.639629 0.768683
vn 0.001039 -0.639629 0.768683
vn 0.001039 -0.639629 0.768683
vn 0.001039 -0.639630 0.768683
vn -0.564564 -0.600666 0.566099
vn -0.564564 -0.600666 0.566099
vn -0.564564 -0.600666 0.566099
vn -0.564564 -0.600666 0.566099
vn -0.768540 -0.639801 0.001047
vn -0.768540 -0.639801 0.001047
vn -0.768540 -0.639801 0.001047
vn -0.768540 -0.639801 0.001047
vn 0.001280 -0.245121 0.969491
vn 0.001280 -0.245121 0.969491
vn 0.001280 -0.245122 0.969492
vn 0.001280 -0.245122 0.969492
vn -0.688432 -0.222451 0.690346
vn -0.688432 -0.222451 0.690346
vn -0.688432 -0.222451 0.690346
vn -0.688432 -0.222451 0.690346
vn 0.690323 -0.222620 0.688400
vn 0.690323 -0.222620 0.688400
vn 0.690323 -0.222620 0.688400
vn 0.690323 -0.222620 0.688400
vn -0.969580 -0.244771 0.001312
vn -0.969580 -0.244771 0.001312
vn -0.969580 -0.244771 0.001312
vn -0.969580 -0.244771 0.001312
vn -0.690344 -0.222445 -0.688435
vn -0.690344 -0.222445 -0.688435
vn -0.690344 -0.222445 -0.688435
vn -0.690344 -0.222445 -0.688435
vn 0.969521 -0.245005 -0.001364
vn 0.969521 -0.245005 -0.001364
vn 0.969521 -0.245005 -0.001364
vn 0.969521 -0.245005 -0.001364
vn 0.688434 -0.222502 -0.690327
vn 0.688434 -0.222502 -0.690327
vn 0.688434 -0.222502 -0.690327
vn 0.688434 -0.222502 -0.690327
vn -0.001290 -0.245028 -0.969515
vn -0.001290 -0.245028 -0.969515
vn -0.001290 -0.245028 -0.969515
vn -0.001290 -0.245028 -0.969515
vn -0.499192 0.707271 0.500574
vn -0.499192 0.707271 0.500574
vn -0.499192 0.707271 0.500574
vn -0.499192 0.707271 0.500574
vn -0.707050 0.707163 0.000951
vn -0.707050 0.707163 0.000951
vn -0.707050 0.707163 0.000951
vn -0.707050 0.707163 0.000951
vn 0.000919 0.707108 0.707105
vn 0.000919 0.707108 0.707105
vn 0.000919 0.707108 0.707105
vn 0.000919 0.707108 0.707105
vn -0.500660 0.707154 -0.499272
vn -0.500660 0.707154 -0.499272
vn -0.500660 0.707154 -0.499272
vn -0.500660 0.707154 -0.499272
vn -0.000938 0.707085 -0.707128
vn -0.000938 0.707085 -0.707128
vn -0.000938 0.707085 -0.707128
vn -0.000938 0.707085 -0.707128
vn 0.499358 0.707047 -0.500726
vn 0.499358 0.707047 -0.500726
vn 0.499358 0.707047 -0.500726
vn 0.499358 0.707047 -0.500726
vn 0.707113 0.707100 -0.001008
vn 0.707113 0.707100 -0.001008
vn 0.707113 0.707100 -0.001008
vn 0.707113 0.707100 -0.001008
vn 0.500679 0.707139 0.499275
vn 0.500679 0.707139 0.499275
vn 0.500679 0.707139 0.499275
vn 0.500679 0.707139 0.499275
vn -0.507526 -0.695274 0.508931
vn -0.507526 -0.695274 0.508931
vn -0.507526 -0.695274 0.508931
vn -0.507526 -0.695274 0.508931
vn -0.718678 -0.695343 0.000961
vn -0.718678 -0.695343 0.000961
vn -0.718678 -0.695343 0.000961
vn -0.718678 -0.695343 0.000961
vn -0.508866 -0.695377 -0.507451
vn -0.508866 -0.695377 -0.507451
vn -0.508866 -0.695377 -0.507451
vn -0.508866 -0.695377 -0.507451
vn -0.000952 -0.695315 -0.718705
vn -0.000952 -0.695314 -0.718705
vn -0.000952 -0.695314 -0.718705
vn -0.000952 -0.695315 -0.718705
vn 0.507540 -0.695264 -0.508931
vn 0.507540 -0.695264 -0.508931
vn 0.507540 -0.695264 -0.508931
vn 0.507540 -0.695264 -0.508931
vn 0.718642 -0.695380 -0.001035
vn 0.718642 -0.695380 -0.001035
vn 0.718642 -0.695379 -0.001035
vn 0.718642 -0.695379 -0.001035
vn 0.508960 -0.695251 0.507530
vn 0.508960 -0.695251 0.507530
vn 0.508960 -0.695251 0.507530
vn 0.508960 -0.695251 0.507530
vn 0.000934 -0.695291 0.718728
vn 0.000934 -0.695291 0.718728
vn 0.000934 -0.695291 0.718728
vn 0.000934 -0.695291 0.718728
vn -0.508788 0.695488 -0.507378
vn -0.508788 0.695488 -0.507378
vn -0.508788 0.695488 -0.507378
vn -0.508787 0.695488 -0.507378
vn -0.718568 0.695456 0.000961
vn -0.718568 0.695456 0.000961
vn -0.718568 0.695456 0.000961
vn -0.718568 0.695456 0.000961
vn -0.507446 0.695383 0.508863
vn -0.507446 0.695383 0.508863
vn -0.507446 0.695383 0.508863
vn -0.507446 0.695383 0.508863
vn -0.506585 -0.696649 0.507989
vn -0.506585 -0.696649 0.507989
vn -0.506585 -0.696649 0.507989
vn -0.506585 -0.696649 0.507989
vn -0.717393 -0.696668 0.000960
vn -0.717393 -0.696668 0.000960
vn -0.717393 -0.696668 0.000960
vn -0.717393 -0.696668 0.000960
vn -0.508000 -0.696641 -0.506585
vn -0.508000 -0.696641 -0.506585
vn -0.508000 -0.696641 -0.506585
vn -0.508000 -0.696641 -0.506585
vn 0.507463 0.695378 -0.508853
vn 0.507463 0.695378 -0.508853
vn 0.507463 0.695378 -0.508853
vn 0.507463 0.695378 -0.508853
vn -0.000951 0.695433 -0.718590
vn -0.000951 0.695433 -0.718590
vn -0.000951 0.695433 -0.718590
vn -0.000951 0.695433 -0.718590
vn -0.000950 -0.696509 -0.717547
vn -0.000950 -0.696509 -0.717547
vn -0.000950 -0.696509 -0.717547
vn -0.000950 -0.696509 -0.717547
vn 0.506753 -0.696419 -0.508135
vn 0.506753 -0.696419 -0.508135
vn 0.506753 -0.696419 -0.508135
vn 0.506753 -0.696419 -0.508135
vn 0.000935 0.695422 0.718601
vn 0.000935 0.695422 0.718601
vn 0.000935 0.695422 0.718601
vn 0.000935 0.695422 0.718601
vn 0.508864 0.695393 0.507432
vn 0.508864 0.695393 0.507432
vn 0.508864 0.695393 0.507432
vn 0.508864 0.695393 0.507432
vn 0.508167 -0.696402 0.506745
vn 0.508167 -0.696402 0.506745
vn 0.508167 -0.696402 0.506745
vn 0.508167 -0.696402 0.506745
vn 0.000931 -0.696521 0.717535
vn 0.000931 -0.696521 0.717535
vn 0.000931 -0.696521 0.717535
vn 0.000931 -0.696521 0.717535
vn 0.718519 0.695506 -0.001033
vn 0.718519 0.695506 -0.001033
vn 0.718519 0.695507 -0.001033
vn 0.718519 0.695506 -0.001033
vn 0.717658 -0.696395 -0.001033
vn 0.717658 -0.696395 -0.001033
vn 0.717658 -0.696395 -0.001033
vn 0.717658 -0.696395 -0.001033
vn 0.000930 0.696460 0.717595
vn 0.000930 0.696460 0.717595
vn 0.000930 0.696460 0.717595
vn 0.000930 0.696460 0.717595
vn -0.506737 0.696427 0.508141
vn -0.506737 0.696427 0.508141
vn -0.506737 0.696427 0.508141
vn -0.506737 0.696427 0.508141
vn 0.508245 0.696294 0.506815
vn 0.508245 0.696294 0.506815
vn 0.508246 0.696294 0.506815
vn 0.508246 0.696294 0.506815
vn -0.717595 0.696460 0.000960
vn -0.717595 0.696460 0.000960
vn -0.717595 0.696460 0.000960
vn -0.717595 0.696460 0.000960
vn -0.508076 0.696530 -0.506661
vn -0.508076 0.696530 -0.506661
vn -0.508076 0.696530 -0.506661
vn -0.508076 0.696530 -0.506661
vn 0.717658 0.696395 -0.001028
vn 0.717658 0.696395 -0.001028
vn 0.717658 0.696395 -0.001028
vn 0.717658 0.696395 -0.001028
vn 0.506678 0.696530 -0.508059
vn 0.506678 0.696530 -0.508059
vn 0.506678 0.696530 -0.508059
vn 0.506678 0.696530 -0.508059
vn -0.000950 0.696468 -0.717587
vn -0.000950 0.696468 -0.717588
vn -0.000950 0.696468 -0.717587
vn -0.000950 0.696468 -0.717588
vn -0.508223 0.696317 -0.506806
vn -0.508223 0.696317 -0.506806
vn -0.508223 0.696317 -0.506806
vn -0.508223 0.696317 -0.506806
vn -0.717708 0.696343 0.000960
vn -0.717708 0.696344 0.000960
vn -0.717708 0.696343 0.000960
vn -0.717708 0.696343 0.000960
vn -0.506806 0.696323 0.508215
vn -0.506806 0.696323 0.508215
vn -0.506806 0.696323 0.508215
vn -0.506806 0.696323 0.508215
vn -0.506543 -0.696708 0.507949
vn -0.506543 -0.696708 0.507949
vn -0.506543 -0.696708 0.507949
vn -0.506543 -0.696708 0.507949
vn -0.717320 -0.696743 0.000959
vn -0.717320 -0.696743 0.000959
vn -0.717320 -0.696743 0.000959
vn -0.717320 -0.696743 0.000959
vn -0.507882 -0.696811 -0.506468
vn -0.507882 -0.696811 -0.506469
vn -0.507882 -0.696811 -0.506468
vn -0.507882 -0.696811 -0.506468
vn 0.506974 0.696093 -0.508361
vn 0.506974 0.696093 -0.508361
vn 0.506974 0.696093 -0.508361
vn 0.506974 0.696093 -0.508361
vn -0.000950 0.696178 -0.717868
vn -0.000950 0.696178 -0.717868
vn -0.000950 0.696178 -0.717868
vn -0.000950 0.696178 -0.717868
vn -0.000949 -0.696766 -0.717298
vn -0.000949 -0.696766 -0.717298
vn -0.000949 -0.696766 -0.717298
vn -0.000949 -0.696766 -0.717298
vn 0.506560 -0.696700 -0.507943
vn 0.506560 -0.696700 -0.507943
vn 0.506560 -0.696700 -0.507943
vn 0.506560 -0.696700 -0.507943
vn 0.508392 0.696081 0.506961
vn 0.508392 0.696081 0.506961
vn 0.508392 0.696081 0.506961
vn 0.508392 0.696081 0.506961
vn 0.717972 0.696071 -0.001034
vn 0.717972 0.696071 -0.001034
vn 0.717972 0.696071 -0.001034
vn 0.717972 0.696071 -0.001034
vn 0.717384 -0.696677 -0.001027
vn 0.717384 -0.696677 -0.001027
vn 0.717384 -0.696677 -0.001027
vn 0.717384 -0.696677 -0.001027
vn 0.508051 -0.696575 0.506623
vn 0.508051 -0.696575 0.506623
vn 0.508051 -0.696575 0.506623
vn 0.508051 -0.696575 0.506623
vn 0.000931 0.696197 0.717850
vn 0.000931 0.696197 0.717850
vn 0.000931 0.696197 0.717850
vn 0.000931 0.696197 0.717851
vn 0.000930 -0.696741 0.717322
vn 0.000930 -0.696741 0.717322
vn 0.000930 -0.696741 0.717322
vn 0.000930 -0.696741 0.717322
vn 0.005780 -0.999934 -0.009964
vn 0.311445 -0.788701 -0.530050
vn 0.529170 -0.788715 -0.312903
vn 0.009997 -0.999933 -0.005837
vn -0.005836 -0.999933 -0.009995
vn -0.312886 -0.788725 -0.529164
vn -0.009964 -0.999934 -0.005780
vn -0.530033 -0.788715 -0.311438
vn 0.530029 -0.788714 0.311448
vn 0.009964 -0.999934 0.005780
vn 0.312858 -0.788724 0.529183
vn 0.005836 -0.999933 0.009996
vn -0.311431 -0.788716 0.530036
vn -0.005779 -0.999934 0.009963
vn -0.529165 -0.788733 0.312866
vn -0.009996 -0.999933 0.005837
vn 0.647492 0.401405 -0.647787
vn 0.647492 0.401405 -0.647787
vn 0.647492 0.401405 -0.647787
vn 0.647492 0.401405 -0.647787
vn -0.003356 0.310251 -0.950649
vn -0.003356 0.310251 -0.950649
vn -0.003356 0.310251 -0.950649
vn -0.003356 0.310251 -0.950649
vn -0.647762 0.401537 -0.647435
vn -0.647762 0.401537 -0.647435
vn -0.647762 0.401537 -0.647435
vn -0.647762 0.401537 -0.647435
vn 0.036247 -0.545381 -0.837405
vn 0.094061 -0.981481 -0.166875
vn -0.094446 -0.981500 -0.166546
vn -0.038418 -0.545319 -0.837348
vn 0.837352 -0.545308 -0.038482
vn 0.166539 -0.981501 -0.094453
vn -0.166887 -0.981480 -0.094051
vn -0.837399 -0.545392 -0.036200
vn 0.837407 -0.545381 0.036175
vn 0.166866 -0.981483 0.094062
vn 0.950610 0.310370 -0.003446
vn 0.950610 0.310370 -0.003446
vn 0.950610 0.310370 -0.003446
vn 0.950610 0.310370 -0.003446
vn -0.950526 0.310626 0.003345
vn -0.950526 0.310626 0.003345
vn -0.950526 0.310626 0.003345
vn -0.950526 0.310626 0.003345
vn -0.166543 -0.981501 0.094443
vn -0.837328 -0.545347 0.038470
vn 0.038430 -0.545320 0.837346
vn 0.094442 -0.981501 0.166541
vn 0.647752 0.401521 0.647456
vn 0.647752 0.401521 0.647456
vn 0.647752 0.401521 0.647456
vn 0.647752 0.401521 0.647456
vn -0.036219 -0.545392 0.837399
vn -0.094056 -0.981482 0.166873
vn 0.003367 0.310240 0.950652
vn 0.003367 0.310240 0.950652
vn 0.003367 0.310240 0.950652
vn 0.003367 0.310240 0.950652
vn -0.647471 0.401534 0.647728
vn -0.647471 0.401534 0.647729
vn -0.647471 0.401534 0.647728
vn -0.647471 0.401534 0.647728
vn -0.599852 0.528065 0.601103
vn -0.599852 0.528065 0.601103
vn -0.599852 0.528065 0.601103
vn -0.599852 0.528065 0.601103
vn 0.001718 0.496270 0.868167
vn 0.001718 0.496270 0.868166
vn 0.001718 0.496270 0.868167
vn 0.001718 0.496270 0.868166
vn 0.601116 0.528046 0.599856
vn 0.601116 0.528046 0.599856
vn 0.601116 0.528046 0.599856
vn 0.601116 0.528046 0.599856
vn 0.000935 -0.694158 0.719822
vn 0.000935 -0.694158 0.719822
vn 0.000935 -0.694158 0.719822
vn 0.000935 -0.694158 0.719822
vn -0.508323 -0.694106 0.509731
vn -0.508323 -0.694106 0.509731
vn -0.508323 -0.694106 0.509731
vn -0.508323 -0.694106 0.509731
vn 0.509832 -0.693968 0.508409
vn 0.509832 -0.693968 0.508409
vn 0.509832 -0.693968 0.508409
vn 0.509832 -0.693968 0.508409
vn -0.719770 -0.694212 0.000968
vn -0.719770 -0.694212 0.000968
vn -0.719769 -0.694212 0.000968
vn -0.719770 -0.694212 0.000968
vn -0.868113 0.496364 0.001721
vn -0.868113 0.496364 0.001721
vn -0.868113 0.496364 0.001721
vn -0.868113 0.496364 0.001721
vn 0.868171 0.496262 -0.001764
vn 0.868171 0.496262 -0.001764
vn 0.868171 0.496262 -0.001764
vn 0.868171 0.496262 -0.001764
vn 0.719935 -0.694041 -0.001036
vn 0.719935 -0.694041 -0.001036
vn 0.719935 -0.694041 -0.001036
vn 0.719935 -0.694041 -0.001036
vn -0.509666 -0.694207 -0.508249
vn -0.509666 -0.694207 -0.508249
vn -0.509666 -0.694207 -0.508249
vn -0.509666 -0.694207 -0.508249
vn -0.601121 0.528030 -0.599865
vn -0.601121 0.528030 -0.599865
vn -0.601121 0.528030 -0.599865
vn -0.601121 0.528030 -0.599865
vn -0.000953 -0.694149 -0.719831
vn -0.000953 -0.694149 -0.719831
vn -0.000953 -0.694149 -0.719831
vn -0.000953 -0.694149 -0.719831
vn -0.001697 0.496246 -0.868181
vn -0.001697 0.496246 -0.868181
vn -0.001697 0.496246 -0.868181
vn -0.001697 0.496246 -0.868181
vn 0.599929 0.527890 -0.601180
vn 0.599929 0.527890 -0.601180
vn 0.599929 0.527890 -0.601180
vn 0.599929 0.527890 -0.601180
vn 0.508260 -0.694205 -0.509659
vn 0.508260 -0.694205 -0.509659
vn 0.508260 -0.694205 -0.509659
vn 0.508260 -0.694205 -0.509659
vn 0.000000 1.000000 0.000000
vn 0.000000 1.000000 0.000000
vn 0.000000 1.000000 0.000000
vn 0.000000 1.000000 0.000000
vn 0.000000 1.000000 0.000000
vn 0.000000 1.000000 0.000000
vn 0.000000 1.000000 0.000000
vn 0.000000 1.000000 0.000000
vn -0.999999 0.000000 0.001342
vn -0.999999 0.000000 0.001342
vn -0.999999 0.000000 0.001342
vn -0.999999 0.000000 0.001342
vn -0.033850 -0.999361 0.011505
vn -0.033887 -0.999361 -0.011408
vn -0.034684 -0.999142 -0.022624
vn -0.034610 -0.999143 0.022715
vn -0.001322 0.000000 -0.999999
vn -0.001322 0.000000 -0.999999
vn -0.001322 0.000000 -0.999999
vn -0.001322 0.000000 -0.999999
vn -0.011501 -0.999361 -0.033856
vn 0.011406 -0.999361 -0.033889
vn 0.022629 -0.999142 -0.034686
vn -0.022721 -0.999142 -0.034621
vn 0.999999 0.000000 -0.001435
vn 0.999999 0.000000 -0.001435
vn 0.999999 0.000000 -0.001435
vn 0.999999 0.000000 -0.001435
vn 0.033852 -0.999361 -0.011495
vn 0.033877 -0.999361 0.011401
vn 0.034672 -0.999143 0.022619
vn 0.034621 -0.999142 -0.022722
vn 0.001301 0.000000 0.999999
vn 0.001301 0.000000 0.999999
vn 0.001301 0.000000 0.999999
vn 0.001301 0.000000 0.999999
vn 0.011497 -0.999361 0.033844
vn -0.011405 -0.999361 0.033877
vn -0.022615 -0.999143 0.034671
vn 0.022711 -0.999143 0.034607
vn -0.034000 0.999356 -0.011445
vn -0.033963 0.999356 0.011541
vn -0.034724 0.999137 0.022786
vn -0.034799 0.999137 -0.022699
vn -0.999999 0.000000 0.001342
vn -0.999999 0.000000 0.001342
vn -0.999999 0.000000 0.001342
vn -0.999999 0.000000 0.001342
vn -0.030366 -0.999486 0.010300
vn -0.030395 -0.999486 -0.010216
vn -0.031150 -0.999307 -0.020379
vn -0.031091 -0.999307 0.020460
vn 0.011444 0.999356 -0.034000
vn -0.011539 0.999356 -0.033968
vn -0.022795 0.999137 -0.034736
vn 0.022704 0.999136 -0.034801
vn -0.001322 0.000000 -0.999999
vn -0.001322 0.000000 -0.999999
vn -0.001322 0.000000 -0.999999
vn -0.001322 0.000000 -0.999999
vn -0.010299 -0.999486 -0.030364
vn 0.010215 -0.999486 -0.030392
vn 0.020380 -0.999307 -0.031149
vn -0.020460 -0.999307 -0.031091
vn -0.011441 0.999357 0.033990
vn 0.011540 0.999356 0.033964
vn 0.022795 0.999137 0.034734
vn -0.022688 0.999137 0.034784
vn 0.001301 0.000000 0.999999
vn 0.001301 0.000000 0.999999
vn 0.001301 0.000000 0.999999
vn 0.001301 0.000000 0.999999
vn 0.010296 -0.999486 0.030359
vn -0.010213 -0.999486 0.030385
vn -0.020372 -0.999307 0.031142
vn 0.020459 -0.999307 0.031091
vn 0.033999 0.999356 0.011444
vn 0.033969 0.999356 -0.011533
vn 0.034739 0.999136 -0.022797
vn 0.034799 0.999136 0.022705
vn 0.999999 0.000000 -0.001435
vn 0.999999 0.000000 -0.001435
vn 0.999999 0.000000 -0.001435
vn 0.999999 0.000000 -0.001435
vn 0.030364 -0.999486 -0.010300
vn 0.030391 -0.999486 0.010208
vn 0.031149 -0.999307 0.020382
vn 0.031094 -0.999307 -0.020464
vn -0.010345 0.999476 0.030687
vn 0.010426 0.999475 0.030661
vn 0.020421 0.999302 0.031287
vn -0.020329 0.999302 0.031337
vn -0.030694 0.999475 -0.010345
vn -0.030661 0.999475 0.010430
vn -0.031282 0.999302 0.020418
vn -0.031347 0.999302 -0.020336
vn 0.030691 0.999475 0.010343
vn 0.030666 0.999475 -0.010428
vn 0.031295 0.999301 -0.020429
vn 0.031343 0.999302 0.020335
vn 0.010344 0.999475 -0.030697
vn -0.010428 0.999475 -0.030666
vn -0.020425 0.999302 -0.031291
vn 0.020344 0.999301 -0.031352
vn -0.030557 0.999480 -0.010270
vn -0.030528 0.999480 0.010357
vn -0.031258 0.999300 0.020572
vn -0.031315 0.999300 -0.020487
vn -0.999999 0.000000 0.001342
vn -0.999999 0.000000 0.001342
vn -0.999999 0.000000 0.001342
vn -0.999999 0.000000 0.001342
vn -0.030797 -0.999471 0.010476
vn -0.030831 -0.999471 -0.010392
vn -0.031488 -0.999295 -0.020429
vn -0.031420 -0.999296 0.020507
vn 0.010269 0.999480 -0.030552
vn -0.010354 0.999480 -0.030523
vn -0.020569 0.999300 -0.031255
vn 0.020488 0.999300 -0.031315
vn -0.001322 0.000000 -0.999999
vn -0.001322 0.000000 -0.999999
vn -0.001322 0.000000 -0.999999
vn -0.001322 0.000000 -0.999999
vn -0.010474 -0.999471 -0.030804
vn 0.010389 -0.999471 -0.030833
vn 0.020432 -0.999295 -0.031490
vn -0.020516 -0.999295 -0.031432
vn 0.030554 0.999480 0.010263
vn 0.030526 0.999480 -0.010355
vn 0.031259 0.999300 -0.020573
vn 0.031316 0.999299 0.020492
vn 0.999999 0.000000 -0.001435
vn 0.999999 0.000000 -0.001435
vn 0.999999 0.000000 -0.001435
vn 0.999999 0.000000 -0.001435
vn 0.030799 -0.999471 -0.010473
vn 0.030825 -0.999471 0.010388
vn 0.031481 -0.999296 0.020423
vn 0.031431 -0.999295 -0.020518
vn -0.010269 0.999481 0.030546
vn 0.010351 0.999481 0.030519
vn 0.020569 0.999300 0.031256
vn -0.020482 0.999300 0.031309
vn 0.001301 0.000000 0.999999
vn 0.001301 0.000000 0.999999
vn 0.001301 0.000000 0.999999
vn 0.001301 0.000000 0.999999
vn 0.010471 -0.999471 0.030794
vn -0.010391 -0.999471 0.030820
vn -0.020419 -0.999296 0.031474
vn 0.020510 -0.999296 0.031422
vn -0.708091 0.000000 -0.706121
vn -0.708091 0.000000 -0.706121
vn -0.708091 0.000000 -0.706121
vn -0.708091 0.000000 -0.706121
vn 0.706140 0.000000 -0.708072
vn 0.706140 0.000000 -0.708072
vn 0.706140 0.000000 -0.708072
vn 0.706140 0.000000 -0.708072
vn 0.708100 0.000000 0.706113
vn 0.708100 0.000000 0.706113
vn 0.708100 0.000000 0.706113
vn 0.708100 0.000000 0.706113
vn -0.706126 0.000000 0.708086
vn -0.706126 0.000000 0.708086
vn -0.706126 0.000000 0.708086
vn -0.706126 0.000000 0.708086
vn -0.708091 0.000000 -0.706121
vn -0.708091 0.000000 -0.706121
vn -0.708091 0.000000 -0.706121
vn -0.708091 0.000000 -0.706121
vn -0.706126 0.000000 0.708086
vn -0.706126 0.000000 0.708086
vn -0.706126 0.000000 0.708086
vn -0.706126 0.000000 0.708086
vn 0.708100 0.000000 0.706113
vn 0.708100 0.000000 0.706113
vn 0.708100 0.000000 0.706113
vn 0.708100 0.000000 0.706113
vn 0.706140 0.000000 -0.708072
vn 0.706140 0.000000 -0.708072
vn 0.706140 0.000000 -0.708072
vn 0.706140 0.000000 -0.708072
vn -0.708091 0.000000 -0.706121
vn -0.708091 0.000000 -0.706121
vn -0.708091 0.000000 -0.706121
vn -0.708091 0.000000 -0.706121
vn 0.706140 0.000000 -0.708072
vn 0.706140 0.000000 -0.708072
vn 0.706140 0.000000 -0.708072
vn 0.706140 0.000000 -0.708072
vn 0.708100 0.000000 0.706113
vn 0.708100 0.000000 0.706113
vn 0.708100 0.000000 0.706113
vn 0.708100 0.000000 0.706113
vn -0.706126 0.000000 0.708086
vn -0.706126 0.000000 0.708086
vn -0.706126 0.000000 0.708086
vn -0.706126 0.000000 0.708086
vn -0.291727 -0.783048 -0.549301
vn 0.290215 -0.783034 -0.550121
vn 0.549309 -0.783040 -0.291733
vn 0.550104 -0.783055 0.290191
vn 0.291718 -0.783047 0.549307
vn -0.290216 -0.783048 0.550100
vn -0.549301 -0.783059 0.291696
vn -0.550104 -0.783050 -0.290203
vn 0.001301 0.000000 0.999999
vn 0.001301 0.000000 0.999999
vn 0.001301 0.000000 0.999999
vn 0.001301 0.000000 0.999999
vn -0.999999 0.000000 0.001342
vn -0.999999 0.000000 0.001342
vn -0.999999 0.000000 0.001342
vn -0.999999 0.000000 0.001342
vn 0.999999 0.000000 -0.001435
vn 0.999999 0.000000 -0.001435
vn 0.999999 0.000000 -0.001435
vn 0.999999 0.000000 -0.001435
vn -0.001322 0.000000 -0.999999
vn -0.001322 0.000000 -0.999999
vn -0.001322 0.000000 -0.999999
vn -0.001322 0.000000 -0.999999
vn -0.706126 0.000000 0.708086
vn -0.706126 0.000000 0.708086
vn -0.706126 0.000000 0.708086
vn -0.706126 0.000000 0.708086
vn 0.706140 0.000000 -0.708072
vn 0.706140 0.000000 -0.708072
vn 0.706140 0.000000 -0.708072
vn 0.706140 0.000000 -0.708072
vn 0.708100 0.000000 0.706112
vn 0.708100 0.000000 0.706112
vn 0.708100 0.000000 0.706112
vn 0.708100 0.000000 0.706112
vn -0.708091 0.000000 -0.706121
vn -0.708091 0.000000 -0.706121
vn -0.708091 0.000000 -0.706121
vn -0.708091 0.000000 -0.706121
vn -0.001145 -0.475137 -0.879911
vn -0.001145 -0.475137 -0.879911
vn 0.634686 -0.438319 -0.636436
vn 0.634686 -0.438319 -0.636436
vn 0.634686 -0.438319 -0.636436
vn 0.634686 -0.438319 -0.636436
vn 0.879915 -0.475130 -0.001219
vn 0.879915 -0.475130 -0.001219
vn 0.636444 -0.438293 0.634696
vn 0.636444 -0.438293 0.634695
vn 0.636444 -0.438293 0.634696
vn 0.636444 -0.438293 0.634696
vn 0.001169 -0.475136 0.879912
vn 0.001169 -0.475136 0.879912
vn -0.634677 -0.438340 0.636431
vn -0.634677 -0.438340 0.636431
vn -0.634677 -0.438340 0.636431
vn -0.634677 -0.438340 0.636431
vn -0.879897 -0.475163 0.001201
vn -0.879897 -0.475163 0.001201
vn -0.636445 -0.438315 -0.634679
vn -0.636445 -0.438315 -0.634679
vn -0.636445 -0.438315 -0.634679
vn -0.636445 -0.438315 -0.634679
vn -0.016345 0.999326 0.032877
vn 0.016424 0.999325 0.032851
vn 0.019637 0.999292 0.032104
vn -0.019534 0.999292 0.032143
vn 0.016202 -0.999355 0.032033
vn -0.016115 -0.999355 0.032079
vn -0.018943 -0.999328 0.031386
vn 0.019029 -0.999328 0.031332
vn -0.032034 -0.999355 0.016203
vn -0.031333 -0.999328 0.019030
vn -0.032842 0.999326 0.016419
vn -0.032094 0.999292 0.019631
vn 0.032884 0.999326 0.016348
vn 0.032150 0.999292 0.019542
vn 0.032080 -0.999356 0.016112
vn 0.031386 -0.999328 0.018942
vn -0.032082 -0.999355 -0.016115
vn -0.031388 -0.999328 -0.018945
vn -0.032878 0.999326 -0.016347
vn -0.032145 0.999292 -0.019539
vn -0.016203 -0.999355 -0.032037
vn -0.019031 -0.999328 -0.031335
vn -0.016421 0.999326 -0.032845
vn -0.019635 0.999292 -0.032098
vn 0.032846 0.999326 -0.016420
vn 0.032097 0.999292 -0.019633
vn 0.032038 -0.999355 -0.016205
vn 0.031337 -0.999328 -0.019034
vn 0.016346 0.999326 -0.032874
vn 0.019535 0.999292 -0.032141
vn 0.016115 -0.999355 -0.032083
vn 0.018947 -0.999328 -0.031389
vn 0.020974 0.998887 -0.042248
vn -0.021019 0.998888 -0.042213
vn -0.025452 0.998826 -0.041229
vn 0.025323 0.998826 -0.041295
vn 0.022659 -0.999032 -0.037719
vn -0.022758 -0.999032 -0.037643
vn 0.037644 -0.999032 -0.022760
vn 0.042213 0.998888 -0.021022
vn 0.041229 0.998825 -0.025456
vn -0.042245 0.998887 -0.020973
vn -0.041292 0.998826 -0.025320
vn -0.037717 -0.999032 -0.022655
vn 0.037716 -0.999032 0.022658
vn 0.042245 0.998887 0.020972
vn 0.041292 0.998826 0.025319
vn 0.022757 -0.999032 0.037646
vn 0.021019 0.998888 0.042211
vn 0.025453 0.998826 0.041227
vn -0.022659 -0.999031 0.037721
vn -0.020975 0.998887 0.042249
vn -0.025325 0.998826 0.041296
vn -0.037646 -0.999032 0.022760
vn -0.042216 0.998887 0.021022
vn -0.041234 0.998825 0.025455
s off
g LightBulb pCube4
usemtl initialShadingGroup
f 241/336/341 242/333/342 244/332/343 243/337/344
f 245/346/345 246/343/346 248/342/347 247/347/348
f 249/334/349 250/338/350 252/339/351 251/335/352
f 253/344/353 254/341/354 256/340/355 255/345/356
f 257/348/357 258/352/358 260/353/359 259/349/360
f 261/350/361 262/354/362 264/355/363 263/351/364
f 265/362/365 266/359/366 268/358/367 267/363/368
f 269/360/369 270/357/370 272/356/371 271/361/372
f 273/364/373 274/368/374 276/369/375 275/365/376
f 277/366/377 278/370/378 280/371/379 279/367/380
f 281/378/381 282/375/382 284/374/383 283/379/384
f 285/376/385 286/373/386 288/372/387 287/377/388
f 241/784/389 243/785/390 245/786/391 247/787/392
f 244/332/393 242/333/394 249/334/395 251/335/396
f 252/788/397 250/789/398 253/790/399 255/791/400
f 256/340/401 254/341/402 248/342/403 246/343/404
f 257/348/405 259/349/406 261/350/407 263/351/408
f 260/792/409 258/793/410 265/794/411 267/795/412
f 264/796/413 262/797/414 269/798/415 271/799/416
f 272/356/417 270/357/418 268/358/419 266/359/420
f 273/364/421 275/365/422 277/366/423 279/367/424
f 276/800/425 274/801/426 281/802/427 283/803/428
f 280/804/429 278/805/430 285/806/431 287/807/432
f 288/372/433 286/373/434 284/374/435 282/375/436
f 305/384/437 306/385/438 307/381/439 308/380/440
f 306/808/441 305/809/442 309/810/443 310/811/444
f 308/380/445 307/381/446 311/382/447 312/383/448
f 310/392/449 309/393/450 313/389/451 314/388/452
f 314/388/453 313/389/454 315/390/455 316/391/456
f 316/391/457 315/390/458 317/394/459 318/395/460
f 318/812/461 317/813/462 319/814/463 320/815/464
f 320/386/465 319/387/466 312/383/467 311/382/468
f 289/400/469 290/401/470 291/397/471 292/396/472
f 290/816/473 289/817/474 293/818/475 294/819/476
f 292/396/477 291/397/478 295/398/479 296/399/480
f 294/408/481 293/409/482 297/405/483 298/404/484
f 298/404/485 297/405/486 299/406/487 300/407/488
f 296/399/489 295/398/490 301/402/491 302/403/492
f 302/820/493 301/821/494 303/822/495 304/823/496
f 304/410/497 303/411/498 300/407/499 299/406/500
f 321/824/501 322/825/502 324/826/503 323/827/504
f 322/416/505 321/417/506 325/413/507 326/412/508
f 323/434/509 324/435/510 336/431/511 335/430/512
f 326/412/513 325/413/514 327/414/515 328/415/516
f 328/415/517 327/414/518 329/418/519 330/419/520
f 330/832/521 329/833/522 331/834/523 332/835/524
f 332/432/525 331/433/526 333/429/527 334/428/528
f 334/428/529 333/429/530 335/430/531 336/431/532
f 337/828/533 338/830/534 351/831/535 352/829/536
f 338/426/537 337/422/538 340/421/539 339/424/540
f 339/424/541 340/421/542 341/420/543 342/425/544
f 342/425/545 341/420/546 344/423/547 343/427/548
f 343/838/549 344/836/550 345/837/551 346/839/552
f 346/442/553 345/438/554 348/437/555 347/440/556
f 347/440/557 348/437/558 349/436/559 350/441/560
f 350/441/561 349/436/562 352/439/563 351/443/564
f 353/444/565 354/445/566 363/446/567 364/447/568
f 354/445/569 353/444/570 356/448/571 355/449/572
f 355/840/573 356/841/574 369/842/575 370/843/576
f 357/844/577 358/846/578 375/847/579 376/845/580
f 358/458/581 357/454/582 360/453/583 359/456/584
f 359/456/585 360/453/586 365/452/587 366/457/588
f 361/848/589 362/849/590 379/850/591 380/851/592
f 362/450/593 361/451/594 364/447/595 363/446/596
f 366/457/597 365/452/598 368/455/599 367/459/600
f 367/854/601 368/853/602 381/852/603 382/855/604
f 370/464/605 369/465/606 372/461/607 371/460/608
f 371/460/609 372/461/610 377/462/611 378/463/612
f 373/466/613 374/471/614 383/472/615 384/467/616
f 374/471/617 373/466/618 376/470/619 375/474/620
f 378/463/621 377/462/622 380/468/623 379/469/624
f 382/475/625 381/473/626 384/467/627 383/472/628
f 385/480/629 386/481/630 388/477/631 387/476/632
f 386/856/633 385/857/634 391/858/635 392/859/636
f 387/476/637 388/477/638 394/478/639 393/479/640
f 389/493/641 390/492/642 392/496/643 391/497/644
f 390/492/645 389/493/646 399/494/647 400/495/648
f 393/479/649 394/478/650 396/484/651 395/485/652
f 395/864/653 396/865/654 398/866/655 397/867/656
f 397/498/657 398/499/658 400/495/659 399/494/660
f 401/508/661 402/509/662 411/510/663 412/511/664
f 402/509/665 401/508/666 404/512/667 403/513/668
f 403/872/669 404/873/670 425/874/671 426/875/672
f 405/876/673 406/878/674 431/879/675 432/877/676
f 406/522/677 405/518/678 408/517/679 407/520/680
f 407/520/681 408/517/682 413/516/683 414/521/684
f 409/880/685 410/881/686 419/882/687 420/883/688
f 410/514/689 409/515/690 412/511/691 411/510/692
f 414/521/693 413/516/694 416/519/695 415/523/696
f 415/886/697 416/885/698 421/884/699 422/887/700
f 417/524/701 418/525/702 427/526/703 428/527/704
f 418/525/705 417/524/706 420/528/707 419/529/708
f 422/538/709 421/534/710 424/533/711 423/536/712
f 423/536/713 424/533/714 429/532/715 430/537/716
f 426/530/717 425/531/718 428/527/719 427/526/720
f 430/537/721 429/532/722 432/535/723 431/539/724
s 1
f 433/613/725 434/620/726 438/621/727 437/614/728
f 434/550/726 433/554/725 435/551/729 436/546/730
f 436/546/730 435/551/729 447/552/731 448/547/732
f 437/602/728 438/598/727 440/597/733 439/600/734
f 439/600/734 440/597/733 442/596/735 441/601/736
f 441/601/736 442/596/735 444/599/737 443/603/738
f 443/617/738 444/622/737 446/623/739 445/618/740
f 445/555/740 446/553/739 448/547/732 447/552/731
s off
f 449/888/741 450/889/742 460/890/743 459/891/744
f 450/544/745 449/545/746 451/541/747 452/540/748
f 452/540/749 451/541/750 461/542/751 462/543/752
s 2
f 453/560/753 454/561/754 456/557/755 455/556/756
f 454/894/754 453/895/753 457/896/757 458/897/758
f 455/556/756 456/557/755 464/558/759 463/559/760
f 458/576/758 457/577/757 465/573/761 466/572/762
s off
f 459/592/763 460/593/764 468/589/765 467/588/766
f 462/543/767 461/542/768 479/548/769 480/549/770
s 2
f 463/559/760 464/558/759 478/562/771 477/563/772
f 466/572/762 465/573/761 469/574/773 470/575/774
s off
f 467/588/775 468/589/776 472/590/777 471/591/778
s 2
f 470/575/774 469/574/773 473/580/779 474/581/780
s off
f 471/591/781 472/590/782 476/594/783 475/595/784
s 2
f 474/902/780 473/903/779 477/904/772 478/905/771
s off
f 475/910/785 476/911/786 480/912/787 479/913/788
f 481/906/789 482/908/790 492/909/791 491/907/792
f 482/587/793 481/585/794 483/579/795 484/583/796
f 484/583/797 483/579/798 493/578/799 494/584/800
f 485/486/801 486/490/802 488/487/803 487/482/804
f 486/862/805 485/861/806 489/860/807 490/863/808
f 487/482/809 488/487/810 496/488/811 495/483/812
f 490/506/813 489/502/814 497/501/815 498/504/816
f 491/567/817 492/571/818 500/568/819 499/564/820
f 494/584/821 493/578/822 505/582/823 506/586/824
f 495/483/825 496/488/826 508/491/827 507/489/828
f 498/504/829 497/501/830 501/500/831 502/505/832
f 499/564/833 500/568/834 504/569/835 503/565/836
f 502/505/837 501/500/838 511/503/839 512/507/840
f 503/565/841 504/569/842 510/570/843 509/566/844
f 506/900/845 505/899/846 509/898/847 510/901/848
f 507/868/849 508/870/850 512/871/851 511/869/852
f 325/604/853 321/605/854 323/606/855 335/607/856 333/608/857 331/609/858 329/610/859 327/611/860
s 1
f 435/612/729 433/613/725 437/614/728 439/615/734 441/616/736 443/617/738 445/618/740 447/619/731
s off
f 322/416/861 326/412/862 340/421/863 337/422/864
s 3
f 338/624/865 339/625/866 251/626/867 252/627/868
s off
f 328/415/869 330/419/870 344/423/871 341/420/872
s 3
f 342/628/873 343/632/874 243/633/875 244/629/876
s off
f 332/432/877 334/428/878 348/437/879 345/438/880
s 3
f 346/636/881 347/638/882 246/639/883 245/637/884
s off
f 336/431/885 324/435/886 352/439/887 349/436/888
s 3
f 350/634/889 351/630/890 255/631/891 256/635/892
s 6
f 354/640/893 355/641/894 250/642/895 249/643/896
s off
f 356/448/897 353/444/898 360/453/899 357/454/900
s 7
f 358/656/901 359/657/902 259/658/903 260/659/904
s 6
f 362/650/905 363/646/906 242/647/907 241/651/908
s off
f 364/447/909 361/451/910 368/455/911 365/452/912
s 7
f 366/660/913 367/664/914 262/665/915 261/661/916
s 6
f 370/644/917 371/648/918 254/649/919 253/645/920
s off
f 372/461/921 369/465/922 376/470/923 373/466/924
s 7
f 374/666/925 375/662/926 267/663/927 268/667/928
s 6
f 378/652/929 379/654/930 247/655/931 248/653/932
s off
f 380/468/933 377/462/934 384/467/935 381/473/936
s 7
f 382/668/937 383/670/938 270/671/939 269/669/940
s 10
f 385/672/941 387/673/942 282/674/943 281/675/944
f 389/682/945 391/678/946 274/679/947 273/683/948
f 393/676/949 395/680/950 287/681/951 288/677/952
f 397/684/953 399/686/954 279/687/955 280/685/956
s 12
f 402/688/957 403/689/958 258/690/959 257/691/960
s off
f 404/512/961 401/508/962 408/517/963 405/518/964
s 13
f 406/704/965 407/705/966 275/706/967 276/707/968
s 12
f 410/698/969 411/694/970 263/695/971 264/699/972
s off
f 412/511/973 409/515/974 416/519/975 413/516/976
s 13
f 414/708/977 415/712/978 278/713/979 277/709/980
s 12
f 418/700/981 419/702/982 271/703/983 272/701/984
s off
f 420/528/985 417/524/986 424/533/987 421/534/988
s 13
f 422/716/989 423/718/990 286/719/991 285/717/992
s 12
f 426/692/993 427/696/994 266/697/995 265/693/996
s off
f 428/527/997 425/531/998 432/535/999 429/532/1000
s 13
f 430/714/1001 431/710/1002 283/711/1003 284/715/1004
s off
f 341/420/1005 340/421/1006 326/412/1007 328/415/1008
f 344/836/1009 330/832/1010 332/835/1011 345/837/1012
f 349/436/1013 348/437/1014 334/428/1015 336/431/1016
f 337/828/1017 352/829/1018 324/826/1019 322/825/1020
f 365/452/1021 360/453/1022 353/444/1023 364/447/1024
f 357/844/1025 376/845/1026 369/842/1027 356/841/1028
f 373/466/1029 384/467/1030 377/462/1031 372/461/1032
f 361/848/1033 380/851/1034 381/852/1035 368/853/1036
f 413/516/1037 408/517/1038 401/508/1039 412/511/1040
f 409/880/1041 420/883/1042 421/884/1043 416/885/1044
f 429/532/1045 424/533/1046 417/524/1047 428/527/1048
f 405/876/1049 432/877/1050 425/874/1051 404/873/1052
s 3
f 343/632/874 346/636/881 245/637/884 243/633/875
s 6
f 379/654/930 362/650/905 241/651/908 247/655/931
f 363/646/906 354/640/893 249/643/896 242/647/907
s 3
f 339/625/866 342/628/873 244/629/876 251/626/867
s 6
f 355/641/894 370/644/917 253/645/920 250/642/895
s 3
f 351/630/890 338/624/865 252/627/868 255/631/891
s 6
f 371/648/918 378/652/929 248/653/932 254/649/919
s 3
f 347/638/882 350/634/889 256/635/892 246/639/883
s 7
f 359/657/902 366/660/913 261/661/916 259/658/903
s 12
f 411/694/970 402/688/957 257/691/960 263/695/971
f 403/689/958 426/692/993 265/693/996 258/690/959
s 7
f 375/662/926 358/656/901 260/659/904 267/663/927
f 367/664/914 382/668/937 269/669/940 262/665/915
s 12
f 419/702/982 410/698/969 264/699/972 271/703/983
s 7
f 383/670/938 374/666/925 268/667/928 270/671/939
s 12
f 427/696/994 418/700/981 272/701/984 266/697/995
s 13
f 407/705/966 414/708/977 277/709/980 275/706/967
s 10
f 399/686/954 389/682/945 273/683/948 279/687/955
f 391/678/946 385/672/941 281/675/944 274/679/947
s 13
f 431/710/1002 406/704/965 276/707/968 283/711/1003
f 415/712/978 422/716/989 285/717/992 278/713/979
s 10
f 395/680/950 397/684/953 280/685/956 287/681/951
s 13
f 423/718/990 430/714/1001 284/715/1004 286/719/991
s 10
f 387/673/942 393/676/949 288/677/952 282/674/943
s 1
f 451/541/1053 449/545/1054 434/550/726 436/546/730
f 449/888/1054 459/891/1055 438/892/727 434/893/726
f 459/592/1055 467/588/1056 440/597/733 438/598/727
f 467/588/1056 471/591/1057 442/596/735 440/597/733
f 471/591/1057 475/595/1058 444/599/737 442/596/735
f 475/910/1058 479/913/1059 446/914/739 444/915/737
f 479/548/1059 461/542/1060 448/547/732 446/553/739
f 461/542/1060 451/541/1053 436/546/730 448/547/732
s off
f 485/486/1061 487/482/1062 388/477/1063 386/481/1064
f 497/501/1065 489/502/1066 392/496/1067 390/492/1068
f 495/483/1069 507/489/1070 396/484/1071 394/478/1072
f 511/503/1073 501/500/1074 400/495/1075 398/499/1076
f 392/859/1077 489/860/1078 485/861/1079 386/856/1080
f 398/866/1081 396/865/1082 507/868/1083 511/869/1084
f 388/477/1085 487/482/1086 495/483/1087 394/478/1088
f 400/495/1089 501/500/1090 497/501/1091 390/492/1092
s 2
f 503/565/1093 509/566/1094 453/560/753 455/556/756
s off
f 509/898/1095 505/899/1096 457/896/1097 453/895/1098
s 2
f 505/582/1099 493/578/1100 465/573/761 457/577/757
s off
f 493/578/1101 483/579/1102 469/574/1103 465/573/1104
s 2
f 483/579/1105 481/585/1106 473/580/779 469/574/773
s off
f 481/906/1107 491/907/1108 477/904/1109 473/903/1110
s 2
f 491/567/1111 499/564/1112 463/559/760 477/563/772
s off
f 499/564/1113 503/565/1114 455/556/1115 463/559/1116
s 16
f 482/720/1117 484/721/1118 291/722/1119 290/723/1120
s 17
f 488/736/1121 486/737/1122 289/738/1123 292/739/1124
f 486/737/1122 490/740/1125 293/741/1126 289/738/1123
s 16
f 492/726/1127 482/720/1117 290/723/1120 294/727/1128
f 484/721/1118 494/724/1129 295/725/1130 291/722/1119
s 17
f 496/742/1131 488/736/1121 292/739/1124 296/743/1132
f 490/740/1125 498/744/1133 297/745/1134 293/741/1126
s 16
f 500/730/1135 492/726/1127 294/727/1128 298/731/1136
s 17
f 498/744/1133 502/748/1137 299/749/1138 297/745/1134
s 16
f 504/734/1139 500/730/1135 298/731/1136 300/735/1140
f 494/724/1129 506/728/1141 301/729/1142 295/725/1130
s 17
f 508/746/1143 496/742/1131 296/743/1132 302/747/1144
s 16
f 506/728/1141 510/732/1145 303/733/1146 301/729/1142
s 17
f 512/750/1147 508/746/1143 302/747/1144 304/751/1148
s 16
f 510/732/1145 504/734/1139 300/735/1140 303/733/1146
s 17
f 502/748/1137 512/750/1147 304/751/1148 299/749/1138
s 18
f 450/752/1149 452/753/1150 307/754/1151 306/755/1152
s 2
f 456/768/755 454/769/754 305/770/1153 308/771/1154
f 454/769/754 458/772/758 309/773/1155 305/770/1153
s 18
f 460/758/1156 450/752/1149 306/755/1152 310/759/1157
f 452/753/1150 462/756/1158 311/757/1159 307/754/1151
s 2
f 464/774/759 456/768/755 308/771/1154 312/775/1160
f 458/772/758 466/776/762 313/777/1161 309/773/1155
s 18
f 468/762/1162 460/758/1156 310/759/1157 314/763/1163
s 2
f 466/776/762 470/780/774 315/781/1164 313/777/1161
s 18
f 472/766/1165 468/762/1162 314/763/1163 316/767/1166
s 2
f 470/780/774 474/782/780 317/783/1167 315/781/1164
s 18
f 476/764/1168 472/766/1165 316/767/1166 318/765/1169
s 2
f 474/782/780 478/778/771 319/779/1170 317/783/1167
s 18
f 480/760/1171 476/764/1168 318/765/1169 320/761/1172
s 2
f 478/778/771 464/774/759 312/775/1160 319/779/1170
s 18
f 462/756/1158 480/760/1171 320/761/1172 311/757/1159
