# This file uses centimeters as units for non-parametric coordinates.

mtllib LightSwitch.mtl
g default
v 13.746067 -0.376005 2.054878
v 13.737978 -0.388209 2.059677
v 13.749426 -0.370948 2.043284
v 13.503286 -0.289245 2.030505
v 13.508063 -0.282029 2.027675
v 13.510047 -0.279049 2.020828
v 13.746067 -0.376005 1.921885
v 13.749426 -0.370948 1.933481
v 13.737978 -0.388209 1.917093
v 13.503286 -0.289245 1.946262
v 13.510047 -0.279049 1.955940
v 13.508063 -0.282029 1.949092
v 13.707039 -0.434945 2.054878
v 13.703681 -0.439999 2.043284
v 13.715103 -0.422734 2.059677
v 13.485005 -0.316847 2.027675
v 13.489785 -0.309645 2.030505
v 13.483019 -0.319837 2.020828
v 13.707039 -0.434945 1.921885
v 13.715103 -0.422734 1.917093
v 13.703681 -0.439999 1.933481
v 13.485005 -0.316847 1.949092
v 13.483019 -0.319837 1.955940
v 13.489785 -0.309645 1.946262
v 13.485005 -0.316847 2.027675
v 13.485005 -0.316847 2.020828
v 13.483019 -0.319837 2.020828
v 13.510047 -0.279049 2.020828
v 13.508063 -0.282029 2.020828
v 13.508063 -0.282029 2.027675
v 13.503286 -0.289245 2.020828
v 13.503286 -0.289245 2.030505
v 13.508063 -0.282029 1.949092
v 13.508063 -0.282029 1.955940
v 13.510047 -0.279049 1.955940
v 13.503286 -0.289245 1.955940
v 13.503286 -0.289245 1.946262
v 13.483019 -0.319837 1.955940
v 13.485005 -0.316847 1.949092
v 13.485005 -0.316847 1.955940
v 13.489785 -0.309645 2.020828
v 13.489785 -0.309645 2.030505
v 13.489785 -0.309645 1.955940
v 13.489785 -0.309645 1.946262
vt 0.375442 0.299115
vt 0.441327 0.462237
vt 0.438038 0.499854
vt 0.369874 0.362787
vt 0.377410 0.276608
vt 0.442490 0.448940
vt 0.367906 0.385293
vt 0.436875 0.513150
vt 0.367091 0.394616
vt 0.436393 0.518658
vt 0.401903 0.293236
vt 0.467788 0.456357
vt 0.473356 0.392686
vt 0.405192 0.255619
vt 0.465820 0.478864
vt 0.400740 0.306533
vt 0.475324 0.370179
vt 0.406355 0.242322
vt 0.405192 0.255619
vt 0.401903 0.293235
vt 0.400740 0.306533
vt 0.476139 0.360857
vt 0.406837 0.236814
vt 0.431333 0.647317
vt 0.284777 0.659417
vt 0.287790 0.574863
vt 0.433112 0.597363
vt 0.149269 0.560992
vt 0.175880 0.558241
vt 0.250791 0.560911
vt 0.277139 0.565548
vt 0.273491 0.667949
vt 0.246880 0.670703
vt 0.171969 0.668034
vt 0.145621 0.663394
vt 0.134970 0.654080
vt 0.137982 0.569526
vt 0.400312 0.553687
vt 0.193687 0.529005
vt 0.195467 0.479050
vt 0.403324 0.469133
vt 0.389026 0.562219
vt 0.187019 0.534046
vt 0.392674 0.459818
vt 0.189175 0.473548
vt 0.187019 0.534046
vt 0.193687 0.529005
vt 0.187207 0.528774
vt 0.171297 0.535672
vt 0.171563 0.528217
vt 0.188987 0.478820
vt 0.195467 0.479050
vt 0.127306 0.526640
vt 0.127040 0.534096
vt 0.173342 0.478263
vt 0.189175 0.473548
vt 0.129086 0.476686
vt 0.111662 0.526083
vt 0.111474 0.531354
vt 0.173608 0.470805
vt 0.129351 0.469229
vt 0.113441 0.476129
vt 0.105182 0.525852
vt 0.113629 0.470856
vt 0.106961 0.475898
vt 0.350107 0.238909
vt 0.334322 0.251751
vt 0.334322 0.251751
vt 0.350107 0.238909
vt 0.334322 0.373435
vt 0.334322 0.373435
vn 0.356349 0.934048 0.023870
vn 0.351436 0.933335 0.073340
vn 0.351436 0.933335 -0.073343
vn 0.356348 0.934048 -0.023873
vn -0.480342 -0.876587 0.029459
vn -0.482414 -0.873380 0.066962
vn -0.482421 -0.873376 -0.066959
vn -0.480345 -0.876585 -0.029461
vn -0.193463 -0.134842 -0.971797
vn -0.105112 0.046796 -0.993359
vn -0.010964 0.258709 -0.965893
vn -0.088920 0.081737 -0.992679
vn -0.105129 0.046776 0.993358
vn -0.193530 -0.134906 0.971775
vn -0.088925 0.081735 0.992679
vn -0.010907 0.258821 0.965864
vn 0.030299 0.348016 0.936999
vn 0.030299 0.348016 0.936999
vn 0.282744 0.846612 0.450893
vn 0.282744 0.846612 0.450893
vn 0.282749 0.846617 -0.450879
vn 0.282749 0.846617 -0.450879
vn 0.030212 0.347856 -0.937061
vn 0.030212 0.347856 -0.937061
vn -0.459692 -0.757494 0.463559
vn -0.459692 -0.757494 0.463559
vn -0.232401 -0.218544 0.947749
vn -0.232401 -0.218544 0.947749
vn -0.232315 -0.218461 -0.947789
vn -0.232315 -0.218461 -0.947789
vn -0.459744 -0.757471 -0.463545
vn -0.459744 -0.757471 -0.463545
vn 0.833659 -0.552279 0.000006
vn 0.833659 -0.552279 0.000006
vn 0.833659 -0.552279 0.000006
vn 0.833659 -0.552279 0.000006
vn 0.833659 -0.552279 0.000006
vn 0.833659 -0.552279 0.000006
vn 0.833659 -0.552279 0.000006
vn 0.833659 -0.552279 0.000006
vn 0.833659 -0.552279 0.000006
vn 0.833659 -0.552279 0.000006
vn 0.833659 -0.552279 0.000006
vn 0.833659 -0.552279 0.000006
vn -0.833186 0.552993 -0.000000
vn -0.833152 0.553044 -0.000000
vn -0.833096 0.553128 -0.000000
vn -0.832392 0.554187 -0.000000
vn -0.833440 0.552610 -0.000000
vn -0.833773 0.552108 -0.000000
vn -0.833900 0.551915 -0.000000
vn -0.833922 0.551883 -0.000000
vn -0.833732 0.552170 -0.000000
vn -0.833435 0.552617 -0.000000
vn -0.832390 0.554190 -0.000000
vn -0.833888 0.551933 -0.000000
vn -0.833896 0.551921 -0.000000
vn -0.833187 0.552992 -0.000000
vn -0.833091 0.553136 -0.000000
vn -0.833151 0.553046 -0.000000
vn -0.833729 0.552175 -0.000000
vn -0.833773 0.552107 -0.000000
vn -0.833726 0.552178 -0.000000
vn -0.833752 0.552138 -0.000000
vn 0.000000 0.000000 0.000000
vn 0.000000 0.000000 0.000000
vn 0.000000 0.000000 0.000000
vn 0.000000 0.000000 0.000000
vn 0.000000 0.000000 0.000000
vn 0.000000 0.000000 0.000000
vn 0.000000 0.000000 0.000000
vn 0.000000 0.000000 0.000000
vn 0.000000 0.000000 0.000000
vn 0.000000 0.000000 0.000000
vn 0.000000 0.000000 0.000000
vn 0.000000 0.000000 0.000000
vn 0.000000 0.000000 0.000000
vn 0.000000 0.000000 0.000000
vn 0.000000 0.000000 0.000000
vn 0.000000 0.000000 0.000000
vn 0.000000 0.000000 0.000000
vn 0.000000 0.000000 0.000000
vn 0.000000 0.000000 0.000000
vn 0.000000 0.000000 0.000000
vn 0.000000 0.000000 0.000000
vn 0.000000 0.000000 0.000000
vn 0.000000 0.000000 0.000000
vn 0.000000 0.000000 0.000000
vn 0.000000 0.000000 0.000000
vn 0.000000 0.000000 0.000000
vn 0.000000 0.000000 0.000000
vn 0.000000 0.000000 0.000000
vn 0.000000 0.000000 0.000000
vn 0.000000 0.000000 0.000000
vn 0.000000 0.000000 0.000000
vn 0.000000 0.000000 0.000000
vn 0.000000 0.000000 0.000000
vn 0.000000 0.000000 0.000000
vn 0.000000 0.000000 0.000000
vn 0.000000 0.000000 0.000000
vn 0.000000 0.000000 0.000000
vn 0.000000 0.000000 0.000000
vn 0.000000 0.000000 0.000000
vn 0.000000 0.000000 0.000000
vn 0.000000 0.000000 0.000000
vn 0.000000 0.000000 0.000000
vn 0.000000 0.000000 0.000000
vn 0.000000 0.000000 0.000000
vn 0.000000 0.000000 0.000000
vn 0.000000 0.000000 0.000000
vn 0.000000 0.000000 0.000000
vn 0.000000 0.000000 0.000000
s 1
g Hallway_Masters:LightSwitch Hallway_Masters:LightBase
usemtl initialShadingGroup
f 6/24/1 3/25/2 8/26/3 11/27/4
s 2
f 14/38/5 18/39/6 23/40/7 21/41/8
s 3
f 20/1/9 24/2/10 10/3/11 9/4/12
s 4
f 17/11/13 15/12/14 2/13/15 4/14/16
f 2/13/15 1/17/17 5/18/18 4/14/16
s 1
f 1/17/19 3/22/2 6/23/1 5/18/20
f 8/9/3 7/7/21 12/8/22 11/10/4
s 3
f 7/7/23 9/4/12 10/3/11 12/8/24
s 2
f 14/38/5 13/42/25 16/43/26 18/39/6
s 4
f 13/15/27 15/12/14 17/11/13 16/16/28
s 3
f 20/1/9 19/5/29 22/6/30 24/2/10
s 2
f 19/44/31 21/41/8 23/40/7 22/45/32
s off
f 19/28/33 20/29/34 9/30/35 7/31/36 8/26/37 3/25/38 1/32/39 2/33/40 15/34/41 13/35/42 14/36/43 21/37/44
s 5
f 25/46/45 26/48/46 27/47/47
f 28/63/48 29/58/49 30/59/50
f 29/58/49 31/53/51 32/54/52 30/59/50
f 33/64/53 34/62/54 35/65/55
f 37/61/56 36/57/57 34/62/54 33/64/53
f 39/56/58 38/52/59 40/51/60
f 35/65/55 34/62/54 29/58/49 28/63/48
f 34/62/54 36/57/57 31/53/51 29/58/49
f 26/48/46 40/51/60 38/52/59 27/47/47
f 31/53/51 41/50/61 42/49/62 32/54/52
f 36/57/57 43/55/63 41/50/61 31/53/51
f 44/60/64 43/55/63 36/57/57 37/61/56
f 39/56/58 40/51/60 43/55/63 44/60/64
f 41/50/61 43/55/63 40/51/60 26/48/46
f 42/49/62 41/50/61 26/48/46 25/46/45
s off
f 18/39/65 16/43/66 25/46/67 27/47/68
f 5//69 6//70 28//71 30//72
f 4//73 5//74 30//75 32//76
f 11//77 12//78 33//79 35//80
f 12//81 10//82 37//83 33//84
f 22/66/85 23/67/86 38/68/87 39/69/88
f 6//89 11//90 35//91 28//92
f 23/67/93 18/70/94 27/71/95 38/68/96
f 17/11/97 4/14/98 32/19/99 42/20/100
f 10//101 24//102 44//103 37//104
f 24//105 22//106 39//107 44//108
f 16/16/109 17/11/110 42/20/111 25/21/112
g default
v 13.780036 -0.770578 2.233978
v 13.780036 -0.770578 1.742799
v 13.780036 0.035339 2.233976
v 13.780036 0.035339 1.742795
v 13.668943 0.035339 2.233976
v 13.668943 0.035339 1.742795
v 13.668943 -0.770578 2.233978
v 13.668943 -0.770578 1.742799
v 13.668943 0.019247 2.210715
v 13.668943 0.019247 1.766055
v 13.668943 -0.754485 1.766058
v 13.668943 -0.754485 2.210718
v 13.637470 -0.004384 2.187019
v 13.637470 -0.004384 1.793539
v 13.637470 -0.730855 1.793542
v 13.637470 -0.730855 2.187022
v 13.780036 -0.367619 2.233978
v 13.668943 -0.367619 2.233978
v 13.668943 -0.367619 2.210718
v 13.637470 -0.367619 2.187022
v 13.637470 -0.367619 1.793542
v 13.668943 -0.367619 1.766058
v 13.668943 -0.367619 1.742799
v 13.780036 -0.367619 1.742799
v 13.668943 -0.166140 2.233976
v 13.780036 -0.166140 2.233976
v 13.780036 -0.166140 1.742795
v 13.668943 -0.166140 1.742795
v 13.668943 -0.174186 1.766055
v 13.637470 -0.186002 1.793539
v 13.637470 -0.186002 2.187019
v 13.668943 -0.174186 2.210715
v 13.780036 -0.569099 2.233978
v 13.668943 -0.569099 2.233978
v 13.668943 -0.561052 2.210718
v 13.637470 -0.549237 2.187022
v 13.637470 -0.549237 1.793542
v 13.668943 -0.561052 1.766058
v 13.668943 -0.569099 1.742799
v 13.780036 -0.569099 1.742799
v 13.780036 -0.770578 1.988387
v 13.780036 -0.569099 1.988387
v 13.780036 -0.367619 1.988387
v 13.780036 -0.166140 1.988385
v 13.780036 0.035339 1.988385
v 13.668943 0.035339 1.988385
v 13.668943 0.019247 1.988385
v 13.637470 -0.004384 1.990279
v 13.637470 -0.186002 1.990279
v 13.637470 -0.549237 1.990282
v 13.637470 -0.730855 1.990282
v 13.668943 -0.754485 1.988387
v 13.668943 -0.770578 1.988387
v 13.780036 -0.770578 2.111183
v 13.780036 -0.569099 2.111183
v 13.780036 -0.367619 2.111183
v 13.780036 -0.166140 2.111180
v 13.780036 0.035339 2.111180
v 13.668943 0.035339 2.111180
v 13.668943 0.019247 2.099551
v 13.637470 -0.004384 2.088649
v 13.637470 -0.186002 2.088649
v 13.637470 -0.367619 2.088652
v 13.637470 -0.549237 2.088652
v 13.637470 -0.730855 2.088652
v 13.668943 -0.754485 2.099554
v 13.668943 -0.770578 2.111183
v 13.780036 -0.367619 1.865594
v 13.780036 -0.569099 1.865594
v 13.780036 -0.770578 1.865594
v 13.668943 -0.770578 1.865594
v 13.668943 -0.754485 1.877223
v 13.637470 -0.730855 1.891913
v 13.637470 -0.549237 1.891913
v 13.637470 -0.367619 1.891911
v 13.637470 -0.186002 1.891911
v 13.637470 -0.004384 1.891911
v 13.668943 0.019247 1.877220
v 13.668943 0.035339 1.865592
v 13.780036 0.035339 1.865592
v 13.780036 -0.166140 1.865592
v 13.637470 -0.205863 2.062330
v 13.637470 -0.367619 2.062330
v 13.637470 -0.205863 1.988385
v 13.637470 -0.529375 2.062330
v 13.637470 -0.529375 1.988385
v 13.637470 -0.367619 1.914442
v 13.637470 -0.529375 1.914442
v 13.637470 -0.205863 1.914442
v 13.675375 -0.205863 2.062330
v 13.675375 -0.367619 2.062330
v 13.675375 -0.205863 1.988385
v 13.675375 -0.367619 1.988385
v 13.675375 -0.529375 2.062330
v 13.675375 -0.529375 1.988385
v 13.675375 -0.367619 1.914442
v 13.675375 -0.529375 1.914442
v 13.675375 -0.205863 1.914442
vt 0.731131 0.440049
vt 0.728835 0.539317
vt 0.666390 0.537873
vt 0.668686 0.438605
vt 0.603944 0.536428
vt 0.606241 0.437160
vt 0.541499 0.534984
vt 0.543796 0.435716
vt 0.479055 0.533539
vt 0.481351 0.434271
vt 0.731131 0.440049
vt 0.728835 0.539317
vt 0.666389 0.537873
vt 0.668686 0.438605
vt 0.603944 0.536428
vt 0.606241 0.437160
vt 0.541499 0.534984
vt 0.543796 0.435716
vt 0.479054 0.533539
vt 0.481351 0.434271
vt 0.077031 0.256390
vt 0.038138 0.251326
vt 0.038138 0.168418
vt 0.077031 0.178546
vt 0.077031 0.334234
vt 0.038138 0.334234
vt 0.077031 0.412078
vt 0.038138 0.417142
vt 0.038138 0.500051
vt 0.077031 0.489922
vt 0.077031 0.168418
vt 0.077031 0.251326
vt 0.038138 0.256390
vt 0.038138 0.178546
vt 0.077031 0.334234
vt 0.038138 0.334234
vt 0.077031 0.417142
vt 0.038138 0.412078
vt 0.077031 0.500051
vt 0.038138 0.489922
vt 0.229141 0.091219
vt 0.229141 0.160550
vt 0.182300 0.160550
vt 0.182300 0.091219
vt 0.229141 0.021888
vt 0.182300 0.021888
vt 0.182300 0.091219
vt 0.182300 0.021888
vt 0.229141 0.021888
vt 0.229141 0.091219
vt 0.182300 0.160550
vt 0.229141 0.160550
vt 0.481350 0.434271
vt 0.543796 0.435716
vt 0.541499 0.534984
vt 0.479054 0.533539
vt 0.606241 0.437160
vt 0.603945 0.536428
vt 0.668685 0.438605
vt 0.666389 0.537873
vt 0.731131 0.440049
vt 0.728835 0.539317
vt 0.481350 0.434271
vt 0.543796 0.435716
vt 0.541500 0.534984
vt 0.479054 0.533539
vt 0.606241 0.437160
vt 0.603945 0.536428
vt 0.668685 0.438605
vt 0.666389 0.537873
vt 0.731131 0.440049
vt 0.728835 0.539317
vt 0.038138 0.490590
vt 0.038138 0.412413
vt 0.077031 0.404746
vt 0.077031 0.473926
vt 0.038138 0.334234
vt 0.077031 0.335566
vt 0.038138 0.256056
vt 0.077031 0.266387
vt 0.038138 0.177878
vt 0.077031 0.197206
vt 0.038138 0.404746
vt 0.077031 0.412413
vt 0.077031 0.490591
vt 0.038138 0.473926
vt 0.038138 0.335566
vt 0.077031 0.334234
vt 0.038138 0.266387
vt 0.077031 0.256056
vt 0.077031 0.177878
vt 0.038138 0.197206
vt 0.182300 0.143221
vt 0.182300 0.091218
vt 0.229141 0.091218
vt 0.229141 0.143221
vt 0.182300 0.039217
vt 0.229141 0.039217
vt 0.229141 0.091219
vt 0.229141 0.143221
vt 0.182300 0.143221
vt 0.182300 0.091219
vt 0.229141 0.039217
vt 0.182300 0.039217
vt 0.816211 0.702819
vt 0.816211 0.664253
vt 0.854777 0.664253
vt 0.854777 0.702819
vt 0.816211 0.625686
vt 0.854777 0.625686
vt 0.893344 0.664253
vt 0.893344 0.702819
vt 0.816211 0.587120
vt 0.854777 0.587120
vt 0.893344 0.625686
vt 0.931910 0.664253
vt 0.931910 0.702819
vt 0.816211 0.548553
vt 0.854777 0.548553
vt 0.893344 0.587120
vt 0.931910 0.625686
vt 0.970476 0.664253
vt 0.970476 0.702819
vt 0.893344 0.548553
vt 0.931910 0.587120
vt 0.970476 0.625686
vt 0.931910 0.548553
vt 0.970476 0.587120
vt 0.970476 0.548553
vt 0.090881 0.372823
vt 0.142045 0.372823
vt 0.142045 0.430394
vt 0.090881 0.430394
vt 0.090881 0.315251
vt 0.142045 0.315251
vt 0.193209 0.372823
vt 0.193209 0.430394
vt 0.090881 0.257680
vt 0.142045 0.257680
vt 0.155734 0.315251
vt 0.155734 0.366527
vt 0.194194 0.366527
vt 0.244372 0.372823
vt 0.244372 0.430394
vt 0.090881 0.200109
vt 0.142045 0.200109
vt 0.155734 0.263976
vt 0.232653 0.366527
vt 0.295536 0.372823
vt 0.295536 0.430394
vt 0.193209 0.200109
vt 0.193209 0.257680
vt 0.194194 0.263976
vt 0.244372 0.315251
vt 0.232653 0.315251
vt 0.295536 0.315251
vt 0.244372 0.200109
vt 0.244372 0.257680
vt 0.232653 0.263976
vt 0.295536 0.257680
vt 0.295536 0.200109
vt 0.031635 0.123978
vt 0.031635 0.103216
vt 0.033293 0.101250
vt 0.033293 0.120046
vt 0.031635 0.082454
vt 0.033293 0.082454
vt 0.053226 0.120046
vt 0.052397 0.123978
vt 0.031635 0.061692
vt 0.033293 0.063659
vt 0.073159 0.120046
vt 0.073159 0.123978
vt 0.031635 0.040930
vt 0.033293 0.044863
vt 0.093092 0.120046
vt 0.093921 0.123978
vt 0.052397 0.040930
vt 0.053226 0.044863
vt 0.114683 0.123978
vt 0.113025 0.120046
vt 0.073159 0.040930
vt 0.073159 0.044863
vt 0.113025 0.101250
vt 0.114683 0.103216
vt 0.093921 0.040930
vt 0.093092 0.044863
vt 0.113025 0.082454
vt 0.114683 0.082454
vt 0.114683 0.040930
vt 0.113025 0.044863
vt 0.113025 0.063659
vt 0.114683 0.061692
vt 0.153718 0.091219
vt 0.153718 0.021888
vt 0.205721 0.021888
vt 0.205721 0.091219
vt 0.257723 0.021888
vt 0.257723 0.091219
vt 0.153718 0.160550
vt 0.205721 0.160550
vt 0.257723 0.160550
vn 1.000000 0.000000 0.000000
vn 1.000000 0.000000 0.000000
vn 1.000000 0.000000 0.000000
vn 1.000000 0.000000 0.000000
vn 0.000000 1.000000 0.000000
vn 0.000000 1.000000 0.000000
vn 0.000000 1.000000 0.000000
vn 0.000000 1.000000 0.000000
vn -1.000000 0.000000 -0.000000
vn -1.000000 0.000000 0.000000
vn -1.000000 0.000000 -0.000000
vn -1.000000 0.000000 -0.000000
vn 0.000000 -1.000000 0.000000
vn 0.000000 -1.000000 0.000000
vn 0.000000 -1.000000 0.000000
vn 0.000000 -1.000000 0.000000
vn 0.000000 0.000000 -1.000000
vn 0.000000 0.000000 -1.000000
vn 0.000000 0.000000 -1.000000
vn 0.000000 0.000000 -1.000000
vn 0.000000 0.000000 1.000000
vn 0.000000 0.000000 1.000000
vn 0.000000 0.000000 1.000000
vn 0.000000 0.000000 1.000000
vn -1.000000 0.000000 0.000041
vn -1.000000 0.000000 -0.000000
vn -1.000000 0.000000 -0.000000
vn -1.000000 0.000000 0.000030
vn -1.000000 0.000000 -0.000020
vn -1.000000 0.000000 -0.000026
vn -1.000000 0.000000 -0.000041
vn -1.000000 0.000000 -0.000030
vn -1.000000 0.000000 -0.000000
vn -1.000000 0.000000 -0.000000
vn -1.000000 0.000000 0.000026
vn -1.000000 0.000000 0.000019
vn -1.000000 0.000000 0.000017
vn -1.000000 0.000000 0.000013
vn -0.600425 0.799681 -0.000000
vn -0.600425 0.799681 -0.000000
vn -0.600425 0.799681 -0.000000
vn -0.600425 0.799681 -0.000000
vn -0.657771 0.000000 -0.753218
vn -0.657772 0.000000 -0.753217
vn -0.657779 0.000000 -0.753211
vn -0.657779 0.000000 -0.753211
vn -0.600416 -0.799688 0.000000
vn -0.600415 -0.799689 0.000000
vn -0.600414 -0.799690 0.000000
vn -0.600414 -0.799690 0.000000
vn -0.601489 0.000000 0.798881
vn -0.601483 0.000000 0.798885
vn -0.601482 0.000000 0.798886
vn -0.601489 0.000000 0.798881
vn 0.000000 0.000006 1.000000
vn 0.000000 0.000006 1.000000
vn 0.000000 0.000000 1.000000
vn 0.000000 0.000000 1.000000
vn -1.000000 0.000000 0.000020
vn -1.000000 0.000000 0.000026
vn -0.601483 0.000010 0.798885
vn -0.601484 0.000008 0.798885
vn -0.601491 0.000000 0.798879
vn -0.601491 0.000000 0.798879
vn -1.000000 0.000000 -0.000000
vn -1.000000 0.000000 -0.000000
vn -1.000000 0.000000 -0.000000
vn -1.000000 0.000000 -0.000000
vn -0.657777 0.000000 -0.753212
vn -0.657771 -0.000008 -0.753218
vn -0.657770 -0.000009 -0.753219
vn -0.657777 0.000000 -0.753212
vn -1.000000 0.000000 -0.000026
vn -1.000000 0.000000 -0.000017
vn -1.000000 0.000000 -0.000013
vn -1.000000 0.000000 -0.000019
vn 0.000000 -0.000009 -1.000000
vn 0.000000 -0.000009 -1.000000
vn 0.000000 0.000000 -1.000000
vn 0.000000 0.000000 -1.000000
vn 1.000000 0.000000 0.000000
vn 1.000000 0.000000 0.000000
vn 1.000000 0.000000 0.000000
vn 1.000000 0.000000 0.000000
vn 0.000000 0.000006 1.000000
vn 0.000000 0.000006 1.000000
vn 1.000000 0.000000 0.000000
vn 1.000000 0.000000 0.000000
vn 0.000000 -0.000009 -1.000000
vn 0.000000 -0.000009 -1.000000
vn -1.000000 0.000000 -0.000000
vn -1.000000 0.000000 -0.000000
vn -0.657764 -0.000008 -0.753224
vn -0.657764 -0.000008 -0.753224
vn -1.000000 0.000000 0.000001
vn -1.000000 0.000000 -0.000000
vn -0.601476 0.000009 0.798891
vn -0.601476 0.000009 0.798891
vn -1.000000 0.000000 -0.000000
vn -1.000000 0.000000 -0.000000
vn 1.000000 0.000000 0.000000
vn 1.000000 0.000000 0.000000
vn 1.000000 0.000000 0.000000
vn 1.000000 0.000000 0.000000
vn 1.000000 0.000000 0.000000
vn 1.000000 0.000000 0.000000
vn 1.000000 0.000000 0.000000
vn 1.000000 0.000000 0.000000
vn 1.000000 0.000000 0.000000
vn 1.000000 0.000000 0.000000
vn 0.000000 1.000000 0.000000
vn 0.000000 1.000000 0.000000
vn 0.000000 1.000000 0.000000
vn 0.000000 1.000000 0.000000
vn -1.000000 0.000000 -0.000000
vn -1.000000 0.000000 -0.000000
vn -0.600421 0.799684 -0.000000
vn -0.600421 0.799684 -0.000000
vn -0.600421 0.799684 -0.000000
vn -0.600421 0.799684 -0.000000
vn -1.000000 0.000000 -0.000000
vn -1.000000 0.000000 -0.000000
vn -1.000000 0.000000 -0.000000
vn -1.000000 0.000000 -0.000000
vn -1.000000 0.000000 -0.000001
vn -1.000000 0.000000 -0.000000
vn -1.000000 0.000000 -0.000000
vn -1.000000 0.000000 -0.000000
vn -1.000000 0.000000 -0.000000
vn -1.000000 0.000000 -0.000000
vn -0.600428 -0.799679 0.000000
vn -0.600431 -0.799676 0.000000
vn -0.600433 -0.799675 0.000000
vn -0.600428 -0.799679 0.000000
vn -1.000000 0.000000 -0.000000
vn -1.000000 0.000000 -0.000000
vn 0.000000 -1.000000 0.000000
vn 0.000000 -1.000000 0.000000
vn 0.000000 -1.000000 0.000000
vn 0.000000 -1.000000 0.000000
vn 1.000000 0.000000 0.000000
vn 1.000000 0.000000 0.000000
vn 1.000000 0.000000 0.000000
vn 1.000000 0.000000 0.000000
vn 1.000000 0.000000 0.000000
vn 0.000000 1.000000 0.000000
vn 0.000000 1.000000 0.000000
vn -1.000000 0.000000 -0.000000
vn -1.000000 0.000000 -0.000000
vn -0.600423 0.799683 -0.000000
vn -0.600423 0.799683 -0.000000
vn -1.000000 0.000000 -0.000000
vn -1.000000 0.000000 -0.000000
vn -1.000000 0.000000 -0.000000
vn -1.000000 0.000000 -0.000000
vn -1.000000 0.000000 -0.000000
vn -1.000000 0.000000 -0.000000
vn -1.000000 0.000000 -0.000000
vn -1.000000 0.000000 -0.000000
vn -1.000000 0.000000 -0.000000
vn -1.000000 0.000000 -0.000000
vn -0.600426 -0.799680 0.000000
vn -0.600427 -0.799680 0.000000
vn -1.000000 0.000000 -0.000000
vn -1.000000 0.000000 -0.000000
vn 0.000000 -1.000000 0.000000
vn 0.000000 -1.000000 0.000000
vn -1.000000 0.000000 -0.000000
vn -1.000000 0.000000 -0.000000
vn -1.000000 0.000000 -0.000000
vn -1.000000 0.000000 -0.000000
vn -1.000000 0.000000 0.000003
vn -1.000000 0.000000 -0.000000
vn -1.000000 0.000000 0.000004
vn -1.000000 0.000000 -0.000000
vn -1.000000 0.000000 -0.000000
vn -1.000000 0.000000 -0.000003
vn -1.000000 0.000000 -0.000004
vn 0.000000 0.000000 -1.000000
vn 0.000000 0.000000 -1.000000
vn 0.000000 0.000000 -1.000000
vn 0.000000 0.000000 -1.000000
vn 0.000000 -1.000000 0.000000
vn 0.000000 -1.000000 0.000000
vn 0.000000 -1.000000 0.000000
vn 0.000000 -1.000000 0.000000
vn 0.000000 0.000000 -1.000000
vn 0.000000 0.000000 -1.000000
vn 0.000000 1.000000 0.000000
vn 0.000000 1.000000 0.000000
vn 0.000000 1.000000 0.000000
vn 0.000000 1.000000 0.000000
vn 0.000000 0.000000 1.000000
vn 0.000000 0.000000 1.000000
vn 0.000000 0.000000 1.000000
vn 0.000000 0.000000 1.000000
vn 0.000000 1.000000 0.000000
vn 0.000000 1.000000 0.000000
vn 0.000000 -1.000000 0.000000
vn 0.000000 -1.000000 0.000000
vn 0.000000 0.000000 1.000000
vn 0.000000 0.000000 1.000000
s 1
g Hallway_Masters:LightBase
usemtl initialShadingGroup
f 45/176/113 98/177/114 99/178/115 77/179/116
s 2
f 47/124/117 102/125/118 103/126/119 49/127/120
s 3
f 80/201/121 108/202/122 109/203/123 60/204/124
s 4
f 51/134/125 111/135/126 98/136/127 45/137/128
s 5
f 46/72/129 52/73/130 83/74/131 84/75/132
s 6
f 51/82/133 45/83/134 77/84/135 78/85/136
s 7
f 49/233/137 103/234/138 104/235/139 53/236/140
f 82/258/141 83/257/142 52/261/143 55/262/144
f 110/255/145 111/256/146 51/251/147 56/252/148
f 51/251/147 78/248/149 79/247/150 56/252/148
s 10
f 53/144/151 104/145/152 105/146/153 57/147/154
s 11
f 81/92/155 82/93/156 55/94/157 59/95/158
s 12
f 109/154/159 110/155/160 56/156/161 60/157/162
s 13
f 56/102/163 79/103/164 80/104/165 60/105/166
s 6
f 69/89/167 70/88/168 47/90/169 49/91/170
s 7
f 76/239/171 69/240/172 49/233/137 53/236/140
s 13
f 75/109/173 76/108/174 53/110/175 57/111/176
s 3
f 57/216/177 105/217/178 106/210/179 75/209/180
s 11
f 54/100/181 73/99/182 74/98/183 58/101/184
s 7
f 50/245/185 72/249/186 73/250/187 54/246/188
s 5
f 71/79/189 72/78/190 50/80/191 48/81/192
s 1
f 70/188/193 101/187/194 102/193/195 47/194/196
s 6
f 62/87/197 61/86/198 70/88/168 69/89/167
s 1
f 61/183/199 100/182/200 101/187/194 70/188/193
s 5
f 68/77/201 67/76/202 72/78/190 71/79/189
s 7
f 73/250/187 72/249/186 67/253/203 66/254/204
s 11
f 74/98/183 73/99/182 66/97/205 65/96/206
s 3
f 75/209/180 106/210/179 107/206/207 64/205/208
s 13
f 64/107/209 63/106/210 76/108/174 75/109/173
s 7
f 63/243/211 62/244/212 69/240/172 76/239/171
s 6
f 78/85/136 77/84/135 61/86/198 62/87/197
s 7
f 79/247/150 78/248/149 62/244/212 63/243/211
s 13
f 80/104/165 79/103/164 63/106/210 64/107/209
s 3
f 64/205/208 107/206/207 108/202/122 80/201/121
s 11
f 65/96/206 66/97/205 82/93/156 81/92/155
s 7
f 66/254/204 67/253/203 83/257/142 82/258/141
s 5
f 84/75/132 83/74/131 67/76/202 68/77/201
s 1
f 77/179/116 99/178/115 100/182/200 61/183/199
f 113/185/213 114/184/214 46/189/215 84/190/216
f 112/191/217 113/185/213 84/190/216 68/195/218
f 125/196/219 112/191/217 68/195/218 71/198/220
f 124/199/221 125/196/219 71/198/220 48/200/222
s 2
f 123/131/223 124/130/224 48/132/225 50/133/226
s 7
f 122/242/227 123/241/228 50/245/185 54/246/188
s 10
f 121/151/229 122/150/230 54/152/231 58/153/232
s 3
f 120/229/233 121/228/234 58/232/235 74/231/236
f 119/225/237 120/229/233 74/231/236 65/227/238
f 118/214/239 119/225/237 65/227/238 81/220/240
f 117/215/241 118/214/239 81/220/240 59/221/242
s 12
f 55/162/243 116/161/244 117/160/245 59/163/246
s 7
f 52/261/143 115/264/247 116/263/248 55/262/144
s 4
f 114/141/249 115/140/250 52/142/251 46/143/252
s 1
f 99/178/115 98/177/114 85/180/253 86/181/254
f 100/182/200 99/178/115 86/181/254 87/186/255
f 101/187/194 100/182/200 87/186/255 88/192/256
f 102/193/195 101/187/194 88/192/256 89/197/257
s 2
f 103/126/119 102/125/118 89/128/258 90/129/259
s 7
f 104/235/139 103/234/138 90/237/260 91/238/261
s 10
f 105/146/153 104/145/152 91/148/262 92/149/263
s 3
f 106/210/179 105/217/178 92/222/264 93/223/265
s 27
f 135/265/266 134/266/267 136/267/268 137/268/269
f 138/271/270 135/265/266 137/268/269 139/272/271
s 3
f 109/203/123 108/202/122 94/207/272 95/208/273
s 12
f 95/158/274 96/159/275 110/155/160 109/154/159
s 7
f 96/259/276 97/260/277 111/256/146 110/255/145
s 4
f 98/136/127 111/135/126 97/138/278 85/139/279
s 1
f 87/186/255 86/181/254 113/185/213 112/191/217
f 86/181/254 85/180/253 114/184/214 113/185/213
s 4
f 85/139/279 97/138/278 115/140/250 114/141/249
s 7
f 116/263/248 115/264/247 97/260/277 96/259/276
s 12
f 117/160/245 116/161/244 96/159/275 95/158/274
s 3
f 95/208/273 94/207/272 118/214/239 117/215/241
s 27
f 139/272/271 137/268/269 140/270/280 141/273/281
f 137/268/269 136/267/268 142/269/282 140/270/280
s 3
f 93/223/265 92/222/264 121/228/234 120/229/233
s 10
f 92/149/263 91/148/262 122/150/230 121/151/229
s 7
f 91/238/261 90/237/260 123/241/228 122/242/227
s 2
f 90/129/259 89/128/258 124/130/224 123/131/223
s 1
f 89/197/257 88/192/256 125/196/219 124/199/221
f 88/192/256 87/186/255 112/191/217 125/196/219
s 3
f 107/206/207 106/210/179 126/218/283 127/211/284
f 106/210/179 93/223/265 128/224/285 126/218/283
f 108/202/122 107/206/207 127/211/284 129/212/286
f 94/207/272 108/202/122 129/212/286 130/213/287
f 119/225/237 118/214/239 132/219/288 131/226/289
f 118/214/239 94/207/272 130/213/287 132/219/288
f 93/223/265 120/229/233 133/230/290 128/224/285
f 120/229/233 119/225/237 131/226/289 133/230/290
s 28
f 127/112/291 126/113/292 134/114/293 135/115/294
s 29
f 126/164/295 128/165/296 136/166/297 134/167/298
s 28
f 129/116/299 127/112/291 135/115/294 138/117/300
s 30
f 130/170/301 129/171/302 138/172/303 139/173/304
s 31
f 131/118/305 132/119/306 141/120/307 140/121/308
s 30
f 132/174/309 130/170/301 139/173/304 141/175/310
s 29
f 128/165/296 133/168/311 142/169/312 136/166/297
s 31
f 133/122/313 131/118/305 140/121/308 142/123/314
