# This file uses centimeters as units for non-parametric coordinates.

mtllib Picture Frame.mtl
g default
v 13.310062 -0.759291 3.120910
v 13.370468 -0.789694 3.120910
v 13.697857 -0.044568 3.331894
v 13.713476 -0.052428 3.331894
v 13.697857 -0.044566 3.124407
v 13.713476 -0.052425 3.124407
v 13.405700 -0.569292 2.800005
v 13.466099 -0.599690 2.800005
v 13.697857 -0.044568 3.286035
v 13.310064 -0.759293 3.045548
v 13.370471 -0.789696 3.045548
v 13.713476 -0.052428 3.286035
v 13.310064 -0.759293 2.894834
v 13.697857 -0.044566 3.194314
v 13.713476 -0.052425 3.194314
v 13.370471 -0.789696 2.894834
vt 0.012287 0.654807
vt 0.012287 0.567903
vt 0.035915 0.567903
vt 0.035915 0.654807
vt 0.083170 0.654820
vt 0.083170 0.567923
vt 0.119192 0.567923
vt 0.702760 0.676776
vt 0.537569 0.549192
vt 0.797776 0.546310
vt 0.221435 0.846039
vt 0.221435 0.687178
vt 0.239783 0.687181
vt 0.239783 0.846042
vt 0.184738 0.846039
vt 0.184738 0.687178
vt 0.161649 0.846016
vt 0.161649 0.687181
vt 0.457097 0.642676
vt 0.450144 0.616408
vt 0.574918 0.673079
vt 0.579148 0.689064
vt 0.566456 0.641109
vt 0.436240 0.563875
vt 0.454340 0.523716
vt 0.560007 0.616743
vt 0.574918 0.673079
vt 0.450144 0.616408
vt 0.457097 0.642676
vt 0.579148 0.689064
vt 0.566456 0.641109
vt 0.436240 0.563875
vt 0.454340 0.523716
vt 0.560007 0.616743
vt 0.797862 0.552314
vt 0.537615 0.555191
vt 0.635384 0.671523
vt 0.702662 0.670778
vt 0.119192 0.654820
vt 0.635486 0.677521
vn -0.112960 -0.224433 0.967920
vn -0.112960 -0.224433 0.967920
vn -0.112960 -0.224433 0.967920
vn -0.112960 -0.224433 0.967920
vn 0.449504 0.893278 0.000000
vn 0.449504 0.893278 0.000000
vn 0.449483 0.893289 0.000019
vn 0.449483 0.893289 0.000019
vn 0.213787 0.424804 -0.879680
vn 0.213787 0.424804 -0.879680
vn 0.213787 0.424804 -0.879680
vn 0.213787 0.424804 -0.879680
vn -0.449582 -0.893239 0.000004
vn -0.449582 -0.893239 0.000004
vn -0.449586 -0.893237 0.000013
vn -0.449586 -0.893237 0.000013
vn 0.906675 -0.421830 0.000026
vn 0.906678 -0.421824 0.000004
vn 0.906677 -0.421825 0.000006
vn 0.906675 -0.421830 0.000026
vn -0.878957 0.476901 -0.000006
vn -0.878957 0.476901 -0.000005
vn -0.878955 0.476904 -0.000027
vn -0.878955 0.476905 -0.000027
vn -0.882477 0.469453 0.029134
vn -0.879352 0.476162 0.002966
vn -0.880662 0.473558 0.013287
vn -0.882477 0.469453 0.029134
vn -0.183056 -0.363710 -0.913348
vn -0.183056 -0.363710 -0.913348
vn -0.284319 -0.564900 -0.774630
vn -0.446498 -0.887118 -0.116876
vn 0.905023 -0.425158 0.013195
vn 0.906301 -0.422621 0.003127
vn 0.902794 -0.429085 0.029153
vn 0.902794 -0.429085 0.029153
vn 0.449472 0.893294 0.000017
vn 0.449472 0.893294 0.000017
vn 0.449472 0.893295 0.000000
vn 0.449472 0.893295 0.000000
s off
g Hallway_Masters:FrameBack Hallway_Masters:PictureFrame
usemtl initialShadingGroup
f 1/35/1 2/36/2 4/37/3 3/38/4
s 1
f 3/1/5 4/2/6 12/3/7 9/4/8
s off
f 5/8/9 6/40/10 8/9/11 7/10/12
s 2
f 10/11/13 11/12/14 2/13/15 1/14/16
s 3
f 2/19/17 11/20/18 12/21/19 4/22/20
s 4
f 9/27/21 10/28/22 1/29/23 3/30/24
f 7/33/25 13/32/26 14/31/27 5/34/28
s 2
f 7/17/29 8/18/30 16/16/31 13/15/32
s 3
f 15/23/33 16/24/34 8/25/35 6/26/36
s 1
f 14/5/37 15/6/38 6/7/39 5/39/40
s 4
f 10/28/22 9/27/21 14/31/27 13/32/26
s 2
f 11/12/14 10/11/13 13/15/32 16/16/31
s 3
f 15/23/33 12/21/19 11/20/18 16/24/34
s 1
f 14/5/37 9/4/8 12/3/7 15/6/38
g default
v 13.887146 -0.791969 3.585592
v 13.949312 -0.775777 3.585592
v 13.576268 0.401911 3.585592
v 13.638408 0.418093 3.585592
v 13.576268 0.401911 2.770358
v 13.638408 0.418093 2.770358
v 13.887146 -0.791969 2.770358
v 13.949312 -0.775777 2.770358
v 13.936713 -0.727394 2.820357
v 13.936713 -0.727394 3.535590
v 13.651010 0.369706 2.820357
v 13.651010 0.369706 3.535590
v 13.877795 -0.742738 2.820357
v 13.877795 -0.742738 3.535590
v 13.592086 0.354364 2.820357
v 13.592086 0.354364 3.535590
vt 0.028824 0.865927
vt 0.121284 0.865927
vt 0.121284 0.976951
vt 0.028824 0.976951
vt 0.144344 0.857257
vt 0.256497 0.857257
vt 0.256497 0.985831
vt 0.144344 0.985831
vt 0.269866 0.715599
vt 0.494759 0.715599
vt 0.480967 0.726048
vt 0.283659 0.726048
vt 0.494759 0.973421
vt 0.480967 0.962972
vt 0.269866 0.973421
vt 0.283659 0.962972
vt 0.015806 0.841202
vt 0.015806 0.707650
vt 0.132294 0.707650
vt 0.132294 0.841197
vt 0.015806 0.841200
vt 0.015806 0.707653
vt 0.132294 0.707653
vt 0.132294 0.841200
vt 0.028824 0.861172
vt 0.121283 0.861172
vt 0.121283 0.981706
vt 0.028824 0.981701
vt 0.028824 0.861172
vt 0.121283 0.861172
vt 0.121283 0.981706
vt 0.028824 0.981701
vt 0.007277 0.841197
vt 0.007277 0.707650
vt 0.140822 0.707650
vt 0.140822 0.841202
vt 0.007277 0.841200
vt 0.007277 0.707652
vt 0.140822 0.707652
vt 0.140822 0.841200
vt 0.019542 0.861172
vt 0.130566 0.861172
vt 0.130566 0.981701
vt 0.019542 0.981706
vt 0.019542 0.861172
vt 0.130566 0.861172
vt 0.130566 0.981701
vt 0.019542 0.981706
vn 0.000000 0.000000 1.000000
vn 0.000000 0.000000 1.000000
vn 0.000000 0.000000 1.000000
vn 0.000000 0.000000 1.000000
vn -0.252012 0.967724 0.000000
vn -0.252012 0.967724 0.000000
vn -0.252012 0.967724 0.000000
vn -0.252012 0.967724 0.000000
vn 0.000003 0.000000 -1.000000
vn 0.000003 0.000000 -1.000000
vn 0.000003 0.000000 -1.000000
vn 0.000003 0.000000 -1.000000
vn 0.252055 -0.967713 0.000000
vn 0.252055 -0.967713 0.000000
vn 0.252055 -0.967713 0.000000
vn 0.252055 -0.967713 0.000000
vn 0.967723 0.252017 -0.000000
vn 0.967723 0.252017 -0.000000
vn 0.967723 0.252017 -0.000000
vn 0.967723 0.252017 -0.000000
vn -0.967730 -0.251990 -0.000000
vn -0.967730 -0.251990 -0.000000
vn -0.967730 -0.251990 -0.000000
vn -0.967730 -0.251990 -0.000000
vn 0.967732 0.251980 0.000007
vn 0.967732 0.251980 -0.000007
vn 0.967727 0.252001 -0.000021
vn 0.967727 0.252000 0.000021
vn 0.967717 0.252039 -0.000007
vn 0.967721 0.252023 -0.000021
vn 0.967717 0.252038 0.000007
vn 0.967722 0.252022 0.000021
vn -0.252027 0.967720 0.000000
vn -0.252027 0.967720 0.000000
vn -0.252027 0.967720 0.000000
vn -0.252027 0.967720 0.000000
vn 0.000000 0.000000 1.000000
vn 0.000000 0.000000 1.000000
vn 0.000000 0.000000 1.000000
vn 0.000000 0.000000 1.000000
vn 0.251970 -0.967735 0.000000
vn 0.251970 -0.967735 0.000000
vn 0.251970 -0.967735 0.000000
vn 0.251970 -0.967735 0.000000
vn 0.000000 0.000000 -1.000000
vn 0.000000 0.000000 -1.000000
vn 0.000000 0.000000 -1.000000
vn 0.000000 0.000000 -1.000000
s off
g Hallway_Masters:PictureFrame
usemtl initialShadingGroup
f 17/73/41 18/74/42 20/75/43 19/76/44
f 19/57/45 20/58/46 22/59/47 21/60/48
f 21/77/49 22/78/50 24/79/51 23/80/52
f 23/61/53 24/62/54 18/63/55 17/64/56
f 30/41/57 29/42/58 31/43/59 32/44/60
f 23/45/61 17/46/62 19/47/63 21/48/64
s 1
f 18/49/65 24/50/66 25/51/67 26/52/68
f 24/50/66 22/53/69 27/54/70 25/51/67
f 22/53/69 20/55/71 28/56/72 27/54/70
f 20/55/71 18/49/65 26/52/68 28/56/72
s off
f 26/65/73 25/66/74 29/67/75 30/68/76
f 25/81/77 27/82/78 31/83/79 29/84/80
f 27/69/81 28/70/82 32/71/83 31/72/84
f 28/85/85 26/86/86 30/87/87 32/88/88
g default
v 13.915417 -0.732938 3.535590
v 13.915417 -0.732938 2.820357
v 13.629712 0.364160 2.820357
v 13.629712 0.364160 3.535590
vt 0.520429 0.715704
vt 0.737623 0.715704
vt 0.737623 0.976506
vt 0.520429 0.976506
vn 0.967723 0.252014 0.000000
vn 0.967723 0.252014 0.000000
vn 0.967723 0.252014 0.000000
vn 0.967723 0.252014 0.000000
s off
g Hallway_Masters:PictureFrame Hallway_Masters:PicturePlain
usemtl initialShadingGroup
f 33/89/89 34/90/90 35/91/91 36/92/92
g default
v 13.925512 -0.730308 3.535590
v 13.925512 -0.730308 2.820357
v 13.639817 0.366791 2.820357
v 13.639817 0.366791 3.535590
vt 0.745793 0.717502
vt 0.962987 0.717502
vt 0.962987 0.978304
vt 0.745793 0.978304
vn 0.967726 0.252006 0.000000
vn 0.967726 0.252006 0.000000
vn 0.967726 0.252006 0.000000
vn 0.967726 0.252006 0.000000
s off
g Hallway_Masters:PictureFrame Hallway_Masters:GlassPlain
usemtl initialShadingGroup
f 37/93/93 38/94/94 39/95/95 40/96/96
