# This file uses centimeters as units for non-parametric coordinates.

mtllib Radio.mtl
g default
v -26.645835 5.601012 25.509405
v -26.623160 5.601012 25.051446
v -26.735651 5.601012 25.504946
v -26.712974 5.601012 25.047023
v -26.645835 5.629660 25.509405
v -26.650909 5.641707 25.505286
v -26.663165 5.646694 25.495394
v -26.641771 5.646694 25.063676
v -26.628606 5.641707 25.055025
v -26.623160 5.629660 25.051446
v -26.717054 5.646694 25.492718
v -26.730202 5.641707 25.501355
v -26.735651 5.629660 25.504946
v -26.695677 5.646694 25.061015
v -26.707900 5.641707 25.051110
v -26.712974 5.629660 25.047023
vt 0.043052 0.300294
vt 0.046521 0.297819
vt 0.046521 0.179875
vt 0.043052 0.177284
vt 0.041614 0.301211
vt 0.041614 0.176101
vt 0.064734 0.300294
vt 0.061259 0.297819
vt 0.066173 0.301211
vt 0.064734 0.177284
vt 0.066173 0.176101
vt 0.061259 0.179875
vt 0.041614 0.300888
vt 0.066173 0.300888
vt 0.066173 0.175778
vt 0.041614 0.175778
vn 0.000000 -1.000000 0.000000
vn 0.000000 -1.000000 0.000000
vn 0.000000 -1.000000 0.000000
vn 0.000000 -1.000000 0.000000
vn 0.118368 0.992757 0.020554
vn 0.364374 0.931078 0.018052
vn 0.364374 0.931078 0.018052
vn 0.087536 0.996153 -0.004165
vn 0.915177 0.400496 0.045323
vn 0.991919 0.116984 0.049116
vn 0.991755 0.118367 0.049108
vn 0.915177 0.400496 0.045323
vn 0.998776 0.000000 0.049452
vn 0.998776 0.000000 0.049452
vn -0.118351 0.992760 -0.020534
vn -0.087491 0.996157 0.004160
vn -0.991757 0.118343 -0.049116
vn -0.991907 0.117078 -0.049124
vn -0.998776 0.000000 -0.049463
vn -0.998776 0.000000 -0.049463
vn 0.049194 0.000000 -0.998789
vn 0.049194 0.000000 -0.998789
vn 0.049028 0.086306 -0.995062
vn 0.049010 0.090721 -0.994670
vn -0.049588 0.000000 0.998770
vn -0.049588 0.000000 0.998770
vn -0.049392 0.086769 0.995003
vn -0.049372 0.091268 0.994602
vn 0.023313 0.881082 -0.472388
vn 0.023313 0.881082 -0.472388
vn 0.046937 0.303471 -0.951684
vn 0.046937 0.303471 -0.951684
vn -0.047192 0.305088 0.951154
vn -0.047192 0.305088 0.951154
vn -0.023466 0.880770 0.472963
vn -0.023466 0.880770 0.472963
vn -0.915169 0.400515 -0.045327
vn -0.915169 0.400515 -0.045327
vn -0.365050 0.930812 -0.018081
vn -0.365050 0.930812 -0.018081
s off
g Hallway_Masters:BigButton Hallway_Masters:BaseClock
usemtl initialShadingGroup
f 3/13/1 4/16/2 2/15/3 1/14/4
s 1
f 7/8/5 6/7/6 9/10/7 8/12/8
s 2
f 6/7/9 5/9/10 10/11/11 9/10/12
f 1/14/13 2/15/14 10/11/11 5/9/10
s 1
f 7/8/5 8/12/8 14/3/15 11/2/16
s 3
f 13/5/17 16/6/18 4/16/19 3/13/20
s 4
f 2/15/21 4/16/22 16/6/23 10/11/24
s 5
f 3/13/25 1/14/26 5/9/27 13/5/28
s 1
f 8/12/8 9/10/29 15/4/30 14/3/15
s 4
f 9/10/31 10/11/24 16/6/23 15/4/32
s 5
f 5/9/27 6/7/33 12/1/34 13/5/28
s 1
f 6/7/35 7/8/5 11/2/16 12/1/36
s 3
f 13/5/17 12/1/37 15/4/38 16/6/18
s 1
f 12/1/39 11/2/16 14/3/15 15/4/40
g default
v -28.128884 5.526251 25.540936
v -26.426743 5.526251 25.625236
v -26.343879 5.526251 23.951938
v -28.046020 5.526251 23.867639
v -26.426743 5.238921 25.625236
v -28.128884 5.238921 25.540936
v -28.046020 5.238921 23.867639
v -26.343879 5.238921 23.951938
v -26.345950 5.238921 23.993766
v -26.345950 5.188645 23.993766
v -28.048101 5.188645 23.909482
v -28.048101 5.238921 23.909482
v -28.048101 5.526251 23.909482
v -28.048101 5.576535 23.909482
v -26.345950 5.576535 23.993766
v -26.345950 5.526251 23.993766
v -26.424876 5.188645 25.587570
v -26.424876 5.238921 25.587570
v -26.424876 5.526251 25.587570
v -26.424876 5.576535 25.587570
v -28.126999 5.576535 25.503290
v -28.126999 5.526251 25.503290
v -28.126999 5.238921 25.503290
v -28.126999 5.188645 25.503290
v -28.074876 5.238921 25.543609
v -28.074876 5.526251 25.543609
v -28.072995 5.576535 25.505963
v -27.994093 5.576535 23.912144
v -27.992001 5.526251 23.870319
v -27.992001 5.238921 23.870319
v -27.994093 5.188645 23.912144
v -28.072995 5.188645 25.505963
v -26.475351 5.526251 25.622807
v -26.475351 5.238921 25.622807
v -26.473493 5.188645 25.585173
v -26.394558 5.188645 23.991370
v -26.392491 5.238921 23.949535
v -26.392491 5.526251 23.949535
v -26.394558 5.576535 23.991370
v -26.473493 5.576535 25.585173
v -26.426743 5.547227 25.625236
v -26.425445 5.576535 25.598880
v -26.426359 5.567940 25.617506
v -26.475351 5.547227 25.622807
v -26.474943 5.567940 25.615128
v -26.474037 5.576535 25.596493
v -26.345177 5.576535 23.978301
v -26.343879 5.547227 23.951938
v -26.344267 5.567940 23.959653
v -26.392491 5.547227 23.949535
v -26.392869 5.567940 23.957249
v -26.393801 5.576535 23.975888
v -28.128884 5.217948 25.540936
v -28.127586 5.188645 25.514581
v -28.128496 5.197223 25.533222
v -28.074876 5.217948 25.543609
v -28.074496 5.197223 25.535898
v -28.073574 5.188645 25.517253
v -28.047322 5.188645 23.893998
v -28.046020 5.217948 23.867639
v -28.046404 5.197223 23.875369
v -27.992001 5.217948 23.870319
v -27.992400 5.197223 23.878035
v -27.993330 5.188645 23.896666
v -28.074876 5.547227 25.543609
v -28.074496 5.567940 25.535898
v -28.073574 5.576535 25.517253
v -27.993330 5.576535 23.896666
v -27.992400 5.567940 23.878035
v -27.992001 5.547227 23.870319
v -28.128496 5.567940 25.533222
v -28.127586 5.576535 25.514581
v -28.128884 5.547227 25.540936
v -28.046404 5.567940 23.875369
v -28.046020 5.547227 23.867639
v -28.047322 5.576535 23.893998
v -26.475351 5.217948 25.622807
v -26.474943 5.197223 25.615128
v -26.474037 5.188645 25.596493
v -26.393801 5.188645 23.975888
v -26.392869 5.197223 23.957249
v -26.392491 5.217948 23.949535
v -26.426359 5.197223 25.617506
v -26.425445 5.188645 25.598880
v -26.426743 5.217948 25.625236
v -26.344267 5.197223 23.959653
v -26.343879 5.217948 23.951938
v -26.345177 5.188645 23.978301
v -27.994093 5.594665 23.912144
v -27.982830 5.606748 23.923597
v -28.060670 5.606748 25.495675
v -28.072995 5.594665 25.505963
v -26.406899 5.606748 24.001638
v -26.394558 5.594665 23.991370
v -26.473493 5.594665 25.585173
v -26.484750 5.606748 25.573720
v -26.386692 5.238921 23.991760
v -26.465609 5.238921 25.585560
v -26.386692 5.526251 23.991760
v -26.465609 5.526251 25.585560
vt 0.558470 0.823245
vt 0.558470 0.758782
vt 0.562079 0.758782
vt 0.562079 0.823245
vt 0.323420 0.823245
vt 0.323420 0.758782
vt 0.562079 0.754076
vt 0.558470 0.747502
vt 0.562079 0.747502
vt 0.562079 0.749427
vt 0.562079 0.832598
vt 0.562079 0.834526
vt 0.558470 0.834526
vt 0.562079 0.827951
vt 0.319193 0.823245
vt 0.319193 0.758782
vt 0.323420 0.747502
vt 0.323420 0.834526
vt 0.319193 0.747502
vt 0.319193 0.754076
vt 0.319193 0.749427
vt 0.319193 0.832598
vt 0.319193 0.827951
vt 0.319193 0.834526
vt 0.957966 0.069429
vt 0.968656 0.069429
vt 0.968656 0.355372
vt 0.957966 0.355372
vt 0.968656 0.027932
vt 0.968656 0.048557
vt 0.957966 0.019395
vt 0.968656 0.019395
vt 0.968656 0.405413
vt 0.957966 0.405413
vt 0.968656 0.376247
vt 0.968656 0.396859
vt 0.363139 0.069429
vt 0.363139 0.019395
vt 0.363139 0.405413
vt 0.363139 0.355372
vt 0.354000 0.027932
vt 0.354000 0.019395
vt 0.354000 0.069429
vt 0.354000 0.048557
vt 0.354000 0.376247
vt 0.354000 0.355372
vt 0.354000 0.405413
vt 0.354000 0.396859
vt 0.025041 0.854522
vt 0.735302 0.854522
vt 0.735302 0.972104
vt 0.025041 0.972104
vt 0.892538 0.336864
vt 0.879894 0.336864
vt 0.879894 0.104275
vt 0.892538 0.104275
vt 0.860921 0.336864
vt 0.860921 0.104275
vt 0.918872 0.104273
vt 0.931517 0.104273
vt 0.931517 0.336861
vt 0.918872 0.336861
vt 0.899900 0.336861
vt 0.899900 0.104273
vt 0.169302 0.020026
vt 0.035166 0.020026
vt 0.035166 0.015935
vt 0.169302 0.015935
vt 0.169302 0.154645
vt 0.035166 0.154645
vt 0.033864 0.020026
vt 0.033864 0.015935
vt 0.170254 0.020026
vt 0.170254 0.015935
vt 0.170254 0.154645
vt 0.035166 0.159190
vt 0.169302 0.159190
vt 0.033864 0.154645
vt 0.170254 0.159190
vt 0.033864 0.159190
vt 0.317517 0.326644
vt 0.317517 0.333786
vt 0.083333 0.333786
vt 0.083333 0.326644
vt 0.319791 0.333786
vt 0.319791 0.326644
vt 0.081672 0.333786
vt 0.081672 0.326644
vt 0.319791 0.568812
vt 0.317517 0.568812
vt 0.083333 0.568812
vt 0.081672 0.568812
vt 0.317517 0.576746
vt 0.319791 0.576746
vt 0.083333 0.576746
vt 0.081672 0.576746
vt 0.598492 0.809285
vt 0.598492 0.440509
vt 0.966368 0.440509
vt 0.966368 0.809285
vt 0.822032 0.103666
vt 0.822032 0.337850
vt 0.816046 0.337850
vt 0.816046 0.103666
vt 0.847368 0.103666
vt 0.847368 0.337850
vt 0.841382 0.337850
vt 0.841382 0.103666
vt 0.269603 0.711437
vt 0.269603 0.646974
vt 0.276771 0.646974
vt 0.276771 0.711437
vt 0.033709 0.711437
vt 0.033709 0.646974
vt 0.269603 0.642269
vt 0.276771 0.642269
vt 0.269603 0.716143
vt 0.276771 0.716143
vt 0.033709 0.716143
vt 0.025744 0.711437
vt 0.025744 0.646974
vt 0.033709 0.642269
vt 0.269603 0.637619
vt 0.276771 0.637619
vt 0.276771 0.720790
vt 0.269603 0.720790
vt 0.033709 0.720790
vt 0.025744 0.716143
vt 0.025744 0.642269
vt 0.033709 0.637619
vt 0.269603 0.635694
vt 0.276771 0.635694
vt 0.276771 0.722719
vt 0.269603 0.722719
vt 0.025744 0.720790
vt 0.033709 0.722719
vt 0.025744 0.637619
vt 0.033709 0.635694
vt 0.025744 0.722719
vt 0.025744 0.635694
vt 0.277611 0.757036
vt 0.277611 0.821499
vt 0.270441 0.821499
vt 0.270441 0.757036
vt 0.277611 0.826205
vt 0.270441 0.826205
vt 0.034549 0.821499
vt 0.034549 0.757036
vt 0.270441 0.752330
vt 0.277611 0.752330
vt 0.270441 0.830855
vt 0.277611 0.830855
vt 0.034549 0.826205
vt 0.026584 0.821499
vt 0.026584 0.757036
vt 0.034549 0.752330
vt 0.277611 0.747683
vt 0.270441 0.747683
vt 0.034549 0.830855
vt 0.270441 0.832779
vt 0.277611 0.832779
vt 0.026584 0.826205
vt 0.026584 0.752330
vt 0.034549 0.747683
vt 0.277611 0.745755
vt 0.270441 0.745755
vt 0.026584 0.830855
vt 0.034549 0.832779
vt 0.026584 0.747683
vt 0.034549 0.745755
vt 0.026584 0.832779
vt 0.026584 0.745755
vt 0.744934 0.337718
vt 0.732290 0.337718
vt 0.732290 0.104426
vt 0.744934 0.104426
vt 0.763907 0.104426
vt 0.763907 0.337718
vt 0.802886 0.337634
vt 0.790242 0.337634
vt 0.790242 0.104346
vt 0.802886 0.104346
vt 0.771269 0.337634
vt 0.771269 0.104346
vt 0.712716 0.079391
vt 0.712716 0.337999
vt 0.708050 0.337999
vt 0.708050 0.079391
vt 0.703267 0.079391
vt 0.703267 0.337999
vt 0.698602 0.337999
vt 0.698602 0.079391
vn -0.049466 0.000000 0.998776
vn -0.049466 0.000000 0.998776
vn -0.049887 0.000000 0.998755
vn -0.049886 0.000000 0.998755
vn -0.998776 -0.000001 -0.049455
vn -0.998776 0.000000 -0.049455
vn -0.998748 0.000021 -0.050016
vn -0.998748 -0.000026 -0.050016
vn -0.998766 0.000007 -0.049673
vn -0.998766 -0.000007 -0.049673
vn -0.998777 -0.000000 -0.049448
vn -0.998777 0.000000 -0.049448
vn 0.049387 0.000000 -0.998780
vn 0.049387 0.000000 -0.998780
vn 0.049462 0.000000 -0.998776
vn 0.049462 0.000000 -0.998776
vn 0.998776 0.000001 0.049458
vn 0.998777 0.000009 0.049447
vn 0.998777 -0.000009 0.049447
vn 0.998776 -0.000001 0.049458
vn 0.998773 0.000005 0.049517
vn 0.998773 -0.000008 0.049517
vn 0.998776 -0.000001 0.049467
vn 0.998776 0.000001 0.049467
vn 0.998776 0.000000 0.049455
vn 0.998776 0.000000 0.049455
vn 0.998776 0.000000 0.049455
vn 0.998776 0.000000 0.049455
vn 0.998776 0.000002 0.049459
vn 0.998776 -0.000001 0.049461
vn 0.000000 -1.000000 0.000000
vn 0.000000 -1.000000 -0.000000
vn 0.000000 -1.000000 0.000000
vn 0.000000 -1.000000 0.000000
vn -0.998777 -0.000001 -0.049448
vn -0.998776 0.000003 -0.049455
vn -0.998777 0.000001 -0.049448
vn -0.998776 -0.000004 -0.049454
vn 0.000000 1.000000 0.000000
vn 0.000000 1.000000 0.000000
vn 0.000000 1.000000 0.000007
vn 0.000000 1.000000 0.000000
vn 0.998776 -0.000002 0.049459
vn 0.998776 0.000001 0.049461
vn -0.049422 0.000000 0.998778
vn -0.049420 0.000000 0.998778
vn -0.049452 0.000000 0.998776
vn -0.049452 0.000000 0.998776
vn 0.000000 -1.000000 0.000000
vn 0.000000 -1.000000 -0.000000
vn 0.000000 -1.000000 0.000000
vn 0.000000 -1.000000 0.000000
vn 0.049467 0.000000 -0.998776
vn 0.049467 0.000000 -0.998776
vn 0.049558 0.000000 -0.998771
vn 0.049559 0.000000 -0.998771
vn 0.000000 1.000000 0.000006
vn 0.000000 1.000000 0.000000
vn 0.000000 1.000000 0.000000
vn 0.000000 1.000000 0.000000
vn -0.048828 0.181943 0.982096
vn -0.046300 0.349043 0.935962
vn -0.046356 0.348644 0.936108
vn -0.048639 0.181752 0.982141
vn -0.020486 0.908216 0.418000
vn -0.013484 0.961307 0.275148
vn -0.013635 0.961248 0.275347
vn -0.020691 0.908298 0.417811
vn -0.048610 -0.182081 0.982081
vn -0.046364 -0.349144 0.935922
vn -0.046362 -0.348476 0.936171
vn -0.048634 -0.181708 0.982149
vn -0.020663 -0.908626 0.417098
vn -0.013623 -0.961351 0.274989
vn -0.013615 -0.961384 0.274874
vn -0.020664 -0.908595 0.417167
vn -0.046357 0.348655 0.936104
vn -0.048633 0.181749 0.982142
vn -0.013640 0.961247 0.275349
vn -0.020697 0.908301 0.417804
vn -0.046360 -0.348465 0.936174
vn -0.048640 -0.181710 0.982148
vn -0.013611 -0.961385 0.274872
vn -0.020657 -0.908592 0.417174
vn 0.012048 -0.969878 -0.243293
vn 0.020662 -0.908570 -0.417221
vn 0.020663 -0.908573 -0.417214
vn 0.012047 -0.969887 -0.243258
vn 0.046346 -0.349274 -0.935874
vn 0.048637 -0.182173 -0.982063
vn 0.048634 -0.182161 -0.982065
vn 0.046346 -0.349263 -0.935878
vn 0.020695 0.908257 -0.417900
vn 0.012070 0.969765 -0.243741
vn 0.012070 0.969774 -0.243706
vn 0.020696 0.908261 -0.417892
vn 0.048638 0.182211 -0.982056
vn 0.046345 0.349455 -0.935806
vn 0.046343 0.349443 -0.935811
vn 0.048634 0.182200 -0.982058
vn -0.013463 -0.961451 0.274649
vn 0.048564 -0.182123 -0.982076
vn -0.048817 -0.181903 0.982104
vn 0.048558 0.182163 -0.982069
vn 0.012075 0.969768 -0.243730
vn 0.012056 -0.969880 -0.243284
vn -0.048605 0.182123 0.982074
vn 0.012024 -0.969886 -0.243262
vn 0.048662 -0.182328 -0.982033
vn 0.048688 0.182368 -0.982024
vn 0.012042 0.969777 -0.243696
vn -0.013643 0.961210 0.275479
vn 0.998773 0.000038 0.049532
vn 0.998773 0.000038 0.049532
vn 0.998773 0.000038 0.049532
vn 0.998778 -0.000068 0.049426
vn 0.998778 -0.000068 0.049426
vn 0.998778 -0.000068 0.049426
vn -0.998746 0.000154 -0.050056
vn -0.998746 0.000154 -0.050056
vn -0.998746 0.000154 -0.050056
vn -0.998764 -0.000051 -0.049697
vn -0.998764 -0.000051 -0.049697
vn -0.998764 -0.000051 -0.049697
vn -0.998746 -0.000192 -0.050056
vn -0.998746 -0.000192 -0.050056
vn -0.998746 -0.000192 -0.050056
vn -0.998764 0.000051 -0.049696
vn -0.998764 0.000051 -0.049696
vn -0.998764 0.000051 -0.049696
vn 0.998773 -0.000058 0.049532
vn 0.998773 -0.000058 0.049532
vn 0.998773 -0.000058 0.049532
vn 0.998778 0.000068 0.049425
vn 0.998778 0.000068 0.049425
vn 0.998778 0.000068 0.049425
vn 0.020697 0.908325 -0.417753
vn 0.046284 0.349403 -0.935829
vn 0.020628 -0.908525 -0.417322
vn 0.046319 -0.349577 -0.935762
vn -0.046328 0.349327 0.935855
vn -0.020689 0.908320 0.417765
vn 0.020654 0.908211 -0.418002
vn 0.046343 0.349760 -0.935693
vn -0.046276 -0.348863 0.936031
vn -0.020457 -0.908526 0.417328
vn 0.020668 -0.908633 -0.417085
vn 0.046293 -0.349222 -0.935896
vn 0.036769 0.668941 -0.742406
vn 0.036769 0.668941 -0.742406
vn 0.036769 0.668941 -0.742406
vn 0.036769 0.668941 -0.742406
vn -0.714365 0.698879 -0.035369
vn -0.714365 0.698879 -0.035369
vn -0.714365 0.698879 -0.035369
vn -0.714365 0.698879 -0.035369
vn -0.036753 0.669264 0.742115
vn -0.036753 0.669264 0.742115
vn -0.036753 0.669264 0.742115
vn -0.036753 0.669264 0.742115
vn 0.714135 0.699114 0.035366
vn 0.714135 0.699114 0.035366
vn 0.714135 0.699114 0.035366
vn 0.714135 0.699114 0.035366
vn 0.000000 1.000000 0.000000
vn 0.000000 1.000000 0.000000
vn 0.000000 1.000000 0.000000
vn 0.000000 1.000000 0.000000
vn -0.998777 0.000000 -0.049444
vn -0.998777 0.000000 -0.049444
vn -0.998777 0.000000 -0.049444
vn -0.998777 0.000000 -0.049444
vn -0.049462 0.000000 0.998776
vn -0.049462 0.000000 0.998776
vn -0.049462 0.000000 0.998776
vn -0.049462 0.000000 0.998776
vn 0.998776 0.000000 0.049467
vn 0.998776 0.000000 0.049467
vn 0.998776 0.000000 0.049467
vn 0.998776 0.000000 0.049467
vn 0.049469 0.000000 -0.998776
vn 0.049469 0.000000 -0.998776
vn 0.049469 0.000000 -0.998776
vn 0.049469 0.000000 -0.998776
vn 0.000000 1.000000 0.000000
vn 0.000000 1.000000 0.000000
vn 0.000000 1.000000 0.000000
vn 0.000000 1.000000 0.000000
vn -0.049198 0.000000 0.998789
vn -0.049198 0.000000 0.998789
vn -0.049198 0.000000 0.998789
vn -0.049198 0.000000 0.998789
vn 0.000000 -1.000000 0.000001
vn 0.000000 -1.000000 0.000001
vn 0.000000 -1.000000 0.000001
vn 0.000000 -1.000000 0.000001
vn 0.049306 0.000000 -0.998784
vn 0.049306 0.000000 -0.998784
vn 0.049306 0.000000 -0.998784
vn 0.049306 0.000000 -0.998784
s 1
g Hallway_Masters:BaseClock
usemtl initialShadingGroup
f 49/125/41 50/126/42 21/127/43 18/128/44
s 2
f 38/17/45 39/18/46 22/19/47 17/20/48
f 20/31/49 23/32/50 28/22/51 29/21/52
s 4
f 19/157/53 24/158/54 53/159/55 54/160/56
s 5
f 25/41/57 24/42/58 19/43/59 32/44/60
f 18/62/61 21/59/62 34/53/63 35/56/64
s off
f 114/65/65 113/66/66 115/67/67 116/68/68
s 5
f 26/47/69 25/41/57 34/53/63 33/54/70
s 7
f 51/81/71 52/82/72 26/83/73 33/84/74
s 2
f 28/22/51 27/33/75 40/24/76 39/18/46
f 29/21/52 28/22/51 39/18/46 38/17/45
f 30/34/77 29/21/52 38/17/45 37/29/78
s 8
f 31/97/79 55/98/80 56/99/81 36/100/82
s 5
f 32/44/60 31/50/83 36/55/84 35/56/64
s 1
f 17/136/85 22/137/86 41/130/87 42/129/88
s 7
f 27/92/89 47/86/90 48/85/91 40/93/92
s 4
f 45/164/93 46/163/94 23/170/95 20/171/96
s 8
f 43/107/97 44/106/98 30/109/99 37/111/100
s 1
f 50/126/42 49/125/41 42/129/88 41/130/87
s 7
f 52/82/72 51/81/71 48/85/91 47/86/90
s 4
f 54/160/56 53/159/55 46/163/94 45/164/93
s 1
f 57/134/101 59/141/102 61/142/103 60/133/104
s 8
f 59/141/105 58/149/106 62/150/107 61/142/108
s 1
f 69/145/109 71/153/110 73/146/111 72/138/112
s 7
f 71/153/113 70/156/114 74/154/115 73/146/116
s 1
f 82/143/117 81/135/118 60/133/104 61/142/103
s 8
f 83/152/119 82/143/120 61/142/108 62/150/107
s 1
f 72/138/112 73/146/111 94/139/121 93/131/122
s 7
f 73/146/116 74/154/115 95/147/123 94/139/124
f 80/184/125 79/175/126 97/167/127 96/176/128
s 4
f 79/175/129 78/169/130 98/162/131 97/167/132
s 8
f 85/180/133 84/186/134 68/182/135 67/174/136
s 4
f 86/172/137 85/180/138 67/174/139 66/165/140
s 8
f 62/103/107 58/104/106 36/100/82 56/99/81
s 7
f 95/89/123 51/81/71 33/84/74 100/90/141
s 4
f 103/161/142 98/162/131 53/159/55 24/158/54
s 1
f 50/126/42 93/131/122 101/132/143 21/127/43
f 60/133/104 49/125/41 18/128/44 57/134/101
s 4
f 19/157/53 54/160/56 66/165/140 64/166/144
s 8
f 68/101/135 55/98/80 31/97/79 63/102/145
s 7
f 26/83/73 52/82/72 96/87/128 104/88/146
s 1
f 17/136/85 42/129/88 81/135/118 89/144/147
f 69/145/109 72/138/112 41/130/87 22/137/86
s 7
f 74/91/115 70/95/114 40/93/92 48/85/91
f 80/94/125 47/86/90 27/92/89 75/96/148
s 4
f 46/163/94 78/169/130 76/178/149 23/170/95
f 86/172/137 45/164/93 20/171/96 91/179/150
s 8
f 30/109/99 44/106/98 84/105/134 92/110/151
f 83/108/119 43/107/97 37/111/100 88/112/152
s 1
f 50/126/42 41/130/87 72/138/112 93/131/122
f 60/133/104 81/135/118 42/129/88 49/125/41
s 8
f 56/99/81 43/107/97 83/108/119 62/103/107
f 68/101/135 84/105/134 44/106/98 55/98/80
s 4
f 54/160/56 45/164/93 86/172/137 66/165/140
f 98/162/131 78/169/130 46/163/94 53/159/55
s 7
f 52/82/72 47/86/90 80/94/125 96/87/128
f 95/89/123 74/91/115 48/85/91 51/81/71
s 5
f 57/61/153 18/62/61 35/56/64 36/55/84 58/63/154 59/64/155
f 63/49/156 31/50/83 32/44/60 19/43/59 64/51/157 65/52/158
s 2
f 69/23/159 22/19/47 39/18/46 40/24/76 70/25/160 71/26/161
f 75/35/162 27/33/75 28/22/51 23/32/50 76/36/163 77/37/164
f 87/27/165 88/28/166 37/29/78 38/17/45 17/20/48 89/30/167
f 90/38/168 91/39/169 20/31/49 29/21/52 30/34/77 92/40/170
s 5
f 99/57/171 100/58/172 33/54/70 34/53/63 21/59/62 101/60/173
f 102/45/174 103/46/175 24/42/58 25/41/57 26/47/69 104/48/176
s 8
f 63/181/145 65/173/177 67/174/136 68/182/135
s 4
f 65/173/178 64/166/144 66/165/140 67/174/139
s 7
f 75/187/148 77/183/179 79/175/126 80/184/125
s 4
f 77/183/180 76/178/149 78/169/130 79/175/129
s 1
f 81/135/118 82/143/117 87/151/181 89/144/147
s 8
f 82/143/120 83/152/119 88/155/152 87/151/182
f 84/186/134 85/180/133 90/185/183 92/188/151
s 4
f 85/180/138 86/172/137 91/179/150 90/185/184
s 1
f 93/131/122 94/139/121 99/140/185 101/132/143
s 7
f 94/139/124 95/147/123 100/148/141 99/140/186
f 96/176/128 97/167/127 102/168/187 104/177/146
s 4
f 97/167/132 98/162/131 103/161/142 102/168/188
s off
f 105/189/189 106/190/190 109/191/191 110/192/192
f 106/69/193 105/70/194 108/71/195 107/72/196
f 107/195/197 108/196/198 111/197/199 112/198/200
f 110/75/201 109/76/202 112/77/203 111/78/204
f 107/113/205 112/114/206 109/115/207 106/116/208
f 44/73/209 43/74/210 108/71/211 105/70/212
f 108/196/213 43/199/214 56/200/215 111/197/216
f 56/79/217 55/80/218 110/75/219 111/78/220
f 105/189/221 110/192/222 55/193/223 44/194/224
f 34/117/225 25/118/226 113/119/227 114/120/228
f 25/201/229 32/202/230 115/203/231 113/204/232
f 32/121/233 35/122/234 116/123/235 115/124/236
f 35/205/237 34/206/238 114/207/239 116/208/240
g default
v -26.595117 5.601012 24.485330
v -26.583806 5.601012 24.256652
v -26.684953 5.601012 24.480901
v -26.673625 5.601012 24.252209
v -26.595117 5.629660 24.485330
v -26.600281 5.641707 24.483170
v -26.612773 5.646694 24.477900
v -26.602090 5.646694 24.262339
v -26.589165 5.641707 24.258335
v -26.583806 5.629660 24.256652
v -26.666679 5.646694 24.475231
v -26.679607 5.641707 24.479239
v -26.684953 5.629660 24.480901
v -26.655974 5.646694 24.259666
v -26.668448 5.641707 24.254395
v -26.673625 5.629660 24.252209
vt 0.322249 0.179045
vt 0.322250 0.172108
vt 0.201040 0.172106
vt 0.201040 0.179042
vt 0.322249 0.181918
vt 0.201040 0.181916
vt 0.322250 0.135733
vt 0.322250 0.142674
vt 0.322250 0.132861
vt 0.201041 0.135731
vt 0.201041 0.132858
vt 0.201041 0.142672
vt 0.323196 0.181918
vt 0.323197 0.132861
vt 0.198411 0.132858
vt 0.198410 0.181916
vn 0.000000 -1.000000 0.000000
vn 0.000000 -1.000000 0.000000
vn 0.000000 -1.000000 0.000000
vn 0.000000 -1.000000 0.000000
vn 0.106905 0.993645 0.035220
vn 0.364514 0.931023 0.018041
vn 0.364514 0.931023 0.018041
vn 0.077686 0.996862 -0.015189
vn 0.915122 0.400629 0.045256
vn 0.991303 0.122125 0.049032
vn 0.991154 0.123327 0.049025
vn 0.915122 0.400629 0.045256
vn 0.998779 0.000000 0.049406
vn 0.998779 0.000000 0.049406
vn -0.106953 0.993640 -0.035230
vn -0.077720 0.996859 0.015193
vn -0.991144 0.123375 -0.049110
vn -0.991308 0.122049 -0.049118
vn -0.998775 0.000000 -0.049473
vn -0.998775 0.000000 -0.049473
vn 0.049405 0.000000 -0.998779
vn 0.049405 0.000000 -0.998779
vn 0.049392 0.044235 -0.997799
vn 0.049390 0.045387 -0.997748
vn -0.049231 0.000000 0.998787
vn -0.049231 0.000000 0.998787
vn -0.049222 0.043703 0.997831
vn -0.049221 0.044824 0.997782
vn 0.036299 0.681417 -0.730995
vn 0.036299 0.681417 -0.730995
vn 0.048905 0.158743 -0.986108
vn 0.048905 0.158743 -0.986108
vn -0.048760 0.156824 0.986422
vn -0.048760 0.156824 0.986422
vn -0.036226 0.681475 0.730944
vn -0.036225 0.681475 0.730944
vn -0.915125 0.400608 -0.045376
vn -0.915125 0.400608 -0.045376
vn -0.364645 0.930971 -0.018103
vn -0.364645 0.930971 -0.018103
s off
g Hallway_Masters:BaseClock Hallway_Masters:ButtonVolumeDown
usemtl initialShadingGroup
f 119/221/241 120/224/242 118/223/243 117/222/244
s 1
f 123/216/245 122/215/246 125/218/247 124/220/248
s 2
f 122/215/249 121/217/250 126/219/251 125/218/252
f 117/222/253 118/223/254 126/219/251 121/217/250
s 1
f 123/216/245 124/220/248 130/211/255 127/210/256
s 3
f 129/213/257 132/214/258 120/224/259 119/221/260
s 4
f 118/223/261 120/224/262 132/214/263 126/219/264
s 5
f 119/221/265 117/222/266 121/217/267 129/213/268
s 1
f 124/220/248 125/218/269 131/212/270 130/211/255
s 4
f 125/218/271 126/219/264 132/214/263 131/212/272
s 5
f 121/217/267 122/215/273 128/209/274 129/213/268
s 1
f 122/215/275 123/216/245 127/210/256 128/209/276
s 3
f 129/213/257 128/209/277 131/212/278 132/214/258
s 1
f 128/209/279 127/210/256 130/211/255 131/212/280
g default
v -26.620230 5.601012 24.992192
v -26.608921 5.601012 24.763502
v -26.710038 5.601012 24.987749
v -26.698707 5.601012 24.759089
v -26.620230 5.629660 24.992192
v -26.625437 5.641707 24.990001
v -26.637889 5.646694 24.984743
v -26.627184 5.646694 24.769175
v -26.614280 5.641707 24.765160
v -26.608921 5.629660 24.763502
v -26.691787 5.646694 24.982096
v -26.704679 5.641707 24.986077
v -26.710038 5.629660 24.987749
v -26.681079 5.646694 24.766501
v -26.693544 5.641707 24.761230
v -26.698707 5.629660 24.759089
vt 0.322815 0.251731
vt 0.322815 0.244807
vt 0.201603 0.244804
vt 0.201603 0.251729
vt 0.322815 0.254604
vt 0.201603 0.254602
vt 0.322816 0.208448
vt 0.322816 0.215372
vt 0.322816 0.205563
vt 0.201604 0.208446
vt 0.201604 0.205561
vt 0.201604 0.215369
vt 0.323767 0.254604
vt 0.323768 0.205563
vt 0.198985 0.205560
vt 0.198984 0.254602
vn 0.000000 -1.000000 0.000000
vn 0.000000 -1.000000 0.000000
vn 0.000000 -1.000000 0.000000
vn 0.000000 -1.000000 0.000000
vn 0.106806 0.993658 0.035162
vn 0.365209 0.930749 0.018131
vn 0.365209 0.930749 0.018131
vn 0.077743 0.996858 -0.015170
vn 0.914441 0.402175 0.045297
vn 0.991244 0.122597 0.049041
vn 0.991076 0.123949 0.049033
vn 0.914441 0.402175 0.045297
vn 0.998780 0.000000 0.049390
vn 0.998780 0.000000 0.049390
vn -0.107016 0.993633 -0.035240
vn -0.077760 0.996856 0.015234
vn -0.991153 0.123305 -0.049110
vn -0.991299 0.122124 -0.049117
vn -0.998775 0.000000 -0.049492
vn -0.998775 0.000000 -0.049492
vn 0.049093 0.000000 -0.998794
vn 0.049093 0.000000 -0.998794
vn 0.049102 0.043462 -0.997848
vn 0.049101 0.044565 -0.997799
vn -0.049411 0.000000 0.998779
vn -0.049411 0.000000 0.998779
vn -0.049372 0.044136 0.997805
vn -0.049370 0.045288 0.997753
vn 0.036235 0.681843 -0.730601
vn 0.036235 0.681843 -0.730601
vn 0.048692 0.155954 -0.986563
vn 0.048692 0.155954 -0.986563
vn -0.048820 0.158442 0.986161
vn -0.048820 0.158442 0.986161
vn -0.036135 0.679980 0.732340
vn -0.036135 0.679980 0.732340
vn -0.915185 0.400476 -0.045336
vn -0.915185 0.400476 -0.045336
vn -0.365234 0.930739 -0.018112
vn -0.365234 0.930739 -0.018112
s off
g Hallway_Masters:BaseClock Hallway_Masters:ButtonVolumeUp
usemtl initialShadingGroup
f 135/237/281 136/240/282 134/239/283 133/238/284
s 1
f 139/232/285 138/231/286 141/234/287 140/236/288
s 2
f 138/231/289 137/233/290 142/235/291 141/234/292
f 133/238/293 134/239/294 142/235/291 137/233/290
s 1
f 139/232/285 140/236/288 146/227/295 143/226/296
s 3
f 145/229/297 148/230/298 136/240/299 135/237/300
s 4
f 134/239/301 136/240/302 148/230/303 142/235/304
s 5
f 135/237/305 133/238/306 137/233/307 145/229/308
s 1
f 140/236/288 141/234/309 147/228/310 146/227/295
s 4
f 141/234/311 142/235/304 148/230/303 147/228/312
s 5
f 137/233/307 138/231/313 144/225/314 145/229/308
s 1
f 138/231/315 139/232/285 143/226/296 144/225/316
s 3
f 145/229/297 144/225/317 147/228/318 148/230/298
s 1
f 144/225/319 143/226/296 146/227/295 147/228/320
g default
v -26.607781 5.601012 24.740148
v -26.596407 5.601012 24.511481
v -26.697570 5.601012 24.735720
v -26.686237 5.601012 24.507027
v -26.607781 5.629660 24.740148
v -26.612907 5.641707 24.737996
v -26.625399 5.646694 24.732719
v -26.614708 5.646694 24.517157
v -26.601772 5.641707 24.513143
v -26.596407 5.629660 24.511481
v -26.679267 5.646694 24.730032
v -26.692216 5.641707 24.734075
v -26.697570 5.629660 24.735720
v -26.668597 5.646694 24.514477
v -26.681071 5.641707 24.509215
v -26.686237 5.629660 24.507027
vt 0.322538 0.106365
vt 0.322538 0.099423
vt 0.201334 0.099421
vt 0.201334 0.106363
vt 0.322538 0.109238
vt 0.201334 0.109236
vt 0.322539 0.063053
vt 0.322539 0.069997
vt 0.322539 0.060189
vt 0.201334 0.063051
vt 0.201335 0.060187
vt 0.201334 0.069995
vt 0.323490 0.109238
vt 0.323491 0.060189
vt 0.198705 0.060187
vt 0.198704 0.109236
vn 0.000000 -1.000000 0.000000
vn 0.000000 -1.000000 0.000000
vn 0.000000 -1.000000 0.000000
vn 0.000000 -1.000000 0.000000
vn 0.107051 0.993628 0.035270
vn 0.364276 0.931116 0.018053
vn 0.364276 0.931116 0.018053
vn 0.077701 0.996861 -0.015173
vn 0.915527 0.399682 0.045439
vn 0.991329 0.121811 0.049280
vn 0.991177 0.123046 0.049272
vn 0.915527 0.399682 0.045439
vn 0.998765 0.000000 0.049681
vn 0.998765 0.000000 0.049681
vn -0.106983 0.993636 -0.035247
vn -0.077751 0.996858 0.015150
vn -0.991146 0.123357 -0.049120
vn -0.991315 0.121987 -0.049128
vn -0.998774 0.000000 -0.049497
vn -0.998774 0.000000 -0.049497
vn 0.049532 0.000000 -0.998773
vn 0.049532 0.000000 -0.998773
vn 0.049471 0.044014 -0.997805
vn 0.049468 0.045155 -0.997754
vn -0.049256 0.000000 0.998786
vn -0.049256 0.000000 0.998786
vn -0.049224 0.043480 0.997841
vn -0.049222 0.044582 0.997792
vn 0.036262 0.681489 -0.730929
vn 0.036262 0.681489 -0.730929
vn 0.048863 0.157967 -0.986235
vn 0.048863 0.157967 -0.986235
vn -0.048703 0.156000 0.986556
vn -0.048703 0.156000 0.986556
vn -0.036187 0.683168 0.729364
vn -0.036187 0.683168 0.729364
vn -0.915199 0.400442 -0.045357
vn -0.915199 0.400442 -0.045357
vn -0.364401 0.931067 -0.018052
vn -0.364401 0.931067 -0.018052
s off
g Hallway_Masters:BaseClock Hallway_Masters:Button_Pause_Play
usemtl initialShadingGroup
f 151/253/321 152/256/322 150/255/323 149/254/324
s 1
f 155/248/325 154/247/326 157/250/327 156/252/328
s 2
f 154/247/329 153/249/330 158/251/331 157/250/332
f 149/254/333 150/255/334 158/251/331 153/249/330
s 1
f 155/248/325 156/252/328 162/243/335 159/242/336
s 3
f 161/245/337 164/246/338 152/256/339 151/253/340
s 4
f 150/255/341 152/256/342 164/246/343 158/251/344
s 5
f 151/253/345 149/254/346 153/249/347 161/245/348
s 1
f 156/252/328 157/250/349 163/244/350 162/243/335
s 4
f 157/250/351 158/251/344 164/246/343 163/244/352
s 5
f 153/249/347 154/247/353 160/241/354 161/245/348
s 1
f 154/247/355 155/248/325 159/242/336 160/241/356
s 3
f 161/245/337 160/241/357 163/244/358 164/246/338
s 1
f 160/241/359 159/242/336 162/243/335 163/244/360
g default
v -26.579589 5.601012 24.170902
v -26.575149 5.601012 24.081629
v -26.669381 5.601012 24.166445
v -26.664957 5.601012 24.077164
v -26.579589 5.629660 24.170902
v -26.584796 5.641707 24.169891
v -26.597392 5.646694 24.167456
v -26.593229 5.646694 24.083306
v -26.580443 5.641707 24.082116
v -26.575149 5.629660 24.081629
v -26.651295 5.646694 24.164770
v -26.664079 5.641707 24.165966
v -26.669381 5.629660 24.166445
v -26.647103 5.646694 24.080630
v -26.659739 5.641707 24.078195
v -26.664957 5.629660 24.077164
vt 0.449330 0.700773
vt 0.467568 0.700773
vt 0.467568 0.576450
vt 0.449330 0.576450
vt 0.441781 0.700773
vt 0.441781 0.576450
vt 0.563107 0.700773
vt 0.544896 0.700773
vt 0.570642 0.700773
vt 0.563107 0.576450
vt 0.570642 0.576450
vt 0.544896 0.576450
vt 0.441781 0.700411
vt 0.570642 0.700411
vt 0.570642 0.572409
vt 0.441781 0.572409
vn 0.000000 -1.000000 0.000005
vn 0.000000 -1.000000 0.000005
vn 0.000000 -1.000000 0.000005
vn 0.000000 -1.000000 0.000005
vn 0.094688 0.992162 0.081545
vn 0.364879 0.930880 0.018074
vn 0.364879 0.930880 0.018074
vn 0.070432 0.996282 -0.049620
vn 0.915397 0.399978 0.045460
vn 0.990954 0.124835 0.049263
vn 0.990789 0.126136 0.049255
vn 0.915397 0.399978 0.045460
vn 0.998766 0.000000 0.049672
vn 0.998766 0.000000 0.049672
vn -0.094601 0.992174 -0.081493
vn -0.070408 0.996286 0.049559
vn -0.990778 0.126300 -0.049073
vn -0.990952 0.124923 -0.049082
vn -0.998775 0.000000 -0.049485
vn -0.998775 0.000000 -0.049485
vn 0.049659 0.000000 -0.998766
vn 0.049659 0.000000 -0.998766
vn 0.049617 0.017523 -0.998615
vn 0.049616 0.017702 -0.998611
vn -0.049586 0.000000 0.998770
vn -0.049586 0.000000 0.998770
vn -0.049555 0.017196 0.998623
vn -0.049554 0.017367 0.998620
vn 0.046510 0.341698 -0.938658
vn 0.046510 0.341698 -0.938658
vn 0.049437 0.063018 -0.996787
vn 0.049437 0.063018 -0.996787
vn -0.049406 0.061833 0.996863
vn -0.049406 0.061833 0.996863
vn -0.046586 0.342541 0.938347
vn -0.046586 0.342541 0.938347
vn -0.915234 0.400368 -0.045297
vn -0.915234 0.400368 -0.045297
vn -0.364454 0.931046 -0.018088
vn -0.364454 0.931046 -0.018088
s off
g Hallway_Masters:BaseClock Hallway_Masters:ButtonOn_Off
usemtl initialShadingGroup
f 167/269/361 168/272/362 166/271/363 165/270/364
s 1
f 171/264/365 170/263/366 173/266/367 172/268/368
s 2
f 170/263/369 169/265/370 174/267/371 173/266/372
f 165/270/373 166/271/374 174/267/371 169/265/370
s 1
f 171/264/365 172/268/368 178/259/375 175/258/376
s 3
f 177/261/377 180/262/378 168/272/379 167/269/380
s 4
f 166/271/381 168/272/382 180/262/383 174/267/384
s 5
f 167/269/385 165/270/386 169/265/387 177/261/388
s 1
f 172/268/368 173/266/389 179/260/390 178/259/375
s 4
f 173/266/391 174/267/384 180/262/383 179/260/392
s 5
f 169/265/387 170/263/393 176/257/394 177/261/388
s 1
f 170/263/395 171/264/365 175/258/376 176/257/396
s 3
f 177/261/377 176/257/397 179/260/398 180/262/378
s 1
f 176/257/399 175/258/376 178/259/375 179/260/400
