# This file uses centimeters as units for non-parametric coordinates.

mtllib TV.mtl
g default
v 0.231191 9.195759 21.151206
v -4.861442 9.195759 21.165102
v 0.231191 5.518473 21.151206
v -4.861442 5.518473 21.165102
v 0.231191 7.357117 21.151208
v -4.861442 7.357117 21.165103
v -2.315132 9.195759 21.158155
v -2.315135 7.357115 21.158156
v -2.315132 5.518472 21.158154
v 0.231191 5.702336 21.151208
v -2.315135 5.702336 21.158156
v -4.861442 5.702336 21.165102
v -2.322633 5.702335 18.409121
v 0.231190 5.867815 21.151206
v -2.322634 5.867815 18.409123
v -4.861438 5.867814 21.165103
v -2.315132 5.867813 21.158155
v 0.231191 9.011897 21.151206
v -2.322634 9.011897 18.409123
v -4.861438 9.011897 21.165103
v -2.315135 9.011897 21.158156
v 0.231187 8.846419 21.151206
v -2.315132 8.846417 21.158155
v -4.861437 8.846417 21.165103
v -2.322633 8.846417 18.409121
v -4.614315 7.357116 18.415375
v -4.614317 5.867813 18.415374
v -4.614317 5.702336 18.415376
v -4.606814 5.518471 21.164409
v -4.606814 5.702334 21.164409
v -4.606814 5.867812 21.164407
v -4.606814 7.357116 21.164408
v -4.606816 8.846416 21.164407
v -4.606816 9.011893 21.164409
v -4.606814 9.195758 21.164409
v -4.614315 9.011896 18.415374
v -4.614315 8.846418 18.415376
v -4.385151 5.702337 18.414751
v -4.385151 5.867814 18.414751
v -4.385151 7.357116 18.414749
v -4.385151 8.846417 18.414750
v -4.385151 9.011895 18.414750
v -4.377650 9.195760 21.163783
v -4.377650 9.011895 21.163783
v -4.377650 8.846416 21.163782
v -4.377650 7.357115 21.163783
v -4.377650 5.867816 21.163783
v -4.377650 5.702335 21.163783
v -4.377650 5.518472 21.163783
v -0.030943 5.702336 18.402870
v -0.030943 5.867812 18.402870
v -0.030943 7.357117 18.402870
v -0.030943 8.846419 18.402868
v -0.030940 9.011895 18.402869
v -0.023439 9.195760 21.151902
v -0.023443 9.011894 21.151901
v -0.023439 8.846417 21.151902
v -0.023439 7.357116 21.151902
v -0.023439 5.867814 21.151902
v -0.023439 5.702336 21.151902
v -0.023439 5.518472 21.151902
v -0.260117 7.357117 18.403494
v -0.260117 5.867815 18.403495
v -0.260117 5.702334 18.403495
v -0.252615 5.518472 21.152528
v -0.252615 5.702336 21.152528
v -0.252615 5.867813 21.152528
v -0.252615 7.357117 21.152528
v -0.252615 8.846416 21.152528
v -0.252611 9.011894 21.152526
v -0.252611 9.195760 21.152527
v -0.260112 9.011895 18.403494
v -0.260112 8.846417 18.403494
v -2.323687 7.357116 18.023005
v -2.323055 5.867814 18.254652
v -2.323502 5.935663 18.090852
v -2.323687 6.099463 18.023006
v -4.154549 6.099461 18.028001
v -4.318163 5.935662 18.096296
v -4.385573 5.867814 18.260280
v -4.154549 7.357115 18.028001
v -4.318163 7.357118 18.096296
v -4.385573 7.357115 18.260280
v -4.154549 8.614769 18.028000
v -4.318163 8.778569 18.096295
v -4.385573 8.846417 18.260280
v -2.323689 8.614768 18.023004
v -2.323504 8.778568 18.090853
v -2.323057 8.846420 18.254653
v -0.260535 7.357115 18.249025
v -0.328831 7.357116 18.085411
v -0.492815 7.357117 18.018010
v -0.492815 6.099461 18.018010
v -0.328831 5.935664 18.085411
v -0.260535 5.867815 18.249023
v -0.260534 8.846417 18.249024
v -0.328830 8.778569 18.085410
v -0.492813 8.614769 18.018009
v -4.386364 5.867814 17.970313
v -2.323846 5.867814 17.964685
v -4.386364 8.846417 17.970313
v -2.323846 8.846417 17.964685
v -4.386364 7.357116 17.970313
v -0.261325 5.867814 17.959057
v -0.261325 8.846417 17.959057
v -0.261325 7.357116 17.959057
v -4.386364 5.801613 17.970313
v -4.386093 5.702336 18.069589
v -2.323575 5.702336 18.063961
v -2.323846 5.801613 17.964685
v -4.386093 9.011895 18.069589
v -4.386364 8.912619 17.970313
v -2.323846 8.912619 17.964685
v -2.323575 9.011895 18.063961
v -4.516256 5.867814 17.970667
v -4.615257 5.867814 18.070214
v -4.615257 5.702336 18.070214
v -4.516256 5.801613 17.970667
v -4.516256 7.357116 17.970667
v -4.615257 7.357116 18.070214
v -4.516256 8.846417 17.970667
v -4.615257 8.846417 18.070214
v -4.516256 8.912619 17.970667
v -4.615257 9.011895 18.070214
v -0.261054 5.702336 18.058333
v -0.261325 5.801613 17.959057
v -0.261325 8.912618 17.959057
v -0.261054 9.011895 18.058333
v -0.131430 5.867814 17.958703
v -0.031882 5.867814 18.057708
v -0.031882 7.357116 18.057708
v -0.131430 7.357116 17.958703
v -0.131430 5.801613 17.958703
v -0.031882 5.702336 18.057708
v -0.131430 8.846417 17.958703
v -0.031882 8.846417 18.057708
v -0.031882 9.011895 18.057708
v -0.131430 8.912618 17.958703
v 0.113379 5.628779 18.402475
v 0.224256 5.518472 18.609950
v -0.030940 5.628779 18.402869
v -0.030373 5.518472 18.610645
v 0.113379 9.085452 18.402475
v 0.224256 9.195760 18.609950
v -0.030940 9.085452 18.402869
v -0.030373 9.195760 18.610645
v 0.224256 5.702336 18.609950
v 0.113379 5.702336 18.402475
v -4.868372 5.518472 18.623846
v -4.758633 5.628779 18.415769
v -4.868372 5.702336 18.623846
v -4.758633 5.702336 18.415769
v 0.224256 7.357116 18.609950
v 0.113379 7.357116 18.402475
v 0.224256 8.846417 18.609950
v 0.113379 8.846417 18.402475
v -4.868372 7.357116 18.623846
v -4.758633 7.357116 18.415769
v -4.868372 8.846417 18.623846
v -4.758633 8.846417 18.415769
v -2.322067 5.518472 18.616898
v -2.322633 5.628779 18.409122
v -4.385151 5.628779 18.414750
v -4.384584 5.518472 18.622526
v -2.322633 9.085452 18.409122
v -2.322067 9.195760 18.616898
v -4.385151 9.085452 18.414750
v -4.384584 9.195760 18.622526
v 0.224256 5.867814 18.609950
v 0.113379 5.867814 18.402475
v -4.868372 5.867814 18.623846
v -4.758633 5.867814 18.415769
v 0.113379 9.011895 18.402475
v 0.224256 9.011895 18.609950
v -4.758633 9.085452 18.415769
v -4.868372 9.195760 18.623846
v -4.868372 9.011895 18.623846
v -4.758633 9.011895 18.415769
v -4.613748 5.518472 18.623151
v -4.614315 5.628779 18.415375
v -4.614315 9.085452 18.415375
v -4.613748 9.195760 18.623151
v -0.260112 5.628779 18.403494
v -0.259545 5.518472 18.611270
v -0.259545 9.195760 18.611270
v -0.260112 9.085452 18.403494
v -0.026906 9.195760 19.881273
v 0.227723 9.195759 19.880578
v 0.227723 9.011896 19.880578
v 0.227721 8.846418 19.880578
v 0.227723 7.357116 19.880579
v 0.227723 5.867815 19.880578
v 0.227723 5.702336 19.880579
v 0.227723 5.518472 19.880578
v -0.256081 5.518472 19.881899
v -2.318599 5.518472 19.887526
v -4.381117 5.518472 19.893155
v -4.864909 5.518472 19.894474
v -4.864909 5.702336 19.894474
v -4.864905 5.867814 19.894475
v -4.864909 7.357116 19.894475
v -4.864905 8.846417 19.894475
v -4.864905 9.011896 19.894475
v -4.864909 9.195759 19.894474
v -4.610281 9.195759 19.893780
v -4.381117 9.195760 19.893154
v -2.318600 9.195759 19.887527
v -0.256078 9.195760 19.881899
v 0.227723 5.182723 19.880578
v -0.026906 5.182722 19.881273
v -0.030373 5.182722 18.610645
v 0.224256 5.182722 18.609950
v -0.256081 5.182722 19.881899
v -0.259545 5.182722 18.611270
v 0.231192 5.182723 21.151206
v -0.023439 5.182722 21.151902
v -0.252615 5.182723 21.152528
v -4.613748 5.182722 18.623151
v -4.610281 5.182722 19.893780
v -4.864909 5.182723 19.894474
v -4.868372 5.182722 18.623846
v -4.381117 5.182722 19.893155
v -4.384584 5.182722 18.622526
v -4.377650 5.182722 21.163783
v -4.606816 5.182722 21.164409
v -4.861442 5.182723 21.165102
v -0.028640 9.195760 19.245959
v 0.225989 9.195759 19.245264
v 0.225989 9.011896 19.245264
v 0.225988 8.846418 19.245264
v 0.225989 7.357116 19.245265
v 0.225989 5.867814 19.245264
v 0.225989 5.702336 19.245265
v 0.225989 5.518472 19.245264
v 0.225989 5.182722 19.245264
v -0.028640 5.182722 19.245959
v -0.257813 5.182722 19.246585
v -0.257813 5.518472 19.246585
v -2.320333 5.518472 19.252212
v -4.382851 5.518472 19.257840
v -4.382851 5.182722 19.257840
v -4.612015 5.182722 19.258466
v -4.866641 5.182722 19.259160
v -4.866641 5.518472 19.259160
v -4.866641 5.702336 19.259160
v -4.866639 5.867814 19.259160
v -4.866641 7.357116 19.259160
v -4.866639 8.846417 19.259160
v -4.866639 9.011896 19.259160
v -4.866641 9.195759 19.259160
v -4.612015 9.195759 19.258466
v -4.382851 9.195760 19.257840
v -2.320333 9.195759 19.252212
v -0.257812 9.195760 19.246584
v -2.322067 5.360868 18.616898
v -2.320333 5.360868 19.252212
v -4.382851 5.360868 19.257840
v -4.384584 5.360868 18.622526
v -0.259545 5.360868 18.611270
v -0.257813 5.360868 19.246585
vt 0.701163 0.656224
vt 0.685482 0.656224
vt 0.685482 0.549521
vt 0.701163 0.554382
vt 0.701163 0.758066
vt 0.685482 0.762927
vt 0.670678 0.656224
vt 0.670678 0.549521
vt 0.670678 0.762927
vt 0.738228 0.562237
vt 0.738228 0.668940
vt 0.723424 0.668940
vt 0.723424 0.562237
vt 0.738228 0.775643
vt 0.723424 0.775643
vt 0.707708 0.567098
vt 0.707708 0.668940
vt 0.707708 0.770782
vt 0.744738 0.668940
vt 0.744738 0.562237
vt 0.787332 0.562237
vt 0.787332 0.668940
vt 0.744738 0.775643
vt 0.787332 0.775643
vt 0.838005 0.562237
vt 0.838005 0.668940
vt 0.795411 0.668940
vt 0.795411 0.562237
vt 0.838005 0.775643
vt 0.795411 0.775643
vt 0.181055 0.305335
vt 0.190595 0.305335
vt 0.190595 0.412038
vt 0.181055 0.412038
vt 0.181055 0.300592
vt 0.190595 0.293479
vt 0.223675 0.305335
vt 0.223675 0.412038
vt 0.190595 0.518741
vt 0.181055 0.518741
vt 0.223675 0.293479
vt 0.223675 0.518741
vt 0.190595 0.530597
vt 0.181055 0.523484
vt 0.223675 0.530597
vt 0.174919 0.305335
vt 0.165431 0.305335
vt 0.165431 0.293479
vt 0.174919 0.300592
vt 0.174919 0.412038
vt 0.165431 0.412038
vt 0.132351 0.305335
vt 0.132351 0.293479
vt 0.174919 0.518741
vt 0.165431 0.518741
vt 0.132351 0.412038
vt 0.174919 0.523484
vt 0.165431 0.530597
vt 0.132351 0.518741
vt 0.132351 0.530597
vt 0.516642 0.026023
vt 0.536526 0.033927
vt 0.536526 0.039197
vt 0.516642 0.039197
vt 0.536526 0.051052
vt 0.516642 0.051052
vt 0.455754 0.039197
vt 0.455754 0.026023
vt 0.536526 0.157756
vt 0.516642 0.157756
vt 0.455754 0.051053
vt 0.394867 0.039197
vt 0.394867 0.026023
vt 0.455754 0.001968
vt 0.516642 0.001968
vt 0.536526 0.264459
vt 0.516642 0.264459
vt 0.455754 0.157756
vt 0.394867 0.051053
vt 0.273091 0.026023
vt 0.273091 0.039197
vt 0.394867 0.001968
vt 0.536526 0.276315
vt 0.516642 0.276315
vt 0.455754 0.264459
vt 0.394867 0.157756
vt 0.273091 0.051053
vt 0.273091 0.001968
vt 0.536526 0.281585
vt 0.516642 0.289488
vt 0.455754 0.276315
vt 0.394867 0.264459
vt 0.273091 0.157756
vt 0.455754 0.289488
vt 0.394867 0.276315
vt 0.273091 0.264459
vt 0.394867 0.289488
vt 0.273091 0.276315
vt 0.273091 0.289488
vt 0.543996 0.033927
vt 0.563938 0.026023
vt 0.563938 0.039197
vt 0.543996 0.039197
vt 0.624825 0.026023
vt 0.624825 0.039197
vt 0.563938 0.051052
vt 0.543996 0.051052
vt 0.624825 0.001968
vt 0.563938 0.001968
vt 0.685713 0.026023
vt 0.685713 0.039197
vt 0.624825 0.051052
vt 0.563938 0.157756
vt 0.543996 0.157756
vt 0.685713 0.001968
vt 0.807488 0.026023
vt 0.807488 0.039197
vt 0.685713 0.051052
vt 0.624825 0.157756
vt 0.563938 0.264459
vt 0.543996 0.264459
vt 0.807488 0.001968
vt 0.807488 0.051052
vt 0.685713 0.157756
vt 0.624825 0.264459
vt 0.563938 0.276315
vt 0.543996 0.276315
vt 0.807488 0.157756
vt 0.685713 0.264459
vt 0.624825 0.276315
vt 0.563938 0.289488
vt 0.543996 0.281585
vt 0.807488 0.264459
vt 0.685713 0.276315
vt 0.624825 0.289488
vt 0.807488 0.276315
vt 0.685713 0.289488
vt 0.807488 0.289488
vt 0.359805 0.476142
vt 0.383861 0.476142
vt 0.383861 0.537030
vt 0.359805 0.537030
vt 0.383861 0.415254
vt 0.359805 0.415254
vt 0.383861 0.293479
vt 0.359805 0.293479
vt 0.353670 0.293479
vt 0.353670 0.354367
vt 0.329615 0.354367
vt 0.329615 0.293479
vt 0.353670 0.415255
vt 0.329615 0.415255
vt 0.353670 0.537030
vt 0.329615 0.537030
vt 0.788189 0.779635
vt 0.788189 0.840522
vt 0.776897 0.840522
vt 0.776897 0.779635
vt 0.770762 0.779635
vt 0.770762 0.840522
vt 0.759470 0.840522
vt 0.759470 0.779635
vt 0.623762 0.656200
vt 0.608063 0.656223
vt 0.607524 0.549521
vt 0.623240 0.553008
vt 0.624283 0.759393
vt 0.608603 0.762926
vt 0.593259 0.656245
vt 0.592720 0.549542
vt 0.593798 0.762948
vt 0.663262 0.549543
vt 0.662723 0.656245
vt 0.647919 0.656223
vt 0.648458 0.549521
vt 0.662183 0.762948
vt 0.647379 0.762927
vt 0.632742 0.553008
vt 0.632220 0.656200
vt 0.631699 0.759393
vt 0.535047 0.549583
vt 0.534508 0.656286
vt 0.491913 0.656223
vt 0.492453 0.549521
vt 0.533968 0.762989
vt 0.491374 0.762926
vt 0.542586 0.656286
vt 0.542047 0.549583
vt 0.584641 0.549521
vt 0.585180 0.656223
vt 0.543126 0.762989
vt 0.585720 0.762926
vt 0.322367 0.305321
vt 0.312852 0.305335
vt 0.312792 0.293479
vt 0.322333 0.298601
vt 0.322906 0.412024
vt 0.313391 0.412038
vt 0.279772 0.305384
vt 0.279712 0.293528
vt 0.323445 0.518727
vt 0.313931 0.518741
vt 0.280312 0.412086
vt 0.323479 0.525447
vt 0.313991 0.530597
vt 0.280851 0.518789
vt 0.280911 0.530645
vt 0.240438 0.305335
vt 0.230923 0.305321
vt 0.230957 0.298601
vt 0.240497 0.293479
vt 0.239898 0.412038
vt 0.230384 0.412024
vt 0.273577 0.293528
vt 0.273517 0.305384
vt 0.272978 0.412086
vt 0.239359 0.518741
vt 0.229844 0.518727
vt 0.272439 0.518789
vt 0.239299 0.530597
vt 0.229810 0.525447
vt 0.272379 0.530645
vt 0.728051 0.551206
vt 0.708167 0.556942
vt 0.708100 0.543769
vt 0.728013 0.543740
vt 0.708040 0.531913
vt 0.727953 0.531884
vt 0.707501 0.425210
vt 0.727414 0.425181
vt 0.706961 0.318508
vt 0.726874 0.318478
vt 0.706902 0.306652
vt 0.726815 0.306623
vt 0.706835 0.293479
vt 0.726777 0.299156
vt 0.734545 0.313364
vt 0.740281 0.293479
vt 0.747747 0.293517
vt 0.747718 0.313430
vt 0.759603 0.293577
vt 0.759574 0.313490
vt 0.747628 0.374318
vt 0.734455 0.374251
vt 0.866306 0.294116
vt 0.866277 0.314029
vt 0.759484 0.374378
vt 0.747538 0.435205
vt 0.734365 0.435139
vt 0.973009 0.294656
vt 0.972980 0.314569
vt 0.866187 0.374917
vt 0.759395 0.435265
vt 0.747359 0.556981
vt 0.734186 0.556914
vt 0.984865 0.294716
vt 0.984835 0.314629
vt 0.972890 0.375456
vt 0.866097 0.435805
vt 0.759215 0.557040
vt 0.992331 0.294753
vt 0.998008 0.314695
vt 0.984746 0.375516
vt 0.972800 0.436344
vt 0.865918 0.557580
vt 0.997918 0.375583
vt 0.984656 0.436404
vt 0.972621 0.558119
vt 0.997829 0.436471
vt 0.984477 0.558179
vt 0.997650 0.558246
vt 0.421787 0.476269
vt 0.434960 0.476202
vt 0.435050 0.537090
vt 0.421877 0.537156
vt 0.421698 0.415381
vt 0.434871 0.415314
vt 0.446817 0.476142
vt 0.446906 0.537030
vt 0.421518 0.293606
vt 0.434691 0.293539
vt 0.446727 0.415255
vt 0.446548 0.293479
vt 0.402210 0.537096
vt 0.402120 0.476208
vt 0.415293 0.476142
vt 0.415383 0.537030
vt 0.390355 0.537156
vt 0.390265 0.476268
vt 0.402031 0.415321
vt 0.415204 0.415254
vt 0.390175 0.415381
vt 0.401852 0.293546
vt 0.415024 0.293479
vt 0.389996 0.293605
vt 0.484588 0.656223
vt 0.423700 0.656313
vt 0.423161 0.549610
vt 0.484048 0.549520
vt 0.485127 0.762926
vt 0.424239 0.763016
vt 0.354478 0.647940
vt 0.355017 0.754643
vt 0.233242 0.754822
vt 0.232703 0.648119
vt 0.415366 0.647850
vt 0.415905 0.754553
vt 0.353938 0.541237
vt 0.232163 0.541417
vt 0.414826 0.541147
vt 0.001992 0.252259
vt 0.015165 0.252259
vt 0.015165 0.265432
vt 0.001992 0.265432
vt 0.001992 0.240403
vt 0.015165 0.240403
vt 0.027021 0.252259
vt 0.027021 0.265432
vt 0.015165 0.289488
vt 0.001992 0.289488
vt 0.001992 0.133700
vt 0.015165 0.133700
vt 0.027021 0.240404
vt 0.133724 0.252259
vt 0.133724 0.265432
vt 0.027021 0.289488
vt 0.001992 0.026997
vt 0.015165 0.026997
vt 0.027021 0.133700
vt 0.133724 0.240404
vt 0.240427 0.252259
vt 0.240427 0.265432
vt 0.001992 0.015141
vt 0.015165 0.015141
vt 0.027021 0.026997
vt 0.133724 0.133700
vt 0.240427 0.240403
vt 0.252283 0.252259
vt 0.252283 0.265432
vt 0.001992 0.001968
vt 0.015165 0.001968
vt 0.027021 0.015141
vt 0.133724 0.026997
vt 0.240427 0.133700
vt 0.252283 0.240404
vt 0.265456 0.252259
vt 0.265456 0.265432
vt 0.252283 0.289488
vt 0.240427 0.289488
vt 0.027021 0.001968
vt 0.133724 0.015141
vt 0.240427 0.026997
vt 0.252283 0.133700
vt 0.265455 0.240403
vt 0.265456 0.289488
vt 0.133724 0.001968
vt 0.240427 0.015141
vt 0.252283 0.026997
vt 0.265456 0.133700
vt 0.240427 0.001968
vt 0.252283 0.015141
vt 0.265455 0.026997
vt 0.252283 0.001968
vt 0.265455 0.015141
vt 0.265456 0.001968
vt 0.806060 0.882818
vt 0.794324 0.882827
vt 0.794324 0.779635
vt 0.806060 0.788099
vt 0.806060 0.977536
vt 0.794324 0.986020
vt 0.896166 0.779635
vt 0.896166 0.788099
vt 0.896166 0.882818
vt 0.896166 0.977536
vt 0.896166 0.986020
vt 0.998008 0.779635
vt 0.986272 0.788099
vt 0.986272 0.882817
vt 0.986273 0.977536
vt 0.998008 0.986020
vt 0.998008 0.882827
vt 0.001992 0.541357
vt 0.006735 0.541357
vt 0.006735 0.648060
vt 0.001992 0.648060
vt 0.001992 0.534637
vt 0.006735 0.534637
vt 0.006735 0.754763
vt 0.001992 0.754763
vt 0.113438 0.541357
vt 0.113438 0.534637
vt 0.006735 0.761483
vt 0.001992 0.761483
vt 0.220141 0.534637
vt 0.220141 0.541357
vt 0.113438 0.761483
vt 0.113438 0.754763
vt 0.224884 0.534637
vt 0.224884 0.541357
vt 0.220141 0.761483
vt 0.220141 0.754763
vt 0.224884 0.648060
vt 0.220141 0.648060
vt 0.224884 0.761483
vt 0.224884 0.754763
vt 0.453041 0.545529
vt 0.453041 0.538063
vt 0.458312 0.538063
vt 0.458312 0.545529
vt 0.453041 0.526207
vt 0.458311 0.526207
vt 0.470167 0.538063
vt 0.470167 0.545529
vt 0.453041 0.419504
vt 0.458311 0.419504
vt 0.576871 0.538063
vt 0.576871 0.545529
vt 0.453041 0.312801
vt 0.458312 0.312801
vt 0.683574 0.538063
vt 0.683574 0.545529
vt 0.453041 0.300945
vt 0.458312 0.300945
vt 0.695430 0.538063
vt 0.695430 0.545529
vt 0.458312 0.293479
vt 0.453041 0.293479
vt 0.700700 0.538063
vt 0.700700 0.545529
vt 0.470167 0.293479
vt 0.470167 0.300945
vt 0.695430 0.526207
vt 0.700700 0.526207
vt 0.576871 0.300945
vt 0.576871 0.293479
vt 0.695430 0.419504
vt 0.700700 0.419504
vt 0.683574 0.293479
vt 0.683574 0.300945
vt 0.695430 0.312801
vt 0.700700 0.312801
vt 0.695430 0.293479
vt 0.695430 0.300945
vt 0.700700 0.300945
vt 0.700700 0.293479
vt 0.753335 0.791491
vt 0.753335 0.804664
vt 0.729279 0.804664
vt 0.729279 0.791491
vt 0.753335 0.779635
vt 0.729279 0.779635
vt 0.723144 0.779635
vt 0.723144 0.792807
vt 0.699089 0.792807
vt 0.699089 0.779635
vt 0.723144 0.804663
vt 0.699089 0.804663
vt 0.846083 0.668940
vt 0.846083 0.562237
vt 0.857375 0.562237
vt 0.857375 0.668940
vt 0.846083 0.775642
vt 0.857375 0.775642
vt 0.874916 0.562237
vt 0.874916 0.668940
vt 0.863624 0.668940
vt 0.863624 0.562237
vt 0.874916 0.775643
vt 0.863624 0.775643
vn 0.002729 0.000000 0.999996
vn 0.002731 0.000000 0.999996
vn 0.002732 -0.000001 0.999996
vn 0.002731 -0.000002 0.999996
vn 0.002731 -0.000002 0.999996
vn 0.002730 -0.000003 0.999996
vn 0.002730 0.000001 0.999996
vn 0.002731 0.000000 0.999996
vn 0.002729 0.000000 0.999996
vn 0.002730 -0.000002 0.999996
vn 0.002729 0.000003 0.999996
vn 0.002725 0.000005 0.999996
vn 0.002725 -0.000000 0.999996
vn 0.002726 0.000001 0.999996
vn 0.002725 -0.000000 0.999996
vn 0.002722 -0.000000 0.999996
vn 0.002729 -0.000000 0.999996
vn 0.002731 -0.000000 0.999996
vn 0.002731 0.000000 0.999996
vn 0.002729 -0.000000 0.999996
vn 0.002733 -0.000000 0.999996
vn 0.002728 -0.000000 0.999996
vn 0.002730 0.000000 0.999996
vn 0.002734 0.000000 0.999996
vn 0.002730 -0.000000 0.999996
vn 0.002734 -0.000000 0.999996
vn 0.002729 0.000001 0.999996
vn 0.002730 0.000001 0.999996
vn 0.002729 -0.000005 0.999996
vn 0.002729 -0.000002 0.999996
vn 0.002729 -0.000002 0.999996
vn 0.002729 -0.000004 0.999996
vn 0.002728 0.000000 0.999996
vn 0.002729 0.000000 0.999996
vn 0.002728 0.000000 0.999996
vn 0.002728 0.000000 0.999996
vn 0.002728 0.000000 0.999996
vn 0.002728 0.000000 0.999996
vn 0.002729 -0.000003 0.999996
vn 0.002729 -0.000001 0.999996
vn 0.002729 0.000000 0.999996
vn 0.002729 -0.000001 0.999996
vn 0.002729 0.000000 0.999996
vn 0.002729 -0.000002 0.999996
vn 0.002729 0.000001 0.999996
vn 0.002729 0.000000 0.999996
vn 0.002729 -0.000000 0.999996
vn 0.002729 -0.000002 0.999996
vn 0.002729 -0.000004 0.999996
vn -0.002725 -0.049550 -0.998768
vn -0.002521 -0.382681 -0.923877
vn -0.002521 -0.382681 -0.923877
vn -0.047964 -0.057423 -0.997197
vn -0.001044 -0.923878 -0.382687
vn -0.000564 -0.978365 -0.206885
vn -0.000525 -0.981312 -0.192425
vn -0.001044 -0.923878 -0.382686
vn 0.033287 -0.000001 -0.999446
vn 0.380162 -0.000001 -0.924920
vn 0.380161 0.000000 -0.924920
vn 0.042557 -0.057361 -0.997446
vn 0.922830 -0.000001 -0.385208
vn 0.977931 -0.000001 -0.208926
vn 0.982022 0.000000 -0.188768
vn 0.922830 0.000000 -0.385208
vn -0.002729 -0.000001 -0.999996
vn -0.038741 -0.000001 -0.999249
vn -0.047964 0.057424 -0.997197
vn -0.002725 0.049550 -0.998768
vn 0.042557 0.057362 -0.997446
vn 0.000000 -1.000000 0.000005
vn 0.000000 -1.000000 0.000005
vn -0.999996 0.000000 0.002729
vn -0.999996 -0.000000 0.002729
vn -0.979051 -0.000000 -0.203616
vn -0.983025 0.000000 -0.183469
vn -0.999996 -0.000000 0.002729
vn -0.983025 -0.000000 -0.183469
vn -0.000001 1.000000 0.000008
vn -0.000000 1.000000 0.000008
vn -0.000565 0.978365 -0.206887
vn -0.000526 0.981311 -0.192426
vn 0.999996 -0.000001 -0.002716
vn 0.999996 -0.000000 -0.002711
vn 0.000000 -1.000000 0.000004
vn -0.000527 -0.981131 -0.193343
vn 0.999996 -0.000002 -0.002720
vn 0.982021 -0.000002 -0.188773
vn 0.000000 1.000000 0.000008
vn -0.000527 0.981131 -0.193343
vn -0.385204 0.000000 -0.922832
vn -0.385204 -0.000000 -0.922832
vn -0.924903 0.000000 -0.380204
vn -0.924903 -0.000000 -0.380204
vn -0.385204 -0.000001 -0.922832
vn -0.924903 -0.000000 -0.380204
vn -0.002521 0.382687 -0.923874
vn -0.002521 0.382687 -0.923874
vn -0.001044 0.923876 -0.382690
vn -0.001044 0.923876 -0.382690
vn 0.922830 -0.000001 -0.385208
vn 0.380163 -0.000001 -0.924920
vn -0.001044 -0.923877 -0.382688
vn -0.002521 -0.382681 -0.923877
vn -0.002521 0.382687 -0.923874
vn -0.001044 0.923876 -0.382690
vn -0.000000 1.000000 -0.000002
vn -0.000000 1.000000 -0.000002
vn -0.000000 1.000000 -0.000002
vn -0.000000 1.000000 -0.000002
vn 0.000000 -1.000000 -0.000001
vn 0.000000 -1.000000 -0.000001
vn 0.000000 -1.000000 -0.000001
vn 0.000000 -1.000000 -0.000001
vn 0.999996 -0.000000 -0.002728
vn 0.999996 0.000000 -0.002728
vn 0.999996 0.000000 -0.002728
vn 0.999996 -0.000000 -0.002728
vn 0.999996 -0.000000 -0.002728
vn 0.999996 -0.000000 -0.002728
vn -0.000000 1.000000 -0.000002
vn -0.000000 1.000000 -0.000002
vn 0.000000 -1.000000 -0.000001
vn 0.000000 -1.000000 -0.000001
vn -0.999996 0.000000 0.002719
vn -0.999996 0.000001 0.002721
vn -0.999996 0.000001 0.002721
vn -0.999996 0.000000 0.002719
vn -0.999996 0.000002 0.002724
vn -0.999996 0.000002 0.002724
vn -0.001929 -0.707107 -0.707104
vn -0.001929 -0.707106 -0.707105
vn -0.001930 -0.707106 -0.707105
vn -0.001930 -0.707106 -0.707105
vn -0.001929 -0.707107 -0.707104
vn -0.001929 -0.707107 -0.707104
vn -0.001929 -0.707107 -0.707104
vn -0.001929 -0.707107 -0.707104
vn -0.001929 0.707106 -0.707104
vn -0.001929 0.707106 -0.707105
vn -0.001930 0.707106 -0.707105
vn -0.001930 0.707106 -0.707105
vn -0.001929 0.707107 -0.707104
vn -0.001929 0.707107 -0.707104
vn -0.001929 0.707108 -0.707103
vn -0.001929 0.707108 -0.707103
vn -0.709051 0.000000 -0.705157
vn -0.709051 0.000000 -0.705157
vn -0.709051 0.000000 -0.705157
vn -0.709051 0.000000 -0.705157
vn -0.709051 0.000000 -0.705158
vn -0.709051 0.000000 -0.705158
vn -0.709050 0.000000 -0.705158
vn -0.709050 0.000000 -0.705158
vn -0.709050 0.000000 -0.705158
vn -0.709050 0.000000 -0.705158
vn -0.001930 -0.707107 -0.707104
vn -0.001930 -0.707107 -0.707104
vn -0.001930 0.707108 -0.707103
vn -0.001930 0.707108 -0.707103
vn 0.705173 0.000000 -0.709035
vn 0.705173 0.000000 -0.709035
vn 0.705173 0.000000 -0.709036
vn 0.705173 0.000000 -0.709036
vn 0.705173 0.000000 -0.709035
vn 0.705173 0.000000 -0.709035
vn 0.705173 0.000000 -0.709035
vn 0.705173 0.000000 -0.709035
vn 0.705172 0.000000 -0.709036
vn 0.705172 0.000000 -0.709036
vn -0.002729 0.000000 -0.999996
vn -0.002728 0.000000 -0.999996
vn -0.002729 0.000000 -0.999996
vn -0.002729 0.000000 -0.999996
vn -0.002728 0.000000 -0.999996
vn -0.002729 0.000000 -0.999996
vn -0.002729 0.000000 -0.999996
vn -0.002729 0.000000 -0.999996
vn -0.002729 0.000000 -0.999996
vn -0.002728 0.000000 -0.999996
vn -0.002728 0.000000 -0.999996
vn -0.002728 0.000000 -0.999996
vn -0.002728 0.000000 -0.999996
vn -0.002729 0.000000 -0.999996
vn -0.002728 0.000000 -0.999996
vn -0.002729 0.000000 -0.999996
vn -0.002729 0.000000 -0.999996
vn -0.002729 0.000000 -0.999996
vn -0.002728 0.000000 -0.999996
vn -0.002727 0.000000 -0.999996
vn -0.002728 0.000000 -0.999996
vn -0.002729 0.000000 -0.999996
vn -0.002729 0.000000 -0.999996
vn -0.002729 0.000000 -0.999996
vn -0.000000 -1.000000 -0.000003
vn -0.000000 -1.000000 -0.000001
vn -0.000000 -1.000000 -0.000001
vn -0.000000 -1.000000 -0.000003
vn -0.000000 1.000000 -0.000003
vn 0.000000 1.000000 -0.000003
vn 0.000000 1.000000 -0.000003
vn -0.000000 1.000000 -0.000003
vn -0.999996 0.000000 0.002722
vn -0.999996 0.000001 0.002725
vn -0.999996 0.000001 0.002725
vn -0.999996 0.000000 0.002722
vn 0.000002 -1.000000 -0.000000
vn 0.000002 -1.000000 -0.000000
vn -0.999996 0.000000 0.002727
vn -0.999996 0.000000 0.002727
vn -0.999996 0.000000 0.002729
vn -0.999996 0.000000 0.002729
vn -0.999996 0.000000 0.002729
vn -0.999996 0.000000 0.002729
vn 0.000001 1.000000 -0.000001
vn 0.000001 1.000000 -0.000001
vn 0.000000 -1.000000 -0.000004
vn 0.000000 -1.000000 -0.000004
vn 0.000000 1.000000 -0.000002
vn 0.000000 1.000000 -0.000002
vn 0.999996 0.000000 -0.002719
vn 0.999996 0.000000 -0.002719
vn 0.999996 0.000000 -0.002719
vn 0.999996 0.000000 -0.002719
vn 0.999996 0.000000 -0.002719
vn 0.999996 0.000000 -0.002719
vn 0.000005 -1.000000 -0.000003
vn 0.000005 -1.000000 -0.000003
vn 0.999996 -0.000011 -0.002724
vn 0.999996 -0.000001 -0.002720
vn 0.999996 -0.000001 -0.002720
vn 0.999996 -0.000011 -0.002724
vn -0.000001 1.000000 -0.000000
vn -0.000001 1.000000 -0.000000
vn -0.001280 -0.883245 -0.468909
vn -0.001280 -0.883245 -0.468909
vn -0.001279 -0.883245 -0.468910
vn -0.001279 -0.883245 -0.468909
vn 0.881958 0.000000 -0.471327
vn 0.881958 0.000000 -0.471327
vn 0.881958 0.000000 -0.471327
vn 0.881958 0.000000 -0.471327
vn -0.001279 -0.883246 -0.468909
vn -0.001279 -0.883246 -0.468909
vn 0.881958 0.000000 -0.471327
vn 0.881958 0.000000 -0.471327
vn 0.881958 0.000000 -0.471328
vn 0.881958 0.000000 -0.471328
vn -0.001280 0.883245 -0.468910
vn -0.001280 0.883245 -0.468910
vn -0.001279 0.883245 -0.468910
vn -0.001279 0.883245 -0.468910
vn -0.001279 0.883245 -0.468910
vn -0.001279 0.883245 -0.468910
vn 0.881958 0.000000 -0.471327
vn 0.881958 0.000000 -0.471327
vn -0.001279 -0.883245 -0.468910
vn -0.001279 -0.883245 -0.468910
vn -0.001279 -0.883245 -0.468910
vn -0.001279 -0.883245 -0.468910
vn -0.884524 0.000000 -0.466494
vn -0.884524 0.000000 -0.466494
vn -0.884524 0.000000 -0.466494
vn -0.884524 0.000000 -0.466494
vn -0.884524 0.000000 -0.466494
vn -0.884524 0.000000 -0.466494
vn 0.881958 0.000000 -0.471327
vn 0.881958 0.000000 -0.471327
vn 0.881958 0.000000 -0.471327
vn 0.881958 0.000000 -0.471327
vn -0.884524 0.000000 -0.466494
vn -0.884524 0.000000 -0.466494
vn -0.884524 0.000000 -0.466494
vn -0.884524 0.000000 -0.466494
vn -0.884524 0.000000 -0.466494
vn -0.884524 0.000000 -0.466494
vn -0.001279 -0.883246 -0.468909
vn -0.001279 -0.883246 -0.468909
vn -0.001279 -0.883245 -0.468910
vn -0.001279 -0.883245 -0.468910
vn -0.001279 0.883245 -0.468909
vn -0.001279 0.883245 -0.468909
vn -0.001279 0.883245 -0.468909
vn -0.001279 0.883245 -0.468909
vn -0.001279 0.883245 -0.468909
vn -0.001279 0.883245 -0.468909
vn -0.001279 0.883245 -0.468909
vn -0.001279 0.883245 -0.468909
vn -0.884525 0.000000 -0.466494
vn -0.884525 0.000000 -0.466494
vn -0.002732 0.000005 -0.999996
vn -0.002730 0.000009 -0.999996
vn -0.002732 0.000005 -0.999996
vn -0.002734 0.000002 -0.999996
vn 0.000000 1.000000 0.000000
vn 0.000000 1.000000 -0.000000
vn 0.000000 1.000000 0.000000
vn 0.000001 1.000000 0.000000
vn 0.000001 -1.000000 0.000000
vn 0.000000 -1.000000 0.000000
vn 0.000000 -1.000000 -0.000000
vn 0.000001 -1.000000 -0.000000
vn -0.999996 0.000000 0.002725
vn -0.999996 -0.000000 0.002726
vn -0.999996 0.000007 0.002726
vn -0.999996 0.000004 0.002726
vn 0.999996 0.000000 -0.002729
vn 0.999996 0.000000 -0.002729
vn 0.999996 0.000000 -0.002729
vn 0.999996 0.000000 -0.002729
vn 0.999996 0.000000 -0.002729
vn 0.999996 -0.000004 -0.002728
vn 0.999996 -0.000002 -0.002728
vn 0.999996 0.000000 -0.002729
vn -0.999996 -0.000004 0.002728
vn -0.999996 -0.000007 0.002728
vn -0.999996 -0.000013 0.002727
vn -0.999996 -0.000008 0.002727
vn -0.002726 0.000002 -0.999996
vn -0.002727 0.000001 -0.999996
vn -0.002728 0.000000 -0.999996
vn -0.002728 0.000000 -0.999996
vn -0.002728 -0.000002 -0.999996
vn -0.002728 0.000002 -0.999996
vn -0.002727 0.000009 -0.999996
vn -0.002726 0.000005 -0.999996
vn -0.002728 0.000005 -0.999996
vn -0.002728 0.000001 -0.999996
vn -0.002730 -0.000002 -0.999996
vn -0.002732 0.000005 -0.999996
vn 0.000001 1.000000 0.000000
vn -0.000000 1.000000 0.000000
vn -0.000000 1.000000 0.000000
vn 0.000000 1.000000 0.000000
vn -0.000000 -1.000000 -0.000000
vn -0.000001 -1.000000 0.000000
vn -0.000002 -1.000000 0.000000
vn -0.000001 -1.000000 -0.000000
vn 0.999996 0.000000 -0.002728
vn 0.999996 0.000000 -0.002729
vn 0.999996 0.000000 -0.002729
vn 0.999996 0.000000 -0.002728
vn -0.999996 -0.000000 0.002727
vn -0.999996 0.000000 0.002727
vn -0.999996 -0.000000 0.002727
vn -0.999996 -0.000000 0.002727
vn -0.002728 0.000000 -0.999996
vn -0.002731 -0.000000 -0.999996
vn -0.002731 -0.000000 -0.999996
vn -0.002728 0.000000 -0.999996
vn -0.002734 0.000000 -0.999996
vn -0.002734 0.000000 -0.999996
vn -0.002732 -0.000000 -0.999996
vn -0.002732 -0.000000 -0.999996
vn 0.999996 0.000000 -0.002728
vn 0.999996 0.000000 -0.002727
vn -0.002729 -0.000000 -0.999996
vn -0.002729 -0.000000 -0.999996
vn -0.002725 -0.000000 -0.999996
vn -0.002725 -0.000000 -0.999996
vn -0.999996 0.000001 0.002727
vn -0.999996 0.000001 0.002727
vn -0.002729 0.000001 -0.999996
vn -0.002729 0.000001 -0.999996
vn -0.002729 -0.000000 -0.999996
vn -0.002729 -0.000000 -0.999996
vn -0.000000 -1.000000 0.000000
vn -0.000000 -1.000000 0.000000
vn 0.000000 -1.000000 0.000000
vn 0.000000 -1.000000 0.000000
vn -0.000000 1.000000 0.000000
vn 0.000000 1.000000 0.000000
vn 0.000000 1.000000 0.000000
vn -0.000000 1.000000 0.000000
vn -0.002729 -0.000005 -0.999996
vn -0.002729 -0.000005 -0.999996
vn -0.002728 -0.000004 -0.999996
vn -0.002728 -0.000004 -0.999996
vn 0.000001 -1.000000 0.000000
vn 0.000001 -1.000000 0.000000
vn -0.002728 0.000001 -0.999996
vn -0.002728 0.000001 -0.999996
vn -0.002729 -0.000005 -0.999996
vn -0.002729 -0.000005 -0.999996
vn -0.000000 1.000000 0.000000
vn -0.000000 1.000000 -0.000000
vn -0.000000 -1.000000 0.000000
vn -0.000000 -1.000000 0.000000
vn -0.000001 -1.000000 -0.000000
vn -0.000001 -1.000000 -0.000000
vn 0.000002 1.000000 0.000000
vn 0.000001 1.000000 0.000000
vn 0.000002 1.000000 0.000000
vn 0.000003 1.000000 0.000000
vn 0.999996 -0.000009 -0.002729
vn 0.999996 -0.000008 -0.002729
vn 0.999996 0.000000 -0.002729
vn 0.999996 0.000000 -0.002729
vn 0.999996 -0.000000 -0.002728
vn 0.999996 -0.000000 -0.002728
vn 0.999996 0.000001 -0.002729
vn 0.999996 0.000001 -0.002728
vn 0.999996 0.000000 -0.002729
vn 0.999996 -0.000000 -0.002729
vn 0.999996 0.000001 -0.002729
vn 0.999996 0.000001 -0.002729
vn 0.999996 0.000002 -0.002730
vn 0.999996 0.000002 -0.002729
vn 0.000003 -1.000000 0.000000
vn 0.000001 -1.000000 0.000000
vn 0.000001 -1.000000 0.000000
vn 0.000003 -1.000000 0.000000
vn -0.000002 -1.000000 0.000000
vn -0.000002 -1.000000 0.000000
vn 0.000000 -1.000000 0.000000
vn 0.000000 -1.000000 0.000000
vn 0.000000 -1.000000 0.000000
vn 0.000000 -1.000000 0.000000
vn 0.000000 -1.000000 -0.000000
vn 0.000000 -1.000000 -0.000000
vn -0.000001 -1.000000 0.000000
vn 0.000001 -1.000000 0.000000
vn 0.000001 -1.000000 0.000000
vn -0.000002 -1.000000 0.000000
vn -0.000004 -1.000000 0.000000
vn -0.000004 -1.000000 0.000000
vn -0.999996 0.000011 0.002728
vn -0.999996 -0.000000 0.002728
vn -0.999996 0.000000 0.002729
vn -0.999996 0.000011 0.002729
vn -0.999996 0.000000 0.002728
vn -0.999996 0.000000 0.002729
vn -0.999996 0.000000 0.002728
vn -0.999996 0.000000 0.002729
vn -0.999996 0.000002 0.002729
vn -0.999996 0.000002 0.002729
vn -0.999996 -0.000012 0.002729
vn -0.999996 -0.000012 0.002729
vn -0.999996 -0.000020 0.002728
vn -0.999996 -0.000021 0.002729
vn -0.000002 1.000000 0.000000
vn -0.000001 1.000000 0.000000
vn 0.000001 1.000000 0.000000
vn 0.000002 1.000000 0.000000
vn -0.000000 1.000000 0.000000
vn -0.000000 1.000000 0.000000
vn 0.000000 1.000000 0.000000
vn 0.000000 1.000000 0.000000
vn -0.000000 1.000000 0.000000
vn -0.000000 1.000000 0.000000
vn -0.002729 0.000000 -0.999996
vn -0.002729 0.000000 -0.999996
vn -0.002729 0.000000 -0.999996
vn -0.002729 0.000000 -0.999996
vn 0.999996 0.000000 -0.002729
vn 0.999996 0.000000 -0.002729
vn -0.999996 0.000000 0.002727
vn -0.999996 0.000000 0.002727
vn -0.999996 0.000000 0.002726
vn -0.999996 0.000000 0.002726
vn -0.002729 0.000000 -0.999996
vn -0.002729 0.000000 -0.999996
vn 0.002732 0.000000 0.999996
vn 0.002732 0.000000 0.999996
vn 0.999996 0.000003 -0.002730
vn 0.999996 0.000002 -0.002729
vn 0.002732 0.000000 0.999996
vn -0.999996 0.000000 0.002727
vn -0.999996 0.000000 0.002727
vn -0.999996 0.000000 0.002727
vn -0.999996 0.000000 0.002727
vn -0.999996 -0.000000 0.002726
vn -0.999996 0.000000 0.002725
vn -0.002728 0.000000 -0.999996
vn -0.002729 0.000000 -0.999996
vn -0.002729 0.000000 -0.999996
vn -0.002728 0.000000 -0.999996
vn 0.999996 0.000000 -0.002729
vn 0.999996 0.000000 -0.002729
vn 0.999996 0.000000 -0.002729
vn 0.999996 0.000000 -0.002729
vn -0.002729 0.000000 -0.999996
vn -0.002729 0.000000 -0.999996
vn 0.999996 0.000000 -0.002729
vn 0.999996 0.000000 -0.002728
vn 0.999996 0.000000 -0.002728
vn 0.999996 0.000000 -0.002729
vn 0.002725 -0.000000 0.999996
vn 0.002729 -0.000000 0.999996
vn 0.002722 -0.000000 0.999996
vn -0.999996 -0.000000 0.002728
vn -0.999996 0.000000 0.002729
vn 0.000000 -1.000000 0.000000
vn 0.000000 -1.000000 0.000000
vn -0.000000 -1.000000 0.000000
vn 0.002729 0.000000 0.999996
vn 0.002729 0.000000 0.999996
vn 0.002729 0.000000 0.999996
vn 0.002729 0.000000 0.999996
vn -0.999996 0.000000 0.002729
vn -0.999996 0.000000 0.002729
vn -0.999996 0.000000 0.002729
vn -0.999996 0.000000 0.002729
vn -0.002729 0.000000 -0.999996
vn -0.002729 0.000000 -0.999996
vn -0.002729 0.000000 -0.999996
vn -0.002729 0.000000 -0.999996
vn 0.999996 0.000000 -0.002726
vn 0.999996 0.000000 -0.002726
vn 0.999996 0.000000 -0.002726
vn 0.999996 0.000000 -0.002726
vn 0.002728 0.000000 0.999996
vn 0.002728 0.000000 0.999996
vn -0.002729 0.000000 -0.999996
vn -0.002729 0.000000 -0.999996
s 1
g TV2
usemtl initialShadingGroup
f 10/311/1 60/312/2 61/313/3 3/314/4
f 1/340/5 55/341/6 56/334/7 18/333/8
f 20/364/9 34/361/10 35/363/11 2/365/12
f 29/339/13 30/338/14 12/346/15 4/347/16
f 5/321/17 58/322/18 59/316/19 14/315/20
f 16/354/21 31/345/22 32/353/23 6/359/24
f 12/346/15 30/338/14 31/345/22 16/354/21
f 14/315/20 59/316/19 60/312/2 10/311/1
f 32/353/23 33/358/25 24/362/26 6/359/24
f 22/327/27 57/328/28 58/322/18 5/321/17
f 18/333/8 56/334/7 57/328/28 22/327/27
f 24/362/26 33/358/25 34/361/10 20/364/9
f 9/325/29 11/324/30 48/331/31 49/332/32
f 47/337/33 48/331/31 11/324/30 17/330/34
f 46/344/35 47/337/33 17/330/34 8/336/36
f 8/336/36 23/343/37 45/352/38 46/344/35
f 44/357/39 45/352/38 23/343/37 21/351/40
f 43/360/41 44/357/39 21/351/40 7/356/42
f 35/363/11 34/361/10 44/357/39 43/360/41
f 34/361/10 33/358/25 45/352/38 44/357/39
f 46/344/35 45/352/38 33/358/25 32/353/23
f 32/353/23 31/345/22 47/337/33 46/344/35
f 31/345/22 30/338/14 48/331/31 47/337/33
f 49/332/32 48/331/31 30/338/14 29/339/13
f 70/342/43 71/350/44 7/356/42 21/351/40
f 69/335/45 70/342/43 21/351/40 23/343/37
f 68/329/46 69/335/45 23/343/37 8/336/36
f 67/323/47 68/329/46 8/336/36 17/330/34
f 66/317/48 67/323/47 17/330/34 11/324/30
f 65/318/49 66/317/48 11/324/30 9/325/29
f 61/313/3 60/312/2 66/317/48 65/318/49
f 60/312/2 59/316/19 67/323/47 66/317/48
f 59/316/19 58/322/18 68/329/46 67/323/47
f 58/322/18 57/328/28 69/335/45 68/329/46
f 57/328/28 56/334/7 70/342/43 69/335/45
f 56/334/7 55/341/6 71/350/44 70/342/43
s 7
f 77/366/50 76/367/51 79/368/52 78/369/53
s 8
f 76/163/54 75/164/55 80/165/56 79/166/57
s 7
f 92/375/58 91/376/59 94/371/60 93/370/61
s 10
f 91/1/62 90/2/63 95/3/64 94/4/65
s 7
f 74/374/66 77/366/50 78/369/53 81/373/67
f 81/373/67 84/378/68 87/379/69 74/374/66
f 92/375/58 93/370/61 77/366/50 74/374/66
f 98/380/70 92/375/58 74/374/66 87/379/69
s 8
f 15/169/71 39/170/72 80/165/56 75/164/55
s 11
f 39/10/73 40/11/74 83/12/75 80/13/76
f 40/11/74 41/14/77 86/15/78 83/12/75
s 12
f 41/172/79 25/173/80 89/174/81 86/175/82
s 10
f 62/7/83 63/8/84 95/3/64 90/2/63
s 8
f 63/171/85 15/169/71 75/164/55 95/168/86
s 10
f 73/9/87 62/7/83 90/2/63 96/6/88
s 12
f 25/173/80 73/176/89 96/177/90 89/174/81
s 7
f 78/369/53 79/368/91 82/372/92 81/373/67
s 11
f 79/16/93 80/13/76 83/12/75 82/17/94
s 7
f 81/373/67 82/372/92 85/377/95 84/378/68
s 11
f 82/17/94 83/12/75 86/15/78 85/18/96
s 7
f 84/378/68 85/377/97 88/382/98 87/379/69
s 12
f 85/178/99 86/175/82 89/174/81 88/179/100
s 10
f 90/2/63 91/1/62 97/5/101 96/6/88
s 7
f 91/376/59 92/375/58 98/380/70 97/381/102
s 8
f 75/164/55 76/163/54 94/167/103 95/168/86
s 7
f 76/367/51 77/366/50 93/370/61 94/371/104
f 87/379/69 88/382/98 97/381/105 98/380/70
s 12
f 88/179/100 89/174/81 96/177/90 97/180/106
s 13
f 39/181/107 15/182/108 100/183/109 99/184/110
s 14
f 25/187/111 41/188/112 101/189/113 102/190/114
s 15
f 40/19/115 39/20/116 99/21/117 103/22/118
f 41/23/119 40/19/115 103/22/118 101/24/120
s 13
f 15/182/108 63/185/121 104/186/122 100/183/109
s 14
f 73/191/123 25/187/111 102/190/114 105/192/124
s 16
f 63/25/125 62/26/126 106/27/127 104/28/128
f 62/26/126 73/29/129 105/30/130 106/27/127
s 17
f 107/193/131 108/194/132 117/195/133 118/196/134
f 108/194/132 107/193/131 110/197/135 109/198/136
f 109/198/136 110/197/135 126/201/137 125/202/138
s 18
f 111/208/139 112/209/140 123/210/141 124/211/142
f 112/209/140 111/208/139 114/212/143 113/213/144
f 113/213/144 114/212/143 128/217/145 127/218/146
s 19
f 115/31/147 116/32/148 120/33/149 119/34/150
f 116/32/148 115/31/147 118/35/151 117/36/152
f 119/34/150 120/33/149 122/39/153 121/40/154
f 121/40/154 122/39/153 124/43/155 123/44/156
s 17
f 125/202/138 126/201/137 133/204/157 134/205/158
s 18
f 127/218/146 128/217/145 137/220/159 138/221/160
s 20
f 129/46/161 130/47/162 134/48/163 133/49/164
f 130/47/162 129/46/161 132/50/165 131/51/166
f 131/51/166 132/50/165 135/54/167 136/55/168
f 136/55/168 135/54/167 138/57/169 137/58/170
s 21
f 107/383/171 99/384/172 100/385/173 110/386/174
f 101/396/175 112/400/176 113/403/177 102/404/178
f 118/387/179 115/388/180 99/384/172 107/383/171
f 103/391/181 99/384/172 115/388/180 119/392/182
f 119/392/182 121/395/183 101/396/175 103/391/181
f 121/395/183 123/399/184 112/400/176 101/396/175
f 104/389/185 126/390/186 110/386/174 100/385/173
f 127/406/187 105/402/188 102/404/178 113/403/177
f 132/397/189 129/393/190 104/389/185 106/398/191
f 129/393/190 133/394/192 126/390/186 104/389/185
f 138/405/193 135/401/194 105/402/188 127/406/187
f 135/401/194 132/397/189 106/398/191 105/402/188
s 23
f 13/203/195 38/199/196 108/194/197 109/198/198
s 24
f 42/215/199 19/216/200 114/212/201 111/208/202
s 25
f 28/41/203 27/37/204 116/32/205 117/36/206
s 23
f 38/199/196 28/200/207 117/195/208 108/194/197
s 25
f 27/37/204 26/38/209 120/33/210 116/32/205
f 26/38/209 37/42/211 122/39/212 120/33/210
f 37/42/211 36/45/213 124/43/214 122/39/212
s 24
f 36/214/215 42/215/199 111/208/202 124/211/216
s 23
f 64/206/217 13/203/195 109/198/198 125/202/218
s 24
f 19/216/200 72/219/219 128/217/220 114/212/201
s 26
f 52/56/221 51/52/222 130/47/223 131/51/224
f 51/52/222 50/53/225 134/48/226 130/47/223
s 23
f 50/207/227 64/206/217 125/202/218 134/205/228
s 26
f 54/60/229 53/59/230 136/55/231 137/58/232
s 24
f 72/219/219 54/222/233 137/220/234 128/217/220
s 26
f 53/59/230 52/56/221 131/51/224 136/55/231
s 27
f 139/223/235 140/224/236 142/225/237 141/226/238
s 28
f 140/61/239 139/62/240 148/63/241 147/64/242
s 27
f 141/226/238 142/225/237 184/227/243 183/228/244
s 28
f 143/89/245 144/90/246 174/84/247 173/83/248
s 30
f 144/237/249 143/238/250 145/239/251 146/240/252
f 146/240/252 145/239/251 186/241/253 185/242/254
s 28
f 147/64/242 148/63/241 170/65/255 169/66/256
s 27
f 149/235/257 150/236/258 180/234/259 179/233/260
s 32
f 150/100/261 149/101/262 151/102/263 152/103/264
f 152/103/264 151/102/263 171/106/265 172/107/266
s 28
f 153/70/267 154/69/268 156/76/269 155/77/270
f 154/69/268 153/70/267 169/66/256 170/65/255
f 155/77/270 156/76/269 173/83/248 174/84/247
s 32
f 157/113/271 158/114/272 172/107/266 171/106/265
f 158/114/272 157/113/271 159/120/273 160/121/274
f 160/121/274 159/120/273 177/126/275 178/127/276
s 27
f 161/229/277 162/230/278 183/228/244 184/227/243
f 162/230/278 161/229/277 164/231/279 163/232/280
f 163/232/280 164/231/279 179/233/260 180/234/259
s 30
f 165/245/281 166/246/282 185/242/254 186/241/253
f 166/246/282 165/245/281 167/250/283 168/251/284
f 168/251/284 167/250/283 181/256/285 182/257/286
f 175/261/287 176/262/288 182/257/286 181/256/285
s 32
f 176/131/289 175/132/290 178/127/276 177/126/275
s 33
f 139/407/291 141/408/292 50/409/293 148/410/294
s 34
f 144/237/295 146/240/296 227/243/297 228/244/298
s 35
f 235/272/299 236/273/300 211/274/301 212/275/302
s 36
f 149/101/303 244/104/304 245/105/305 151/102/306
s 37
f 233/67/307 234/68/308 140/61/309 147/64/310
f 228/94/311 229/91/312 174/84/313 144/90/314
s 36
f 177/126/315 249/130/316 250/135/317 176/131/318
s 33
f 173/426/319 54/425/320 145/429/321 143/430/322
f 152/427/323 28/424/324 180/423/325 150/428/326
f 181/445/327 36/444/328 178/443/329 175/446/330
s 34
f 250/266/331 251/263/332 182/257/333 176/262/334
s 44
f 218/284/335 242/285/336 243/286/337 221/287/338
s 37
f 231/78/339 232/71/340 169/66/341 153/70/342
s 36
f 171/106/343 246/112/344 247/119/345 157/113/346
s 33
f 26/435/347 27/432/348 172/431/349 158/436/350
f 170/414/351 51/413/352 52/417/353 154/418/354
s 37
f 232/71/340 233/67/307 147/64/310 169/66/341
s 33
f 148/410/294 50/409/293 51/413/352 170/414/351
f 172/431/349 27/432/348 28/424/324 152/427/323
s 36
f 151/102/306 245/105/305 246/112/344 171/106/343
s 37
f 230/85/355 231/78/339 153/70/342 155/77/356
s 33
f 154/418/354 52/417/353 53/421/357 156/422/358
f 160/439/359 37/440/360 26/435/347 158/436/350
s 36
f 157/113/346 247/119/345 248/125/361 159/120/362
s 37
f 229/91/312 230/85/355 155/77/356 174/84/313
s 36
f 159/120/362 248/125/361 249/130/316 177/126/315
s 33
f 178/443/329 36/444/328 37/440/360 160/439/359
f 156/422/358 53/421/357 54/425/320 173/426/319
f 163/419/363 38/420/364 13/416/365 162/415/366
s 46
f 255/296/367 256/297/368 257/298/369 258/299/370
s 34
f 252/258/371 253/252/372 166/246/373 168/251/374
s 33
f 165/438/375 19/437/376 42/441/377 167/442/378
f 180/423/325 28/424/324 38/420/364 163/419/363
f 167/442/378 42/441/377 36/444/328 181/445/327
s 34
f 251/263/332 252/258/371 168/251/374 182/257/333
s 44
f 223/288/379 241/289/380 242/285/336 218/284/335
s 33
f 64/412/381 183/411/382 162/415/366 13/416/365
f 186/434/383 72/433/384 19/437/376 165/438/375
s 34
f 253/252/372 254/247/385 185/242/386 166/246/373
s 46
f 259/300/387 260/301/388 256/297/368 255/296/367
s 33
f 50/409/293 141/408/292 183/411/382 64/412/381
s 35
f 211/274/301 236/273/300 237/278/389 214/279/390
s 34
f 254/247/385 227/243/297 146/240/296 185/242/386
s 33
f 145/429/321 54/425/320 72/433/384 186/434/383
s 34
f 188/249/391 187/248/392 55/254/393 1/255/394
s 37
f 18/98/395 189/95/396 188/97/397 1/99/398
f 22/96/399 190/92/400 189/95/396 18/98/395
f 5/93/401 191/86/402 190/92/400 22/96/399
f 14/87/403 192/79/404 191/86/402 5/93/401
f 10/81/405 193/72/406 192/79/404 14/87/403
f 3/80/407 194/73/408 193/72/406 10/81/405
s 35
f 215/280/409 216/281/410 210/277/411 209/276/412
f 213/282/413 210/277/411 216/281/410 217/283/414
s 51
f 196/302/415 195/303/416 65/304/417 9/305/418
f 197/308/419 196/302/415 9/305/418 49/309/420
s 44
f 219/290/421 222/292/422 224/295/423 225/293/424
f 220/291/425 219/290/421 225/293/424 226/294/426
s 36
f 199/111/427 198/110/428 4/116/429 12/117/430
f 200/118/431 199/111/427 12/117/430 16/123/432
f 201/124/433 200/118/431 16/123/432 6/128/434
f 202/129/435 201/124/433 6/128/434 24/133/436
f 203/134/437 202/129/435 24/133/436 20/136/438
f 204/137/439 203/134/437 20/136/438 2/138/440
s 34
f 35/270/441 205/267/442 204/269/443 2/271/444
f 43/268/445 206/264/446 205/267/442 35/270/441
f 7/265/447 207/259/448 206/264/446 43/268/445
f 71/260/449 208/253/450 207/259/448 7/265/447
f 55/254/393 187/248/392 208/253/450 71/260/449
s 53
f 142/447/451 140/448/452 212/449/453 211/450/454
s 37
f 140/61/309 234/68/308 235/74/455 212/75/456
s 54
f 237/139/457 238/140/458 184/141/459 214/142/460
s 53
f 184/451/461 142/447/451 211/450/454 214/452/462
s 1
f 3/314/4 61/313/3 216/319/463 215/320/464
s 37
f 194/73/408 3/80/407 215/88/465 209/82/466
s 1
f 61/313/3 65/318/49 217/326/467 216/319/463
s 54
f 65/145/468 195/143/469 213/144/470 217/146/471
s 36
f 243/108/472 244/104/304 149/101/303 221/109/473
s 55
f 149/453/474 179/454/475 218/455/476 221/456/477
s 56
f 164/147/478 240/148/479 241/149/480 223/150/481
s 55
f 179/454/475 164/457/482 223/458/483 218/455/476
s 56
f 197/151/484 49/153/485 224/154/486 222/152/487
s 1
f 49/332/32 29/339/13 225/348/488 224/349/489
f 29/339/13 4/347/16 226/355/490 225/348/488
s 36
f 4/116/429 198/110/428 220/115/491 226/122/492
s 34
f 228/244/298 227/243/297 187/248/392 188/249/391
s 37
f 188/97/397 189/95/396 229/91/312 228/94/311
f 189/95/396 190/92/400 230/85/355 229/91/312
f 190/92/400 191/86/402 231/78/339 230/85/355
f 191/86/402 192/79/404 232/71/340 231/78/339
f 192/79/404 193/72/406 233/67/307 232/71/340
f 193/72/406 194/73/408 234/68/308 233/67/307
f 235/74/455 234/68/308 194/73/408 209/82/466
s 35
f 209/276/412 210/277/411 236/273/300 235/272/299
f 237/278/389 236/273/300 210/277/411 213/282/413
s 54
f 195/143/469 238/140/458 237/139/457 213/144/470
s 51
f 239/306/493 238/307/494 195/303/416 196/302/415
f 240/310/495 239/306/493 196/302/415 197/308/419
s 56
f 241/149/480 240/148/479 197/151/484 222/152/487
s 44
f 242/285/336 241/289/380 222/292/422 219/290/421
f 243/286/337 242/285/336 219/290/421 220/291/425
s 36
f 198/110/428 244/104/304 243/108/472 220/115/491
f 245/105/305 244/104/304 198/110/428 199/111/427
f 246/112/344 245/105/305 199/111/427 200/118/431
f 247/119/345 246/112/344 200/118/431 201/124/433
f 248/125/361 247/119/345 201/124/433 202/129/435
f 249/130/316 248/125/361 202/129/435 203/134/437
f 250/135/317 249/130/316 203/134/437 204/137/439
s 34
f 204/269/443 205/267/442 251/263/332 250/266/331
f 205/267/442 206/264/446 252/258/371 251/263/332
f 206/264/446 207/259/448 253/252/372 252/258/371
f 207/259/448 208/253/450 254/247/385 253/252/372
f 208/253/450 187/248/392 227/243/297 254/247/385
s 57
f 239/459/496 240/460/497 257/461/498 256/462/499
s off
f 240/155/500 164/156/501 258/157/502 257/158/503
s 58
f 164/465/504 161/466/505 255/467/506 258/468/507
s off
f 184/159/508 238/160/509 260/161/510 259/162/511
s 57
f 238/463/512 239/459/496 256/462/499 260/464/513
s 58
f 161/466/505 184/469/514 259/470/515 255/467/506
